<?xml version="1.0" standalone="no"?>
<!DOCTYPE svg PUBLIC "-//W3C//DTD SVG 1.1//EN" "http://www.w3.org/Graphics/SVG/1.1/DTD/svg11.dtd" >
<svg xmlns="http://www.w3.org/2000/svg" xmlns:xlink="http://www.w3.org/1999/xlink" version="1.1">
<metadata></metadata>
<defs>
<font id="alfa_slab_oneregular" horiz-adv-x="0" >
<font-face units-per-em="2048" ascent="1638" descent="-410" />
<missing-glyph horiz-adv-x="614" />
<glyph />
<glyph unicode="&#xd;" />
<glyph />
<glyph />
<glyph />
<glyph />
<glyph />
<glyph />
<glyph />
<glyph />
<glyph unicode="&#x9;" />
<glyph />
<glyph />
<glyph />
<glyph />
<glyph />
<glyph />
<glyph />
<glyph />
<glyph />
<glyph />
<glyph unicode=" "  horiz-adv-x="614" />
<glyph unicode="&#x09;" horiz-adv-x="614" />
<glyph unicode="&#xa0;" horiz-adv-x="614" />
<glyph unicode="!" horiz-adv-x="702" d="M41 1489v104h612v-104l-96 -1106h-422zM109 0v313h473v-313h-473z" />
<glyph unicode="&#x22;" horiz-adv-x="825" d="M57 1139l88 454h275l-158 -454h-205zM412 1139l88 454h272l-156 -454h-204z" />
<glyph unicode="#" horiz-adv-x="1499" d="M45 395l33 285h231l27 215h-250l33 285h254l51 413h291v-45l-47 -368h245l52 413h290v-45l-47 -368h246l-33 -285h-247l-27 -215h266l-33 -285h-268l-47 -395h-293v45l43 350h-244l-47 -395h-293v45l43 350h-229zM606 680h244l27 215h-244z" />
<glyph unicode="$" horiz-adv-x="1404" d="M45 1128q0 100 27.5 183.5t89 146t162 102t247.5 54.5v235h269v-231q96 -6 169.5 -19.5t135 -31t113 -37t83.5 -39.5v-367h-430q0 59 -32.5 81t-79.5 22q-68 0 -97.5 -17.5t-29.5 -60.5q0 -35 31.5 -51.5t95.5 -36.5q119 -39 224 -82t185 -106.5t126 -153.5t46 -221 q0 -236 -137 -366t-403 -155v-247h-269v245q-193 12 -311.5 45t-196.5 62v405h451q0 -61 24.5 -90.5t102.5 -29.5q68 0 96.5 20.5t28.5 61.5q0 29 -23.5 50t-95.5 50q-152 57 -265.5 109.5t-188 116t-111.5 148.5t-37 205z" />
<glyph unicode="%" horiz-adv-x="1740" d="M29 1210q0 117 25.5 196t72.5 127t113.5 68.5t148.5 20.5q80 0 145.5 -21.5t111.5 -69.5t71.5 -127t25.5 -194q0 -117 -25.5 -195.5t-71.5 -126.5t-111.5 -68.5t-145.5 -20.5q-82 0 -148.5 20.5t-113.5 68.5t-72.5 126.5t-25.5 195.5zM160 0v66l1128 1527h291v-65 l-1126 -1528h-293zM315 1217q0 -66 3.5 -106t10.5 -61.5t20 -27.5t34 -6q23 0 36 8t21.5 30.5t10.5 61.5t2 101q0 61 -2 100t-10.5 61.5t-21.5 30.5t-36 8q-20 0 -33.5 -8t-20.5 -30.5t-10.5 -61.5t-3.5 -100zM997 383q0 117 26 195.5t73 127t113.5 69t148.5 20.5 q80 0 145.5 -21.5t111.5 -70t71.5 -127t25.5 -193.5q0 -117 -25.5 -195.5t-71.5 -127t-111.5 -69t-145.5 -20.5q-82 0 -148.5 20.5t-113.5 69t-73 127t-26 195.5zM1284 389q0 -66 3 -105.5t10.5 -61t20.5 -28t34 -6.5q20 0 34.5 8.5t21.5 31t10 61.5t3 100t-2 100t-10 61.5 t-21.5 31t-35.5 8.5q-20 0 -33.5 -8.5t-21 -31t-10.5 -61.5t-3 -100z" />
<glyph unicode="&#x26;" horiz-adv-x="1611" d="M-10 430q0 76 24.5 138.5t66.5 112.5t96 89t114 68q-104 78 -167 161.5t-63 206.5q0 100 49.5 178t137.5 130.5t207.5 80t261.5 27.5q115 0 206 -14.5t162.5 -37t126 -49t95.5 -51.5v-393h-430v29q0 80 -35 115.5t-105 35.5t-99.5 -30.5t-29.5 -77.5q0 -23 12.5 -43.5 t32 -38.5t43 -35.5t45.5 -36.5l334 -252q4 25 6 49.5t2 49.5v37h494v-342h-119l-18 -68l184 -139l-250 -330l-149 115q-76 -57 -200 -100.5t-310 -43.5q-358 0 -541.5 122t-183.5 337zM547 442q0 -53 39.5 -79.5t150.5 -26.5q94 0 154 37l-260 200q-39 -20 -61.5 -54 t-22.5 -77z" />
<glyph unicode="'" horiz-adv-x="520" d="M57 1139l88 454h322l-158 -454h-252z" />
<glyph unicode="(" horiz-adv-x="716" d="M74 672q0 227 43 408.5t108.5 321.5t145.5 242.5t151 174.5l223 -103q-49 -76 -100 -177t-94 -230t-69.5 -288t-26.5 -349q0 -193 27.5 -351.5t69.5 -285.5t93 -226.5t100 -170.5l-223 -107q-72 68 -150.5 168t-145 240.5t-109.5 322t-43 410.5z" />
<glyph unicode=")" horiz-adv-x="716" d="M-29 -362q47 74 98.5 172t94.5 226t70.5 285.5t27.5 350.5q0 190 -27.5 348t-70.5 287t-94.5 230t-98.5 179l224 103q70 -70 149.5 -172.5t145 -243.5t109.5 -322.5t44 -408.5q0 -229 -44 -411.5t-110.5 -322t-145.5 -240.5t-148 -167z" />
<glyph unicode="*" horiz-adv-x="837" d="M33 1128l22 19l205 67l-205 68l-22 14l123 211l24 -14l154 -127l-37 193v34h246v-34l-37 -193l151 127l23 14l125 -211l-25 -14l-207 -68l207 -67l25 -19l-125 -204l-174 137l37 -193v-30h-246v30l37 193l-154 -123l-24 -14z" />
<glyph unicode="+" horiz-adv-x="1179" d="M82 530v342h338v338h342v-338h336v-342h-336v-337h-342v337h-338z" />
<glyph unicode="," horiz-adv-x="501" d="M82 -330l106 330h-104v336h319v-336l-145 -330h-176z" />
<glyph unicode="-" horiz-adv-x="796" d="M70 485v336h657v-336h-657z" />
<glyph unicode="." horiz-adv-x="499" d="M82 0v336h319v-336h-319z" />
<glyph unicode="/" horiz-adv-x="866" d="M-41 -244l657 1968h291v-65l-655 -1968h-293v65z" />
<glyph unicode="0" horiz-adv-x="1499" d="M29 797q0 223 51 380.5t144 256t226.5 143.5t299.5 45t299 -45t226 -143.5t144 -256t51 -380.5q0 -225 -51 -382t-144 -255.5t-226.5 -143.5t-298.5 -45q-166 0 -299.5 45t-226.5 143.5t-144 255t-51 382.5zM610 487q0 -80 35 -115.5t105 -35.5t104.5 36t34.5 115v619 q0 80 -35 115.5t-104 35.5q-70 0 -105 -35.5t-35 -115.5v-619z" />
<glyph unicode="1" horiz-adv-x="1083" d="M29 1257v232l454 104h396v-1257h172v-336h-961v336h197v921h-258z" />
<glyph unicode="2" horiz-adv-x="1329" d="M25 0v313q160 135 293 257t229 225.5t149.5 182.5t53.5 128q0 80 -35 115.5t-105 35.5t-104.5 -35.5t-34.5 -115.5v-102h-410v485q53 27 117 48.5t150 41.5t183 31.5t198 11.5q291 0 434 -118t143 -347q0 -125 -58.5 -238.5t-148.5 -217t-197.5 -194.5t-205.5 -171h250 v117h399v-453h-1300z" />
<glyph unicode="3" horiz-adv-x="1275" d="M49 113v432h410v-58q0 -80 34.5 -115.5t104.5 -35.5t104.5 37t34.5 135q0 76 -33.5 113.5t-109.5 37.5h-148v310h146q78 0 111.5 36.5t33.5 100.5q0 80 -34.5 115.5t-104.5 35.5t-104.5 -35.5t-34.5 -115.5v-35h-410v418q37 20 89 43.5t124 44t164 33t209 12.5 q289 0 437.5 -119t148.5 -336q0 -70 -18.5 -124t-46.5 -95t-61.5 -71.5t-62.5 -53.5v-20q33 -20 71 -49t70.5 -70t55 -98.5t22.5 -132.5q0 -109 -38.5 -198t-117.5 -152.5t-199 -97.5t-282 -34q-111 0 -197.5 13.5t-155 33t-121 45t-91.5 50.5z" />
<glyph unicode="4" horiz-adv-x="1421" d="M37 473v350l248 770h485l-252 -809h184v281h531v-281h164v-311h-164v-113h125v-360h-916v360h260v113h-665z" />
<glyph unicode="5" horiz-adv-x="1333" d="M57 762l76 831h1090v-397h-680l-19 -213q53 31 133 50.5t146 19.5q119 0 213 -37t157.5 -103.5t97.5 -160t34 -205.5q0 -285 -168 -440.5t-475 -155.5q-113 0 -204 13t-165 34.5t-130.5 48.5t-99.5 51v412h476q0 -72 21.5 -111t88.5 -39q59 0 83 43t24 142 q0 104 -23.5 151t-87.5 47q-61 0 -83.5 -37.5t-22.5 -84.5h-389z" />
<glyph unicode="6" horiz-adv-x="1419" d="M37 684q0 252 56.5 430t158.5 291t243.5 165t313.5 52q88 0 161.5 -9t135 -24.5t110 -34t87.5 -34.5v-330q-72 23 -176.5 45t-227.5 22q-147 0 -214 -78.5t-67 -201.5v-59q61 23 143.5 40t158.5 17q92 0 179 -20.5t154.5 -73t108.5 -140.5t41 -223q0 -285 -168 -416 t-477 -131q-166 0 -299 43t-226.5 131t-144.5 222.5t-51 316.5zM618 487q0 -80 35 -115.5t105 -35.5t104.5 36t34.5 115q0 166 -145 166q-25 0 -60 -6t-74 -20v-140z" />
<glyph unicode="7" horiz-adv-x="1290" d="M20 1008v585h1287v-311q-131 -213 -201 -357.5t-119 -260t-83 -226t-54.5 -222.5t-20.5 -216h-579q0 160 48 320.5t122 313t163 300t173 262.5h-305v-188h-431z" />
<glyph unicode="8" horiz-adv-x="1433" d="M20 434q0 94 29 161t72 113t93 72.5t93 38.5v21q-39 12 -82 35.5t-77.5 62.5t-58 95.5t-23.5 133.5q0 94 40.5 177t122.5 144.5t204 97.5t284 36t283.5 -36t202.5 -97.5t121 -144t40 -177.5q0 -78 -24.5 -135t-60.5 -96t-78 -61.5t-77 -34.5v-21q43 -12 93.5 -38.5 t93.5 -70.5t72.5 -108.5t29.5 -155.5q0 -109 -46 -195.5t-134 -149t-218 -96.5t-298 -34t-298 34t-218 95.5t-134.5 146.5t-46.5 187zM557 487q0 -80 40 -115.5t120 -35.5t120 35.5t40 115.5q0 98 -40 139.5t-120 41.5t-120 -41t-40 -140zM578 1106q0 -55 34.5 -91 t104.5 -36t104.5 36t34.5 91q0 80 -35 115.5t-104 35.5q-70 0 -104.5 -35.5t-34.5 -115.5z" />
<glyph unicode="9" horiz-adv-x="1419" d="M20 1065q0 291 167 424t479 133q170 0 304 -43t226 -131t141 -222t49 -317q0 -260 -52 -439t-152.5 -289.5t-243.5 -160t-324 -49.5q-174 0 -295.5 34t-207.5 69v329q80 -27 191.5 -47t252.5 -20q125 0 187.5 72.5t62.5 207.5v43q-55 -20 -129 -38.5t-172 -18.5 q-92 0 -179 20.5t-155 73t-109 141.5t-41 228zM526 1085q1 -161 146 -161q39 0 72.5 8t60.5 18v156q0 80 -35 115.5t-104 35.5q-70 0 -105 -36.5t-35 -135.5z" />
<glyph unicode=":" horiz-adv-x="499" d="M82 0v336h319v-336h-319zM82 727v336h319v-336h-319z" />
<glyph unicode=";" horiz-adv-x="501" d="M82 -330l106 330h-104v336h319v-336l-145 -330h-176zM84 727v336h319v-336h-319z" />
<glyph unicode="&#x3c;" horiz-adv-x="1021" d="M74 471v377l815 332h43v-320l-555 -188v-23l555 -190v-318h-43z" />
<glyph unicode="=" horiz-adv-x="1013" d="M82 250v342h850v-342h-850zM82 793v340h850v-340h-850z" />
<glyph unicode="&#x3e;" horiz-adv-x="1021" d="M90 141v318l555 190v23l-555 188v320h43l815 -332v-377l-815 -330h-43z" />
<glyph unicode="?" horiz-adv-x="1257" d="M4 1464q55 27 124 54.5t149.5 50t175 38t198.5 15.5q137 0 248 -34t187.5 -94t117.5 -141t41 -175q0 -121 -34.5 -197t-86 -128t-113 -90t-112.5 -80t-86 -100.5t-35 -150.5h-489v111q0 86 27.5 147.5t70.5 106.5t91 78.5t91 65.5t71 65.5t28 78.5q0 35 -27 58.5 t-96 23.5q-59 0 -118.5 -11t-115 -28.5t-105.5 -39t-93 -41.5zM289 0v336h487v-336h-487z" />
<glyph unicode="@" horiz-adv-x="2351" d="M66 440q0 272 96 491.5t261 373t386 235.5t471 82q233 0 417.5 -62.5t313.5 -177t197.5 -277.5t68.5 -362q0 -203 -53 -348t-138 -239.5t-192.5 -139.5t-214.5 -45q-82 0 -139 18.5t-96 48.5t-61.5 67.5t-32.5 76.5q-23 -33 -59 -69.5t-85 -68.5t-109.5 -52.5 t-129.5 -20.5q-199 0 -300.5 137.5t-101.5 372.5q0 174 53.5 303t145.5 214t217 127t268 42q129 0 268.5 -34.5t256.5 -88.5v-714q0 -23 13 -34t30 -11q47 0 88 109.5t41 303.5q0 313 -186.5 465t-522.5 152q-188 0 -343 -61.5t-265.5 -173t-171 -267.5t-60.5 -344 q0 -176 46 -298t129 -198.5t198 -110.5t254 -34q166 0 259 14.5t149 34.5v-297q-78 -25 -182.5 -44t-258.5 -19q-444 0 -684.5 229t-240.5 694zM1065 426q0 -59 25.5 -85t68.5 -26q45 0 83 27t61 57v471q-16 4 -45 9.5t-58 5.5q-66 0 -100.5 -51.5t-34.5 -120.5v-287z" />
<glyph unicode="A" horiz-adv-x="1650" d="M37 0v336h82l346 1257h745l346 -1257h82v-336h-802v336h122l-34 164h-277l-33 -164h123v-336h-700zM692 717h189l-84 407h-21z" />
<glyph unicode="B" horiz-adv-x="1628" d="M53 0v336h123v921h-123v336h961q252 0 397 -102t145 -301q0 -98 -36.5 -168t-90 -115t-111.5 -69.5t-101 -32.5v-21q45 -4 110.5 -19t124.5 -55t101 -111t42 -185q0 -115 -47 -194t-127 -128t-185.5 -70.5t-221.5 -21.5h-961zM750 336h124q59 0 89 30.5t30 100.5v90 q0 70 -29.5 100.5t-89.5 30.5h-124v-352zM750 922h110q59 0 89 30.5t30 100.5v73q0 70 -29.5 100.5t-89.5 30.5h-110v-335z" />
<glyph unicode="C" horiz-adv-x="1511" d="M37 797q0 223 55 380.5t156.5 256t247 143.5t323.5 45q123 0 219.5 -14.5t173 -36t135 -49t103.5 -52.5v-512h-492v148q0 80 -34.5 115.5t-104.5 35.5t-104.5 -35.5t-34.5 -115.5v-619q0 -80 35 -115.5t104 -35.5q70 0 104.5 36t34.5 115v166h492v-530 q-41 -25 -99.5 -52.5t-135 -49t-174 -36t-218.5 -14.5q-180 0 -325.5 45t-248 143.5t-157.5 255t-55 382.5z" />
<glyph unicode="D" horiz-adv-x="1691" d="M57 0v336h123v919h-123v338h852q158 0 294 -40t236.5 -134t158 -246.5t57.5 -375.5q0 -225 -57.5 -377t-158 -246t-236.5 -134t-294 -40h-852zM754 336h118q70 0 105 36t35 115v619q0 80 -37 115.5t-103 35.5h-118v-921z" />
<glyph unicode="E" horiz-adv-x="1505" d="M53 0v336h123v921h-123v336h1403v-618h-459v282h-247v-323h180v-234h-180v-364h247v323h459v-659h-1403z" />
<glyph unicode="F" horiz-adv-x="1318" d="M57 0v336h123v921h-123v336h1246v-530h-363v194h-186v-339h309v-234h-309v-348h268v-336h-965z" />
<glyph unicode="G" horiz-adv-x="1622" d="M41 797q0 223 55.5 380.5t157.5 256t249.5 143.5t330.5 45q125 0 226 -12.5t182 -31.5t143.5 -43t109.5 -46v-490h-512v97q0 88 -36 124.5t-113 36.5q-78 0 -114 -36.5t-36 -124.5v-598q0 -88 36 -125t114 -37t113.5 37t35.5 125v14h-111v305h725v-305h-102v-410 q-47 -23 -109.5 -46t-143.5 -41.5t-181 -31t-223 -12.5q-184 0 -332 45t-251 143.5t-158.5 255t-55.5 382.5z" />
<glyph unicode="H" horiz-adv-x="1777" d="M49 0v336h123v921h-123v336h801v-336h-105v-311h308v311h-105v336h801v-336h-123v-921h123v-336h-801v336h105v338h-308v-338h105v-336h-801z" />
<glyph unicode="I" horiz-adv-x="897" d="M49 0v336h123v921h-123v336h819v-336h-123v-921h123v-336h-819z" />
<glyph unicode="J" horiz-adv-x="1069" d="M29 14v344q45 -10 96 -16t90 -6q70 0 112 44t42 148v729h-228v336h924v-336h-123v-710q0 -158 -48 -266.5t-131 -178t-194.5 -100.5t-236.5 -31q-92 0 -178 13.5t-125 29.5z" />
<glyph unicode="K" horiz-adv-x="1708" d="M53 0v336h123v921h-123v336h697v-551l374 551h529v-336h-82l-322 -413l353 -508h81v-336h-610l-323 561v-561h-697z" />
<glyph unicode="L" horiz-adv-x="1374" d="M53 0v336h123v921h-123v336h885v-336h-188v-921h184v188h407v-524h-1288z" />
<glyph unicode="M" horiz-adv-x="2463" d="M49 0v336h123v921h-123v336h979l234 -702l225 702h944v-336h-123v-921h123v-336h-819v336h123v809l-408 -1145h-221l-463 1149v-813h123v-336h-717z" />
<glyph unicode="N" horiz-adv-x="1949" d="M45 0v336h123v921h-123v336h760l538 -823v487h-122v336h716v-336h-122v-1257h-576l-600 924v-588h123v-336h-717z" />
<glyph unicode="O" horiz-adv-x="1634" d="M41 797q0 223 55.5 380.5t156.5 256t246.5 143.5t323.5 45t323.5 -45t247 -143.5t157 -256t55.5 -380.5q0 -225 -55.5 -382t-157 -255.5t-247 -143.5t-323.5 -45t-323.5 45t-246.5 143.5t-156.5 255t-55.5 382.5zM684 487q0 -80 34.5 -115.5t104.5 -35.5t105 36t35 115 v619q0 80 -35 115.5t-105 35.5t-104.5 -35.5t-34.5 -115.5v-619z" />
<glyph unicode="P" horiz-adv-x="1544" d="M57 0v336h123v921h-123v336h920q125 0 226.5 -25.5t171 -83t107.5 -149.5t38 -223q0 -133 -38 -224t-107.5 -148.5t-171 -83t-226.5 -25.5h-223v-295h196v-336h-893zM754 922h69q57 0 88 30.5t31 100.5v73q0 70 -29.5 100.5t-89.5 30.5h-69v-335z" />
<glyph unicode="Q" horiz-adv-x="1662" d="M33 797q0 223 55 380.5t156.5 256t247 143.5t323.5 45t323.5 -46t247 -140.5t156.5 -238.5t55 -339q0 -115 -25.5 -199t-61 -143t-73.5 -98t-63 -62l12 -20h244v-496q-324 0 -535.5 13.5t-351 44t-235.5 73.5q-61 25 -148.5 82.5t-171.5 166t-119.5 249.5t-35.5 328z M676 487q0 -80 34.5 -115.5t104.5 -35.5t104.5 36t34.5 115v619q0 80 -34.5 115.5t-104.5 35.5t-104.5 -35.5t-34.5 -115.5v-619z" />
<glyph unicode="R" horiz-adv-x="1667" d="M53 0v336h123v921h-123v336h961q125 0 226 -24.5t171 -78.5t107.5 -142t37.5 -215q0 -135 -54 -235.5t-159 -141.5l3 -21q197 -31 196 -241v-158h96v-336h-649v481q0 61 -13 99t-43 57.5t-75 27t-108 7.5v-336h135v-336h-832zM750 922h110q59 0 89 30.5t30 100.5v73 q0 70 -29.5 100.5t-89.5 30.5h-110v-335z" />
<glyph unicode="S" horiz-adv-x="1404" d="M45 1128q0 115 36 206t117 155.5t215 98.5t330 34q178 0 336 -36t262 -95v-367h-430q0 59 -32.5 81t-79.5 22q-68 0 -97.5 -17.5t-29.5 -60.5q0 -35 31.5 -51.5t95.5 -36.5q119 -39 224 -82t185 -106.5t126 -153.5t46 -221q0 -266 -172 -396.5t-503 -130.5 q-188 0 -362.5 33t-279.5 78v405h451q0 -61 24.5 -90.5t102.5 -29.5q68 0 96.5 20.5t28.5 61.5q0 29 -23.5 50t-95.5 50q-152 57 -265.5 109.5t-188 116t-111.5 148.5t-37 205z" />
<glyph unicode="T" horiz-adv-x="1576" d="M33 1098v495h1540v-495h-352v159h-131v-921h143v-336h-860v336h143v921h-131v-159h-352z" />
<glyph unicode="U" horiz-adv-x="1628" d="M45 1257v336h778v-336h-82v-790q0 -70 30 -100.5t89 -30.5t89 30.5t30 100.5v790h-82v336h723v-336h-123v-686q0 -166 -46 -279.5t-132 -185t-208 -103.5t-271 -32q-154 0 -278 32t-211 103.5t-135 185.5t-48 279v686h-123z" />
<glyph unicode="V" horiz-adv-x="1589" d="M29 1257v336h782v-336h-102l141 -808h20l142 808h-103v336h680v-336h-82l-325 -1257h-746l-325 1257h-82z" />
<glyph unicode="W" horiz-adv-x="2574" d="M29 1257v336h813v-336h-133l100 -768h20l236 1104h590l221 -1104h20l101 768h-133v336h710v-336h-82l-264 -1257h-715l-186 844h-20l-197 -844h-715l-284 1257h-82z" />
<glyph unicode="X" horiz-adv-x="1691" d="M57 0v336h82l238 477l-219 444h-82v336h651l152 -475h41l153 475h569v-336h-81l-220 -442l240 -479h82v-336h-651l-172 520h-41l-172 -520h-570z" />
<glyph unicode="Y" horiz-adv-x="1546" d="M25 1257v336h784v-336h-72l121 -358h21l120 358h-71v336h618v-336h-71l-396 -708v-213h123v-336h-819v336h123v213l-408 708h-73z" />
<glyph unicode="Z" horiz-adv-x="1427" d="M45 0v295l631 962h-193v-167h-407v503h1290v-295l-629 -962h254v168h408v-504h-1354z" />
<glyph unicode="[" horiz-adv-x="665" d="M90 -539v2327l547 47l25 -264l-228 -47v-1798l228 -48l-25 -264z" />
<glyph unicode="\" horiz-adv-x="868" d="M-41 1659v65h293l657 -1968v-65h-295z" />
<glyph unicode="]" horiz-adv-x="665" d="M4 -322l227 48v1798l-227 47l25 264l546 -47v-2327l-546 -47z" />
<glyph unicode="^" horiz-adv-x="845" d="M29 1069v31l239 493h310l239 -493v-31h-258l-127 291h-18l-127 -291h-258z" />
<glyph unicode="_" horiz-adv-x="1294" d="M33 -147h1229v-193h-1229v193z" />
<glyph unicode="`" horiz-adv-x="546" d="M-86 1538v55h438l223 -311v-31h-327z" />
<glyph unicode="a" horiz-adv-x="1335" d="M16 291q0 195 181.5 294t556.5 99q0 57 -37 88t-152 31q-123 0 -246.5 -18.5t-228.5 -41.5v353q104 29 256 50t311 21q164 0 273.5 -30.5t175 -93t92.5 -155.5t27 -216v-336h90v-336h-561v139q-18 -25 -49 -54.5t-75 -54t-102.5 -42t-132.5 -17.5q-178 0 -278.5 82 t-100.5 238zM516 401q0 -65 110 -65h3q125 0 125 131v12q-127 0 -182.5 -17.5t-55.5 -60.5z" />
<glyph unicode="b" horiz-adv-x="1359" d="M37 0v336h90v921h-90v336h561v-594q18 25 48 54.5t71 54.5t90 42t108 17q213 0 316.5 -156.5t103.5 -441.5t-103.5 -441.5t-316.5 -156.5q-59 0 -108 17.5t-90 42t-71 54.5t-48 54v-139h-561zM598 467q0 -70 29.5 -100.5t89.5 -30.5q59 0 89 30.5t30 100.5v205 q0 70 -30 100.5t-89 30.5t-89 -31t-30 -100v-205z" />
<glyph unicode="c" horiz-adv-x="1134" d="M16 569q0 150 43 262.5t124 187.5t196 111.5t256 36.5q86 0 156.5 -12t128 -30.5t103.5 -41t83 -43.5v-405h-352v37q0 70 -30 100.5t-89 30.5q-57 0 -88 -31t-31 -100v-176q0 -76 42 -118t140 -42q100 0 200.5 10t195.5 27v-322q-39 -14 -84 -28.5t-100.5 -25.5 t-122 -18.5t-150.5 -7.5q-143 0 -258 37t-196 112t-124 186.5t-43 262.5z" />
<glyph unicode="d" horiz-adv-x="1343" d="M25 569q0 285 103 441.5t316 156.5q57 0 107.5 -17t90.5 -42t70.5 -54.5t49.5 -54.5v258h-121v336h592v-1257h90v-336h-561v139q-18 -25 -49 -54.5t-71 -54t-90 -42t-108 -17.5q-213 0 -316 157t-103 441zM524 467q0 -70 30 -100.5t89 -30.5t89 30.5t30 100.5v205 q0 70 -30 100.5t-89 30.5t-89 -31t-30 -100v-205z" />
<glyph unicode="e" horiz-adv-x="1204" d="M16 569q0 150 43 262.5t124 187.5t196 111.5t256 36.5q158 0 262 -46t167.5 -119.5t89.5 -168t26 -190.5v-147h-664v-13q0 -74 42 -110.5t153 -36.5q135 0 247.5 20.5t186.5 44.5v-327q-37 -18 -85 -36t-109.5 -33t-139.5 -24.5t-176 -9.5q-141 0 -256 37t-196 112 t-124 186.5t-43 262.5zM516 659h238v13q0 70 -30 100.5t-89 30.5t-89 -31t-30 -100v-13z" />
<glyph unicode="f" horiz-adv-x="778" d="M37 0v336h90v467h-90v336h94q0 248 123 365.5t354 117.5q88 0 164 -15.5t127 -37.5v-322q-51 6 -85 8t-75 2q-80 0 -110.5 -26.5t-30.5 -91.5h160v-336h-160v-467h160v-336h-721z" />
<glyph unicode="g" horiz-adv-x="1343" d="M25 569q0 285 103 441.5t316 156.5q57 0 107.5 -17t90.5 -42t70.5 -54.5t49.5 -54.5v140h561v-336h-90v-721q0 -152 -38 -259.5t-113.5 -175t-186.5 -99t-254 -31.5q-135 0 -274.5 20.5t-214.5 46.5v336q86 -16 187 -27.5t202 -11.5q121 0 171 38t50 132v88 q-18 -25 -49 -54.5t-71 -54t-90 -42t-108 -17.5q-213 0 -316 157t-103 441zM524 467q0 -70 30 -100.5t89 -30.5t89 30.5t30 100.5v205q0 70 -30 100.5t-89 30.5t-89 -31t-30 -100v-205z" />
<glyph unicode="h" horiz-adv-x="1417" d="M37 0v336h90v921h-90v336h561v-594q25 25 55.5 54.5t72.5 54.5t95 42t123 17q168 0 265.5 -119.5t97.5 -375.5v-336h90v-336h-652v336h91v336q0 70 -30 100.5t-89 30.5t-89 -31t-30 -100v-336h90v-336h-651z" />
<glyph unicode="i" horiz-adv-x="708" d="M37 0v336h90v467h-90v336h561v-803h90v-336h-651zM176 1251v342h377v-342h-377z" />
<glyph unicode="j" horiz-adv-x="669" d="M-184 -104q63 -8 111 -11.5t81 -3.5q66 0 101.5 35t35.5 113v774h-137v336h608v-1069q0 -285 -117.5 -419t-359.5 -134q-86 0 -168 12t-155 33v334zM195 1251v342h376v-342h-376z" />
<glyph unicode="k" horiz-adv-x="1380" d="M37 0v336h90v921h-90v336h561v-831h49l254 377h432v-336h-84l-174 -195l197 -272h88v-336h-502l-211 393h-49v-393h-561z" />
<glyph unicode="l" horiz-adv-x="708" d="M37 0v336h90v921h-90v336h561v-1257h90v-336h-651z" />
<glyph unicode="m" horiz-adv-x="2125" d="M37 0v336h90v467h-90v336h561v-140q25 25 55.5 54.5t72.5 54.5t95 42t123 17t121 -15t89 -38.5t64.5 -53.5t47.5 -61q31 29 65.5 58.5t80.5 54.5t104.5 40t136.5 15q168 0 265 -119.5t97 -375.5v-336h90v-336h-651v336h90v336q0 70 -29.5 100.5t-89.5 30.5 q-59 0 -88.5 -31t-29.5 -100v-336h90v-336h-652v336h91v336q0 70 -30 100.5t-89 30.5t-89 -31t-30 -100v-336h90v-336h-651z" />
<glyph unicode="n" horiz-adv-x="1409" d="M33 0v336h90v467h-90v336h561v-140q25 25 55.5 54.5t72.5 54.5t95 42t123 17q168 0 265.5 -119.5t97.5 -375.5v-336h90v-336h-652v336h90v336q0 70 -29.5 100.5t-88.5 30.5t-89 -31t-30 -100v-336h90v-336h-651z" />
<glyph unicode="o" horiz-adv-x="1269" d="M16 569q0 150 43 262.5t124 187.5t196 111.5t256 36.5t256 -36.5t195.5 -111.5t123.5 -187.5t43 -262.5q0 -152 -43 -263t-123.5 -186t-195.5 -112t-256 -37t-256 37t-196 112t-124 186.5t-43 262.5zM516 467q0 -70 30 -100.5t89 -30.5t89 30.5t30 100.5v205 q0 70 -30 100.5t-89 30.5t-89 -31t-30 -100v-205z" />
<glyph unicode="p" horiz-adv-x="1331" d="M8 -119h90v922h-90v336h561v-140q18 25 48 54.5t71 54.5t90 42t109 17q213 0 316.5 -156.5t103.5 -441.5t-103.5 -441.5t-316.5 -156.5q-59 0 -108.5 17.5t-90.5 42t-70.5 54.5t-48.5 54v-258h142v-336h-703v336zM569 467q0 -70 30 -100.5t89 -30.5t89 30.5t30 100.5v205 q0 70 -29.5 100.5t-89.5 30.5q-59 0 -89 -31t-30 -100v-205z" />
<glyph unicode="q" horiz-adv-x="1339" d="M25 569q0 285 103 441.5t316 156.5q57 0 107.5 -17t90.5 -42t70.5 -54.5t49.5 -54.5v140h561v-336h-90v-1258h-612v336h141v258q-18 -25 -49 -54.5t-71 -54t-90 -42t-108 -17.5q-213 0 -316 157t-103 441zM524 467q0 -70 30 -100.5t89 -30.5t89 30.5t30 100.5v205 q0 70 -30 100.5t-89 30.5t-89 -31t-30 -100v-205z" />
<glyph unicode="r" horiz-adv-x="1067" d="M37 0v336h90v467h-90v336h561v-135l20 -7q14 29 37 59.5t55.5 55.5t74.5 40t96 15q43 0 84 -6t82 -22v-355q-68 12 -114 15.5t-77 3.5q-135 0 -196.5 -60.5t-61.5 -207.5v-199h186v-336h-747z" />
<glyph unicode="s" horiz-adv-x="1093" d="M12 793q0 80 29 148.5t92.5 118.5t162.5 78.5t239 28.5q152 0 273.5 -17t201.5 -44v-277q-98 12 -198.5 20.5t-190.5 8.5q-86 0 -122 -12t-36 -37q0 -12 6 -21.5t23.5 -16.5t48 -12t77.5 -9q238 -23 350.5 -117t112.5 -268q0 -182 -125 -288t-391 -106 q-156 0 -283.5 18.5t-209.5 45.5v284q154 -23 252 -29.5t155 -6.5q90 0 119 14t29 39q0 27 -31 40t-127 27q-213 29 -335 123.5t-122 266.5z" />
<glyph unicode="t" horiz-adv-x="915" d="M8 803v336q82 0 119 42t37 107v92h434v-241h276v-336h-276v-336q0 -70 29.5 -100.5t89.5 -30.5q82 0 170 18v-321q-66 -25 -157 -43.5t-195 -18.5t-185.5 22.5t-136.5 77t-85 142.5t-30 219v371h-90z" />
<glyph unicode="u" horiz-adv-x="1384" d="M4 803v336h561v-672q0 -70 30 -100.5t89 -30.5t89 30.5t30 100.5v336h-111v336h582v-803h90v-336h-561v139q-25 -27 -56.5 -55.5t-72.5 -53t-94.5 -42t-122.5 -17.5q-168 0 -265.5 120t-97.5 376v336h-90z" />
<glyph unicode="v" horiz-adv-x="1314" d="M8 803v336h639v-336h-92l111 -467h20l111 467h-92v336h602v-336h-88l-213 -803h-693l-219 803h-86z" />
<glyph unicode="w" horiz-adv-x="1976" d="M8 803v336h639v-336h-92l74 -422h20l158 758h397l166 -758h21l67 422h-94v336h604v-336h-88l-199 -803h-610l-74 344h-20l-70 -344h-604l-209 803h-86z" />
<glyph unicode="x" horiz-adv-x="1296" d="M37 0v336h96l115 248l-109 219h-88v336h545l94 -375h41l86 375h447v-336h-84l-107 -240l115 -227h88v-336h-543l-102 385h-41l-92 -385h-461z" />
<glyph unicode="y" horiz-adv-x="1327" d="M4 803v336h561v-672q0 -70 30 -100.5t89 -30.5t89 30.5t30 100.5v336h-111v336h582v-1024q0 -307 -154.5 -452.5t-462.5 -145.5q-147 0 -285.5 19.5t-234.5 47.5v336q113 -20 214.5 -29.5t230.5 -9.5q111 0 166 34t55 138v86q-25 -27 -56.5 -55.5t-72.5 -53t-94.5 -42 t-122.5 -17.5q-168 0 -265.5 120t-97.5 376v336h-90z" />
<glyph unicode="z" horiz-adv-x="1142" d="M20 0v305l500 498h-182v-74h-305v410h1075v-293l-487 -510h196v115h309v-451h-1106z" />
<glyph unicode="{" horiz-adv-x="612" d="M45 510v223q18 0 38.5 6t37 22.5t28 44.5t11.5 71q0 90 -8.5 156.5t-18.5 129t-18.5 130t-8.5 159.5q0 104 44.5 162.5t111 88.5t145 37t148.5 7v-182q-43 0 -77 -26t-34 -107q0 -80 7.5 -140.5t16.5 -119t17.5 -122t8.5 -149.5q0 -123 -46.5 -187.5t-111.5 -92.5 q66 -29 112 -92.5t46 -186.5q0 -86 -8.5 -149.5t-17.5 -122t-16.5 -119t-7.5 -139.5q0 -43 10.5 -69t27 -41t36 -20.5t37.5 -5.5v-182q-70 0 -148.5 7t-145 37t-111 89.5t-44.5 163.5q0 90 8.5 157.5t18.5 130t18.5 130t8.5 158.5q0 43 -11.5 70.5t-28 44t-37 22.5t-38.5 6z " />
<glyph unicode="|" horiz-adv-x="522" d="M127 -670v2595h268v-2595h-268z" />
<glyph unicode="}" horiz-adv-x="612" d="M57 -324q18 0 39 5.5t37.5 20.5t26.5 41t10 69q0 80 -8 140t-17.5 118.5t-17.5 122t-8 149.5q0 123 47 186.5t113 92.5q-66 29 -113 93t-47 187q0 86 8 149.5t17.5 122t17.5 119t8 140.5q0 82 -35 107.5t-78 25.5v182q70 0 149 -7t145.5 -37t110.5 -88.5t44 -162.5 q0 -92 -8.5 -159.5t-17.5 -130t-17 -129t-8 -156.5q0 -43 11 -71t27.5 -44.5t36 -22.5t37.5 -6v-223q-18 0 -37.5 -6t-36 -22.5t-27.5 -44t-11 -70.5q0 -90 8 -158t17 -130.5t17.5 -130t8.5 -157.5q0 -104 -44 -163.5t-110.5 -89.5t-145.5 -37t-149 -7v182z" />
<glyph unicode="~" horiz-adv-x="1265" d="M61 489q0 53 9.5 118t41 122t93 95t168.5 38q92 0 161.5 -15.5t134 -32.5t132 -32.5t155.5 -15.5q82 0 108 24.5t26 49.5h114q0 -55 -7 -121t-37 -122t-89 -93t-164 -37q-92 0 -161.5 15.5t-135 34t-135 33.5t-162.5 15q-43 0 -70.5 -8t-44 -19.5t-22.5 -24.5t-6 -24 h-109z" />
<glyph unicode="&#xa1;" horiz-adv-x="702" d="M49 -350l96 1065h422l95 -1065v-105h-613v105zM121 825v314h473v-314h-473z" />
<glyph unicode="&#xa2;" horiz-adv-x="1134" d="M16 569q0 258 123 403.5t340 182.5v191h269v-185q131 -16 216 -50t142 -71v-405h-352v37q0 70 -30 100.5t-89 30.5q-57 0 -88 -31t-31 -100v-176q0 -76 42 -118t140 -42q100 0 200.5 10t195.5 27v-322q-59 -23 -141.5 -44t-204.5 -32v-188h-269v197q-217 37 -340 181 t-123 404z" />
<glyph unicode="&#xa3;" horiz-adv-x="1261" d="M49 156q27 33 57.5 75.5t57 96t44 116t17.5 136.5v32.5t-2 32.5h-172v256h99q-20 45 -34 106.5t-14 153.5t36 175t110 146.5t187.5 101.5t271.5 38q154 0 282.5 -31.5t220.5 -85.5v-340h-370v43q-4 16 -29 37t-84 21q-68 0 -100.5 -33t-32.5 -111q0 -57 13.5 -111.5 t29.5 -109.5h340v-256h-301q-2 -72 -17.5 -133t-42.5 -109q41 -16 83 -28.5t102 -12.5q47 0 76.5 10.5t47 27t23.5 34t6 33.5h299q0 -78 -13 -165t-57 -160.5t-130 -122t-230 -48.5q-72 0 -122 11.5t-94 23.5t-89 23.5t-104 11.5q-82 0 -127 -20.5t-62 -40.5z" />
<glyph unicode="&#xa4;" horiz-adv-x="1196" d="M16 328l164 164q-10 41 -14 85t-4 93q0 96 18 174l-164 166l222 221l133 -135q92 43 227 43t227 -43l136 135l219 -221l-164 -164q20 -70 20 -176q0 -100 -20 -181l164 -161l-219 -219l-138 135q-90 -43 -225 -43q-137 0 -225 43l-135 -135zM455 670q0 -117 32.5 -167 t110.5 -50t111.5 50t33.5 167t-33.5 167t-111.5 50t-110.5 -50t-32.5 -167z" />
<glyph unicode="&#xa5;" horiz-adv-x="1546" d="M25 1257v336h784v-336h-72l121 -358h21l120 358h-71v336h618v-336h-71l-185 -327h185v-162h-275l-78 -139h353v-162h-396v-131h123v-336h-819v336h123v131h-414v162h367l-80 139h-287v162h195l-189 327h-73z" />
<glyph unicode="&#xa6;" horiz-adv-x="522" d="M127 426h268v-1096h-268v1096zM127 831v1094h268v-1094h-268z" />
<glyph unicode="&#xa7;" horiz-adv-x="1236" d="M45 639q0 178 131 279q-41 78 -41 174q0 80 29 148.5t92 118.5t162.5 78.5t238.5 28.5t241.5 -20.5t162.5 -40.5v-277q-74 10 -152 19.5t-166 9.5q-86 0 -121.5 -13.5t-35.5 -41.5q0 -14 6 -24.5t23.5 -17.5t48 -15.5t77.5 -16.5q209 -41 326 -128t117 -245 q0 -86 -31 -163.5t-90 -129.5q31 -68 31 -161q0 -182 -125 -288t-391 -106q-145 0 -253 20.5t-169 43.5v285q172 -27 230 -32t106 -5q90 0 118.5 15.5t28.5 43.5q0 14 -6 24.5t-23.5 18.5t-48.5 17.5t-80 21.5q-94 23 -174 53.5t-138 75.5t-91 105.5t-33 144.5zM428 676 q0 -41 38 -63.5t152 -43.5q78 -14 125 -14t59.5 15t12.5 42q0 35 -31.5 59.5t-136.5 47.5q-96 18 -143 18t-61.5 -16t-14.5 -45z" />
<glyph unicode="&#xa8;" horiz-adv-x="925" d="M31 1251v342h342v-342h-342zM555 1251v342h340v-342h-340z" />
<glyph unicode="&#xa9;" horiz-adv-x="1462" d="M49 940q0 141 53.5 265t146.5 217.5t217 146.5t265 53t265 -53t217.5 -146.5t146.5 -217.5t53 -265t-53 -265t-146.5 -217t-217.5 -146.5t-265 -53.5t-265 53.5t-217 146.5t-146.5 217t-53.5 265zM264 940q0 -98 37 -183t99.5 -147.5t147.5 -99.5t183 -37q96 0 181 37 t148.5 99.5t100.5 147.5t37 183q0 96 -37 181t-100.5 148.5t-148.5 100.5t-181 37q-98 0 -183 -37t-147.5 -100.5t-99.5 -148.5t-37 -181zM424 942q0 176 81 252t222 76q96 0 155.5 -21.5t94.5 -44.5v-139h-174v20q0 57 -76 58q-74 0 -74 -58v-288q0 -55 74 -56q76 0 76 56 v28h174v-147q-35 -23 -93.5 -43.5t-154.5 -20.5q-141 0 -223 76t-82 252z" />
<glyph unicode="&#xaa;" horiz-adv-x="690" d="M16 1184q0 98 88.5 147t280.5 49q0 41 -17.5 60.5t-76.5 19.5t-120.5 -8t-117.5 -22v155q88 23 155.5 30t129.5 7q82 0 136 -15.5t87 -47t46.5 -77.5t13.5 -108v-168h45v-168h-281v70q-18 -25 -61 -54.5t-117 -29.5q-88 0 -139.5 41t-51.5 119zM225 1225q0 -39 64 -39 q41 0 68.5 22.5t27.5 63.5v6q-88 0 -124 -10.5t-36 -42.5z" />
<glyph unicode="&#xab;" horiz-adv-x="1064" d="M86 518v96l238 394h268l-162 -426v-31l162 -426h-268zM539 518v96l237 394h268l-161 -426v-31l161 -426h-268z" />
<glyph unicode="&#xac;" horiz-adv-x="1120" d="M82 578v294h944v-618h-330v324h-614z" />
<glyph unicode="&#xad;" horiz-adv-x="688" d="M45 422v336h596v-336h-596z" />
<glyph unicode="&#xae;" horiz-adv-x="1462" d="M49 940q0 141 53.5 265t146.5 217.5t217 146.5t265 53t265 -53t217.5 -146.5t146.5 -217.5t53 -265t-53 -265t-146.5 -217t-217.5 -146.5t-265 -53.5t-265 53.5t-217 146.5t-146.5 217t-53.5 265zM264 940q0 -98 37 -183t99.5 -147.5t147.5 -99.5t183 -37q96 0 181 37 t148.5 99.5t100.5 147.5t37 183q0 96 -37 181t-100.5 148.5t-148.5 100.5t-181 37q-98 0 -183 -37t-147.5 -100.5t-99.5 -148.5t-37 -181zM432 627v141h55v350h-55v144h379q104 0 159.5 -42t55.5 -141q0 -115 -82 -153v-8q37 -8 57.5 -29t20.5 -68v-53h41v-141h-248v188 q0 53 -32.5 65.5t-86.5 12.5v-125h54v-141h-318zM696 993h74q20 0 30.5 11.5t10.5 39.5v43q0 51 -41 52h-74v-146z" />
<glyph unicode="&#xaf;" horiz-adv-x="1366" d="M387 1298v213h731v-213h-731z" />
<glyph unicode="&#xb0;" horiz-adv-x="516" d="M8 1380q0 49 18.5 93.5t51.5 77t77 52t95 19.5q49 0 93 -19.5t77 -52t52.5 -76.5t19.5 -94q0 -51 -19.5 -95t-52.5 -76.5t-77 -51t-93 -18.5q-104 0 -173 68.5t-69 172.5zM156 1380q0 -39 27.5 -66.5t66.5 -27.5q37 0 64.5 27.5t27.5 66.5q0 37 -27.5 65t-64.5 28 q-39 0 -66.5 -28t-27.5 -65z" />
<glyph unicode="&#xb1;" horiz-adv-x="1181" d="M82 850v342h340v340h342v-340h336v-342h-336v-336h-342v336h-340zM117 86v324h942v-324h-942z" />
<glyph unicode="&#xb2;" horiz-adv-x="643" d="M49 879v213q41 33 86 72.5t82 79.5t61.5 80t24.5 75t-19.5 48t-54.5 13q-27 0 -68.5 -6t-97.5 -20v196q39 20 111 38t154 18q129 0 201.5 -60.5t72.5 -161.5q0 -100 -59.5 -193t-163.5 -179h244v-213h-574z" />
<glyph unicode="&#xb3;" horiz-adv-x="540" d="M37 899v205q68 -12 135 -12q45 0 59.5 15t14.5 42q0 14 -4 25.5t-18.5 19.5t-41 12t-71.5 4v146q43 0 69.5 4t41 11t18.5 18.5t4 23.5q0 20 -13.5 33.5t-58.5 13.5q-29 0 -61.5 -2t-67.5 -6v190q31 14 90.5 29t128.5 15q113 0 185.5 -57.5t72.5 -149.5q0 -119 -98 -195 q53 -33 84 -79t31 -111q0 -55 -21.5 -98.5t-58.5 -73t-87.5 -45t-107.5 -15.5q-121 0 -225 37z" />
<glyph unicode="&#xb4;" horiz-adv-x="571" d="M-23 1251v31l224 311h438v-55l-334 -287h-328z" />
<glyph unicode="&#xb5;" horiz-adv-x="1380" d="M0 803v336h561v-672q0 -70 30 -100.5t89 -30.5t89 30.5t30 100.5v336h-111v336h582v-803h90v-336h-561v139q-18 -25 -49 -54.5t-71 -54t-89 -42t-105 -17.5l76 -426h-471v1258h-90z" />
<glyph unicode="&#xb6;" horiz-adv-x="1554" d="M29 1120q0 92 32.5 182.5t100 161t169 114.5t238.5 44q111 0 193 -16.5t154.5 -35t147.5 -34.5t173 -16q111 0 155 30.5t44 71.5h114q0 -47 -4 -95t-18.5 -93t-43 -85t-77.5 -71v-1606h-336v1557q-41 4 -74.5 12t-68.5 19v-1588h-334v944q-145 0 -251.5 37t-176.5 103.5 t-103.5 160t-33.5 203.5z" />
<glyph unicode="&#xb7;" horiz-adv-x="432" d="M45 655v312h320v-312h-320z" />
<glyph unicode="&#xb8;" horiz-adv-x="1161" d="M375 -322q41 -10 100.5 -19t128.5 -9q37 0 53.5 18.5t16.5 46.5q0 29 -16.5 47.5t-53.5 18.5h-90v219h195v-80q92 0 149 -47t57 -145q0 -111 -76.5 -171.5t-211.5 -60.5q-72 0 -136.5 11.5t-115.5 25.5v145z" />
<glyph unicode="&#xb9;" horiz-adv-x="534" d="M20 1446v139l185 76h221v-563h84v-219h-469v219h96v348h-117z" />
<glyph unicode="&#xba;" horiz-adv-x="659" d="M20 1323q0 150 83 224.5t227 74.5q141 0 225 -74.5t84 -224.5q0 -154 -84 -226.5t-225 -72.5q-143 0 -226.5 72.5t-83.5 226.5zM250 1251q0 -65 80 -65t80 65v144q0 66 -80 65q-80 0 -80 -65v-144z" />
<glyph unicode="&#xbb;" horiz-adv-x="1064" d="M20 125l162 426v31l-162 426h269l237 -394v-96l-237 -393h-269zM473 125l162 426v31l-162 426h268l238 -394v-96l-238 -393h-268z" />
<glyph unicode="&#xbc;" horiz-adv-x="1644" d="M-6 1378v140l184 75h221v-563h84v-219h-469v219h97v348h-117zM129 0v66l952 1527h291v-65l-950 -1528h-293zM940 174v168l98 438h230l-88 -409h112v166h260v-166h80v-197h-80v-174h-260v174h-352z" />
<glyph unicode="&#xbd;" horiz-adv-x="1644" d="M-6 1378v140l184 75h221v-563h84v-219h-469v219h97v348h-117zM129 0v66l952 1527h291v-65l-950 -1528h-293zM1008 0v213q41 33 86 73t81.5 80t61.5 79.5t25 74.5t-19.5 48.5t-54.5 13.5q-27 0 -55.5 -5.5t-53.5 -9.5l-57 -12v197q37 18 101.5 36.5t162.5 18.5 q129 0 202 -60.5t73 -160.5t-59.5 -193.5t-164.5 -179.5h244v-213h-573z" />
<glyph unicode="&#xbe;" horiz-adv-x="1644" d="M8 836v204l39 -6q37 -6 96 -6q47 0 60.5 15.5t13.5 41.5q0 14 -4 25.5t-18.5 20t-41 12.5t-71.5 4v145q43 0 69.5 4t41 11.5t18.5 18.5t4 24q0 20 -12.5 33.5t-59.5 13.5q-29 0 -52 -1t-40 -3l-37 -4v190q29 14 84.5 28.5t134.5 14.5q117 0 188 -57.5t71 -149.5 q0 -119 -99 -194q53 -33 84 -79t31 -112q0 -55 -21.5 -98t-58.5 -73t-87 -45t-108 -15q-106 0 -163 18zM129 0v66l952 1527h291v-65l-950 -1528h-293zM940 174v168l98 438h230l-88 -409h112v166h260v-166h80v-197h-80v-174h-260v174h-352z" />
<glyph unicode="&#xbf;" horiz-adv-x="1257" d="M12 -39q0 121 35 196.5t86 128t112.5 90.5t113 80t86 100t34.5 151h490v-111q0 -86 -28 -147.5t-71 -106.5t-91 -79t-91 -65.5t-70.5 -65.5t-27.5 -79q0 -35 26.5 -58.5t96.5 -23.5q121 0 231.5 39t200.5 82l108 -418q-111 -57 -274.5 -107t-372.5 -50 q-139 0 -248.5 33.5t-186.5 94t-118 141.5t-41 175zM481 803v336h488v-336h-488z" />
<glyph unicode="&#xc0;" horiz-adv-x="1650" d="M37 0v336h82l346 1257h745l346 -1257h82v-336h-802v336h122l-34 164h-277l-33 -164h123v-336h-700zM307 1896v54h514l224 -197v-31h-404zM692 717h189l-84 407h-21z" />
<glyph unicode="&#xc1;" horiz-adv-x="1650" d="M37 0v336h82l346 1257h745l346 -1257h82v-336h-802v336h122l-34 164h-277l-33 -164h123v-336h-700zM579 1722v31l223 197h514v-54l-333 -174h-404zM692 717h189l-84 407h-21z" />
<glyph unicode="&#xc2;" horiz-adv-x="1650" d="M37 0v336h82l346 1257h745l346 -1257h82v-336h-802v336h122l-34 164h-277l-33 -164h123v-336h-700zM283 1722v31l260 197h539l260 -197v-31h-344l-162 117h-47l-162 -117h-344zM692 717h189l-84 407h-21z" />
<glyph unicode="&#xc3;" horiz-adv-x="1650" d="M37 0v336h82l346 1257h745l346 -1257h82v-336h-802v336h122l-34 164h-277l-33 -164h123v-336h-700zM293 1712q0 88 12 154.5t42 109.5t81 64.5t131 21.5q78 0 147.5 -11t135 -25.5t127 -25.5t123.5 -11q72 0 96 24.5t24 46.5h115q0 -88 -10 -153.5t-39 -109.5t-78 -65.5 t-125 -21.5q-70 0 -139.5 12.5t-138 26.5t-135 26.5t-130.5 12.5q-70 0 -100.5 -26.5t-30.5 -49.5h-108zM692 717h189l-84 407h-21z" />
<glyph unicode="&#xc4;" horiz-adv-x="1650" d="M37 0v336h82l346 1257h745l346 -1257h82v-336h-802v336h122l-34 164h-277l-33 -164h123v-336h-700zM326 1722v228h383v-228h-383zM692 717h189l-84 407h-21zM911 1722v228h381v-228h-381z" />
<glyph unicode="&#xc5;" horiz-adv-x="1650" d="M37 0v336h82l346 1257h745l346 -1257h82v-336h-802v336h122l-34 164h-277l-33 -164h123v-336h-700zM565 1872q0 51 19.5 97t53 80t79 53.5t98.5 19.5q51 0 97 -19.5t80 -53.5t53.5 -80t19.5 -97q0 -53 -19.5 -98t-53.5 -79t-80 -53.5t-97 -19.5q-53 0 -98.5 19.5 t-79 53.5t-53 79t-19.5 98zM692 717h189l-84 407h-21zM733 1872q0 -35 23.5 -58.5t58.5 -23.5q33 0 56.5 23.5t23.5 58.5q0 33 -23.5 56.5t-56.5 23.5q-35 0 -58.5 -23.5t-23.5 -56.5z" />
<glyph unicode="&#xc6;" horiz-adv-x="2306" d="M-4 0v336h82l530 1257h1657v-618h-459v282h-247v-323h180v-234h-180v-364h247v323h459v-659h-1382v336h102v164h-280l-60 -164h123v-336h-772zM791 737h194v473h-20z" />
<glyph unicode="&#xc7;" horiz-adv-x="1511" d="M37 797q0 223 55 380.5t156.5 256t247 143.5t323.5 45q123 0 219.5 -14.5t173 -36t135 -49t103.5 -52.5v-512h-492v148q0 80 -34.5 115.5t-104.5 35.5t-104.5 -35.5t-34.5 -115.5v-619q0 -80 35 -115.5t104 -35.5q70 0 104.5 36t34.5 115v166h492v-530 q-41 -25 -99.5 -52.5t-135 -49t-175.5 -35.5q-68 -10 -149 -13v-55q92 0 149.5 -47t57.5 -145q0 -111 -77 -171.5t-212 -60.5q-72 0 -136.5 11.5t-115.5 25.5v145q41 -10 100.5 -19t128.5 -9q37 0 53.5 18.5t16.5 46.5q0 29 -16.5 47.5t-53.5 18.5h-90v198q-106 10 -198 39 q-145 45 -248 143.5t-158 255t-55 382.5z" />
<glyph unicode="&#xc8;" horiz-adv-x="1505" d="M53 0v336h123v921h-123v336h1403v-618h-459v282h-247v-323h180v-234h-180v-364h247v323h459v-659h-1403zM309 1896v54h514l224 -197v-31h-404z" />
<glyph unicode="&#xc9;" horiz-adv-x="1505" d="M53 0v336h123v921h-123v336h1403v-618h-459v282h-247v-323h180v-234h-180v-364h247v323h459v-659h-1403zM581 1722v31l223 197h514v-54l-333 -174h-404z" />
<glyph unicode="&#xca;" horiz-adv-x="1505" d="M53 0v336h123v921h-123v336h1403v-618h-459v282h-247v-323h180v-234h-180v-364h247v323h459v-659h-1403zM285 1722v31l260 197h539l260 -197v-31h-344l-162 117h-47l-162 -117h-344z" />
<glyph unicode="&#xcb;" horiz-adv-x="1505" d="M53 0v336h123v921h-123v336h1403v-618h-459v282h-247v-323h180v-234h-180v-364h247v323h459v-659h-1403zM328 1722v228h383v-228h-383zM913 1722v228h381v-228h-381z" />
<glyph unicode="&#xcc;" horiz-adv-x="897" d="M-27 1896v54h514l224 -197v-31h-404zM49 0v336h123v921h-123v336h819v-336h-123v-921h123v-336h-819z" />
<glyph unicode="&#xcd;" horiz-adv-x="897" d="M49 0v336h123v921h-123v336h819v-336h-123v-921h123v-336h-819zM246 1722v31l223 197h514v-54l-333 -174h-404z" />
<glyph unicode="&#xce;" horiz-adv-x="897" d="M-51 1722v31l260 197h539l260 -197v-31h-344l-162 117h-47l-162 -117h-344zM49 0v336h123v921h-123v336h819v-336h-123v-921h123v-336h-819z" />
<glyph unicode="&#xcf;" horiz-adv-x="897" d="M-8 1722v228h383v-228h-383zM49 0v336h123v921h-123v336h819v-336h-123v-921h123v-336h-819zM577 1722v228h381v-228h-381z" />
<glyph unicode="&#xd0;" horiz-adv-x="1691" d="M35 637v336h145v282h-123v338h852q158 0 294 -40t236.5 -134t158 -246.5t57.5 -375.5q0 -225 -57.5 -377t-158 -246t-236.5 -134t-294 -40h-852v336h123v301h-145zM754 336h118q70 0 105 36t35 115v619q0 80 -37 115.5t-103 35.5h-118v-284h125v-336h-125v-301z" />
<glyph unicode="&#xd1;" horiz-adv-x="1949" d="M45 0v336h123v921h-123v336h760l538 -823v487h-122v336h716v-336h-122v-1257h-576l-600 924v-588h123v-336h-717zM502 1712q0 88 12 154.5t42 109.5t81 64.5t131 21.5q78 0 147.5 -11t135 -25.5t127 -25.5t123.5 -11q72 0 96 24.5t24 46.5h115q0 -88 -10 -153.5 t-39 -109.5t-78 -65.5t-125 -21.5q-70 0 -139.5 12.5t-138 26.5t-135 26.5t-130.5 12.5q-70 0 -100.5 -26.5t-30.5 -49.5h-108z" />
<glyph unicode="&#xd2;" horiz-adv-x="1634" d="M41 797q0 223 55.5 380.5t156.5 256t246.5 143.5t323.5 45t323.5 -45t247 -143.5t157 -256t55.5 -380.5q0 -225 -55.5 -382t-157 -255.5t-247 -143.5t-323.5 -45t-323.5 45t-246.5 143.5t-156.5 255t-55.5 382.5zM329 1896v54h514l224 -197v-31h-404zM684 487 q0 -80 34.5 -115.5t104.5 -35.5t105 36t35 115v619q0 80 -35 115.5t-105 35.5t-104.5 -35.5t-34.5 -115.5v-619z" />
<glyph unicode="&#xd3;" horiz-adv-x="1634" d="M41 797q0 223 55.5 380.5t156.5 256t246.5 143.5t323.5 45t323.5 -45t247 -143.5t157 -256t55.5 -380.5q0 -225 -55.5 -382t-157 -255.5t-247 -143.5t-323.5 -45t-323.5 45t-246.5 143.5t-156.5 255t-55.5 382.5zM602 1722v31l223 197h514v-54l-333 -174h-404zM684 487 q0 -80 34.5 -115.5t104.5 -35.5t105 36t35 115v619q0 80 -35 115.5t-105 35.5t-104.5 -35.5t-34.5 -115.5v-619z" />
<glyph unicode="&#xd4;" horiz-adv-x="1634" d="M41 797q0 223 55.5 380.5t156.5 256t246.5 143.5t323.5 45t323.5 -45t247 -143.5t157 -256t55.5 -380.5q0 -225 -55.5 -382t-157 -255.5t-247 -143.5t-323.5 -45t-323.5 45t-246.5 143.5t-156.5 255t-55.5 382.5zM305 1722v31l260 197h539l260 -197v-31h-344l-162 117 h-47l-162 -117h-344zM684 487q0 -80 34.5 -115.5t104.5 -35.5t105 36t35 115v619q0 80 -35 115.5t-105 35.5t-104.5 -35.5t-34.5 -115.5v-619z" />
<glyph unicode="&#xd5;" horiz-adv-x="1634" d="M41 797q0 223 55.5 380.5t156.5 256t246.5 143.5t323.5 45t323.5 -45t247 -143.5t157 -256t55.5 -380.5q0 -225 -55.5 -382t-157 -255.5t-247 -143.5t-323.5 -45t-323.5 45t-246.5 143.5t-156.5 255t-55.5 382.5zM316 1712q0 88 12 154.5t42 109.5t81 64.5t131 21.5 q78 0 147.5 -11t135 -25.5t127 -25.5t123.5 -11q72 0 96 24.5t24 46.5h115q0 -88 -10 -153.5t-39 -109.5t-78 -65.5t-125 -21.5q-70 0 -139.5 12.5t-138 26.5t-135 26.5t-130.5 12.5q-70 0 -100.5 -26.5t-30.5 -49.5h-108zM684 487q0 -80 34.5 -115.5t104.5 -35.5t105 36 t35 115v619q0 80 -35 115.5t-105 35.5t-104.5 -35.5t-34.5 -115.5v-619z" />
<glyph unicode="&#xd6;" horiz-adv-x="1634" d="M41 797q0 223 55.5 380.5t156.5 256t246.5 143.5t323.5 45t323.5 -45t247 -143.5t157 -256t55.5 -380.5q0 -225 -55.5 -382t-157 -255.5t-247 -143.5t-323.5 -45t-323.5 45t-246.5 143.5t-156.5 255t-55.5 382.5zM348 1722v228h383v-228h-383zM684 487q0 -80 34.5 -115.5 t104.5 -35.5t105 36t35 115v619q0 80 -35 115.5t-105 35.5t-104.5 -35.5t-34.5 -115.5v-619zM933 1722v228h381v-228h-381z" />
<glyph unicode="&#xd7;" horiz-adv-x="1167" d="M66 416l264 264l-264 266l253 254l265 -266l266 266l252 -254l-266 -266l266 -264l-252 -252l-266 264l-265 -264z" />
<glyph unicode="&#xd8;" horiz-adv-x="1634" d="M41 797q0 223 55.5 380.5t156.5 256t246.5 143.5t323.5 45q27 0 51 -2l31 180h146v-65l-23 -129q61 -12 119 -29q145 -45 246.5 -143.5t157 -256t55.5 -380.5q0 -225 -55.5 -382t-157 -255.5t-247 -143.5t-323.5 -45q-33 0 -65 2l-35 -206h-145v65l26 160q-55 8 -104 24 q-145 45 -246.5 143.5t-157 255t-55.5 382.5zM684 471l131 786q-63 -1 -96 -36q-35 -35 -35 -115v-619v-16zM817 336h6q70 0 105 36t35 115v619q0 35 -7 59z" />
<glyph unicode="&#xd9;" horiz-adv-x="1628" d="M45 1257v336h778v-336h-82v-790q0 -70 30 -100.5t89 -30.5t89 30.5t30 100.5v790h-82v336h723v-336h-123v-686q0 -166 -46 -279.5t-132 -185t-208 -103.5t-271 -32q-154 0 -278 32t-211 103.5t-135 185.5t-48 279v686h-123zM362 1896v54h514l224 -197v-31h-404z" />
<glyph unicode="&#xda;" horiz-adv-x="1628" d="M45 1257v336h778v-336h-82v-790q0 -70 30 -100.5t89 -30.5t89 30.5t30 100.5v790h-82v336h723v-336h-123v-686q0 -166 -46 -279.5t-132 -185t-208 -103.5t-271 -32q-154 0 -278 32t-211 103.5t-135 185.5t-48 279v686h-123zM635 1722v31l223 197h514v-54l-333 -174h-404z " />
<glyph unicode="&#xdb;" horiz-adv-x="1628" d="M45 1257v336h778v-336h-82v-790q0 -70 30 -100.5t89 -30.5t89 30.5t30 100.5v790h-82v336h723v-336h-123v-686q0 -166 -46 -279.5t-132 -185t-208 -103.5t-271 -32q-154 0 -278 32t-211 103.5t-135 185.5t-48 279v686h-123zM338 1722v31l260 197h539l260 -197v-31h-344 l-162 117h-47l-162 -117h-344z" />
<glyph unicode="&#xdc;" horiz-adv-x="1628" d="M45 1257v336h778v-336h-82v-790q0 -70 30 -100.5t89 -30.5t89 30.5t30 100.5v790h-82v336h723v-336h-123v-686q0 -166 -46 -279.5t-132 -185t-208 -103.5t-271 -32q-154 0 -278 32t-211 103.5t-135 185.5t-48 279v686h-123zM381 1722v228h383v-228h-383zM966 1722v228 h381v-228h-381z" />
<glyph unicode="&#xdd;" horiz-adv-x="1546" d="M25 1257v336h784v-336h-72l121 -358h21l120 358h-71v336h618v-336h-71l-396 -708v-213h123v-336h-819v336h123v213l-408 708h-73zM635 1722v31l223 197h514v-54l-333 -174h-404z" />
<glyph unicode="&#xde;" horiz-adv-x="1560" d="M57 0v336h123v921h-123v336h820v-336h-123v-92h241q104 0 192.5 -16t153 -55t101.5 -103.5t37 -163.5q0 -102 -37 -170.5t-101.5 -110.5t-152.5 -59.5t-193 -17.5h-241v-133h196v-336h-893zM754 678h49q41 0 69.5 21.5t28.5 68.5v33q0 47 -27.5 68.5t-70.5 21.5h-49v-213 z" />
<glyph unicode="&#xdf;" horiz-adv-x="1447" d="M37 0v336h90v467h-90v336h94q0 135 35 227t106.5 148.5t184 82t266.5 25.5q119 0 219 -20.5t172 -65.5t112 -116.5t40 -172.5q0 -90 -28 -151.5t-59.5 -107.5t-59 -83t-27.5 -76q0 -16 4 -29.5t18 -26.5t40 -30.5t69 -42.5q39 -25 75.5 -54.5t64.5 -71.5t44 -98t16 -132 q0 -80 -25.5 -148.5t-76.5 -118.5t-130 -78t-185 -28q-102 0 -179 20.5t-127 43.5v284l68 -18q29 -8 59.5 -13t55.5 -5q53 0 69.5 14t16.5 39q0 29 -27 50.5t-80 51.5q-104 59 -152 125t-48 164q0 63 24.5 122.5t53 114t53 103.5t24.5 94q0 51 -24.5 73.5t-85.5 22.5 t-85 -25.5t-24 -94.5v-1137h-561z" />
<glyph unicode="&#xe0;" horiz-adv-x="1335" d="M16 291q0 195 181.5 294t556.5 99q0 57 -37 88t-152 31q-123 0 -246.5 -18.5t-228.5 -41.5v353q104 29 256 50t311 21q164 0 273.5 -30.5t175 -93t92.5 -155.5t27 -216v-336h90v-336h-561v139q-18 -25 -49 -54.5t-75 -54t-102.5 -42t-132.5 -17.5q-178 0 -278.5 82 t-100.5 238zM205 1538v55h438l223 -311v-31h-327zM516 401q0 -66 113 -65q125 0 125 131v12q-127 0 -182.5 -17.5t-55.5 -60.5z" />
<glyph unicode="&#xe1;" horiz-adv-x="1335" d="M16 291q0 195 181.5 294t556.5 99q0 57 -37 88t-152 31q-123 0 -246.5 -18.5t-228.5 -41.5v353q104 29 256 50t311 21q164 0 273.5 -30.5t175 -93t92.5 -155.5t27 -216v-336h90v-336h-561v139q-18 -25 -49 -54.5t-75 -54t-102.5 -42t-132.5 -17.5q-178 0 -278.5 82 t-100.5 238zM421 1251v31l224 311h438v-55l-334 -287h-328zM516 401q0 -66 113 -65q125 0 125 131v12q-127 0 -182.5 -17.5t-55.5 -60.5z" />
<glyph unicode="&#xe2;" horiz-adv-x="1335" d="M16 291q0 195 181.5 294t556.5 99q0 57 -37 88t-152 31q-123 0 -246.5 -18.5t-228.5 -41.5v353q104 29 256 50t311 21q164 0 273.5 -30.5t175 -93t92.5 -155.5t27 -216v-336h90v-336h-561v139q-18 -25 -49 -54.5t-75 -54t-102.5 -42t-132.5 -17.5q-178 0 -278.5 82 t-100.5 238zM225 1251v31l240 311h403l240 -311v-31h-305l-127 133h-19l-127 -133h-305zM516 401q0 -66 113 -65q125 0 125 131v12q-127 0 -182.5 -17.5t-55.5 -60.5z" />
<glyph unicode="&#xe3;" horiz-adv-x="1335" d="M16 291q0 195 181.5 294t556.5 99q0 57 -37 88t-152 31q-123 0 -246.5 -18.5t-228.5 -41.5v353q104 29 256 50t311 21q164 0 273.5 -30.5t175 -93t92.5 -155.5t27 -216v-336h90v-336h-561v139q-18 -25 -49 -54.5t-75 -54t-102.5 -42t-132.5 -17.5q-178 0 -278.5 82 t-100.5 238zM236 1274q0 80 10 145.5t38 110.5t76 69.5t122 24.5q57 0 112.5 -14.5t108.5 -32.5t104.5 -32.5t104.5 -14.5q47 0 63.5 24.5t16.5 47.5h114q0 -80 -8 -144.5t-32.5 -111t-70.5 -71t-120 -24.5q-53 0 -107.5 15.5t-110.5 34t-112.5 34t-109.5 15.5 q-47 0 -68.5 -27t-21.5 -49h-109zM516 401q0 -66 113 -65q125 0 125 131v12q-127 0 -182.5 -17.5t-55.5 -60.5z" />
<glyph unicode="&#xe4;" horiz-adv-x="1335" d="M16 291q0 195 181.5 294t556.5 99q0 57 -37 88t-152 31q-123 0 -246.5 -18.5t-228.5 -41.5v353q104 29 256 50t311 21q164 0 273.5 -30.5t175 -93t92.5 -155.5t27 -216v-336h90v-336h-561v139q-18 -25 -49 -54.5t-75 -54t-102.5 -42t-132.5 -17.5q-178 0 -278.5 82 t-100.5 238zM238 1251v342h342v-342h-342zM516 401q0 -66 113 -65q125 0 125 131v12q-127 0 -182.5 -17.5t-55.5 -60.5zM762 1251v342h340v-342h-340z" />
<glyph unicode="&#xe5;" horiz-adv-x="1335" d="M16 291q0 195 181.5 294t556.5 99q0 57 -37 88t-152 31q-123 0 -246.5 -18.5t-228.5 -41.5v353q104 29 256 50t311 21q164 0 273.5 -30.5t175 -93t92.5 -155.5t27 -216v-336h90v-336h-561v139q-18 -25 -49 -54.5t-75 -54t-102.5 -42t-132.5 -17.5q-178 0 -278.5 82 t-100.5 238zM400 1485q0 51 19.5 97t53 80t78.5 53.5t98 19.5q51 0 97.5 -19.5t80 -53.5t53 -80t19.5 -97q0 -53 -19.5 -98.5t-53 -79t-79.5 -53t-98 -19.5q-53 0 -98 19.5t-78.5 53t-53 79t-19.5 98.5zM516 401q0 -66 113 -65q125 0 125 131v12q-127 0 -182.5 -17.5 t-55.5 -60.5zM568 1485q0 -35 23.5 -58.5t57.5 -23.5q33 0 56.5 23.5t23.5 58.5q0 33 -23.5 56.5t-56.5 23.5q-35 0 -58 -23.5t-23 -56.5z" />
<glyph unicode="&#xe6;" horiz-adv-x="1937" d="M16 291q0 190 177.5 291.5t560.5 101.5q0 57 -37 88t-152 31q-123 0 -246.5 -18.5t-228.5 -41.5v353q94 23 230.5 47t336.5 24q117 0 207 -23.5t158 -66.5q151 90 346 90q158 0 262.5 -46t168 -119.5t89 -168t25.5 -190.5v-147h-664v-13q0 -74 42 -110.5t153 -36.5 q135 0 247.5 20.5t186.5 44.5v-327q-37 -18 -85 -36t-109.5 -33t-139.5 -24.5t-176 -9.5q-334 0 -489 209q-29 -33 -74 -69.5t-105.5 -67.5t-136.5 -51.5t-168 -20.5q-178 0 -278.5 82t-100.5 238zM516 401q0 -66 113 -65q125 0 125 131v12q-111 0 -174.5 -14t-63.5 -64z M1249 659h238v13q0 70 -30 100.5t-89 30.5t-89 -31t-30 -100v-13z" />
<glyph unicode="&#xe7;" horiz-adv-x="1134" d="M16 569q0 150 43 262.5t124 187.5t196 111.5t256 36.5q86 0 156.5 -12t128 -30.5t103.5 -41t83 -43.5v-405h-352v37q0 70 -30 100.5t-89 30.5q-57 0 -88 -31t-31 -100v-176q0 -76 42 -118t140 -42q100 0 200.5 10t195.5 27v-322q-39 -14 -84 -28.5t-100.5 -25.5 t-123.5 -17q-41 -4 -90 -7v-53q92 0 149.5 -47t57.5 -145q0 -111 -76.5 -171.5t-212.5 -60.5q-72 0 -136 11.5t-116 25.5v145q41 -10 100.5 -19t129.5 -9q37 0 53.5 18.5t16.5 46.5q0 29 -16.5 47.5t-53.5 18.5h-90v201q-66 8 -123 26q-115 37 -196 112t-124 186.5 t-43 262.5z" />
<glyph unicode="&#xe8;" horiz-adv-x="1204" d="M16 569q0 150 43 262.5t124 187.5t196 111.5t256 36.5q158 0 262 -46t167.5 -119.5t89.5 -168t26 -190.5v-147h-664v-13q0 -74 42 -110.5t153 -36.5q135 0 247.5 20.5t186.5 44.5v-327q-37 -18 -85 -36t-109.5 -33t-139.5 -24.5t-176 -9.5q-141 0 -256 37t-196 112 t-124 186.5t-43 262.5zM180 1538v55h438l223 -311v-31h-327zM516 659h238v13q0 70 -30 100.5t-89 30.5t-89 -31t-30 -100v-13z" />
<glyph unicode="&#xe9;" horiz-adv-x="1204" d="M16 569q0 150 43 262.5t124 187.5t196 111.5t256 36.5q158 0 262 -46t167.5 -119.5t89.5 -168t26 -190.5v-147h-664v-13q0 -74 42 -110.5t153 -36.5q135 0 247.5 20.5t186.5 44.5v-327q-37 -18 -85 -36t-109.5 -33t-139.5 -24.5t-176 -9.5q-141 0 -256 37t-196 112 t-124 186.5t-43 262.5zM397 1251v31l224 311h438v-55l-334 -287h-328zM516 659h238v13q0 70 -30 100.5t-89 30.5t-89 -31t-30 -100v-13z" />
<glyph unicode="&#xea;" horiz-adv-x="1204" d="M16 569q0 150 43 262.5t124 187.5t196 111.5t256 36.5q158 0 262 -46t167.5 -119.5t89.5 -168t26 -190.5v-147h-664v-13q0 -74 42 -110.5t153 -36.5q135 0 247.5 20.5t186.5 44.5v-327q-37 -18 -85 -36t-109.5 -33t-139.5 -24.5t-176 -9.5q-141 0 -256 37t-196 112 t-124 186.5t-43 262.5zM201 1251v31l240 311h403l240 -311v-31h-305l-127 133h-19l-127 -133h-305zM516 659h238v13q0 70 -30 100.5t-89 30.5t-89 -31t-30 -100v-13z" />
<glyph unicode="&#xeb;" horiz-adv-x="1204" d="M16 569q0 150 43 262.5t124 187.5t196 111.5t256 36.5q158 0 262 -46t167.5 -119.5t89.5 -168t26 -190.5v-147h-664v-13q0 -74 42 -110.5t153 -36.5q135 0 247.5 20.5t186.5 44.5v-327q-37 -18 -85 -36t-109.5 -33t-139.5 -24.5t-176 -9.5q-141 0 -256 37t-196 112 t-124 186.5t-43 262.5zM213 1251v342h342v-342h-342zM516 659h238v13q0 70 -30 100.5t-89 30.5t-89 -31t-30 -100v-13zM737 1251v342h340v-342h-340z" />
<glyph unicode="&#xec;" horiz-adv-x="708" d="M-104 1538v55h438l223 -311v-31h-327zM37 0v336h90v467h-90v336h561v-803h90v-336h-651z" />
<glyph unicode="&#xed;" horiz-adv-x="708" d="M37 0v336h90v467h-90v336h561v-803h90v-336h-651zM110 1251v31l224 311h438v-55l-334 -287h-328z" />
<glyph unicode="&#xee;" horiz-adv-x="708" d="M-84 1251v31l240 311h403l240 -311v-31h-305l-127 133h-19l-127 -133h-305zM37 0v336h90v467h-90v336h561v-803h90v-336h-651z" />
<glyph unicode="&#xef;" horiz-adv-x="708" d="M-71 1251v342h342v-342h-342zM37 0v336h90v467h-90v336h561v-803h90v-336h-651zM453 1251v342h340v-342h-340z" />
<glyph unicode="&#xf0;" horiz-adv-x="1241" d="M16 569q0 150 43 262.5t124 187.5t196 111.5t256 36.5h10q-23 53 -49 97l-238 -80h-32v186l147 49q-29 31 -56.5 53.5t-49.5 38.5v43l233 146q59 -39 112.5 -79t100.5 -85l250 86h33v-188l-138 -48q285 -340 295 -788v-29q0 -152 -43 -263t-123.5 -186t-195.5 -112 t-256 -37t-256 37t-196 112t-124 186.5t-43 262.5zM516 467q0 -70 30 -100.5t89 -30.5t89 30.5t30 100.5v205q0 70 -30 100.5t-89 30.5t-89 -31t-30 -100v-205z" />
<glyph unicode="&#xf1;" horiz-adv-x="1409" d="M33 0v336h90v467h-90v336h561v-140q25 25 55.5 54.5t72.5 54.5t95 42t123 17q168 0 265.5 -119.5t97.5 -375.5v-336h90v-336h-652v336h90v336q0 70 -29.5 100.5t-88.5 30.5t-89 -31t-30 -100v-336h90v-336h-651zM330 1274q0 80 10 145.5t38 110.5t76 69.5t122 24.5 q57 0 112.5 -14.5t108.5 -32.5t104.5 -32.5t104.5 -14.5q47 0 63.5 24.5t16.5 47.5h114q0 -80 -8 -144.5t-32.5 -111t-70.5 -71t-120 -24.5q-53 0 -107.5 15.5t-110.5 34t-112.5 34t-109.5 15.5q-47 0 -68.5 -27t-21.5 -49h-109z" />
<glyph unicode="&#xf2;" horiz-adv-x="1269" d="M16 569q0 150 43 262.5t124 187.5t196 111.5t256 36.5t256 -36.5t195.5 -111.5t123.5 -187.5t43 -262.5q0 -152 -43 -263t-123.5 -186t-195.5 -112t-256 -37t-256 37t-196 112t-124 186.5t-43 262.5zM190 1538v55h438l223 -311v-31h-327zM516 467q0 -70 30 -100.5 t89 -30.5t89 30.5t30 100.5v205q0 70 -30 100.5t-89 30.5t-89 -31t-30 -100v-205z" />
<glyph unicode="&#xf3;" horiz-adv-x="1269" d="M16 569q0 150 43 262.5t124 187.5t196 111.5t256 36.5t256 -36.5t195.5 -111.5t123.5 -187.5t43 -262.5q0 -152 -43 -263t-123.5 -186t-195.5 -112t-256 -37t-256 37t-196 112t-124 186.5t-43 262.5zM407 1251v31l224 311h438v-55l-334 -287h-328zM516 467 q0 -70 30 -100.5t89 -30.5t89 30.5t30 100.5v205q0 70 -30 100.5t-89 30.5t-89 -31t-30 -100v-205z" />
<glyph unicode="&#xf4;" horiz-adv-x="1269" d="M16 569q0 150 43 262.5t124 187.5t196 111.5t256 36.5t256 -36.5t195.5 -111.5t123.5 -187.5t43 -262.5q0 -152 -43 -263t-123.5 -186t-195.5 -112t-256 -37t-256 37t-196 112t-124 186.5t-43 262.5zM211 1251v31l240 311h403l240 -311v-31h-305l-127 133h-19l-127 -133 h-305zM516 467q0 -70 30 -100.5t89 -30.5t89 30.5t30 100.5v205q0 70 -30 100.5t-89 30.5t-89 -31t-30 -100v-205z" />
<glyph unicode="&#xf5;" horiz-adv-x="1269" d="M16 569q0 150 43 262.5t124 187.5t196 111.5t256 36.5t256 -36.5t195.5 -111.5t123.5 -187.5t43 -262.5q0 -152 -43 -263t-123.5 -186t-195.5 -112t-256 -37t-256 37t-196 112t-124 186.5t-43 262.5zM221 1274q0 80 10 145.5t38 110.5t76 69.5t122 24.5q57 0 112.5 -14.5 t108.5 -32.5t104.5 -32.5t104.5 -14.5q47 0 63.5 24.5t16.5 47.5h114q0 -80 -8 -144.5t-32.5 -111t-70.5 -71t-120 -24.5q-53 0 -107.5 15.5t-110.5 34t-112.5 34t-109.5 15.5q-47 0 -68.5 -27t-21.5 -49h-109zM516 467q0 -70 30 -100.5t89 -30.5t89 30.5t30 100.5v205 q0 70 -30 100.5t-89 30.5t-89 -31t-30 -100v-205z" />
<glyph unicode="&#xf6;" horiz-adv-x="1269" d="M16 569q0 150 43 262.5t124 187.5t196 111.5t256 36.5t256 -36.5t195.5 -111.5t123.5 -187.5t43 -262.5q0 -152 -43 -263t-123.5 -186t-195.5 -112t-256 -37t-256 37t-196 112t-124 186.5t-43 262.5zM224 1251v342h342v-342h-342zM516 467q0 -70 30 -100.5t89 -30.5 t89 30.5t30 100.5v205q0 70 -30 100.5t-89 30.5t-89 -31t-30 -100v-205zM748 1251v342h340v-342h-340z" />
<glyph unicode="&#xf7;" horiz-adv-x="1067" d="M82 532v295h903v-295h-903zM367 106v312h319v-312h-319zM367 934v311h319v-311h-319z" />
<glyph unicode="&#xf8;" horiz-adv-x="1269" d="M16 569q0 150 43 262.5t124 187.5t196 111.5t256 36.5h37l37 213h116v-53l-28 -174q49 -8 94 -23q115 -37 195.5 -111.5t123.5 -187t43 -262.5q0 -152 -43 -263t-123.5 -186t-195.5 -112t-256 -37h-35l-37 -219h-117v53l29 181q-49 8 -96 22q-115 37 -196 112t-124 186.5 t-43 262.5zM516 467q0 -63 25 -96l71 430q-42 -4 -67 -29q-29 -31 -29 -100v-205zM659 336q41 6 64 31q31 31 31 100v205q0 59 -23 92z" />
<glyph unicode="&#xf9;" horiz-adv-x="1384" d="M4 803v336h561v-672q0 -70 30 -100.5t89 -30.5t89 30.5t30 100.5v336h-111v336h582v-803h90v-336h-561v139q-25 -27 -56.5 -55.5t-72.5 -53t-94.5 -42t-122.5 -17.5q-168 0 -265.5 120t-97.5 376v336h-90zM207 1538v55h438l223 -311v-31h-327z" />
<glyph unicode="&#xfa;" horiz-adv-x="1384" d="M4 803v336h561v-672q0 -70 30 -100.5t89 -30.5t89 30.5t30 100.5v336h-111v336h582v-803h90v-336h-561v139q-25 -27 -56.5 -55.5t-72.5 -53t-94.5 -42t-122.5 -17.5q-168 0 -265.5 120t-97.5 376v336h-90zM423 1251v31l224 311h438v-55l-334 -287h-328z" />
<glyph unicode="&#xfb;" horiz-adv-x="1384" d="M4 803v336h561v-672q0 -70 30 -100.5t89 -30.5t89 30.5t30 100.5v336h-111v336h582v-803h90v-336h-561v139q-25 -27 -56.5 -55.5t-72.5 -53t-94.5 -42t-122.5 -17.5q-168 0 -265.5 120t-97.5 376v336h-90zM227 1251v31l240 311h403l240 -311v-31h-305l-127 133h-19 l-127 -133h-305z" />
<glyph unicode="&#xfc;" horiz-adv-x="1384" d="M4 803v336h561v-672q0 -70 30 -100.5t89 -30.5t89 30.5t30 100.5v336h-111v336h582v-803h90v-336h-561v139q-25 -27 -56.5 -55.5t-72.5 -53t-94.5 -42t-122.5 -17.5q-168 0 -265.5 120t-97.5 376v336h-90zM240 1251v342h342v-342h-342zM764 1251v342h340v-342h-340z" />
<glyph unicode="&#xfd;" horiz-adv-x="1327" d="M4 803v336h561v-672q0 -70 30 -100.5t89 -30.5t89 30.5t30 100.5v336h-111v336h582v-1024q0 -307 -154.5 -452.5t-462.5 -145.5q-147 0 -285.5 19.5t-234.5 47.5v336q113 -20 214.5 -29.5t230.5 -9.5q111 0 166 34t55 138v86q-25 -27 -56.5 -55.5t-72.5 -53t-94.5 -42 t-122.5 -17.5q-168 0 -265.5 120t-97.5 376v336h-90zM432 1251v31l224 311h438v-55l-334 -287h-328z" />
<glyph unicode="&#xfe;" horiz-adv-x="1335" d="M12 -119h90v1376h-90v336h561v-594q18 25 48 54.5t71 54.5t90 42t109 17q213 0 316.5 -156.5t103.5 -441.5t-103.5 -441.5t-316.5 -156.5q-59 0 -108.5 17.5t-90.5 42t-70.5 54.5t-48.5 54v-258h142v-336h-703v336zM573 467q0 -70 30 -100.5t89 -30.5t89 30.5t30 100.5 v205q0 70 -29.5 100.5t-89.5 30.5q-59 0 -89 -31t-30 -100v-205z" />
<glyph unicode="&#xff;" horiz-adv-x="1327" d="M4 803v336h561v-672q0 -70 30 -100.5t89 -30.5t89 30.5t30 100.5v336h-111v336h582v-1024q0 -307 -154.5 -452.5t-462.5 -145.5q-147 0 -285.5 19.5t-234.5 47.5v336q113 -20 214.5 -29.5t230.5 -9.5q111 0 166 34t55 138v86q-25 -27 -56.5 -55.5t-72.5 -53t-94.5 -42 t-122.5 -17.5q-168 0 -265.5 120t-97.5 376v336h-90zM248 1251v342h342v-342h-342zM772 1251v342h340v-342h-340z" />
<glyph unicode="&#x152;" horiz-adv-x="2283" d="M41 797q0 223 55.5 380.5t156.5 256t246.5 143.5t323.5 45q135 0 267 -29h1153v-618h-459v282h-248v-323h180v-234h-180v-364h248v323h459v-659h-1151q-131 -29 -269 -29q-178 0 -323.5 45t-246.5 143.5t-156.5 255t-55.5 382.5zM684 487q0 -80 34.5 -115.5t104.5 -35.5 t105 36t35 115v619q0 80 -35 115.5t-105 35.5t-104.5 -35.5t-34.5 -115.5v-619z" />
<glyph unicode="&#x153;" horiz-adv-x="1941" d="M16 569q0 150 43 262.5t124 187.5t196 111.5t256 36.5t256 -37q59 -20 110 -51q53 31 115 51q115 37 256 37q158 0 262.5 -46t168 -119.5t89 -168t25.5 -190.5v-147h-664v-13q0 -74 42 -110.5t153 -36.5q135 0 247.5 20.5t186.5 44.5v-327q-37 -18 -85 -36t-109.5 -33 t-139.5 -24.5t-176 -9.5q-141 0 -256 37q-61 18 -112 49q-51 -31 -113 -49q-115 -37 -256 -37t-256 37t-196 112t-124 186.5t-43 262.5zM516 467q0 -70 30 -100.5t89 -30.5t89 30.5t30 100.5v205q0 70 -30 100.5t-89 30.5t-89 -31t-30 -100v-205zM1253 659h238v13 q0 70 -30 100.5t-89 30.5t-89 -31t-30 -100v-13z" />
<glyph unicode="&#x2c6;" horiz-adv-x="882" d="M0 1251v31l240 311h403l240 -311v-31h-305l-127 133h-19l-127 -133h-305z" />
<glyph unicode="&#x2dc;" horiz-adv-x="1017" d="M84 1274q0 80 10 145.5t38 110.5t76 69.5t122 24.5q57 0 112.5 -14.5t108.5 -32.5t104.5 -32.5t104.5 -14.5q47 0 63.5 24.5t16.5 47.5h114q0 -80 -8 -144.5t-32.5 -111t-70.5 -71t-120 -24.5q-53 0 -107.5 15.5t-110.5 34t-112.5 34t-109.5 15.5q-47 0 -68.5 -27 t-21.5 -49h-109z" />
<glyph unicode="&#x2000;" horiz-adv-x="1061" />
<glyph unicode="&#x2001;" horiz-adv-x="2122" />
<glyph unicode="&#x2002;" horiz-adv-x="1061" />
<glyph unicode="&#x2003;" horiz-adv-x="2122" />
<glyph unicode="&#x2004;" horiz-adv-x="707" />
<glyph unicode="&#x2005;" horiz-adv-x="530" />
<glyph unicode="&#x2006;" horiz-adv-x="353" />
<glyph unicode="&#x2007;" horiz-adv-x="353" />
<glyph unicode="&#x2008;" horiz-adv-x="265" />
<glyph unicode="&#x2009;" horiz-adv-x="424" />
<glyph unicode="&#x200a;" horiz-adv-x="117" />
<glyph unicode="&#x2010;" horiz-adv-x="796" d="M70 485v336h657v-336h-657z" />
<glyph unicode="&#x2011;" horiz-adv-x="796" d="M70 485v336h657v-336h-657z" />
<glyph unicode="&#x2012;" horiz-adv-x="796" d="M70 485v336h657v-336h-657z" />
<glyph unicode="&#x2013;" horiz-adv-x="1230" d="M49 434v309h1133v-309h-1133z" />
<glyph unicode="&#x2014;" horiz-adv-x="2021" d="M49 434v309h1923v-309h-1923z" />
<glyph unicode="&#x2018;" horiz-adv-x="430" d="M82 1122v262l137 209h137l-88 -209h101v-262h-287z" />
<glyph unicode="&#x2019;" horiz-adv-x="430" d="M61 1331v262h287v-262l-137 -209h-137l88 209h-101z" />
<glyph unicode="&#x201a;" horiz-adv-x="430" d="M61 0v262h287v-262l-137 -209h-137l88 209h-101z" />
<glyph unicode="&#x201c;" horiz-adv-x="790" d="M82 1122v262l137 209h137l-88 -209h101v-262h-287zM442 1122v262l138 209h137l-88 -209h100v-262h-287z" />
<glyph unicode="&#x201d;" horiz-adv-x="790" d="M61 1331v262h287v-262l-137 -209h-137l88 209h-101zM422 1331v262h287v-262l-138 -209h-137l88 209h-100z" />
<glyph unicode="&#x201e;" horiz-adv-x="790" d="M61 0v262h287v-262l-137 -209h-137l88 209h-101zM422 0v262h287v-262l-138 -209h-137l88 209h-100z" />
<glyph unicode="&#x2022;" horiz-adv-x="702" d="M72 786q0 57 21.5 108.5t60.5 89.5t89 59.5t109 21.5q57 0 107.5 -21.5t88.5 -59.5t60.5 -89t22.5 -109q0 -57 -22.5 -107t-60.5 -88t-88 -59.5t-108 -21.5q-59 0 -109 21.5t-89 59.5t-60.5 88t-21.5 107z" />
<glyph unicode="&#x202f;" horiz-adv-x="424" />
<glyph unicode="&#x2039;" horiz-adv-x="612" d="M86 518v96l238 394h268l-162 -426v-31l162 -426h-268z" />
<glyph unicode="&#x203a;" horiz-adv-x="612" d="M20 125l162 426v31l-162 426h269l237 -394v-96l-237 -393h-269z" />
<glyph unicode="&#x205f;" horiz-adv-x="530" />
<glyph unicode="&#x20ac;" horiz-adv-x="1480" d="M25 565v162h131q-2 16 -2 33.5v36.5v43t2 43h-131v161h149q29 156 96.5 265.5t169 179.5t233.5 101.5t290 31.5q88 0 161.5 -9t134 -24.5t108.5 -34t85 -34.5l-55 -314q-66 20 -147 35.5t-171 15.5q-123 0 -190.5 -53t-85.5 -160h565l-29 -161h-542v-156h516l-29 -162 h-481q16 -117 81.5 -173t194.5 -56q76 0 165 21.5t167 50.5v-314q-35 -20 -83 -41.5t-108.5 -40t-135 -30t-164.5 -11.5q-152 0 -278 33t-222 104.5t-159.5 184.5t-90.5 272h-145z" />
<glyph unicode="&#x25fc;" horiz-adv-x="1136" d="M0 0v1137h1137v-1137h-1137z" />
</font>
</defs>
</svg>
