<?xml version="1.0" encoding="utf-8"?>
<!-- Generator: Adobe Illustrator 18.1.1, SVG Export Plug-In . SVG Version: 6.00 Build 0)  -->
<svg version="1.1" xmlns="http://www.w3.org/2000/svg" xmlns:xlink="http://www.w3.org/1999/xlink" x="0px" y="0px"
	 viewBox="0 0 75 75" enable-background="new 0 0 75 75" xml:space="preserve">
<g id="Layer_1" display="none">
	<rect display="inline" width="75" height="75"/>
</g>
<g id="github" display="none">
	<path display="inline" fill="#FFFFFF" d="M58.4,31c-1.7-0.3-4.3-0.4-7.2-0.4c0.2-0.9,0.4-1.9,0.4-2.8c0-2.3-0.7-4.5-2-6.3
		c0.2-0.8,0.8-4-0.5-6.7c-2.3,0.2-4.4,1.5-5.4,2.4c-1-0.3-2.1-0.5-3.2-0.5h-5.6c-1.1,0-2.2,0.2-3.2,0.5c-1-0.9-3.1-2.2-5.4-2.4
		c-1.3,2.7-0.7,5.9-0.5,6.7c-1.2,1.8-2,3.9-2,6.3c0,1,0.1,1.9,0.4,2.8c-2.8,0-5.5,0.1-7.1,0.4c-0.3,0-0.4,0.3-0.4,0.6
		c0,0.2,0.2,0.4,0.5,0.4c0,0,0.1,0,0.1,0c1.7-0.3,4.4-0.4,7.3-0.4c0.1,0.3,0.2,0.5,0.3,0.8c-2.3,0.2-4.5,0.4-6,0.7
		c-0.3,0-0.4,0.3-0.4,0.6c0,0.2,0.2,0.4,0.5,0.4c0,0,0.1,0,0.1,0c1.5-0.3,3.9-0.5,6.3-0.7c1.4,2.3,3.6,4.1,6.2,4.9
		c-1.3,0.9-2.2,2.2-2.8,3.7c-0.9,0-2.1,0-2.8,0c-5.8,0-6.5-7.3-13.1-7.3c6.2,0.7,3.4,11.7,13.1,11.7c0.9,0,1.7,0,2.4,0
		c0,3,0,8.9,0,10.5c0,2.4-1.2,2.5-1.2,2.5c5,0,5-3.8,5-3.8v-10c0,0,0-1.3,1.2-1.3c0,0,0,12.1,0,12.5c0,2.4-1.2,2.5-1.2,2.5
		c4.2,0,4.9-2.6,5-3.5h0V44.9c0-0.3,0.3-0.6,0.6-0.6c0.3,0,0.6,0.3,0.6,0.6v10.9h0c0.1,0.9,0.8,3.5,5,3.5c-0.1,0-1.2-0.1-1.2-2.5
		c0-0.4,0-12.5,0-12.5c1.3,0,1.3,1.3,1.3,1.3v10c0,0,0,3.8,5,3.8c-0.1,0-1.2-0.1-1.2-2.5c0-2.1,0-12.2,0-12.2c0-2.6-1.3-4.9-3.2-6.3
		c2.6-0.8,4.8-2.6,6.2-4.9c2.4,0.2,4.8,0.4,6.3,0.7c0,0,0.1,0,0.1,0c0.2,0,0.4-0.2,0.5-0.4c0-0.3-0.1-0.5-0.4-0.6
		c-1.5-0.3-3.7-0.5-6-0.7c0.1-0.3,0.2-0.5,0.3-0.8c2.9,0,5.6,0.1,7.3,0.4c0,0,0.1,0,0.1,0c0.2,0,0.4-0.2,0.5-0.4
		C58.8,31.3,58.6,31,58.4,31z M40.7,36.1h-6.1c-3.9,0-7-3.1-7-7s3.1-7,7-7h6.1c3.9,0,7,3.1,7,7S44.6,36.1,40.7,36.1z M35,26.3v2.7
		c0,0.9-0.8,1.7-1.7,1.7c-0.9,0-1.7-0.8-1.7-1.7v-2.7c0-0.9,0.8-1.7,1.7-1.7C34.2,24.6,35,25.3,35,26.3z M44.2,26.3v2.7
		c0,0.9-0.8,1.7-1.7,1.7s-1.7-0.8-1.7-1.7v-2.7c0-0.9,0.8-1.7,1.7-1.7C43.4,24.6,44.2,25.3,44.2,26.3z"/>
</g>
<g id="css3" display="none">
	<g id="g3021" display="inline">
		<g id="g3015">
			<polygon id="polygon3962" fill="#FFFFFF" points="52.7,59.2 56.2,21.4 19,21.4 22.5,59.2 37.6,63.3 			"/>
			<polygon id="polygon3968" fill="#FFFFFF" points="49.9,56.8 52.7,24.5 37.6,24.5 37.6,60.1 37.6,60.1 			"/>
			<path id="path4016" fill="#FFFFFF" d="M26.6,18.1h5.7v-2.2H29v-2.3h3.3v-2.5h-5.7V18.1z M34.8,13.6c0.8,0.8,1.2,1.1,2.3,2.3
				c-0.7,0-2.3,0-2.3,0v2.2h5.7v-2.2l-2.3-2.3h2.3v-2.5h-5.7C34.8,11.1,34.8,12.4,34.8,13.6z M48.7,11.1h-5.8c0,0,0,1.2,0,2.5
				c0.8,0.8,1.2,1.1,2.3,2.3c-0.7,0-2.3,0-2.3,0v2.2h5.8v-2.2l-2.3-2.3h2.3V11.1z"/>
			<path id="path4169" d="M25.8,29l0.7,4.6l11.8-0.1l-11.3,4.8l0.3,4.6h16.1l-0.4,6l-5.2,1.6l-5.2-1.4l-0.3-3.6h-4.6l0.6,7.1
				l9.4,2.8l9.6-2.7l1.2-14.3H37.5l11.3-4.8l0.3-4.6L25.8,29z"/>
		</g>
	</g>
</g>
<g id="cc">
	<g>
		<path fill="#FFFFFF" d="M26,29.6c1.2,0,3.6,0.6,5,3.6l6-3.1c-2.5-4.6-6.9-6.5-11.9-6.5c-7.3,0-13.2,5.2-13.2,14
			c0,8.9,5.5,14,13.4,14c5.1,0,9.4-2.8,11.8-7l-5.6-2.8c-1.2,3-3.1,3.9-5.5,3.9c-4.1,0-6-3.4-6-8C20,33,21.6,29.6,26,29.6z"/>
		<path fill="#FFFFFF" d="M51.3,51.5c5.1,0,9.4-2.8,11.8-7l-5.6-2.8c-1.2,3-3.1,3.9-5.5,3.9c-4.1,0-6-3.4-6-8c0-4.5,1.6-8,6-8
			c1.2,0,3.6,0.6,5,3.6l6-3.1c-2.5-4.6-6.9-6.5-11.9-6.5c-7.3,0-13.2,5.2-13.2,14C37.9,46.5,43.4,51.5,51.3,51.5z"/>
		<path fill="#FFFFFF" d="M45.9,81c-0.9,0.4-1.9,0.8-2.9,1.2c1-0.1,2-0.3,3-0.5C46,81.5,45.9,81.2,45.9,81z"/>
	</g>
</g>
<g id="circle">
	<circle fill="none" stroke="#FFFFFF" stroke-width="2" cx="37.5" cy="37.1" r="34.2"/>
</g>
<g id="html5" display="none">
	<polygon id="polygon4184" display="inline" fill="#FFFFFF" points="37.6,63.9 52.9,59.6 56.3,21.5 18.9,21.5 22.3,59.6 	"/>
	<polygon display="inline" fill="#FFFFFF" points="26.9,13.5 24.8,13.5 24.8,11.1 22.4,11.1 22.4,18.2 24.8,18.2 24.8,15.9 
		26.9,15.9 26.9,18.2 29.3,18.2 29.3,11.1 26.9,11.1 26.9,13.5 	"/>
	<polygon display="inline" fill="#FFFFFF" points="30.4,13.5 32.5,13.5 32.5,18.2 34.8,18.2 34.8,13.5 36.9,13.5 36.9,11.1 
		30.4,11.1 30.4,13.5 	"/>
	<polygon display="inline" fill="#FFFFFF" points="42,13.6 40.4,11.1 38,11.1 38,18.2 40.3,18.2 40.3,14.7 41.9,17.2 42,17.2 
		43.6,14.7 43.6,18.2 46,18.2 46,11.1 43.5,11.1 	"/>
	<polygon display="inline" fill="#FFFFFF" points="49.5,15.9 49.5,11.1 47.2,11.1 47.2,18.2 52.9,18.2 52.9,15.9 	"/>
	<path id="path4309" display="inline" fill="#010101" d="M25.8,29.2h23.5L48.9,34h-18l0.5,4.7h16.9l-1.2,14.5l-9.5,2.6L28,53.2
		l-0.7-7.4H32l0.4,3.7l5.2,1.5l5.2-1.5l0.5-6H27.1L25.8,29.2z"/>
</g>
</svg>
