<?xml version="1.0" encoding="utf-8"?>
<!-- Generator: Adobe Illustrator 18.1.1, SVG Export Plug-In . SVG Version: 6.00 Build 0)  -->
<svg version="1.1" id="Layer_1" xmlns="http://www.w3.org/2000/svg" xmlns:xlink="http://www.w3.org/1999/xlink" x="0px" y="0px"
	 viewBox="0 0 200 107.7" enable-background="new 0 0 200 107.7" xml:space="preserve">
<path display="none" fill="#030302" d="M201.3,184.7H-8.6c-6.6,0-12-5.4-12-12V-43.9c0-6.6,5.4-12,12-12h209.9c6.6,0,12,5.4,12,12
	v216.6C213.3,179.3,207.9,184.7,201.3,184.7z"/>
<path display="none" fill="#FFFFFF" d="M48.8,73.7H16.8c-6.3,0-11.5-5.2-11.5-11.5v0c0-6.3,5.2-11.5,11.5-11.5h32.1
	c6.3,0,11.5,5.2,11.5,11.5v0C60.3,68.5,55.1,73.7,48.8,73.7z"/>
<path fill="#FFFFFF" d="M69.2,53.6H15.9C9.3,53.6,4,48.2,4,41.6v0c0-6.6,5.4-11.9,11.9-11.9h53.3c6.6,0,11.9,5.4,11.9,11.9v0
	C81.1,48.2,75.7,53.6,69.2,53.6z"/>
<ellipse fill="#FFFFFF" cx="33.6" cy="32.3" rx="20" ry="18.2"/>
<ellipse fill="#FFFFFF" cx="57.7" cy="52.4" rx="8.5" ry="4.5"/>
<path fill="#FFFFFF" d="M118.8,100.1H65.5c-6.6,0-11.9-5.4-11.9-11.9v0c0-6.6,5.4-11.9,11.9-11.9h53.3c6.6,0,11.9,5.4,11.9,11.9v0
	C130.7,94.8,125.4,100.1,118.8,100.1z"/>
<ellipse fill="#FFFFFF" cx="83.2" cy="78.8" rx="20" ry="18.2"/>
<ellipse fill="#FFFFFF" cx="107.3" cy="99" rx="8.5" ry="4.5"/>
<path fill="#FFFFFF" d="M181,42.9h-53.3c-6.6,0-11.9-5.4-11.9-11.9v0c0-6.6,5.4-11.9,11.9-11.9H181c6.6,0,11.9,5.4,11.9,11.9v0
	C192.9,37.5,187.6,42.9,181,42.9z"/>
<ellipse fill="#FFFFFF" cx="145.4" cy="21.6" rx="20" ry="18.2"/>
<ellipse fill="#FFFFFF" cx="169.5" cy="41.7" rx="8.5" ry="4.5"/>
</svg>
