<?xml version="1.0" encoding="utf-8"?>
<!-- Generator: Adobe Illustrator 18.1.1, SVG Export Plug-In . SVG Version: 6.00 Build 0)  -->
<svg version="1.1" id="Layer_1" xmlns="http://www.w3.org/2000/svg" xmlns:xlink="http://www.w3.org/1999/xlink" x="0px" y="0px"
	 viewBox="0 0 150 88" enable-background="new 0 0 150 88" xml:space="preserve">
<path id="clown_fish" fill="#F37433" d="M148.4,21.8c1.2-0.7,1.2-3.1-0.5-2.8c-1.9,0.3-3.8,1.1-5.5,1.7c-3.9,1.5-7.8,3.3-11.5,5.3
	c-6.1,3.2-15.7,8.8-21.8,2.1c2.1-0.5,4.6-1.6,5.5-3.5c1.2-2.5,0.7-5.7-1.8-7.3c-0.7-0.5-1.5-0.9-2.1-1.5c-0.7-0.6-1-0.3-1.7-0.8
	c-0.5-0.3-0.7-1-1.2-1.3c-0.8-0.5-1.3,0.3-2.1,0.1c-0.7-0.2-1-0.9-1.9-1c-0.8-0.1-1.4,0.1-2.2-0.3c-0.7-0.3-1.5,0.1-2.2,0.3
	c-0.9,0.3-1.4-0.4-2.3,0c-1.3,0.5-2,0.8-3.4,0.8c-1,0.1-1.9,0.8-2.9,0.9c-1.2,0-1.7-2.3-2.6-2c-0.8,0.2-1.7-0.1-2-0.9
	c-0.3-0.8-1-0.3-1.7-0.8c-0.7-0.4-0.3-1-1-0.9c-0.9,0.2-1.9,0-2.7-0.6c-1.3-1-0.5-0.8-2.3-0.8c-1.7,0-2-1.4-3.7-1.1
	C74,7.7,73.2,8,72.6,7.9c-0.8-0.1,0.1-1.1-0.1-1.4c0,0-3.1,1.1-3.4,1.2c-0.9,0.1-1.4-0.7-0.6-1.1C67,7.2,63.1,8.2,64.7,5
	c-2.4,2.3-4.2,1.6-3.6-1.8c-0.7,0.7-4,4.3-4.6,1.7c-0.3-1-0.1-2.3,0.2-3.3c-0.4,0.6-3.5,4.8-4.6,3.7c-0.5-0.5,0.1-1.5-0.3-1.9
	c0.3,0.4-2.7,5.1-3.8,5.1c-0.4,0-1.3-1.6-1.1-1.8c-1.3,1.7-1.6,4.3-3.2,6.1c-1.6,1.9-3.6,1.4-5.9,2c-2.6,0.7-4.6,2.7-7.1,3.5
	c-2.6,0.8-4.7,0.1-6.5,2.8c-3-3.8-8.7-3.4-10.9,1c-0.4,0.9-0.7,1.8-0.8,2.8c-0.2,2.3,0.4,1.9-1.7,2.8c-1.9,0.8-3.1,2.8-4.9,3.9
	c-3.2,1.9-3.1,3-0.7,5.7c2.6,2.9,3.9,5.9,5.4,9.4c-2.8,0.9-6.7,0-9.3,1.4c-2.9,1.6,3.2,3.7,3.7,4.2c2.5,2.1,5.6,3.7,8.5,4.9
	c1.5,0.6,3,1.4,4.5,2.1c1.5,0.6,2.7,0.4,4.2,0.7c4,0.7,7.6,2.5,11.4,3.7c4.1,1.3,8.6,1.7,12.9,2c1.7,0.1,3.6-0.6,4.3,1.3
	c0.6,1.7,1.3,3.3,2,4.9c0.9,2,2,4,3.1,6c0.4,0.7,2.6,5,3.4,4.9c0.4,0,0.1-1,0.5-1.1c0.4-0.1,6.1,7.1,6.6,3.6
	c0.2-1.6,1.8-2.2,2.2-3.3c0.5-1.4,1-3.4,0.7-4.9c-0.4-2.5,1.1-5.6-1.6-7.2c-3.1-1.8-6.8-2.4-10-3.9c7.1,0.2,14.8,1.6,21.7-0.7
	c2.8-1,5.6-3.7,8.5-4.1c3-0.4,5,1.3,7.2,3.2c-0.4-5.7,5.9,0.9,6.4-0.4c0.2-0.6-2.7-2-0.7-2.5c1.7-0.4,3.6,0,5.3-0.1
	c1.1-0.1,2.3-0.4,3.3-0.6c0.7-0.2,3.3-1.2,3.6-2c0.5-1.5,1.9-1.7,2.4-3.5c0.4-1.4,1.8-2.4,1-4.2c-1.5-3.4-3.8-4.3-7.4-3.6
	c2.1-1.7,5.2-3.1,7.8-3.7c2.5-0.5,5,0.8,7.2,1.8c6.9,2.8,15.2,6.1,22.6,6.7c3,0.2-0.2-2.5,1-3.5c-0.1-2.7-0.9-6.2-0.5-8.8
	c0.4-2.8,0.6-6.4-0.1-9.2c-0.3-1.2-0.2-1.4,0.5-2.6c0.3-1.7,0.3-3.5,0.8-5.1C147.9,23,147.8,22.2,148.4,21.8"/>
<ellipse cx="18" cy="25.2" rx="2.6" ry="2.7"/>
<circle fill="#FFFFFF" cx="94.9" cy="31.8" r="1.8"/>
<circle fill="#FFFFFF" cx="69.5" cy="30.3" r="7.8"/>
<circle fill="#FFFFFF" cx="34.5" cy="51.4" r="5.8"/>
<circle fill="#FFFFFF" cx="38" cy="31.1" r="2.2"/>
<circle fill="#FFFFFF" cx="50.8" cy="37.1" r="1.2"/>
<circle fill="#FFFFFF" cx="63.2" cy="53.5" r="7.9"/>
<circle fill="#FFFFFF" cx="140.7" cy="29.7" r="0.7"/>
<circle fill="#FFFFFF" cx="124.1" cy="39.2" r="3.2"/>
<path fill="none" stroke="#B15526" stroke-miterlimit="10" d="M16.7,35.8c0.5,0.2,3,1.5,4,3.8c1.1,2.6-0.4,4.5-0.5,4.9"/>
<path fill="none" stroke="#B15526" stroke-miterlimit="10" d="M20.7,34c0.5,0.2,3,1.5,4,3.8c1.1,2.6-0.4,4.5-0.5,4.9"/>
<path fill="none" stroke="#B15526" stroke-miterlimit="10" d="M24.7,32.8c0.5,0.2,3,1.5,4,3.8c1.1,2.6-0.4,4.5-0.5,4.9"/>
</svg>
