<?xml version="1.0" encoding="utf-8"?>
<!-- Generator: Adobe Illustrator 18.1.1, SVG Export Plug-In . SVG Version: 6.00 Build 0)  -->
<svg version="1.1" xmlns="http://www.w3.org/2000/svg" xmlns:xlink="http://www.w3.org/1999/xlink" x="0px" y="0px"
	 viewBox="0 0 150 49.3" enable-background="new 0 0 150 49.3" xml:space="preserve">
<g id="clownfish" display="none">
	<path id="clown_fish" display="inline" fill="#F37433" d="M148.4-1c1.2-0.7,1.2-3.1-0.5-2.8c-1.9,0.3-3.8,1.1-5.5,1.7
		c-3.9,1.5-7.8,3.3-11.5,5.3c-6.1,3.2-15.7,8.8-21.8,2.1c2.1-0.5,4.6-1.6,5.5-3.5c1.2-2.5,0.7-5.7-1.8-7.3c-0.7-0.5-1.5-0.9-2.1-1.5
		c-0.7-0.6-1-0.3-1.7-0.8c-0.5-0.3-0.7-1-1.2-1.3c-0.8-0.5-1.3,0.3-2.1,0.1c-0.7-0.2-1-0.9-1.9-1c-0.8-0.1-1.4,0.1-2.2-0.3
		c-0.7-0.3-1.5,0.1-2.2,0.3c-0.9,0.3-1.4-0.4-2.3,0c-1.3,0.5-2,0.8-3.4,0.8c-1,0.1-1.9,0.8-2.9,0.9c-1.2,0-1.7-2.3-2.6-2
		c-0.8,0.2-1.7-0.1-2-0.9c-0.3-0.8-1-0.3-1.7-0.8c-0.7-0.4-0.3-1-1-0.9c-0.9,0.2-1.9,0-2.7-0.6c-1.3-1-0.5-0.8-2.3-0.8
		c-1.7,0-2-1.4-3.7-1.1c-0.6,0.1-1.4,0.4-2.1,0.3c-0.8-0.1,0.1-1.1-0.1-1.4c0,0-3.1,1.1-3.4,1.2c-0.9,0.1-1.4-0.7-0.6-1.1
		c-1.5,0.7-5.3,1.7-3.8-1.5c-2.4,2.3-4.2,1.6-3.6-1.8c-0.7,0.7-4,4.3-4.6,1.7c-0.3-1-0.1-2.3,0.2-3.3c-0.4,0.6-3.5,4.8-4.6,3.7
		c-0.5-0.5,0.1-1.5-0.3-1.9c0.3,0.4-2.7,5.1-3.8,5.1c-0.4,0-1.3-1.6-1.1-1.8c-1.3,1.7-1.6,4.3-3.2,6.1c-1.6,1.9-3.6,1.4-5.9,2
		c-2.6,0.7-4.6,2.7-7.1,3.5c-2.6,0.8-4.7,0.1-6.5,2.8c-3-3.8-8.7-3.4-10.9,1c-0.4,0.9-0.7,1.8-0.8,2.8C12.5,4.5,13,4.1,10.9,5
		C9.1,5.8,7.8,7.8,6,8.9c-3.2,1.9-3.1,3-0.7,5.7c2.6,2.9,3.9,5.9,5.4,9.4C8,25,4.1,24,1.5,25.5c-2.9,1.6,3.2,3.7,3.7,4.2
		c2.5,2.1,5.6,3.7,8.5,4.9c1.5,0.6,3,1.4,4.5,2.1c1.5,0.6,2.7,0.4,4.2,0.7c4,0.7,7.6,2.5,11.4,3.7c4.1,1.3,8.6,1.7,12.9,2
		c1.7,0.1,3.6-0.6,4.3,1.3c0.6,1.7,1.3,3.3,2,4.9c0.9,2,2,4,3.1,6c0.4,0.7,2.6,5,3.4,4.9c0.4,0,0.1-1,0.5-1.1
		c0.4-0.1,6.1,7.1,6.6,3.6c0.2-1.6,1.8-2.2,2.2-3.3c0.5-1.4,1-3.4,0.7-4.9c-0.4-2.5,1.1-5.6-1.6-7.2c-3.1-1.8-6.8-2.4-10-3.9
		c7.1,0.2,14.8,1.6,21.7-0.7c2.8-1,5.6-3.7,8.5-4.1c3-0.4,5,1.3,7.2,3.2c-0.4-5.7,5.9,0.9,6.4-0.4c0.2-0.6-2.7-2-0.7-2.5
		c1.7-0.4,3.6,0,5.3-0.1c1.1-0.1,2.3-0.4,3.3-0.6c0.7-0.2,3.3-1.2,3.6-2c0.5-1.5,1.9-1.7,2.4-3.5c0.4-1.4,1.8-2.4,1-4.2
		c-1.5-3.4-3.8-4.3-7.4-3.6c2.1-1.7,5.2-3.1,7.8-3.7c2.5-0.5,5,0.8,7.2,1.8c6.9,2.8,15.2,6.1,22.6,6.7c3,0.2-0.2-2.5,1-3.5
		c-0.1-2.7-0.9-6.2-0.5-8.8c0.4-2.8,0.6-6.4-0.1-9.2c-0.3-1.2-0.2-1.4,0.5-2.6c0.3-1.7,0.3-3.5,0.8-5.1C147.9,0.2,147.8-0.6,148.4-1
		"/>
	<ellipse display="inline" cx="18" cy="2.3" rx="2.6" ry="2.7"/>
	<circle display="inline" fill="#FFFFFF" cx="94.9" cy="9" r="1.8"/>
	<circle display="inline" fill="#FFFFFF" cx="69.5" cy="7.5" r="7.8"/>
	<circle display="inline" fill="#FFFFFF" cx="34.5" cy="28.5" r="5.8"/>
	<circle display="inline" fill="#FFFFFF" cx="38" cy="8.3" r="2.2"/>
	<circle display="inline" fill="#FFFFFF" cx="50.8" cy="14.3" r="1.2"/>
	<circle display="inline" fill="#FFFFFF" cx="63.2" cy="30.7" r="7.9"/>
	<circle display="inline" fill="#FFFFFF" cx="140.7" cy="6.8" r="0.7"/>
	<circle display="inline" fill="#FFFFFF" cx="124.1" cy="16.3" r="3.2"/>
	<path display="inline" fill="none" stroke="#B15526" stroke-miterlimit="10" d="M16.7,12.9c0.5,0.2,3,1.5,4,3.8
		c1.1,2.6-0.4,4.5-0.5,4.9"/>
	<path display="inline" fill="none" stroke="#B15526" stroke-miterlimit="10" d="M20.7,11.1c0.5,0.2,3,1.5,4,3.8
		c1.1,2.6-0.4,4.5-0.5,4.9"/>
	<path display="inline" fill="none" stroke="#B15526" stroke-miterlimit="10" d="M24.7,9.9c0.5,0.2,3,1.5,4,3.8
		c1.1,2.6-0.4,4.5-0.5,4.9"/>
</g>
<g id="dolphin">
	<path fill="#C1C1C1" d="M128.8,33.8c-4.2,1.6-8.7,2.5-13.1,3.1c-0.8,0.1-1.6,0.2-2.4,0.3c-0.4,1-0.9,1.9-1.6,2.7
		c-1.4,1.5-3.1,2.7-4.9,3.8c-0.9,0.6-8.8,5-8.7,2.1c0-1.1,1.3-2.2,1.9-3c1.2-1.6,2.3-3.4,2.8-5.4c-1.4,0-2.7-0.2-3.9,0.4
		c-1.2,0.6-2.4,1.3-3.7,1.8c-2.3,0.8-4.6,0.3-2.7-2.3c-9.1-0.1-18.5-0.4-27.3-2.8c-7.2-1.9-14.5-2.7-21.7-4.5
		c-1.4-0.3-2.7-0.7-4-1.1l96.2,1.9C133.3,31.7,131.2,32.9,128.8,33.8z"/>
	<path fill="#8A8A8A" d="M1.8,19.4c0.2-0.4,1-0.5,1.4-0.7c1.6-0.7,2.9-1.9,4.1-3.2c0.9-1,1.8-2.2,3.1-2.8c0.9-0.4,2.8-0.1,2.6-1.4
		c-0.3-1.9,2.2-4.6,3.1-6.1c1.3-2.1,2.3-4,3-0.7c0.5,2.4,0.8,5.2,0.5,7.7c-0.2,2.2,2.2,3,3.9,3.5c3.3,1.1,6.8,0.9,10.2,1.3
		c4.3,0.6,8,0.5,12.2-0.6c0.5-2.4-0.9-3.2-2.3-4.7c-1.1-1.3,3.5-1,3.9-1c2.9,0.3,5.7,1,8.4,1.9c1.1,0.4,2.6,1.4,3.7,1.2
		c1.4-0.3,2.9-0.5,4.3-0.7c14.2-2.1,28.8-3.8,43.2-2.2c4.9,0.5,9.5,2,14.4,2.1c3.5,0.1,7.2,0,10.5,1.5c3,1.3,4.5,3.4,6,6.2
		c1.5,2.6,4,3.3,6.8,3.6c0.9,0.1,2,0.8,1.7,1.8c-0.3,0.9,1.6,1.2-0.4,2.3c-2.7,1.4-6.3,1.4-9.3,2.1c-0.5,0.1-0.9,0.3-1.4,0.4
		l-96.2-1.9c-6.3-1.8-12.4-4.2-18.3-7.2c-3.1-1.6-4.6-2.4-7.9-1.9c-2.5,0.4-5,1.3-7.5,1C5.4,21,1.4,20.4,1.8,19.4z"/>
	<path fill="#8A8A8A" stroke="#020303" stroke-miterlimit="10" d="M146.8,26.5c-1,0.3-2.3,0.6-3.8,0.7c-4.7,0.3-8.3-1.9-9.8-2.9"/>
	<circle cx="130.8" cy="20" r="0.7"/>
</g>
<g id="dory">
</g>
<g id="octapus">
</g>
<g id="glowfish">
</g>
</svg>
