<?xml version="1.0" encoding="utf-8"?>
<!-- Generator: Adobe Illustrator 18.1.1, SVG Export Plug-In . SVG Version: 6.00 Build 0)  -->
<svg version="1.1" xmlns="http://www.w3.org/2000/svg" xmlns:xlink="http://www.w3.org/1999/xlink" x="0px" y="0px"
	 viewBox="0 0 150 99" enable-background="new 0 0 150 99" xml:space="preserve">
<g id="clownfish" display="none">
	<path id="clown_fish" display="inline" fill="#F37433" d="M148.4,25.3c1.2-0.7,1.2-3.1-0.5-2.8c-1.9,0.3-3.8,1.1-5.5,1.7
		c-3.9,1.5-7.8,3.3-11.5,5.3c-6.1,3.2-15.7,8.8-21.8,2.1c2.1-0.5,4.6-1.6,5.5-3.5c1.2-2.5,0.7-5.7-1.8-7.3c-0.7-0.5-1.5-0.9-2.1-1.5
		c-0.7-0.6-1-0.3-1.7-0.8c-0.5-0.3-0.7-1-1.2-1.3c-0.8-0.5-1.3,0.3-2.1,0.1c-0.7-0.2-1-0.9-1.9-1c-0.8-0.1-1.4,0.1-2.2-0.3
		c-0.7-0.3-1.5,0.1-2.2,0.3c-0.9,0.3-1.4-0.4-2.3,0c-1.3,0.5-2,0.8-3.4,0.8c-1,0.1-1.9,0.8-2.9,0.9c-1.2,0-1.7-2.3-2.6-2
		c-0.8,0.2-1.7-0.1-2-0.9c-0.3-0.8-1-0.3-1.7-0.8c-0.7-0.4-0.3-1-1-0.9c-0.9,0.2-1.9,0-2.7-0.6c-1.3-1-0.5-0.8-2.3-0.8
		c-1.7,0-2-1.4-3.7-1.1c-0.6,0.1-1.4,0.4-2.1,0.3c-0.8-0.1,0.1-1.1-0.1-1.4c0,0-3.1,1.1-3.4,1.2c-0.9,0.1-1.4-0.7-0.6-1.1
		c-1.5,0.7-5.3,1.7-3.8-1.5c-2.4,2.3-4.2,1.6-3.6-1.8c-0.7,0.7-4,4.3-4.6,1.7c-0.3-1-0.1-2.3,0.2-3.3c-0.4,0.6-3.5,4.8-4.6,3.7
		c-0.5-0.5,0.1-1.5-0.3-1.9c0.3,0.4-2.7,5.1-3.8,5.1c-0.4,0-1.3-1.6-1.1-1.8c-1.3,1.7-1.6,4.3-3.2,6.1c-1.6,1.9-3.6,1.4-5.9,2
		c-2.6,0.7-4.6,2.7-7.1,3.5c-2.6,0.8-4.7,0.1-6.5,2.8c-3-3.8-8.7-3.4-10.9,1c-0.4,0.9-0.7,1.8-0.8,2.8c-0.2,2.3,0.4,1.9-1.7,2.8
		c-1.9,0.8-3.1,2.8-4.9,3.9c-3.2,1.9-3.1,3-0.7,5.7c2.6,2.9,3.9,5.9,5.4,9.4c-2.8,0.9-6.7,0-9.3,1.4c-2.9,1.6,3.2,3.7,3.7,4.2
		c2.5,2.1,5.6,3.7,8.5,4.9c1.5,0.6,3,1.4,4.5,2.1c1.5,0.6,2.7,0.4,4.2,0.7c4,0.7,7.6,2.5,11.4,3.7c4.1,1.3,8.6,1.7,12.9,2
		c1.7,0.1,3.6-0.6,4.3,1.3c0.6,1.7,1.3,3.3,2,4.9c0.9,2,2,4,3.1,6c0.4,0.7,2.6,5,3.4,4.9c0.4,0,0.1-1,0.5-1.1
		c0.4-0.1,6.1,7.1,6.6,3.6c0.2-1.6,1.8-2.2,2.2-3.3c0.5-1.4,1-3.4,0.7-4.9c-0.4-2.5,1.1-5.6-1.6-7.2c-3.1-1.8-6.8-2.4-10-3.9
		c7.1,0.2,14.8,1.6,21.7-0.7c2.8-1,5.6-3.7,8.5-4.1c3-0.4,5,1.3,7.2,3.2c-0.4-5.7,5.9,0.9,6.4-0.4c0.2-0.6-2.7-2-0.7-2.5
		c1.7-0.4,3.6,0,5.3-0.1c1.1-0.1,2.3-0.4,3.3-0.6c0.7-0.2,3.3-1.2,3.6-2c0.5-1.5,1.9-1.7,2.4-3.5c0.4-1.4,1.8-2.4,1-4.2
		c-1.5-3.4-3.8-4.3-7.4-3.6c2.1-1.7,5.2-3.1,7.8-3.7c2.5-0.5,5,0.8,7.2,1.8c6.9,2.8,15.2,6.1,22.6,6.7c3,0.2-0.2-2.5,1-3.5
		c-0.1-2.7-0.9-6.2-0.5-8.8c0.4-2.8,0.6-6.4-0.1-9.2c-0.3-1.2-0.2-1.4,0.5-2.6c0.3-1.7,0.3-3.5,0.8-5.1
		C147.9,26.5,147.8,25.7,148.4,25.3"/>
	<ellipse display="inline" cx="18" cy="28.7" rx="2.6" ry="2.7"/>
	<circle display="inline" fill="#FFFFFF" cx="94.9" cy="35.3" r="1.8"/>
	<circle display="inline" fill="#FFFFFF" cx="69.5" cy="33.8" r="7.8"/>
	<circle display="inline" fill="#FFFFFF" cx="34.5" cy="54.9" r="5.8"/>
	<circle display="inline" fill="#FFFFFF" cx="38" cy="34.6" r="2.2"/>
	<circle display="inline" fill="#FFFFFF" cx="50.8" cy="40.6" r="1.2"/>
	<circle display="inline" fill="#FFFFFF" cx="63.2" cy="57" r="7.9"/>
	<circle display="inline" fill="#FFFFFF" cx="140.7" cy="33.2" r="0.7"/>
	<circle display="inline" fill="#FFFFFF" cx="124.1" cy="42.7" r="3.2"/>
	<path display="inline" fill="none" stroke="#B15526" stroke-miterlimit="10" d="M16.7,39.3c0.5,0.2,3,1.5,4,3.8
		c1.1,2.6-0.4,4.5-0.5,4.9"/>
	<path display="inline" fill="none" stroke="#B15526" stroke-miterlimit="10" d="M20.7,37.5c0.5,0.2,3,1.5,4,3.8
		c1.1,2.6-0.4,4.5-0.5,4.9"/>
	<path display="inline" fill="none" stroke="#B15526" stroke-miterlimit="10" d="M24.7,36.3c0.5,0.2,3,1.5,4,3.8
		c1.1,2.6-0.4,4.5-0.5,4.9"/>
</g>
<g id="dolphin" display="none">
	<path display="inline" fill="#C1C1C1" d="M128.8,60.2c-4.2,1.6-8.7,2.5-13.1,3.1c-0.8,0.1-1.6,0.2-2.4,0.3c-0.4,1-0.9,1.9-1.6,2.7
		c-1.4,1.5-3.1,2.7-4.9,3.8c-0.9,0.6-8.8,5-8.7,2.1c0-1.1,1.3-2.2,1.9-3c1.2-1.6,2.3-3.4,2.8-5.4c-1.4,0-2.7-0.2-3.9,0.4
		c-1.2,0.6-2.4,1.3-3.7,1.8c-2.3,0.8-4.6,0.3-2.7-2.3c-9.1-0.1-18.5-0.4-27.3-2.8c-7.2-1.9-14.5-2.7-21.7-4.5
		c-1.4-0.3-2.7-0.7-4-1.1l96.2,1.9C133.3,58.1,131.2,59.3,128.8,60.2z"/>
	<path display="inline" fill="#8A8A8A" d="M1.8,45.8c0.2-0.4,1-0.5,1.4-0.7c1.6-0.7,2.9-1.9,4.1-3.2c0.9-1,1.8-2.2,3.1-2.8
		c0.9-0.4,2.8-0.1,2.6-1.4c-0.3-1.9,2.2-4.6,3.1-6.1c1.3-2.1,2.3-4,3-0.7c0.5,2.4,0.8,5.2,0.5,7.7c-0.2,2.2,2.2,3,3.9,3.5
		c3.3,1.1,6.8,0.9,10.2,1.3c4.3,0.6,8,0.5,12.2-0.6c0.5-2.4-0.9-3.2-2.3-4.7c-1.1-1.3,3.5-1,3.9-1c2.9,0.3,5.7,1,8.4,1.9
		c1.1,0.4,2.6,1.4,3.7,1.2c1.4-0.3,2.9-0.5,4.3-0.7c14.2-2.1,28.8-3.8,43.2-2.2c4.9,0.5,9.5,2,14.4,2.1c3.5,0.1,7.2,0,10.5,1.5
		c3,1.3,4.5,3.4,6,6.2c1.5,2.6,4,3.3,6.8,3.6c0.9,0.1,2,0.8,1.7,1.8c-0.3,0.9,1.6,1.2-0.4,2.3c-2.7,1.4-6.3,1.4-9.3,2.1
		c-0.5,0.1-0.9,0.3-1.4,0.4l-96.2-1.9c-6.3-1.8-12.4-4.2-18.3-7.2c-3.1-1.6-4.6-2.4-7.9-1.9c-2.5,0.4-5,1.3-7.5,1
		C5.4,47.3,1.4,46.7,1.8,45.8z"/>
	<path display="inline" fill="#8A8A8A" stroke="#020303" stroke-miterlimit="10" d="M146.8,52.8c-1,0.3-2.3,0.6-3.8,0.7
		c-4.7,0.3-8.3-1.9-9.8-2.9"/>
	<circle display="inline" cx="130.8" cy="46.3" r="0.7"/>
</g>
<g id="dory">
	<path fill="#F5EB30" d="M37.1,20.8c-1.1,0.2-2.4,1.1-3.5,2c0.1,0.2,0.2,0.3,0.2,0.5C34.9,22.3,37.2,20.9,37.1,20.8z"/>
	<path fill="#F5EB30" d="M54.8,15.3c-0.1,0-0.2,0-0.3,0c0,0.1,0.1,0.1,0.1,0.2C54.7,15.4,54.8,15.3,54.8,15.3z"/>
	<path fill="#F5EB30" d="M52.2,17c0.3-0.4,1.9-1.2,2.4-1.5c0-0.1-0.1-0.1-0.1-0.2c-0.7,0.1-2,0.8-2.5,1c-1.4,0.6-2.5,1.2-4.1,1.5
		c0.5-0.4,3-1.6,3.1-2.1c-0.3-0.2-2.6,1.3-2.9,1.5c-1.5,0.8-2.7,1.3-4.4,1.8c1-0.7,2.4-1.7,2.3-1.8c-0.5-0.1-1.9,1-2.3,1.3
		c-1.6,1-3.2,1.7-4.9,2.4c0.6-0.5,1.6-1.5,2.3-1.9c-2.5,1.2-4.9,3.1-7.4,4.5c8,17,10.7,36,6.8,55.5c-0.3,1.6-0.7,3.1-1.2,4.7
		c0.1,0.4,0.3,0.8,0.5,1.2c1.5,3.2,4.2,6,7.1,7.9c2.3,1.5,4.9,1.5,7.1,2.4c-0.4-0.2-1.7-0.8-1.7-1.4c0,0.4,5.5,2,6.4,2.1
		c0.4,0.1,4.4-0.2,4.4-0.2c-0.3-0.3-1.5-0.3-1.9-0.4c-1.4-0.4-2.8-1.2-3.9-2.1c-2.2-1.8-3.6-4-4.4-6.7c-0.7-2.6-3.3-1.9-5.4-2
		c-2,0-3.1-1.8-4.9-2.5c3.8,0.5,7.6,0.9,11.4,1.2c4.3,0.4,8.5-0.8,12.8-0.9c-0.1,0-0.2,0.1-0.2,0.1c1.7-0.1,3.2,0,4.7,0.2
		C74.3,59.3,69.3,34.5,55,16C54.2,16.4,53.4,16.8,52.2,17z"/>
	<path fill="#4B64AD" d="M81.3,13.7c-0.4,0.1-0.7,0.1-0.9,0.1c0-0.2,0.3-0.4,0.7-0.5c-0.1-0.2-0.3-0.4-0.4-0.7
		c-1.7,0.5-4.1,1.8-4.6,1.1c-0.1-0.2,2.3-1.6,2.1-1.6c-1.1-0.1-2.7,1-3.7,1.3c-0.4,0.2-3.6,0.9-3.4,0.6c0.3-0.4,1.9-1.2,1.7-1.2
		c-2-0.1-4.3,1.8-6.4,2.1c-0.4-0.2,1.4-1.9,1.4-1.9c-1.9-0.3-4.3,2.4-6.3,2.5c-1,0,2-2.2,2-2.1c-0.5-0.5-6.2,2.7-7.1,2.9
		c0.4-1.1,2.3-1.2,2.7-2.1c-0.6-0.2-2.3,0.9-2.8,1.1c-0.4,0.2-0.8,0.4-1.1,0.6c14.2,18.5,19.2,43.3,16.4,66.3
		c0.6,0.1,1.1,0.2,1.7,0.4c1.3,0.4,2.7,0.7,4.1,0.8c0.2,0,3-0.2,2.9-0.3c-0.5-0.6-2.8-0.4-2.5-1.7c2.5,0.1,5,0.7,7.4,0.5
		c1-0.1,1.8-0.5,2.9-0.5c1.6,0.1,3.1,0.4,4.7,0.5C94.4,58.2,93.4,33.3,81.3,13.7z"/>
	<path fill="#F5EB30" d="M82.3,12.8c-0.3-0.4-0.9-0.3-1.6-0.1c0.1,0.2,0.3,0.4,0.4,0.7C81.6,13.2,82.2,13.1,82.3,12.8z"/>
	<path fill="#F5EB30" d="M148.9,2.9c-0.2,0-3.7,3.5-4.3,3.9c-2.1,1.5-4.5,2.8-6.9,3.9c-6.4,2.9-12.6,4.5-19.6,3.4
		c-6.8-1.1-13.5-2.5-20.3-0.8c-2.2,0.6-3.4,0.3-5.6-0.1c-1.4-0.2-2.3,0.3-3.4,1c-0.5,0.3-4.2,0-4.1-0.4c0.2-0.3,0.4-0.6,0.5-0.9
		c0,0-2.6,0.5-4,0.7C93.4,33.3,94.4,58.2,92.6,82c0.3,0,0.7,0,1,0c3.4-0.1,6.8-0.4,10.1-1.4c2.3-0.7,4.5-0.9,6.4-2.5
		c2.3-1.9,3.3-4.3,2.4-7.2c-0.6-2.1,0.1-3.9,0.1-6.1c0-2.2-3.5-4.8-5.5-5.4c-1.9-0.6-3.7-2.2-5.1-3.6c1.8-0.4,3.8-0.7,5.6-0.6
		c2.4,0.2,4.1,2.4,6,3.7c4.4,3,10.5,4.5,15.6,5.8c-1.8-2-0.4-4.8-0.3-7.1c0-0.6,0.8-2.6,0.5-3c-0.8-0.8-1.3-0.8,0.4-1.3
		c-0.1-1.5,0-3.3,0.3-4.7c0.3-1.7-0.2-3.6-0.4-5.3c-0.1-1.1-0.4-4.1-1.5-4.7c-0.5-0.3-2.2,0.2-2.3-0.4c0.1,0.1,1.8-1.1,1.5-1.8
		c-0.4-1.2-1-3.2-0.9-4.4c-2.6,0.5-5,4-7.2,5.4c-2.8,1.9-5.2,4.5-8.5,5.6c-2,0.7-6.9,4-9,2.5c-0.8-0.6,3.9-2.6,4.5-3
		c2.2-1.7,4.9-3.2,6.1-5.8c1.2-2.4,1.4-5.7,2.1-8.3c0.7-2.6,0.2-5.6-1.2-7.9c-1.2-1.9-3.7-2.5-5.8-3.1c-0.3-0.5,0.1-0.8,1-1.1
		c2.9-1,6.4-0.4,9.4-0.4c4.8,0.1,9.3-0.5,13.8-2c3.9-1.3,7.7-3,11.1-5.2c1.3-0.8,2.6-1.7,3.8-2.7C147.2,5.8,149.5,3,148.9,2.9z"/>
	<path fill="#4A63AE" d="M33.8,23.4c-0.1,0-0.1,0.1-0.2,0.1C33.7,23.4,33.8,23.4,33.8,23.4c-0.1-0.2-0.2-0.4-0.3-0.5
		c-0.5,0.4-1,0.8-1.3,1.1c-2,1.6-4.2,3-6.1,4.8c-1.9,1.9-3.5,4.1-5,6.4c1.7,9.3,5.9,18.4,5.9,28c0.2,4.9,1.3,10,1.8,15
		c1.9,0.8,3.9,1.5,5.9,2c1.4,0.4,2.8,0.7,4.2,1c0.1,0.8,0.3,1.6,0.6,2.3c0.4-1.5,0.8-3.1,1.2-4.7C44.5,59.4,41.9,40.4,33.8,23.4z"/>
	<path fill="#F5EB30" d="M41.2,18.9c0.1-0.1,0.2-0.1,0.4-0.2C41.4,18.7,41.3,18.8,41.2,18.9z"/>
	<path fill="#F5EB30" d="M27.1,63.1c0-9.6-4.2-18.7-5.9-28c-1.3,2.2-2.5,4.5-3.7,6.7c-2.6,5-4.9,9.9-9.1,13.8
		C6.6,57.3,5.2,57.2,3,58c-3.7,1.2,2.2,2.9,1.8,4.1c-1.3,0.3-6.3-1-2.2,1.6c2.8,1.7,6.1,1.8,8.3,4.5c3.9,4.6,10.3,6.6,15.5,9.1
		c0.8,0.4,1.6,0.7,2.4,1.1C28.4,73.2,27.3,68,27.1,63.1z"/>
	<ellipse fill="#FFFFFF" cx="28.8" cy="46.6" rx="3" ry="3"/>
	<circle cx="28.8" cy="46.8" r="0.8"/>
	<path fill="none" stroke="#DEDD1F" stroke-miterlimit="10" d="M43.6,48c0.7,0.4,2.9,1.6,4.1,4.3c1.7,4-0.6,7.8-0.8,8.1"/>
	<path fill="none" stroke="#DEDD1F" stroke-miterlimit="10" d="M47.9,43.4c1.2,0.9,3.5,2.9,4.9,6.2c2.5,6.2-0.3,11.8-0.8,12.7"/>
</g>
<g id="octapus">
</g>
<g id="glowfish">
</g>
</svg>
