<?xml version="1.0" standalone="no"?>
<!DOCTYPE svg PUBLIC "-//W3C//DTD SVG 1.1//EN" "http://www.w3.org/Graphics/SVG/1.1/DTD/svg11.dtd" >
<svg xmlns="http://www.w3.org/2000/svg" xmlns:xlink="http://www.w3.org/1999/xlink" version="1.1">
<metadata></metadata>
<defs>
<font id="economicaregular" horiz-adv-x="788" >
<font-face units-per-em="2048" ascent="1638" descent="-410" />
<missing-glyph horiz-adv-x="389" />
<glyph unicode="&#xfb01;" horiz-adv-x="841" d="M70 989v111h108l-8 51v33q0 90 0.5 126.5t12 83t27 59t56.5 28t89.5 17t136.5 1.5h206v-102h-206h-85t-54 -9.5t-36.5 -16t-15 -38.5t-8.5 -58v-91v-33l-8 -51h311q74 0 88 -13.5t14 -80.5v-1006h-51.5t-32.5 4t-22 7t-9 17.5t-5 25.5v40v895h-295l8 -51v-1231 q-1 -36 -1 -50t-5.5 -31.5t-9.5 -21.5t-22.5 -9t-33 -5h-51.5l2 1348l8 51h-108z" />
<glyph unicode="&#xfb02;" horiz-adv-x="829" d="M68 989v111h108l-8 51v33q0 164 11 210q16 62 71 84q59 21 239 21h86h51.5t33 -4t22 -7t9 -17t5.5 -25.5v-40.5v-1405h-51.5t-33 4t-22 7t-9 17t-5.5 25.5v40.5v1303h-86q-149 0 -173.5 -26t-24.5 -184v-3v-33l-8 -51h141v-111h-143l8 -51v-1231q-1 -36 -1 -50 t-5.5 -31.5t-9.5 -21.5t-22.5 -9t-33 -5h-51.5l2 1348l8 51h-108z" />
<glyph unicode="&#xfb03;" horiz-adv-x="1314" d="M37 989v111h110l-10 61v23v24q0 54 0.5 78.5t4.5 61.5t12 51.5t24 37t39 29.5t58.5 16.5t81 12t108.5 2.5v-96q-57 0 -87 -0.5t-57 -10t-36.5 -17t-16.5 -36.5t-7.5 -51.5t-0.5 -80.5v-21v-23l-10 -61h334l-9 51v33q0 90 0.5 126.5t12 83t27 59t56.5 28t89.5 17 t136.5 1.5h207v-102h-207h-85t-54 -9.5t-36.5 -16t-15 -38.5t-8.5 -58v-91v-33l-8 -51h311q74 0 88.5 -13.5t14.5 -80.5v-1006h-51.5t-33 4t-22 7t-9 17t-5.5 25.5v40.5v895h-295l8 -51v-1231q-1 -36 -1 -50t-5.5 -31.5t-9.5 -21.5t-22.5 -9t-33 -5h-51.5l2 1348l9 51h-336 l10 -61v-1221q-1 -36 -1 -50t-5.5 -31.5t-9.5 -21.5t-22.5 -9t-33 -5h-51.5l2 1338l10 61h-110z" />
<glyph unicode="&#xfb04;" horiz-adv-x="1275" d="M37 989v111h110l-10 61v23v24q0 54 0.5 78.5t4.5 61.5t12 51.5t24 37t39 29.5t58.5 16.5t81 12t108.5 2.5v-96q-57 0 -87 -0.5t-57 -10t-36.5 -17t-16.5 -36.5t-7.5 -51.5t-0.5 -80.5v-21v-23l-10 -61h340l-8 51v33q0 164 11 210q16 62 71 84q59 21 239 21h86h51.5t33 -4 t22 -7t9 -17t5.5 -25.5v-40.5v-1405h-51.5t-33 4t-22 7t-9 17t-5.5 25.5v40.5v1303h-86q-149 0 -173.5 -26t-24.5 -184v-3v-33l-9 -51h142v-111h-144l8 -51v-1231q-1 -36 -1 -50t-5.5 -32t-9.5 -21.5t-22 -8.5t-32.5 -5h-51.5l2 1348l8 51h-342l10 -61v-1221q-1 -36 -1 -50 t-5.5 -31.5t-9.5 -21.5t-22.5 -9t-33 -5h-51.5l2 1338l10 61h-110z" />
<glyph horiz-adv-x="0" />
<glyph horiz-adv-x="682" />
<glyph unicode=" "  horiz-adv-x="389" />
<glyph unicode="&#x09;" horiz-adv-x="389" />
<glyph unicode="&#xa0;" horiz-adv-x="389" />
<glyph unicode="!" horiz-adv-x="329" d="M70 98v8q3 36 30.5 61.5t63.5 25.5q39 0 66.5 -28t27.5 -67q0 -38 -27.5 -64t-64.5 -26q-40 0 -68 26.5t-28 63.5zM131 385l14 1008q0 54 14.5 71t57.5 17q14 0 72 -4l-37 -1006q-3 -61 -10.5 -75.5t-46.5 -14.5q-10 0 -64 4z" />
<glyph unicode="&#x22;" horiz-adv-x="679" d="M111 1407q0 39 24 65.5t62 26.5t62 -27t24 -69q0 -38 -21.5 -128t-43.5 -161l-21 -70l-80 41q25 87 29 151.5t-5 91.5t-19.5 49t-10.5 30zM406 1407q0 39 24 65.5t62 26.5t62 -27t24 -69q0 -38 -21.5 -128t-42.5 -161l-22 -70l-80 41q25 87 29 151.5t-5 91.5t-19.5 49 t-10.5 30z" />
<glyph unicode="#" horiz-adv-x="1341" d="M45 489v129h285l116 291h-313v129h367l184 461h139l-184 -461h297l184 461h140l-185 -461h223v-129h-276l-117 -291h305v-129h-356l-197 -489h-139l197 489h-297l-197 -489h-139l197 489h-234zM469 618h297l117 291h-297z" />
<glyph unicode="$" horiz-adv-x="802" d="M131 825q0 39 0.5 60.5t5 55.5t12.5 53t24.5 43t40 37t59 24t81.5 14l2 180h42t26.5 -4t17.5 -7t7.5 -17.5t4.5 -25.5t1 -40l2 -98l131 -19q0 -61 -27.5 -79t-75.5 -9l-71 13q-47 0 -79 -10t-48 -23t-24.5 -39.5t-9.5 -44t-1 -53.5q0 -35 30.5 -74.5t76 -74t98.5 -76 t98.5 -80.5t76 -88.5t30.5 -98.5q0 -44 -0.5 -66.5t-4 -63t-11 -63.5t-21.5 -53.5t-34.5 -48.5t-52.5 -34t-73 -23l-2 -240q-69 0 -82 9q-14 10 -15 58q-1 5 -1 27l-3 140q-32 3 -65.5 8t-78 14t-64.5 12v95q19 -1 104 -11t131 -10q25 0 45.5 4.5t34.5 12.5t24.5 19.5t16 26 t9.5 31.5t5 36t2 39.5t0 42.5v22q0 32 -29.5 69.5t-73 71.5t-95 76.5t-95 83t-73 92.5t-29.5 104z" />
<glyph unicode="%" horiz-adv-x="1251" d="M96 1192q0 85 7.5 142t20.5 92t39 52.5t54 23t74 5.5t74 -5.5t53.5 -23.5t38.5 -53t20.5 -91.5t7.5 -141.5q0 -140 -20.5 -214.5t-60 -101t-113.5 -26.5q-44 0 -74 8.5t-54.5 30t-38.5 60t-21 98t-7 145.5zM190 1188q0 -103 12.5 -156.5t32 -68.5t56.5 -15t56.5 15 t31.5 68.5t12 156.5q0 64 -4.5 106t-11 65.5t-21.5 34.5t-27 13t-36 2t-36.5 -2t-27 -13t-21.5 -34.5t-11.5 -65.5t-4.5 -106zM233 0l603 1499h139l-602 -1499h-140zM702 328q0 85 7.5 142t20.5 92t39 52.5t54 23t74 5.5t74 -5.5t54 -23.5t39 -53t20.5 -91.5t7.5 -141.5 q0 -140 -21 -215t-60.5 -101t-113.5 -26q-44 0 -74 8.5t-54.5 30t-38.5 60t-21 98t-7 145.5zM797 324q0 -103 12 -156.5t31.5 -68.5t56.5 -15t56.5 15t31.5 68.5t12 156.5q0 64 -4.5 106t-11 65.5t-21.5 34.5t-27 13t-36 2t-36 -2t-27 -13t-21.5 -34.5t-11 -65.5t-4.5 -106z " />
<glyph unicode="&#x26;" horiz-adv-x="1097" d="M98 426q0 128 50 228.5t126 158.5q-31 23 -44.5 33.5t-35.5 35t-31.5 48.5t-17.5 64t-8 91q0 351 291 351l246 -19v-27.5t-2 -20.5t-2.5 -15.5t-6 -10.5t-8 -7.5t-13.5 -4.5t-17 -3.5t-24 -2.5t-30 -4h-143q-31 0 -52.5 -4.5t-43 -18.5t-35 -39.5t-21.5 -69t-8 -104.5 q0 -44 4.5 -77.5t11 -56.5t20.5 -38.5t26.5 -24t35.5 -12.5t41 -5t50 -1v-120q-98 0 -164 -87.5t-66 -238.5q0 -161 63 -242.5t199 -81.5q135 0 198 82t63 242v274l8 52h-109v110h109l-8 51v90q93 0 112 -12.5t19 -81.5l-9 -47h166q0 -41 -1.5 -58t-12 -31.5t-30 -17.5 t-58.5 -3h-64l9 -52v-274q0 -220 -93.5 -329t-298.5 -109q-206 0 -298.5 108t-92.5 332z" />
<glyph unicode="'" horiz-adv-x="337" d="M66 1085q25 87 37 152t12 90t-3 50.5t-3 29.5q0 38 28 65t66 27q39 0 66.5 -27.5t27.5 -68.5q0 -38 -38 -130.5t-76 -165.5l-38 -73z" />
<glyph unicode="(" horiz-adv-x="507" d="M94 668q0 117 0.5 176.5t3 153.5t7.5 140t14.5 116t24 103t35.5 79t50 66t66 42t84.5 29.5t105.5 7.5v-31.5t-2 -23t-3 -17.5t-8 -11t-12 -8t-18.5 -3t-24.5 -2h-34q-108 0 -134 -168.5t-26 -609.5v-56q0 -454 25 -617t135 -163h43.5t28 -4.5t18.5 -8t8 -17.5t4 -25.5 v-40.5q-59 0 -106 7t-84.5 28.5t-66 39.5t-50 63.5t-36 75.5t-23.5 100t-14.5 113t-7.5 138t-2.5 151.5t-0.5 176.5z" />
<glyph unicode=")" horiz-adv-x="509" d="M23 -193.5q0 9.5 2 23t3 17.5t8 11t12 8t18.5 3t24.5 2h34q109 0 134.5 161t25.5 597q0 430 -10 556q-17 221 -82 276q-29 24 -68 24h-34t-24.5 2t-18.5 3t-12 8t-8 11t-3 17.5t-2 23v31.5q58 0 105.5 -7.5t84.5 -29.5t66 -42t50 -66t35.5 -79t24 -103t14.5 -116 t7.5 -140t3 -153.5t0.5 -176.5q0 -120 -0.5 -176.5t-2.5 -151.5t-7.5 -138t-14.5 -113t-23.5 -100t-36 -75.5t-50 -63.5t-66 -39.5t-84.5 -28.5t-106 -7v31.5z" />
<glyph unicode="*" horiz-adv-x="618" d="M59 1202v105l179 -11l-101 150l90 53l82 -160l78 158l90 -53l-96 -148l172 11l2 -105l-180 10l104 -147l-92 -51l-82 160l-78 -156l-90 51l96 143z" />
<glyph unicode="+" horiz-adv-x="497" d="M31 614v105h174l-8 51v135h104v-135l-8 -51h176v-105h-176l8 -51v-137h-104v137l8 51h-174z" />
<glyph unicode="," horiz-adv-x="315" d="M66 -197q32 80 43.5 138.5t7 81.5t-12.5 43.5t-8 27.5q0 38 28 65t66 27q82 0 82 -82q0 -38 -35 -122.5t-69 -149.5l-35 -65z" />
<glyph unicode="-" horiz-adv-x="688" d="M123 614v105h438v-105h-438z" />
<glyph unicode="." horiz-adv-x="362" d="M88 94q0 38 28 65t66 27t66 -27t28 -65t-28 -66t-66 -28t-66 28t-28 66z" />
<glyph unicode="/" horiz-adv-x="761" d="M18 -410l603 1909h131l-602 -1909h-132z" />
<glyph unicode="0" horiz-adv-x="839" d="M123 750q0 337 14 452q22 180 101 244q64 53 184 53q158 0 222 -96q59 -88 70 -313q5 -95 5 -340q0 -166 -1.5 -241t-9.5 -184.5t-26 -155t-51 -97.5t-84 -69t-125 -17t-126 17t-84.5 69t-51 97.5t-26.5 155t-9.5 184.5t-1.5 241zM252 750q0 -361 27 -495t143 -134 q115 0 141.5 133.5t26.5 493.5q0 358 -26.5 488t-141.5 130q-117 0 -143.5 -129t-26.5 -487z" />
<glyph unicode="1" horiz-adv-x="839" d="M123 0v47.5t4.5 31t10 21.5t21 10t33 6.5t50.5 0.5h112v1249l-129 -20v108l129 21h11h50t32 -4t21.5 -7.5t9.5 -17.5t5 -26v-40v-1263h219v-117h-579z" />
<glyph unicode="2" horiz-adv-x="839" d="M123 1438.5v40.5l217 20q73 0 128 -9t92 -20.5t61.5 -38.5t37.5 -47.5t19 -65t7 -72.5t1 -87q0 -71 -31.5 -143t-78.5 -129.5t-102 -118t-102 -110t-78.5 -104t-31.5 -101.5v-285l-8 -51h432v-117h-559v469q0 58 23 115.5t60 106.5t81.5 97.5t89 95.5t81.5 92.5t60 97 t23 100.5q0 33 -0.5 50.5t-5 44t-12.5 40t-23.5 30t-38.5 24.5t-57.5 13.5t-79.5 5.5h-103h-43t-28 4.5t-18.5 8t-8.5 18t-4 26z" />
<glyph unicode="3" horiz-adv-x="839" d="M123 20v101q19 -2 95 -11.5t118 -9.5q121 0 145.5 67t24.5 327q0 261 -24 325t-146 64h-100l200 483h-311v109h489l-198 -486q54 -4 90.5 -14t61.5 -38t38 -54t20 -87.5t8 -111.5t1 -152q0 -266 -9 -340q-15 -119 -73.5 -162.5t-206.5 -43.5q-33 0 -69.5 5.5t-83.5 15 t-70 13.5z" />
<glyph unicode="4" horiz-adv-x="839" d="M41 508l410 967h151v-809l-8 -52h90v-106h-90l8 -51v-457h-4h-50t-32 4t-22 7.5t-9.5 17t-5.5 25.5v40v363l8 51h-446zM229 614h258l-8 52v604h-16z" />
<glyph unicode="5" horiz-adv-x="839" d="M123 0v94h213q121 0 145.5 69.5t24.5 330.5t-24 325t-146 64h-211v592h489v-109h-368l8 -51v-273l-8 -51h155q44 0 77 -5t58 -22t41.5 -31.5t28 -53t17 -65t8.5 -88.5t3.5 -103.5t0.5 -128.5v-114.5t-2 -94t-5.5 -82t-11 -63.5t-17.5 -54t-26.5 -37.5t-36.5 -30.5 t-49 -17.5t-63 -12.5t-78 -2z" />
<glyph unicode="6" horiz-adv-x="839" d="M123 608q0 112 1 182.5t5 165.5t12 154.5t21.5 128.5t35.5 110.5t51 79t70.5 54t92.5 16.5l245 -20v-40.5t-4 -26t-8.5 -18t-18.5 -8t-28 -4.5h-43h-143q-20 0 -35 -5t-28 -19t-22 -29.5t-17 -45.5t-13.5 -57t-11 -75.5t-9.5 -89t-10 -107.5l121 52q58 0 99 -3.5t74 -19 t53.5 -26.5t35 -49t21.5 -62.5t11 -90t4.5 -108t0.5 -139.5q0 -76 -0.5 -113.5t-2.5 -94t-5.5 -82t-11 -64t-18.5 -53.5t-27.5 -38t-38 -30.5t-50.5 -17.5t-64.5 -12.5t-80.5 -2.5q-64 0 -109 14.5t-74 54.5t-45.5 79.5t-24.5 122.5t-9.5 148t-1.5 189zM252 608 q0 -263 9 -335q15 -126 74 -154q23 -10 52 -10q121 0 145.5 67.5t24.5 331.5q0 260 -24 324.5t-146 64.5l-129 -47q-5 -53 -6 -87.5t0 -63t0 -91.5z" />
<glyph unicode="7" horiz-adv-x="839" d="M123 0l465 1366h-424v109h565v-109l-475 -1366h-131z" />
<glyph unicode="8" horiz-adv-x="839" d="M123 426q0 128 50 228.5t126 158.5q-137 99 -137 332q0 103 21.5 177.5t60 115.5t85 59.5t103.5 18.5t103 -19t84 -60t59.5 -115.5t21.5 -176.5q0 -128 -36.5 -217t-96.5 -133q77 -59 125.5 -151t48.5 -218q0 -211 -83.5 -325.5t-225.5 -114.5q-144 0 -226.5 112.5 t-82.5 327.5zM252 424q0 -324 180 -324q88 0 133 83t45 241q0 149 -53 237.5t-125 88.5q-73 0 -126.5 -88t-53.5 -238zM293 1145q0 -152 33.5 -213.5t105.5 -61.5t105.5 61.5t33.5 213.5q0 148 -33.5 202t-105.5 54q-74 0 -106.5 -53.5t-32.5 -202.5z" />
<glyph unicode="9" horiz-adv-x="839" d="M123 877.5v113.5q0 76 0.5 113.5t2.5 94t5.5 82t11 64t18.5 53.5t27.5 38t38 30.5t50.5 17.5t64.5 12.5t80.5 2.5q50 0 85.5 -4t64.5 -21.5t47 -33t31.5 -58t20 -76.5t10.5 -108.5t4.5 -134t0.5 -172.5q0 -118 -1 -183t-4.5 -164.5t-12 -155t-22.5 -128t-37 -111.5 t-55 -78t-76.5 -55t-100.5 -16l-246 20v97h246q70 0 108.5 105.5t59.5 340.5l-123 -69q-46 0 -81 2t-65 11.5t-50.5 16t-37.5 29.5t-27.5 36.5t-18 52.5t-11.5 62t-6 80.5t-2 93zM252 991q0 -260 24 -324.5t146 -64.5l131 66q4 78 4 223q0 299 -9 369q-11 93 -53 117 q-26 14 -73 14q-121 0 -145.5 -68t-24.5 -332z" />
<glyph unicode=":" horiz-adv-x="370" d="M84 94q0 38 28 65t66 27t66 -27t28 -65t-28 -66t-66 -28t-66 28t-28 66zM98 1008q0 38 28 65t67 27q38 0 66 -27t28 -65t-28 -66.5t-66 -28.5t-66.5 28.5t-28.5 66.5z" />
<glyph unicode=";" horiz-adv-x="313" d="M66 -197q32 80 43.5 138.5t7 81.5t-12.5 43.5t-8 27.5q0 38 28 65t66 27q82 0 82 -82q0 -38 -35 -122.5t-69 -149.5l-35 -65zM86 1008q0 38 28 65t66 27t66 -27t28 -65t-28 -66.5t-66 -28.5t-66 28.5t-28 66.5z" />
<glyph unicode="&#x3c;" horiz-adv-x="485" d="M20 590v53l273 457h110l-282 -484l285 -499h-113z" />
<glyph unicode="=" horiz-adv-x="743" d="M123 506v104h559v-104h-559zM123 719v104h559v-104h-559z" />
<glyph unicode="&#x3e;" horiz-adv-x="483" d="M78 117l284 499l-282 484h110l273 -457v-53l-273 -473h-112z" />
<glyph unicode="?" horiz-adv-x="694" d="M76 1438.5v40.5l196 20q84 0 144 -9t97.5 -32.5t59 -45.5t30.5 -68.5t11 -78.5t2 -98q0 -85 -35.5 -169.5t-86 -152t-101 -130t-86 -127t-35.5 -119.5v-63h-118v63q0 79 34.5 158t84 144.5t98.5 129.5t83.5 135t34.5 138q0 36 -2 59t-9.5 49.5t-22.5 42.5t-40 30 t-63.5 20.5t-91.5 6.5h-82h-43t-28 4.5t-18.5 8t-8.5 18t-4 26zM123 94q0 38 28 65t66 27t66 -27t28 -65t-28 -66t-66 -28t-66 28t-28 66z" />
<glyph unicode="@" horiz-adv-x="1138" d="M106 817q0 46 2.5 75.5t11 62t25 52.5t44.5 38t70.5 28t100.5 14l496 27q62 4 103 -9t61 -43t27.5 -63.5t7.5 -83.5v-321q0 -51 -0.5 -76.5t-4 -59.5t-10 -48.5t-20 -34t-31.5 -26.5t-47 -15t-65 -10t-86 -2t-79 9t-39.5 21t-19.5 35l-127 -76h-38.5t-30.5 3.5t-24.5 5.5 t-18 12t-13 16.5t-8.5 26t-6 33t-2.5 45.5t-1.5 56v71v73q0 166 279 170h94v-354l-15 -39h50q29 0 49.5 1t36.5 6t26.5 8t18 15t11 19t5.5 27.5t2 33.5v43v7v338q0 35 -17 55.5t-65 17.5l-498 -32q-39 -2 -65.5 -12t-40 -21t-20.5 -33.5t-8 -37t-1 -44.5q0 -447 27 -596 t147 -149h371q79 0 93 -15t14 -94h-484q-146 0 -208 91q-60 88 -73 322q-6 114 -6 437zM494 541q-2 -70 1 -95t13 -28l147 65l-4 23v211q-155 0 -155 -41z" />
<glyph unicode="A" horiz-adv-x="890" d="M51 33q0 13 324 1442h131l334 -1475h-11h-52.5t-34.5 4.5t-23.5 7.5t-13.5 17.5t-10.5 25.5t-8.5 39l-90 408h-311l-111 -502h-10q-40 0 -56 0.5t-32.5 3.5t-20.5 10t-4 19zM303 614h279l-19 52l-102 546h-39l-100 -546z" />
<glyph unicode="B" horiz-adv-x="862" d="M154 0v1479l213 20q76 0 132.5 -10.5t95 -24.5t64 -46.5t38.5 -57t19.5 -76t7.5 -84t1 -100.5q0 -70 -1 -102t-6.5 -74.5t-19 -68t-36.5 -46.5q26 -14 46 -36.5t33 -44.5t22 -58t13.5 -61t6.5 -70t2.5 -68.5t0.5 -73.5q0 -67 -1 -101t-8 -86t-21.5 -78.5t-41.5 -59.5 t-67 -48.5t-100 -26.5t-139 -11zM274 102h134q52 0 90.5 6.5t65 15t43.5 31t26.5 39t14 56t5 64.5t0.5 81v2v12q0 65 -0.5 94.5t-4.5 74t-12.5 63t-24 43.5t-40.5 34t-60 16t-83 7h-154l9 -51v-536zM274 858h72q64 0 104 2.5t69 16.5t42.5 25t21 46.5t8.5 62t1 89.5 q0 55 -1 80.5t-5 63.5t-13.5 53.5t-26.5 36.5t-44 28.5t-65 13.5t-91 6h-72l9 -51v-422z" />
<glyph unicode="C" horiz-adv-x="772" d="M133 750q0 93 0.5 138.5t3.5 125t9 119.5t18 101.5t29 92.5t43.5 70t61 57.5t81.5 31.5t104 13l205 -41q0 -60 -26 -76q-21 -13 -57 -13q-9 0 -19 1l-103 12q-41 0 -73 -11t-55 -39.5t-39 -55t-26 -79.5t-16 -90t-8.5 -110.5t-3 -116.5t-0.5 -130t0.5 -130t3 -116 t8.5 -110.5t16 -90.5t26 -80t39 -55t55 -39.5t73 -11.5q47 0 112.5 9t94.5 11v-117q-22 -3 -90.5 -18.5t-116.5 -15.5q-52 0 -95 9t-76 31t-59 44t-44.5 64.5t-32 74t-21.5 91.5t-12.5 98t-6.5 111.5t-2.5 115t-0.5 125.5z" />
<glyph unicode="D" horiz-adv-x="966" d="M154 0v1479l329 20q57 0 104 -13t81.5 -31.5t61 -57t44 -70.5t29.5 -92.5t18 -101.5t9 -119.5t3.5 -125t0.5 -138.5t-0.5 -139t-3.5 -126.5t-9 -121.5t-18 -104t-29.5 -94.5t-44 -72.5t-61 -59.5t-81.5 -33t-104 -13.5zM274 102h209q41 0 73 12t55 41t39.5 57.5t26.5 83 t16 93.5t8.5 112.5t3 118t0.5 130.5t-0.5 130t-3 116.5t-8.5 110.5t-16 90.5t-26.5 79.5t-39.5 55t-55 39t-73 11h-209l9 -51v-1177z" />
<glyph unicode="E" d="M154 0v1475h538v-109h-411l8 -51v-408l-8 -51h383v-117h-383l8 -51v-520l-8 -51h432v-117h-559z" />
<glyph unicode="F" horiz-adv-x="768" d="M154 54v40v1381h538v-109h-411l8 -51v-408l-8 -51h383v-117h-383l8 -51v-688h-17h-50t-32 4t-21.5 7.5t-9 17t-5.5 25.5z" />
<glyph unicode="G" horiz-adv-x="913" d="M154 750q0 93 0.5 138.5t3.5 125t9 119.5t18 101.5t29 92.5t43.5 70t61 57.5t81.5 31.5t104 13l246 -41q0 -32 -8.5 -51.5t-22.5 -27t-32.5 -10t-39.5 0.5l-143 12q-41 0 -73 -11t-55 -39.5t-39 -55t-26 -79.5t-16 -90t-8.5 -110.5t-3 -116.5t-0.5 -130t0.5 -130.5 t3 -118t8.5 -113t16 -93t26 -82.5t39 -57.5t55 -41.5t73 -12q32 0 92.5 10t73.5 11l-8 51v455v50t4 32t7.5 22t17 9.5t25.5 5.5h40h35v-728q-30 -4 -90 -13.5t-107 -15t-90 -5.5q-52 0 -95 9t-76 31t-59 44t-44.5 64.5t-32 74t-21.5 91.5t-12.5 98t-6.5 111.5t-2.5 115 t-0.5 125.5z" />
<glyph unicode="H" horiz-adv-x="935" d="M154 0v1475h8h50t32.5 -4t21.5 -7.5t9.5 -17.5t5.5 -26v-40v-473l-9 -51h392l-9 51v568h9h50t32 -4t21.5 -7.5t9.5 -17.5t5 -26v-40v-1380h-8h-50t-32 4t-22 7.5t-9.5 17t-5.5 25.5v40v594l9 51h-392l9 -51v-594v-40t-5.5 -25.5t-9.5 -17t-22 -7.5t-32 -4h-50h-8z" />
<glyph unicode="I" horiz-adv-x="436" d="M154 54v40v1381h10h50t32.5 -4t21.5 -7.5t9.5 -17.5t5.5 -26v-40v-1380h-11h-50t-32 4t-21.5 7.5t-9 17t-5.5 25.5z" />
<glyph unicode="J" horiz-adv-x="503" d="M31 -307q39 0 69.5 9.5t52.5 34.5t37.5 48.5t25 72.5t15 83t8 104t3 111.5t0.5 128.5v1190h10h50t32.5 -4t21.5 -7.5t9.5 -17.5t5.5 -26v-40v-1095q0 -92 -0.5 -136.5t-3.5 -120t-9 -112.5t-17 -93.5t-28 -83t-42.5 -61.5t-59.5 -50t-79 -26.5t-101 -11.5v103z" />
<glyph unicode="K" horiz-adv-x="843" d="M154 0v1475h8h50t32.5 -4t21.5 -7.5t9.5 -17.5t5.5 -26v-40v-1286v-40t-5.5 -25.5t-9.5 -17t-22 -7.5t-32 -4h-50h-8zM309 743l305 732h9q66 0 87 -4t21 -21q0 -9 -129 -329q-88 -218 -153 -378l319 -743h-8q-44 0 -62.5 1t-41.5 5t-34 14.5t-23 27.5t-26 46z" />
<glyph unicode="L" horiz-adv-x="739" d="M154 0v1475h16h50t32.5 -4t21.5 -7.5t9.5 -17.5t5.5 -26v-40v-1212l-8 -51h264h50t32 -4t22 -7.5t9.5 -17t5.5 -25.5v-40v-23h-510z" />
<glyph unicode="M" horiz-adv-x="1196" d="M145 0v1475h11h49.5t33.5 -4.5t24.5 -7t17.5 -17.5t17 -25.5t19 -40.5l261 -561h30l305 656h11h50t31.5 -4.5t21 -7.5t9 -17.5t4.5 -25.5v-40v-1380h-8q-88 0 -103 12t-16 82l9 1090h-23l-8 -37l-207 -436l-49 -95h-82l-51 93l-211 438l-6 37h-21l6 -1090v-40t-5 -25.5 t-8.5 -17.5t-21 -7t-31.5 -4h-50h-9z" />
<glyph unicode="N" horiz-adv-x="931" d="M145 0v1475h11h48.5t32.5 -4t23 -6.5t15 -16t13.5 -23.5t13.5 -37q2 -5 3 -8l332 -995l10 -55h15v1145h8h50t31.5 -4.5t21 -7.5t9 -17.5t4.5 -25.5v-40v-1380h-8q-88 0 -106.5 11.5t-44.5 82.5l-332 973l-10 55h-15v-1028v-40t-5 -25.5t-8.5 -17.5t-21 -7t-31.5 -4h-50 h-9z" />
<glyph unicode="O" horiz-adv-x="985" d="M133 750q0 164 9 278.5t32.5 208.5t64.5 149t103.5 84t151.5 29q74 0 129.5 -18.5t95.5 -60.5t65.5 -99.5t40.5 -145.5t21 -188t6 -237q0 -165 -9 -280.5t-31.5 -212t-63 -153.5t-103 -87.5t-151.5 -30.5t-152 30.5t-103.5 87.5t-64 153.5t-32.5 212.5t-9 280zM270 750 q0 -107 4 -190t13.5 -159t26 -129t41 -92.5t59.5 -58.5t80 -19q54 0 93.5 29t64 80.5t38.5 135t19.5 177.5t5.5 224q0 162 -9.5 272t-33.5 195.5t-68 126t-110 40.5q-128 0 -176 -152.5t-48 -479.5z" />
<glyph unicode="P" horiz-adv-x="940" d="M154 0v1479l274 20q63 0 113 -6.5t87.5 -15t66 -28.5t47.5 -35.5t31.5 -47.5t19.5 -53t10 -65t3.5 -69.5t0.5 -78.5q0 -66 -1.5 -100t-8.5 -84.5t-21 -76.5t-41 -57.5t-67.5 -46t-100.5 -25t-139 -10.5h-154l9 -51v-555q0 -70 -16 -82t-103 -12h-10zM274 817h154 q62 0 104 5.5t69 24t42 34.5t22 57t8 69.5t1 92.5q0 55 -1 80.5t-5 63.5t-13.5 53.5t-26.5 36.5t-44 28.5t-65 13.5t-91 6h-154l9 -51v-463z" />
<glyph unicode="Q" horiz-adv-x="958" d="M133 750q0 163 10 278.5t34 209t65 148.5t103 84t149 29t148.5 -29t102.5 -84t64.5 -148.5t33 -209t9.5 -278.5q0 -347 -50.5 -523t-185.5 -223l-225 -162q58 -5 347 -41.5t366 -36.5q21 0 33 3l26 -5v-38v-24.5t-2.5 -18t-3.5 -13.5t-9.5 -8.5t-13.5 -6t-22.5 -2 t-29.5 -1.5h-40q-62 0 -388.5 48t-397.5 48q-6 0 -14 -1t-11 -1l-26 4v35q0 19 0.5 27t3.5 16t10 12l193 156q-83 16 -137.5 69t-85.5 151t-43.5 224.5t-12.5 311.5zM262 750q0 -162 10.5 -275t35.5 -200.5t71.5 -130t114.5 -42.5t114 42.5t70.5 130t34.5 199.5t10 274 q0 128 -6 222.5t-21 175.5t-41 131t-66 77.5t-95 27.5q-69 0 -114.5 -40t-71 -124.5t-36 -195.5t-10.5 -272z" />
<glyph unicode="R" horiz-adv-x="927" d="M154 0v1479l233 20q71 0 125 -10.5t90 -24.5t60 -46.5t36.5 -57t18.5 -76t7 -84t1 -100.5q0 -64 -2 -107.5t-9 -92t-21.5 -80t-37.5 -59t-59 -42t-84 -17.5l340 -702h-8h-45.5t-33.5 1.5t-28 3t-19.5 7t-17.5 10.5t-12.5 17t-14.5 23.5t-14 31.5l-276 606h-109l9 -51 v-555h2v-40t-5.5 -25.5t-9.5 -17t-22 -7.5t-32 -4h-50h-12zM274 817h113q61 0 100 12t60.5 27.5t31.5 58.5t11.5 76t1.5 109t-1.5 109t-11.5 76t-31.5 58t-60.5 27t-100 12h-104v-51v-463z" />
<glyph unicode="S" horiz-adv-x="800" d="M76 27v114l299 -20q54 0 93 10.5t62 29t37 44t18 56.5t6 66q1 18 1 35.5t-1 36.5q-1 12 -1 18.5v17v18.5q0 43 -28 89.5t-73 90.5t-99.5 91t-109 97.5t-99.5 102t-73 113t-28 122.5v7q0 68 1.5 99t10.5 78.5t29.5 69t56.5 45.5t94 32.5t140 8.5l217 -41q-1 -60 -21 -74 q-16 -11 -49 -11q-9 0 -20 1l-115 12q-50 0 -87 -6.5t-59.5 -21.5t-36.5 -31t-20.5 -44t-8 -50t-1.5 -59q0 -49 28 -99t73.5 -94t100 -89.5t109 -93t100 -96t73.5 -107t28 -118.5v-35q0 -63 -0.5 -95.5t-7 -89.5t-19 -88t-37.5 -71.5t-62 -61t-94 -35.5t-130 -15z" />
<glyph unicode="T" horiz-adv-x="681" d="M51 1366v109h580v-109h-232l9 -51v-1221v-40t-5.5 -25.5t-9.5 -17t-22 -7.5t-32 -4h-50h-17v1315l9 51h-230z" />
<glyph unicode="U" horiz-adv-x="958" d="M156 597v11v867h14h50t32.5 -4t21.5 -7.5t9.5 -17.5t5.5 -26v-40v-772v-43q0 -102 1 -148t6 -113t16.5 -93.5t33 -57.5t54.5 -41t81 -10q50 0 84.5 10.5t57 44.5t34.5 63.5t17.5 102.5t6.5 123t1 162v867h14h50t32.5 -4t21.5 -7.5t9.5 -17.5t5.5 -26v-40v-772 q0 -89 -0.5 -133.5t-3.5 -114t-9 -102.5t-17 -82t-28 -71t-42 -50.5t-58 -40t-77 -20t-99 -8.5q-54 0 -96.5 8.5t-75.5 19.5t-57 39.5t-40.5 49.5t-27 70t-16.5 80t-8.5 100.5t-3 111.5t-0.5 132z" />
<glyph unicode="V" horiz-adv-x="851" d="M51 1475h31q75 0 92.5 -13t30.5 -82l221 -1120h27l223 1215h31q58 0 75 -4.5t17 -26.5q0 -105 -303 -1444h-131z" />
<glyph unicode="W" horiz-adv-x="1247" d="M61 1475h35q77 0 94 -12.5t29 -82.5l146 -1118h26l141 692l33 111h127l31 -113l141 -690h27l164 1213h35q60 0 77 -4.5t17 -26.5q0 -113 -242 -1444h-131l-168 838h-27l-172 -838h-131z" />
<glyph unicode="X" horiz-adv-x="784" d="M51 0l271 729l-250 746h47q66 0 82.5 -12t40.5 -83l153 -518h39l180 613h13q64 0 84 -4t20 -21q0 -62 -254 -721l250 -729h-43h-38.5t-25.5 3.5t-19.5 7t-12.5 17t-13 25.5t-14 41l-145 486h-39l-156 -486q-28 -71 -43.5 -82.5t-79.5 -11.5h-47z" />
<glyph unicode="Y" horiz-adv-x="768" d="M51 1475h31q76 0 94.5 -12t42.5 -83l166 -495h10l207 590h23q55 0 72.5 -3.5t17.5 -19.5q0 -68 -262 -741v-711h-11h-50t-32 4t-21.5 7.5t-9 17t-5.5 25.5v40v617z" />
<glyph unicode="Z" horiz-adv-x="757" d="M76 0v117l465 1249h-445v46.5t4 29.5t7 20t17 8.5t25.5 4.5h40.5h492v-109l-471 -1249h326q33 0 50.5 -0.5t32.5 -6.5t20.5 -10t10 -22t4.5 -31v-47h-579z" />
<glyph unicode="[" horiz-adv-x="411" d="M123 -49v1630h164h46.5t29.5 -4t19.5 -7t8 -17.5t4.5 -25.5v-40h-164v-1536h56h46.5t29.5 -4t19.5 -7t8 -17.5t4.5 -25.5v-40h-164h-46.5t-29.5 4t-19.5 7t-8 17.5t-4.5 25.5v40z" />
<glyph unicode="\" horiz-adv-x="761" d="M10 1499h131l602 -1909h-131z" />
<glyph unicode="]" horiz-adv-x="417" d="M16 -143q0 71 13.5 82.5t95.5 11.5h55v1536h-164q0 71 13.5 82.5t95.5 11.5h164v-1630v-40.5t-4.5 -25.5t-8.5 -17t-20 -7t-29.5 -4h-46.5h-164z" />
<glyph unicode="^" horiz-adv-x="841" d="M78 1243v113l315 143h53l318 -145v-111l-344 156z" />
<glyph unicode="_" horiz-adv-x="1255" d="M123 -2v104h1007v-104h-1007z" />
<glyph unicode="`" horiz-adv-x="352" d="M18 1436l15 14q49 49 65 49q14 0 32 -14.5t56 -52.5l140 -156l-72 -74z" />
<glyph unicode="a" horiz-adv-x="700" d="M102 502q0 54 21.5 94.5t55.5 64t85 37.5t99 18.5t108 4.5h8l-8 51v78v37q0 82 -19 103.5t-94 21.5l-102 -21q-20 -4 -31 -4q-71 0 -71 92l204 35q58 0 96.5 -4.5t64.5 -21t40 -30.5t20.5 -52t7.5 -66t1 -90v-850q-92 0 -108.5 13t-16.5 89q-21 -13 -57 -45.5 t-67.5 -51.5t-64.5 -19q-125 0 -148.5 78t-23.5 438zM223 518q0 -340 11 -390q6 -31 24 -33q4 -1 14 -1q34 0 67 16.5t71 44t61 38.5l-8 51v311l8 51h-8q-57 0 -95.5 -3t-74 -11.5t-53 -27t-17.5 -46.5z" />
<glyph unicode="b" horiz-adv-x="763" d="M113 0v1499h50t32 -4t21.5 -7.5t9 -17t5.5 -25.5v-40v-348l152 57q52 0 91 -6.5t68.5 -26t49.5 -38.5t33.5 -61.5t20.5 -75.5t11 -100t4.5 -116.5t0.5 -142.5q0 -96 -0.5 -142t-4 -115.5t-10 -100t-19.5 -74t-32 -60.5t-47.5 -37t-67 -26t-88.5 -6l-162 123v-46.5 t-5 -29.5t-8.5 -20t-21.5 -8t-32.5 -5h-50.5zM223 188l168 -94q86 0 118 65q29 61 31 249l1 139v11q0 93 -0.5 135.5t-4.5 106.5t-13.5 92t-26 60t-42.5 43t-63 11l-168 -52l8 -51v-663z" />
<glyph unicode="c" horiz-adv-x="641" d="M102 555q0 95 0.5 140.5t4 114.5t10 99.5t19.5 74t32 61t47.5 37.5t67 26t88.5 6l170 -27q1 -61 -27 -79q-18 -12 -46 -12q-14 0 -30 3l-67 7q-86 0 -117 -64q-30 -60 -32 -246q-1 -42 -1 -141q0 -248 13 -323q18 -104 79 -129q24 -9 58 -9l178 21v-95l-178 -34 q-50 0 -88.5 6.5t-67 26.5t-47.5 38t-32 62t-19.5 75t-10 101.5t-4 116.5t-0.5 143z" />
<glyph unicode="d" horiz-adv-x="774" d="M102 547q0 93 0.5 142.5t4.5 116.5t11 100t20.5 75.5t33.5 61.5t49.5 38.5t68.5 26t91 6.5l151 -57v442h39.5t28.5 -2t22 -2.5t13.5 -7.5t9.5 -11t3.5 -17t2.5 -22.5v-31.5v-1405h-50.5t-32.5 4.5t-22 8.5t-9 20t-5 29.5v46.5l-161 -123q-50 0 -88.5 6t-67 26t-47.5 37 t-32 60.5t-19.5 74t-10 100t-4 115.5t-0.5 142zM223 569q0 -257 10 -327q15 -106 70 -134q28 -14 70 -14l168 92l-9 52v663l9 51l-168 54q-27 0 -48.5 -6.5t-37 -23t-26.5 -33.5t-18 -51t-11 -60.5t-6 -76.5t-2.5 -86t-0.5 -100z" />
<glyph unicode="e" horiz-adv-x="722" d="M102 539q0 129 1.5 187t9 141t25 115.5t49 70.5t80.5 49.5t120 11.5q44 0 78 -6.5t58.5 -24.5t42 -34.5t28 -53.5t17 -62t9 -80.5t3 -89t0.5 -104.5l8 -110l-418 -10l8 -52q0 -91 0.5 -130.5t5.5 -96t15 -77.5t28.5 -46t46.5 -32t70 -7q120 0 240 27v-105 q-159 -34 -240 -34q-72 0 -120.5 10t-80 45.5t-48.5 66t-25 110.5t-9.5 136.5t-1.5 184.5zM225 649h291l-10 53q0 164 -22.5 234t-96.5 70q-39 0 -66 -9t-44 -26.5t-26.5 -43t-13 -59.5t-3.5 -76q0 -21 -1 -44t1 -48z" />
<glyph unicode="f" horiz-adv-x="473" d="M37 989v111h110l-10 61v23q0 75 1.5 110t12 79t30.5 61t59.5 35.5t96.5 23t144 4.5v-96q-60 0 -91 -1t-60.5 -10.5t-40.5 -19.5t-20 -39t-10 -59t-1 -88v-23l-10 -61h184v-111h-186l10 -61v-1221q-1 -79 -10 -94q-11 -20 -58 -22q-14 -1 -53 -1l2 1338l10 61h-110z" />
<glyph unicode="g" horiz-adv-x="815" d="M104 164q0 95 25.5 141.5t79.5 71.5q-41 30 -60 56t-32 93.5t-13 188.5q0 80 3 129t13 100t29.5 78.5t53 50.5t83.5 32t120 9h317q0 -75 -13.5 -88.5t-91.5 -13.5q34 -61 40 -116t6 -284q0 -52 -1.5 -85.5t-7 -70.5t-16.5 -59.5t-29.5 -44t-46.5 -32.5t-66.5 -18 t-90.5 -7q-49 0 -78.5 -1t-52 -7.5t-32 -11.5t-15.5 -23t-6.5 -31t-0.5 -46v-17q0 -9 0.5 -14.5t2.5 -11.5t4.5 -9.5t9 -7.5t14 -6t20 -4t26 -2.5t35 -1.5t43.5 -1h54q61 0 97.5 -2.5t70.5 -11.5t51.5 -24t30.5 -43t17.5 -65t4.5 -93q0 -53 -3.5 -87.5t-13.5 -68t-29 -53 t-50 -35t-75.5 -21.5t-106.5 -6h-92q-76 0 -89.5 13t-13.5 84l195 14q47 0 77.5 7.5t47.5 18t25.5 34t10 43t1.5 57.5q0 29 -1.5 44t-9.5 33t-24.5 27t-46 15t-74.5 6q-241 0 -283.5 22.5t-42.5 155.5zM225 715q0 -69 3.5 -115t14.5 -86.5t31 -63t52.5 -35t79.5 -12.5 q27 0 47 2.5t35.5 11t25.5 17t17.5 28t11 35.5t5.5 48.5t2.5 58.5t0.5 72v37v66t-1 55t-4 48.5t-7.5 38t-12 33t-18 22.5t-25.5 17.5t-34 8.5t-43 4q-42 0 -69 -3.5t-48.5 -16.5t-33 -31t-19 -53.5t-9.5 -77.5t-2 -109z" />
<glyph unicode="h" horiz-adv-x="808" d="M133 0v1499h39.5t28.5 -2t22 -2.5t13.5 -7.5t9.5 -11t3.5 -17t2.5 -22.5v-31.5v-367l194 76q38 0 68 -4t54 -17t42 -24t32 -39.5t23 -47t15 -63t9 -71.5t5 -89t2 -98.5v-115.5v-545h-51.5t-33 4t-22 7t-9 17t-5.5 25.5v40.5v453q0 262 -20.5 360.5t-108.5 98.5l-200 -72 l8 -51v-789v-40.5t-5.5 -25.5t-9 -17t-22 -7t-33 -4h-51.5z" />
<glyph unicode="i" horiz-adv-x="415" d="M115 1385q0 37 27 63q28 28 67 27q38 0 66 -27.5t28 -65.5t-28 -66t-66 -28t-66 28t-28 69zM150 46v40v1014h51.5t32.5 -4t22 -7t9 -17.5t5 -25.5v-40v-1014h-51.5t-32.5 4t-22 7t-9 17.5t-5 25.5z" />
<glyph unicode="j" horiz-adv-x="395" d="M-100 -319q41 0 72.5 4.5t54.5 16t39.5 23.5t27 36.5t16.5 43.5t9 56t3.5 63.5t0.5 75.5v1100h50t31.5 -3.5t21.5 -6.5t9 -16t5 -23v-36v-9v-1006q0 -61 -1 -91t-7 -82t-18.5 -79t-37 -62.5t-60.5 -52.5t-90.5 -30t-125.5 -13v91zM84 1382q0 38 28 65.5t66 27.5t66 -27.5 t28 -65.5t-28 -66t-66 -28t-66 28t-28 66z" />
<glyph unicode="k" horiz-adv-x="727" d="M133 53.5v40.5v1405h51.5t33 -4t22 -7t9 -17t5.5 -25.5v-40.5v-1405h-51.5t-33 4t-22 7t-9 17t-5.5 25.5zM279 600l245 500h125l-248 -500l285 -600h-133z" />
<glyph unicode="l" horiz-adv-x="366" d="M133 45.5v40.5v1413h50.5t33 -4t22.5 -7.5t9.5 -17t5.5 -25.5v-40v-1413h-51.5t-33 4t-22 7t-9 17t-5.5 25.5z" />
<glyph unicode="m" horiz-adv-x="1234" d="M123 53.5v40.5v1006h51.5t33 -3t22 -5t9.5 -11t5 -16.5v-26.5l184 76q71 0 129 -25t88 -61l219 86q186 0 222 -87t36 -482v-545h-52.5t-33 4t-22.5 7t-9.5 17t-5.5 25.5v40.5v453q0 279 -10 345q-11 82 -53 102q-24 12 -72 12l-190 -64l8 -51v-346v-545h-39.5t-28.5 2 t-22 2.5t-13.5 7.5t-9.5 11t-3.5 17t-2.5 22.5v31.5l-2 453v94q0 75 -0.5 110t-4 87.5t-12 75t-23 48.5t-37.5 35t-56 9l-192 -72l8 -51v-883h-51.5t-33 4t-22 7t-9 17t-5.5 25.5z" />
<glyph unicode="n" horiz-adv-x="798" d="M123 53.5v40.5v1006h51.5t33 -3t22 -5t9.5 -11t5 -16.5v-26.5l184 76q185 0 221.5 -93.5t36.5 -475.5v-545h-51.5t-33 4t-22 7t-9 17t-5.5 25.5v40.5v453q0 313 -18 386t-111 73l-200 -72l8 -51v-883h-51.5t-33 4t-22 7t-9 17t-5.5 25.5z" />
<glyph unicode="o" horiz-adv-x="765" d="M102 555q0 79 0.5 116t2 98t5 87.5t10.5 70.5t17 61.5t25.5 45t36 37.5t47.5 23t61 16.5t76 3.5q53 0 92.5 -6t69 -26t49.5 -36.5t33 -60.5t20 -73t10.5 -99.5t4 -115t0.5 -142.5q0 -263 -13 -348q-19 -134 -92 -182q-59 -39 -174 -39q-70 0 -118 11t-79.5 48.5 t-48.5 69.5t-24.5 114t-9 139.5t-1.5 186.5zM223 578q0 -254 9 -323q15 -114 72 -145q31 -16 79 -16q38 0 65 9t44.5 35t27.5 52t14.5 82t5.5 102t1 134q0 261 -7 325q-12 118 -64 152q-32 21 -87 21q-40 0 -67 -8.5t-45 -35.5t-27.5 -52.5t-14 -85t-5.5 -105.5t-1 -141z " />
<glyph unicode="p" horiz-adv-x="778" d="M113 -315v1415q88 0 103 -5t15 -36l164 55q49 0 87 -8t66.5 -26.5t49.5 -41.5t35 -62.5t22.5 -78t13 -99t6 -116t1.5 -137.5q0 -84 -1.5 -141t-6.5 -117t-13.5 -98t-23.5 -75.5t-36 -58.5t-51 -38t-68.5 -24t-88.5 -7l-156 94v-490h-51t-32 4.5t-21 7.5t-9 17.5t-5 25.5 v40zM223 186l160 -92q46 0 76.5 16.5t49.5 47t29 89.5t13.5 126t3.5 174q0 80 -2 137t-8.5 112.5t-18.5 91t-30.5 64t-46 41.5t-64.5 13l-160 -52l8 -51v-356v-309z" />
<glyph unicode="q" d="M102 545q0 82 1.5 137.5t6 116t13 99t22.5 78t35 62.5t49.5 41.5t66.5 26.5t87 8l164 -55v41h39.5t28.5 -2t22 -2.5t13.5 -7.5t9.5 -11t3.5 -17t2.5 -22.5v-31.5v-1416h-51t-32 4.5t-21.5 7.5t-9.5 17t-5 25.5v40.5v395l-156 -94q-50 0 -88.5 7t-68.5 24t-51 38t-36 58.5 t-23.5 75.5t-13.5 98t-6.5 117t-1.5 141zM223 547q0 -107 3.5 -174t13.5 -126t29 -89.5t49.5 -47t76.5 -16.5l162 92l-12 52v309v352l10 51l-162 56q-37 0 -64.5 -13t-46 -41.5t-30.5 -64t-18.5 -91t-8.5 -112.5t-2 -137z" />
<glyph unicode="r" horiz-adv-x="550" d="M123 53.5v40.5v1006h51.5t33 -3t22 -5t9.5 -11t5 -16.5v-26.5v-22l164 98q34 0 102 -14q0 -70 -12.5 -82t-89.5 -12l-175 -97l11 -51v-858h-51.5t-33 4t-22 7t-9 17t-5.5 25.5z" />
<glyph unicode="s" horiz-adv-x="684" d="M94 838q0 44 0.5 65.5t5 56.5t13.5 52.5t27 40t44 33t65 18.5t91 8l195 -29q1 -61 -27 -79q-18 -12 -46 -12q-14 0 -30 3l-84 13q-40 0 -67.5 -8.5t-42 -20t-22 -35.5t-8.5 -41.5t-1 -50.5q0 -45 43 -95t117 -110q43 -33 67.5 -52.5t58 -50.5t51 -55.5t31 -55.5t13.5 -62 q0 -43 -1 -74t-6.5 -74t-14.5 -72.5t-26.5 -61.5t-42 -51.5t-61.5 -32.5t-84 -13q-36 0 -77.5 5t-93 14t-77.5 12v108q8 -1 104 -10.5t142 -9.5q115 0 115 212v29q-1 40 -38 81t-108 95q-50 38 -83.5 67.5t-69.5 69.5t-54 83.5t-18 89.5z" />
<glyph unicode="t" horiz-adv-x="468" d="M37 989v111h88l-8 71v91h51.5t33 -4.5t22 -7.5t9.5 -17t5 -25.5v-40.5l-9 -67h189q0 -29 -0.5 -42t-3.5 -29t-8.5 -21t-17.5 -11t-27.5 -7t-41.5 -1h-90l9 -51v-471v-28q0 -219 11 -273q13 -63 55 -71l15 -1h140v-94l-142 -10q-141 0 -170.5 85.5t-29.5 386.5v5v471l8 51 h-88z" />
<glyph unicode="u" d="M113 555v545h51.5t32.5 -4t22 -7t9 -17.5t5 -25.5v-40v-447q0 -251 14 -330q20 -115 86 -132q13 -3 29 -3l203 94l-10 52v860h51.5t33 -4t22 -7t9 -17t5.5 -25.5v-40.5v-1006h-51.5t-33 3.5t-22 6t-9 15t-5.5 22.5v35l-184 -96q-39 0 -70 4t-56 17t-43.5 24t-32.5 39.5 t-23.5 47t-16 63t-9.5 71.5t-4.5 89t-2 98.5t-0.5 115.5z" />
<glyph unicode="v" horiz-adv-x="669" d="M41 1100q87 0 105 -12t30 -82l150 -842h26l168 936q72 0 89.5 -6t17.5 -35q0 -101 -199 -1059h-178z" />
<glyph unicode="w" horiz-adv-x="1091" d="M41 1100h50.5t33 -4t23 -7t12.5 -17t10.5 -25.5t7.5 -40.5l137 -842h17l139 762l25 63h114l21 -63l137 -762h16l160 936q71 0 88 -6t17 -37q0 -102 -189 -1057h-178l-125 813h-14l-125 -813h-178z" />
<glyph unicode="x" horiz-adv-x="651" d="M43 23q-1 6 2.5 15.5t10.5 26t12 29.5l178 504l-183 502h49t33 -3.5t24.5 -7t16 -16.5t15.5 -24.5t16 -38.5l100 -299h25l117 389q60 0 80 -4t20 -21q0 -71 -164 -500l215 -575h-116l-162 463h-25l-160 -463q-63 0 -83.5 3.5t-20.5 19.5z" />
<glyph unicode="y" horiz-adv-x="649" d="M41 1100h50.5t33 -4t23 -7t12.5 -17t10.5 -25.5t7.5 -40.5l144 -863h26l150 957q73 0 90.5 -6t17.5 -35q0 -106 -198 -1059l-12 -63q-14 -73 -22.5 -109t-33 -90.5t-57 -80.5t-91 -46.5t-139.5 -20.5v97q96 0 150.5 66.5t54.5 166.5q0 33 -25 169t-192 1011z" />
<glyph unicode="z" horiz-adv-x="681" d="M82 0v109l375 880h-334v47.5t4 30t7 20t17 8.5t25.5 5h40.5h379v-111l-393 -880h278h50.5t32.5 -4.5t22 -8.5t9 -20t5 -29.5v-46.5h-518z" />
<glyph unicode="{" horiz-adv-x="491" d="M33 702v54l145 317v508h164q82 0 95.5 -11.5t13.5 -82.5h-164v-414l-154 -344l154 -342v-436h55q82 0 95.5 -11.5t13.5 -82.5h-164h-46.5t-29.5 4t-20 7t-8.5 17t-4.5 25.5v40.5v436z" />
<glyph unicode="|" horiz-adv-x="389" d="M131 -315v1814h50.5t33 -4t22.5 -7.5t9.5 -17t5.5 -25.5v-40v-1815h-51.5t-33 4.5t-22 7.5t-9.5 17t-5 25.5v40.5z" />
<glyph unicode="}" horiz-adv-x="489" d="M41 -143q0 71 13.5 82.5t95.5 11.5h55v436l153 342l-153 344v414h-164q0 71 13.5 82.5t95.5 11.5h163v-508l146 -317v-54l-146 -315v-436v-40t-4.5 -25.5t-8 -17.5t-19.5 -7t-29.5 -4h-46.5h-164z" />
<glyph unicode="~" horiz-adv-x="772" d="M98 631v43q0 46 15 53.5t106 7.5q46 0 206.5 -13t209.5 -3l27 -4v-43v-26.5t-5 -16.5t-9.5 -11t-22 -5t-33 -3h-51.5q-49 0 -208 13t-208 4z" />
<glyph unicode="&#xa1;" horiz-adv-x="331" d="M66 -365l40 1006q0 7 1 20q1 51 11 61q12 13 76 13h27l-20 -1005q-1 -69 -21.5 -82t-113.5 -13zM72 1018q0 38 28 65t66 27t66 -27t28 -65t-28 -66t-66 -28t-66 28t-28 66z" />
<glyph unicode="&#xa2;" horiz-adv-x="759" d="M125 535q0 265 10 344q17 139 85 190q48 36 134 43v186q77 0 90 -12t13 -82v-94l180 -10q0 -70 -12.5 -82t-89.5 -12h-121q-98 0 -133 -64q-33 -59 -36 -235l-1 -152q0 -102 1 -148t5.5 -112.5t15 -93t29 -57.5t48 -40.5t71.5 -9.5q43 0 124 10t99 11v-95 q-29 -5 -89.5 -15t-90.5 -15v-232q-76 0 -89.5 12t-13.5 83v135q-57 6 -96 21t-64.5 52t-39.5 70t-20.5 107.5t-7.5 128.5t-1 168z" />
<glyph unicode="&#xa3;" horiz-adv-x="780" d="M-16 453v43v1q0 45 15 52.5t105 7.5q15 0 93 -4l-13 29v569h50t32 -4t22 -7.5t9.5 -17t5.5 -25.5v-40v-490l-12 -26q79 -6 143 -6q45 0 72 6l26 -4v-43v-26t-5 -16.5t-9 -11.5t-21.5 -5t-33 -3h-51.5q-25 0 -119 4l10 -24v-246l-8 -51h264h50t32.5 -4t21.5 -7.5 t9.5 -17.5t5.5 -26v-40v-22h-494v422l15 26q-89 7 -125 7q-32 0 -64 -4z" />
<glyph unicode="&#xa4;" horiz-adv-x="995" d="M158 1075l28 28t21 15t17 6.5t18.5 -8.5t23 -16.5t31.5 -30.5l70 -72q68 43 147 43q83 0 154 -49l153 133l28 -28t15 -21t6.5 -17t-8.5 -18.5t-16.5 -23t-30.5 -31.5l-72 -70q43 -65 43 -141q0 -79 -47 -149l133 -154l-28 -28t-21 -15t-17 -6.5t-18.5 8.5t-23 16.5 t-31.5 30.5l-69 72l2 2q-70 -45 -152 -45q-77 0 -141 39l-154 -133l-28 28t-15 21t-6.5 17t8.5 18.5t16.5 23t30.5 31.5l72 70q-55 75 -55 153q0 86 49 148zM352 774q0 -67 47 -113.5t115 -46.5q65 0 113.5 46.5t48.5 113.5q0 64 -48.5 111t-113.5 47q-67 0 -114.5 -46.5 t-47.5 -111.5z" />
<glyph unicode="&#xa5;" horiz-adv-x="823" d="M70 1100h30q67 0 85.5 -12t52.5 -82l159 -324h25l190 418h31q56 0 73 -3.5t17 -19.5q0 -10 -36.5 -83.5t-229.5 -454.5l-12 -70q82 -6 131 -6q44 0 71 6l27 -4v-43v-26.5t-5 -16.5t-9.5 -11t-22 -5t-33 -3h-51.5q-1 0 -104 5l8 -21v-53l-8 -19q77 -6 127 -6q44 0 71 6 l27 -4v-43q0 -46 -15 -53.5t-106 -7.5q-22 0 -104 4l8 -23v-145h-10h-47.5t-30 4t-20 7t-8.5 17t-5 25.5v40.5v64l10 20q-86 6 -137 6q-31 0 -63 -4l-27 4v43v26.5t5 16.5t9.5 11t22 5t33 3h51.5q18 0 104 -4l-8 20v45l10 25q-85 6 -137 6q-31 0 -63 -4l-27 4v43 q0 46 15 53.5t106 7.5q14 0 108 -4l-12 58z" />
<glyph unicode="&#xa6;" horiz-adv-x="360" d="M123 -307v745q92 0 110.5 -12.5t18.5 -81.5v-745h-43t-31.5 2t-23.5 2.5t-14.5 7.5t-10.5 11t-3.5 17t-2.5 22.5v31.5zM123 713.5v40.5v745q92 0 110.5 -12.5t18.5 -81.5v-746h-55t-35 4.5t-23.5 7.5t-10 17t-5.5 25.5z" />
<glyph unicode="&#xa7;" horiz-adv-x="667" d="M68 846q0 49 1 72t6.5 57.5t20.5 56.5t39 39q-63 79 -63 158q0 74 5 110t29.5 79.5t83.5 61t158 17.5l195 -29q0 -111 -105 -92l-84 13q-34 0 -60 -4t-43 -9.5t-28.5 -18t-17.5 -21.5t-8.5 -28.5t-3 -31t-0.5 -37.5q0 -35 30.5 -76.5t75.5 -78.5t98.5 -82t98.5 -86.5 t75.5 -92.5t30.5 -100q0 -63 -1.5 -97.5t-12.5 -83t-33 -81.5q43 -62 43 -121q0 -68 -2 -103.5t-16 -91.5t-41 -84.5t-81.5 -51.5t-133.5 -23q-38 0 -80.5 9.5t-94 24.5t-79.5 21v94q28 -5 80 -16.5t94.5 -18t81.5 -6.5q27 0 48.5 4.5t36.5 15t26 21t17.5 30.5t10.5 33.5 t5.5 40.5t2 42.5t0.5 46.5t-30 69.5t-75 75t-97.5 82t-97.5 88.5t-75 97t-30 106zM188 856q0 -33 28.5 -72.5t61 -68.5t94 -79t91.5 -77q14 41 14 152q0 27 -26 62t-55.5 61t-87 73t-85.5 72q-23 -17 -29 -44.5t-6 -78.5z" />
<glyph unicode="&#xa8;" horiz-adv-x="698" d="M109 1382q0 38 28 65.5t66 27.5t66 -27.5t28 -65.5t-28 -66t-66 -28t-66 28t-28 66zM401 1382q0 38 28.5 65.5t66.5 27.5t66 -27.5t28 -65.5t-28 -66t-66 -28t-66.5 28t-28.5 66z" />
<glyph unicode="&#xa9;" horiz-adv-x="1337" d="M84 604q0 165 75 303.5t209.5 219.5t299.5 81q164 0 298 -81t209.5 -219.5t75.5 -303.5q0 -166 -75.5 -304.5t-209.5 -219t-298 -80.5q-124 0 -233 47.5t-185.5 128.5t-121 192.5t-44.5 235.5zM188 604q0 -137 62 -251.5t172.5 -181.5t245.5 -67t245.5 67t172 181.5 t61.5 251.5t-61.5 251.5t-172 181.5t-245.5 67t-245.5 -67t-172.5 -181.5t-62 -251.5zM471 551.5v62.5q0 69 1 100.5t6 80t16 70t31 46t52.5 33t77.5 8.5l154 -10q0 -56 -8.5 -65t-57.5 -9h-88q-17 0 -31 -3.5t-23.5 -13.5t-16.5 -19t-11.5 -30t-6.5 -35t-3.5 -45 t-1.5 -49.5v-58.5v-58.5t1.5 -49.5t3.5 -45t6.5 -35t11.5 -30t16.5 -19t23.5 -13.5t31 -3.5l176 21v-86l-176 -27q-27 0 -49.5 3.5t-40 12.5t-31 17.5t-23.5 27t-17 31.5t-11.5 40t-6.5 44t-3.5 52t-1.5 55.5z" />
<glyph unicode="&#xaa;" horiz-adv-x="555" d="M96 1069q0 47 20.5 79t58.5 47.5t78.5 21.5t92.5 6v94v12q0 25 -1.5 36.5t-9 26t-27 20t-52.5 5.5h-72q-54 0 -62.5 8t-8.5 58l143 18q37 0 64.5 -5t46 -11t31 -21t19 -26t9.5 -35t3.5 -39t0.5 -47v-510q-63 0 -73.5 9t-10.5 63l-117 -82q-38 0 -54 0.5t-35.5 10.5 t-24.5 23t-11.5 48.5t-7 75t-0.5 114.5zM186 1071q0 -138 6 -162t36 -24h5l105 61v180q-38 0 -61 -1.5t-46.5 -6.5t-34 -17t-10.5 -30z" />
<glyph unicode="&#xab;" horiz-adv-x="661" d="M72 592v53l145 318h111l-156 -345l156 -342h-113zM303 592v53l146 318h110l-156 -345l156 -342h-113z" />
<glyph unicode="&#xac;" horiz-adv-x="729" d="M59 618v109h545v-164v-46.5t-4 -29.5t-7 -19.5t-17.5 -8t-25.5 -4.5h-40v163h-451z" />
<glyph unicode="&#xad;" horiz-adv-x="688" d="M123 614v105h438v-105h-438z" />
<glyph unicode="&#xae;" horiz-adv-x="1337" d="M84 604q0 165 75 303.5t209.5 219.5t299.5 81q164 0 298 -81t209.5 -219.5t75.5 -303.5q0 -166 -75.5 -304.5t-209.5 -219t-298 -80.5q-124 0 -233 47.5t-185.5 128.5t-121 192.5t-44.5 235.5zM188 604q0 -137 62 -251.5t172.5 -181.5t245.5 -67t245.5 67t172 181.5 t61.5 251.5t-61.5 251.5t-172 181.5t-245.5 67t-245.5 -67t-172.5 -181.5t-62 -251.5zM508 311v631l147 10q50 0 84.5 -4t57 -17t34.5 -24.5t17.5 -38.5t6.5 -45t1 -59q0 -91 -9 -117q-16 -46 -84 -62q-19 -4 -44 -7l141 -267q-62 0 -82 10t-41 44l-110 210h-29l2 -26v-178 q0 -45 -11.5 -52.5t-80.5 -7.5zM598 659h57q41 0 61.5 3t31.5 17.5t12.5 30t1.5 54.5q0 27 -0.5 39t-4 27t-9 19.5t-18.5 9.5t-30 6t-45 1h-57q0 -1 1 -5t1 -5v-170z" />
<glyph unicode="&#xaf;" horiz-adv-x="688" d="M123 1370v105h438v-105h-438z" />
<glyph unicode="&#xb0;" horiz-adv-x="712" d="M84 1231q0 110 80.5 188t191.5 78t192 -78t81 -188t-81 -189t-192 -79t-191.5 79t-80.5 189zM195 1231q0 -67 46.5 -113.5t114.5 -46.5q65 0 113.5 46.5t48.5 113.5q0 64 -48.5 111t-113.5 47q-67 0 -114 -46.5t-47 -111.5z" />
<glyph unicode="&#xb1;" horiz-adv-x="571" d="M66 442v105h438v-105h-438zM66 836v104h174l-9 51v135h105v-135l-8 -51h176v-104h-176l8 -52v-137h-105v137l9 52h-174z" />
<glyph unicode="&#xb2;" horiz-adv-x="552" d="M129 1495l133 10q47 -1 79 -10t49.5 -21.5t26.5 -36.5t11 -45t2 -57q0 -38 -20 -72t-48.5 -59t-58 -48t-51 -48t-23.5 -49v-103h205v-90h-303v199q0 37 20.5 69t50 55t58.5 45.5t49.5 49.5t20.5 57q0 18 -1.5 28.5t-8 22.5t-22 17.5t-40.5 5.5h-63q-50 0 -58 9.5t-8 70.5 z" />
<glyph unicode="&#xb3;" horiz-adv-x="524" d="M133 870v84q108 -10 131 -10q36 0 43.5 26t7.5 126q0 98 -7 121.5t-44 23.5h-71l86 168h-146v90h281l-109 -192q28 -8 46 -14.5t30.5 -20t19 -23.5t9.5 -38t3.5 -48t0.5 -67q0 -51 -1.5 -83t-7 -62t-15 -46t-26.5 -29t-40.5 -17.5t-57.5 -4.5q-20 0 -41.5 2.5t-50 7 t-41.5 6.5z" />
<glyph unicode="&#xb4;" horiz-adv-x="354" d="M27 1276l139 156q38 38 55.5 52.5t30.5 14.5q4 0 7.5 -1t8 -3.5t8 -4.5t9.5 -7.5t9.5 -9l11.5 -11.5t13 -12l15 -14l-236 -234z" />
<glyph unicode="&#xb5;" horiz-adv-x="778" d="M123 -395v1499h51.5t33 -4t22 -7t9 -17t5.5 -25.5v-40.5v-791l-13 -45l205 -76q42 0 71.5 11.5t48 44t29 61t15 94.5t5.5 109.5t1 138.5v453v40.5t5.5 25.5t9 17t22 7t33 4h51.5v-545q0 -98 -0.5 -142.5t-4 -116t-11 -101.5t-21 -75t-34.5 -62.5t-52 -38t-72 -27 t-96 -6.5l-207 80l13 -62v-309v-31.5t-2.5 -22.5t-3.5 -17t-9.5 -11t-13.5 -7.5t-22 -2.5t-28.5 -2h-39.5z" />
<glyph unicode="&#xb6;" horiz-adv-x="1044" d="M61 1231q0 108 80 186t189 80h653v-129h-223l10 -39v-1329h-129v1329l10 39h-202l10 -39v-1329h-129v963q-110 2 -189.5 80.5t-79.5 187.5z" />
<glyph unicode="&#xb7;" horiz-adv-x="360" d="M88 616q0 38 28 65.5t66 27.5t66 -27.5t28 -65.5t-28 -66t-66 -28t-66 28t-28 66z" />
<glyph unicode="&#xb8;" horiz-adv-x="362" d="M57 -221h179v223h94v-223q0 -62 -15 -78t-77 -16h-72q-82 0 -95.5 11.5t-13.5 82.5z" />
<glyph unicode="&#xb9;" horiz-adv-x="376" d="M80 1384v95l67 22h58q49 0 57 -11t8 -77v-547h-100v541z" />
<glyph unicode="&#xba;" horiz-adv-x="577" d="M92 1163q0 95 5 152t15 96.5t33.5 57t52 24t78.5 6.5q42 0 67.5 -3.5t48.5 -16.5t34.5 -34t20.5 -60.5t11.5 -91t2.5 -130.5q0 -95 -5 -154.5t-15.5 -103t-33 -65t-53 -30.5t-78.5 -9q-60 0 -94 13t-55.5 55t-28 108.5t-6.5 185.5zM186 1159q0 -118 8 -170t25 -68t57 -16 t57.5 15.5t25.5 68t8 170.5q0 59 -1.5 98.5t-6.5 66.5t-10 40.5t-18 21t-23 8.5t-32 1q-26 0 -37.5 -2.5t-24.5 -13.5t-17.5 -37.5t-7.5 -69t-3 -113.5z" />
<glyph unicode="&#xbb;" horiz-adv-x="661" d="M102 276l156 342l-156 345h111l145 -318v-53l-143 -316h-113zM334 276l155 342l-155 345h110l146 -318v-53l-144 -316h-112z" />
<glyph unicode="&#xbc;" horiz-adv-x="567" d="M35 154l229 473h98v-365l-10 -31h58v-77h-58l10 -37v-117h-81v117l10 37h-256zM80 700v97h416v-97h-416zM158 231h133l-10 31v207zM158 1384v95l69 22h58q49 0 57 -11t8 -77v-547h-100v541z" />
<glyph unicode="&#xbd;" horiz-adv-x="618" d="M121 700v97h416v-97h-416zM172 629l133 10q47 -1 79 -10t49.5 -21.5t26.5 -36.5t11 -45t2 -57q0 -38 -20 -72t-48.5 -59t-58 -48t-51 -48t-23.5 -49v-103h205v-90h-303v199q0 35 20.5 67.5t50 58t58.5 49t49.5 50t20.5 51.5q0 18 -1.5 28.5t-8 22.5t-22 17.5t-40.5 5.5 h-63q-50 0 -58 9.5t-8 70.5zM195 1384v95l67 22h57q49 0 57.5 -11t8.5 -77v-547h-100v541z" />
<glyph unicode="&#xbe;" horiz-adv-x="577" d="M43 154l229 473h99v-365l-11 -31h58v-77h-58l11 -37v-117h-82v117l10 37h-256zM80 700v97h416v-97h-416zM133 870v84q108 -10 131 -10q36 0 43.5 26t7.5 126q0 98 -7 121.5t-44 23.5h-71l86 168h-146v90h281l-109 -192q28 -8 46 -15t31 -20.5t18.5 -23.5t9 -37.5t4 -47.5 t0.5 -67q0 -51 -1.5 -83t-7 -62t-15 -46t-26.5 -29t-40.5 -17.5t-57.5 -4.5q-20 0 -41.5 2.5t-50 7t-41.5 6.5zM166 231h133l-10 31v207z" />
<glyph unicode="&#xbf;" horiz-adv-x="694" d="M78 -57q0 85 35.5 169.5t86 152t101 130t86 127t35.5 119.5v64h119v-64q0 -67 -25 -134.5t-62 -120.5t-81 -112t-81 -109.5t-62 -110.5t-25 -117q0 -36 2 -59t9.5 -49.5t22.5 -42.5t40 -30.5t63.5 -21t91.5 -6.5h82h43t28 -4.5t18.5 -8t8.5 -18t4 -26v-40.5l-196 -20 q-84 0 -144 9t-97.5 32.5t-59 45.5t-30.5 68.5t-11 78.5t-2 98zM383 1016q0 38 28 66t66 28t66 -28t28 -66t-28 -65t-66 -27t-66 27t-28 65z" />
<glyph unicode="&#xc0;" horiz-adv-x="890" d="M51 33q0 13 324 1442h131l334 -1475h-11h-52.5t-34.5 4.5t-23.5 7.5t-13.5 17.5t-10.5 25.5t-8.5 39l-90 408h-311l-111 -502h-10q-40 0 -56 0.5t-32.5 3.5t-20.5 10t-4 19zM145 1835l15 14q49 49 65 49q14 0 32 -14.5t56 -52.5l140 -156l-72 -74zM303 614h279l-19 52 l-102 546h-39l-100 -546z" />
<glyph unicode="&#xc1;" horiz-adv-x="890" d="M51 33q0 13 324 1442h131l334 -1475h-11h-52.5t-34.5 4.5t-23.5 7.5t-13.5 17.5t-10.5 25.5t-8.5 39l-90 408h-311l-111 -502h-10q-40 0 -56 0.5t-32.5 3.5t-20.5 10t-4 19zM303 614h279l-19 52l-102 546h-39l-100 -546zM399 1675l140 156q38 38 55.5 52.5t30.5 14.5 q4 0 7.5 -1t8 -3.5t8 -4.5t9.5 -7.5t9.5 -9l11.5 -11.5t13 -12l15 -14l-236 -233z" />
<glyph unicode="&#xc2;" horiz-adv-x="890" d="M51 33q0 13 324 1442h131l334 -1475h-11h-52.5t-34.5 4.5t-23.5 7.5t-13.5 17.5t-10.5 25.5t-8.5 39l-90 408h-311l-111 -502h-10q-40 0 -56 0.5t-32.5 3.5t-20.5 10t-4 19zM205 1663v112l213 123h53l215 -125v-110l-242 135zM303 614h279l-19 52l-102 546h-39l-100 -546 z" />
<glyph unicode="&#xc3;" horiz-adv-x="890" d="M51 33q0 13 324 1442h131l334 -1475h-11h-52.5t-34.5 4.5t-23.5 7.5t-13.5 17.5t-10.5 25.5t-8.5 39l-90 408h-311l-111 -502h-10q-40 0 -56 0.5t-32.5 3.5t-20.5 10t-4 19zM231 1630v43v26.5t5 16.5t9.5 11t22 5t33 3h51.5q48 0 121.5 -4t124 -4t88.5 8l27 -4v-43v-26.5 t-5 -16.5t-9.5 -11t-22 -5t-33 -3h-51.5q-48 0 -121.5 3.5t-124 3.5t-88.5 -7zM303 614h279l-19 52l-102 546h-39l-100 -546z" />
<glyph unicode="&#xc4;" horiz-adv-x="890" d="M51 33q0 13 324 1442h131l334 -1475h-11h-52.5t-34.5 4.5t-23.5 7.5t-13.5 17.5t-10.5 25.5t-8.5 39l-90 408h-311l-111 -502h-10q-40 0 -56 0.5t-32.5 3.5t-20.5 10t-4 19zM199 1780q0 38 28 65t66 27t66 -27t28 -65t-28 -66t-66 -28t-66 28t-28 66zM303 614h279l-19 52 l-102 546h-39l-100 -546zM492 1780q0 38 28 65t66 27t66 -27t28 -65t-28 -66t-66 -28t-66 28t-28 66z" />
<glyph unicode="&#xc5;" horiz-adv-x="890" d="M51 33q0 13 324 1442h131l334 -1475h-11h-52.5t-34.5 4.5t-23.5 7.5t-13.5 17.5t-10.5 25.5t-8.5 39l-90 408h-311l-111 -502h-10q-40 0 -56 0.5t-32.5 3.5t-20.5 10t-4 19zM268 1706q0 69 50.5 117.5t119.5 48.5t119.5 -48.5t50.5 -117.5t-50.5 -118.5t-119.5 -49.5 t-119.5 49.5t-50.5 118.5zM303 614h279l-19 52l-102 546h-39l-100 -546zM354 1706q0 -35 24.5 -59.5t59.5 -24.5q34 0 59 24.5t25 59.5q0 34 -25 58t-59 24q-35 0 -59.5 -24t-24.5 -58z" />
<glyph unicode="&#xc6;" horiz-adv-x="1288" d="M100 33q0 12 11 61l292 1381h785v-109h-432l8 -51v-408l-8 -51h403v-117h-403l8 -51v-520l-8 -51h452v-117h-579v451l8 51h-303l-111 -502h-10q-40 0 -56 0.5t-32.5 3.5t-20.5 10t-4 19zM352 614h285l-8 52v700h-137l-121 -700z" />
<glyph unicode="&#xc7;" horiz-adv-x="772" d="M133 750q0 93 0.5 138.5t3.5 125t9 119.5t18 101.5t29 92.5t43.5 70t61 57.5t81.5 31.5t104 13l205 -41q0 -60 -26 -76t-76 -12l-103 12q-41 0 -73 -11t-55 -39.5t-39 -55t-26 -79.5t-16 -90t-8.5 -110.5t-3 -116.5t-0.5 -130t0.5 -130t3 -116t8.5 -110.5t16 -90.5 t26 -80t39 -55t55 -39.5t73 -11.5q47 0 112.5 9t94.5 11v-117q-32 -5 -82.5 -17t-77.5 -15v-209q0 -62 -15 -78t-77 -16h-71q-82 0 -95.5 11.5t-13.5 82.5h178v209q-50 5 -90.5 22t-70 38t-52.5 62t-38 73.5t-25.5 93.5t-15.5 101.5t-7.5 117.5t-3 121t-0.5 133z" />
<glyph unicode="&#xc8;" d="M154 0v1475h538v-109h-411l8 -51v-408l-8 -51h383v-117h-383l8 -51v-520l-8 -51h432v-117h-559zM262 1835l14 14q49 49 66 49q14 0 32 -14.5t56 -52.5l139 -156l-71 -73z" />
<glyph unicode="&#xc9;" d="M154 0v1475h538v-109h-411l8 -51v-408l-8 -51h383v-117h-383l8 -51v-520l-8 -51h432v-117h-559zM381 1675l139 156q38 38 55.5 52.5t30.5 14.5q3 0 5.5 -0.5t5 -1.5t6 -3t5.5 -3.5l6 -4.5t6.5 -5t7.5 -6.5t8 -7t9 -8.5l9 -9l14 -14l-235 -233z" />
<glyph unicode="&#xca;" d="M154 0v1475h538v-109h-411l8 -51v-408l-8 -51h383v-117h-383l8 -51v-520l-8 -51h432v-117h-559zM178 1663v113l213 122h53l215 -124v-111l-241 135z" />
<glyph unicode="&#xcb;" d="M154 0v1475h538v-109h-411l8 -51v-408l-8 -51h383v-117h-383l8 -51v-520l-8 -51h432v-117h-559zM201 1782q0 38 28 65t66 27t66 -27t28 -65t-28 -66t-66 -28t-66 28t-28 66zM494 1782q0 38 28 65t66 27t66 -27t28 -65t-28 -66t-66 -28t-66 28t-28 66z" />
<glyph unicode="&#xcc;" horiz-adv-x="436" d="M32 1835l15 14q49 49 65 49q14 0 32 -14.5t56 -52.5l140 -156l-72 -74zM154 54v40v1381h10h50t32.5 -4t21.5 -7.5t9.5 -17.5t5.5 -26v-40v-1380h-11h-50t-32 4t-21.5 7.5t-9 17t-5.5 25.5z" />
<glyph unicode="&#xcd;" horiz-adv-x="436" d="M154 54v40v1381h10h50t32.5 -4t21.5 -7.5t9.5 -17.5t5.5 -26v-40v-1380h-11h-50t-32 4t-21.5 7.5t-9 17t-5.5 25.5zM178 1675l139 156q38 38 55.5 52.5t30.5 14.5q3 0 5.5 -0.5t5 -1.5t6 -3t5.5 -3.5l6 -4.5t6.5 -5t7.5 -6.5t8 -7t9 -8.5l9 -9l14 -14l-235 -233z" />
<glyph unicode="&#xce;" horiz-adv-x="436" d="M-18 1663v113l213 122h53l215 -124v-111l-242 135zM154 54v40v1381h10h50t32.5 -4t21.5 -7.5t9.5 -17.5t5.5 -26v-40v-1380h-11h-50t-32 4t-21.5 7.5t-9 17t-5.5 25.5z" />
<glyph unicode="&#xcf;" horiz-adv-x="436" d="M-20 1782q0 38 28 65t66 27t66 -27t28 -65t-28 -66t-66 -28t-66 28t-28 66zM154 54v40v1381h10h50t32.5 -4t21.5 -7.5t9.5 -17.5t5.5 -26v-40v-1380h-11h-50t-32 4t-21.5 7.5t-9 17t-5.5 25.5zM272 1782q0 38 28 65t67 27q38 0 66 -27t28 -65t-28 -66t-66 -28t-66.5 28 t-28.5 66z" />
<glyph unicode="&#xd0;" horiz-adv-x="948" d="M123 0v1479l371 20q57 0 104 -13t81.5 -31.5t61 -57.5t43.5 -70t29 -92.5t18 -101.5t9 -119.5t3.5 -125t0.5 -138.5q0 -84 -0.5 -125.5t-2.5 -115t-6.5 -111.5t-12.5 -98t-21.5 -91.5t-32 -74t-44.5 -64.5t-59 -44t-76 -31t-95 -9zM233 1382l19 -79v-373l-10 -70h262 v-104h-262l10 -78v-518l-10 -58h252q41 0 73 12t55 41.5t39 57.5t26 82.5t16 93t8.5 113t3 118t0.5 130.5t-0.5 130t-3 116.5t-8.5 110.5t-16 90t-26 79.5t-39 55t-55 39.5t-73 11h-261z" />
<glyph unicode="&#xd1;" horiz-adv-x="931" d="M145 0v1475h11h48.5t32.5 -4t23 -6.5t15 -16t13.5 -23.5t13.5 -37q2 -5 3 -8l332 -995l10 -55h15v1145h8h50t31.5 -4.5t21 -7.5t9 -17.5t4.5 -25.5v-40v-1380h-8q-88 0 -106.5 11.5t-44.5 82.5l-332 973l-10 55h-15v-1028v-40t-5 -25.5t-8.5 -17.5t-21 -7t-31.5 -4h-50 h-9zM231 1630v43v26.5t5 16.5t9.5 11t22 5t33 3h51.5q48 0 121.5 -4t124 -4t88.5 8l27 -4v-43v-26.5t-5 -16.5t-9.5 -11t-22 -5t-33 -3h-51.5q-48 0 -121.5 3.5t-124 3.5t-88.5 -7z" />
<glyph unicode="&#xd2;" horiz-adv-x="985" d="M133 750q0 164 9 278.5t32.5 208.5t64.5 149t103.5 84t151.5 29q74 0 129.5 -18.5t95.5 -60.5t65.5 -99.5t40.5 -145.5t21 -188t6 -237q0 -165 -9 -280.5t-31.5 -212t-63 -153.5t-103 -87.5t-151.5 -30.5t-152 30.5t-103.5 87.5t-64 153.5t-32.5 212.5t-9 280zM270 750 q0 -107 4 -190t13.5 -159t26 -129t41 -92.5t59.5 -58.5t80 -19q54 0 93.5 29t64 80.5t38.5 135t19.5 177.5t5.5 224q0 162 -9.5 272t-33.5 195.5t-68 126t-110 40.5q-128 0 -176 -152.5t-48 -479.5zM299 1835l14 14q49 49 66 49q14 0 32 -14.5t56 -52.5l139 -156l-71 -73z " />
<glyph unicode="&#xd3;" horiz-adv-x="985" d="M133 750q0 164 9 278.5t32.5 208.5t64.5 149t103.5 84t151.5 29q74 0 129.5 -18.5t95.5 -60.5t65.5 -99.5t40.5 -145.5t21 -188t6 -237q0 -165 -9 -280.5t-31.5 -212t-63 -153.5t-103 -87.5t-151.5 -30.5t-152 30.5t-103.5 87.5t-64 153.5t-32.5 212.5t-9 280zM270 750 q0 -107 4 -190t13.5 -159t26 -129t41 -92.5t59.5 -58.5t80 -19q54 0 93.5 29t64 80.5t38.5 135t19.5 177.5t5.5 224q0 162 -9.5 272t-33.5 195.5t-68 126t-110 40.5q-128 0 -176 -152.5t-48 -479.5zM395 1675l140 156q38 38 55.5 52.5t30.5 14.5q4 0 7.5 -1t8 -3.5t8 -4.5 t9.5 -7.5t9.5 -9l11.5 -11.5t13 -12l14 -14l-235 -233z" />
<glyph unicode="&#xd4;" horiz-adv-x="985" d="M133 750q0 164 9 278.5t32.5 208.5t64.5 149t103.5 84t151.5 29q74 0 129.5 -18.5t95.5 -60.5t65.5 -99.5t40.5 -145.5t21 -188t6 -237q0 -165 -9 -280.5t-31.5 -212t-63 -153.5t-103 -87.5t-151.5 -30.5t-152 30.5t-103.5 87.5t-64 153.5t-32.5 212.5t-9 280zM270 750 q0 -107 4 -190t13.5 -159t26 -129t41 -92.5t59.5 -58.5t80 -19q54 0 93.5 29t64 80.5t38.5 135t19.5 177.5t5.5 224q0 162 -9.5 272t-33.5 195.5t-68 126t-110 40.5q-128 0 -176 -152.5t-48 -479.5zM283 1663v113l213 122h53l215 -124v-111l-242 135z" />
<glyph unicode="&#xd5;" horiz-adv-x="985" d="M133 750q0 164 9 278.5t32.5 208.5t64.5 149t103.5 84t151.5 29q74 0 129.5 -18.5t95.5 -60.5t65.5 -99.5t40.5 -145.5t21 -188t6 -237q0 -165 -9 -280.5t-31.5 -212t-63 -153.5t-103 -87.5t-151.5 -30.5t-152 30.5t-103.5 87.5t-64 153.5t-32.5 212.5t-9 280zM262 1745 v43v26.5t5 16.5t9.5 11t22 5t33 3h51.5q48 0 121.5 -4t124 -4t88.5 8l27 -5v-43q0 -46 -15 -53.5t-106 -7.5q-48 0 -121.5 3.5t-124 3.5t-88.5 -7zM270 750q0 -107 4 -190t13.5 -159t26 -129t41 -92.5t59.5 -58.5t80 -19q54 0 93.5 29t64 80.5t38.5 135t19.5 177.5t5.5 224 q0 162 -9.5 272t-33.5 195.5t-68 126t-110 40.5q-128 0 -176 -152.5t-48 -479.5z" />
<glyph unicode="&#xd6;" horiz-adv-x="985" d="M133 750q0 164 9 278.5t32.5 208.5t64.5 149t103.5 84t151.5 29q74 0 129.5 -18.5t95.5 -60.5t65.5 -99.5t40.5 -145.5t21 -188t6 -237q0 -165 -9 -280.5t-31.5 -212t-63 -153.5t-103 -87.5t-151.5 -30.5t-152 30.5t-103.5 87.5t-64 153.5t-32.5 212.5t-9 280zM256 1782 q0 38 28 65t66 27t66 -27t28 -65t-28 -66t-66 -28t-66 28t-28 66zM270 750q0 -107 4 -190t13.5 -159t26 -129t41 -92.5t59.5 -58.5t80 -19q54 0 93.5 29t64 80.5t38.5 135t19.5 177.5t5.5 224q0 162 -9.5 272t-33.5 195.5t-68 126t-110 40.5q-128 0 -176 -152.5t-48 -479.5z M549 1782q0 38 28 65t66 27t66 -27t28 -65t-28 -66t-66 -28t-66 28t-28 66z" />
<glyph unicode="&#xd7;" horiz-adv-x="555" d="M43 535l137 137l-41 30l-96 95l74 73l96 -94l29 -43l139 139l74 -73l-138 -140l41 -30l97 -97l-74 -73l-96 96l-31 43l-137 -137z" />
<glyph unicode="&#xd8;" horiz-adv-x="974" d="M145 750q0 164 9 278.5t32.5 208.5t64.5 149t103.5 84t151.5 29q54 0 100 -12l64 155h139l-86 -215q81 -74 111 -234t30 -443q0 -165 -9 -280.5t-31.5 -212t-63 -153.5t-103 -87.5t-151.5 -30.5q-99 0 -166 37l-51 -125h-139l90 223q-53 88 -74 239.5t-21 389.5zM274 750 q0 -128 6.5 -225t22.5 -179t42 -134t66.5 -81t94.5 -29q45 0 80.5 19t60.5 58.5t42.5 93t27.5 128t14 158t4 189.5q0 159 -10.5 271.5t-36 196.5t-71 125t-111.5 41q-129 0 -180.5 -154.5t-51.5 -477.5z" />
<glyph unicode="&#xd9;" horiz-adv-x="958" d="M156 597v11v867h14h50t32.5 -4t21.5 -7.5t9.5 -17.5t5.5 -26v-40v-772v-43q0 -102 1 -148t6 -113t16.5 -93.5t33 -57.5t54.5 -41t81 -10q50 0 84.5 10.5t57 44.5t34.5 63.5t17.5 102.5t6.5 123t1 162v867h14h50t32.5 -4t21.5 -7.5t9.5 -17.5t5.5 -26v-40v-772 q0 -89 -0.5 -133.5t-3.5 -114t-9 -102.5t-17 -82t-28 -71t-42 -50.5t-58 -40t-77 -20t-99 -8.5q-54 0 -96.5 8.5t-75.5 19.5t-57 39.5t-40.5 49.5t-27 70t-16.5 80t-8.5 100.5t-3 111.5t-0.5 132zM305 1835l14 14q49 49 66 49q14 0 32 -14.5t56 -52.5l139 -156l-71 -73z" />
<glyph unicode="&#xda;" horiz-adv-x="958" d="M156 597v11v867h14h50t32.5 -4t21.5 -7.5t9.5 -17.5t5.5 -26v-40v-772v-43q0 -102 1 -148t6 -113t16.5 -93.5t33 -57.5t54.5 -41t81 -10q50 0 84.5 10.5t57 44.5t34.5 63.5t17.5 102.5t6.5 123t1 162v867h14h50t32.5 -4t21.5 -7.5t9.5 -17.5t5.5 -26v-40v-772 q0 -89 -0.5 -133.5t-3.5 -114t-9 -102.5t-17 -82t-28 -71t-42 -50.5t-58 -40t-77 -20t-99 -8.5q-54 0 -96.5 8.5t-75.5 19.5t-57 39.5t-40.5 49.5t-27 70t-16.5 80t-8.5 100.5t-3 111.5t-0.5 132zM401 1675l140 156q38 38 55.5 52.5t30.5 14.5q4 0 7.5 -1t8 -3.5t8 -4.5 t9.5 -7.5t9.5 -9l11.5 -11.5t13 -12l15 -14l-236 -233z" />
<glyph unicode="&#xdb;" horiz-adv-x="958" d="M156 597v11v867h14h50t32.5 -4t21.5 -7.5t9.5 -17.5t5.5 -26v-40v-772v-43q0 -102 1 -148t6 -113t16.5 -93.5t33 -57.5t54.5 -41t81 -10q50 0 84.5 10.5t57 44.5t34.5 63.5t17.5 102.5t6.5 123t1 162v867h14h50t32.5 -4t21.5 -7.5t9.5 -17.5t5.5 -26v-40v-772 q0 -89 -0.5 -133.5t-3.5 -114t-9 -102.5t-17 -82t-28 -71t-42 -50.5t-58 -40t-77 -20t-99 -8.5q-54 0 -96.5 8.5t-75.5 19.5t-57 39.5t-40.5 49.5t-27 70t-16.5 80t-8.5 100.5t-3 111.5t-0.5 132zM252 1663v112l213 123h53l215 -125v-110l-242 135z" />
<glyph unicode="&#xdc;" horiz-adv-x="958" d="M156 597v11v867h14h50t32.5 -4t21.5 -7.5t9.5 -17.5t5.5 -26v-40v-772v-43q0 -102 1 -148t6 -113t16.5 -93.5t33 -57.5t54.5 -41t81 -10q50 0 84.5 10.5t57 44.5t34.5 63.5t17.5 102.5t6.5 123t1 162v867h14h50t32.5 -4t21.5 -7.5t9.5 -17.5t5.5 -26v-40v-772 q0 -89 -0.5 -133.5t-3.5 -114t-9 -102.5t-17 -82t-28 -71t-42 -50.5t-58 -40t-77 -20t-99 -8.5q-54 0 -96.5 8.5t-75.5 19.5t-57 39.5t-40.5 49.5t-27 70t-16.5 80t-8.5 100.5t-3 111.5t-0.5 132zM254 1782q0 38 28 65t66 27t66 -27t28 -65t-28 -66t-66 -28t-66 28t-28 66z M547 1782q0 38 28 65t66 27t66 -27t28 -65t-28 -66t-66 -28t-66 28t-28 66z" />
<glyph unicode="&#xdd;" horiz-adv-x="768" d="M51 1475h31q76 0 94.5 -12t42.5 -83l166 -495h10l207 590h23q55 0 72.5 -3.5t17.5 -19.5q0 -68 -262 -741v-711h-11h-50t-32 4t-21.5 7.5t-9 17t-5.5 25.5v40v617zM367 1675l139 156q38 38 55.5 52.5t30.5 14.5q4 0 7.5 -1t8 -3.5t8 -4.5t9.5 -7.5t9.5 -9l11.5 -11.5 t13 -12l15 -14l-236 -234z" />
<glyph unicode="&#xde;" horiz-adv-x="808" d="M123 -315v1728v31.5t2.5 22.5t3.5 17t9.5 11t13.5 7.5t22 2.5t28.5 2h39.5v-325l204 55q47 0 84 -8.5t65 -19.5t49 -39t35 -49t23.5 -68.5t14.5 -77.5t7 -97t2.5 -106.5t0.5 -124.5q0 -86 -0.5 -130.5t-3 -115.5t-7.5 -107t-15 -88.5t-24.5 -79t-36 -58.5t-50 -46.5 t-67 -25t-85.5 -10.5l-196 94v-490h-51t-32 4.5t-21.5 7.5t-9.5 17t-5 25.5v40.5zM233 186l201 -92q42 0 72.5 16t49 57.5t29 78.5t15 116t5.5 129.5t1 157.5q0 95 -1 140t-5.5 113t-15 99t-29 66t-48 48t-71.5 13l-200 -51l8 -51v-788z" />
<glyph unicode="&#xdf;" horiz-adv-x="1073" d="M121 0l2 1182q0 164 12 210q15 62 70 84q59 21 241 21h109q5 0 14.5 -0.5t35.5 -3.5t50 -8.5t53.5 -17t50.5 -27.5t35.5 -42.5t14.5 -58.5q0 -65 -1.5 -113t-6 -85t-8.5 -61.5t-15 -41t-19 -25t-26 -13t-30.5 -5t-38.5 -0.5q-52 0 -69 -31.5t-17 -95.5v-34 q0 -36 30.5 -75.5t75.5 -73.5t98.5 -77.5t98.5 -85t75.5 -97.5t30.5 -114q0 -66 -2 -99.5t-16 -84.5t-41.5 -76t-82 -45t-134.5 -20l-254 14v109h256q29 0 50.5 6t36 13t24 24t14.5 28.5t7 38t2.5 40t0.5 46.5v23q0 29 -21 61t-56 62.5t-77 62.5t-84 67.5t-76.5 72.5 t-56.5 81.5t-22 89.5q0 36 0.5 57.5t4.5 54.5t11 54t20.5 45t33 37.5t49 23t67.5 9.5q21 0 30 7.5t16 53.5t7 146q0 78 -151 78h-97q-147 0 -171.5 -25.5t-24.5 -180.5v-3l-2 -1063q-1 -36 -1 -50.5t-6 -32.5t-10 -22t-22.5 -9t-34 -5h-53.5z" />
<glyph unicode="&#xe0;" horiz-adv-x="700" d="M102 502q0 54 21.5 94.5t55.5 64t85 37.5t99 18.5t108 4.5h8l-8 51v78v37q0 82 -19 103.5t-94 21.5l-102 -21q-20 -4 -31 -4q-71 0 -71 92l204 35q58 0 96.5 -4.5t64.5 -21t40 -30.5t20.5 -52t7.5 -66t1 -90v-850q-92 0 -108.5 13t-16.5 89q-21 -13 -57 -45.5 t-67.5 -51.5t-64.5 -19q-125 0 -148.5 78t-23.5 438zM206 1448l15 14q49 49 65 49q14 0 32 -14.5t56 -52.5l140 -156l-72 -74zM223 518q0 -340 11 -390q6 -31 24 -33q4 -1 14 -1q34 0 67 16.5t71 44t61 38.5l-8 51v311l8 51h-8q-57 0 -95.5 -3t-74 -11.5t-53 -27 t-17.5 -46.5z" />
<glyph unicode="&#xe1;" horiz-adv-x="700" d="M102 502q0 54 21.5 94.5t55.5 64t85 37.5t99 18.5t108 4.5h8l-8 51v78v37q0 82 -19 103.5t-94 21.5l-102 -21q-20 -4 -31 -4q-71 0 -71 92l204 35q58 0 96.5 -4.5t64.5 -21t40 -30.5t20.5 -52t7.5 -66t1 -90v-850q-92 0 -108.5 13t-16.5 89q-21 -13 -57 -45.5 t-67.5 -51.5t-64.5 -19q-125 0 -148.5 78t-23.5 438zM223 518q0 -340 11 -390q6 -31 24 -33q4 -1 14 -1q34 0 67 16.5t71 44t61 38.5l-8 51v311l8 51h-8q-57 0 -95.5 -3t-74 -11.5t-53 -27t-17.5 -46.5zM267 1288l139 156q38 38 55.5 52.5t30.5 14.5q4 0 7.5 -1t8 -3.5 t8 -4.5t9.5 -7.5t9.5 -9l11.5 -11.5t13 -12l15 -14l-236 -234z" />
<glyph unicode="&#xe2;" horiz-adv-x="700" d="M102 502q0 54 21.5 94.5t55.5 64t85 37.5t99 18.5t108 4.5h8l-8 51v78v37q0 82 -19 103.5t-94 21.5l-102 -21q-20 -4 -31 -4q-71 0 -71 92l204 35q58 0 96.5 -4.5t64.5 -21t40 -30.5t20.5 -52t7.5 -66t1 -90v-850q-92 0 -108.5 13t-16.5 89q-21 -13 -57 -45.5 t-67.5 -51.5t-64.5 -19q-125 0 -148.5 78t-23.5 438zM121 1284v112l213 123h53l215 -125v-110l-242 135zM223 518q0 -340 11 -390q6 -31 24 -33q4 -1 14 -1q34 0 67 16.5t71 44t61 38.5l-8 51v311l8 51h-8q-57 0 -95.5 -3t-74 -11.5t-53 -27t-17.5 -46.5z" />
<glyph unicode="&#xe3;" horiz-adv-x="700" d="M102 502q0 54 21.5 94.5t55.5 64t85 37.5t99 18.5t108 4.5h8l-8 51v78v37q0 82 -19 103.5t-94 21.5l-102 -21q-20 -4 -31 -4q-71 0 -71 92l204 35q58 0 96.5 -4.5t64.5 -21t40 -30.5t20.5 -52t7.5 -66t1 -90v-850q-92 0 -108.5 13t-16.5 89q-21 -13 -57 -45.5 t-67.5 -51.5t-64.5 -19q-125 0 -148.5 78t-23.5 438zM133 1313v43v26.5t5 16.5t9.5 11t22 5t33 3h51.5q48 0 121.5 -4t124 -4t88.5 8l27 -5v-43q0 -46 -15 -53.5t-106 -7.5q-48 0 -121.5 3.5t-124 3.5t-88.5 -7zM223 518q0 -340 11 -390q6 -31 24 -33q4 -1 14 -1 q34 0 67 16.5t71 44t61 38.5l-8 51v311l8 51h-8q-57 0 -95.5 -3t-74 -11.5t-53 -27t-17.5 -46.5z" />
<glyph unicode="&#xe4;" horiz-adv-x="700" d="M102 502q0 54 21.5 94.5t55.5 64t85 37.5t99 18.5t108 4.5h8l-8 51v78v37q0 82 -19 103.5t-94 21.5l-102 -21q-20 -4 -31 -4q-71 0 -71 92l204 35q58 0 96.5 -4.5t64.5 -21t40 -30.5t20.5 -52t7.5 -66t1 -90v-850q-92 0 -108.5 13t-16.5 89q-21 -13 -57 -45.5 t-67.5 -51.5t-64.5 -19q-125 0 -148.5 78t-23.5 438zM125 1364q0 38 28 65.5t66 27.5t66 -27.5t28 -65.5t-28 -66t-66 -28t-66 28t-28 66zM223 518q0 -340 11 -390q6 -31 24 -33q4 -1 14 -1q34 0 67 16.5t71 44t61 38.5l-8 51v311l8 51h-8q-57 0 -95.5 -3t-74 -11.5t-53 -27 t-17.5 -46.5zM417 1364q0 38 28.5 65.5t66.5 27.5t66 -27.5t28 -65.5t-28 -66t-66 -28t-66.5 28t-28.5 66z" />
<glyph unicode="&#xe5;" horiz-adv-x="700" d="M102 502q0 54 21.5 94.5t55.5 64t85 37.5t99 18.5t108 4.5h8l-8 51v78v37q0 82 -19 103.5t-94 21.5l-102 -21q-20 -4 -31 -4q-71 0 -71 92l204 35q58 0 96.5 -4.5t64.5 -21t40 -30.5t20.5 -52t7.5 -66t1 -90v-850q-92 0 -108.5 13t-16.5 89q-21 -13 -57 -45.5 t-67.5 -51.5t-64.5 -19q-125 0 -148.5 78t-23.5 438zM190 1368q0 69 50.5 117.5t119.5 48.5t119.5 -48.5t50.5 -117.5t-50.5 -118.5t-119.5 -49.5t-119.5 49.5t-50.5 118.5zM223 518q0 -340 11 -390q6 -31 24 -33q4 -1 14 -1q34 0 67 16.5t71 44t61 38.5l-8 51v311l8 51h-8 q-57 0 -95.5 -3t-74 -11.5t-53 -27t-17.5 -46.5zM276 1368q0 -35 24.5 -59.5t59.5 -24.5q34 0 59 24.5t25 59.5q0 34 -25 58t-59 24q-35 0 -59.5 -24t-24.5 -58z" />
<glyph unicode="&#xe6;" horiz-adv-x="1204" d="M125 414v47q0 54 23 94.5t58 64t87.5 37.5t101.5 18.5t109 4.5h8l-8 51v119q0 12 1 30t1.5 29t-0.5 26t-4.5 24t-11 19t-19.5 15.5t-31.5 9t-44.5 3.5q-32 -4 -58 -8t-38.5 -6t-22 -3t-13 -1.5t-5.5 -0.5q-72 0 -72 92l209 35q85 0 126.5 -15t68.5 -48q36 34 71 48.5 t84 14.5q58 0 100 -9.5t71.5 -22.5t48.5 -45.5t29.5 -57.5t15 -81.5t5.5 -94t1 -117.5l10 -111l-408 -10l9 -51v-32q0 -124 2 -176.5t12.5 -112.5t35 -79.5t68.5 -19.5q104 0 285 27v-101q-178 -34 -285 -34q-93 0 -128.5 27t-67.5 104l-252 -131q-122 0 -147 74t-25 354z M243 317q-3 -143 5 -183t47 -40l209 96v324l8 51h-8q-58 0 -99 -3t-80.5 -11.5t-60 -27t-20.5 -46.5q0 -62 -1 -160zM631 676h274l-10 92q-1 91 -11.5 138.5t-43 73.5t-95.5 26q-76 0 -92 -52.5t-14 -215.5v-11z" />
<glyph unicode="&#xe7;" horiz-adv-x="686" d="M102 555q0 95 0.5 140.5t4 114.5t10 99.5t19.5 74t32 61t47.5 37.5t67 26t88.5 6l170 -27q0 -61 -27.5 -79t-75.5 -9l-67 7q-86 0 -117 -64q-30 -60 -32 -246q-1 -42 -1 -141q0 -248 13 -323q18 -104 79 -129q24 -9 58 -9l178 21v-95l-137 -26v-215q0 -62 -15.5 -78 t-77.5 -16h-71q-82 0 -95.5 11.5t-13.5 82.5h178v211q-40 4 -71 13t-53.5 31.5t-38 41.5t-25.5 63.5t-15.5 74t-8 97.5t-3 110.5t-0.5 133.5z" />
<glyph unicode="&#xe8;" horiz-adv-x="722" d="M102 539q0 129 1.5 187t9 141t25 115.5t49 70.5t80.5 49.5t120 11.5q44 0 78 -6.5t58.5 -24.5t42 -34.5t28 -53.5t17 -62t9 -80.5t3 -89t0.5 -104.5l8 -110l-418 -10l8 -52q0 -91 0.5 -130.5t5.5 -96t15 -77.5t28.5 -46t46.5 -32t70 -7q120 0 240 27v-105 q-159 -34 -240 -34q-72 0 -120.5 10t-80 45.5t-48.5 66t-25 110.5t-9.5 136.5t-1.5 184.5zM225 649h291l-10 53q0 164 -22.5 234t-96.5 70q-39 0 -66 -9t-44 -26.5t-26.5 -43t-13 -59.5t-4.5 -76t0 -92zM229 1452l15 14l5 5q45 45 60 45q14 0 31 -14t57 -54l140 -156 l-72 -73z" />
<glyph unicode="&#xe9;" horiz-adv-x="722" d="M102 539q0 129 1.5 187t9 141t25 115.5t49 70.5t80.5 49.5t120 11.5q44 0 78 -6.5t58.5 -24.5t42 -34.5t28 -53.5t17 -62t9 -80.5t3 -89t0.5 -104.5l8 -110l-418 -10l8 -52q0 -91 0.5 -130.5t5.5 -96t15 -77.5t28.5 -46t46.5 -32t70 -7q120 0 240 27v-105 q-159 -34 -240 -34q-72 0 -120.5 10t-80 45.5t-48.5 66t-25 110.5t-9.5 136.5t-1.5 184.5zM225 649h291l-10 53q0 164 -22.5 234t-96.5 70q-39 0 -66 -9t-44 -26.5t-26.5 -43t-13 -59.5t-4.5 -76t0 -92zM293 1292l139 156l30.5 30.5t22 20t19.5 14t14 3.5q4 0 7.5 -1t8 -3.5 t8 -5t9.5 -8t10 -9t12 -11.5t13 -12l14 -14l-235 -233z" />
<glyph unicode="&#xea;" horiz-adv-x="722" d="M102 539q0 129 1.5 187t9 141t25 115.5t49 70.5t80.5 49.5t120 11.5q44 0 78 -6.5t58.5 -24.5t42 -34.5t28 -53.5t17 -62t9 -80.5t3 -89t0.5 -104.5l8 -110l-418 -10l8 -52q0 -91 0.5 -130.5t5.5 -96t15 -77.5t28.5 -46t46.5 -32t70 -7q120 0 240 27v-105 q-159 -34 -240 -34q-72 0 -120.5 10t-80 45.5t-48.5 66t-25 110.5t-9.5 136.5t-1.5 184.5zM133 1288v113l213 123h53l215 -125v-111l-241 135zM225 649h291l-10 53q0 164 -22.5 234t-96.5 70q-39 0 -66 -9t-44 -26.5t-26.5 -43t-13 -59.5t-4.5 -76t0 -92z" />
<glyph unicode="&#xeb;" horiz-adv-x="722" d="M102 539q0 129 1.5 187t9 141t25 115.5t49 70.5t80.5 49.5t120 11.5q44 0 78 -6.5t58.5 -24.5t42 -34.5t28 -53.5t17 -62t9 -80.5t3 -89t0.5 -104.5l8 -110l-418 -10l8 -52q0 -91 0.5 -130.5t5.5 -96t15 -77.5t28.5 -46t46.5 -32t70 -7q120 0 240 27v-105 q-159 -34 -240 -34q-72 0 -120.5 10t-80 45.5t-48.5 66t-25 110.5t-9.5 136.5t-1.5 184.5zM137 1368q0 38 28 65t66 27q39 0 67 -27t28 -65t-28.5 -66t-66.5 -28t-66 28t-28 66zM225 649h291l-10 53q0 164 -22.5 234t-96.5 70q-39 0 -66 -9t-44 -26.5t-26.5 -43t-13 -59.5 t-4.5 -76t0 -92zM430 1368q0 38 28 65t66 27t66 -27t28 -65t-28 -66t-66 -28t-66 28t-28 66z" />
<glyph unicode="&#xec;" horiz-adv-x="432" d="M12 1456l15 14l5 5q45 45 60 45q14 0 31 -14t57 -54l139 -156l-71 -73zM147 45.5v40.5v1014h51.5t33 -4t22 -7t9 -17t5.5 -25.5v-40.5v-1014h-51.5t-33 4t-22 7t-9 17t-5.5 25.5z" />
<glyph unicode="&#xed;" horiz-adv-x="450" d="M123 1292l139 156l30.5 30.5t22 20t19.5 14t14 3.5q4 0 7.5 -1t8 -3.5t8 -5t9.5 -8t10 -9t12 -11.5t13 -12l14 -14l-235 -233zM154 46v40v1014h51.5t32.5 -4t22 -7t9 -17.5t5 -25.5v-40v-1014h-51.5t-32.5 4t-22 7t-9 17.5t-5 25.5z" />
<glyph unicode="&#xee;" horiz-adv-x="503" d="M10 1280v113l213 123h53l216 -125v-111l-242 135zM184 45.5v40.5v1014h51.5t33 -4t22 -7t9 -17t5.5 -25.5v-40.5v-1014h-51.5t-33 4t-22 7t-9 17t-5.5 25.5z" />
<glyph unicode="&#xef;" horiz-adv-x="532" d="M41 1368q0 38 28 65t66 27t66 -27t28 -65t-28 -66t-66 -28t-66 28t-28 66zM221 45.5v40.5v1014h51.5t33 -4t22 -7t9 -17t5.5 -25.5v-40.5v-1014h-51.5t-33 4t-22 7t-9 17t-5.5 25.5zM334 1368q0 38 28 65t66 27t66 -27t28 -65t-28 -66t-66 -28t-66 28t-28 66z" />
<glyph unicode="&#xf0;" horiz-adv-x="770" d="M61 508q0 97 0.5 139.5t4.5 108t11 90t21.5 62.5t35 49t53.5 26.5t74 19t99 3.5l164 -70q-21 241 -66 343.5t-143 102.5v117q73 0 128.5 -25.5t92.5 -62t62.5 -109t38.5 -132.5t20 -170t8 -184t1 -208q0 -113 -0.5 -172.5t-5 -134t-12 -108.5t-23.5 -76.5t-37 -58.5 t-54.5 -33t-74.5 -21t-99 -4q-45 0 -80.5 2.5t-64.5 12.5t-50.5 17.5t-38 30.5t-27.5 38t-18.5 53.5t-11 64t-5.5 82t-2.5 94t-0.5 113.5zM190 508q0 -264 24.5 -331.5t145.5 -67.5q127 0 152 78t25 400v21l-5 223l-172 66q-122 0 -146 -64.5t-24 -324.5z" />
<glyph unicode="&#xf1;" horiz-adv-x="798" d="M123 53.5v40.5v1006h51.5t33 -3t22 -5t9.5 -11t5 -16.5v-26.5l184 76q185 0 221.5 -93.5t36.5 -475.5v-545h-51.5t-33 4t-22 7t-9 17t-5.5 25.5v40.5v453q0 313 -18 386t-111 73l-200 -72l8 -51v-883h-51.5t-33 4t-22 7t-9 17t-5.5 25.5zM174 1313v43v26.5t5 16.5t9.5 11 t22 5t33 3h51.5q48 0 121.5 -4t124 -4t88.5 8l27 -5v-43q0 -46 -15 -53.5t-106 -7.5q-48 0 -121.5 3.5t-124 3.5t-88.5 -7z" />
<glyph unicode="&#xf2;" horiz-adv-x="765" d="M102 555q0 79 0.5 116t2 98t5 87.5t10.5 70.5t17 61.5t25.5 45t36 37.5t47.5 23t61 16.5t76 3.5q53 0 92.5 -6t69 -26t49.5 -36.5t33 -60.5t20 -73t10.5 -99.5t4 -115t0.5 -142.5q0 -263 -13 -348q-19 -134 -92 -182q-59 -39 -174 -39q-70 0 -118 11t-79.5 48.5 t-48.5 69.5t-24.5 114t-9 139.5t-1.5 186.5zM223 578q0 -254 9 -323q15 -114 72 -145q31 -16 79 -16q38 0 65 9t44.5 35t27.5 52t14.5 82t5.5 102t1 134q0 261 -7 325q-12 118 -64 152q-32 21 -87 21q-40 0 -67 -8.5t-45 -35.5t-27.5 -52.5t-14 -85t-5.5 -105.5t-1 -141z M231 1460l15 15q49 49 65 49q14 0 31.5 -14.5t56.5 -53.5l140 -156l-72 -73z" />
<glyph unicode="&#xf3;" horiz-adv-x="765" d="M102 555q0 79 0.5 116t2 98t5 87.5t10.5 70.5t17 61.5t25.5 45t36 37.5t47.5 23t61 16.5t76 3.5q53 0 92.5 -6t69 -26t49.5 -36.5t33 -60.5t20 -73t10.5 -99.5t4 -115t0.5 -142.5q0 -263 -13 -348q-19 -134 -92 -182q-59 -39 -174 -39q-70 0 -118 11t-79.5 48.5 t-48.5 69.5t-24.5 114t-9 139.5t-1.5 186.5zM223 578q0 -254 9 -323q15 -114 72 -145q31 -16 79 -16q38 0 65 9t44.5 35t27.5 52t14.5 82t5.5 102t1 134q0 261 -7 325q-12 118 -64 152q-32 21 -87 21q-40 0 -67 -8.5t-45 -35.5t-27.5 -52.5t-14 -85t-5.5 -105.5t-1 -141z M295 1300l139 156q39 40 56.5 54t29.5 14q3 0 5.5 -0.5t5 -1.5t6 -3t5.5 -3.5l6 -4.5t6.5 -5t7.5 -6.5t8 -7t9 -8.5l9 -9l14 -15l-235 -233z" />
<glyph unicode="&#xf4;" horiz-adv-x="765" d="M102 555q0 79 0.5 116t2 98t5 87.5t10.5 70.5t17 61.5t25.5 45t36 37.5t47.5 23t61 16.5t76 3.5q53 0 92.5 -6t69 -26t49.5 -36.5t33 -60.5t20 -73t10.5 -99.5t4 -115t0.5 -142.5q0 -263 -13 -348q-19 -134 -92 -182q-59 -39 -174 -39q-70 0 -118 11t-79.5 48.5 t-48.5 69.5t-24.5 114t-9 139.5t-1.5 186.5zM144 1289v112l213 123h53l215 -125v-110l-242 135zM223 578q0 -254 9 -323q15 -114 72 -145q31 -16 79 -16q38 0 65 9t44.5 35t27.5 52t14.5 82t5.5 102t1 134q0 261 -7 325q-12 118 -64 152q-32 21 -87 21q-40 0 -67 -8.5 t-45 -35.5t-27.5 -52.5t-14 -85t-5.5 -105.5t-1 -141z" />
<glyph unicode="&#xf5;" horiz-adv-x="765" d="M102 555q0 79 0.5 116t2 98t5 87.5t10.5 70.5t17 61.5t25.5 45t36 37.5t47.5 23t61 16.5t76 3.5q53 0 92.5 -6t69 -26t49.5 -36.5t33 -60.5t20 -73t10.5 -99.5t4 -115t0.5 -142.5q0 -263 -13 -348q-19 -134 -92 -182q-59 -39 -174 -39q-70 0 -118 11t-79.5 48.5 t-48.5 69.5t-24.5 114t-9 139.5t-1.5 186.5zM158 1325v43v26.5t5 16.5t9.5 11t22 5t33 3h51.5q54 0 169.5 -13.5t163.5 -3.5l27 -4v-43q0 -46 -15 -53.5t-106 -7.5q-55 0 -170.5 12.5t-163.5 3.5zM223 578q0 -254 9 -323q15 -114 72 -145q31 -16 79 -16q38 0 65 9t44.5 35 t27.5 52t14.5 82t5.5 102t1 134q0 261 -7 325q-12 118 -64 152q-32 21 -87 21q-40 0 -67 -8.5t-45 -35.5t-27.5 -52.5t-14 -85t-5.5 -105.5t-1 -141z" />
<glyph unicode="&#xf6;" horiz-adv-x="765" d="M102 555q0 79 0.5 116t2 98t5 87.5t10.5 70.5t17 61.5t25.5 45t36 37.5t47.5 23t61 16.5t76 3.5q53 0 92.5 -6t69 -26t49.5 -36.5t33 -60.5t20 -73t10.5 -99.5t4 -115t0.5 -142.5q0 -263 -13 -348q-19 -134 -92 -182q-59 -39 -174 -39q-70 0 -118 11t-79.5 48.5 t-48.5 69.5t-24.5 114t-9 139.5t-1.5 186.5zM147 1364q0 38 28 65t67 27q38 0 66 -27t28 -65t-28 -66t-66 -28t-66.5 28t-28.5 66zM223 578q0 -254 9 -323q15 -114 72 -145q31 -16 79 -16q38 0 65 9t44.5 35t27.5 52t14.5 82t5.5 102t1 134q0 261 -7 325q-12 118 -64 152 q-32 21 -87 21q-40 0 -67 -8.5t-45 -35.5t-27.5 -52.5t-14 -85t-5.5 -105.5t-1 -141zM440 1364q0 38 28 65t67 27q38 0 66 -27t28 -65t-28 -66t-66 -28t-66.5 28t-28.5 66z" />
<glyph unicode="&#xf7;" horiz-adv-x="563" d="M61 553v104h439v-104h-439zM174 94q0 38 28 65t66 27t66 -27t28 -65t-28 -66t-66 -28t-66 28t-28 66zM188 1008q0 38 28 65t67 27q38 0 66 -27t28 -65t-28 -66.5t-66 -28.5t-66.5 28.5t-28.5 66.5z" />
<glyph unicode="&#xf8;" horiz-adv-x="819" d="M106 -193l97 240q-23 23 -38 60.5t-23 73.5t-12 106t-4.5 118t-0.5 150q0 79 0.5 116t2 98t5 87.5t10.5 70.5t17 61.5t25.5 45t36 37.5t47.5 23t61 16.5t76 3.5t79 -6l80 199h140l-101 -250q55 -52 67.5 -156.5t12.5 -345.5q0 -263 -12 -347q-19 -134 -91 -182 q-59 -40 -175 -40q-33 0 -87 8l-73 -187h-140zM246 578q0 -254 9 -323q15 -114 72 -145q31 -16 79 -16q38 0 65 8.5t44.5 35t27 52t14 82.5t5.5 102t1 134q0 261 -6 322q-12 120 -63 154q-33 22 -88 22q-40 0 -67 -8.5t-45 -35.5t-27.5 -52.5t-14 -85t-5.5 -105.5t-1 -141z " />
<glyph unicode="&#xf9;" d="M113 555v545h51.5t32.5 -4t22 -7t9 -17.5t5 -25.5v-40v-447q0 -251 14 -330q20 -115 86 -132q13 -3 29 -3l203 94l-10 52v860h51.5t33 -4t22 -7t9 -17t5.5 -25.5v-40.5v-1006h-51.5t-33 3.5t-22 6t-9 15t-5.5 22.5v35l-184 -96q-39 0 -70 4t-56 17t-43.5 24t-32.5 39.5 t-23.5 47t-16 63t-9.5 71.5t-4.5 89t-2 98.5t-0.5 115.5zM229 1444l15 14q49 49 65 49q14 0 32 -14.5t56 -52.5l140 -156l-72 -74z" />
<glyph unicode="&#xfa;" d="M113 555v545h51.5t32.5 -4t22 -7t9 -17.5t5 -25.5v-40v-447q0 -251 14 -330q20 -115 86 -132q13 -3 29 -3l203 94l-10 52v860h51.5t33 -4t22 -7t9 -17t5.5 -25.5v-40.5v-1006h-51.5t-33 3.5t-22 6t-9 15t-5.5 22.5v35l-184 -96q-39 0 -70 4t-56 17t-43.5 24t-32.5 39.5 t-23.5 47t-16 63t-9.5 71.5t-4.5 89t-2 98.5t-0.5 115.5zM303 1300l139 156l30.5 30.5t22 20t19.5 14t14 3.5q3 0 5.5 -0.5t5 -1.5t6 -3t5.5 -3.5l6 -4.5t6.5 -5t7.5 -6.5t8 -7t9 -8.5l9 -9l14 -15l-235 -233z" />
<glyph unicode="&#xfb;" d="M113 555v545h51.5t32.5 -4t22 -7t9 -17.5t5 -25.5v-40v-447q0 -251 14 -330q20 -115 86 -132q13 -3 29 -3l203 94l-10 52v860h51.5t33 -4t22 -7t9 -17t5.5 -25.5v-40.5v-1006h-51.5t-33 3.5t-22 6t-9 15t-5.5 22.5v35l-184 -96q-39 0 -70 4t-56 17t-43.5 24t-32.5 39.5 t-23.5 47t-16 63t-9.5 71.5t-4.5 89t-2 98.5t-0.5 115.5zM158 1284v113l213 123h53l215 -125v-111l-242 135z" />
<glyph unicode="&#xfc;" d="M113 555v545h51.5t32.5 -4t22 -7t9 -17.5t5 -25.5v-40v-447q0 -251 14 -330q20 -115 86 -132q13 -3 29 -3l203 94l-10 52v860h51.5t33 -4t22 -7t9 -17t5.5 -25.5v-40.5v-1006h-51.5t-33 3.5t-22 6t-9 15t-5.5 22.5v35l-184 -96q-39 0 -70 4t-56 17t-43.5 24t-32.5 39.5 t-23.5 47t-16 63t-9.5 71.5t-4.5 89t-2 98.5t-0.5 115.5zM164 1360q0 38 28 65t66 27t66 -27t28 -65t-28 -66t-66 -28t-66 28t-28 66zM457 1360q0 38 28 65t66 27t66 -27t28 -65t-28 -66t-66 -28t-66 28t-28 66z" />
<glyph unicode="&#xfd;" horiz-adv-x="649" d="M41 1100h50.5t33 -4t23 -7t12.5 -17t10.5 -25.5t7.5 -40.5l144 -863h26l150 957q73 0 90.5 -6t17.5 -35q0 -106 -198 -1059l-12 -63q-14 -73 -22.5 -109t-33 -90.5t-57 -80.5t-91 -46.5t-139.5 -20.5v97q96 0 150.5 66.5t54.5 166.5q0 33 -25 169t-192 1011zM201 1309 l139 156q38 38 55.5 52.5t30.5 14.5q4 0 7.5 -1t8 -3.5t8 -4.5t9.5 -7.5t9.5 -9l11.5 -11.5t13 -12l15 -14l-236 -234z" />
<glyph unicode="&#xfe;" horiz-adv-x="790" d="M123 0v1499h50t32 -4t22 -7.5t9.5 -17t5.5 -25.5v-40v-348l172 57q55 0 97.5 -6.5t74 -26.5t53 -38.5t35.5 -61t22 -75t12 -100.5t4.5 -116.5t0.5 -142.5q0 -87 -0.5 -127.5t-2.5 -106t-7.5 -93.5t-15 -72.5t-24 -62.5t-36 -43t-50.5 -33.5t-67 -15.5t-86 -7l-182 123 v-410v-46.5t-5 -29.5t-9 -20t-22 -8.5t-32.5 -4.5h-50.5v410zM242 184l180 -90q43 0 72 8.5t48 38t29 54.5t14.5 90.5t5.5 111.5t1 150v10q0 93 -1 135.5t-5.5 107t-15 92.5t-29 60t-48 43t-71.5 11l-180 -50v-772z" />
<glyph unicode="&#xff;" horiz-adv-x="649" d="M41 1100h50.5t33 -4t23 -7t12.5 -17t10.5 -25.5t7.5 -40.5l144 -863h26l150 957q73 0 90.5 -6t17.5 -35q0 -106 -198 -1059l-12 -63q-14 -73 -22.5 -109t-33 -90.5t-57 -80.5t-91 -46.5t-139.5 -20.5v97q96 0 150.5 66.5t54.5 166.5q0 33 -25 169t-192 1011zM95 1364 q0 38 28 65.5t66 27.5t66 -27.5t28 -65.5t-28 -66t-66 -28t-66 28t-28 66zM387 1364q0 38 28.5 65.5t66.5 27.5t66 -27.5t28 -65.5t-28 -66t-66 -28t-66.5 28t-28.5 66z" />
<glyph unicode="&#x152;" horiz-adv-x="1337" d="M113 750q0 125 0.5 183.5t5 151t14.5 133t27.5 100t45.5 83.5t68 52t94.5 37t125.5 9l186 -24h580v-109h-445l6 -51v-408l-8 -51h418v-117h-416l8 -51v-520l-8 -51h465v-117h-600l-186 -14q-63 0 -113 10.5t-88.5 24t-66.5 49.5t-47.5 62t-32 87t-19.5 100t-10 126.5 t-3.5 140t-0.5 164.5zM242 750q0 -80 0.5 -118.5t1.5 -104.5t4.5 -98t9.5 -82.5t15.5 -74.5t23 -58.5t32 -50t42.5 -32.5t54.5 -23t68.5 -6l186 15v1241l-186 24q-38 0 -68.5 -5.5t-54.5 -22t-42.5 -31t-32 -47.5t-23 -56t-15.5 -72.5t-9.5 -80t-4.5 -96t-1.5 -103.5 t-0.5 -118z" />
<glyph unicode="&#x153;" horiz-adv-x="1286" d="M115 555q0 85 0.5 127.5t3 106.5t8 93.5t15.5 72.5t25.5 61.5t37.5 42.5t52.5 32.5t69.5 15.5t89 7q92 0 148.5 -19.5t88.5 -62.5q35 44 86.5 63t147.5 19q46 0 82 -6.5t62.5 -24.5t44.5 -34.5t29.5 -53.5t18 -62t9.5 -80.5t3.5 -89t0.5 -104.5l8 -110l-449 -12l11 -60 q-1 -197 8 -253q15 -88 73 -114q37 -16 99 -16q117 0 243 27v-101q-135 -29 -197 -33q-22 -1 -46 -1q-96 0 -147.5 21t-86.5 69q-63 -90 -237 -90q-56 0 -98.5 6.5t-74.5 26.5t-53.5 38t-36 62t-22 75.5t-11.5 101t-4.5 116.5t-0.5 143zM236 555q0 -104 1 -150.5t6 -113 t15.5 -92.5t30.5 -56.5t51 -39.5t76 -9q124 0 151 91t27 370q0 103 -1 148.5t-6 111t-15.5 90.5t-30.5 54.5t-50 38t-75 8.5t-76 -8.5t-51 -38t-30.5 -54.5t-15.5 -90.5t-6 -111t-1 -148.5zM709 649h317l-10 103q-2 141 -11 178q-15 58 -67 71q-21 5 -51 5q-66 0 -103 -19.5 t-50 -58.5t-15.5 -97.5t0.5 -136.5z" />
<glyph unicode="&#x178;" horiz-adv-x="768" d="M51 1475h31q76 0 94.5 -12t42.5 -83l166 -495h10l207 590h23q55 0 72.5 -3.5t17.5 -19.5q0 -68 -262 -741v-711h-11h-50t-32 4t-21.5 7.5t-9 17t-5.5 25.5v40v617zM179 1757q0 38 28 65.5t66 27.5t66 -27.5t28 -65.5t-28 -66t-66 -28t-66 28t-28 66zM471 1757 q0 38 28.5 65.5t66.5 27.5t66 -27.5t28 -65.5t-28 -66t-66 -28t-66.5 28t-28.5 66z" />
<glyph unicode="&#x2c6;" horiz-adv-x="720" d="M119 1264v112l213 123h53l215 -125v-110l-242 135z" />
<glyph unicode="&#x2dc;" horiz-adv-x="772" d="M139 1370v43v26.5t5 16.5t9.5 11t22 5t33 3h51.5q48 0 121.5 -4t124 -4t88.5 8l27 -5v-43q0 -46 -15 -53.5t-106 -7.5q-48 0 -121.5 3.5t-124 3.5t-88.5 -7z" />
<glyph unicode="&#x2000;" horiz-adv-x="949" />
<glyph unicode="&#x2001;" horiz-adv-x="1898" />
<glyph unicode="&#x2002;" horiz-adv-x="949" />
<glyph unicode="&#x2003;" horiz-adv-x="1898" />
<glyph unicode="&#x2004;" horiz-adv-x="632" />
<glyph unicode="&#x2005;" horiz-adv-x="474" />
<glyph unicode="&#x2006;" horiz-adv-x="316" />
<glyph unicode="&#x2007;" horiz-adv-x="316" />
<glyph unicode="&#x2008;" horiz-adv-x="237" />
<glyph unicode="&#x2009;" horiz-adv-x="379" />
<glyph unicode="&#x200a;" horiz-adv-x="105" />
<glyph unicode="&#x2010;" horiz-adv-x="688" d="M123 614v105h438v-105h-438z" />
<glyph unicode="&#x2011;" horiz-adv-x="688" d="M123 614v105h438v-105h-438z" />
<glyph unicode="&#x2012;" horiz-adv-x="688" d="M123 614v105h438v-105h-438z" />
<glyph unicode="&#x2013;" horiz-adv-x="808" d="M123 614v105h559v-105h-559z" />
<glyph unicode="&#x2014;" horiz-adv-x="1255" d="M123 614v105h1007v-105h-1007z" />
<glyph unicode="&#x2018;" horiz-adv-x="339" d="M47 1130q0 38 38 130.5t76 165.5l38 73l80 -51q-25 -87 -37 -152t-12 -90t3 -50.5t3 -29.5q0 -38 -28 -65t-67 -27t-66.5 27.5t-27.5 68.5z" />
<glyph unicode="&#x2019;" horiz-adv-x="335" d="M61 1085q25 87 37 152t12 90t-3 50.5t-3 29.5q0 38 28 65t67 27t66.5 -27.5t27.5 -68.5q0 -38 -38 -130.5t-76 -165.5l-38 -73z" />
<glyph unicode="&#x201a;" horiz-adv-x="335" d="M61 -227q25 87 37 151.5t12 90t-3 50.5t-3 29q0 38 28 65t67 27t66.5 -27.5t27.5 -68.5q0 -38 -38 -130.5t-76 -165.5l-38 -73z" />
<glyph unicode="&#x201c;" horiz-adv-x="702" d="M84 1130q0 38 38 130.5t76 165.5l38 73l79 -51q-25 -87 -37 -152t-12 -90t3 -50.5t3 -29.5q0 -38 -28 -65t-66 -27q-39 0 -66.5 27.5t-27.5 68.5zM379 1130q0 38 37.5 130.5t75.5 165.5l38 73l80 -51q-25 -87 -37 -152t-12 -90t3 -50.5t3 -29.5q0 -38 -28 -65t-66 -27 q-39 0 -66.5 27.5t-27.5 68.5z" />
<glyph unicode="&#x201d;" horiz-adv-x="702" d="M94 1085q25 87 37 152t12 90t-3 50.5t-3 29.5q0 38 28 65t66 27q39 0 67 -27.5t28 -68.5q0 -38 -38 -130.5t-76 -165.5l-38 -73zM389 1085q25 87 37 152t12 90t-3 50.5t-3 29.5q0 38 28 65t66 27q39 0 67 -27.5t28 -68.5q0 -38 -38 -130.5t-76 -165.5l-38 -73z" />
<glyph unicode="&#x201e;" horiz-adv-x="706" d="M94 -227q25 87 37 151.5t12 90t-3 50.5t-3 29q0 38 28 65t66 27q39 0 67 -27.5t28 -68.5q0 -38 -38 -130.5t-76 -165.5l-38 -73zM393 -227q25 87 37 151.5t12 90t-3 50.5t-3 29q0 38 28 65t66 27q39 0 67 -27.5t28 -68.5q0 -38 -38 -130.5t-76 -165.5l-38 -73z" />
<glyph unicode="&#x2022;" horiz-adv-x="454" d="M86 616q0 58 41 99t100 41q58 0 100 -41t42 -99q0 -57 -42.5 -99t-99.5 -42q-58 0 -99.5 42t-41.5 99z" />
<glyph unicode="&#x2026;" horiz-adv-x="1001" d="M115 94q0 38 28 65t66 27t66 -27t28 -65t-28 -66t-66 -28t-66 28t-28 66zM414 94q0 38 28 65t66 27t66 -27t28 -65t-28 -66t-66 -28t-66 28t-28 66zM700 94q0 38 28 65t67 27q38 0 66 -27t28 -65t-28 -66t-66 -28t-66.5 28t-28.5 66z" />
<glyph unicode="&#x202f;" horiz-adv-x="379" />
<glyph unicode="&#x2039;" horiz-adv-x="378" d="M37 592v53l145 318h111l-156 -345l156 -342h-113z" />
<glyph unicode="&#x203a;" horiz-adv-x="378" d="M86 276l156 342l-156 345h111l145 -318v-53l-143 -316h-113z" />
<glyph unicode="&#x205f;" horiz-adv-x="474" />
<glyph unicode="&#x20ac;" horiz-adv-x="776" d="M59 418v43q0 46 15 53.5t106 7.5h41l-8 25v53l8 18q-89 6 -129 -2l-26 5v43v1q0 45 15 52.5t105 7.5h35l-8 31q3 102 14.5 164.5t40.5 109.5t80 66.5t133 19.5l203 -14q0 -70 -12.5 -82t-89.5 -12h-101q-84 0 -114 -56.5t-35 -201.5l-13 -33q228 -20 283 -8l27 -4v-43 v-26.5t-5 -16.5t-9.5 -11t-22 -5t-33 -3h-51.5q-67 0 -184 10l8 -20v-51l-8 -27q12 -1 46 -3.5t47.5 -3.5t41 -2.5t42.5 -1.5h35t34 1t26 4l27 -4v-43v-26.5t-5 -16.5t-9.5 -11t-22 -5t-33 -3h-51.5q-25 0 -178 9l8 -25q5 -157 34 -221t115 -64h203v-94l-203 -14 q-69 0 -115.5 15.5t-76 43.5t-45.5 80t-22.5 111.5t-8.5 152.5l10 25q-95 6 -137 -2z" />
<glyph unicode="&#x2122;" horiz-adv-x="1105" d="M94 1403v96h309v-96h-112l4 -37v-604h-92v604l4 37h-113zM471 762v737h88l160 -328h16l158 328h88v-737h-88v569l-115 -262h-102l-117 262v-569h-88z" />
<glyph unicode="&#x25fc;" horiz-adv-x="1095" d="M0 0v1096h1096v-1096h-1096z" />
</font>
</defs>
</svg>
