<?xml version="1.0" standalone="no"?>
<!DOCTYPE svg PUBLIC "-//W3C//DTD SVG 1.1//EN" "http://www.w3.org/Graphics/SVG/1.1/DTD/svg11.dtd" >
<svg xmlns="http://www.w3.org/2000/svg" xmlns:xlink="http://www.w3.org/1999/xlink" version="1.1">
<metadata></metadata>
<defs>
<font id="economicabold" horiz-adv-x="839" >
<font-face units-per-em="2048" ascent="1638" descent="-410" />
<missing-glyph horiz-adv-x="389" />
<glyph unicode="&#xfb01;" horiz-adv-x="864" d="M41 928v172h113l-19 51q0 166 11 213q16 64 71 87q57 23 240 24h47h254v-146h-254h-50.5t-40 -2t-32.5 -2.5t-22.5 -7.5t-18 -10.5t-11 -17.5t-8 -22.5t-2.5 -31t-2 -38.5v-50l-20 -47h276h61t44 -2.5t33.5 -3.5t20.5 -9.5t14.5 -14t5.5 -22.5t4 -30v-41v-985h-61 t-44 2.5t-33.5 3.5t-20.5 9.5t-14.5 14t-5.5 22.5t-4 30v41v813h-278l20 -60v-1108q-1 -89 -11 -109q-13 -27 -65 -32q-25 -2 -106 -2l2 1251l19 60h-113z" />
<glyph unicode="&#xfb02;" horiz-adv-x="888" d="M41 928v172h113l-19 51q0 166 11 213q16 64 71 87q57 23 240 24h47h104h49t38.5 -1.5t31.5 -2t22.5 -5t18 -7t10.5 -11.5t7.5 -15.5t3 -21.5t2.5 -27v-34v-1358h-61t-44 2.5t-33.5 3.5t-20.5 9.5t-14.5 14t-5.5 22.5t-4 30v41v1214h-104h-50.5t-40 -2t-32.5 -2.5 t-22.5 -7.5t-18 -10.5t-11 -17.5t-8 -22.5t-2.5 -31t-2 -38.5v-50l-20 -47h203v-172h-205l20 -60v-1108q-1 -89 -11 -109q-13 -27 -65 -32q-25 -2 -106 -2l2 1251l19 60h-113z" />
<glyph unicode="&#xfb03;" horiz-adv-x="1353" d="M41 928v172h113l-19 51q0 166 11 213q16 64 71 87q57 23 240 24h47v-146h-50.5t-40 -2t-32.5 -2.5t-22.5 -7.5t-18 -10.5t-11 -17.5t-8 -22.5t-2.5 -31t-2 -38.5v-50l-20 -47h309l-18 51v7v101t6 74t12.5 58t28 37t42.5 27t66.5 11.5t90.5 8t122 0.5h281v-146h-283h-61.5 t-44.5 -4t-33.5 -5.5t-21 -14.5t-14.5 -20.5t-5.5 -33.5t-3.5 -44v-60l-20 -47h305h50t38.5 -1.5t31.5 -1.5t22.5 -5t17.5 -7t10 -11.5t7.5 -15t2.5 -21.5t2 -26.5v-33.5v-985h-50t-38.5 1.5t-31.5 1.5t-22.5 5t-17.5 7t-10 11.5t-7.5 15t-2.5 21.5t-2 26.5v33.5v813h-307 l20 -60v-1108q-1 -89 -11 -109q-13 -27 -65 -32q-27 -2 -106 -2l2 1251l18 60h-311l20 -60v-1108q-1 -89 -11 -109q-13 -27 -65 -32q-25 -2 -106 -2l2 1251l19 60h-113z" />
<glyph unicode="&#xfb04;" horiz-adv-x="1384" d="M41 928v172h113l-19 51q0 166 11 213q16 64 71 87q57 23 240 24h47v-146h-50.5t-40 -2t-32.5 -2.5t-22.5 -7.5t-18 -10.5t-11 -17.5t-8 -22.5t-2.5 -31t-2 -38.5v-50l-20 -47h313l-18 51q0 166 11 213q16 64 71 87q57 23 240 24h47h139h77t49 -5.5t33.5 -10t14.5 -22.5 t8 -34v-53v-1358h-50t-38.5 1.5t-31.5 1.5t-22.5 5t-17.5 7t-10 11.5t-7.5 15t-2.5 21.5t-2 26.5v33.5v1214h-139h-50.5t-40 -2t-32.5 -2.5t-22.5 -7.5t-18 -10.5t-11 -17.5t-8 -22.5t-2.5 -31t-2 -38.5v-50l-20 -47h202v-172h-204l20 -60v-1108q-1 -89 -11 -109 q-13 -27 -65 -32q-27 -2 -106 -2l2 1251l18 60h-315l20 -60v-1108q-1 -89 -11 -109q-13 -27 -65 -32q-25 -2 -106 -2l2 1251l19 60h-113z" />
<glyph horiz-adv-x="0" />
<glyph horiz-adv-x="682" />
<glyph unicode=" "  horiz-adv-x="389" />
<glyph unicode="&#x09;" horiz-adv-x="389" />
<glyph unicode="&#xa0;" horiz-adv-x="389" />
<glyph unicode="!" horiz-adv-x="497" d="M70 129q4 50 43.5 83t89.5 30q49 -4 82 -43.5t28 -89.5q-4 -49 -42.5 -81.5t-88.5 -27.5t-82.5 42.5t-29.5 86.5zM129 358l29 975q1 86 35.5 103t166.5 6l-47 -979q-6 -74 -14 -89q-12 -24 -62 -23q-25 0 -108 7z" />
<glyph unicode="&#x22;" horiz-adv-x="710" d="M57 1114q45 113 45 180q0 14 -9 41t-9 43q0 51 37 86t88 35q110 0 110 -110q0 -41 -37.5 -132.5t-75.5 -162.5l-38 -72l-100 57zM383 1114q45 113 45 180q0 14 -9 41t-9 43q0 51 37 86t88 35q110 0 110 -110q0 -41 -37.5 -132.5t-75.5 -162.5l-38 -72l-101 57z" />
<glyph unicode="#" horiz-adv-x="1318" d="M37 475v158h280l101 250h-297v157h362l179 447h167l-176 -447h254l178 447h168l-178 -447h209v-157h-274l-99 -250h289v-158h-352l-191 -475h-168l189 475h-254l-191 -475h-167l188 475h-217zM487 633h254l101 250h-254z" />
<glyph unicode="$" horiz-adv-x="802" d="M94 811v47.5t2 44t5.5 43.5t10.5 38t17.5 36.5t26.5 29.5t37 26.5t50 18.5t64 13l2 174h41.5t32 -1.5t26 -1.5t18.5 -5t14.5 -6.5t8.5 -11.5t6 -14.5t1.5 -21t1.5 -25v-32.5l2 -80l123 -24q-7 -37 -11.5 -59t-12 -38.5t-13.5 -23.5t-19 -10t-24 -1.5t-33 5.5l-80 14 q-20 4 -36 4t-28 -2t-21.5 -8.5t-15.5 -13t-10.5 -17.5t-6.5 -19.5t-3.5 -22t-1.5 -22.5v-24q0 -43 40 -89t97 -88t113.5 -85.5t96.5 -97t40 -107.5q0 -42 -0.5 -65.5t-4 -62.5t-10.5 -62.5t-20.5 -54t-33 -50t-49.5 -37t-68 -26.5l-2 -232h-64t-40.5 5t-27.5 9t-12 22 t-7 32.5t-1 50.5l-2 111q-33 6 -98 14.5t-98 14.5v145q21 -1 112 -11t140 -10q21 0 37.5 5.5t27 11.5t17.5 21.5t10.5 25t5.5 33t2 34.5v39q0 38 -38.5 84.5t-93.5 92.5t-110.5 95t-94 107.5t-38.5 114.5z" />
<glyph unicode="%" horiz-adv-x="1302" d="M133 1165q0 123 21 192t59.5 94.5t103.5 25.5t101.5 -25.5t56 -94t19.5 -192.5t-19 -194.5t-56.5 -98.5t-101.5 -28t-103 27.5t-60 99t-21 194.5zM236 0l591 1475h203l-590 -1475h-204zM256 1163q0 -55 1 -80t6.5 -55.5t18.5 -41.5t35 -11q14 0 24.5 5t17 18.5t10.5 26.5 t5.5 39t2 44.5t0.5 54.5q0 35 -0.5 53.5t-2 44t-5.5 39t-10.5 27.5t-17 19.5t-24.5 5.5q-15 0 -25.5 -5.5t-17.5 -19.5t-10.5 -27t-5 -39.5t-2 -44t-0.5 -53.5zM780 322q0 123 21.5 192t60 94t103.5 25t101.5 -25.5t55.5 -93.5t19 -192q0 -183 -40.5 -252.5t-135.5 -69.5 q-64 0 -103 28t-60.5 99.5t-21.5 194.5zM903 319q0 -54 1 -80t7 -55.5t19 -41t35 -11.5q14 0 24.5 5t17 19t10 26t5 39t2 44.5t0.5 54.5q0 36 -0.5 53.5t-2 44t-5 39.5t-10 27t-17 19.5t-24.5 5.5q-11 0 -20 -3t-15.5 -11t-11 -16t-7.5 -23t-4.5 -27t-2.5 -33t-1 -35.5 v-40.5z" />
<glyph unicode="&#x26;" horiz-adv-x="1128" d="M82 434q0 110 41 204.5t106 156.5q-53 44 -80.5 101.5t-27.5 162.5q0 358 301 358l264 -20q0 -94 -14.5 -118.5t-75.5 -25.5l-174 -4q-29 0 -48 -6.5t-37 -25t-27 -58t-9 -100.5q0 -49 8 -82t20.5 -51.5t37 -28t48 -12t64.5 -2.5v-174q-92 -5 -154.5 -79.5t-62.5 -197.5 q0 -140 51.5 -209t167.5 -69q217 0 217 278v221l11 56h-105v163h105l-11 43v91q51 0 73.5 -0.5t48 -5t33.5 -11t16 -23t9 -35.5t1 -54l182 -5q0 -37 -1 -54.5t-6 -40t-16 -32t-31.5 -20t-51.5 -13.5t-76 -3h-27l27 -60v-217q0 -225 -94.5 -335.5t-303.5 -110.5 q-211 0 -305 109.5t-94 338.5z" />
<glyph unicode="'" horiz-adv-x="376" d="M55 1114q45 113 45 180q0 14 -9 41t-9 43q0 51 37 86t88 35q110 0 110 -110q0 -41 -37.5 -132.5t-75.5 -162.5l-38 -72l-100 57z" />
<glyph unicode="(" horiz-adv-x="555" d="M72 657q0 143 1 213t6 178t16.5 158t32 121t52 101.5t77 64.5t108 45.5t143.5 11.5v-43t-1.5 -33.5t-2 -27.5t-5.5 -19.5t-7.5 -15.5t-12 -9.5t-16 -6.5t-23 -2t-28 -2h-35.5q-79 0 -97 -153t-18 -558v-23v-23q0 -398 18 -543.5t97 -145.5h44t31.5 -3.5t24 -5t15 -13 t10 -18t4 -29.5t2.5 -38.5v-52.5q-73 0 -130 12t-101 27t-76 55t-54 69.5t-36.5 99t-22.5 114t-11.5 144.5t-4 160.5t-0.5 190.5z" />
<glyph unicode=")" horiz-adv-x="550" d="M45 -162.5q0 15.5 2.5 38.5t4 29.5t10 18t15 13t24 5t31.5 3.5h44q78 0 95.5 145t17.5 543v8.5v7v8.5q0 407 -12 526q-17 180 -78 204q-10 4 -23 4h-35.5t-28 2t-23 2t-16 6.5t-12 9.5t-7.5 15.5t-5.5 19.5t-2 27.5t-1.5 33.5v43q81 0 143 -11.5t107.5 -45.5t77 -64.5 t51.5 -101.5t31.5 -121t16.5 -158t6 -178t1 -213q0 -354 -15 -481q-23 -209 -111 -296q-95 -95 -308 -95v52.5z" />
<glyph unicode="*" horiz-adv-x="657" d="M55 1139v168l168 -21l-114 135l145 84l76 -153l67 155l148 -84l-109 -137l164 21l2 -168l-170 20l117 -135l-150 -82l-69 156l-74 -152l-147 82l112 131z" />
<glyph unicode="+" horiz-adv-x="552" d="M37 584v151h166l-10 51v134h165v-134l-12 -51h170v-151h-170l12 -47v-140h-165v135l10 52h-166z" />
<glyph unicode="," horiz-adv-x="354" d="M53 -141q45 113 45 180q0 14 -9 41t-9 43q0 51 37 86t88 35q110 0 110 -111q0 -41 -37.5 -132.5t-75.5 -162.5l-38 -71l-101 57z" />
<glyph unicode="-" horiz-adv-x="667" d="M92 575v168h481v-168h-481z" />
<glyph unicode="." horiz-adv-x="372" d="M63 123q0 52 36.5 86.5t86.5 34.5t86.5 -34.5t36.5 -86.5q0 -49 -36.5 -86t-86.5 -37t-86.5 37t-36.5 86z" />
<glyph unicode="/" horiz-adv-x="815" d="M12 -383l586 1858h197l-588 -1858h-195z" />
<glyph unicode="0" d="M123 735q0 124 0.5 181.5t4.5 149t12.5 131.5t24 99t40 82.5t59.5 51.5t82.5 36.5t110.5 8.5q62 0 109.5 -8.5t82 -36.5t58.5 -51t39.5 -82t24 -98.5t12.5 -130.5t4.5 -148t0.5 -180v-5q0 -324 -14 -436q-23 -184 -105 -253q-73 -60 -212 -60q-62 0 -110 9.5t-83 38 t-59.5 53.5t-40 85t-24 100.5t-12.5 133t-4.5 149.5t-0.5 180zM313 735q0 -320 23 -444.5t121 -124.5q96 0 118.5 124t22.5 445q0 296 -14 390q-20 138 -88 163q-18 6 -39 6q-98 0 -121 -120t-23 -439z" />
<glyph unicode="1" d="M123 0v57.5t2.5 43t5 33.5t11 21t17 15.5t26.5 7t36 4.5h49h95l-13 29v1063l-123 -21v174l154 23h14h60.5t39.5 -5t27 -10t12 -22t7 -34v-52v-1116l-13 -29h234v-182h-641z" />
<glyph unicode="2" d="M123 1385v67l274 23q77 0 134.5 -9.5t96 -21.5t64.5 -40.5t39.5 -50.5t20 -68t7.5 -75.5t1 -89.5q0 -54 -24 -107.5t-62 -99.5t-84.5 -91t-93 -89t-84.5 -87t-62 -91.5t-24 -95.5v-269l-2 -12h436v-178h-633v473q0 54 23.5 108t61.5 99.5t84 90.5t92 88.5t84 86.5 t61.5 92t23.5 97q0 35 -1.5 53t-10 42t-25.5 35.5t-49 20t-80 8.5h-135h-57t-36 7t-24 12.5t-10.5 29t-5.5 42.5z" />
<glyph unicode="3" d="M123 20v160q17 -1 118 -10.5t154 -9.5q87 0 105 58t18 280t-17.5 275.5t-105.5 53.5h-145l188 451h-313v172h584l-191 -457q32 -5 56.5 -13t44 -18t33.5 -28t24 -33.5t16.5 -45t10.5 -53t5.5 -66.5t2 -76t0.5 -91v-71q0 -79 -0.5 -115t-2 -94.5t-5.5 -82.5t-11.5 -64.5 t-18.5 -54.5t-28 -38t-38.5 -31t-51.5 -17t-66 -12.5t-83 -2.5q-42 0 -88.5 5.5t-106 15t-88.5 13.5z" />
<glyph unicode="4" d="M20 475l455 975h199v-774l-12 -29h90v-172h-90q0 -2 5.5 -13.5t6.5 -12.5l-4 -449h-49t-38 1.5t-31 2t-22 4.5t-17.5 7t-10.5 12t-7.5 15t-3 21t-2.5 26.5v33.5v321l13 31h-482zM303 647h199l-13 29v411z" />
<glyph unicode="5" d="M123 0v160h272q89 0 107 58t18 280t-17.5 275.5t-107.5 53.5h-272v625l567 -2v-172h-387q0 -2 5.5 -14t6.5 -13v-223l-10 -31h152q48 0 84 -5t63 -22.5t45 -31.5t30 -53.5t18.5 -65t9.5 -89t3.5 -103.5t0.5 -129q0 -78 -0.5 -115t-2.5 -95t-5.5 -82.5t-11.5 -64t-19 -54 t-28 -38t-39 -31t-52 -17.5t-66.5 -12.5t-83.5 -2.5z" />
<glyph unicode="6" d="M123 604q0 94 0.5 143.5t2.5 132t6.5 127.5t13 112t21.5 103.5t31 84t44 73t58 50.5t74 35t93 10l264 -25v-66t-5.5 -42t-10.5 -28.5t-23.5 -12.5t-35.5 -7h-56h-133q-63 0 -91 -71t-44 -242l100 31q50 0 88.5 -2t71 -12t56 -16.5t42 -29.5t30 -36.5t19.5 -53t12 -62.5 t6 -81t2.5 -93.5t0.5 -113.5q0 -76 -0.5 -114.5t-2.5 -95t-6 -82.5t-12 -64.5t-19.5 -54t-29.5 -38.5t-40.5 -31t-53.5 -17.5t-68.5 -12t-85.5 -2.5q-58 0 -103.5 8t-78.5 30.5t-56.5 44.5t-38.5 68t-23.5 82.5t-12.5 106t-5 120.5t-1 144zM313 604q0 -232 10 -299 q16 -105 75 -126q19 -7 44 -7q90 0 108.5 58t18.5 282q0 207 -19 266t-99 62l-136 -39z" />
<glyph unicode="7" d="M82 0l473 1278h-420v172h639v-137l-495 -1313h-197z" />
<glyph unicode="8" d="M61 434q0 113 42.5 206.5t107.5 154.5q-111 124 -111 313q0 105 25.5 182t70.5 119t97 61t113 19t113.5 -19.5t97.5 -61.5t70.5 -118.5t25.5 -181.5q0 -103 -30.5 -188t-76.5 -140q144 -133 144 -346t-95.5 -330.5t-248.5 -117.5q-154 0 -249.5 116t-95.5 332zM252 432 q0 -127 42.5 -196.5t111.5 -69.5t110 69t41 197q0 122 -47.5 196t-103.5 74q-57 0 -105.5 -74t-48.5 -196zM293 1108q0 -223 113 -223q116 0 116 223q0 115 -30.5 159t-85.5 44q-53 0 -83 -44.5t-30 -158.5z" />
<glyph unicode="9" d="M123 959v4q0 77 0.5 114.5t2.5 94.5t6 82.5t12 64.5t19.5 54t29 38.5t40 31t53.5 17.5t68.5 12.5t85.5 2.5q61 0 104 -4t78 -21.5t57 -33t38.5 -58t24 -76.5t12 -108.5t5.5 -134t1 -171.5q0 -102 -0.5 -158.5t-4 -145t-10 -138.5t-19 -118.5t-31 -106.5t-46.5 -82.5 t-64 -66.5t-85 -37t-109 -15l-260 25v153h264q67 0 102.5 78.5t53.5 253.5l-105 -49q-50 0 -88 2t-70 12t-54.5 16.5t-40.5 29.5t-29.5 37t-19.5 53t-12 62t-6 80.5t-2.5 93t-0.5 112.5zM313 963q0 -200 22.5 -262.5t102.5 -65.5l129 49l2 184v31q0 272 -18 338t-111 66 q-90 0 -108.5 -57.5t-18.5 -282.5z" />
<glyph unicode=":" horiz-adv-x="393" d="M70 123q0 52 36.5 86.5t86.5 34.5t86 -34.5t36 -86.5q0 -50 -36.5 -86.5t-85.5 -36.5t-86 37t-37 86zM82 979q0 52 36.5 86.5t86.5 34.5q51 0 88 -35t37 -86q0 -49 -37.5 -86t-87.5 -37q-49 0 -86 37t-37 86z" />
<glyph unicode=";" horiz-adv-x="387" d="M53 -141q45 113 45 180q0 14 -9 41t-9 43q0 51 37 86t88 35q110 0 110 -111q0 -41 -37.5 -132.5t-75.5 -162.5l-38 -71l-101 57zM92 979q0 52 36.5 86.5t88.5 34.5q50 0 86.5 -34.5t36.5 -86.5q0 -49 -37 -86t-86 -37q-51 0 -88 36.5t-37 86.5z" />
<glyph unicode="&#x3c;" horiz-adv-x="546" d="M25 578v69l268 453h188l-286 -488l288 -503h-190z" />
<glyph unicode="=" horiz-adv-x="753" d="M92 401v170h592v-170h-592zM92 672v170h592v-170h-592z" />
<glyph unicode="&#x3e;" horiz-adv-x="542" d="M63 109l285 503l-285 488h187l268 -453v-69l-268 -469h-187z" />
<glyph unicode="?" horiz-adv-x="696" d="M61 1384.5v65.5l213 25q67 0 118.5 -5t89 -19.5t64 -27.5t43 -41.5t25.5 -48t13.5 -60.5t5 -65.5t0.5 -77.5v-10q0 -78 -31.5 -154.5t-77 -137.5t-91.5 -118t-81 -119t-39 -118v-88h-184v88q2 75 34.5 151.5t78.5 139.5t91.5 123.5t77 125t31.5 122.5q0 33 -2 52.5 t-11.5 42.5t-28 35t-52 20.5t-82.5 8.5h-73h-56t-36 7t-24 12.5t-10.5 28.5t-5.5 42.5zM94 123q0 52 36.5 86.5t86.5 34.5t86.5 -34.5t36.5 -86.5q0 -49 -37 -86t-86 -37t-86 37t-37 86z" />
<glyph unicode="@" horiz-adv-x="1112" d="M84 801q0 59 4 95.5t19 74.5t43.5 59.5t78.5 37t123 19.5l467 27q68 2 113 -12.5t67.5 -46t30.5 -68.5t8 -90v-307q0 -71 -1.5 -104t-10 -73.5t-24.5 -55t-48.5 -30t-77.5 -19t-116 -3.5h-21q-36 0 -61.5 11.5t-36 24t-23.5 34.5l-102 -80q-36 0 -56 0.5t-41.5 6.5 t-31 10.5t-20 23t-13.5 33t-6.5 51t-3.5 67.5v91v71q0 185 293 189h119v-373h4q25 0 41.5 2t29.5 4t20.5 10t12 14t6 21.5t2 26.5t0.5 36v7v321q0 44 -45 39l-473 -28q-29 -2 -48.5 -9t-30 -15.5t-15.5 -25.5t-5.5 -28.5t-0.5 -34.5q0 -399 20.5 -527t114.5 -128h350 q33 0 54.5 -2.5t36.5 -13.5t22 -20t11 -35.5t4.5 -45.5t0.5 -64h-485q-153 0 -217 90q-62 86 -75 311q-7 112 -7 431zM487 541q-1 -20 0.5 -34.5t4.5 -22.5t5 -12t5.5 -7t3.5 -4l92 43v174l-88 -8z" />
<glyph unicode="A" horiz-adv-x="925" d="M41 76q0 11 5 38t35.5 165.5t92 410t178.5 785.5h197l336 -1475h-68h-60t-39.5 6t-27.5 10t-15.5 23t-12.5 33.5t-11 52.5l-69 346h-258l-84 -471h-47q-97 0 -124.5 11t-27.5 65zM348 668h211q-1 2 -9 19.5t-9 19.5l-80 395h-21l-75 -400z" />
<glyph unicode="B" horiz-adv-x="907" d="M123 2v1475l280 22q77 0 135 -11t97 -26t65 -49.5t39.5 -60t20 -80.5t7.5 -89t1 -106q0 -111 -10 -163t-45 -101q74 -64 103.5 -144t29.5 -251q0 -69 -1.5 -105.5t-9 -90.5t-22.5 -82.5t-44 -63t-71.5 -51t-106 -28t-147.5 -11.5zM301 150h141q52 0 89 6t62 21t40 33 t22.5 49.5t10 63t2.5 80.5q0 62 -3.5 103.5t-16.5 87.5t-37 73.5t-66.5 45.5t-102.5 18h-141l18 -43v-495zM303 877h98q65 0 98.5 6t55 29.5t26.5 59t5 105.5q0 72 -6 113t-25 73.5t-56 45t-98 12.5h-94l15 -43v-360z" />
<glyph unicode="C" horiz-adv-x="823" d="M102 750q0 92 0.5 137t3.5 124.5t9.5 120t19 101.5t31 92.5t47 71t65 57.5t86.5 31.5t111 13.5l285 -65q-18 -119 -62 -147q-24 -15 -71 -15q-43 0 -105 12l-57 14q-40 0 -68.5 -17t-45.5 -59t-27.5 -79.5t-14.5 -115.5t-5 -127t-1 -150t1 -150.5t5 -127t14.5 -115.5 t27.5 -80t45.5 -59t68.5 -17q61 0 164 9t133 11v-198q-21 -2 -124 -19.5t-163 -17.5q-61 0 -111 13.5t-86.5 32.5t-65 59.5t-47 73t-31 95t-19 103.5t-9.5 121.5t-3.5 126.5t-0.5 139z" />
<glyph unicode="D" horiz-adv-x="983" d="M123 0v1479l389 20q55 0 100 -8.5t80 -30t62.5 -42.5t47 -62.5t33.5 -72t22.5 -89t13.5 -95.5t7 -110t2.5 -114.5t0.5 -124.5q0 -119 -1 -177.5t-7.5 -156t-20 -146.5t-40 -113.5t-65.5 -95t-98.5 -53t-136.5 -22.5zM299 168h213q32 0 57.5 10.5t43.5 37t30.5 51.5 t20.5 74t12.5 83.5t6.5 101.5t2.5 106t0.5 118q0 78 -0.5 116.5t-2.5 104t-6.5 99t-12.5 81t-20.5 71.5t-30.5 49.5t-43.5 35.5t-57.5 10h-211l16 -51v-1047z" />
<glyph unicode="E" horiz-adv-x="827" d="M123 0v1475h622v-175h-440l19 -51v-313l-19 -51h416v-183h-414l17 -47v-422l-19 -51h461v-182h-643z" />
<glyph unicode="F" horiz-adv-x="806" d="M123 83.5v41.5v1350h622v-175h-440l19 -51v-313l-19 -51h416v-183h-414l17 -47v-655h-52h-49t-36 2.5t-27.5 4t-17 9.5t-12 14t-4.5 23t-3 30.5z" />
<glyph unicode="G" horiz-adv-x="940" d="M123 750q0 83 0.5 124.5t2.5 114.5t7 110t13.5 95.5t22.5 89t33.5 72t47 62.5t62.5 42.5t80 30t100 8.5l305 -65q-6 -42 -12 -67.5t-18.5 -44t-25.5 -26t-40 -9t-55 2.5t-77 13l-77 14q-32 0 -57.5 -10t-43.5 -35.5t-31 -50t-21 -71.5t-12.5 -81t-6.5 -98.5t-2.5 -104.5 t-0.5 -116q0 -77 0.5 -117.5t2.5 -106.5t6.5 -101.5t12.5 -84t21 -74t31 -51.5t43.5 -36.5t57.5 -10.5q34 0 97.5 9.5t74.5 10.5l-17 52v393v50t2.5 36t3.5 27.5t10 17t13.5 11.5t22.5 4.5t29.5 3t41.5 -0.5h68v-762q-35 -4 -108 -13.5t-130 -15t-108 -5.5 q-77 0 -136.5 22.5t-98.5 53t-65.5 95t-40 113.5t-20 146.5t-7.5 156t-1 177.5z" />
<glyph unicode="H" horiz-adv-x="952" d="M123 0v1475h43h48.5t35 -2.5t27 -4t17 -9.5t12 -14t4.5 -23t3 -30.5v-41.5v-414l-8 -51h338l-6 51v539h45h48.5t35 -2.5t27 -4t17 -9.5t12 -14t4.5 -23t3 -30.5v-41.5v-1350h-41h-50t-36.5 2.5t-28 4t-17 9.5t-12 14t-4.5 23t-3 30v42v534l16 43h-356l16 -47v-530v-41.5 t-3 -30.5t-4.5 -23t-12 -14t-17 -9.5t-27 -4t-35 -2.5h-48.5h-43z" />
<glyph unicode="I" horiz-adv-x="440" d="M123 83.5v41.5v1350h43h50t36.5 -2.5t28 -4t17 -9.5t12 -14t4.5 -23t3 -30v-42v-1350h-47h-48.5t-35 2.5t-27 4t-17 9.5t-12 14t-4.5 23t-3 30.5z" />
<glyph unicode="J" horiz-adv-x="438" d="M-80 -229q50 0 85.5 15.5t57.5 55.5t34.5 75.5t18 112t6.5 125.5t1 152v1168h45h48.5t35 -2.5t27 -4t17 -9.5t12 -14t4.5 -23t3 -30.5v-41.5v-1043q0 -92 -0.5 -137t-4 -121t-10.5 -113t-20 -93.5t-32.5 -83.5t-49.5 -62t-69 -50t-91.5 -26.5t-117.5 -11.5v162z" />
<glyph unicode="K" horiz-adv-x="950" d="M123 0v1475h43h48.5t35 -2.5t27 -4t17 -9.5t12 -14t4.5 -23t3 -30.5v-41.5v-1225v-41.5t-3 -30.5t-4.5 -23t-12 -14t-17 -9.5t-27 -4t-35 -2.5h-48.5h-43zM342 743l344 732h31q83 0 111 -9t28 -49q0 -18 -215 -476q-57 -124 -92 -198l360 -743h-61q-100 0 -138 19.5 t-71 93.5z" />
<glyph unicode="L" horiz-adv-x="759" d="M123 0v1475h51h63t40.5 -5t27.5 -10t12 -22.5t7 -34v-53.5v-1117l-19 -51h264h49.5t35.5 -2.5t27.5 -4t17 -9.5t12 -14.5t5 -23.5t3.5 -31v-42v-55h-596z" />
<glyph unicode="M" horiz-adv-x="1138" d="M92 0v1475h47h56t38.5 -4.5t29 -9t20 -20.5t20.5 -31t23 -48l223 -510h41l274 623h31h49t36 -2.5t27.5 -4t17 -9.5t12 -14t4.5 -23t3 -30.5v-41.5v-1350h-45h-48.5t-35 2.5t-27 4t-17 9.5t-12 14t-4.5 23t-3 30.5v41.5l-2 932h-6l-152 -367l-55 -102h-135l-56 102 l-155 369h-6v-934v-53.5t-7 -34t-12 -22.5t-27 -10t-40 -5h-62h-45z" />
<glyph unicode="N" horiz-adv-x="892" d="M92 0v1475h45h45t33.5 -2.5t26.5 -3.5t18.5 -9t15.5 -13t12 -21t13 -27.5t14 -38.5l281 -909h10v1024h45h62t40 -5t27 -10t12 -22.5t7 -34v-53.5v-1350h-62h-45.5t-34 2t-27 4t-19 8.5t-16.5 13t-12 21t-13 28t-13 38.5l-264 884h-10v-874v-53.5t-7 -34t-12 -22.5 t-27 -10t-40 -5h-62h-43z" />
<glyph unicode="O" horiz-adv-x="997" d="M102 750q0 400 89 574.5t311 174.5q90 0 156.5 -28.5t112 -85t73 -148t39.5 -209.5t12 -278q0 -165 -10 -280.5t-35 -212t-69.5 -153.5t-113 -87.5t-165.5 -30.5t-166 30.5t-114.5 87.5t-72 153t-37 213t-10.5 280zM297 750q0 -293 45.5 -437.5t159.5 -144.5 q58 0 98 38.5t63 116t32.5 180t9.5 245.5q0 569 -203 569q-205 0 -205 -567z" />
<glyph unicode="P" horiz-adv-x="956" d="M123 0v1477l332 22q84 0 147.5 -11t106 -26t71 -49t43 -59.5t22 -80t8.5 -88t1 -104.5q0 -68 -1.5 -103.5t-8.5 -87.5t-22.5 -78.5t-43.5 -59t-70.5 -47.5t-105 -26t-145.5 -11h-142v-543v-53.5t-6.5 -34t-11 -22.5t-26.5 -9.5t-40 -5.5h-63h-45zM299 850h158 q59 0 96.5 9.5t58.5 22t30.5 47t11 61.5t1.5 89v2q0 118 -12 155q-19 57 -90 73q-38 8 -96 8h-158l16 -51v-369z" />
<glyph unicode="Q" horiz-adv-x="993" d="M102 750q0 162 11 278.5t38 209t73 148t114.5 84.5t163.5 29t163 -29t113.5 -84t72 -148.5t37.5 -209.5t11 -278q0 -322 -51.5 -497.5t-179.5 -234.5h2l-209 -149q58 -6 239.5 -28.5t291.5 -32.5q74 -7 112 -7q19 0 29 2l47 -4v-90v-37.5t-6 -24t-10.5 -16t-25 -7 t-37 -3.5h-57.5q-49 0 -390 49q-283 41 -372 41q-18 0 -28 -2l-45 4v49q0 24 1 35.5t4.5 27.5t13 26t24.5 16l156 129q-169 34 -237.5 214t-68.5 540zM297 750q0 -293 45.5 -437.5t159.5 -144.5q59 0 99 38t62.5 116t32 180t9.5 246q0 145 -9 244.5t-31 175.5t-62.5 112.5 t-100.5 36.5q-49 0 -85 -24.5t-59 -69t-36.5 -116.5t-19 -156.5t-5.5 -200.5z" />
<glyph unicode="R" horiz-adv-x="962" d="M123 0v1477l293 22q76 0 133 -11t95.5 -26t64 -49t39 -59.5t20 -80t7.5 -88t1 -104.5q0 -61 -2 -105t-8.5 -92t-19 -81.5t-32 -62.5t-49 -45.5t-69.5 -20.5l326 -674h-68q-102 0 -139 20t-68 89l-252 559h-96l18 -52l2 -491v-41.5t-3 -30.5t-4.5 -23t-12 -14t-17 -9.5 t-27 -4t-35 -2.5h-48.5h-49zM299 1317l18 -51v-369l-16 -47h119q26 0 47 3t37 6.5t27.5 14t19.5 17.5t13 25.5t8 30t4.5 38.5t1.5 43.5v52.5v53t-1.5 44t-4.5 39t-8 31t-13 26.5t-19.5 18t-27.5 14.5t-37 7t-47 3h-121z" />
<glyph unicode="S" horiz-adv-x="892" d="M82 29v174q28 -1 151 -11t189 -10q38 0 67.5 7t48.5 19.5t32 30.5t19 39.5t10 46t3.5 51t-0.5 54.5q0 30 -12 61t-23.5 50.5t-46 54t-47.5 46t-59 50.5q-10 9 -15 13q-133 117 -181 169q-126 137 -126 265q0 62 1 91.5t7.5 76.5t20 68.5t39.5 50.5t65 41.5t97 22t135 9.5 l278 -59q-6 -43 -11 -67.5t-15.5 -44t-20.5 -27t-32.5 -10t-45.5 0.5t-65 11l-78 14q-49 0 -82 -9t-50.5 -21t-26 -37t-10 -44t-1.5 -55q0 -40 36.5 -91t69 -81t106.5 -92q10 -9 15 -13q59 -46 101 -84.5t89 -90t72 -105t25 -105.5q0 -68 -1 -103.5t-8.5 -98t-21.5 -97 t-42.5 -79.5t-69.5 -68t-104.5 -40t-145.5 -17q-50 0 -106 7.5t-123.5 19t-106.5 16.5z" />
<glyph unicode="T" horiz-adv-x="743" d="M41 1300v175h661v-175h-249l18 -51v-1124v-41.5t-3 -30.5t-4.5 -23t-12 -14t-17 -9.5t-27.5 -4t-36 -2.5h-49h-50v1249l15 51h-246z" />
<glyph unicode="U" horiz-adv-x="964" d="M125 604v10v861h49h49t36 -2.5t27 -4t16.5 -9.5t12 -14t4.5 -23t3 -30v-42v-801q0 -59 0.5 -93t3 -77.5t7 -67t12.5 -51.5t20 -42t29.5 -27t41 -18t53.5 -5q43 0 73 9.5t49.5 39.5t30 56.5t15.5 89.5t6 108.5t1 142.5v861h51h48.5t35 -2.5t27 -4t17 -9.5t12 -14t4.5 -23 t3 -30.5v-41.5v-736q0 -81 -0.5 -122t-2.5 -106t-7 -96.5t-14 -79.5t-23 -70.5t-34.5 -54t-47.5 -45.5t-62.5 -29t-80.5 -20t-101 -5q-68 0 -120 7.5t-90.5 31.5t-65 44.5t-43 70t-26 83t-14 109.5t-5 123t-0.5 149z" />
<glyph unicode="V" horiz-adv-x="913" d="M41 1475h74h41.5t31 -2.5t23.5 -3.5t16 -10t13 -13.5t8.5 -22t8.5 -29t9 -40.5l187 -1020h22l215 1141h58q78 0 101 -9.5t23 -54.5q0 -29 -315 -1411h-184z" />
<glyph unicode="W" horiz-adv-x="1306" d="M61 1475h99h54t35.5 -5.5t25 -9t14 -22t12 -32.5t10.5 -52l121 -975h14l74 491l45 168h197l41 -168l76 -487h16l139 1092h84q79 0 103 -10t24 -54q0 -25 -254 -1411h-184l-133 698h-21l-137 -698h-182z" />
<glyph unicode="X" horiz-adv-x="864" d="M41 0l289 727l-271 748h97h47t31 -4.5t23.5 -9t16 -21t16.5 -32t17 -50.5l135 -467h33l164 584h41q82 0 107.5 -9t25.5 -49q0 -14 -39 -117t-221 -571l270 -729h-90q-80 0 -104 20t-45 97l-127 434h-33l-139 -438q-13 -34 -18.5 -48t-16.5 -30.5t-16 -20.5t-23 -9t-31 -5 h-45h-94z" />
<glyph unicode="Y" horiz-adv-x="837" d="M41 1475h80h39.5t29.5 -2.5t23.5 -3.5t17 -9t14 -13t11.5 -21t13 -27.5t14 -38.5l135 -412h31l174 527h53q32 0 47 -0.5t33 -3.5t24.5 -9t11.5 -16t5 -27q0 -8 -5.5 -25t-32 -88.5t-79.5 -208.5t-152 -390v-707h-45h-49t-36 2.5t-27.5 4t-17 9.5t-12 14t-4.5 23t-3 30.5 v41.5v584z" />
<glyph unicode="Z" horiz-adv-x="770" d="M61 0v152l426 1148h-426v57t2.5 42t3.5 32t9.5 19.5t14 14t22.5 5t30 3.5h41l525 2v-140l-437 -1153h283h49t36 -4.5t26.5 -7t17 -15.5t11 -21t5 -33.5t2.5 -43v-57.5h-641z" />
<glyph unicode="[" horiz-adv-x="462" d="M92 -10v1560h189h37.5t29 -1.5t24 -2t16.5 -6.5t13 -9t8 -15t6 -19t1.5 -27.5t1.5 -33.5v-43h-154v-1368h17h45.5t33 -3t25.5 -4.5t15.5 -12.5t10.5 -18t4 -29.5t3 -38v-52.5h-189h-58.5t-37 5.5t-25 9.5t-10.5 22.5t-6 33v52.5z" />
<glyph unicode="\" horiz-adv-x="815" d="M10 1475h205l588 -1858h-207z" />
<glyph unicode="]" horiz-adv-x="468" d="M45 -80.5q0 15.5 3 38t4 29.5t10.5 18t15.5 12.5t25.5 4.5t33 3h45.5h19v1368h-156v43t1.5 33.5t1.5 27.5t6 19t8 15t13 9t16.5 6.5t24 2t29 1.5h37.5h191v-1560v-52.5t-6 -33t-10.5 -22.5t-25 -9.5t-37 -5.5h-58.5h-191v52.5z" />
<glyph unicode="^" horiz-adv-x="841" d="M63 1169v183l326 147h62l325 -149v-181l-358 162z" />
<glyph unicode="_" horiz-adv-x="1198" d="M92 -2v168h1012v-168h-1012z" />
<glyph unicode="`" horiz-adv-x="436" d="M20 1405l56 55q16 16 23 22t19 11.5t27 5.5q23 0 44 -16t63 -60l154 -170l-115 -118z" />
<glyph unicode="a" horiz-adv-x="741" d="M92 266.5v100.5v141q0 231 404 240l-17 49v49q0 11 0.5 26t1 23t0 18t-3 14.5t-7.5 9.5t-13 6t-20 1t-29 -2l-111 -14q-31 -4 -43 -6t-31.5 -1.5t-25 1.5t-16.5 10t-13.5 16.5t-8.5 28t-8.5 38l-7.5 52.5l238 47q166 0 218 -41q41 -34 48 -124q2 -32 2 -118v-831 q-83 0 -118.5 5.5t-49 19.5t-14.5 47l-170 -86h-54.5t-43 4.5t-35 7.5t-25.5 16.5t-19.5 23.5t-12.5 36t-8.5 47.5t-4 65t-2.5 80zM274 262q0 -102 11 -102q2 0 207 78l-21 59v244l16 47q-83 -2 -147 -16.5t-64 -39.5z" />
<glyph unicode="b" horiz-adv-x="827" d="M113 0v1487h49t38.5 -1.5t31.5 -1.5t22 -5t17 -7t10 -12t7.5 -15.5t2.5 -21.5t2 -26.5v-34.5v-289l119 41q53 0 95 -7t74.5 -16.5t56 -34t40.5 -44t27.5 -62.5t16.5 -74.5t9 -94.5t4 -106.5t0 -127.5q0 -79 -0.5 -115.5t-2 -98t-6 -88t-12 -70.5t-19 -62t-29 -45.5 t-40.5 -38t-53.5 -23t-68.5 -16.5t-86 -4l-125 84q-1 -50 -29 -60t-151 -10zM274 231l160 -71q70 2 94 65q22 56 23 241v81q0 56 -0.5 87t-1.5 75t-4.5 67.5t-9 54t-13.5 46t-20 31.5t-28.5 23t-37.5 9l-162 -39l19 -57v-549z" />
<glyph unicode="c" horiz-adv-x="684" d="M92 555q0 86 0.5 126t3 105t8 93t15.5 72.5t25.5 62.5t38 43t54 34t71.5 16t91 7l232 -49l-7.5 -52.5t-8.5 -38t-8.5 -28t-13.5 -16.5t-16.5 -10t-25 -1.5t-31.5 1.5t-43 6l-78 14q-74 0 -100 -58q-23 -54 -25 -232v-95q0 -128 2 -182t13.5 -114.5t37.5 -79.5t72 -19 q37 0 73 7t79 18t72 16v-160q-19 -4 -97 -29.5t-127 -25.5q-66 0 -114 12t-81.5 27.5t-54.5 58t-33 74t-17 108.5t-6 127t-1 162z" />
<glyph unicode="d" horiz-adv-x="825" d="M92 547q0 96 0.5 142.5t4.5 116t12.5 100.5t24 75t38.5 62t57.5 38t80 26.5t106.5 6.5l114 -41v402h61t44 -2.5t33.5 -3.5t20.5 -10t14.5 -14.5t5.5 -23t4 -30v-41.5v-1350q-124 0 -153 10t-30 60l-124 -84q-67 0 -116 11.5t-83 26.5t-56 57t-34 73t-17.5 106t-6.5 126 t-1 161zM274 571q0 -232 9 -292q14 -90 64 -111q19 -7 44 -8l160 67q-2 7 -10.5 33t-10.5 33v549l19 57l-160 41q-21 -1 -37.5 -8t-28.5 -21.5t-20.5 -29.5t-13.5 -43.5t-8.5 -50.5t-4.5 -63.5t-1.5 -70.5t-0.5 -82z" />
<glyph unicode="e" horiz-adv-x="776" d="M94 502v77v110t2 95.5t5.5 82.5t11.5 69.5t19.5 56.5t29 45t40.5 34.5t54 23.5t69.5 13.5t86.5 4.5q56 0 99.5 -12t73.5 -30.5t51.5 -52t33.5 -66.5t18.5 -83t9 -93t2.5 -105l7 -140l-447 -10l16 -47q0 -58 0.5 -85.5t2 -67.5t5 -56.5t10 -40t16 -32t24.5 -18.5 t33.5 -12.5t44.5 -2.5q139 0 282 20v-160q-189 -34 -282 -34q-67 0 -115.5 11t-83.5 26.5t-57 52t-34.5 68.5t-18.5 97.5t-7.5 115.5t-1.5 145zM270 698h269l-21 45q-2 113 -21.5 155t-84.5 42q-82 0 -103.5 -36.5t-21.5 -160.5z" />
<glyph unicode="f" horiz-adv-x="536" d="M41 928v172h113l-19 51q0 166 11 213q16 64 71 87q57 23 240 24h47v-146h-50.5t-40 -2t-32.5 -2.5t-22.5 -7.5t-18 -10.5t-11 -17.5t-8 -22.5t-2.5 -31t-2 -38.5v-50l-20 -47h203v-172h-205l20 -60v-1108q-1 -89 -11 -109q-13 -27 -65 -32q-25 -2 -106 -2l2 1251l19 60 h-113z" />
<glyph unicode="g" horiz-adv-x="872" d="M92 112.5v94.5q0 112 88 186q-31 29 -47.5 56t-28.5 90.5t-12 165.5q0 70 0.5 103t4.5 83.5t12 72.5t23 54t38 44.5t56.5 27.5t78.5 19.5t105 4.5h370q0 -98 -18.5 -130.5t-73.5 -37.5q37 -78 37 -241q0 -57 -0.5 -83.5t-2 -72t-6 -66t-12 -54.5t-19 -48.5t-28.5 -36.5 t-40 -31t-53 -19.5t-68.5 -14t-85.5 -3.5q-69 0 -97.5 -5.5t-37.5 -18.5t-9 -45q0 -21 10.5 -29.5t53.5 -13t141 -4.5q56 0 91 -2t69.5 -7.5t53.5 -17t36 -29.5t25 -46.5t12 -65t4 -88.5q0 -81 -12 -132t-45 -87.5t-90.5 -52t-149.5 -15.5h-123h-56t-35.5 7t-23.5 12 t-10.5 28t-5.5 41.5v65.5l252 14q79 0 102 27.5t23 91.5q0 45 -21.5 63.5t-95.5 18.5h-161t-103 9.5t-69 17t-29 40t-17 60zM276 705q0 -59 2 -94t9 -70.5t21.5 -53.5t39.5 -29.5t62 -11.5q24 0 42.5 3.5t32 13.5t23 19t15.5 30t9.5 35t4.5 45.5t1.5 51t0.5 61.5v59t-2 48 t-5 41.5t-9 31t-15.5 26t-23 16t-32 11t-42.5 2.5q-22 0 -39.5 -3t-31 -6.5t-23.5 -14t-17 -18t-11 -26t-6.5 -31t-4 -39t-1.5 -44.5v-53z" />
<glyph unicode="h" horiz-adv-x="862" d="M123 0v1475h49t38.5 -1.5t31.5 -1.5t22 -5t17 -7t10 -12t7.5 -15.5t2.5 -21.5t2 -26.5v-34.5v-291l160 55q56 0 98 -6.5t73.5 -27t53 -38t35.5 -62.5t21.5 -75t11 -101.5t4 -116t0.5 -142.5v-545h-61.5t-44.5 2.5t-34 3.5t-21 9.5t-14.5 14t-5.5 22.5t-4 30v41v424 q0 222 -16 306t-84 87l-188 -55l18 -58v-704v-33.5t-2 -26.5t-2.5 -21.5t-7.5 -15t-10 -11.5t-17.5 -7t-22.5 -5t-31.5 -1.5t-38.5 -1.5h-50z" />
<glyph unicode="i" horiz-adv-x="471" d="M113 1329q0 52 36.5 86.5t86.5 34.5t86 -34.5t36 -86.5q0 -50 -36.5 -87.5t-85.5 -37.5t-86 37.5t-37 87.5zM145 74v41v985h61t44 -2.5t33.5 -3.5t20.5 -9.5t14.5 -14t5.5 -22.5t4 -30v-41v-985h-61t-44 2.5t-33.5 3.5t-20.5 9.5t-14.5 14t-5.5 22.5t-4 30z" />
<glyph unicode="j" horiz-adv-x="428" d="M-94 -225q61 0 101 13.5t61.5 31t31.5 57.5t11.5 68.5t1.5 89.5v1065h50.5t39 -1.5t31.5 -1.5t22.5 -5t18 -7t10.5 -11.5t7.5 -15t2.5 -21.5t2 -26.5v-33.5v-942q0 -71 -1 -105t-8 -88.5t-21.5 -80t-42.5 -59.5t-69.5 -48.5t-103.5 -25.5t-145 -11v158zM80 1329 q0 52 36.5 86.5t86.5 34.5t86.5 -34.5t36.5 -86.5q0 -50 -37 -87.5t-86 -37.5t-86 37.5t-37 87.5z" />
<glyph unicode="k" horiz-adv-x="901" d="M123 89.5v33.5v1352q137 0 159.5 -15.5t22.5 -109.5v-1350h-29h-42t-33 1.5t-26.5 1.5t-18.5 5t-14.5 7t-8.5 12t-6.5 15t-2 21.5t-1.5 26zM336 596l289 504h200l-293 -504l328 -596h-211z" />
<glyph unicode="l" horiz-adv-x="407" d="M123 81.5v33.5v1360h77t49 -5.5t33.5 -10t14.5 -22.5t8 -34v-53v-1358h-50t-38.5 1.5t-31.5 1.5t-22.5 5t-17.5 7t-10 11.5t-7.5 15t-2.5 21.5t-2 26.5z" />
<glyph unicode="m" horiz-adv-x="1257" d="M113 89.5v33.5v977q112 0 143 -6.5t37 -36.5l153 57q91 0 138 -15.5t84 -58.5l188 74q58 0 97 -2.5t73 -17t53.5 -27t35.5 -51t23 -69.5t11.5 -103t5 -129.5t0.5 -169.5v-545h-50.5t-39 1.5t-31.5 1.5t-22.5 5t-18 7t-10.5 11.5t-7.5 15t-2.5 21.5t-2 26.5v33.5v424 q0 250 -1 271q-5 82 -35 104q-20 15 -69 18l-159 -47l18 -57v-836h-50t-38.5 1.5t-31.5 1.5t-22.5 5t-17.5 7t-10 11.5t-7.5 15t-2.5 21.5t-2 26.5v33.5l-2 502q0 34 0.5 80.5t0.5 71t-1.5 56t-6.5 47.5t-14 31.5t-24 22t-37 6.5l-183 -53l19 -60v-827h-50t-38.5 1.5 t-31.5 1.5t-22.5 5t-17.5 7t-10 11.5t-7.5 15t-2.5 21.5t-2 26.5z" />
<glyph unicode="n" horiz-adv-x="849" d="M113 89.5v33.5v977q118 0 148.5 -6t33.5 -37l151 57q58 0 96.5 -2.5t73 -16t54 -26.5t36 -50t23.5 -69.5t12 -102t6 -131t1 -171.5v-545h-61.5t-44.5 2.5t-34 3.5t-21 9.5t-14.5 14t-5.5 22.5t-4 30v41v424q0 48 1 128v41q0 138 -12 178q-14 44 -87 46l-189 -55l19 -58 v-827h-50t-38.5 1.5t-31.5 1.5t-22.5 5t-17.5 7t-10 11.5t-7.5 15t-2.5 21.5t-2 26.5z" />
<glyph unicode="o" horiz-adv-x="817" d="M92 555q0 95 0.5 142.5t4.5 115.5t12.5 99.5t23.5 74t37.5 59.5t56 36.5t78 25.5t103.5 6q48 0 86 -3.5t68.5 -16.5t53.5 -23t40.5 -37.5t29 -45.5t19 -62t12 -70.5t6 -87.5t2 -97.5t0.5 -115.5q0 -77 -0.5 -115.5t-2.5 -98.5t-6 -88.5t-12 -72t-19.5 -63t-29 -47 t-40.5 -39t-53.5 -24.5t-68.5 -17t-85 -4q-59 0 -103.5 6.5t-78 26.5t-56 38t-37.5 61.5t-23.5 75.5t-12.5 101t-4.5 117t-0.5 143zM274 555q0 -88 0.5 -129.5t4.5 -97t12 -78.5t23 -48.5t38 -33.5t56 -8q79 0 106 62q25 57 27 236v97q0 217 -12 278q-17 82 -71 100 q-22 7 -50 7q-33 0 -56 -7.5t-38 -32t-23 -46.5t-12 -76.5t-4.5 -95t-0.5 -127.5z" />
<glyph unicode="p" horiz-adv-x="849" d="M123 -260v1360q133 0 155.5 -6t22.5 -41l150 61q46 0 83 -4.5t66.5 -18.5t52 -25.5t39 -40.5t28 -48.5t19 -64t11.5 -72t5.5 -88t2 -96t0.5 -111.5q0 -95 -0.5 -142t-4.5 -115t-12 -99.5t-23 -74t-37.5 -60t-55.5 -37t-77 -25.5t-102 -6l-143 71v-440h-49t-38.5 1.5 t-31.5 1.5t-22 5t-17 7t-10 11.5t-7.5 15t-2.5 21.5t-2 26.5v33.5zM283 229l172 -69q71 2 95 64q22 56 23 237v86v6q0 116 -2 167t-12 111.5t-34 83t-66 25.5l-172 -39l18 -55v-553z" />
<glyph unicode="q" d="M92 545q0 94 0.5 137.5t4 114t11.5 101t22 76.5t36.5 64.5t54.5 40t75.5 28.5t100.5 7l148 -61v47h50t38.5 -1.5t31.5 -1.5t22.5 -5t17.5 -7t10 -11.5t7.5 -15t2.5 -21.5t2 -26.5v-33.5v-1360h-50t-38.5 1.5t-31.5 1.5t-22.5 5t-17.5 7t-10 11.5t-7.5 15t-2.5 21.5 t-2 26.5v33.5v315l-144 -69q-58 0 -101.5 6t-76.5 25.5t-55 37t-36.5 60.5t-22.5 73.5t-12 99.5t-4.5 115.5t-0.5 141.5zM274 547q0 -127 2 -179.5t13 -111t35.5 -77t68.5 -19.5l172 69l-22 62v551l20 55l-176 43q-77 -5 -95 -89.5t-18 -303.5z" />
<glyph unicode="r" horiz-adv-x="606" d="M113 89.5v33.5v977q134 0 157 -8t23 -56l131 78q58 0 108 -12l33 -2q0 -45 -0.5 -66.5t-5.5 -43.5t-10 -29t-22 -13.5t-33 -7t-50 -0.5l-168 -57l21 -58v-825h-50.5t-39 1.5t-31.5 1.5t-22.5 5t-18 7t-10.5 11.5t-7.5 15t-2.5 21.5t-2 26.5z" />
<glyph unicode="s" horiz-adv-x="710" d="M72 807q0 35 0.5 54t3 50.5t8 48.5t15.5 42t24.5 38.5t37 30t51.5 24.5t68 13.5t87 5.5l239 -49q-7 -48 -10 -67.5t-12 -42t-14.5 -27.5t-25.5 -9t-36 -1.5t-55 8.5l-80 14q-34 0 -57 -7t-35 -16t-17.5 -28t-6.5 -32t-1 -40q0 -31 39.5 -70t96 -80.5t112.5 -87.5 t95.5 -104t39.5 -117q0 -71 -2 -108.5t-17 -96.5t-44 -89t-87.5 -54t-142.5 -24q-40 0 -85 5.5t-102.5 15t-84.5 13.5v160q19 -1 119.5 -10.5t154.5 -9.5q28 0 46 9t27.5 20.5t14.5 39t5.5 46.5t0.5 60v7q0 22 -27.5 53t-68.5 62.5t-89 73t-89 82.5t-68.5 92.5t-27.5 101.5z " />
<glyph unicode="t" horiz-adv-x="583" d="M41 928v172h109l-17 76v104q138 0 161 -14t23 -97l-16 -69h205q0 -45 -0.5 -66t-5.5 -45t-13 -32t-26 -17t-41.5 -10.5t-61.5 -1.5h-59l18 -51v-406q0 -173 13.5 -237.5t56.5 -73.5h156v-160l-166 -10q-172 0 -208 87.5t-36 393.5v406l17 51h-109z" />
<glyph unicode="u" horiz-adv-x="841" d="M102 555v545h61t44 -2.5t33.5 -3.5t20.5 -9.5t14.5 -14t5.5 -22.5t4 -30v-41v-418v-6q0 -117 2 -169t12.5 -114t35.5 -85t68 -25l172 71q-16 48 -20 62v807h50.5t39 -1.5t31.5 -1.5t22.5 -5t18 -7t10.5 -11.5t7.5 -15t2.5 -21.5t2 -26.5v-33.5v-977h-14q-109 0 -138 8 t-32 47l-131 -69q-48 0 -87 4t-70 17t-54.5 24t-41 39.5t-29.5 47t-19.5 63t-11.5 71.5t-6 89t-2.5 98.5t-0.5 115.5z" />
<glyph unicode="v" horiz-adv-x="747" d="M41 1100q46 0 74 -1t50.5 -7t33.5 -11.5t20.5 -22t13.5 -30.5t11 -45l137 -739h6l152 856q51 0 76 -1t49.5 -6t33.5 -16t9 -30q0 -2 -1.5 -7.5t-6 -25t-9.5 -47.5l-196 -967h-228z" />
<glyph unicode="w" horiz-adv-x="1144" d="M41 1100h50.5t39.5 -1.5t32 -1.5t23.5 -4.5t19 -6.5t12.5 -11.5t10.5 -14.5t6.5 -20t7 -25t6 -32l123 -711h6l88 578l39 147h160l36 -149l93 -578h6l141 830q54 0 76.5 -1t47.5 -5.5t32.5 -15.5t7.5 -31q0 -7 -12 -70l-191 -977h-227l-92 696l-93 -696h-229z" />
<glyph unicode="x" horiz-adv-x="735" d="M41 43q0 11 6 23v-3l199 531l-201 506h62t46.5 -2t36.5 -3.5t25.5 -8t20 -12t13.5 -19t13.5 -25.5t13.5 -35l74 -254h19l104 359q82 0 119 -8.5t37 -36.5q0 -36 -166 -480l231 -575h-190l-152 426h-16l-133 -426q-47 0 -68.5 1t-47.5 4.5t-36 12.5t-10 25z" />
<glyph unicode="y" horiz-adv-x="729" d="M41 1100h50.5t39.5 -1t32.5 -2t24 -5t19.5 -6.5t13 -11t10.5 -14.5t6.5 -20t6.5 -25t4.5 -32l117 -737h30l125 854q108 0 138 -9.5t30 -56.5l-217 -1067q-8 -41 -12.5 -61t-14.5 -56.5t-19.5 -55.5t-26 -48t-35.5 -44.5t-46.5 -34t-61 -28t-77.5 -16t-96 -6.5v147 q80 0 136 50t56 116q0 17 -2 27z" />
<glyph unicode="z" horiz-adv-x="739" d="M72 0v143l352 785h-313v4v56t2.5 41t3.5 31t9.5 18.5t14 13t22.5 5t29 3.5h41h410v-146l-369 -782h246h49t36 -3.5t27 -5t16.5 -13.5t12 -19.5t4.5 -31.5t3 -42v-57h-596z" />
<glyph unicode="{" horiz-adv-x="548" d="M31 686v62l135 296v506h188h46t33 -3t25.5 -4.5t15.5 -12t11 -18t4 -29t3 -38v-52.5h-154v-359l-143 -315l143 -316v-378h16h45.5t33 -3t25.5 -5t16 -12.5t11 -17.5t4 -29t3 -38.5v-52.5h-189h-58.5t-37 5.5t-25 9.5t-10.5 22.5t-6 33v52.5v403z" />
<glyph unicode="|" horiz-adv-x="380" d="M92 -260v1735h48.5t38.5 -1t32.5 -2t23.5 -5t19 -7.5t12 -11.5t9.5 -16t4.5 -21t3 -27v-34v-1706l-27 -27h-70t-44.5 5.5t-30 9.5t-12.5 22.5t-7 33v52.5z" />
<glyph unicode="}" horiz-adv-x="548" d="M57 -80.5q0 16.5 3 38.5t4 29t11 17.5t16 12.5t25.5 5t33 3h45.5h14v378l141 316l-141 315v359h-152v52.5t3 38t4 29t11 18t15.5 12t25.5 4.5t33 3h46h186v-506l137 -296v-62l-137 -293v-403v-52.5t-6 -33t-10.5 -22.5t-24.5 -9.5t-36.5 -5.5h-57.5h-189v52.5z" />
<glyph unicode="~" horiz-adv-x="765" d="M82 590v76v31t3 22t4.5 17t11.5 10.5t16.5 7t27 2.5t35.5 2h49q52 0 161 -9.5t169 -9.5q37 0 51 4l68 -4v-75v-39.5t-6.5 -25t-12 -17t-26.5 -7.5t-40 -4h-63q-54 0 -163 9.5t-168 9.5q-35 0 -49 -4z" />
<glyph unicode="&#xa1;" horiz-adv-x="329" d="M43 -324l39 996q1 31 1 44.5t8.5 28.5t14.5 18.5t32.5 8t48 4.5h75.5l-18 -975q-1 -91 -31.5 -108t-169.5 -17zM49 1001q0 52 36.5 87.5t88.5 35.5q50 0 86.5 -35.5t36.5 -87.5q0 -51 -36.5 -87.5t-86.5 -36.5q-51 0 -88 36.5t-37 87.5z" />
<glyph unicode="&#xa2;" horiz-adv-x="649" d="M37 555q0 111 1 164.5t7.5 127.5t19.5 108t37 72t61.5 55.5t90.5 25.5v180h52t37.5 -2.5t29 -3.5t17.5 -9.5t12.5 -13.5t4.5 -22t3 -28.5v-39.5v-59l170 -10v-49t-2.5 -36t-4 -27t-9.5 -16.5t-14 -12t-23 -4.5t-30 -3h-42h-115q-93 0 -113 -76.5t-20 -320.5 q0 -226 13 -292q17 -91 74 -110q20 -6 46 -6q47 0 133.5 9.5t106.5 11.5v-145q-13 -2 -72 -16.5t-98 -16.5v-219q-106 0 -127 9q-24 10 -28 51q-1 15 -1 58v103q-53 9 -90.5 27t-61.5 57t-37 73.5t-19.5 109.5t-7.5 129.5t-1 166.5z" />
<glyph unicode="&#xa3;" horiz-adv-x="831" d="M98 428v70q0 66 19.5 77t135.5 11h21h25l-10 43v520h71t45.5 -5t31.5 -9.5t14 -21t8 -32.5v-51v-420l-10 -43h10q33 -2 96 -2q29 0 61 4l60 -2v-71v-29t-3 -20.5t-4.5 -15.5t-11.5 -10t-16 -7t-26.5 -2.5t-34.5 -1.5h-48q-48 0 -81 2l8 -41v-166l-13 -39h228h46.5 t33.5 -2t26 -3.5t16 -9.5t11.5 -13.5t4.5 -21t3 -28.5v-39v-51h-526v389l10 39q-35 2 -86 2q-27 0 -55 -4z" />
<glyph unicode="&#xa4;" horiz-adv-x="1021" d="M123 1049q30 30 43 42t29 21.5t30 9.5q36 0 92 -59l50 -53q58 34 135 34q76 0 143 -40l150 131q57 -60 67 -78q6 -13 6 -25q0 -22 -13.5 -41t-47.5 -51l-49 -47q30 -62 30 -131q0 -74 -38 -139l131 -150q-39 -41 -61 -57.5t-42 -16.5t-38 13t-52 47l-53 53 q-68 -33 -133 -33q-66 0 -133 31l-150 -131q-30 30 -41.5 42.5t-22 29t-10.5 30.5q0 7 1 13t4.5 12.5t5.5 10.5t9.5 12t11 11.5l14.5 14.5l16 16l49 50q-41 70 -41 141q0 81 37 139zM365 762q0 -57 40 -95t97 -38q55 0 95 38.5t40 94.5q0 54 -40.5 93.5t-94.5 39.5 q-57 0 -97 -39.5t-40 -93.5z" />
<glyph unicode="&#xa5;" horiz-adv-x="843" d="M18 1100h76q72 0 97 -17t59 -88l133 -286l178 391h47q71 0 93 -7.5t22 -43.5q0 -9 -14.5 -40t-70 -137.5t-175.5 -332.5v-41q50 -4 74 -4q43 0 79 8l62 -4v-70v-29t-3 -20.5t-4.5 -15.5t-11.5 -10t-16.5 -7t-27 -2.5t-35 -1.5h-48.5q-38 0 -69 2l8 -63v-17l-8 -20 q14 0 40 -1t38 -1q37 0 75 6l62 -4v-70v-29t-3 -20.5t-4.5 -15.5t-11.5 -10t-16.5 -7t-27 -2.5t-35 -1.5h-48.5q-38 0 -69 2l8 -24v-66h-39h-57t-36 3.5t-24 6t-10 14t-6 21v33.5l8 24q-18 0 -50.5 1t-47.5 1q-39 0 -57 -2l-60 4v70v37.5t6.5 24t11.5 15.5t26.5 7t39.5 4h62 q38 0 69 -2l-8 21v55l8 18q-18 0 -50.5 1t-47.5 1q-39 0 -57 -2l-60 4v70v37.5t6.5 24t11.5 15.5t26.5 7t39.5 4h62q38 0 69 -2v35z" />
<glyph unicode="&#xa6;" horiz-adv-x="380" d="M92 -252v733h48t38.5 -1t32 -2t23.5 -4.5t19 -7.5t12.5 -11.5t9.5 -15.5t4 -21t3.5 -26.5t0.5 -33.5v-735h-29h-54t-39 2.5t-30 3.5t-18.5 10t-12.5 14t-4.5 23t-3.5 30.5v41.5zM92 698v41v736h58.5t44 -2t35 -4.5t22.5 -9.5t17 -14.5t8 -22.5t5.5 -31t0.5 -41v-734h-29 h-54t-39 2.5t-30 3.5t-18.5 9.5t-12.5 14t-4.5 23t-3.5 29.5z" />
<glyph unicode="&#xa7;" horiz-adv-x="706" d="M74 20v160q19 -1 119.5 -10.5t154.5 -9.5q25 0 43.5 6t30 20t18 27t9.5 38t3.5 42t0.5 49q0 28 -39 68t-94.5 84.5t-111.5 94.5t-95 113t-39 125v23q0 95 9 126q11 39 40 66q-47 71 -47 144q0 35 0.5 54t3 49t8 46t15.5 38.5t24.5 35t36.5 26.5t51.5 21t68.5 12t87 5 l239 -50q-7 -49 -10 -68t-11.5 -43t-15 -29t-25 -9t-37 -1t-54.5 11l-80 16q-42 0 -67 -6.5t-35.5 -23t-12.5 -30.5t-2 -44q0 -32 39.5 -75t96 -88.5t112.5 -94.5t95.5 -108.5t39.5 -116.5q0 -62 -0.5 -89t-9 -75.5t-25.5 -81.5q31 -64 31 -113q0 -71 -2 -108t-17 -95.5 t-43.5 -88t-86.5 -53t-142 -23.5q-41 0 -86 5.5t-102 15t-86 13.5zM217 868q0 -49 50 -103.5t143 -127.5q13 -12 42 -31.5t44 -32.5v105q0 11 -5 23.5t-17.5 27.5t-23.5 27.5t-33 32.5t-35.5 32t-42 36t-42.5 36l-72 57q-8 -36 -8 -82z" />
<glyph unicode="&#xa8;" horiz-adv-x="761" d="M80 1329q0 51 37 86t86 35q50 0 86.5 -34.5t36.5 -86.5q0 -50 -37 -87.5t-86 -37.5q-48 0 -85.5 38t-37.5 87zM434 1329q0 51 37 86t88 35q50 0 86.5 -34.5t36.5 -86.5q0 -50 -37 -87.5t-86 -37.5t-87 38t-38 87z" />
<glyph unicode="&#xa9;" horiz-adv-x="1290" d="M63 600q0 123 44 234t120.5 192t185.5 128.5t232 47.5q164 0 298 -81t209 -219t75 -302q0 -165 -75 -302.5t-209 -217.5t-298 -80q-165 0 -299 80t-208.5 217.5t-74.5 302.5zM231 600q0 -180 118.5 -306t295.5 -126t295.5 126t118.5 306q0 182 -118.5 308t-295.5 126 t-295.5 -126t-118.5 -308zM444 552.5v57.5q0 42 0.5 63.5t2 55.5t5 50.5t9.5 41t15.5 36.5t23.5 26.5t32.5 21t43 11t55.5 4.5l162 -9v-53.5t-3.5 -34t-6.5 -22.5t-16 -9.5t-23.5 -5.5h-36.5h-76q-31 0 -38 -36t-7 -140t7 -140t38 -36q32 0 91 9.5t73 11.5v-136 q-10 -1 -71 -13.5t-93 -12.5q-28 0 -50.5 3t-40.5 11.5t-31.5 16t-23.5 24t-17 29t-11.5 36.5t-7 40t-4 48t-1.5 51.5z" />
<glyph unicode="&#xaa;" horiz-adv-x="563" d="M84 1411.5v42.5l184 23q33 0 60 -3.5t47.5 -8t35.5 -14.5t25 -18t17 -25t10.5 -27.5t5 -33.5t2 -36t0.5 -41v-514q-130 0 -145 69l-64 -80h-44.5t-35.5 2.5t-29.5 5.5t-21.5 11.5t-17 17.5t-11 27t-8.5 36.5t-4 49.5t-2.5 62.5v78.5q0 50 19 85t54 54t73.5 28t89.5 11v64 q0 18 -2 26.5t-14 15.5t-36 7h-86h-34t-24.5 2.5t-19 3.5t-11.5 10t-8 14.5t-3 23.5t-2 30.5zM217 1047l2 -136q0 -22 2 -22q4 0 101 47v154q-37 0 -71 -15.5t-34 -27.5z" />
<glyph unicode="&#xab;" horiz-adv-x="724" d="M59 584v61l150 326h180l-164 -357l164 -356h-182zM338 584v61l149 326h179l-162 -357l162 -356h-181z" />
<glyph unicode="&#xac;" horiz-adv-x="696" d="M25 580v172h579v-189v-45.5t-3 -33t-4.5 -25.5t-12.5 -15.5t-18 -10.5t-29.5 -4t-38 -3h-52.5v154h-421z" />
<glyph unicode="&#xad;" horiz-adv-x="667" d="M92 575v168h481v-168h-481z" />
<glyph unicode="&#xae;" horiz-adv-x="1290" d="M63 600q0 123 44 234t120.5 192t185.5 128.5t232 47.5q164 0 298 -81t209 -219t75 -302q0 -165 -75 -302.5t-209 -217.5t-298 -80q-165 0 -299 80t-208.5 217.5t-74.5 302.5zM231 600q0 -180 118.5 -306t295.5 -126t295.5 126t118.5 306q0 182 -118.5 308t-295.5 126 t-295.5 -126t-118.5 -308zM481 330v583l158 9q34 0 60 -2t46.5 -4t35 -9.5t25 -12.5t17 -18t10 -21t5 -28t2 -32t0.5 -39v-47t-2 -39t-5.5 -35t-10.5 -26t-17.5 -23.5t-26.5 -15t-37 -11.5l142 -229q-73 0 -109 6.5t-49.5 17t-28.5 37.5l-71 113v-90v-35.5t-6.5 -23 t-11 -15.5t-26 -6.5t-39 -3.5h-61.5zM621 670l16 6q48 0 56.5 8.5t8.5 50.5q0 44 -7.5 51t-57.5 7l-16 4v-127z" />
<glyph unicode="&#xaf;" horiz-adv-x="667" d="M92 1331v168h481v-168h-481z" />
<glyph unicode="&#xb0;" horiz-adv-x="708" d="M63 1223q0 116 86.5 196t204.5 80t204.5 -80t86.5 -196t-86.5 -197.5t-204.5 -81.5t-204.5 81.5t-86.5 197.5zM217 1223q0 -50 35 -82.5t102 -32.5t101 32t34 83q0 50 -33 81t-102 31t-103 -31t-34 -81z" />
<glyph unicode="&#xb1;" horiz-adv-x="606" d="M63 393v170h480v-170h-480zM63 823v168h166l-12 31v145h168v-145l-12 -31h170v-168h-170l12 -26v-152h-168v148l12 30h-166z" />
<glyph unicode="&#xb2;" horiz-adv-x="540" d="M110.5 1442.5q0.5 12.5 0.5 48.5l145 10q50 -1 83.5 -10.5t52.5 -22.5t28.5 -39t11.5 -48.5t2 -61.5t-20 -74t-48.5 -60t-57 -47t-48.5 -44.5t-20 -42.5v-84h198v-119h-325v209q0 35 20 68.5t48 59t56 48.5t48 47t20 45q0 19 -2.5 29t-14.5 18t-36 8h-62 q-26 0 -34.5 -0.5t-21 5t-14.5 8t-6 20t-3.5 30z" />
<glyph unicode="&#xb3;" horiz-adv-x="528" d="M125 846v112q118 -10 143 -10q24 0 29.5 15t5.5 67q0 134 -5 152q-7 22 -30 22h-94l80 164h-129v119h315l-110 -193q58 -21 79 -65t21 -150q0 -63 -3 -100.5t-12 -70t-27 -48t-46 -23.5t-72 -8q-22 0 -45.5 2.5t-53.5 7.5t-46 7z" />
<glyph unicode="&#xb4;" horiz-adv-x="436" d="M31 1253l149 170q33 33 45 44t30 21.5t36 10.5q13 0 25.5 -6.5t19 -12t26.5 -24.5l15 -14l39 -37l-271 -270z" />
<glyph unicode="&#xb5;" horiz-adv-x="770" d="M92 -371v1475h50t38.5 -1.5t31.5 -1.5t22.5 -5t17.5 -7t10 -11.5t7.5 -15t2.5 -21.5t2 -26.5v-33.5v-721l-12 -37l164 -59q43 2 67.5 24.5t35 84.5t12.5 114t2 170v424v33.5t2 26.5t2.5 21.5t7.5 15t10.5 11.5t18 7t22.5 5t31.5 1.5t39 1.5h50.5v-545q0 -98 -0.5 -142.5 t-4.5 -116t-12 -101.5t-22.5 -75t-37.5 -62.5t-56 -38t-78 -27t-104 -6.5l-140 55v-291v-34.5t-2 -26.5t-2.5 -21.5t-7.5 -15.5t-10 -12t-17 -7t-22 -5t-31.5 -1.5t-38.5 -1.5h-49z" />
<glyph unicode="&#xb6;" horiz-adv-x="1038" d="M49 1188q0 115 85 199.5t200 87.5l647 -2v-193h-209l10 -45v-1235h-190v1235l10 45h-123l10 -45v-1235h-190v901q-105 12 -177.5 94.5t-72.5 192.5z" />
<glyph unicode="&#xb7;" horiz-adv-x="405" d="M63 610q0 59 41.5 98.5t98.5 39.5q56 0 97.5 -39.5t41.5 -98.5q0 -55 -42.5 -97t-96.5 -42q-56 0 -98 42t-42 97z" />
<glyph unicode="&#xb8;" horiz-adv-x="434" d="M31 -211h170v211h147v-240q0 -78 -19.5 -98t-97.5 -20h-67h-57t-36 6.5t-24 11t-10 26.5t-6 40v63z" />
<glyph unicode="&#xb9;" horiz-adv-x="434" d="M96 1339v125l78 25h59q60 0 70 -12.5t10 -87.5v-547h-129v520z" />
<glyph unicode="&#xba;" horiz-adv-x="630" d="M111 1137q0 211 41 286.5t163 75.5t161.5 -75.5t39.5 -286.5q0 -214 -39.5 -293.5t-161.5 -79.5q-123 0 -163.5 79.5t-40.5 293.5zM240 1135q0 -45 2 -76t9 -66t23 -53t41 -18t41 18t22.5 53.5t8.5 65.5t2 76q0 45 -2 75t-8.5 65.5t-22.5 54t-41 18.5t-41 -18.5 t-23 -53.5t-9 -66t-2 -75z" />
<glyph unicode="&#xbb;" horiz-adv-x="722" d="M59 258l162 356l-162 357h179l149 -326v-61l-147 -326h-181zM338 258l162 356l-162 357h178l148 -326v-61l-146 -326h-180z" />
<glyph unicode="&#xbc;" horiz-adv-x="653" d="M18 150l236 491h123v-346l-15 -39h60v-106h-60l15 -48v-102h-113v102l15 48h-261zM82 707v112h434v-112h-434zM154 1339v125l77 25h60q60 0 70 -12.5t10 -87.5v-506h-129v479zM188 256h105l-14 39v154h-21z" />
<glyph unicode="&#xbd;" horiz-adv-x="749" d="M102 707v112h435v-112h-435zM156 605.5v37.5l145 10q50 -1 83.5 -10.5t52.5 -22.5t28.5 -39t11.5 -48.5t2 -61.5t-20 -74t-48.5 -60t-57 -47t-48.5 -44.5t-20 -42.5v-84h198v-119h-325v209q0 35 20 68.5t48 59t56 48.5t48 47t20 45q0 19 -2.5 29t-14.5 18t-36 8h-61 h-26.5t-19 2t-15 3t-9 8.5t-6.5 12t-2 20.5t-2 27.5zM180 1339v125l78 25h59q60 0 70 -12.5t10 -87.5v-506h-129v479z" />
<glyph unicode="&#xbe;" horiz-adv-x="643" d="M18 150l236 491h123v-346l-15 -39h60v-106h-60l15 -48v-102h-113v102l15 48h-261zM61 707v112h437v-112h-437zM125 887v112q118 -10 143 -10q26 0 30.5 11.5t4.5 72.5v14v13q0 78 -4 91t-29 13h-2h-94l80 164h-129v119h315l-110 -193q60 -21 80 -56t20 -138 q0 -52 -2 -84.5t-8 -60.5t-16 -42.5t-29 -25.5t-43.5 -14t-61.5 -3q-22 0 -45.5 2.5t-53.5 7.5t-46 7zM188 256h105l-14 39v154h-21z" />
<glyph unicode="&#xbf;" horiz-adv-x="696" d="M63 -10q0 78 31.5 154.5t77 137.5t91.5 118t81 119t39 118v88h184v-88q-2 -75 -34.5 -151.5t-78.5 -139.5t-91.5 -123.5t-77 -125t-31.5 -122.5q0 -33 2 -52.5t11.5 -42.5t28 -35t52 -20.5t82.5 -8.5h74h56t35.5 -7t23.5 -12.5t10.5 -28.5t5.5 -42v-66l-213 -25 q-67 0 -118.5 5t-89 19.5t-64 27.5t-43 41.5t-25.5 48t-13.5 60.5t-5 65.5t-0.5 77.5v10zM356 987q0 49 37 86t86 37t86 -37t37 -86q0 -52 -36.5 -86.5t-86.5 -34.5t-86.5 34.5t-36.5 86.5z" />
<glyph unicode="&#xc0;" horiz-adv-x="925" d="M41 76q0 11 5 38t35.5 165.5t92 410t178.5 785.5h197l336 -1475h-68h-60t-39.5 6t-27.5 10t-15.5 23t-12.5 33.5t-11 52.5l-69 346h-258l-84 -471h-47q-97 0 -124.5 11t-27.5 65zM253 1804l56 55q16 16 23 22t19 11.5t27 5.5q23 0 44 -16t63 -60l154 -170l-115 -118z M348 668h211q-1 2 -9 19.5t-9 19.5l-80 395h-21l-75 -400z" />
<glyph unicode="&#xc1;" horiz-adv-x="925" d="M41 76q0 11 5 38t35.5 165.5t92 410t178.5 785.5h197l336 -1475h-68h-60t-39.5 6t-27.5 10t-15.5 23t-12.5 33.5t-11 52.5l-69 346h-258l-84 -471h-47q-97 0 -124.5 11t-27.5 65zM348 668h211q-1 2 -9 19.5t-9 19.5l-80 395h-21l-75 -400zM362 1653l150 170 q32 32 45 43.5t30.5 21.5t35.5 10q13 0 25.5 -6.5t19 -12t26.5 -24.5l15 -14l39 -37l-271 -270z" />
<glyph unicode="&#xc2;" horiz-adv-x="925" d="M41 76q0 11 5 38t35.5 165.5t92 410t178.5 785.5h197l336 -1475h-68h-60t-39.5 6t-27.5 10t-15.5 23t-12.5 33.5t-11 52.5l-69 346h-258l-84 -471h-47q-97 0 -124.5 11t-27.5 65zM158 1564v187l262 147h69l267 -149v-185l-299 164zM348 668h211q-1 2 -9 19.5t-9 19.5 l-80 395h-21l-75 -400z" />
<glyph unicode="&#xc3;" horiz-adv-x="925" d="M41 76q0 11 5 38t35.5 165.5t92 410t178.5 785.5h197l336 -1475h-68h-60t-39.5 6t-27.5 10t-15.5 23t-12.5 33.5t-11 52.5l-69 346h-258l-84 -471h-47q-97 0 -124.5 11t-27.5 65zM164 1673v76v31t3 22t4.5 17t11.5 10.5t16.5 7t27 2.5t35.5 2h49q50 0 138 -9t151 -9 q39 0 53 2l66 -2v-76v-40t-6.5 -25.5t-11.5 -17t-27 -7.5t-40 -4h-63q-53 0 -142 10t-148 10q-36 0 -50 -4zM348 668h211q-1 2 -9 19.5t-9 19.5l-80 395h-21l-75 -400z" />
<glyph unicode="&#xc4;" horiz-adv-x="925" d="M41 76q0 11 5 38t35.5 165.5t92 410t178.5 785.5h197l336 -1475h-68h-60t-39.5 6t-27.5 10t-15.5 23t-12.5 33.5t-11 52.5l-69 346h-258l-84 -471h-47q-97 0 -124.5 11t-27.5 65zM154 1729q0 51 36.5 85.5t85.5 34.5q51 0 87 -34t36 -86q0 -50 -37 -87.5t-86 -37.5 q-47 0 -84.5 38t-37.5 87zM348 668h211q-1 2 -9 19.5t-9 19.5l-80 395h-21l-75 -400zM508 1729q0 51 37 85.5t88 34.5t87 -34t36 -86q0 -50 -37 -87.5t-86 -37.5t-87 38t-38 87z" />
<glyph unicode="&#xc5;" horiz-adv-x="925" d="M41 76q0 11 5 38t35.5 165.5t92 410t178.5 785.5h197l336 -1475h-68h-60t-39.5 6t-27.5 10t-15.5 23t-12.5 33.5t-11 52.5l-69 346h-258l-84 -471h-47q-97 0 -124.5 11t-27.5 65zM250 1698q0 79 58.5 135.5t135.5 56.5q78 0 135.5 -56.5t57.5 -135.5q0 -77 -57.5 -134 t-135.5 -57q-77 0 -135.5 57.5t-58.5 133.5zM348 668h211q-1 2 -9 19.5t-9 19.5l-80 395h-21l-75 -400zM381 1698q0 -23 20 -43.5t43 -20.5q25 0 45.5 20.5t20.5 43.5q0 26 -20 43.5t-46 17.5q-24 0 -43.5 -18t-19.5 -43z" />
<glyph unicode="&#xc6;" horiz-adv-x="1300" d="M57 76q0 28 11 65l301 1334h837v-193h-432l14 -39v-309l-12 -41h402v-199h-404l14 -39v-409l-16 -45h453v-201h-654v471h-217l-98 -471h-49q-97 0 -123.5 11t-26.5 65zM401 657l2 11q-2 -4 -2 -11zM403 668h168v614h-57zM571 666l2 -15l-2 17v-2z" />
<glyph unicode="&#xc7;" horiz-adv-x="843" d="M102 750q0 92 0.5 137t3.5 124.5t9.5 120t19 101.5t31 92.5t47 71t65 57.5t86.5 31.5t111 13.5l285 -65q-17 -119 -61.5 -147t-176.5 -3l-57 14q-40 0 -68.5 -17t-45.5 -59t-27.5 -79.5t-14.5 -115.5t-5 -127t-1 -150t1 -150.5t5 -127t14.5 -115.5t27.5 -80t45.5 -59 t68.5 -17q61 0 164 9t133 11v-198q-36 -5 -104 -17t-103 -16v-230q0 -78 -19.5 -98t-97.5 -20h-67h-57t-36 6.5t-24 11t-10 26.5t-6 40v63h170v201q-64 8 -113 35.5t-81 61t-54 97t-33.5 112t-17 140t-6.5 148t-1 166.5z" />
<glyph unicode="&#xc8;" horiz-adv-x="827" d="M123 0v1475h622v-175h-440l19 -51v-313l-19 -51h416v-183h-414l17 -47v-422l-19 -51h461v-182h-643zM242 1804l55 56q15 15 23 21.5t20 11.5t27 5q23 0 43.5 -15.5t62.5 -59.5l154 -170l-115 -119z" />
<glyph unicode="&#xc9;" horiz-adv-x="827" d="M123 0v1475h622v-175h-440l19 -51v-313l-19 -51h416v-183h-414l17 -47v-422l-19 -51h461v-182h-643zM315 1653l150 170q33 33 45 44t29.5 21t35.5 10q13 0 25.5 -6t20 -12.5t26.5 -24.5l15 -14l38 -37l-270 -270z" />
<glyph unicode="&#xca;" horiz-adv-x="827" d="M123 0v1475h622v-175h-440l19 -51v-313l-19 -51h416v-183h-414l17 -47v-422l-19 -51h461v-182h-643zM147 1565v186l263 147h69l266 -149v-184l-299 164z" />
<glyph unicode="&#xcb;" horiz-adv-x="827" d="M123 0v1475h622v-175h-440l19 -51v-313l-19 -51h416v-183h-414l17 -47v-422l-19 -51h461v-182h-643zM147 1729q0 51 37 85.5t86 34.5q51 0 87 -34t36 -86q0 -50 -37 -87.5t-86 -37.5q-48 0 -85.5 38t-37.5 87zM502 1729q0 51 37 85.5t88 34.5t87 -34t36 -86 q0 -50 -37 -87.5t-86 -37.5t-87 38t-38 87z" />
<glyph unicode="&#xcc;" horiz-adv-x="440" d="M-48 1804l56 55q16 16 23 22t19 11.5t27 5.5q23 0 44 -16t63 -60l154 -170l-115 -118zM123 83.5v41.5v1350h43h50t36.5 -2.5t28 -4t17 -9.5t12 -14t4.5 -23t3 -30v-42v-1350h-47h-48.5t-35 2.5t-27 4t-17 9.5t-12 14t-4.5 23t-3 30.5z" />
<glyph unicode="&#xcd;" horiz-adv-x="440" d="M123 83.5v41.5v1350h43h50t36.5 -2.5t28 -4t17 -9.5t12 -14t4.5 -23t3 -30v-42v-1350h-47h-48.5t-35 2.5t-27 4t-17 9.5t-12 14t-4.5 23t-3 30.5zM143 1653l150 170q33 33 45 44t29.5 21t35.5 10q13 0 25.5 -6t20 -12.5t26.5 -24.5l14 -14l39 -37l-270 -270z" />
<glyph unicode="&#xce;" horiz-adv-x="440" d="M-74 1565v186l262 147h70l266 -149v-184l-299 164zM123 83.5v41.5v1350h43h50t36.5 -2.5t28 -4t17 -9.5t12 -14t4.5 -23t3 -30v-42v-1350h-47h-48.5t-35 2.5t-27 4t-17 9.5t-12 14t-4.5 23t-3 30.5z" />
<glyph unicode="&#xcf;" horiz-adv-x="440" d="M-76 1729q0 51 37 85.5t86 34.5q51 0 87 -34t36 -86q0 -50 -37 -87.5t-86 -37.5q-48 0 -85.5 38t-37.5 87zM123 83.5v41.5v1350h43h50t36.5 -2.5t28 -4t17 -9.5t12 -14t4.5 -23t3 -30v-42v-1350h-47h-48.5t-35 2.5t-27 4t-17 9.5t-12 14t-4.5 23t-3 30.5zM279 1729 q0 51 36.5 85.5t87.5 34.5t87 -34t36 -86q0 -50 -37 -87.5t-86 -37.5t-86.5 37.5t-37.5 87.5z" />
<glyph unicode="&#xd0;" horiz-adv-x="927" d="M92 0v1479l387 20q61 0 110.5 -13t86 -31.5t64.5 -57.5t46.5 -70t31 -92.5t19 -101.5t9.5 -119.5t3.5 -125t0.5 -138.5q0 -84 -0.5 -125.5t-2.5 -115t-7 -111.5t-13.5 -98t-23 -91.5t-34 -74t-47 -64.5t-62.5 -44t-80.5 -31t-100.5 -9zM264 168h215q32 0 58 10.5t44 37 t31 51.5t21 74t12.5 83.5t6.5 101.5t2.5 106t0.5 118q0 78 -0.5 116.5t-2.5 104t-6.5 99t-12.5 81t-21 71.5t-31 49.5t-44 35.5t-58 10h-215l21 -55v-326l-21 -47h260v-170h-260l21 -45v-465z" />
<glyph unicode="&#xd1;" horiz-adv-x="892" d="M92 0v1475h45h45t33.5 -2.5t26.5 -3.5t18.5 -9t15.5 -13t12 -21t13 -27.5t14 -38.5l281 -909h10v1024h45h62t40 -5t27 -10t12 -22.5t7 -34v-53.5v-1350h-62h-45.5t-34 2t-27 4t-19 8.5t-16.5 13t-12 21t-13 28t-13 38.5l-264 884h-10v-874v-53.5t-7 -34t-12 -22.5 t-27 -10t-40 -5h-62h-43zM164 1673v76v31t3 22t4.5 17t11.5 10.5t16.5 7t27 2.5t35.5 2h49q50 0 138 -9t151 -9q39 0 53 2l66 -2v-76v-40t-6.5 -25.5t-11.5 -17t-27 -7.5t-40 -4h-63q-53 0 -142 10t-148 10q-36 0 -50 -4z" />
<glyph unicode="&#xd2;" horiz-adv-x="997" d="M102 750q0 400 89 574.5t311 174.5q90 0 156.5 -28.5t112 -85t73 -148t39.5 -209.5t12 -278q0 -165 -10 -280.5t-35 -212t-69.5 -153.5t-113 -87.5t-165.5 -30.5t-166 30.5t-114.5 87.5t-72 153t-37 213t-10.5 280zM221 1825l55 55q15 15 23 21.5t20 12t27 5.5 q23 0 44 -16t63 -60l153 -170l-114 -119zM297 750q0 -293 45.5 -437.5t159.5 -144.5q58 0 98 38.5t63 116t32.5 180t9.5 245.5q0 569 -203 569q-205 0 -205 -567z" />
<glyph unicode="&#xd3;" horiz-adv-x="997" d="M102 750q0 400 89 574.5t311 174.5q90 0 156.5 -28.5t112 -85t73 -148t39.5 -209.5t12 -278q0 -165 -10 -280.5t-35 -212t-69.5 -153.5t-113 -87.5t-165.5 -30.5t-166 30.5t-114.5 87.5t-72 153t-37 213t-10.5 280zM297 750q0 -293 45.5 -437.5t159.5 -144.5 q58 0 98 38.5t63 116t32.5 180t9.5 245.5q0 569 -203 569q-205 0 -205 -567zM379 1673l149 170q33 33 45 44t30 21.5t36 10.5q13 0 25.5 -6t20 -12.5t26.5 -24.5l14 -14l39 -37l-270 -271z" />
<glyph unicode="&#xd4;" horiz-adv-x="997" d="M102 750q0 400 89 574.5t311 174.5q90 0 156.5 -28.5t112 -85t73 -148t39.5 -209.5t12 -278q0 -165 -10 -280.5t-35 -212t-69.5 -153.5t-113 -87.5t-165.5 -30.5t-166 30.5t-114.5 87.5t-72 153t-37 213t-10.5 280zM217 1565v186l262 147h70l266 -149v-184l-299 164z M297 750q0 -293 45.5 -437.5t159.5 -144.5q58 0 98 38.5t63 116t32.5 180t9.5 245.5q0 569 -203 569q-205 0 -205 -567z" />
<glyph unicode="&#xd5;" horiz-adv-x="997" d="M102 750q0 400 89 574.5t311 174.5q90 0 156.5 -28.5t112 -85t73 -148t39.5 -209.5t12 -278q0 -165 -10 -280.5t-35 -212t-69.5 -153.5t-113 -87.5t-165.5 -30.5t-166 30.5t-114.5 87.5t-72 153t-37 213t-10.5 280zM227 1673v76v39.5t6.5 25t11.5 16.5t27 7t40 4h63 q50 0 138 -9t151 -9q39 0 53 2l65 -2v-76v-31.5t-3 -22.5t-4.5 -17t-11.5 -11t-16.5 -7.5t-27 -2.5t-35.5 -2h-49q-53 0 -142.5 10t-148.5 10q-35 0 -49 -4zM297 750q0 -293 45.5 -437.5t159.5 -144.5q58 0 98 38.5t63 116t32.5 180t9.5 245.5q0 569 -203 569 q-205 0 -205 -567z" />
<glyph unicode="&#xd6;" horiz-adv-x="997" d="M102 750q0 400 89 574.5t311 174.5q90 0 156.5 -28.5t112 -85t73 -148t39.5 -209.5t12 -278q0 -165 -10 -280.5t-35 -212t-69.5 -153.5t-113 -87.5t-165.5 -30.5t-166 30.5t-114.5 87.5t-72 153t-37 213t-10.5 280zM199 1729q0 51 37 85.5t86 34.5q50 0 86 -34t36 -86 q0 -50 -36.5 -87.5t-85.5 -37.5q-48 0 -85.5 38t-37.5 87zM297 750q0 -293 45.5 -437.5t159.5 -144.5q58 0 98 38.5t63 116t32.5 180t9.5 245.5q0 569 -203 569q-205 0 -205 -567zM553 1729q0 51 37 85.5t88 34.5t87 -34t36 -86q0 -50 -37 -87.5t-86 -37.5q-50 0 -87.5 38 t-37.5 87z" />
<glyph unicode="&#xd7;" horiz-adv-x="575" d="M33 784l117 117l94 -94l28 -45l134 135l108 -109l-135 -133l41 -24l98 -99l-117 -118l-96 96l-29 43l-131 -131l-106 106l131 134l-43 28z" />
<glyph unicode="&#xd8;" horiz-adv-x="960" d="M100 -98l99 239q-88 167 -88 609q0 164 9.5 278t33.5 208.5t66 149t107 84t158 29.5q42 0 78 -8l60 145h198l-94 -231q75 -80 104 -235.5t29 -419.5q0 -165 -9.5 -280.5t-33.5 -212t-66.5 -153.5t-108 -87.5t-157.5 -30.5q-74 0 -141 26l-47 -110h-197zM293 750 q0 -302 41 -447t151 -145q109 0 150 144.5t41 445.5q0 294 -42 436.5t-149 142.5q-55 0 -93 -37t-59.5 -113.5t-30.5 -179t-9 -247.5z" />
<glyph unicode="&#xd9;" horiz-adv-x="964" d="M125 604v10v861h49h49t36 -2.5t27 -4t16.5 -9.5t12 -14t4.5 -23t3 -30v-42v-801q0 -59 0.5 -93t3 -77.5t7 -67t12.5 -51.5t20 -42t29.5 -27t41 -18t53.5 -5q43 0 73 9.5t49.5 39.5t30 56.5t15.5 89.5t6 108.5t1 142.5v861h51h48.5t35 -2.5t27 -4t17 -9.5t12 -14t4.5 -23 t3 -30.5v-41.5v-736q0 -81 -0.5 -122t-2.5 -106t-7 -96.5t-14 -79.5t-23 -70.5t-34.5 -54t-47.5 -45.5t-62.5 -29t-80.5 -20t-101 -5q-68 0 -120 7.5t-90.5 31.5t-65 44.5t-43 70t-26 83t-14 109.5t-5 123t-0.5 149zM248 1804l55 56q15 15 23 21.5t20 11.5t27 5 q23 0 43.5 -15.5t62.5 -59.5l154 -170l-115 -119z" />
<glyph unicode="&#xda;" horiz-adv-x="964" d="M125 604v10v861h49h49t36 -2.5t27 -4t16.5 -9.5t12 -14t4.5 -23t3 -30v-42v-801q0 -59 0.5 -93t3 -77.5t7 -67t12.5 -51.5t20 -42t29.5 -27t41 -18t53.5 -5q43 0 73 9.5t49.5 39.5t30 56.5t15.5 89.5t6 108.5t1 142.5v861h51h48.5t35 -2.5t27 -4t17 -9.5t12 -14t4.5 -23 t3 -30.5v-41.5v-736q0 -81 -0.5 -122t-2.5 -106t-7 -96.5t-14 -79.5t-23 -70.5t-34.5 -54t-47.5 -45.5t-62.5 -29t-80.5 -20t-101 -5q-68 0 -120 7.5t-90.5 31.5t-65 44.5t-43 70t-26 83t-14 109.5t-5 123t-0.5 149zM391 1653l150 170q33 33 45 44t29.5 21t35.5 10 q13 0 25.5 -6t20 -12.5t26.5 -24.5l14 -14l39 -37l-270 -270z" />
<glyph unicode="&#xdb;" horiz-adv-x="964" d="M125 604v10v861h49h49t36 -2.5t27 -4t16.5 -9.5t12 -14t4.5 -23t3 -30v-42v-801q0 -59 0.5 -93t3 -77.5t7 -67t12.5 -51.5t20 -42t29.5 -27t41 -18t53.5 -5q43 0 73 9.5t49.5 39.5t30 56.5t15.5 89.5t6 108.5t1 142.5v861h51h48.5t35 -2.5t27 -4t17 -9.5t12 -14t4.5 -23 t3 -30.5v-41.5v-736q0 -81 -0.5 -122t-2.5 -106t-7 -96.5t-14 -79.5t-23 -70.5t-34.5 -54t-47.5 -45.5t-62.5 -29t-80.5 -20t-101 -5q-68 0 -120 7.5t-90.5 31.5t-65 44.5t-43 70t-26 83t-14 109.5t-5 123t-0.5 149zM191 1564v187l262 147h69l267 -149v-185l-299 164z" />
<glyph unicode="&#xdc;" horiz-adv-x="964" d="M125 604v10v861h49h49t36 -2.5t27 -4t16.5 -9.5t12 -14t4.5 -23t3 -30v-42v-801q0 -59 0.5 -93t3 -77.5t7 -67t12.5 -51.5t20 -42t29.5 -27t41 -18t53.5 -5q43 0 73 9.5t49.5 39.5t30 56.5t15.5 89.5t6 108.5t1 142.5v861h51h48.5t35 -2.5t27 -4t17 -9.5t12 -14t4.5 -23 t3 -30.5v-41.5v-736q0 -81 -0.5 -122t-2.5 -106t-7 -96.5t-14 -79.5t-23 -70.5t-34.5 -54t-47.5 -45.5t-62.5 -29t-80.5 -20t-101 -5q-68 0 -120 7.5t-90.5 31.5t-65 44.5t-43 70t-26 83t-14 109.5t-5 123t-0.5 149zM190 1729q0 51 37 85.5t86 34.5q51 0 87 -34t36 -86 q0 -50 -37 -87.5t-86 -37.5q-48 0 -85.5 38t-37.5 87zM545 1729q0 51 37 85.5t88 34.5t87 -34t36 -86q0 -50 -37 -87.5t-86 -37.5q-50 0 -87.5 38t-37.5 87z" />
<glyph unicode="&#xdd;" horiz-adv-x="837" d="M41 1475h80h39.5t29.5 -2.5t23.5 -3.5t17 -9t14 -13t11.5 -21t13 -27.5t14 -38.5l135 -412h31l174 527h53q32 0 47 -0.5t33 -3.5t24.5 -9t11.5 -16t5 -27q0 -8 -5.5 -25t-32 -88.5t-79.5 -208.5t-152 -390v-707h-45h-49t-36 2.5t-27.5 4t-17 9.5t-12 14t-4.5 23t-3 30.5 v41.5v584zM359 1652l149 170q33 33 45 44t30 21.5t36 10.5q13 0 25.5 -6.5t19 -12t26.5 -24.5l15 -14l39 -37l-271 -270z" />
<glyph unicode="&#xde;" horiz-adv-x="763" d="M92 -264v1644v34.5t2 27t2.5 22t7.5 15.5t10.5 12.5t18 7.5t22.5 5t31.5 1.5t39 1.5h50.5v-301l148 41q78 0 132 -14t88.5 -55t53.5 -77t27.5 -121.5t10 -143.5t1.5 -185q0 -87 -0.5 -131.5t-3 -115.5t-8.5 -107.5t-16.5 -89.5t-26.5 -79.5t-39.5 -59t-54.5 -47 t-72.5 -25t-93.5 -10.5l-146 71v-448h-50.5t-39 1.5t-31.5 1.5t-22.5 5t-18 7.5t-10.5 12.5t-7.5 15.5t-2.5 22t-2 27v34.5zM262 231l166 -71q30 1 51.5 16.5t35 53t21 70.5t11 102t4 113.5t0.5 137.5v23q0 78 -0.5 114.5t-3.5 93t-10.5 82t-20.5 54.5t-34 40.5t-50 12.5 l-168 -41l15 -35v-718z" />
<glyph unicode="&#xdf;" horiz-adv-x="966" d="M92 0l2 1143q0 93 1 131.5t12.5 87.5t28 62.5t59 30t93.5 18.5t142 2h102q11 0 29.5 -1t65.5 -11.5t83 -27.5t65.5 -55t29.5 -90q0 -229 -24.5 -289.5t-145.5 -60.5q-41 0 -66 -8.5t-35 -29t-12 -36.5t-2 -49q0 -27 28.5 -59.5t71 -63t92 -70t92 -78t71 -88.5t28.5 -100 q0 -71 -2 -108.5t-17 -96.5t-44 -89t-87.5 -54t-142.5 -24q-40 0 -85 5.5t-102.5 15t-84.5 13.5v160q19 -1 119.5 -10.5t154.5 -9.5q28 0 46.5 9t28 20.5t14.5 37t5.5 41.5t0.5 51v23q0 22 -27.5 53t-68.5 62.5t-89.5 72.5t-89.5 82t-68.5 93t-27.5 102q0 54 4.5 92.5 t21 81.5t45.5 69.5t81.5 44t125.5 17.5q12 0 14.5 24t2.5 132q0 14 -8.5 23t-26 12.5t-33.5 4.5t-41 1h-92h-50t-36.5 -3.5t-28 -4.5t-17 -12.5t-12 -18.5t-4.5 -30t-3 -39.5v-54.5v-3l-3 -998v-48t-4 -35.5t-6 -26.5t-15 -16.5t-21 -11.5t-34 -4.5t-44 -2.5h-60z" />
<glyph unicode="&#xe0;" horiz-adv-x="741" d="M92 266.5v100.5v141q0 231 404 240l-17 49v49q0 11 0.5 26t1 23t0 18t-3 14.5t-7.5 9.5t-13 6t-20 1t-29 -2l-111 -14q-31 -4 -43 -6t-31.5 -1.5t-25 1.5t-16.5 10t-13.5 16.5t-8.5 28t-8.5 38l-7.5 52.5l238 47q166 0 218 -41q41 -34 48 -124q2 -32 2 -118v-831 q-83 0 -118.5 5.5t-49 19.5t-14.5 47l-170 -86h-54.5t-43 4.5t-35 7.5t-25.5 16.5t-19.5 23.5t-12.5 36t-8.5 47.5t-4 65t-2.5 80zM196 1497l56 55q16 16 23 22t19 11.5t27 5.5q23 0 44 -16t63 -60l154 -170l-115 -118zM274 262q0 -102 11 -102q2 0 207 78l-21 59v244l16 47 q-83 -2 -147 -16.5t-64 -39.5z" />
<glyph unicode="&#xe1;" horiz-adv-x="741" d="M92 266.5v100.5v141q0 231 404 240l-17 49v49q0 11 0.5 26t1 23t0 18t-3 14.5t-7.5 9.5t-13 6t-20 1t-29 -2l-111 -14q-31 -4 -43 -6t-31.5 -1.5t-25 1.5t-16.5 10t-13.5 16.5t-8.5 28t-8.5 38l-7.5 52.5l238 47q166 0 218 -41q41 -34 48 -124q2 -32 2 -118v-831 q-83 0 -118.5 5.5t-49 19.5t-14.5 47l-170 -86h-54.5t-43 4.5t-35 7.5t-25.5 16.5t-19.5 23.5t-12.5 36t-8.5 47.5t-4 65t-2.5 80zM236 1345l149 170q33 33 45 44t30 21.5t36 10.5q13 0 25.5 -6.5t19 -12t26.5 -24.5l15 -14l39 -37l-271 -270zM274 262q0 -102 11 -102 q2 0 207 78l-21 59v244l16 47q-83 -2 -147 -16.5t-64 -39.5z" />
<glyph unicode="&#xe2;" horiz-adv-x="741" d="M86 1257v187l262 147h69l267 -149v-185l-299 164zM92 266.5v100.5v141q0 231 404 240l-17 49v49q0 11 0.5 26t1 23t0 18t-3 14.5t-7.5 9.5t-13 6t-20 1t-29 -2l-111 -14q-31 -4 -43 -6t-31.5 -1.5t-25 1.5t-16.5 10t-13.5 16.5t-8.5 28t-8.5 38l-7.5 52.5l238 47 q166 0 218 -41q41 -34 48 -124q2 -32 2 -118v-831q-83 0 -118.5 5.5t-49 19.5t-14.5 47l-170 -86h-54.5t-43 4.5t-35 7.5t-25.5 16.5t-19.5 23.5t-12.5 36t-8.5 47.5t-4 65t-2.5 80zM274 262q0 -102 11 -102q2 0 207 78l-21 59v244l16 47q-83 -2 -147 -16.5t-64 -39.5z" />
<glyph unicode="&#xe3;" horiz-adv-x="741" d="M92 266.5v100.5v141q0 231 404 240l-17 49v49q0 11 0.5 26t1 23t0 18t-3 14.5t-7.5 9.5t-13 6t-20 1t-29 -2l-111 -14q-31 -4 -43 -6t-31.5 -1.5t-25 1.5t-16.5 10t-13.5 16.5t-8.5 28t-8.5 38l-7.5 52.5l238 47q166 0 218 -41q41 -34 48 -124q2 -32 2 -118v-831 q-83 0 -118.5 5.5t-49 19.5t-14.5 47l-170 -86h-54.5t-43 4.5t-35 7.5t-25.5 16.5t-19.5 23.5t-12.5 36t-8.5 47.5t-4 65t-2.5 80zM104 1298v76v39.5t6.5 25t11.5 16.5t27 7t40 4h63q50 0 138 -9t151 -9q39 0 53 2l65 -2v-76v-31.5t-3 -22.5t-4.5 -17t-11.5 -11t-16.5 -7.5 t-27 -2.5t-35.5 -2h-49q-54 0 -143 10t-148 10q-35 0 -49 -4zM274 262q0 -102 11 -102q2 0 207 78l-21 59v244l16 47q-83 -2 -147 -16.5t-64 -39.5z" />
<glyph unicode="&#xe4;" horiz-adv-x="741" d="M90 1378q0 51 37 86t86 35q50 0 86.5 -34.5t36.5 -86.5q0 -50 -37 -87.5t-86 -37.5q-48 0 -85.5 38t-37.5 87zM92 266.5v100.5v141q0 231 404 240l-17 49v49q0 11 0.5 26t1 23t0 18t-3 14.5t-7.5 9.5t-13 6t-20 1t-29 -2l-111 -14q-31 -4 -43 -6t-31.5 -1.5t-25 1.5 t-16.5 10t-13.5 16.5t-8.5 28t-8.5 38l-7.5 52.5l238 47q166 0 218 -41q41 -34 48 -124q2 -32 2 -118v-831q-83 0 -118.5 5.5t-49 19.5t-14.5 47l-170 -86h-54.5t-43 4.5t-35 7.5t-25.5 16.5t-19.5 23.5t-12.5 36t-8.5 47.5t-4 65t-2.5 80zM274 262q0 -102 11 -102 q2 0 207 78l-21 59v244l16 47q-83 -2 -147 -16.5t-64 -39.5zM444 1378q0 51 37 86t88 35q50 0 86.5 -34.5t36.5 -86.5q0 -50 -37 -87.5t-86 -37.5t-87 37.5t-38 87.5z" />
<glyph unicode="&#xe5;" horiz-adv-x="741" d="M92 266.5v100.5v141q0 231 404 240l-17 49v49q0 11 0.5 26t1 23t0 18t-3 14.5t-7.5 9.5t-13 6t-20 1t-29 -2l-111 -14q-31 -4 -43 -6t-31.5 -1.5t-25 1.5t-16.5 10t-13.5 16.5t-8.5 28t-8.5 38l-7.5 52.5l238 47q166 0 218 -41q41 -34 48 -124q2 -32 2 -118v-831 q-83 0 -118.5 5.5t-49 19.5t-14.5 47l-170 -86h-54.5t-43 4.5t-35 7.5t-25.5 16.5t-19.5 23.5t-12.5 36t-8.5 47.5t-4 65t-2.5 80zM193 1364q0 79 58.5 135.5t135.5 56.5q78 0 135.5 -56.5t57.5 -135.5q0 -77 -57.5 -133.5t-135.5 -56.5q-77 0 -135.5 57t-58.5 133zM274 262 q0 -102 11 -102q2 0 207 78l-21 59v244l16 47q-83 -2 -147 -16.5t-64 -39.5zM324 1364q0 -23 20 -43.5t43 -20.5q25 0 45.5 20.5t20.5 43.5q0 26 -20 43.5t-46 17.5q-24 0 -43.5 -18t-19.5 -43z" />
<glyph unicode="&#xe6;" horiz-adv-x="1179" d="M84 381v86q0 232 375 240v139q0 26 -1.5 38t-9 27.5t-26.5 22t-51 6.5l-86 -12q-31 -4 -43 -6t-31.5 -1.5t-25 1.5t-16.5 10t-13.5 16.5t-8.5 28t-8.5 38l-7.5 52.5l238 47q144 0 206 -49q76 49 201 49q57 0 99 -10.5t71 -24t48 -47.5t29 -59.5t14.5 -84.5t5.5 -96.5 t1 -119.5v-140l-413 -10q0 -1 6 -18.5t6 -18.5q0 -70 1 -111t5.5 -83t13 -62.5t23.5 -38.5t36.5 -24t53.5 -6q58 0 155.5 9t125.5 11v-160q-34 -4 -90 -13.5t-101.5 -15t-89.5 -5.5q-101 0 -163.5 27t-94.5 87l-231 -114q-30 0 -54 2t-43.5 9.5t-34 14t-26 23.5t-19 30 t-12.5 41.5t-7.5 50t-4 63t-2 73t-0.5 88.5zM262 262q0 -90 12 -102l187 78l-2 290q-195 -4 -195 -47zM643 698h227l-10 33q0 117 -16 163t-68 46q-34 0 -57 -9t-36 -23t-19.5 -43t-8.5 -57.5t-2 -76.5z" />
<glyph unicode="&#xe7;" horiz-adv-x="684" d="M92 555q0 86 0.5 126t3 105t8 93t15.5 72.5t25.5 62.5t38 43t54 34t71.5 16t91 7l232 -49l-7.5 -52.5t-8.5 -38t-8.5 -28t-13.5 -16.5t-16.5 -10t-25 -1.5t-31.5 1.5t-43 6l-78 14q-74 0 -100 -58q-23 -54 -25 -232v-95q0 -128 2 -182t13.5 -114.5t37.5 -79.5t72 -19 q37 0 73 7t79 18t72 16v-160q-28 -6 -83.5 -25.5t-86.5 -23.5v-232q0 -78 -19.5 -98t-97.5 -20h-68h-57t-36 6.5t-24 11t-10 26.5t-6 40v63h170v205q-45 7 -78.5 24.5t-56.5 36.5t-38 62t-23 74.5t-12 102.5t-4.5 116.5t-0.5 144.5z" />
<glyph unicode="&#xe8;" horiz-adv-x="755" d="M94 502v77v110t2 95.5t5.5 82.5t11.5 69.5t19.5 56.5t29 45t40.5 34.5t54 23.5t69.5 13.5t86.5 4.5q56 0 99.5 -12t73.5 -30.5t51.5 -52t33.5 -66.5t18.5 -83t9 -93t2.5 -105l7 -140l-447 -10l16 -47q0 -58 0.5 -85.5t2 -67.5t5 -56.5t10 -40t16 -32t24.5 -18.5 t33.5 -12.5t44.5 -2.5q139 0 282 20v-160q-189 -34 -282 -34q-67 0 -115.5 11t-83.5 26.5t-57 52t-34.5 68.5t-18.5 97.5t-7.5 115.5t-1.5 145zM215 1485l55 55q15 15 23 21.5t20 12t27 5.5q23 0 43 -15.5t63 -60.5l154 -170l-115 -119zM270 698h269l-21 45 q-2 113 -21.5 155t-84.5 42q-82 0 -103.5 -36.5t-21.5 -160.5z" />
<glyph unicode="&#xe9;" horiz-adv-x="755" d="M94 502v77v110t2 95.5t5.5 82.5t11.5 69.5t19.5 56.5t29 45t40.5 34.5t54 23.5t69.5 13.5t86.5 4.5q56 0 99.5 -12t73.5 -30.5t51.5 -52t33.5 -66.5t18.5 -83t9 -93t2.5 -105l7 -140l-447 -10l16 -47q0 -58 0.5 -85.5t2 -67.5t5 -56.5t10 -40t16 -32t24.5 -18.5 t33.5 -12.5t44.5 -2.5q139 0 282 20v-160q-189 -34 -282 -34q-67 0 -115.5 11t-83.5 26.5t-57 52t-34.5 68.5t-18.5 97.5t-7.5 115.5t-1.5 145zM270 698h269l-21 45q-2 113 -21.5 155t-84.5 42q-82 0 -103.5 -36.5t-21.5 -160.5zM319 1337l150 170q33 33 45 44t30 21.5 t36 10.5q13 0 25.5 -6.5t19 -12t26.5 -24.5l15 -14l39 -37l-271 -270z" />
<glyph unicode="&#xea;" horiz-adv-x="755" d="M94 502v77v110t2 95.5t5.5 82.5t11.5 69.5t19.5 56.5t29 45t40.5 34.5t54 23.5t69.5 13.5t86.5 4.5q56 0 99.5 -12t73.5 -30.5t51.5 -52t33.5 -66.5t18.5 -83t9 -93t2.5 -105l7 -140l-447 -10l16 -47q0 -58 0.5 -85.5t2 -67.5t5 -56.5t10 -40t16 -32t24.5 -18.5 t33.5 -12.5t44.5 -2.5q139 0 282 20v-160q-189 -34 -282 -34q-67 0 -115.5 11t-83.5 26.5t-57 52t-34.5 68.5t-18.5 97.5t-7.5 115.5t-1.5 145zM147 1241v186l263 148h69l266 -150v-184l-299 164zM270 698h269l-21 45q-2 113 -21.5 155t-84.5 42q-82 0 -103.5 -36.5 t-21.5 -160.5z" />
<glyph unicode="&#xeb;" horiz-adv-x="755" d="M94 502v77v110t2 95.5t5.5 82.5t11.5 69.5t19.5 56.5t29 45t40.5 34.5t54 23.5t69.5 13.5t86.5 4.5q56 0 99.5 -12t73.5 -30.5t51.5 -52t33.5 -66.5t18.5 -83t9 -93t2.5 -105l7 -140l-447 -10l16 -47q0 -58 0.5 -85.5t2 -67.5t5 -56.5t10 -40t16 -32t24.5 -18.5 t33.5 -12.5t44.5 -2.5q139 0 282 20v-160q-189 -34 -282 -34q-67 0 -115.5 11t-83.5 26.5t-57 52t-34.5 68.5t-18.5 97.5t-7.5 115.5t-1.5 145zM139 1354q0 51 37 86t86 35q50 0 86.5 -34.5t36.5 -86.5q0 -50 -37 -87.5t-86 -37.5q-48 0 -85.5 38t-37.5 87zM270 698h269 l-21 45q-2 113 -21.5 155t-84.5 42q-82 0 -103.5 -36.5t-21.5 -160.5zM494 1354q0 52 36.5 86.5t87.5 34.5q50 0 86.5 -34.5t36.5 -86.5q0 -50 -37 -87.5t-86 -37.5t-86.5 37.5t-37.5 87.5z" />
<glyph unicode="&#xec;" horiz-adv-x="442" d="M-4 1497l55 55q15 15 23 21.5t20 12t27 5.5q23 0 43.5 -15.5t62.5 -59.5l154 -170l-115 -119zM117 81.5v33.5v985h50t38.5 -1.5t31.5 -1.5t22.5 -5t17.5 -7t10 -11.5t7.5 -15t2.5 -21.5t2 -26.5v-33.5v-985h-50t-38.5 1.5t-31.5 1.5t-22.5 5t-17.5 7t-10 11.5t-7.5 15 t-2.5 21.5t-2 26.5z" />
<glyph unicode="&#xed;" horiz-adv-x="397" d="M20 1341l150 170q33 33 45 44t30 21.5t36 10.5q13 0 25.5 -6.5t19 -12t26.5 -24.5l15 -14l39 -37l-271 -270zM92 81.5v33.5v985h50t38.5 -1.5t31.5 -1.5t22.5 -5t17.5 -7t10 -11.5t7.5 -15t2.5 -21.5t2 -26.5v-33.5v-985h-50t-38.5 1.5t-31.5 1.5t-22.5 5t-17.5 7 t-10 11.5t-7.5 15t-2.5 21.5t-2 26.5z" />
<glyph unicode="&#xee;" horiz-adv-x="663" d="M37 1235v186l262 148h70l266 -150v-184l-299 164zM238 81.5v33.5v985h50t38.5 -1.5t31.5 -1.5t22.5 -5t17.5 -7t10 -11.5t7.5 -15t2.5 -21.5t2 -26.5v-33.5v-985h-50t-38.5 1.5t-31.5 1.5t-22.5 5t-17.5 7t-10 11.5t-7.5 15t-2.5 21.5t-2 26.5z" />
<glyph unicode="&#xef;" horiz-adv-x="677" d="M-2 1366q0 51 37 86t86 35q50 0 86.5 -34.5t36.5 -86.5q0 -50 -37 -87.5t-86 -37.5q-48 0 -85.5 38t-37.5 87zM215 81.5v33.5v985h50t38.5 -1.5t31.5 -1.5t22.5 -5t17.5 -7t10 -11.5t7.5 -15t2.5 -21.5t2 -26.5v-33.5v-985h-50t-38.5 1.5t-31.5 1.5t-22.5 5t-17.5 7 t-10 11.5t-7.5 15t-2.5 21.5t-2 26.5zM352 1366q0 51 37 86t88 35q50 0 86.5 -34.5t36.5 -86.5q0 -50 -37 -87.5t-86 -37.5t-87 37.5t-38 87.5z" />
<glyph unicode="&#xf0;" horiz-adv-x="765" d="M53 512q0 110 1 157.5t6 117t18.5 94.5t34.5 60t57.5 44.5t85 18t119.5 8.5l104 -47q-15 174 -58 251.5t-130 77.5v181q64 0 117 -15t92 -37.5t68.5 -67t49.5 -83t33.5 -107.5t21 -118.5t11 -138.5t4 -145t0.5 -159q0 -92 -0.5 -140t-2.5 -115t-6 -98t-12.5 -75.5 t-20 -62.5t-29.5 -44t-40 -34.5t-54 -19t-68.5 -13t-85.5 -2.5q-48 0 -85 2.5t-68 12t-53.5 17.5t-40 31t-29 38.5t-19.5 54t-12 64.5t-6 82.5t-2.5 95t-0.5 114.5zM244 512q0 -224 18 -282t107 -58q93 0 112.5 72.5t16.5 359.5l-2 184l-129 52q-83 -1 -103 -60.5 t-20 -267.5zM362 842l5 -2h2z" />
<glyph unicode="&#xf1;" horiz-adv-x="849" d="M113 89.5v33.5v977q118 0 148.5 -6t33.5 -37l151 57q58 0 96.5 -2.5t73 -16t54 -26.5t36 -50t23.5 -69.5t12 -102t6 -131t1 -171.5v-545h-61.5t-44.5 2.5t-34 3.5t-21 9.5t-14.5 14t-5.5 22.5t-4 30v41v424q0 48 1 128q2 174 -12 218.5t-87 46.5l-189 -55l19 -58v-827 h-50t-38.5 1.5t-31.5 1.5t-22.5 5t-17.5 7t-10 11.5t-7.5 15t-2.5 21.5t-2 26.5zM172 1298v76v39.5t6.5 25t11.5 16.5t27 7t40 4h63q50 0 138 -9t151 -9q39 0 53 2l65 -2v-76v-31.5t-3 -22.5t-4.5 -17t-11.5 -11t-16.5 -7.5t-27 -2.5t-35.5 -2h-49q-54 0 -143 10t-148 10 q-35 0 -49 -4z" />
<glyph unicode="&#xf2;" horiz-adv-x="817" d="M92 555q0 95 0.5 142.5t4.5 115.5t12.5 99.5t23.5 74t37.5 59.5t56 36.5t78 25.5t103.5 6q48 0 86 -3.5t68.5 -16.5t53.5 -23t40.5 -37.5t29 -45.5t19 -62t12 -70.5t6 -87.5t2 -97.5t0.5 -115.5q0 -77 -0.5 -115.5t-2.5 -98.5t-6 -88.5t-12 -72t-19.5 -63t-29 -47 t-40.5 -39t-53.5 -24.5t-68.5 -17t-85 -4q-59 0 -103.5 6.5t-78 26.5t-56 38t-37.5 61.5t-23.5 75.5t-12.5 101t-4.5 117t-0.5 143zM215 1497l55 55q15 15 23 21.5t20 12t27 5.5q23 0 43.5 -15.5t62.5 -59.5l154 -170l-115 -119zM274 555q0 -88 0.5 -129.5t4.5 -97t12 -78.5 t23 -48.5t38 -33.5t56 -8q79 0 106 62q25 57 27 236v97q0 217 -12 278q-17 82 -71 100q-22 7 -50 7q-33 0 -56 -7.5t-38 -32t-23 -46.5t-12 -76.5t-4.5 -95t-0.5 -127.5z" />
<glyph unicode="&#xf3;" horiz-adv-x="817" d="M92 555q0 95 0.5 142.5t4.5 115.5t12.5 99.5t23.5 74t37.5 59.5t56 36.5t78 25.5t103.5 6q48 0 86 -3.5t68.5 -16.5t53.5 -23t40.5 -37.5t29 -45.5t19 -62t12 -70.5t6 -87.5t2 -97.5t0.5 -115.5q0 -77 -0.5 -115.5t-2.5 -98.5t-6 -88.5t-12 -72t-19.5 -63t-29 -47 t-40.5 -39t-53.5 -24.5t-68.5 -17t-85 -4q-59 0 -103.5 6.5t-78 26.5t-56 38t-37.5 61.5t-23.5 75.5t-12.5 101t-4.5 117t-0.5 143zM274 555q0 -88 0.5 -129.5t4.5 -97t12 -78.5t23 -48.5t38 -33.5t56 -8q79 0 106 62q25 57 27 236v97q0 217 -12 278q-17 82 -71 100 q-22 7 -50 7q-33 0 -56 -7.5t-38 -32t-23 -46.5t-12 -76.5t-4.5 -95t-0.5 -127.5zM334 1337l149 170q33 33 45 44t30 21.5t36 10.5q13 0 25.5 -6t20 -12.5t26.5 -24.5l14 -14l39 -37l-270 -270z" />
<glyph unicode="&#xf4;" horiz-adv-x="817" d="M92 555q0 95 0.5 142.5t4.5 115.5t12.5 99.5t23.5 74t37.5 59.5t56 36.5t78 25.5t103.5 6q48 0 86 -3.5t68.5 -16.5t53.5 -23t40.5 -37.5t29 -45.5t19 -62t12 -70.5t6 -87.5t2 -97.5t0.5 -115.5q0 -77 -0.5 -115.5t-2.5 -98.5t-6 -88.5t-12 -72t-19.5 -63t-29 -47 t-40.5 -39t-53.5 -24.5t-68.5 -17t-85 -4q-59 0 -103.5 6.5t-78 26.5t-56 38t-37.5 61.5t-23.5 75.5t-12.5 101t-4.5 117t-0.5 143zM109 1257v187l262 147h69l267 -149v-185l-299 164zM274 555q0 -88 0.5 -129.5t4.5 -97t12 -78.5t23 -48.5t38 -33.5t56 -8q79 0 106 62 q25 57 27 236v97q0 217 -12 278q-17 82 -71 100q-22 7 -50 7q-33 0 -56 -7.5t-38 -32t-23 -46.5t-12 -76.5t-4.5 -95t-0.5 -127.5z" />
<glyph unicode="&#xf5;" horiz-adv-x="817" d="M92 555q0 95 0.5 142.5t4.5 115.5t12.5 99.5t23.5 74t37.5 59.5t56 36.5t78 25.5t103.5 6q48 0 86 -3.5t68.5 -16.5t53.5 -23t40.5 -37.5t29 -45.5t19 -62t12 -70.5t6 -87.5t2 -97.5t0.5 -115.5q0 -77 -0.5 -115.5t-2.5 -98.5t-6 -88.5t-12 -72t-19.5 -63t-29 -47 t-40.5 -39t-53.5 -24.5t-68.5 -17t-85 -4q-59 0 -103.5 6.5t-78 26.5t-56 38t-37.5 61.5t-23.5 75.5t-12.5 101t-4.5 117t-0.5 143zM143 1298v76v39.5t6.5 25t11.5 16.5t27 7t40 4h63q50 0 138 -9t151 -9q39 0 53 2l65 -2v-76v-31.5t-3 -22.5t-4.5 -17t-11.5 -11t-16.5 -7.5 t-27 -2.5t-35.5 -2h-49q-53 0 -142 10t-149 10q-35 0 -49 -4zM274 555q0 -88 0.5 -129.5t4.5 -97t12 -78.5t23 -48.5t38 -33.5t56 -8q79 0 106 62q25 57 27 236v97q0 217 -12 278q-17 82 -71 100q-22 7 -50 7q-33 0 -56 -7.5t-38 -32t-23 -46.5t-12 -76.5t-4.5 -95 t-0.5 -127.5z" />
<glyph unicode="&#xf6;" horiz-adv-x="817" d="M92 555q0 95 0.5 142.5t4.5 115.5t12.5 99.5t23.5 74t37.5 59.5t56 36.5t78 25.5t103.5 6q48 0 86 -3.5t68.5 -16.5t53.5 -23t40.5 -37.5t29 -45.5t19 -62t12 -70.5t6 -87.5t2 -97.5t0.5 -115.5q0 -77 -0.5 -115.5t-2.5 -98.5t-6 -88.5t-12 -72t-19.5 -63t-29 -47 t-40.5 -39t-53.5 -24.5t-68.5 -17t-85 -4q-59 0 -103.5 6.5t-78 26.5t-56 38t-37.5 61.5t-23.5 75.5t-12.5 101t-4.5 117t-0.5 143zM111 1370q0 51 36.5 86t85.5 35q50 0 86.5 -34.5t36.5 -86.5q0 -50 -37 -87.5t-86 -37.5q-47 0 -84.5 38t-37.5 87zM274 555 q0 -88 0.5 -129.5t4.5 -97t12 -78.5t23 -48.5t38 -33.5t56 -8q79 0 106 62q25 57 27 236v97q0 217 -12 278q-17 82 -71 100q-22 7 -50 7q-33 0 -56 -7.5t-38 -32t-23 -46.5t-12 -76.5t-4.5 -95t-0.5 -127.5zM465 1370q0 51 37 86t88 35q50 0 86.5 -34.5t36.5 -86.5 q0 -50 -37 -87.5t-86 -37.5q-50 0 -87.5 37.5t-37.5 87.5z" />
<glyph unicode="&#xf7;" horiz-adv-x="563" d="M53 514v168h482v-168h-482zM160 123q0 52 36.5 86.5t86.5 34.5t86.5 -34.5t36.5 -86.5q0 -49 -37 -86t-86 -37t-86 37t-37 86zM172 979q0 52 36.5 86.5t86.5 34.5q51 0 88 -35t37 -86q0 -49 -37.5 -86t-87.5 -37q-49 0 -86 37t-37 86z" />
<glyph unicode="&#xf8;" horiz-adv-x="806" d="M72 -180l100 248q-49 59 -60.5 161t-11.5 328q0 79 0.5 116t2 98t5.5 87.5t11 70.5t18 61.5t27 45t37.5 37.5t50 23t63.5 16.5t80 3.5q42 0 60 -2l73 184h195l-107 -260q48 -59 60 -161.5t12 -319.5v-8q0 -86 -0.5 -126t-3 -105t-7.5 -93.5t-14.5 -73t-24.5 -62.5 t-36.5 -43.5t-51 -34t-68 -16t-87.5 -7.5q-27 0 -63 4l-68 -172h-192zM274 584q0 -242 8 -303q13 -100 64 -122q20 -9 49 -9q22 0 39 4.5t29.5 16.5t21 24.5t14.5 38.5t9.5 48t5 62.5t2 73t0.5 88.5q0 251 -6 305q-10 104 -56 130q-23 13 -59 13q-83 0 -102 -73t-19 -297z " />
<glyph unicode="&#xf9;" horiz-adv-x="841" d="M102 555v545h61t44 -2.5t33.5 -3.5t20.5 -9.5t14.5 -14t5.5 -22.5t4 -30v-41v-418v-6q0 -117 2 -169t12.5 -114t35.5 -85t68 -25l172 71q-16 48 -20 62v807h50.5t39 -1.5t31.5 -1.5t22.5 -5t18 -7t10.5 -11.5t7.5 -15t2.5 -21.5t2 -26.5v-33.5v-977h-14q-109 0 -138 8 t-32 47l-131 -69q-48 0 -87 4t-70 17t-54.5 24t-41 39.5t-29.5 47t-19.5 63t-11.5 71.5t-6 89t-2.5 98.5t-0.5 115.5zM211 1489l55 55q15 15 23 21.5t20 12t27 5.5q23 0 43 -15.5t63 -60.5l154 -170l-115 -118z" />
<glyph unicode="&#xfa;" horiz-adv-x="841" d="M102 555v545h61t44 -2.5t33.5 -3.5t20.5 -9.5t14.5 -14t5.5 -22.5t4 -30v-41v-418v-6q0 -117 2 -169t12.5 -114t35.5 -85t68 -25l172 71q-16 48 -20 62v807h50.5t39 -1.5t31.5 -1.5t22.5 -5t18 -7t10.5 -11.5t7.5 -15t2.5 -21.5t2 -26.5v-33.5v-977h-14q-109 0 -138 8 t-32 47l-131 -69q-48 0 -87 4t-70 17t-54.5 24t-41 39.5t-29.5 47t-19.5 63t-11.5 71.5t-6 89t-2.5 98.5t-0.5 115.5zM242 1337l149 170q33 33 45 44t30 21.5t36 10.5q13 0 25.5 -6.5t19 -12t26.5 -24.5l15 -14l39 -37l-271 -270z" />
<glyph unicode="&#xfb;" horiz-adv-x="841" d="M102 555v545h61t44 -2.5t33.5 -3.5t20.5 -9.5t14.5 -14t5.5 -22.5t4 -30v-41v-418v-6q0 -117 2 -169t12.5 -114t35.5 -85t68 -25l172 71q-16 48 -20 62v807h50.5t39 -1.5t31.5 -1.5t22.5 -5t18 -7t10.5 -11.5t7.5 -15t2.5 -21.5t2 -26.5v-33.5v-977h-14q-109 0 -138 8 t-32 47l-131 -69q-48 0 -87 4t-70 17t-54.5 24t-41 39.5t-29.5 47t-19.5 63t-11.5 71.5t-6 89t-2.5 98.5t-0.5 115.5zM115 1245v187l262 147h69l267 -149v-185l-299 164z" />
<glyph unicode="&#xfc;" horiz-adv-x="841" d="M102 555v545h61t44 -2.5t33.5 -3.5t20.5 -9.5t14.5 -14t5.5 -22.5t4 -30v-41v-418v-6q0 -117 2 -169t12.5 -114t35.5 -85t68 -25l172 71q-16 48 -20 62v807h50.5t39 -1.5t31.5 -1.5t22.5 -5t18 -7t10.5 -11.5t7.5 -15t2.5 -21.5t2 -26.5v-33.5v-977h-14q-109 0 -138 8 t-32 47l-131 -69q-48 0 -87 4t-70 17t-54.5 24t-41 39.5t-29.5 47t-19.5 63t-11.5 71.5t-6 89t-2.5 98.5t-0.5 115.5zM127 1374q0 51 37 86t86 35q50 0 86.5 -34.5t36.5 -86.5q0 -50 -37 -87.5t-86 -37.5q-48 0 -85.5 38t-37.5 87zM481 1374q0 51 37 86t88 35 q50 0 86.5 -34.5t36.5 -86.5q0 -50 -37 -87.5t-86 -37.5q-50 0 -87.5 37.5t-37.5 87.5z" />
<glyph unicode="&#xfd;" horiz-adv-x="729" d="M41 1100h50.5t39.5 -1t32.5 -2t24 -5t19.5 -6.5t13 -11t10.5 -14.5t6.5 -20t6.5 -25t4.5 -32l117 -737h30l125 854q108 0 138 -9.5t30 -56.5l-217 -1067q-8 -41 -12.5 -61t-14.5 -56.5t-19.5 -55.5t-26 -48t-35.5 -44.5t-46.5 -34t-61 -28t-77.5 -16t-96 -6.5v147 q80 0 136 50t56 116q0 17 -2 27zM185 1333l149 170q33 33 45 44t30 21.5t36 10.5q13 0 25.5 -6.5t19 -12t26.5 -24.5l15 -14l39 -37l-271 -270z" />
<glyph unicode="&#xfe;" horiz-adv-x="733" d="M92 -383v1858h59.5t43 -2.5t33 -4t20.5 -9.5t14.5 -14t5.5 -23t4 -30.5v-41.5v-277l117 41q54 0 96 -7t75 -16.5t57 -34t40.5 -44t27.5 -63t17 -74.5t9 -94t3.5 -106.5t0.5 -127.5q0 -78 -0.5 -115.5t-2.5 -98t-6 -88t-12 -70.5t-19.5 -61.5t-29 -46t-40.5 -38t-54 -23 t-69.5 -16.5t-86.5 -4l-123 84v-316v-37.5t-2 -29t-2.5 -23.5t-7.5 -17t-10 -13.5t-17 -7.5t-22 -5.5t-31.5 -2t-38.5 -1.5h-49zM272 229l140 -69q71 2 95 64q22 56 23 237v86q0 58 -0.5 87.5t-1.5 74.5t-4 68t-8.5 53.5t-14 46t-20 31.5t-28 23t-37.5 9l-144 -37v-674z" />
<glyph unicode="&#xff;" horiz-adv-x="729" d="M41 1100h50.5t39.5 -1t32.5 -2t24 -5t19.5 -6.5t13 -11t10.5 -14.5t6.5 -20t6.5 -25t4.5 -32l117 -737h30l125 854q108 0 138 -9.5t30 -56.5l-217 -1067q-8 -41 -12.5 -61t-14.5 -56.5t-19.5 -55.5t-26 -48t-35.5 -44.5t-46.5 -34t-61 -28t-77.5 -16t-96 -6.5v147 q80 0 136 50t56 116q0 17 -2 27zM82 1362q0 51 37 86t86 35q50 0 86.5 -34.5t36.5 -86.5q0 -50 -37 -87.5t-86 -37.5q-48 0 -85.5 38t-37.5 87zM436 1362q0 51 37 86t88 35q50 0 86.5 -34.5t36.5 -86.5q0 -50 -37 -87.5t-86 -37.5t-87 37.5t-38 87.5z" />
<glyph unicode="&#x152;" horiz-adv-x="1331" d="M84 750q0 125 1 183.5t5.5 151t15 133t29 100t48 83.5t71.5 52t100 37t133 9l179 -24h581v-175h-438l16 -73v-269l-16 -73h412v-183h-412l16 -71v-377l-16 -72h457v-182h-600l-183 -14q-75 0 -132 9.5t-99 39t-71 54.5t-47.5 86t-28.5 102.5t-14.5 135.5t-5.5 152.5 t-1 184.5zM279 745q0 -117 1 -172t6.5 -137t17.5 -118.5t34 -78t57 -56.5t84 -15l146 14v1116l-146 19q-32 -1 -58 -10.5t-46 -22.5t-34.5 -38.5t-25 -49t-17.5 -65.5t-10.5 -75t-5.5 -91t-2.5 -100.5t-0.5 -114.5v-5z" />
<glyph unicode="&#x153;" horiz-adv-x="1253" d="M86 555q0 85 0.5 127.5t3 106.5t8.5 93.5t16.5 72.5t26.5 61.5t39 42.5t55 32.5t73 15.5t93 7q153 0 224 -59q70 59 237 59q62 0 107 -10.5t76.5 -24t51.5 -47.5t31 -59.5t16 -84.5t6 -96.5t1 -119.5l20 -140l-460 -10q0 -84 2 -133t10.5 -98.5t24.5 -74.5t44 -40.5 t70 -15.5q59 0 170.5 9.5t130.5 10.5v-160q-31 -4 -94 -13.5t-112.5 -15t-94.5 -5.5q-161 0 -237 67q-67 -67 -224 -67q-47 0 -85 4t-68 17t-53 24t-40 38.5t-29 47t-19.5 63t-11.5 72t-6 88.5t-2.5 99t-0.5 116zM268 555q0 -221 12 -285q17 -85 72 -103q22 -7 49 -7 q33 0 56 8t38 33.5t23 48.5t12 78.5t4.5 97t0.5 129.5q0 87 -0.5 127.5t-4.5 95t-12 76.5t-23 46.5t-38 32t-56 7.5q-93 0 -113 -74.5t-20 -310.5zM702 698h267q0 142 -18.5 192t-88.5 50q-92 0 -115.5 -33.5t-23.5 -144.5z" />
<glyph unicode="&#x178;" horiz-adv-x="837" d="M41 1475h80h39.5t29.5 -2.5t23.5 -3.5t17 -9t14 -13t11.5 -21t13 -27.5t14 -38.5l135 -412h31l174 527h53q32 0 47 -0.5t33 -3.5t24.5 -9t11.5 -16t5 -27q0 -8 -5.5 -25t-32 -88.5t-79.5 -208.5t-152 -390v-707h-45h-49t-36 2.5t-27.5 4t-17 9.5t-12 14t-4.5 23t-3 30.5 v41.5v584zM129 1704q0 51 37 86t86 35q50 0 86.5 -34.5t36.5 -86.5q0 -50 -37 -87.5t-86 -37.5q-48 0 -85.5 38t-37.5 87zM483 1704q0 51 37 86t88 35q50 0 86.5 -34.5t36.5 -86.5q0 -50 -37 -87.5t-86 -37.5q-50 0 -87.5 37.5t-37.5 87.5z" />
<glyph unicode="&#x2c6;" horiz-adv-x="729" d="M66 1165v187l262 147h69l267 -149v-185l-299 164z" />
<glyph unicode="&#x2dc;" horiz-adv-x="768" d="M104 1298v76v39.5t6.5 25t11.5 16.5t27 7t40 4h63q50 0 138 -9t151 -9q39 0 53 2l65 -2v-76v-31.5t-3 -22.5t-4.5 -17t-11.5 -11t-16.5 -7.5t-27 -2.5t-35.5 -2h-49q-54 0 -143 10t-148 10q-35 0 -49 -4z" />
<glyph unicode="&#x2000;" horiz-adv-x="959" />
<glyph unicode="&#x2001;" horiz-adv-x="1919" />
<glyph unicode="&#x2002;" horiz-adv-x="959" />
<glyph unicode="&#x2003;" horiz-adv-x="1919" />
<glyph unicode="&#x2004;" horiz-adv-x="639" />
<glyph unicode="&#x2005;" horiz-adv-x="479" />
<glyph unicode="&#x2006;" horiz-adv-x="319" />
<glyph unicode="&#x2007;" horiz-adv-x="319" />
<glyph unicode="&#x2008;" horiz-adv-x="239" />
<glyph unicode="&#x2009;" horiz-adv-x="383" />
<glyph unicode="&#x200a;" horiz-adv-x="106" />
<glyph unicode="&#x2010;" horiz-adv-x="667" d="M92 575v168h481v-168h-481z" />
<glyph unicode="&#x2011;" horiz-adv-x="667" d="M92 575v168h481v-168h-481z" />
<glyph unicode="&#x2012;" horiz-adv-x="667" d="M92 575v168h481v-168h-481z" />
<glyph unicode="&#x2013;" horiz-adv-x="778" d="M92 575v168h592v-168h-592z" />
<glyph unicode="&#x2014;" horiz-adv-x="1198" d="M92 575v168h1012v-168h-1012z" />
<glyph unicode="&#x2018;" horiz-adv-x="385" d="M41 1106q0 40 41 138t82 176l41 79l108 -67l17 -35q-14 -40 -22.5 -70t-13 -50t-6.5 -44t-2 -36.5t0.5 -43.5t0.5 -51q0 -52 -36.5 -86.5t-86.5 -34.5q-51 0 -87 35.5t-36 89.5z" />
<glyph unicode="&#x2019;" horiz-adv-x="380" d="M55 1083q27 97 37 159t9.5 78t-5.5 56q0 52 36.5 87.5t86.5 35.5q52 0 88.5 -36t36.5 -91q0 -39 -41 -137.5t-82 -176.5l-41 -79l-108 68z" />
<glyph unicode="&#x201a;" horiz-adv-x="350" d="M53 -186q9 32 15.5 57.5t11 44t7 38.5t4.5 30t2.5 30.5t0.5 28v35v39.5q0 45 33 76.5t78 31.5t77.5 -32t32.5 -80q0 -39 -39.5 -135t-78.5 -172l-39 -76l-95 59z" />
<glyph unicode="&#x201c;" horiz-adv-x="696" d="M63 1106q0 40 40.5 138t80.5 176l41 79l111 -67l14 -35q-25 -82 -33 -140.5t-8 -154.5q0 -52 -36.5 -86.5t-86.5 -34.5q-51 0 -87 35.5t-36 89.5zM362 1106q0 40 40.5 138t81.5 176l40 79l111 -67l14 -35q-25 -82 -33 -140.5t-8 -154.5q0 -52 -36.5 -86.5t-86.5 -34.5 q-51 0 -87 35.5t-36 89.5z" />
<glyph unicode="&#x201d;" horiz-adv-x="696" d="M74 1083q41 146 41 293q0 52 36.5 87.5t86.5 35.5t86 -36t36 -91q0 -39 -40 -137.5t-80 -176.5l-41 -79l-111 68zM371 1083q41 146 41 293q0 52 36.5 87.5t86.5 35.5t86 -36t36 -91q0 -39 -40.5 -137.5t-80.5 -176.5l-40 -79l-115 70z" />
<glyph unicode="&#x201e;" horiz-adv-x="684" d="M72 -186q29 98 35 150.5t6 152.5q0 45 32.5 76.5t77.5 31.5t78 -32t33 -80q0 -39 -39.5 -135t-78.5 -172l-40 -76l-94 59zM360 -186q7 21 12 40t9.5 33.5t7.5 32t5 27t3.5 27.5t2 24.5t1 27.5t0.5 26.5v31.5v33q0 45 33 76.5t78 31.5t78 -32t33 -80q0 -39 -39.5 -135 t-79.5 -172l-39 -76l-96 59z" />
<glyph unicode="&#x2022;" horiz-adv-x="462" d="M66 612q0 69 48.5 117.5t116.5 48.5q67 0 117.5 -49t50.5 -117q0 -67 -50.5 -116.5t-117.5 -49.5t-116 49t-49 117z" />
<glyph unicode="&#x2026;" horiz-adv-x="952" d="M84 117q0 45 33 76.5t78 31.5t77.5 -31.5t32.5 -76.5q0 -44 -33 -77.5t-77 -33.5t-77.5 33.5t-33.5 77.5zM373 117q0 45 32.5 76.5t75.5 31.5q45 0 78 -31.5t33 -76.5q0 -44 -33.5 -77.5t-77.5 -33.5q-43 0 -75.5 33.5t-32.5 77.5zM647 117q0 45 33.5 76.5t77.5 31.5 q45 0 77.5 -31.5t32.5 -76.5q0 -44 -33 -77.5t-77 -33.5q-43 0 -77 33.5t-34 77.5z" />
<glyph unicode="&#x202f;" horiz-adv-x="383" />
<glyph unicode="&#x2039;" horiz-adv-x="434" d="M37 584v61l151 326h177l-160 -357l160 -356h-179z" />
<glyph unicode="&#x203a;" horiz-adv-x="434" d="M72 258l161 356l-161 357h176l149 -326v-61l-147 -326h-178z" />
<glyph unicode="&#x205f;" horiz-adv-x="479" />
<glyph unicode="&#x20ac;" horiz-adv-x="911" d="M27 381v70v37.5t6.5 24t11 16t26.5 6.5t39.5 4h61.5h10l-10 24v12l10 27h-10q-62 0 -78 -4l-61 4v70v28.5t2.5 21t4.5 16.5t11 10t16 7t25 3t33.5 2h46.5h12l-10 35q5 93 18.5 150.5t45 98t84 56.5t135.5 16l221 -16v-62t-5.5 -39.5t-10 -26.5t-23 -11.5t-34.5 -6.5h-54 h-94q-62 0 -84 -34.5t-27 -135.5l-16 -34h14q16 -1 46 -5t55.5 -6t48.5 -2q34 0 71 6l60 -4v-69v-37.5t-6.5 -24t-11 -16t-26 -7t-39 -3.5h-61.5q-80 0 -137 6h-10l10 -27l-8 -35h8q113 -10 141 -10q37 0 74 6l59 -4v-69v-36.5t-6 -23.5t-11 -16t-26 -7t-39 -4h-61 q-35 0 -131 7h-8l8 -21q5 -113 28 -155.5t85 -42.5h221v-146l-221 -16q-71 0 -119.5 13.5t-80.5 38.5t-49.5 72.5t-25 104t-10.5 143.5l8 21h-8q-68 0 -82 -4z" />
<glyph unicode="&#x2122;" horiz-adv-x="1144" d="M76 1313v162h360v-162h-114q0 -2 5 -17.5t5 -17.5v-563h-154v561l12 37h-114zM504 715v760h139l121 -287h27l122 287h138v-760h-152v407h-18l-33 -123h-139l-35 123h-17v-407h-153z" />
<glyph unicode="&#x25fc;" horiz-adv-x="1095" d="M0 0v1096h1096v-1096h-1096z" />
</font>
</defs>
</svg>
