<?xml version="1.0" standalone="no"?>
<!DOCTYPE svg PUBLIC "-//W3C//DTD SVG 1.1//EN" "http://www.w3.org/Graphics/SVG/1.1/DTD/svg11.dtd" >
<svg xmlns="http://www.w3.org/2000/svg" xmlns:xlink="http://www.w3.org/1999/xlink" version="1.1">
<metadata></metadata>
<defs>
<font id="fengardo_neueblack" horiz-adv-x="1058" >
<font-face units-per-em="2048" ascent="1475" descent="-573" />
<missing-glyph horiz-adv-x="450" />
<glyph unicode="&#xfb01;" horiz-adv-x="1259" d="M0 758v256h113v137q0 177 113 281t282 104q123 0 205 -39l-16 -24t-26 -56.5t-16 -77.5q0 -40 8.5 -70t16.5 -40l8 -10q-45 10 -98 10q-46 0 -77.5 -25t-31.5 -74v-116h629v-668q0 -55 29 -72.5t90 -17.5v-256q-44 -9 -85 -14.5t-91 -5.5t-92.5 8t-84 28.5t-70.5 53.5 t-47 87t-18 124v477h-260v-758h-368v758h-113zM715 1333q0 89 60.5 146t148.5 57q89 0 150 -57t61 -146q0 -85 -61 -140.5t-150 -55.5q-88 0 -148.5 55.5t-60.5 140.5z" />
<glyph unicode="&#xfb02;" horiz-adv-x="1273" d="M10 758v256h113v86q0 129 59.5 229.5t158.5 153.5t218 53q148 0 248 -53l317 53v-1190q0 -55 29 -72.5t90 -17.5v-256q-52 -11 -100 -16t-106.5 -4t-106 19t-88 50t-63.5 91.5t-23 140.5v927l-2 -8q-51 29 -123 29q-62 0 -100.5 -34t-38.5 -105v-76h155v-256h-155v-758 h-369v758h-113z" />
<glyph unicode="&#xfb03;" horiz-adv-x="1935" d="M0 758v256h113v127q0 177 113 281t282 104q134 0 244 -62l-68 -256q-41 11 -94 11q-46 0 -77.5 -25t-31.5 -74v-106h307v137q0 177 113.5 281t282.5 104q123 0 205 -39l-16 -24t-26 -56.5t-16 -77.5q0 -40 8.5 -70t16.5 -40l8 -10q-45 10 -98 10q-46 0 -77.5 -25 t-31.5 -74v-116h629v-668q0 -55 29 -72.5t90 -17.5v-256q-44 -9 -85 -14.5t-91 -5.5t-92.5 8t-84 28.5t-70.5 53.5t-47 87t-18 124v477h-260v-758h-369v758h-307v-758h-368v758h-113zM1391 1333q0 89 60 146t148 57q89 0 150 -57t61 -146q0 -85 -61 -140.5t-150 -55.5 q-87 0 -147.5 55.5t-60.5 140.5z" />
<glyph unicode="&#xfb04;" horiz-adv-x="1937" d="M0 758v256h113v127q0 177 113 281t282 104q138 0 233 -62l-57 -256q-41 11 -94 11q-46 0 -77.5 -25t-31.5 -74v-106h307v86q0 193 127 314.5t310 121.5q148 0 248 -53l315 53v-1190q0 -55 29 -72.5t90 -17.5v-256q-44 -9 -85 -14.5t-91 -5.5t-92.5 8t-84 28.5t-70.5 53.5 t-47 87t-18 124v919q-51 29 -123 29q-62 0 -100.5 -34t-38.5 -105v-76h156v-256h-156v-758h-369v758h-307v-758h-368v758h-113z" />
<glyph horiz-adv-x="0" />
<glyph horiz-adv-x="682" />
<glyph unicode=" "  horiz-adv-x="450" />
<glyph unicode="&#x09;" horiz-adv-x="450" />
<glyph unicode="&#xa0;" horiz-adv-x="450" />
<glyph unicode="!" horiz-adv-x="501" d="M31 1452l440 33l-106 -942h-232q-102 868 -102 909zM45 170q0 91 58.5 148t146.5 57q89 0 148 -57t59 -148q0 -87 -59.5 -144t-147.5 -57q-87 0 -146 57t-59 144z" />
<glyph unicode="&#x22;" horiz-adv-x="845" d="M31 1485l338 35l-21 -701h-239q-78 639 -78 666zM459 819q10 639 10 666l346 35l-117 -701h-239z" />
<glyph unicode="#" horiz-adv-x="1267" d="M41 293l31 256h190l14 153h-194l29 256h192l29 271h286l-26 -271h153l29 271h287l-27 -271h193l-27 -256h-190l-17 -153h195l-25 -256h-194l-29 -293h-291l29 293h-152l-28 -293h-291l29 293h-195zM551 549h154l14 153h-152z" />
<glyph unicode="$" horiz-adv-x="1103" d="M74 520l362 10q0 -155 137 -155q46 0 78.5 20.5t32.5 63.5q0 18 -7 32.5t-23 27t-32.5 22t-44 20t-49.5 17.5t-57.5 18.5t-58.5 19.5q-78 27 -131.5 54.5t-103 71.5t-74.5 108.5t-25 150.5q0 161 101.5 263t266.5 129v135l267 69v-213q156 -32 240.5 -134.5t74.5 -278.5 l-360 -10q0 72 -27.5 113.5t-83.5 41.5q-47 0 -76.5 -23.5t-29.5 -68.5q0 -15 3.5 -28t11.5 -24.5t16 -20.5t23.5 -18.5t26 -15.5t32 -15t34 -13.5t38 -14t38.5 -14.5q48 -18 77.5 -30t74.5 -34t73.5 -41.5t61.5 -50t51.5 -63t31.5 -76.5t13 -94q0 -144 -95 -240.5 t-249 -126.5v-147l-267 -70v213q-83 13 -149.5 42t-119 78.5t-79.5 125.5t-24 174z" />
<glyph unicode="%" horiz-adv-x="1517" d="M41 1083q0 136 86 223t221 87q136 0 222.5 -86.5t86.5 -223.5q0 -133 -89.5 -219t-219.5 -86q-135 0 -221 85t-86 220zM289 1085q0 -31 17.5 -51t43.5 -20t44 20t18 51t-18 51.5t-44 20.5t-43.5 -20.5t-17.5 -51.5zM301 0l690 1454h266l-690 -1454h-266zM860 274 q0 136 86 223t221 87q137 0 223.5 -87t86.5 -223q0 -133 -90 -219t-220 -86q-135 0 -221 85t-86 220zM1108 276q0 -31 17.5 -51t43.5 -20t44 20t18 51t-18 51.5t-44 20.5t-43.5 -20.5t-17.5 -51.5z" />
<glyph unicode="&#x26;" horiz-adv-x="1325" d="M51 424q0 113 62.5 205t169.5 149q-81 41 -137 124t-56 183q0 122 72.5 215t184.5 139t243 46q225 0 354 -121t129 -350l-358 -10q0 78 -32 120.5t-87 42.5q-58 0 -87.5 -39t-29.5 -98q0 -65 32 -108t101 -43v-246q-81 0 -126.5 -44.5t-45.5 -121.5q0 -82 51.5 -131 t129.5 -49q91 0 144.5 63t53.5 166v117h-104v246h579v-246h-106v-86q0 -164 -78 -297t-212 -207t-296 -74q-247 0 -399 123t-152 332z" />
<glyph unicode="'" horiz-adv-x="403" d="M31 1485l342 35l-45 -701h-240q-57 639 -57 666z" />
<glyph unicode="(" horiz-adv-x="755" d="M82 594q0 100 16 196t42.5 174t61.5 150t73.5 127t76.5 103t73 81t61.5 57t42.5 35l16 11l211 -35q-12 -14 -33 -41t-73.5 -116t-92.5 -185.5t-73 -246t-33 -300.5q0 -113 16 -221t42 -191t57.5 -157t63 -125.5t57.5 -89.5t42 -56l16 -18l-210 -55q-9 6 -25.5 17.5 t-63.5 53t-90 89.5t-95 127t-89.5 165.5t-63.5 205t-26 245.5z" />
<glyph unicode=")" horiz-adv-x="755" d="M0 1493l211 35q10 -6 26.5 -18.5t64.5 -57t92 -95t97 -133.5t91.5 -171.5t65 -209.5t26.5 -249q0 -100 -15.5 -194.5t-41.5 -170t-60 -145t-71.5 -122.5t-75.5 -98.5t-72 -76.5t-60 -53t-42 -32l-15 -11l-211 55q6 6 16.5 18.5t41.5 55t58.5 90t61.5 124.5t58.5 158 t41.5 190t17 222q0 110 -17 219t-43.5 194.5t-59.5 163t-65.5 133.5t-59 97t-43.5 61z" />
<glyph unicode="*" horiz-adv-x="872" d="M-25 1116l78 217l254 -100l-31 270l263 13l-29 -283l246 100l69 -231l-262 -47l201 -246l-207 -135l-156 254l-153 -250l-199 133l184 238z" />
<glyph unicode="+" horiz-adv-x="1105" d="M51 369v297h338v368h328v-368h338v-297h-338v-379h-328v379h-338z" />
<glyph unicode="," horiz-adv-x="501" d="M-10 -242q62 18 108 46t67.5 55t34.5 52t15 41l2 15q-77 3 -129.5 59.5t-52.5 145.5q0 90 61.5 143.5t141.5 53.5q103 0 163 -72t60 -184q0 -93 -28.5 -171t-72 -127.5t-99.5 -85.5t-106 -53t-96 -22z" />
<glyph unicode="-" horiz-adv-x="579" d="M31 369v297h518v-297h-518z" />
<glyph unicode="." horiz-adv-x="509" d="M51 174q0 94 57.5 152.5t145.5 58.5q89 0 147 -58.5t58 -152.5q0 -90 -58.5 -147.5t-146.5 -57.5q-87 0 -145 57.5t-58 147.5z" />
<glyph unicode="/" horiz-adv-x="1019" d="M-10 -205l733 1721h307l-733 -1721h-307z" />
<glyph unicode="0" horiz-adv-x="1120" d="M66 387q-5 224 0 340q4 87 39 164t96.5 136.5t154 94.5t203.5 35q213 0 350.5 -121t145.5 -305q6 -168 0 -344q-3 -87 -36.5 -162t-94 -132.5t-153 -90.5t-206.5 -33q-225 0 -359.5 120.5t-139.5 297.5zM430 410q3 -58 39 -96t92 -38q57 0 89.5 35.5t35.5 96.5 q9 154 0 303q-3 61 -36.5 100t-88.5 39q-63 0 -95 -35t-36 -110q-8 -113 0 -295z" />
<glyph unicode="1" horiz-adv-x="890" d="M82 0v225l197 47v539h-173l-22 203l418 121l145 -9v-854l203 -47v-225h-768z" />
<glyph unicode="2" horiz-adv-x="1062" d="M51 684q-7 211 127 342t344 131q91 0 171 -24t142.5 -70t99 -121.5t36.5 -171.5q0 -182 -180 -338q-54 -46 -133.5 -93.5t-137.5 -70.5l174 19h328v-287h-936l-20 211q23 17 370 295q46 36 77 67t59 78.5t28 93.5q0 47 -25 76t-65 29q-53 0 -82.5 -38.5t-28.5 -106.5z " />
<glyph unicode="3" horiz-adv-x="1112" d="M41 84l348 20q6 -79 46.5 -117t101.5 -38t98 46t37 138t-50.5 143.5t-146.5 51.5q-22 0 -44 -3t-33 -7l-11 -3l-49 162l229 342h-483v307h895l31 -225l-271 -385q136 -26 218.5 -138.5t82.5 -268.5q0 -209 -139 -338t-356 -129q-224 0 -361 123t-143 319z" />
<glyph unicode="4" horiz-adv-x="1155" d="M51 209l309 917l388 82l-306 -921h195l20 297l338 92v-389h129v-277h-129l-10 -338h-348v338h-547z" />
<glyph unicode="5" horiz-adv-x="1091" d="M51 74l348 20q12 -145 138 -145q65 0 100 54t35 144q0 108 -36.5 149.5t-100.5 41.5q-39 0 -69 -23.5t-42 -52.5l-295 21l57 843h781v-307h-486l-22 -274q77 39 200 39q78 0 145 -25t120.5 -75.5t84.5 -135t31 -194.5q0 -128 -41 -228t-111 -161t-158 -92t-187 -31 q-72 0 -140.5 16t-131.5 50.5t-110.5 84t-77 122t-32.5 159.5z" />
<glyph unicode="6" horiz-adv-x="1150" d="M63.5 728.5q-0.5 155.5 6.5 264.5q16 206 147 333.5t365 127.5q212 0 337 -106t128 -314l-349 -20q0 61 -32 97t-91 36q-67 0 -99.5 -42.5t-37.5 -129.5q-6 -94 -6 -230q8 17 24.5 37t49.5 47t91.5 44.5t131.5 17.5q162 0 266.5 -120.5t104.5 -307.5q0 -157 -67.5 -270 t-180 -167.5t-256.5 -54.5q-220 0 -367 131t-159 357q-6 114 -6.5 269.5zM438 469q13 -193 158 -193q59 0 97 44.5t38 123.5q0 85 -38 127.5t-105 42.5q-69 0 -107 -40.5t-43 -104.5z" />
<glyph unicode="7" horiz-adv-x="1048" d="M10 819v307h967l41 -256l-510 -1198h-408l494 1147h-584z" />
<glyph unicode="8" horiz-adv-x="1110" d="M51 391q0 220 197 336q-89 44 -139 128t-50 173q0 85 27 156t74 120t110.5 83.5t136.5 50.5t152 16q98 0 185 -25.5t156.5 -75t110 -130t40.5 -183.5q0 -88 -54 -176.5t-143 -136.5q99 -31 152 -119.5t53 -195.5q0 -112 -41.5 -199t-113 -139t-161.5 -78.5t-194 -26.5 q-102 0 -190.5 25.5t-158 75t-109.5 132.5t-40 189zM418 430q0 -77 39 -115.5t98 -38.5q58 0 97.5 39.5t39.5 114.5q0 74 -39.5 114t-97.5 40t-97.5 -40t-39.5 -114zM428 1012q0 -70 35.5 -106t91.5 -36q55 0 91 36.5t36 105.5q0 68 -35.5 101.5t-91.5 33.5t-91.5 -34 t-35.5 -101z" />
<glyph unicode="9" horiz-adv-x="1167" d="M51 653q0 103 33 193.5t94 160t157 110t214 40.5q234 0 372.5 -132.5t153.5 -352.5q19 -269 0 -561q-17 -226 -156.5 -347.5t-371.5 -121.5q-206 0 -340 114t-141 303l348 21q0 -60 41 -95.5t102 -35.5q138 0 150 166q6 91 6 215q-8 -22 -23.5 -42.5t-43.5 -42.5 t-76.5 -35t-110.5 -13q-176 0 -292 124t-116 332zM420 666q0 -92 41.5 -137.5t116.5 -45.5q76 0 106 46t23 118v19q-11 184 -152 184q-59 0 -97 -49.5t-38 -134.5z" />
<glyph unicode=":" horiz-adv-x="493" d="M61 174q0 94 57.5 152.5t145.5 58.5q89 0 147 -58.5t58 -152.5q0 -90 -58.5 -147.5t-146.5 -57.5q-87 0 -145 57.5t-58 147.5zM61 766q0 94 57.5 152.5t145.5 58.5q89 0 147 -58.5t58 -152.5q0 -90 -58.5 -147.5t-146.5 -57.5q-87 0 -145 57.5t-58 147.5z" />
<glyph unicode=";" horiz-adv-x="499" d="M-10 -242q62 18 108 46t67.5 55t34.5 52t15 41l2 15q-77 3 -129.5 59.5t-52.5 145.5q0 90 61.5 143.5t141.5 53.5q103 0 163 -72t60 -184q0 -93 -28.5 -171t-72 -127.5t-99.5 -85.5t-106 -53t-96 -22zM68 768q0 94 57.5 152.5t144.5 58.5q89 0 147 -58.5t58 -152.5 q0 -90 -58.5 -147.5t-146.5 -57.5q-87 0 -144.5 57.5t-57.5 147.5z" />
<glyph unicode="&#x3c;" horiz-adv-x="1046" d="M61 442v82l799 514l135 -229l-489 -303l2 -23l485 -327l-157 -219z" />
<glyph unicode="=" horiz-adv-x="1048" d="M51 190v287h946v-287h-946zM51 590v287h946v-287h-946z" />
<glyph unicode="&#x3e;" horiz-adv-x="1046" d="M51 164l488 303l-2 27l-484 323l158 219l774 -516v-82l-799 -504z" />
<glyph unicode="?" horiz-adv-x="995" d="M43 1024q-4 112 31.5 201t101 145t152.5 85.5t188 29.5q69 0 134.5 -16t122.5 -48.5t100 -78.5t67.5 -110.5t24.5 -139.5q0 -98 -43.5 -164t-157.5 -154q-24 -19 -56 -43t-48 -36.5t-36 -28.5t-29.5 -25.5t-19 -21t-13 -21.5t-3.5 -20v-46h-190l-13 52q-6 29 -6 54.5 t2 44.5t14.5 43t20 38t31.5 41t36.5 40t45.5 48q36 38 53 69.5t19.5 50t2.5 58.5q0 44 -21.5 70t-61.5 26q-42 0 -68 -35t-23 -98zM266 170q0 91 58.5 148t146.5 57q89 0 148 -57t59 -148q0 -87 -59.5 -144t-147.5 -57q-87 0 -146 57t-59 144z" />
<glyph unicode="@" horiz-adv-x="1964" d="M41 393q0 223 76.5 413t211 323.5t324.5 208.5t412 75q141 0 268 -29.5t235 -92t187 -152.5t123.5 -217t44.5 -279q0 -177 -64 -314t-189.5 -216.5t-295.5 -79.5q-231 0 -315 164q-102 -134 -258 -134q-59 0 -106.5 20t-84.5 61.5t-53.5 113.5t-7.5 168q10 111 43 238 q42 165 157 248t295 83q244 0 386 -133l-82 -475q-20 -123 75 -123q25 0 49.5 9.5t51.5 34.5t47.5 64t33.5 104t13 147q0 245 -146.5 389.5t-408.5 144.5q-320 0 -513.5 -200.5t-193.5 -536.5q0 -267 166 -420.5t453 -153.5q226 0 473 107l80 -184q-116 -91 -284 -136 t-339 -45q-177 0 -333 53.5t-274.5 153t-187.5 254t-69 344.5zM887 424q-12 -94 59 -94q51 0 74 47l59 323q-29 19 -61 19q-71 0 -92 -84q-25 -101 -39 -211z" />
<glyph unicode="A" horiz-adv-x="1243" d="M-10 0l327 1368v86h605l331 -1454h-419l-48 256h-348l-49 -256h-399zM504 584h223l-78 430l-31 188l-30 -188z" />
<glyph unicode="B" horiz-adv-x="1214" d="M102 0v1454q281 2 486 2q102 0 182 -9t155.5 -33.5t125.5 -64t80 -105t30 -152.5q0 -119 -79.5 -206.5t-200.5 -119.5v-6q9 0 34 -5t72 -25.5t86.5 -53.5t70 -99t30.5 -151q0 -69 -17.5 -129.5t-60.5 -116.5t-108 -95.5t-166 -63t-230 -23.5zM512 338q2 0 31 -1t57 -1 q76 0 120 30.5t44 108.5q0 141 -162 141q-21 0 -41.5 -0.5t-33.5 -1t-15 -0.5v-276zM512 860q2 0 36.5 -1t59.5 -1q66 0 105 32.5t39 102.5q0 63 -38.5 94t-119.5 31q-29 0 -55 -1t-27 -1v-256z" />
<glyph unicode="C" horiz-adv-x="1146" d="M66 455q-4 193 -4 332t4 223q4 115 51.5 207.5t124 149.5t172 87.5t200.5 30.5q108 0 201 -30.5t165 -90.5q70 -60 110 -158q36 -89 36 -200v-23l-378 -10q0 85 -36 129.5t-98 44.5q-60 0 -98 -40t-41 -116q-4 -96 -4.5 -225t4.5 -291q3 -82 39 -125t98 -43 q60 0 103 45.5t43 128.5l379 -10q0 -225 -144.5 -363.5t-390.5 -138.5q-156 0 -275.5 57.5t-188.5 168t-72 260.5z" />
<glyph unicode="D" horiz-adv-x="1241" d="M102 0v1454q184 10 381 10q645 0 680 -481q16 -217 16 -373q0 -84 -5 -151q-36 -469 -707 -469q-89 0 -180.5 2.5t-138.5 5.5zM502 332q2 -4 51 -4q190 0 203 172q6 77 6 216t-6 240q-11 170 -197 170l-57 -4v-790z" />
<glyph unicode="E" horiz-adv-x="1052" d="M102 0v1454h869v-338h-459v-215h416v-328h-416v-235h459v-338h-869z" />
<glyph unicode="F" horiz-adv-x="995" d="M102 0v1454h883v-338h-473v-276h432v-328h-432v-512h-410z" />
<glyph unicode="G" horiz-adv-x="1208" d="M66 455q-4 193 -4 332t4 223q4 115 52.5 207.5t126.5 149.5t174.5 87.5t201.5 30.5q86 0 163.5 -19t144.5 -59t115 -98.5t74 -142.5q23 -74 23 -162v-21l-379 -10q0 85 -39 129.5t-102 44.5t-103 -42.5t-43 -113.5q-5 -121 -5 -250t5 -266q3 -81 45 -124.5t105 -43.5 q68 0 106 40.5t43 111.5v73h-147v287h538q1 -76 1 -138q0 -126 -3 -200q-4 -133 -50.5 -234t-123.5 -160.5t-171.5 -88.5t-205.5 -29q-112 0 -209 31t-172 90.5t-119 153t-46 211.5z" />
<glyph unicode="H" horiz-adv-x="1372" d="M102 0v1454h410v-553h348v553h410v-1454h-410v563h-348v-563h-410z" />
<glyph unicode="I" horiz-adv-x="614" d="M102 0v1454h410v-1454h-410z" />
<glyph unicode="J" horiz-adv-x="1069" d="M2 471l358 10v-9q0 -165 115 -165q53 0 78 39t25 125v983h409v-983q0 -123 -40.5 -220.5t-110.5 -158t-160 -92t-193 -31.5q-105 0 -194.5 32.5t-156 93.5t-102.5 158q-29 81 -29 179q0 19 1 39z" />
<glyph unicode="K" horiz-adv-x="1288" d="M102 0v1454h410v-1454h-410zM522 739l326 715h432l-340 -670l358 -784h-450z" />
<glyph unicode="L" horiz-adv-x="956" d="M102 0v1454h410v-1116h424v-338h-834z" />
<glyph unicode="M" horiz-adv-x="1572" d="M102 0v1454h400l217 -543l63 -161h4l60 159l237 545h387v-1454h-409l4 637l20 197l-4 2l-77 -199l-170 -371h-129l-162 373l-72 197l-4 -2l20 -201l5 -633h-390z" />
<glyph unicode="N" horiz-adv-x="1357" d="M102 0v1454h355l360 -676l49 -137v813h389v-1454h-360l-344 598l-59 168v-766h-390z" />
<glyph unicode="O" horiz-adv-x="1232" d="M68 471q-5 123 -5 251.5t5 262.5q6 159 81.5 274t196 170.5t272.5 55.5t273 -55.5t196 -170.5t80 -274q4 -120 3.5 -249.5t-3.5 -268.5q-4 -160 -80.5 -274.5t-197.5 -169t-273 -54.5t-271.5 54.5t-194.5 170t-82 277.5zM471 734q0 -176 6 -273q8 -154 139 -154 q63 0 100.5 37.5t41.5 116.5q4 89 4 265.5t-4 277.5q-3 72 -40 107.5t-100 35.5q-62 0 -99.5 -35t-41.5 -108q-6 -94 -6 -270z" />
<glyph unicode="P" horiz-adv-x="1187" d="M102 0v1454q177 2 349 2q85 0 151.5 -3.5t146.5 -16t139.5 -33.5t118.5 -58.5t96.5 -89t61 -128t23.5 -171.5q0 -219 -154.5 -353t-410.5 -134l-111 4v-473h-410zM512 788q25 -2 70 -2q86 0 141 40.5t55 129.5q0 162 -211 162l-55 -2v-328z" />
<glyph unicode="Q" horiz-adv-x="1241" d="M68 471q-5 123 -5 251.5t5 262.5q6 159 81.5 274t196 170.5t272.5 55.5t273 -55.5t196 -170.5t80 -274q3 -120 3 -249.5t-3 -268.5q-6 -202 -120 -326.5t-297 -158.5q62 -6 225 -41q25 -5 67 -14t55 -11.5t36 -6t37.5 -4.5t33.5 -1q46 0 58 2v-256q-4 -5 -12 -13 t-36.5 -21t-62.5 -13q-145 0 -352 139q-20 13 -86.5 58t-95 63.5t-79.5 51.5t-90.5 55.5t-76.5 41.5q-135 54 -215.5 170.5t-87.5 288.5zM471 734q0 -176 6 -273q8 -154 139 -154q63 0 100.5 37.5t41.5 116.5q4 89 4 265.5t-4 277.5q-3 72 -40 107.5t-100 35.5 q-62 0 -99.5 -35t-41.5 -108q-6 -94 -6 -270z" />
<glyph unicode="R" horiz-adv-x="1226" d="M113 0v1454q196 4 413 4q97 0 175.5 -6.5t155.5 -23t133.5 -46.5t100.5 -74t66.5 -109t22.5 -148q0 -148 -73.5 -246.5t-195.5 -149.5q56 -29 103 -123q36 -75 94.5 -208t98.5 -228l40 -96h-436l-227 547h-62v-547h-409zM522 834q6 -5 45 -5q205 0 205 156 q0 154 -192 154l-58 -2v-303z" />
<glyph unicode="S" horiz-adv-x="1185" d="M63 471l379 10q0 -90 46 -132t120 -42q127 0 127 90q0 50 -58.5 91t-219.5 94q-85 28 -150.5 64.5t-120 89t-83.5 126.5t-29 166q0 111 43.5 200t118 144t169 84t199.5 29q109 0 201 -29.5t164 -88t111 -157.5q35 -88 35 -198q0 -14 -1 -29l-379 -10q0 174 -135 174 q-50 0 -83.5 -24t-33.5 -66q0 -39 20.5 -65.5t79.5 -57t179 -72.5q74 -26 127 -51.5t104 -63.5t82.5 -83.5t50.5 -110t19 -145.5q0 -199 -151 -319t-384 -120q-90 0 -171 18.5t-152.5 58t-122.5 96.5q-50 58 -78 142q-23 72 -24 156q0 15 1 31z" />
<glyph unicode="T" horiz-adv-x="1040" d="M-10 1116v338h1061v-338h-326v-1116h-410v1116h-325z" />
<glyph unicode="U" horiz-adv-x="1239" d="M83 898.5q0 252.5 1 403.5l2 152h391q-3 -113 -3 -489v-102q0 -290 3 -390q1 -77 41.5 -121.5t104.5 -44.5t100 44t39 122q3 94 3 383q-1 48 -1 102q0 374 -2 496h391q3 -260 3 -513t-3 -501q-2 -148 -78.5 -257t-196 -161.5t-264.5 -52.5q-106 0 -200 30.5t-167 88.5 t-116.5 149.5t-44.5 206.5q-3 202 -3 454.5z" />
<glyph unicode="V" horiz-adv-x="1222" d="M0 1454h430l195 -1057l188 1057h410l-324 -1454h-559z" />
<glyph unicode="W" horiz-adv-x="1775" d="M20 1454h431l96 -676l26 -254h7l26 254l115 676h352l125 -676l31 -260h6l25 260l86 676h409l-282 -1454h-429l-122 676l-27 227h-4l-27 -227l-116 -676h-445z" />
<glyph unicode="X" horiz-adv-x="1255" d="M0 0l371 752l-371 702h471l164 -387l162 387h440l-369 -711l398 -743h-471l-191 438l-164 -438h-440z" />
<glyph unicode="Y" horiz-adv-x="1148" d="M-61 1454h434l164 -420l43 -141l45 141l170 420h415l-436 -913v-541h-409v543z" />
<glyph unicode="Z" horiz-adv-x="1089" d="M31 229l530 887h-520v338h995l15 -219l-529 -897h537v-338h-1016z" />
<glyph unicode="[" horiz-adv-x="636" d="M51 -287v1803h545v-136l-197 -51v-1429l197 -52v-135h-545z" />
<glyph unicode="\" horiz-adv-x="921" d="M-10 1516h307l635 -1721h-303z" />
<glyph unicode="]" horiz-adv-x="636" d="M41 -152l197 52v1429l-197 51v136h545v-1803h-545v135z" />
<glyph unicode="^" horiz-adv-x="907" d="M10 1085l285 369h334l268 -369h-307l-131 201l-152 -201h-297z" />
<glyph unicode="_" horiz-adv-x="925" d="M-10 -72h946v-297h-946v297z" />
<glyph unicode="`" horiz-adv-x="604" d="M-20 1454h378l164 -297h-243z" />
<glyph unicode="a" d="M61 281q0 103 50 162.5t165 93.5q61 18 132.5 35.5t113.5 25.5l41 8v70q0 72 -55 72q-32 0 -50 -21q-14 -16 -14 -42q0 -9 2 -19l-337 -11q-2 21 -2 40q-1 149 101 243q114 106 314 106q180 0 295 -95t115 -271v-324q0 -61 19.5 -79.5t86.5 -18.5v-256q-38 -14 -89 -20 q-32 -4 -67 -5q-22 0 -44 2q-60 4 -115.5 36.5t-85.5 90.5h-4q-100 -135 -271 -135q-128 0 -214.5 88.5t-86.5 223.5zM430 334q0 -38 18.5 -58t49.5 -20q29 0 47 18.5t18 51.5v118q-45 -10 -80 -22q-53 -18 -53 -88z" />
<glyph unicode="b" horiz-adv-x="1042" d="M82 41v1434l369 61v-584q3 4 9 10t27 22t45 28t64 22t84 10q129 0 211 -82t86 -225q4 -98 4 -200.5t-4 -210.5q-4 -110 -71.5 -193t-165.5 -123.5t-208 -40.5q-118 0 -230.5 18t-165.5 36zM451 281q30 -15 77 -15q29 0 54 19.5t26 52.5q2 78 2 161t-2 171q0 40 -19.5 59 t-49.5 19q-40 0 -64 -28t-24 -69v-370z" />
<glyph unicode="c" horiz-adv-x="958" d="M66 352q-4 90 -4 172t4 156q5 111 67 195t159.5 126.5t215.5 42.5q200 0 308 -104q96 -93 96 -247q0 -19 -1 -38l-338 -10q1 11 1 21q0 30 -14 52q-18 30 -52 30q-32 0 -52.5 -21t-21.5 -61q-3 -75 -3.5 -153.5t3.5 -160.5q1 -39 23.5 -62.5t52.5 -23.5q36 0 54 26 q16 22 16 55v11l338 -10q-3 -164 -113 -271.5t-295 -107.5q-195 0 -316.5 101t-127.5 282z" />
<glyph unicode="d" horiz-adv-x="1091" d="M66 303q-4 90 -4 182.5t4 186.5q7 181 100.5 276.5t226.5 95.5q57 0 105.5 -13t67.5 -25l20 -13v482l368 61v-1182q0 -61 20 -79.5t87 -18.5v-256q-65 -23 -143 -25h-9q-73 0 -146 29q-77 31 -112 96q-3 -5 -8.5 -14t-27.5 -31.5t-49 -40t-73.5 -31.5t-99.5 -14 q-132 0 -226 88t-101 246zM434 348q1 -39 22.5 -60.5t55.5 -21.5t54 20.5t20 55.5v328q0 37 -22 57.5t-52 20.5q-33 0 -55 -20.5t-23 -57.5q-3 -80 -3 -161t3 -161z" />
<glyph unicode="e" horiz-adv-x="983" d="M66 352q-3 72 -3 146t3 151q6 176 133.5 285.5t316.5 109.5q116 0 208 -38.5t150 -122t58 -201.5q0 -103 -51 -148t-176 -71q-56 -12 -124 -24t-109 -17l-40 -6v-64q0 -40 20 -63t54 -23q32 0 53.5 21.5t22.5 60.5l338 -10q-6 -167 -122.5 -268t-291.5 -101 q-117 0 -212.5 40t-158.5 128.5t-69 214.5zM432 578q35 2 70 10q36 8 48.5 24t12.5 60q0 76 -63 76q-30 0 -49 -19t-19 -53v-98z" />
<glyph unicode="f" horiz-adv-x="679" d="M0 758v256h113v137q0 177 113 281t282 104q136 0 233 -55l-47 -262q-51 10 -104 10q-46 0 -77.5 -25t-31.5 -74v-116h197v-256h-197v-758h-368v758h-113z" />
<glyph unicode="g" horiz-adv-x="1087" d="M20 -231q0 60 27 90t92 49l111 24l100 11v10l-67 10q-85 17 -140 66.5t-55 134.5q0 140 172 213q-162 98 -162 299q0 117 63 202.5t161.5 125.5t218.5 40q47 0 92.5 -7.5t67.5 -14.5l22 -8h344q5 -51 5 -107q0 -66 -7 -139q-175 9 -223 18v-6q112 -42 112 -174 q0 -133 -110.5 -216t-296.5 -83q-70 0 -119 10q-33 -15 -33 -41q0 -20 8.5 -28.5t28.5 -11.5q34 -6 153 -21.5t183 -28.5q144 -30 226.5 -115t82.5 -216q0 -185 -143 -291.5t-371 -106.5q-148 0 -269 34.5t-197.5 106.5t-76.5 171zM391 -172q0 -37 46.5 -60.5t115.5 -23.5 q76 0 117 24t41 62q0 35 -23 56.5t-74 33.5l-165 -45q-31 -8 -44.5 -18t-13.5 -29zM469 678q0 -38 18 -61t54 -23q35 0 54 22t19 62q0 38 -18.5 59t-54.5 21q-31 0 -51.5 -20.5t-20.5 -59.5z" />
<glyph unicode="h" horiz-adv-x="1069" d="M92 0v1475l369 61v-627h4q81 135 246 135q127 0 206.5 -84t79.5 -262v-698h-368v645q0 103 -76 103q-27 0 -47 -11.5t-28.5 -28t-12.5 -30t-4 -23.5v-655h-369z" />
<glyph unicode="i" horiz-adv-x="600" d="M61 1333q0 89 60.5 146t148.5 57q89 0 150 -57t61 -146q0 -85 -61 -140.5t-150 -55.5q-88 0 -148.5 55.5t-60.5 140.5zM82 281v680l369 63v-678q0 -55 29 -72.5t89 -17.5v-256q-52 -11 -100 -16q-40 -4 -87 -4h-20q-58 1 -105.5 19t-88 50t-63.5 91.5t-23 140.5z" />
<glyph unicode="j" horiz-adv-x="606" d="M-20 -256q64 0 101.5 27t37.5 84v1106l368 63v-1198q0 -77 -18.5 -137.5t-49 -99t-73 -65t-87.5 -38t-97 -14.5h-35q-32 0 -59 2q-44 5 -88 14v256zM94 1333q0 89 60.5 146t148.5 57q89 0 150 -57t61 -146q0 -85 -61 -140.5t-150 -55.5q-88 0 -148.5 55.5t-60.5 140.5z " />
<glyph unicode="k" horiz-adv-x="1077" d="M92 0v1475l369 61v-1536h-369zM475 535v55l158 252q67 106 136 154t167 48q36 0 63 -4.5t36 -9.5l9 -4v-256q-45 0 -70.5 -13.5t-51.5 -51.5l-84 -127l112 -240q22 -48 51.5 -66t75.5 -18v-256q-70 -29 -125 -29q-37 0 -68 4.5t-67.5 18t-67 37t-62 64.5t-56.5 97z" />
<glyph unicode="l" horiz-adv-x="600" d="M82 281v1194l369 61v-1190q0 -55 29 -72.5t89 -17.5v-256q-52 -11 -100 -16q-40 -4 -87 -4h-20q-58 1 -105.5 19t-88 50t-63.5 91.5t-23 140.5z" />
<glyph unicode="m" horiz-adv-x="1587" d="M20 758v246q68 30 150 30q172 0 258 -127h8q81 137 256 137q85 0 152 -35.5t106 -103.5h8q91 139 261 139q142 0 219.5 -92t77.5 -266v-686h-369v670q0 78 -64 78q-33 0 -55 -27t-24 -59v-662h-369v664q0 84 -60 84q-33 0 -55.5 -22t-27.5 -52v-674h-369v651 q0 59 -22.5 83t-80.5 24z" />
<glyph unicode="n" horiz-adv-x="1095" d="M20 758v246q68 30 150 30q178 0 262 -133h4q89 143 275 143q140 0 226.5 -90t86.5 -276v-678h-369v668q0 37 -19 58.5t-52 21.5q-45 0 -67.5 -30t-24.5 -59v-659h-369v651q0 59 -22.5 83t-80.5 24z" />
<glyph unicode="o" horiz-adv-x="1017" d="M66 338q-3 81 -3 165t3 171q6 166 132 268t312 102t310.5 -102t131.5 -268q3 -78 3 -162.5t-3 -175.5q-6 -166 -130 -266.5t-312 -100.5q-123 0 -221.5 44.5t-158 129t-64.5 195.5zM434 354q1 -39 23 -63.5t53 -24.5t52 24.5t22 63.5q4 72 4 150t-4 160q-2 36 -23 60 t-51 24q-31 0 -52.5 -24.5t-23.5 -59.5q-4 -76 -4 -154t4 -156z" />
<glyph unicode="p" horiz-adv-x="1083" d="M20 758v256q50 13 102 16q16 2 33 2q38 0 78 -6q58 -8 110 -40t85 -85q4 6 11 15.5t32.5 34t54.5 43.5t76.5 34.5t99.5 15.5q138 0 224 -92t92 -260q3 -83 3 -170t-3 -178q-6 -186 -106 -280.5t-261 -94.5q-44 0 -83.5 8t-57.5 17l-18 8v-514h-369v1163q0 58 -24 82.5 t-79 24.5zM492 350q0 -38 21.5 -61t55.5 -23q37 0 58.5 23.5t21.5 58.5v307q0 93 -71 93q-36 0 -61 -29t-25 -68v-301z" />
<glyph unicode="q" horiz-adv-x="1036" d="M66 297q-4 67 -4 158t4 207q3 96 39 170.5t97.5 120t140 68.5t171.5 23q72 0 144 -7.5t123 -19t91.5 -22.5t61.5 -19l20 -7v-1481h-368v543q-3 -3 -7.5 -7t-22.5 -14.5t-39 -19t-55.5 -15t-72.5 -6.5q-133 0 -223.5 87t-99.5 241zM434 344q1 -35 21 -56.5t51 -21.5 q33 0 56.5 23t23.5 53v397q-18 9 -72 9q-35 0 -57 -20.5t-23 -61.5q-2 -104 -2 -184t2 -138z" />
<glyph unicode="r" horiz-adv-x="788" d="M20 758v246q68 30 150 30q47 0 84.5 -10t75 -34.5t64.5 -73t40 -119.5h6q0 100 58 173.5t149 73.5q97 0 141 -51l-20 -276q-25 2 -70 2q-98 0 -150.5 -33t-55.5 -123v-563h-369v651q0 59 -22.5 83t-80.5 24z" />
<glyph unicode="s" horiz-adv-x="929" d="M41 338l338 10q2 -36 22 -59t52 -23q30 0 48.5 17t18.5 41q0 11 -3 19.5t-12 16t-17 12t-27 10.5t-32.5 9.5t-42.5 11t-50 13.5q-52 15 -87.5 27.5t-77.5 36.5t-67 52.5t-42 73.5t-17 101q0 153 124.5 245t311.5 92q185 0 297 -106q97 -92 96 -229q0 -21 -2 -43l-337 -11 q0 93 -62 93q-25 0 -42 -14t-17 -42q0 -36 29 -55t114 -43q41 -11 58.5 -16t54 -17t52.5 -20t45 -23t42.5 -29t32 -35t26.5 -44t14.5 -52.5t6.5 -64.5q0 -134 -120.5 -229t-305.5 -95q-177 0 -295 93t-127 276z" />
<glyph unicode="t" horiz-adv-x="772" d="M-10 758v256h141v223l369 61v-284h243v-256h-243v-352q0 -82 38.5 -118t116.5 -36q72 0 97 4l10 -256q-91 -31 -223 -31q-64 0 -120 11t-110 38t-92.5 69t-62 108.5t-23.5 150.5v412h-141z" />
<glyph unicode="u" horiz-adv-x="1099" d="M72 358v605l368 61v-653q0 -105 76 -105q33 0 54 21t24 57v621l369 59v-670q0 -61 19.5 -79.5t86.5 -18.5v-256q-51 -18 -109 -22q-18 -1 -37 -1q-39 1 -78 7q-57 10 -108.5 38.5t-85.5 75.5q-5 -10 -13 -21t-30 -32t-48 -36.5t-69 -27.5t-92 -12q-149 0 -238 97.5 t-89 291.5z" />
<glyph unicode="v" horiz-adv-x="958" d="M-20 1014h395l80 -455l32 -207h7l36 207l86 455h363l-277 -1014h-436z" />
<glyph unicode="w" horiz-adv-x="1529" d="M-10 1014h395l55 -465l17 -158h6l24 156l103 467h352l105 -469l26 -152h10l21 154l63 467h373l-237 -1014h-429l-77 395l-33 223h-8l-31 -223l-86 -395h-414z" />
<glyph unicode="x" horiz-adv-x="1034" d="M-20 0l323 506l-321 508h421l125 -275l134 275h385l-302 -506l310 -508h-418l-137 248l-142 -248h-378z" />
<glyph unicode="y" horiz-adv-x="985" d="M-10 1014h389l84 -461l29 -180h4l34 180l97 461h368l-483 -1526h-369l170 522z" />
<glyph unicode="z" horiz-adv-x="911" d="M51 236l371 501h-371v277h789l12 -258l-354 -480h383v-276h-820z" />
<glyph unicode="{" horiz-adv-x="735" d="M20 551v133q69 16 102.5 54.5t33.5 111.5v362q0 76 22 134t58.5 91t83 52.5t96 22t97 -3.5t87 -21t64.5 -35l20 -125q-47 0 -76 -5t-55 -22t-37.5 -52t-11.5 -91v-272q0 -107 -71.5 -187t-172.5 -84q101 -6 172.5 -86.5t71.5 -187.5v-268q0 -56 11.5 -91t37.5 -52t55 -22 t76 -5l-20 -125q-29 -24 -77.5 -40.5t-105.5 -22.5t-114.5 8.5t-104.5 46t-76.5 95.5t-29.5 152v369q0 73 -33.5 111.5t-102.5 54.5z" />
<glyph unicode="|" horiz-adv-x="491" d="M102 -512v2048h287v-2048h-287z" />
<glyph unicode="}" horiz-adv-x="735" d="M51 -98q47 0 76 5t55 22t37.5 52t11.5 91v268q0 108 71 188t173 86q-102 4 -173 83.5t-71 187.5v272q0 56 -11.5 91t-37.5 52t-55 22t-76 5l21 125q25 20 64.5 35t87 21t97 3.5t96 -22t83 -52.5t58.5 -91t22 -134v-362q0 -73 33.5 -111.5t101.5 -54.5v-133 q-68 -16 -101.5 -54.5t-33.5 -111.5v-369q0 -88 -29.5 -152t-76.5 -95.5t-104.5 -46t-114.5 -8.5t-105.5 22.5t-77.5 40.5z" />
<glyph unicode="~" horiz-adv-x="815" d="M53.5 527q-3.5 57 13 107.5t61 85t108.5 34.5q74 0 201 -41t149 -41q8 0 15.5 4t12.5 8t11 14.5t8.5 16t8 19.5t7.5 18l82 -27q25 -46 30.5 -103t-9 -107.5t-57.5 -85t-107 -34.5q-62 0 -197.5 41t-152.5 41q-39 0 -74 -80l-82 27q-25 46 -28.5 103z" />
<glyph unicode="&#xa1;" horiz-adv-x="497" d="M27 -471l106 942h232q102 -868 102 -909zM41 844q0 87 59.5 143.5t147.5 56.5q87 0 146 -56.5t59 -143.5q0 -91 -58.5 -148t-146.5 -57q-89 0 -148 57t-59 148z" />
<glyph unicode="&#xa2;" horiz-adv-x="958" d="M66 352q-7 181 0 328q6 130 85.5 219.5t208.5 124.5v141l287 74v-211q136 -32 205 -129.5t59 -243.5l-338 -10q6 44 -12.5 73.5t-52.5 29.5q-32 0 -52.5 -21t-21.5 -61q-6 -150 0 -314q1 -39 23.5 -62.5t52.5 -23.5q36 0 54.5 25.5t15.5 66.5l338 -10q-3 -130 -74.5 -227 t-196.5 -133v-150l-287 -74v224q-133 33 -211.5 127t-82.5 237z" />
<glyph unicode="&#xa3;" horiz-adv-x="1214" d="M51 543l37 256h133q-2 70 -2 184q0 234 137.5 368t360.5 134q213 0 337 -132.5t107 -348.5l-379 -11q6 73 -17 113.5t-69 40.5q-88 0 -88 -143q0 -41 4 -205h226l-37 -256h-183v-45q0 -121 -88 -219q135 49 236 49h408l-37 -328h-1045l-33 215q7 1 18.5 4t40.5 18 t51.5 35.5t41 61t18.5 90.5q0 72 -2 119h-176z" />
<glyph unicode="&#xa5;" horiz-adv-x="1271" d="M0 1454h434l164 -420l43 -141l45 141l170 420h416l-369 -772h205v-195h-272v-71h272v-195h-272v-221h-410v221h-285v195h285v71h-285v195h219z" />
<glyph unicode="&#xa6;" horiz-adv-x="491" d="M102 338h287v-850h-287v850zM102 707v829h287v-829h-287z" />
<glyph unicode="&#xa7;" horiz-adv-x="1026" d="M72 139l338 11q1 -38 23 -60t56 -22q33 0 52.5 20t19.5 47q0 18 -11.5 33.5t-42.5 32.5t-50.5 25.5t-69.5 28.5q-18 7 -27 11q-61 24 -106 49t-88.5 61t-66.5 85.5t-23 109.5q0 69 38 124t95 87q13 -20 57.5 -39t190.5 -71q-31 -19 -31 -64q0 -25 20.5 -45.5t45 -32.5 t74.5 -33.5t81 -37.5q40 -20 58.5 -30t54.5 -32.5t55 -39t44.5 -44.5t38.5 -56t22.5 -66.5t9.5 -81.5q0 -139 -124.5 -228.5t-305.5 -89.5q-182 0 -301.5 92.5t-126.5 255.5zM117 1161q0 145 114 234.5t293 89.5q176 0 279 -90.5t102 -261.5l-313 -11q0 86 -62 86 q-24 0 -39.5 -17t-15.5 -46q0 -50 51 -85.5t162 -84.5q58 -26 101 -51.5t86 -63.5t66.5 -89t23.5 -112q0 -76 -34.5 -125.5t-92.5 -72.5q-22 24 -66.5 44t-196.5 75q27 22 27 65q0 23 -11 41t-36.5 34.5t-49.5 28t-68 31t-75 35.5q-55 28 -94.5 56t-76 68.5t-55.5 96 t-19 125.5z" />
<glyph unicode="&#xa8;" horiz-adv-x="950" d="M119 1313q0 65 45.5 110t109.5 45q63 0 108.5 -45.5t45.5 -109.5q0 -63 -45.5 -108.5t-108.5 -45.5q-64 0 -109.5 45.5t-45.5 108.5zM522 1313q0 64 45.5 109.5t110.5 45.5q63 0 108 -45.5t45 -109.5q0 -63 -45 -108.5t-108 -45.5q-64 0 -110 45.5t-46 108.5z" />
<glyph unicode="&#xa9;" horiz-adv-x="1748" d="M113 670q0 156 60 297.5t162 244t242.5 162.5t296.5 60q209 0 384.5 -102t277.5 -277.5t102 -384.5q0 -208 -102 -383t-277.5 -277t-384.5 -102q-155 0 -296 60t-243 162t-162 243t-60 297zM358 672q0 -239 146 -394t375 -155q226 0 370 155t144 394t-144 394t-370 155 q-229 0 -375 -155t-146 -394zM543 573q-7 81 0 209q9 139 99.5 216t242.5 77q155 0 244 -77.5t88 -215.5l-267 -10q0 46 -19.5 74t-56.5 28q-64 0 -67 -77q-3 -105 0 -226q2 -39 20.5 -60.5t53.5 -21.5q39 0 60.5 28.5t21.5 72.5l264 -10q-3 -135 -102.5 -214t-245.5 -79 q-313 0 -336 286z" />
<glyph unicode="&#xaa;" horiz-adv-x="790" d="M51 369v266h688v-266h-688zM51 981q0 66 35 105t111 61q39 12 88 23.5t79 16.5l29 5v41q0 47 -37 47q-20 0 -31.5 -13.5t-7.5 -39.5l-235 -6q-9 115 72.5 184.5t212.5 69.5q119 0 200.5 -62.5t81.5 -175.5v-209q0 -39 13 -51t57 -12v-166q-26 -9 -61 -14t-78.5 -3.5 t-82 23t-57.5 61.5h-2q-22 -37 -69.5 -62.5t-106.5 -25.5q-97 0 -154 57t-57 146zM305 1020q0 -47 45 -47q19 0 31 12t12 33v69q-30 -6 -53 -14q-35 -13 -35 -53z" />
<glyph unicode="&#xab;" horiz-adv-x="1167" d="M20 537v43l461 426l168 -185l-264 -235v-39l258 -279l-174 -180zM539 537v43l460 426l168 -185l-264 -235v-39l258 -279l-174 -180z" />
<glyph unicode="&#xac;" horiz-adv-x="1064" d="M51 379v297h963v-676h-328v379h-635z" />
<glyph unicode="&#xad;" horiz-adv-x="579" d="M31 369v297h518v-297h-518z" />
<glyph unicode="&#xae;" horiz-adv-x="1628" d="M51 670q0 209 102 384.5t277 277.5t383 102q209 0 384.5 -102t277.5 -277.5t102 -384.5q0 -208 -102 -383t-277.5 -277t-384.5 -102q-155 0 -296.5 60t-243.5 162t-162 243.5t-60 296.5zM297 672q0 -239 145.5 -394t374.5 -155q226 0 370 155t144 394t-144 394t-370 155 q-229 0 -374.5 -155t-145.5 -394zM502 307v748h332q158 0 241.5 -64t83.5 -164q0 -124 -137 -200l4 -3q3 -2 7.5 -6t9.5 -9.5t10.5 -13.5t9.5 -17l115 -271h-287l-105 275h-18v-275h-266zM768 723h45q41 0 60.5 19.5t19.5 50.5q0 59 -82 59h-43v-129z" />
<glyph unicode="&#xaf;" horiz-adv-x="802" d="M102 1116v266h598v-266h-598z" />
<glyph unicode="&#xb0;" horiz-adv-x="675" d="M20 1085q0 132 93 225t225 93t224.5 -93t92.5 -225t-92.5 -224.5t-224.5 -92.5t-225 92.5t-93 224.5zM256 1085q0 -38 23 -65t59 -27t59 27t23 65t-23 65.5t-59 27.5t-59 -27.5t-23 -65.5z" />
<glyph unicode="&#xb1;" horiz-adv-x="1146" d="M123 623v286h287v316h327v-316h287v-286h-287v-295h-327v295h-287zM172 -31v277h799v-277h-799z" />
<glyph unicode="&#xb2;" horiz-adv-x="817" d="M72 973q38 33 132 99.5t126 92.5q76 62 103.5 105t27.5 96q0 26 -14.5 41.5t-36.5 15.5q-68 0 -68 -92l-266 -10q-7 138 88 222.5t256 84.5q145 0 231 -73.5t86 -200.5q0 -70 -28.5 -119.5t-87.5 -101.5q-15 -14 -34 -27.5t-34.5 -24t-37.5 -22.5t-33 -17.5l-31 -15.5 t-23 -12h338v-215h-672z" />
<glyph unicode="&#xb3;" horiz-adv-x="786" d="M51 1044l266 11q0 -35 18.5 -53.5t47.5 -18.5t47.5 21t18.5 55q0 100 -123 100q-10 0 -64 -6l-16 102l139 138h-305v204h608v-147l-160 -180q90 -3 143.5 -62t53.5 -147q0 -127 -101.5 -205t-244.5 -78q-140 0 -229 66.5t-99 199.5z" />
<glyph unicode="&#xb4;" horiz-adv-x="612" d="M82 1157l154 297h409l-321 -297h-242z" />
<glyph unicode="&#xb6;" horiz-adv-x="1165" d="M31 696q0 79 27.5 147.5t80.5 120.5t137.5 81.5t190.5 29.5h49v-760h-49q-106 0 -190.5 30.5t-137.5 83.5t-80.5 121t-27.5 146zM471 0v195h152v983h-152v194h612v-194h-153v-983h153v-195h-612z" />
<glyph unicode="&#xb7;" horiz-adv-x="534" d="M82 522q0 94 57.5 152.5t145.5 58.5q89 0 146.5 -58.5t57.5 -152.5q0 -90 -58 -147.5t-146 -57.5q-87 0 -145 57.5t-58 147.5z" />
<glyph unicode="&#xb8;" horiz-adv-x="661" d="M86 -289h195q0 -23 14 -41t41 -18q21 0 33 13.5t12 35.5t-14 37.5t-39 15.5v185q122 0 195 -66.5t73 -167.5q0 -104 -74.5 -170.5t-183.5 -66.5t-184 65.5t-68 177.5z" />
<glyph unicode="&#xb9;" horiz-adv-x="688" d="M82 799v168l147 24v412h-135l-12 147l305 68l119 -10v-615l151 -24v-170h-575z" />
<glyph unicode="&#xba;" horiz-adv-x="727" d="M51 369v266h625v-266h-625zM61 1022q-6 102 0 209q6 110 89 177t217 67q133 0 215.5 -67.5t87.5 -176.5q6 -96 0 -209q-3 -110 -85.5 -177t-217.5 -67q-134 0 -217 66.5t-89 177.5zM317 1032q0 -25 15 -42t35 -17t33.5 17t13.5 42q6 89 0 193q0 23 -13.5 39t-33.5 16 t-35 -16t-15 -39q-6 -97 0 -193z" />
<glyph unicode="&#xbb;" horiz-adv-x="1167" d="M0 842l188 194l441 -461v-43l-428 -475l-195 191l252 291v39zM518 842l189 194l440 -461v-43l-428 -475l-195 191l252 291v39z" />
<glyph unicode="&#xbc;" horiz-adv-x="1886" d="M102 655v168l148 25v412h-135l-13 147l306 68l118 -11v-614l152 -25v-170h-576zM477 0l690 1454h267l-691 -1454h-266zM1040 315l334 504q174 0 305 -10v-440h105v-195h-105v-174h-266v174h-342zM1243 369h170v252z" />
<glyph unicode="&#xbd;" horiz-adv-x="1939" d="M102 655v168l148 25v412h-135l-13 147l306 68l118 -11v-614l152 -25v-170h-576zM477 0l690 1454h267l-691 -1454h-266zM1143 174q38 33 132 100t126 93q76 63 103.5 105t27.5 95q0 26 -14.5 42t-36.5 16q-68 0 -68 -93l-266 -10q-7 138 88 222.5t256 84.5 q145 0 231 -73.5t86 -200.5q0 -70 -28.5 -119.5t-87.5 -101.5q-15 -14 -34 -27.5t-34.5 -24t-37.5 -22.5t-33 -17.5l-31 -15.5t-23 -12h338v-215h-672z" />
<glyph unicode="&#xbe;" horiz-adv-x="1912" d="M102 901l267 10q0 -35 18 -53t47 -18t47.5 20.5t18.5 54.5q0 101 -123 101q-10 0 -64 -6l-16 102l139 137h-305v205h608v-147l-159 -181q90 -3 143 -61.5t53 -146.5q0 -127 -101.5 -205t-244.5 -78q-140 0 -229 66.5t-99 199.5zM512 0l690 1454h266l-690 -1454h-266z M1067 315l334 504q174 0 305 -10v-440h104v-195h-104v-174h-266v174h-342zM1270 369h170v252z" />
<glyph unicode="&#xbf;" horiz-adv-x="962" d="M-25 -78q0 98 43.5 164t157.5 154q24 19 56 43t48 36.5t36 28.5t29.5 25.5t19 21t13 21.5t3.5 20v45h190l13 -51q6 -29 6 -54.5t-2 -44.5t-14.5 -43t-20 -38t-31.5 -41t-36.5 -40t-45.5 -48q-36 -38 -53 -69.5t-19.5 -50t-2.5 -58.5q0 -44 22 -70.5t62 -26.5 q42 0 67.5 35t22.5 99l358 10q4 -112 -31.5 -201t-101 -145t-152.5 -85.5t-188 -29.5q-69 0 -134.5 16t-122.5 48.5t-100 78.5t-67.5 110.5t-24.5 139.5zM262 844q0 87 59.5 143.5t147.5 56.5q87 0 146 -56.5t59 -143.5q0 -91 -58.5 -148t-146.5 -57q-89 0 -148 57t-59 148z " />
<glyph unicode="&#xc0;" horiz-adv-x="1243" d="M-10 0l327 1368v86h605l331 -1454h-419l-48 256h-348l-49 -256h-399zM227 1759h389l154 -235h-244zM504 584h223l-78 430l-31 188l-30 -188z" />
<glyph unicode="&#xc1;" horiz-adv-x="1243" d="M-10 0l327 1368v86h605l331 -1454h-419l-48 256h-348l-49 -256h-399zM502 1528l164 235h399l-322 -235h-241zM504 584h223l-78 430l-31 188l-30 -188z" />
<glyph unicode="&#xc2;" horiz-adv-x="1243" d="M-10 0l327 1368v86h605l331 -1454h-419l-48 256h-348l-49 -256h-399zM252 1526l201 235h346l186 -235h-297l-70 108l-79 -108h-287zM504 584h223l-78 430l-31 188l-30 -188z" />
<glyph unicode="&#xc3;" horiz-adv-x="1243" d="M-10 0l327 1368v86h605l331 -1454h-419l-48 256h-348l-49 -256h-399zM321 1651.5q-5 46.5 9.5 87t57 66.5t106.5 26q52 0 101 -19.5t88.5 -39t68.5 -19.5q12 0 21 7.5t12.5 16t9.5 26t10 26.5l82 -27q24 -43 30.5 -89t-5.5 -86.5t-53 -66.5t-105 -26q-54 0 -143.5 39 t-114.5 39q-6 0 -11 -1t-9.5 -4.5t-8 -6t-7.5 -8.5l-6 -9t-6 -11t-5.5 -11.5t-5.5 -12.5t-5 -12l-82 27q-24 42 -29 88.5zM504 584h223l-78 430l-31 188l-30 -188z" />
<glyph unicode="&#xc4;" horiz-adv-x="1243" d="M-10 0l327 1368v86h605l331 -1454h-419l-48 256h-348l-49 -256h-399zM305 1675q0 60 42.5 103t103.5 43q58 0 99.5 -43t41.5 -103q0 -59 -41.5 -101t-99.5 -42q-61 0 -103.5 42t-42.5 101zM504 584h223l-78 430l-31 188l-30 -188zM664 1675q0 60 41.5 103t101.5 43 t101.5 -43t41.5 -103q0 -59 -41.5 -101t-101.5 -42t-101.5 42t-41.5 101z" />
<glyph unicode="&#xc5;" horiz-adv-x="1269" d="M-4 0l321 1386l13 68h57q2 -3 7 -8.5t25.5 -20t45.5 -25t70 -19.5t98 -9q48 0 90.5 8.5t68.5 20.5t45 24t27 21l8 8h76l332 -1454h-410l-53 266h-375l-57 -266h-389zM385 1649q0 93 68.5 154t175.5 61t175 -61t68 -154t-68.5 -155t-174.5 -62t-175 62t-69 155zM512 594 h240l-86 440l-31 189l-31 -189zM567 1649q0 -25 17.5 -43.5t44.5 -18.5t44 18t17 44q0 25 -17 43t-44 18t-44.5 -18t-17.5 -43z" />
<glyph unicode="&#xc6;" horiz-adv-x="1609" d="M-31 0l488 1454h1071v-338h-387v-215h344v-328h-344v-235h387v-338h-776v246h-287l-76 -246h-420zM565 573h187v601z" />
<glyph unicode="&#xc7;" horiz-adv-x="1146" d="M66 455q-7 386 0 555q4 115 51.5 207.5t124 149.5t172 87.5t200.5 30.5q108 0 201 -30.5t164.5 -90.5t111 -158t35.5 -223l-378 -10q0 85 -36 129.5t-98 44.5q-60 0 -98 -40t-41 -116q-8 -192 0 -516q3 -82 39 -125t98 -43q60 0 103 45.5t43 128.5l379 -10 q0 -225 -144.5 -363.5t-390.5 -138.5q-156 0 -275.5 57.5t-188.5 168t-72 260.5zM319 -268h195q0 -23 14 -41.5t41 -18.5q21 0 33 13.5t12 35.5t-14 38t-39 16v184q122 0 195 -66t73 -167q0 -104 -74.5 -171t-183.5 -67t-184 66t-68 178z" />
<glyph unicode="&#xc8;" horiz-adv-x="1052" d="M102 0v1454h869v-338h-459v-215h416v-328h-416v-235h459v-338h-869zM152 1761h389l153 -235h-243z" />
<glyph unicode="&#xc9;" horiz-adv-x="1052" d="M102 0v1454h869v-338h-459v-215h416v-328h-416v-235h459v-338h-869zM354 1526l164 235h400l-322 -235h-242z" />
<glyph unicode="&#xca;" horiz-adv-x="1052" d="M102 0v1454h869v-338h-459v-215h416v-328h-416v-235h459v-338h-869zM178 1526l201 235h346l186 -235h-297l-69 108l-80 -108h-287z" />
<glyph unicode="&#xcb;" horiz-adv-x="1052" d="M102 0v1454h869v-338h-459v-215h416v-328h-416v-235h459v-338h-869zM236 1679q0 60 42 103t103 43q58 0 99.5 -43t41.5 -103q0 -59 -41.5 -101t-99.5 -42q-61 0 -103 42t-42 101zM594 1679q0 60 41.5 103t101.5 43t102 -43t42 -103q0 -59 -42 -101t-102 -42t-101.5 42 t-41.5 101z" />
<glyph unicode="&#xcc;" horiz-adv-x="614" d="M-51 1761h389l154 -235h-244zM102 0v1454h410v-1454h-410z" />
<glyph unicode="&#xcd;" horiz-adv-x="614" d="M102 0v1454h410v-1454h-410zM145 1526l164 235h400l-322 -235h-242z" />
<glyph unicode="&#xce;" horiz-adv-x="614" d="M-63 1526l200 235h346l187 -235h-297l-70 108l-80 -108h-286zM102 0v1454h410v-1454h-410z" />
<glyph unicode="&#xcf;" horiz-adv-x="614" d="M-6 1677q0 60 42 103t103 43q58 0 100 -43t42 -103q0 -59 -42 -101t-100 -42q-61 0 -103 42t-42 101zM102 0v1454h410v-1454h-410zM352 1677q0 60 42 103t102 43t101.5 -43t41.5 -103q0 -59 -41.5 -101t-101.5 -42t-102 42t-42 101z" />
<glyph unicode="&#xd0;" horiz-adv-x="1261" d="M0 584v272l113 2v596q184 10 381 10q645 0 680 -481q24 -328 10 -524q-36 -469 -707 -469q-89 0 -180 2.5t-137 5.5l-47 2v580zM512 332q2 -4 51 -4q190 0 203 172q6 77 6 216t-6 240q-11 170 -197 170l-57 -4v-262l129 -4v-272l-129 -4v-248z" />
<glyph unicode="&#xd1;" horiz-adv-x="1357" d="M102 0v1454h355l360 -676l49 -137v813h389v-1454h-360l-344 598l-59 168v-766h-390zM372 1653.5q-5 46.5 9.5 87t57 66.5t106.5 26q52 0 101 -19.5t88.5 -39t68.5 -19.5q12 0 21 7.5t12.5 16t9.5 26t10 26.5l82 -27q24 -43 30.5 -89t-5.5 -86.5t-53 -66.5t-105 -26 q-54 0 -143.5 39t-114.5 39q-6 0 -11 -1t-9.5 -4.5t-8 -6t-7.5 -8.5l-6 -9t-6 -11t-5.5 -11.5t-5.5 -12.5t-5 -12l-82 27q-24 42 -29 88.5z" />
<glyph unicode="&#xd2;" horiz-adv-x="1232" d="M68 471q-10 246 0 514q6 159 81.5 274t196 170.5t272.5 55.5t273 -55.5t196 -170.5t80 -274q7 -240 0 -518q-4 -160 -80.5 -274.5t-197.5 -169t-273 -54.5t-271.5 54.5t-194.5 170t-82 277.5zM217 1761h389l154 -235h-244zM471 734q0 -176 6 -273q8 -154 139 -154 q63 0 100.5 37.5t41.5 116.5q4 89 4 265.5t-4 277.5q-3 72 -40 107.5t-100 35.5q-62 0 -99.5 -35t-41.5 -108q-6 -94 -6 -270z" />
<glyph unicode="&#xd3;" horiz-adv-x="1232" d="M68 471q-10 246 0 514q6 159 81.5 274t196 170.5t272.5 55.5t273 -55.5t196 -170.5t80 -274q7 -240 0 -518q-4 -160 -80.5 -274.5t-197.5 -169t-273 -54.5t-271.5 54.5t-194.5 170t-82 277.5zM471 734q0 -176 6 -273q8 -154 139 -154q63 0 100.5 37.5t41.5 116.5 q4 89 4 265.5t-4 277.5q-3 72 -40 107.5t-100 35.5q-62 0 -99.5 -35t-41.5 -108q-6 -94 -6 -270zM471 1526l164 235h399l-321 -235h-242z" />
<glyph unicode="&#xd4;" horiz-adv-x="1232" d="M68 471q-10 246 0 514q6 159 81.5 274t196 170.5t272.5 55.5t273 -55.5t196 -170.5t80 -274q7 -240 0 -518q-4 -160 -80.5 -274.5t-197.5 -169t-273 -54.5t-271.5 54.5t-194.5 170t-82 277.5zM256 1526l201 235h346l186 -235h-297l-69 108l-80 -108h-287zM471 734 q0 -176 6 -273q8 -154 139 -154q63 0 100.5 37.5t41.5 116.5q4 89 4 265.5t-4 277.5q-3 72 -40 107.5t-100 35.5q-62 0 -99.5 -35t-41.5 -108q-6 -94 -6 -270z" />
<glyph unicode="&#xd5;" horiz-adv-x="1232" d="M68 471q-10 246 0 514q6 159 81.5 274t196 170.5t272.5 55.5t273 -55.5t196 -170.5t80 -274q7 -240 0 -518q-4 -160 -80.5 -274.5t-197.5 -169t-273 -54.5t-271.5 54.5t-194.5 170t-82 277.5zM321 1651.5q-5 46.5 9.5 87t57 66.5t106.5 26q52 0 101 -19.5t88.5 -39 t68.5 -19.5q12 0 21 7.5t12.5 16t9.5 26t10 26.5l82 -27q24 -43 30.5 -89t-5.5 -86.5t-53 -66.5t-105 -26q-54 0 -143.5 39t-114.5 39q-6 0 -11 -1t-9.5 -4.5t-8 -6t-7.5 -8.5l-6 -9t-6 -11t-5.5 -11.5t-5.5 -12.5t-5 -12l-82 27q-24 42 -29 88.5zM471 734q0 -176 6 -273 q8 -154 139 -154q63 0 100.5 37.5t41.5 116.5q4 89 4 265.5t-4 277.5q-3 72 -40 107.5t-100 35.5q-62 0 -99.5 -35t-41.5 -108q-6 -94 -6 -270z" />
<glyph unicode="&#xd6;" horiz-adv-x="1232" d="M68 471q-10 246 0 514q6 159 81.5 274t196 170.5t272.5 55.5t273 -55.5t196 -170.5t80 -274q7 -240 0 -518q-4 -160 -80.5 -274.5t-197.5 -169t-273 -54.5t-271.5 54.5t-194.5 170t-82 277.5zM303 1677q0 60 42.5 103t103.5 43q58 0 99.5 -43t41.5 -103q0 -59 -41.5 -101 t-99.5 -42q-61 0 -103.5 42t-42.5 101zM471 734q0 -176 6 -273q8 -154 139 -154q63 0 100.5 37.5t41.5 116.5q4 89 4 265.5t-4 277.5q-3 72 -40 107.5t-100 35.5q-62 0 -99.5 -35t-41.5 -108q-6 -94 -6 -270zM662 1677q0 60 41.5 103t101.5 43t101.5 -43t41.5 -103 q0 -59 -41.5 -101t-101.5 -42t-101.5 42t-41.5 101z" />
<glyph unicode="&#xd7;" horiz-adv-x="1110" d="M51 203l293 289l-287 278l222 231l286 -292l299 295l195 -203l-291 -289l289 -281l-221 -231l-291 297l-293 -297z" />
<glyph unicode="&#xd8;" horiz-adv-x="1263" d="M31 -31l139 203q-90 124 -96 299q-10 246 0 514q6 159 81.5 274t196.5 170.5t273 55.5q177 0 313 -80l59 80h215l-133 -207q89 -127 95 -293q7 -240 0 -518q-4 -160 -80.5 -274.5t-197.5 -169t-273 -54.5q-176 0 -312 76l-55 -76h-225zM477 608l266 475q-34 64 -118 64 q-63 0 -100.5 -35.5t-41.5 -107.5q-10 -142 -6 -396zM514 356q35 -49 109 -49q133 0 141 154q4 72 4 336z" />
<glyph unicode="&#xd9;" horiz-adv-x="1239" d="M83 898.5q0 252.5 1 403.5l2 152h391q-2 -113 -2.5 -489t2.5 -492q1 -77 41.5 -121.5t104.5 -44.5t100 44t39 122q3 110 2.5 484.5t-2.5 496.5h391q6 -519 0 -1014q-2 -148 -78.5 -257t-196 -161.5t-264.5 -52.5q-106 0 -200 30.5t-167 88.5t-116.5 149.5t-44.5 206.5 q-3 202 -3 454.5zM207 1761h389l154 -235h-244z" />
<glyph unicode="&#xda;" horiz-adv-x="1239" d="M83 898.5q0 252.5 1 403.5l2 152h391q-2 -113 -2.5 -489t2.5 -492q1 -77 41.5 -121.5t104.5 -44.5t100 44t39 122q3 110 2.5 484.5t-2.5 496.5h391q6 -519 0 -1014q-2 -148 -78.5 -257t-196 -161.5t-264.5 -52.5q-106 0 -200 30.5t-167 88.5t-116.5 149.5t-44.5 206.5 q-3 202 -3 454.5zM485 1526l164 235h400l-322 -235h-242z" />
<glyph unicode="&#xdb;" horiz-adv-x="1239" d="M83 898.5q0 252.5 1 403.5l2 152h391q-2 -113 -2.5 -489t2.5 -492q1 -77 41.5 -121.5t104.5 -44.5t100 44t39 122q3 110 2.5 484.5t-2.5 496.5h391q6 -519 0 -1014q-2 -148 -78.5 -257t-196 -161.5t-264.5 -52.5q-106 0 -200 30.5t-167 88.5t-116.5 149.5t-44.5 206.5 q-3 202 -3 454.5zM256 1526l201 235h346l186 -235h-297l-69 108l-80 -108h-287z" />
<glyph unicode="&#xdc;" horiz-adv-x="1239" d="M83 898.5q0 252.5 1 403.5l2 152h391q-2 -113 -2.5 -489t2.5 -492q1 -77 41.5 -121.5t104.5 -44.5t100 44t39 122q3 110 2.5 484.5t-2.5 496.5h391q6 -519 0 -1014q-2 -148 -78.5 -257t-196 -161.5t-264.5 -52.5q-106 0 -200 30.5t-167 88.5t-116.5 149.5t-44.5 206.5 q-3 202 -3 454.5zM309 1679q0 60 42.5 103t103.5 43q58 0 99.5 -43t41.5 -103q0 -59 -41.5 -101t-99.5 -42q-61 0 -103.5 42t-42.5 101zM668 1679q0 60 41.5 103t101.5 43t101.5 -43t41.5 -103q0 -59 -41.5 -101t-101.5 -42t-101.5 42t-41.5 101z" />
<glyph unicode="&#xdd;" horiz-adv-x="1189" d="M-41 1454h434l164 -420l43 -141l45 141l170 420h416l-436 -913v-541h-410v543zM467 1526l164 235h399l-321 -235h-242z" />
<glyph unicode="&#xde;" horiz-adv-x="1198" d="M102 0v1454h410v-205h154q130 0 234 -42t167.5 -112.5t97 -157t33.5 -181.5q0 -94 -32.5 -180.5t-93.5 -156.5t-159 -111.5t-219 -41.5h-182v-266h-410zM512 594h111q80 0 122.5 44.5t42.5 119.5q0 73 -42.5 113t-127.5 40h-106v-317z" />
<glyph unicode="&#xdf;" horiz-adv-x="1159" d="M92 0v1081q0 110 44 198.5t117.5 143.5t165.5 84t193 29q124 0 225 -40.5t164.5 -127t63.5 -205.5q0 -44 -6 -73.5t-25 -54t-38 -40t-60 -43.5q-114 -77 -229 -135q58 9 113.5 6t106 -27t89.5 -60.5t63 -94.5t27 -129q3 -81 0 -176q-6 -167 -117.5 -256.5t-298.5 -89.5 q-66 0 -143 12v258q20 -4 74 -4q50 0 81.5 16.5t34.5 65.5q3 77 0 147q-3 54 -57.5 80t-112.5 13v366q93 73 115.5 98t22.5 64q0 133 -113 133q-58 0 -94.5 -36.5t-36.5 -94.5v-1108h-369z" />
<glyph unicode="&#xe0;" d="M61 281q0 103 50 162.5t165 93.5q61 18 132.5 35.5t113.5 25.5l41 8v70q0 72 -55 72q-32 0 -50 -21t-12 -61l-337 -11q-15 178 99.5 283.5t313.5 105.5q180 0 295 -95t115 -271v-324q0 -61 19.5 -79.5t86.5 -18.5v-256q-38 -14 -89 -20.5t-111.5 -2.5t-115.5 36.5 t-85 90.5h-4q-100 -135 -271 -135q-128 0 -214.5 88.5t-86.5 223.5zM150 1454h378l164 -297h-243zM430 334q0 -38 18.5 -58t49.5 -20q29 0 47 18.5t18 51.5v118q-45 -10 -80 -22q-53 -18 -53 -88z" />
<glyph unicode="&#xe1;" d="M61 281q0 103 50 162.5t165 93.5q61 18 132.5 35.5t113.5 25.5l41 8v70q0 72 -55 72q-32 0 -50 -21t-12 -61l-337 -11q-15 178 99.5 283.5t313.5 105.5q180 0 295 -95t115 -271v-324q0 -61 19.5 -79.5t86.5 -18.5v-256q-38 -14 -89 -20.5t-111.5 -2.5t-115.5 36.5 t-85 90.5h-4q-100 -135 -271 -135q-128 0 -214.5 88.5t-86.5 223.5zM352 1157l154 297h409l-321 -297h-242zM430 334q0 -38 18.5 -58t49.5 -20q29 0 47 18.5t18 51.5v118q-45 -10 -80 -22q-53 -18 -53 -88z" />
<glyph unicode="&#xe2;" d="M61 281q0 103 50 162.5t165 93.5q61 18 132.5 35.5t113.5 25.5l41 8v70q0 72 -55 72q-32 0 -50 -21t-12 -61l-337 -11q-15 178 99.5 283.5t313.5 105.5q180 0 295 -95t115 -271v-324q0 -61 19.5 -79.5t86.5 -18.5v-256q-38 -14 -89 -20.5t-111.5 -2.5t-115.5 36.5 t-85 90.5h-4q-100 -135 -271 -135q-128 0 -214.5 88.5t-86.5 223.5zM104 1116l242 297h326l227 -297h-307l-90 129l-101 -129h-297zM430 334q0 -38 18.5 -58t49.5 -20q29 0 47 18.5t18 51.5v118q-45 -10 -80 -22q-53 -18 -53 -88z" />
<glyph unicode="&#xe3;" d="M61 281q0 103 50 162.5t165 93.5q61 18 132.5 35.5t113.5 25.5l41 8v70q0 72 -55 72q-32 0 -50 -21t-12 -61l-337 -11q-15 178 99.5 283.5t313.5 105.5q180 0 295 -95t115 -271v-324q0 -61 19.5 -79.5t86.5 -18.5v-256q-38 -14 -89 -20.5t-111.5 -2.5t-115.5 36.5 t-85 90.5h-4q-100 -135 -271 -135q-128 0 -214.5 88.5t-86.5 223.5zM180 1275.5q-4 52.5 11.5 97.5t57.5 74.5t103 29.5t123 -22t110.5 -44t76.5 -22q16 0 24.5 11.5t16.5 39t12 35.5l82 -27q25 -46 30.5 -98t-8 -97t-54 -74.5t-101.5 -29.5q-51 0 -116 22t-118 44t-76 22 q-10 0 -18 -4.5t-15 -15.5t-11 -19t-10 -24.5t-9 -22.5l-82 27q-25 45 -29 97.5zM430 334q0 -38 18.5 -58t49.5 -20q29 0 47 18.5t18 51.5v118q-45 -10 -80 -22q-53 -18 -53 -88z" />
<glyph unicode="&#xe4;" d="M61 281q0 103 50 162.5t165 93.5q61 18 132.5 35.5t113.5 25.5l41 8v70q0 72 -55 72q-32 0 -50 -21t-12 -61l-337 -11q-15 178 99.5 283.5t313.5 105.5q180 0 295 -95t115 -271v-324q0 -61 19.5 -79.5t86.5 -18.5v-256q-38 -14 -89 -20.5t-111.5 -2.5t-115.5 36.5 t-85 90.5h-4q-100 -135 -271 -135q-128 0 -214.5 88.5t-86.5 223.5zM152 1300q0 65 45.5 110.5t109.5 45.5q63 0 108.5 -46t45.5 -110q0 -63 -45.5 -108t-108.5 -45q-64 0 -109.5 45t-45.5 108zM430 334q0 -38 18.5 -58t49.5 -20q29 0 47 18.5t18 51.5v118q-45 -10 -80 -22 q-53 -18 -53 -88zM555 1300q0 64 45.5 110t110.5 46q63 0 108 -46t45 -110q0 -63 -45 -108t-108 -45q-64 0 -110 45t-46 108z" />
<glyph unicode="&#xe5;" d="M61 281q0 103 50 162.5t165 93.5q61 18 132.5 35.5t113.5 25.5l41 8v70q0 72 -55 72q-32 0 -50 -21t-12 -61l-337 -11q-15 178 99.5 283.5t313.5 105.5q180 0 295 -95t115 -271v-324q0 -61 19.5 -79.5t86.5 -18.5v-256q-38 -14 -89 -20.5t-111.5 -2.5t-115.5 36.5 t-85 90.5h-4q-100 -135 -271 -135q-128 0 -214.5 88.5t-86.5 223.5zM264 1321q0 93 68.5 154t175.5 61t175.5 -61t68.5 -154t-69 -155t-175 -62t-175 62t-69 155zM430 334q0 -38 18.5 -58t49.5 -20q29 0 47 18.5t18 51.5v118q-45 -10 -80 -22q-53 -18 -53 -88zM446 1321 q0 -25 17.5 -43t44.5 -18t44 18t17 43t-17 43t-44 18t-44.5 -18t-17.5 -43z" />
<glyph unicode="&#xe6;" horiz-adv-x="1476" d="M61 281q0 104 50 165t165 91q61 16 132.5 30.5t113.5 20.5l41 6v82q0 72 -55 72q-32 0 -50 -21t-12 -61l-337 -11q-15 178 99.5 283.5t313.5 105.5q146 0 246 -63q101 63 242 63q114 0 206.5 -39.5t150.5 -122t58 -196.5q0 -37 -6.5 -65.5t-22 -49t-31.5 -35t-46 -26.5 t-54.5 -19.5t-66.5 -17.5q-56 -14 -124 -25t-108 -16l-40 -4v-76q0 -53 36 -75t73 -2t40 73l338 -10q-6 -167 -122.5 -268t-291.5 -101q-108 0 -195 37t-142 109q-44 -65 -121.5 -105.5t-178.5 -40.5q-128 0 -214.5 88.5t-86.5 223.5zM430 334q0 -38 18.5 -58t49.5 -20 q29 0 47 18.5t18 51.5v116q-45 -8 -80 -20q-53 -18 -53 -88zM926 588q34 2 69 10q36 8 49 22.5t13 51.5t-17 56.5t-47 19.5t-48.5 -19t-18.5 -53v-88z" />
<glyph unicode="&#xe7;" horiz-adv-x="958" d="M66 352q-7 181 0 328q5 111 67 195t159.5 126.5t215.5 42.5q200 0 308 -104t95 -285l-338 -10q6 44 -12.5 73.5t-52.5 29.5q-32 0 -52.5 -21t-21.5 -61q-6 -150 0 -314q1 -39 23.5 -62.5t52.5 -23.5q36 0 54.5 25.5t15.5 66.5l338 -10q-3 -164 -113 -271.5t-295 -107.5 q-195 0 -316.5 101t-127.5 282zM231 -268h195q0 -23 14 -41.5t41 -18.5q21 0 33 13.5t12 35.5t-14 38t-39 16v184q122 0 195 -66t73 -167q0 -104 -74.5 -171t-183.5 -67t-184 66t-68 178z" />
<glyph unicode="&#xe8;" horiz-adv-x="983" d="M66 352q-6 144 0 297q6 176 133.5 285.5t316.5 109.5q116 0 208 -38.5t150 -122t58 -201.5q0 -103 -51 -148t-176 -71q-56 -12 -124 -24t-109 -17l-40 -6v-64q0 -40 20 -63t54 -23q32 0 53.5 21.5t22.5 60.5l338 -10q-6 -167 -122.5 -268t-291.5 -101q-117 0 -212.5 40 t-158.5 128.5t-69 214.5zM86 1454h379l164 -297h-244zM432 578q35 2 70 10q36 8 48.5 24t12.5 60q0 76 -63 76q-30 0 -49 -19t-19 -53v-98z" />
<glyph unicode="&#xe9;" horiz-adv-x="983" d="M66 352q-6 144 0 297q6 176 133.5 285.5t316.5 109.5q116 0 208 -38.5t150 -122t58 -201.5q0 -103 -51 -148t-176 -71q-56 -12 -124 -24t-109 -17l-40 -6v-64q0 -40 20 -63t54 -23q32 0 53.5 21.5t22.5 60.5l338 -10q-6 -167 -122.5 -268t-291.5 -101q-117 0 -212.5 40 t-158.5 128.5t-69 214.5zM326 1157l153 297h410l-322 -297h-241zM432 578q35 2 70 10q36 8 48.5 24t12.5 60q0 76 -63 76q-30 0 -49 -19t-19 -53v-98z" />
<glyph unicode="&#xea;" horiz-adv-x="983" d="M66 352q-6 144 0 297q6 176 133.5 285.5t316.5 109.5q116 0 208 -38.5t150 -122t58 -201.5q0 -103 -51 -148t-176 -71q-56 -12 -124 -24t-109 -17l-40 -6v-64q0 -40 20 -63t54 -23q32 0 53.5 21.5t22.5 60.5l338 -10q-6 -167 -122.5 -268t-291.5 -101q-117 0 -212.5 40 t-158.5 128.5t-69 214.5zM96 1116l242 297h326l227 -297h-307l-90 129l-101 -129h-297zM432 578q35 2 70 10q36 8 48.5 24t12.5 60q0 76 -63 76q-30 0 -49 -19t-19 -53v-98z" />
<glyph unicode="&#xeb;" horiz-adv-x="983" d="M66 352q-6 144 0 297q6 176 133.5 285.5t316.5 109.5q116 0 208 -38.5t150 -122t58 -201.5q0 -103 -51 -148t-176 -71q-56 -12 -124 -24t-109 -17l-40 -6v-64q0 -40 20 -63t54 -23q32 0 53.5 21.5t22.5 60.5l338 -10q-6 -167 -122.5 -268t-291.5 -101q-117 0 -212.5 40 t-158.5 128.5t-69 214.5zM141 1280q0 64 45.5 110t110.5 46q63 0 108.5 -46t45.5 -110q0 -63 -45.5 -108.5t-108.5 -45.5q-64 0 -110 45.5t-46 108.5zM432 578q35 2 70 10q36 8 48.5 24t12.5 60q0 76 -63 76q-30 0 -49 -19t-19 -53v-98zM545 1280q0 65 45.5 110.5 t109.5 45.5q63 0 108.5 -46t45.5 -110q0 -63 -45.5 -108.5t-108.5 -45.5q-64 0 -109.5 45.5t-45.5 108.5z" />
<glyph unicode="&#xec;" horiz-adv-x="600" d="M-100 1454h379l163 -297h-243zM82 281v680l369 63v-678q0 -55 29 -72.5t89 -17.5v-256q-52 -11 -100 -16t-106.5 -4t-106 19t-88 50t-63.5 91.5t-23 140.5z" />
<glyph unicode="&#xed;" horiz-adv-x="600" d="M82 281v680l369 63v-678q0 -55 29 -72.5t89 -17.5v-256q-52 -11 -100 -16t-106.5 -4t-106 19t-88 50t-63.5 91.5t-23 140.5zM113 1157l153 297h410l-322 -297h-241z" />
<glyph unicode="&#xee;" horiz-adv-x="600" d="M-121 1116l242 297h325l228 -297h-307l-91 129l-100 -129h-297zM82 281v680l369 63v-678q0 -55 29 -72.5t89 -17.5v-256q-52 -11 -100 -16t-106.5 -4t-106 19t-88 50t-63.5 91.5t-23 140.5z" />
<glyph unicode="&#xef;" horiz-adv-x="600" d="M-74 1280q0 64 46 110t110 46q63 0 108.5 -46t45.5 -110q0 -63 -45.5 -108.5t-108.5 -45.5q-64 0 -110 45.5t-46 108.5zM82 281v680l369 63v-678q0 -55 29 -72.5t89 -17.5v-256q-52 -11 -100 -16t-106.5 -4t-106 19t-88 50t-63.5 91.5t-23 140.5zM330 1280 q0 65 45.5 110.5t109.5 45.5q63 0 108.5 -46t45.5 -110q0 -63 -45.5 -108.5t-108.5 -45.5q-64 0 -109.5 45.5t-45.5 108.5z" />
<glyph unicode="&#xf0;" horiz-adv-x="1038" d="M63 1118l291 187q-103 93 -243 151l229 60q105 -14 217 -80l125 80h272l-268 -175q266 -244 266 -675q7 -161 0 -349q-6 -162 -132.5 -255t-313.5 -93q-184 0 -307.5 90t-132.5 250q-6 115 0 301q6 179 103.5 271t233.5 92q100 0 164 -41q-33 151 -112 262l-117 -76h-275 zM434 326q1 -37 24 -58.5t52 -21.5q27 0 50 21.5t24 58.5q7 160 2 292q-1 38 -22.5 58t-51.5 20q-33 0 -55 -20.5t-23 -57.5q-6 -144 0 -292z" />
<glyph unicode="&#xf1;" horiz-adv-x="1095" d="M20 758v246q68 30 150 30q178 0 262 -133h4q89 143 275 143q140 0 226.5 -90t86.5 -276v-678h-369v668q0 37 -19 58.5t-52 21.5q-45 0 -67.5 -30t-24.5 -59v-659h-369v651q0 59 -22.5 83t-80.5 24zM229 1275.5q-4 52.5 11.5 97.5t57.5 74.5t103 29.5t123 -22t110.5 -44 t76.5 -22q16 0 24.5 11.5t16.5 39t12 35.5l82 -27q25 -46 30.5 -98t-8 -97t-54 -74.5t-101.5 -29.5q-51 0 -116 22t-118 44t-76 22q-10 0 -18 -4.5t-15 -15.5t-11 -19t-10 -24.5t-9 -22.5l-82 27q-25 45 -29 97.5z" />
<glyph unicode="&#xf2;" horiz-adv-x="1017" d="M66 338q-6 162 0 336q6 166 132 268t312 102t310.5 -102t131.5 -268q6 -156 0 -338q-6 -166 -130 -266.5t-312 -100.5q-123 0 -221.5 44.5t-158 129t-64.5 195.5zM84 1454h379l164 -297h-244zM434 354q1 -39 23 -63.5t53 -24.5t52 24.5t22 63.5q7 145 0 310q-2 36 -23 60 t-51 24q-31 0 -52.5 -24.5t-23.5 -59.5q-7 -153 0 -310z" />
<glyph unicode="&#xf3;" horiz-adv-x="1017" d="M66 338q-6 162 0 336q6 166 132 268t312 102t310.5 -102t131.5 -268q6 -156 0 -338q-6 -166 -130 -266.5t-312 -100.5q-123 0 -221.5 44.5t-158 129t-64.5 195.5zM377 1159l153 297h410l-322 -297h-241zM434 354q1 -39 23 -63.5t53 -24.5t52 24.5t22 63.5q7 145 0 310 q-2 36 -23 60t-51 24q-31 0 -52.5 -24.5t-23.5 -59.5q-7 -153 0 -310z" />
<glyph unicode="&#xf4;" horiz-adv-x="1017" d="M66 338q-6 162 0 336q6 166 132 268t312 102t310.5 -102t131.5 -268q6 -156 0 -338q-6 -166 -130 -266.5t-312 -100.5q-123 0 -221.5 44.5t-158 129t-64.5 195.5zM115 1116l241 297h326l227 -297h-307l-90 129l-100 -129h-297zM434 354q1 -39 23 -63.5t53 -24.5t52 24.5 t22 63.5q7 145 0 310q-2 36 -23 60t-51 24q-31 0 -52.5 -24.5t-23.5 -59.5q-7 -153 0 -310z" />
<glyph unicode="&#xf5;" horiz-adv-x="1017" d="M66 338q-6 162 0 336q6 166 132 268t312 102t310.5 -102t131.5 -268q6 -156 0 -338q-6 -166 -130 -266.5t-312 -100.5q-123 0 -221.5 44.5t-158 129t-64.5 195.5zM186 1275.5q-4 52.5 11.5 97.5t57.5 74.5t103 29.5t123 -22t110.5 -44t76.5 -22q16 0 24.5 11.5t16.5 39 t12 35.5l82 -27q25 -46 30.5 -98t-8 -97t-54 -74.5t-101.5 -29.5q-51 0 -116 22t-118 44t-76 22q-10 0 -18 -4.5t-15 -15.5t-11 -19t-10 -24.5t-9 -22.5l-82 27q-25 45 -29 97.5zM434 354q1 -39 23 -63.5t53 -24.5t52 24.5t22 63.5q7 145 0 310q-2 36 -23 60t-51 24 q-31 0 -52.5 -24.5t-23.5 -59.5q-7 -153 0 -310z" />
<glyph unicode="&#xf6;" horiz-adv-x="1017" d="M66 338q-6 162 0 336q6 166 132 268t312 102t310.5 -102t131.5 -268q6 -156 0 -338q-6 -166 -130 -266.5t-312 -100.5q-123 0 -221.5 44.5t-158 129t-64.5 195.5zM154 1280q0 65 45.5 110.5t109.5 45.5q63 0 108.5 -46t45.5 -110q0 -63 -45.5 -108.5t-108.5 -45.5 q-64 0 -109.5 45.5t-45.5 108.5zM434 354q1 -39 23 -63.5t53 -24.5t52 24.5t22 63.5q7 145 0 310q-2 36 -23 60t-51 24q-31 0 -52.5 -24.5t-23.5 -59.5q-7 -153 0 -310zM557 1280q0 64 45.5 110t110.5 46q63 0 108 -46t45 -110q0 -63 -45 -108.5t-108 -45.5q-64 0 -110 45.5 t-46 108.5z" />
<glyph unicode="&#xf7;" horiz-adv-x="1048" d="M51 369v297h946v-297h-946zM328 113q0 88 55.5 144t136.5 56q83 0 139 -56t56 -144q0 -84 -56.5 -139.5t-138.5 -55.5q-80 0 -136 55.5t-56 139.5zM330 915q0 88 55.5 144.5t136.5 56.5q83 0 139 -56.5t56 -144.5q0 -84 -56 -139t-139 -55q-81 0 -136.5 55t-55.5 139z " />
<glyph unicode="&#xf8;" horiz-adv-x="1038" d="M76 -31l90 140q-84 94 -90 229q-6 162 0 336q6 166 132 268t312 102q133 0 236 -53l37 53h194l-104 -155q74 -90 80 -215q6 -156 0 -338q-6 -166 -130.5 -266.5t-312.5 -100.5q-116 0 -221 43l-29 -43h-194zM440 473l138 240q-21 35 -58 35q-31 0 -52.5 -24.5 t-23.5 -59.5q-4 -114 -4 -191zM469 287q21 -21 51 -21q31 0 52 24.5t22 63.5q2 45 2 160z" />
<glyph unicode="&#xf9;" horiz-adv-x="1099" d="M72 358v605l368 61v-653q0 -105 76 -105q36 0 57 23.5t21 62.5v613l369 59v-670q0 -61 19.5 -79.5t86.5 -18.5v-256q-52 -17 -109.5 -21.5t-114.5 5t-108.5 38.5t-85.5 76q-5 -10 -13 -21t-30 -32t-48 -36.5t-69 -27.5t-92 -12q-149 0 -238 97.5t-89 291.5zM174 1454h379 l164 -297h-244z" />
<glyph unicode="&#xfa;" horiz-adv-x="1099" d="M72 358v605l368 61v-653q0 -105 76 -105q33 0 54 20t24 54v625l369 59v-670q0 -61 19.5 -79.5t86.5 -18.5v-256q-52 -17 -109.5 -21.5t-114.5 5t-108.5 38.5t-85.5 76q-5 -10 -13 -21t-30 -32t-48 -36.5t-69 -27.5t-92 -12q-149 0 -238 97.5t-89 291.5zM367 1157l153 297 h410l-322 -297h-241z" />
<glyph unicode="&#xfb;" horiz-adv-x="1099" d="M72 358v605l368 61v-653q0 -105 76 -105q33 0 54 21t24 57v621l369 59v-670q0 -61 19.5 -79.5t86.5 -18.5v-256q-52 -17 -109.5 -21.5t-114.5 5t-108.5 38.5t-85.5 76q-5 -10 -13 -21t-30 -32t-48 -36.5t-69 -27.5t-92 -12q-149 0 -238 97.5t-89 291.5zM119 1116l241 297 h326l227 -297h-307l-90 129l-100 -129h-297z" />
<glyph unicode="&#xfc;" horiz-adv-x="1099" d="M72 358v605l368 61v-653q0 -105 76 -105q33 0 54 21t24 57v621l369 59v-670q0 -61 19.5 -79.5t86.5 -18.5v-256q-52 -17 -109.5 -21.5t-114.5 5t-108.5 38.5t-85.5 76q-5 -10 -13 -21t-30 -32t-48 -36.5t-69 -27.5t-92 -12q-149 0 -238 97.5t-89 291.5zM164 1280 q0 65 45.5 110.5t109.5 45.5q63 0 108.5 -46t45.5 -110q0 -63 -45.5 -108.5t-108.5 -45.5q-64 0 -109.5 45.5t-45.5 108.5zM567 1280q0 64 45.5 110t110.5 46q63 0 108.5 -46t45.5 -110q0 -63 -45.5 -108.5t-108.5 -45.5q-64 0 -110 45.5t-46 108.5z" />
<glyph unicode="&#xfd;" horiz-adv-x="985" d="M-10 1014h389l84 -461l29 -180h4l34 180l97 461h368l-483 -1526h-369l170 522zM326 1157l153 297h410l-322 -297h-241z" />
<glyph unicode="&#xfe;" horiz-adv-x="1052" d="M92 -512v1987l369 61v-584q3 4 9 10t27 22t45 28t64 22t84 10q129 0 211 -82t86 -225q7 -188 0 -393q-6 -186 -105.5 -280.5t-260.5 -94.5q-44 0 -84 8t-58 17l-18 8v-514h-369zM461 350q0 -40 21.5 -62t56.5 -22q37 0 58 23.5t21 58.5q3 150 0 322q0 40 -19.5 59 t-49.5 19q-39 0 -62.5 -25.5t-25.5 -63.5v-309z" />
<glyph unicode="&#xff;" horiz-adv-x="985" d="M-10 1014h389l84 -461l29 -180h4l34 180l97 461h368l-483 -1526h-369l170 522zM143 1280q0 64 45.5 110t110.5 46q63 0 108.5 -46t45.5 -110q0 -63 -45.5 -108.5t-108.5 -45.5q-64 0 -110 45.5t-46 108.5zM547 1280q0 65 45.5 110.5t109.5 45.5q63 0 108.5 -46t45.5 -110 q0 -63 -45.5 -108.5t-108.5 -45.5q-64 0 -109.5 45.5t-45.5 108.5z" />
<glyph unicode="&#x152;" horiz-adv-x="1667" d="M68 471q-10 246 0 514q6 159 81.5 274t196 170.5t272.5 55.5q109 0 197 -31h770v-338h-469v-215h426v-328h-426v-235h469v-338h-772q-88 -31 -197 -31q-152 0 -271.5 54.5t-194.5 170t-82 277.5zM471 734q0 -176 6 -273q8 -154 139 -154q82 0 111 31v776q-33 33 -109 33 q-62 0 -99.5 -35t-41.5 -108q-6 -94 -6 -270z" />
<glyph unicode="&#x153;" horiz-adv-x="1507" d="M66 338q-6 162 0 336q6 166 132 268t312 102q154 0 266 -71q117 71 264 71q116 0 208 -38.5t150 -122t58 -201.5q0 -103 -51 -148t-176 -71q-56 -12 -124 -24t-109 -17l-40 -6v-64q0 -40 20 -63t54 -23q32 0 53.5 21.5t22.5 60.5l338 -10q-6 -167 -122.5 -268 t-291.5 -101q-150 0 -260 64q-116 -64 -260 -64q-123 0 -221.5 44.5t-158 129t-64.5 195.5zM434 354q1 -39 23 -63.5t53 -24.5t52 24.5t22 63.5q7 145 0 310q-2 36 -23 60t-51 24q-31 0 -52.5 -24.5t-23.5 -59.5q-7 -153 0 -310zM956 578q35 2 70 10q36 8 48.5 24t12.5 60 q0 76 -63 76q-30 0 -49 -19t-19 -53v-98z" />
<glyph unicode="&#x178;" horiz-adv-x="1189" d="M-41 1454h434l164 -420l43 -141l45 141l170 420h416l-436 -913v-541h-410v543zM246 1690q0 64 45 109.5t110 45.5q63 0 108.5 -45.5t45.5 -109.5q0 -63 -45.5 -108.5t-108.5 -45.5q-64 0 -109.5 45.5t-45.5 108.5zM649 1690q0 64 45.5 109.5t110.5 45.5q63 0 108 -45.5 t45 -109.5q0 -63 -45 -108.5t-108 -45.5q-64 0 -110 45.5t-46 108.5z" />
<glyph unicode="&#x2c6;" horiz-adv-x="815" d="M10 1157l242 297h326l227 -297h-307l-90 129l-101 -129h-297z" />
<glyph unicode="&#x2dc;" horiz-adv-x="856" d="M104 1316.5q-4 52.5 11.5 97.5t57.5 74.5t103 29.5t123 -22t110.5 -44t76.5 -22q16 0 24.5 11.5t16.5 39t12 35.5l82 -27q25 -46 30.5 -98t-8 -97t-54 -74.5t-101.5 -29.5q-51 0 -115.5 22t-117.5 44t-76 22q-10 0 -18 -4.5t-15.5 -16t-11 -18.5t-10.5 -24.5l-9 -22.5 l-82 27q-25 45 -29 97.5z" />
<glyph unicode="&#x2000;" horiz-adv-x="932" />
<glyph unicode="&#x2001;" horiz-adv-x="1864" />
<glyph unicode="&#x2002;" horiz-adv-x="932" />
<glyph unicode="&#x2003;" horiz-adv-x="1864" />
<glyph unicode="&#x2004;" horiz-adv-x="621" />
<glyph unicode="&#x2005;" horiz-adv-x="466" />
<glyph unicode="&#x2006;" horiz-adv-x="310" />
<glyph unicode="&#x2007;" horiz-adv-x="310" />
<glyph unicode="&#x2008;" horiz-adv-x="233" />
<glyph unicode="&#x2009;" horiz-adv-x="372" />
<glyph unicode="&#x200a;" horiz-adv-x="103" />
<glyph unicode="&#x2010;" horiz-adv-x="579" d="M31 369v297h518v-297h-518z" />
<glyph unicode="&#x2011;" horiz-adv-x="579" d="M31 369v297h518v-297h-518z" />
<glyph unicode="&#x2012;" horiz-adv-x="579" d="M31 369v297h518v-297h-518z" />
<glyph unicode="&#x2013;" horiz-adv-x="966" d="M31 369v297h905v-297h-905z" />
<glyph unicode="&#x2014;" horiz-adv-x="1200" d="M31 369v297h1138v-297h-1138z" />
<glyph unicode="&#x2018;" horiz-adv-x="512" d="M51 1026q0 93 28.5 171t72 127.5t99.5 85.5t106 53t96 22l69 -105q-62 -18 -108 -46t-67.5 -55t-34.5 -52t-15 -41l-2 -15q77 -3 129.5 -59t52.5 -145q0 -90 -61.5 -143.5t-141.5 -53.5q-103 0 -163 72t-60 184z" />
<glyph unicode="&#x2019;" horiz-adv-x="512" d="M10 885q62 18 108 46t68 55t35 52t15 40l2 16q-77 3 -130 59.5t-53 144.5q0 90 61.5 143.5t141.5 53.5q103 0 163 -72t60 -184q0 -93 -28.5 -171t-71.5 -127.5t-99 -85.5t-106 -53t-96 -22z" />
<glyph unicode="&#x201a;" horiz-adv-x="487" d="M-10 -242q62 18 108 46t67.5 55t34.5 52t15 41l2 15q-77 3 -129.5 59.5t-52.5 145.5q0 90 61.5 143.5t141.5 53.5q103 0 163 -72t60 -184q0 -93 -28.5 -171t-72 -127.5t-99.5 -85.5t-106 -53t-96 -22z" />
<glyph unicode="&#x201c;" horiz-adv-x="968" d="M51 1026q0 93 28.5 171t72 127.5t99.5 85.5t106 53t96 22l69 -105q-62 -18 -108 -46t-67.5 -55t-34.5 -52t-15 -41l-2 -15q77 -3 129.5 -59t52.5 -145q0 -90 -61.5 -143.5t-141.5 -53.5q-103 0 -163 72t-60 184zM508 1026q0 93 28.5 171t71.5 127.5t99 85.5t106 53t96 22 l70 -105q-62 -18 -108 -46t-67.5 -55t-34.5 -52t-15 -41l-2 -15q77 -3 129.5 -59t52.5 -145q0 -90 -61.5 -143.5t-141.5 -53.5q-103 0 -163 72t-60 184z" />
<glyph unicode="&#x201d;" horiz-adv-x="970" d="M10 887q62 18 108 46t68 55t35 52t15 40l2 16q-77 3 -130 59.5t-53 144.5q0 90 61.5 143.5t141.5 53.5q103 0 163 -72t60 -184q0 -93 -28.5 -171t-71.5 -127.5t-99 -85.5t-106 -53t-96 -22zM469 887q62 18 108 46t67.5 55t34.5 52t15 40l2 16q-77 3 -129.5 59t-52.5 145 q0 90 61.5 143.5t141.5 53.5q103 0 163 -72t60 -184q0 -93 -28.5 -171t-71.5 -127.5t-99 -85.5t-106 -53t-96 -22z" />
<glyph unicode="&#x201e;" horiz-adv-x="950" d="M-10 -242q62 18 108 46t67.5 55t34.5 52t15 41l2 15q-77 3 -129.5 59.5t-52.5 145.5q0 90 61.5 143.5t141.5 53.5q103 0 163 -72t60 -184q0 -93 -28.5 -171t-72 -127.5t-99.5 -85.5t-106 -53t-96 -22zM453 -242q62 18 108 46t67.5 55t34.5 52t15 41l2 15 q-77 3 -129.5 59.5t-52.5 145.5q0 90 61.5 143.5t140.5 53.5q103 0 163.5 -72t60.5 -184q0 -93 -28.5 -171t-72 -127.5t-99.5 -85.5t-106 -53t-96 -22z" />
<glyph unicode="&#x2022;" horiz-adv-x="833" d="M102 614q0 130 93 224t219 94q129 0 223 -94t94 -224q0 -125 -94 -216t-223 -91q-126 0 -219 91.5t-93 215.5z" />
<glyph unicode="&#x2026;" horiz-adv-x="1597" d="M51 164q0 94 57.5 152.5t145.5 58.5q89 0 147 -58.5t58 -152.5q0 -90 -58.5 -147.5t-146.5 -57.5q-87 0 -145 57.5t-58 147.5zM598 164q0 94 57.5 152.5t145.5 58.5q89 0 147 -58.5t58 -152.5q0 -90 -58.5 -147.5t-146.5 -57.5q-87 0 -145 57.5t-58 147.5zM1139 164 q0 94 57.5 152.5t144.5 58.5q89 0 147 -58.5t58 -152.5q0 -90 -58.5 -147.5t-146.5 -57.5q-87 0 -144.5 57.5t-57.5 147.5z" />
<glyph unicode="&#x202f;" horiz-adv-x="372" />
<glyph unicode="&#x2039;" horiz-adv-x="669" d="M31 537v43l461 426l167 -185l-264 -235v-39l258 -279l-174 -180z" />
<glyph unicode="&#x203a;" horiz-adv-x="669" d="M10 842l189 194l440 -461v-43l-428 -475l-195 191l252 291v39z" />
<glyph unicode="&#x205f;" horiz-adv-x="466" />
<glyph unicode="&#x20ac;" horiz-adv-x="1216" d="M0 485l51 195h129v72h-168l51 194h117l4 64q4 112 46.5 203t112 150t159 90.5t190.5 31.5t186 -27.5t151 -82.5t102 -147.5t32 -213.5l-358 -10q0 143 -113 143t-119 -156q-2 -14 -2 -45h355l-49 -194h-308v-72h293l-51 -195h-238v-10q6 -168 117 -168q55 0 85 39t30 105 l358 -11q0 -218 -126.5 -344.5t-356.5 -126.5q-224 0 -357 131.5t-139 354.5q0 5 -1 15t-1 15h-182z" />
<glyph unicode="&#x2122;" horiz-adv-x="1662" d="M20 1219v235h685v-235h-199v-512h-287v512h-199zM764 707v747h217l188 -276l189 276h223v-747h-287v329l-2 2l-114 -170h-35l-113 174v-335h-266z" />
<glyph unicode="&#x25fc;" horiz-adv-x="1013" d="M0 0v1014h1014v-1014h-1014z" />
</font>
</defs>
</svg>
