<?xml version="1.0" encoding="utf-8"?>
<!-- Generator: Adobe Illustrator 18.1.1, SVG Export Plug-In . SVG Version: 6.00 Build 0)  -->
<svg version="1.1" xmlns="http://www.w3.org/2000/svg" xmlns:xlink="http://www.w3.org/1999/xlink" x="0px" y="0px"
	 viewBox="0 0 150 53.7" enable-background="new 0 0 150 53.7" xml:space="preserve">
<g id="clownfish" display="none">
	<path id="clown_fish" display="inline" fill="#F37433" d="M148.4,0.7c1.2-0.7,1.2-3.1-0.5-2.8c-1.9,0.3-3.8,1.1-5.5,1.7
		c-3.9,1.5-7.8,3.3-11.5,5.3c-6.1,3.2-15.7,8.8-21.8,2.1c2.1-0.5,4.6-1.6,5.5-3.5c1.2-2.5,0.7-5.7-1.8-7.3c-0.7-0.5-1.5-0.9-2.1-1.5
		c-0.7-0.6-1-0.3-1.7-0.8c-0.5-0.3-0.7-1-1.2-1.3c-0.8-0.5-1.3,0.3-2.1,0.1c-0.7-0.2-1-0.9-1.9-1c-0.8-0.1-1.4,0.1-2.2-0.3
		c-0.7-0.3-1.5,0.1-2.2,0.3c-0.9,0.3-1.4-0.4-2.3,0c-1.3,0.5-2,0.8-3.4,0.8c-1,0.1-1.9,0.8-2.9,0.9c-1.2,0-1.7-2.3-2.6-2
		c-0.8,0.2-1.7-0.1-2-0.9c-0.3-0.8-1-0.3-1.7-0.8c-0.7-0.4-0.3-1-1-0.9c-0.9,0.2-1.9,0-2.7-0.6c-1.3-1-0.5-0.8-2.3-0.8
		c-1.7,0-2-1.4-3.7-1.1c-0.6,0.1-1.4,0.4-2.1,0.3c-0.8-0.1,0.1-1.1-0.1-1.4c0,0-3.1,1.1-3.4,1.2c-0.9,0.1-1.4-0.7-0.6-1.1
		c-1.5,0.7-5.3,1.7-3.8-1.5c-2.4,2.3-4.2,1.6-3.6-1.8c-0.7,0.7-4,4.3-4.6,1.7c-0.3-1-0.1-2.3,0.2-3.3c-0.4,0.6-3.5,4.8-4.6,3.7
		c-0.5-0.5,0.1-1.5-0.3-1.9c0.3,0.4-2.7,5.1-3.8,5.1c-0.4,0-1.3-1.6-1.1-1.8c-1.3,1.7-1.6,4.3-3.2,6.1c-1.6,1.9-3.6,1.4-5.9,2
		c-2.6,0.7-4.6,2.7-7.1,3.5C28.3-2,26.1-2.7,24.4,0c-3-3.8-8.7-3.4-10.9,1c-0.4,0.9-0.7,1.8-0.8,2.8c-0.2,2.3,0.4,1.9-1.7,2.8
		C9.1,7.4,7.8,9.5,6,10.5c-3.2,1.9-3.1,3-0.7,5.7c2.6,2.9,3.9,5.9,5.4,9.4c-2.8,0.9-6.7,0-9.3,1.4c-2.9,1.6,3.2,3.7,3.7,4.2
		c2.5,2.1,5.6,3.7,8.5,4.9c1.5,0.6,3,1.4,4.5,2.1c1.5,0.6,2.7,0.4,4.2,0.7c4,0.7,7.6,2.5,11.4,3.7c4.1,1.3,8.6,1.7,12.9,2
		c1.7,0.1,3.6-0.6,4.3,1.3c0.6,1.7,1.3,3.3,2,4.9c0.9,2,2,4,3.1,6c0.4,0.7,2.6,5,3.4,4.9c0.4,0,0.1-1,0.5-1.1
		c0.4-0.1,6.1,7.1,6.6,3.6c0.2-1.6,1.8-2.2,2.2-3.3c0.5-1.4,1-3.4,0.7-4.9c-0.4-2.5,1.1-5.6-1.6-7.2c-3.1-1.8-6.8-2.4-10-3.9
		c7.1,0.2,14.8,1.6,21.7-0.7c2.8-1,5.6-3.7,8.5-4.1c3-0.4,5,1.3,7.2,3.2c-0.4-5.7,5.9,0.9,6.4-0.4c0.2-0.6-2.7-2-0.7-2.5
		c1.7-0.4,3.6,0,5.3-0.1c1.1-0.1,2.3-0.4,3.3-0.6c0.7-0.2,3.3-1.2,3.6-2c0.5-1.5,1.9-1.7,2.4-3.5c0.4-1.4,1.8-2.4,1-4.2
		c-1.5-3.4-3.8-4.3-7.4-3.6c2.1-1.7,5.2-3.1,7.8-3.7c2.5-0.5,5,0.8,7.2,1.8c6.9,2.8,15.2,6.1,22.6,6.7c3,0.2-0.2-2.5,1-3.5
		c-0.1-2.7-0.9-6.2-0.5-8.8c0.4-2.8,0.6-6.4-0.1-9.2c-0.3-1.2-0.2-1.4,0.5-2.6c0.3-1.7,0.3-3.5,0.8-5.1C147.9,1.8,147.8,1,148.4,0.7
		"/>
	<ellipse display="inline" cx="18" cy="4" rx="2.6" ry="2.7"/>
	<circle display="inline" fill="#FFFFFF" cx="94.9" cy="10.6" r="1.8"/>
	<circle display="inline" fill="#FFFFFF" cx="69.5" cy="9.1" r="7.8"/>
	<circle display="inline" fill="#FFFFFF" cx="34.5" cy="30.2" r="5.8"/>
	<circle display="inline" fill="#FFFFFF" cx="38" cy="10" r="2.2"/>
	<circle display="inline" fill="#FFFFFF" cx="50.8" cy="16" r="1.2"/>
	<circle display="inline" fill="#FFFFFF" cx="63.2" cy="32.3" r="7.9"/>
	<circle display="inline" fill="#FFFFFF" cx="140.7" cy="8.5" r="0.7"/>
	<circle display="inline" fill="#FFFFFF" cx="124.1" cy="18" r="3.2"/>
	<path display="inline" fill="none" stroke="#B15526" stroke-miterlimit="10" d="M16.7,14.6c0.5,0.2,3,1.5,4,3.8
		c1.1,2.6-0.4,4.5-0.5,4.9"/>
	<path display="inline" fill="none" stroke="#B15526" stroke-miterlimit="10" d="M20.7,12.8c0.5,0.2,3,1.5,4,3.8
		c1.1,2.6-0.4,4.5-0.5,4.9"/>
	<path display="inline" fill="none" stroke="#B15526" stroke-miterlimit="10" d="M24.7,11.6c0.5,0.2,3,1.5,4,3.8
		c1.1,2.6-0.4,4.5-0.5,4.9"/>
</g>
<g id="dolphin" display="none">
	<path display="inline" fill="#C1C1C1" d="M128.8,35.5c-4.2,1.6-8.7,2.5-13.1,3.1c-0.8,0.1-1.6,0.2-2.4,0.3c-0.4,1-0.9,1.9-1.6,2.7
		c-1.4,1.5-3.1,2.7-4.9,3.8c-0.9,0.6-8.8,5-8.7,2.1c0-1.1,1.3-2.2,1.9-3c1.2-1.6,2.3-3.4,2.8-5.4c-1.4,0-2.7-0.2-3.9,0.4
		c-1.2,0.6-2.4,1.3-3.7,1.8c-2.3,0.8-4.6,0.3-2.7-2.3c-9.1-0.1-18.5-0.4-27.3-2.8c-7.2-1.9-14.5-2.7-21.7-4.5
		c-1.4-0.3-2.7-0.7-4-1.1l96.2,1.9C133.3,33.4,131.2,34.6,128.8,35.5z"/>
	<path display="inline" fill="#8A8A8A" d="M1.8,21.1c0.2-0.4,1-0.5,1.4-0.7c1.6-0.7,2.9-1.9,4.1-3.2c0.9-1,1.8-2.2,3.1-2.8
		c0.9-0.4,2.8-0.1,2.6-1.4c-0.3-1.9,2.2-4.6,3.1-6.1c1.3-2.1,2.3-4,3-0.7c0.5,2.4,0.8,5.2,0.5,7.7c-0.2,2.2,2.2,3,3.9,3.5
		c3.3,1.1,6.8,0.9,10.2,1.3c4.3,0.6,8,0.5,12.2-0.6c0.5-2.4-0.9-3.2-2.3-4.7c-1.1-1.3,3.5-1,3.9-1c2.9,0.3,5.7,1,8.4,1.9
		c1.1,0.4,2.6,1.4,3.7,1.2c1.4-0.3,2.9-0.5,4.3-0.7c14.2-2.1,28.8-3.8,43.2-2.2c4.9,0.5,9.5,2,14.4,2.1c3.5,0.1,7.2,0,10.5,1.5
		c3,1.3,4.5,3.4,6,6.2c1.5,2.6,4,3.3,6.8,3.6c0.9,0.1,2,0.8,1.7,1.8c-0.3,0.9,1.6,1.2-0.4,2.3c-2.7,1.4-6.3,1.4-9.3,2.1
		c-0.5,0.1-0.9,0.3-1.4,0.4l-96.2-1.9c-6.3-1.8-12.4-4.2-18.3-7.2c-3.1-1.6-4.6-2.4-7.9-1.9c-2.5,0.4-5,1.3-7.5,1
		C5.4,22.7,1.4,22.1,1.8,21.1z"/>
	<path display="inline" fill="#8A8A8A" stroke="#020303" stroke-miterlimit="10" d="M146.8,28.2c-1,0.3-2.3,0.6-3.8,0.7
		c-4.7,0.3-8.3-1.9-9.8-2.9"/>
	<circle display="inline" cx="130.8" cy="21.7" r="0.7"/>
</g>
<g id="dory" display="none">
	<path display="inline" fill="#F5EB30" d="M37.1-3.8c-1.1,0.2-2.4,1.1-3.5,2c0.1,0.2,0.2,0.3,0.2,0.5C34.9-2.3,37.2-3.8,37.1-3.8z"
		/>
	<path display="inline" fill="#F5EB30" d="M54.8-9.4c-0.1,0-0.2,0-0.3,0c0,0.1,0.1,0.1,0.1,0.2C54.7-9.3,54.8-9.3,54.8-9.4z"/>
	<path display="inline" fill="#F5EB30" d="M52.2-7.7c0.3-0.4,1.9-1.2,2.4-1.5c0-0.1-0.1-0.1-0.1-0.2c-0.7,0.1-2,0.8-2.5,1
		c-1.4,0.6-2.5,1.2-4.1,1.5c0.5-0.4,3-1.6,3.1-2.1c-0.3-0.2-2.6,1.3-2.9,1.5c-1.5,0.8-2.7,1.3-4.4,1.8c1-0.7,2.4-1.7,2.3-1.8
		c-0.5-0.1-1.9,1-2.3,1.3c-1.6,1-3.2,1.7-4.9,2.4c0.6-0.5,1.6-1.5,2.3-1.9c-2.5,1.2-4.9,3.1-7.4,4.5c8,17,10.7,36,6.8,55.5
		c-0.3,1.6-0.7,3.1-1.2,4.7c0.1,0.4,0.3,0.8,0.5,1.2c1.5,3.2,4.2,6,7.1,7.9c2.3,1.5,4.9,1.5,7.1,2.4c-0.4-0.2-1.7-0.8-1.7-1.4
		c0,0.4,5.5,2,6.4,2.1c0.4,0.1,4.4-0.2,4.4-0.2c-0.3-0.3-1.5-0.3-1.9-0.4c-1.4-0.4-2.8-1.2-3.9-2.1c-2.2-1.8-3.6-4-4.4-6.7
		c-0.7-2.6-3.3-1.9-5.4-2c-2,0-3.1-1.8-4.9-2.5c3.8,0.5,7.6,0.9,11.4,1.2c4.3,0.4,8.5-0.8,12.8-0.9c-0.1,0-0.2,0.1-0.2,0.1
		c1.7-0.1,3.2,0,4.7,0.2C74.3,34.6,69.3,9.8,55-8.7C54.2-8.2,53.4-7.9,52.2-7.7z"/>
	<path display="inline" fill="#4B64AD" d="M81.3-11c-0.4,0.1-0.7,0.1-0.9,0.1c0-0.2,0.3-0.4,0.7-0.5c-0.1-0.2-0.3-0.4-0.4-0.7
		c-1.7,0.5-4.1,1.8-4.6,1.1c-0.1-0.2,2.3-1.6,2.1-1.6c-1.1-0.1-2.7,1-3.7,1.3c-0.4,0.2-3.6,0.9-3.4,0.6c0.3-0.4,1.9-1.2,1.7-1.2
		c-2-0.1-4.3,1.8-6.4,2.1c-0.4-0.2,1.4-1.9,1.4-1.9c-1.9-0.3-4.3,2.4-6.3,2.5c-1,0,2-2.2,2-2.1c-0.5-0.5-6.2,2.7-7.1,2.9
		c0.4-1.1,2.3-1.2,2.7-2.1c-0.6-0.2-2.3,0.9-2.8,1.1C55.7-9,55.4-8.9,55-8.7C69.3,9.8,74.3,34.6,71.4,57.7c0.6,0.1,1.1,0.2,1.7,0.4
		c1.3,0.4,2.7,0.7,4.1,0.8c0.2,0,3-0.2,2.9-0.3c-0.5-0.6-2.8-0.4-2.5-1.7c2.5,0.1,5,0.7,7.4,0.5c1-0.1,1.8-0.5,2.9-0.5
		c1.6,0.1,3.1,0.4,4.7,0.5C94.4,33.5,93.4,8.7,81.3-11z"/>
	<path display="inline" fill="#F5EB30" d="M82.3-11.8c-0.3-0.4-0.9-0.3-1.6-0.1c0.1,0.2,0.3,0.4,0.4,0.7
		C81.6-11.5,82.2-11.5,82.3-11.8z"/>
	<path display="inline" fill="#F5EB30" d="M148.9-21.7c-0.2,0-3.7,3.5-4.3,3.9c-2.1,1.5-4.5,2.8-6.9,3.9c-6.4,2.9-12.6,4.5-19.6,3.4
		c-6.8-1.1-13.5-2.5-20.3-0.8c-2.2,0.6-3.4,0.3-5.6-0.1c-1.4-0.2-2.3,0.3-3.4,1c-0.5,0.3-4.2,0-4.1-0.4c0.2-0.3,0.4-0.6,0.5-0.9
		c0,0-2.6,0.5-4,0.7C93.4,8.7,94.4,33.5,92.6,57.3c0.3,0,0.7,0,1,0c3.4-0.1,6.8-0.4,10.1-1.4c2.3-0.7,4.5-0.9,6.4-2.5
		c2.3-1.9,3.3-4.3,2.4-7.2c-0.6-2.1,0.1-3.9,0.1-6.1c0-2.2-3.5-4.8-5.5-5.4c-1.9-0.6-3.7-2.2-5.1-3.6c1.8-0.4,3.8-0.7,5.6-0.6
		c2.4,0.2,4.1,2.4,6,3.7c4.4,3,10.5,4.5,15.6,5.8c-1.8-2-0.4-4.8-0.3-7.1c0-0.6,0.8-2.6,0.5-3c-0.8-0.8-1.3-0.8,0.4-1.3
		c-0.1-1.5,0-3.3,0.3-4.7c0.3-1.7-0.2-3.6-0.4-5.3c-0.1-1.1-0.4-4.1-1.5-4.7c-0.5-0.3-2.2,0.2-2.3-0.4c0.1,0.1,1.8-1.1,1.5-1.8
		c-0.4-1.2-1-3.2-0.9-4.4c-2.6,0.5-5,4-7.2,5.4c-2.8,1.9-5.2,4.5-8.5,5.6c-2,0.7-6.9,4-9,2.5c-0.8-0.6,3.9-2.6,4.5-3
		c2.2-1.7,4.9-3.2,6.1-5.8c1.2-2.4,1.4-5.7,2.1-8.3c0.7-2.6,0.2-5.6-1.2-7.9c-1.2-1.9-3.7-2.5-5.8-3.1c-0.3-0.5,0.1-0.8,1-1.1
		c2.9-1,6.4-0.4,9.4-0.4c4.8,0.1,9.3-0.5,13.8-2c3.9-1.3,7.7-3,11.1-5.2c1.3-0.8,2.6-1.7,3.8-2.7C147.2-18.9,149.5-21.7,148.9-21.7z
		"/>
	<path display="inline" fill="#4A63AE" d="M33.8-1.3c-0.1,0-0.1,0.1-0.2,0.1C33.7-1.2,33.8-1.3,33.8-1.3c-0.1-0.2-0.2-0.4-0.3-0.5
		c-0.5,0.4-1,0.8-1.3,1.1c-2,1.6-4.2,3-6.1,4.8c-1.9,1.9-3.5,4.1-5,6.4c1.7,9.3,5.9,18.4,5.9,28c0.2,4.9,1.3,10,1.8,15
		c1.9,0.8,3.9,1.5,5.9,2c1.4,0.4,2.8,0.7,4.2,1c0.1,0.8,0.3,1.6,0.6,2.3c0.4-1.5,0.8-3.1,1.2-4.7C44.5,34.7,41.9,15.7,33.8-1.3z"/>
	<path display="inline" fill="#F5EB30" d="M41.2-5.8c0.1-0.1,0.2-0.1,0.4-0.2C41.4-5.9,41.3-5.9,41.2-5.8z"/>
	<path display="inline" fill="#F5EB30" d="M27.1,38.5c0-9.6-4.2-18.7-5.9-28c-1.3,2.2-2.5,4.5-3.7,6.7c-2.6,5-4.9,9.9-9.1,13.8
		c-1.8,1.7-3.2,1.6-5.4,2.3c-3.7,1.2,2.2,2.9,1.8,4.1c-1.3,0.3-6.3-1-2.2,1.6c2.8,1.7,6.1,1.8,8.3,4.5c3.9,4.6,10.3,6.6,15.5,9.1
		c0.8,0.4,1.6,0.7,2.4,1.1C28.4,48.5,27.3,43.4,27.1,38.5z"/>
	<ellipse display="inline" fill="#FFFFFF" cx="28.8" cy="22" rx="3" ry="3"/>
	<circle display="inline" cx="28.8" cy="22.1" r="0.8"/>
	<path display="inline" fill="none" stroke="#DEDD1F" stroke-miterlimit="10" d="M43.6,23.3c0.7,0.4,2.9,1.6,4.1,4.3
		c1.7,4-0.6,7.8-0.8,8.1"/>
	<path display="inline" fill="none" stroke="#DEDD1F" stroke-miterlimit="10" d="M47.9,18.7c1.2,0.9,3.5,2.9,4.9,6.2
		c2.5,6.2-0.3,11.8-0.8,12.7"/>
</g>
<g id="octapus" display="none">
	<g display="inline">
		<path fill="#C37EB6" d="M28.7,24.9c0.5,0.1,1,0.3,1.1,0.6c0.5,1,1,1.6,2.2,1.2c-0.1,1,0.1,2.4,1.4,2.3c-0.5,1.4,0.8,2,2,2.1
			c0.3,0.3,0.3,1,0.6,1.6C36.3,28.3,33.1,24.7,28.7,24.9z"/>
		<path fill="#C37EB5" d="M25,37.9C25,37.9,25,37.9,25,37.9c1,0.1,1.5-0.1,2.1-0.9c0.5,1,1.4,1.4,2.3,0.7c1.5-1.1,1.7,1.3,3.2,1
			c1.4-0.3,0.8,0.8,1.3,1.7c0.6,1,1.7,0.7,2.3,1.7c0.8,1.2,1.4,1.7,2.9,1.6c1.2,0,1.7,1.4,3.1,1.6c0.5,0.1,1,0,1.6-0.1
			C39.6,39.9,31.7,33.1,25,37.9z"/>
		<path fill="#C37EB5" d="M76.8,73.3c-1,0.2-1.6-0.7-2.6-1.1c-0.9-0.3-2.1-0.4-3-0.3c0,0-0.5-0.9-0.5-0.9c-0.4-0.5-1-0.7-1.6-0.8
			c-0.6-0.2-1.4,0-1.6-0.6c-0.4-0.8-0.7-1.9-1.2-2.6c-0.5-0.6-1.7-0.7-1.7-1.6c0-1-1.5-1.7-1.5-2.3c0-0.4,0.7-0.8,0.9-1.2
			c0.4-0.6,0.5-1.3,0.5-2c-0.1-1.4-1.1-1.3,0.3-2.1c1.1-0.6,0.5-1.6,0.6-2.6c0.1-0.9,0.8-1.8,1-2.6c0.2-0.8-0.3-2-0.1-2.7
			c-6,5.7-5.5,15.7-0.9,22c2.9,4.1,10.7,3.9,15.9,1c-0.4,0.1-0.7,0.2-1.1,0.3C79.3,73.7,77.9,73.1,76.8,73.3z"/>
		<path fill="#C37EB5" d="M73.5,53.4c-0.4,0.7-0.6,1.3-0.2,2.1c0.6,1,0.3,1.7-0.1,2.7c-0.7,1.4,0.7,3.1,0.8,4.6c0,0.8,0.4,1.7,1,2.3
			c0.6,0.7,0.7,1.4,1.2,2.2c0.7,1.1,2,1.7,3.1,2.4c-3.5-4.3-2.1-13.4-5.8-18.6C73.6,52,73.8,52.9,73.5,53.4z"/>
		<path fill="#C37EB5" d="M92.6,57.5c0.2,0.1,0.3,0.2,0.5,0.4c0.8,0.6,1.3,0.4,1.8,1.3c0.8,1.3,2.3,1.8,3.7,1.5
			c0.9-0.2,0.7,0.5,1.3,1.2c0.8,0.8,1.9,0.5,2.8-0.1c0.2-0.1,1.3,0.6,1.6,0.7c1.1,0.4,2-0.2,3.1,0.1c1,0.3,2.3,0.4,3.2-0.4
			c0.9-0.7,2,0.5,3,0.3c0.6-0.1,1.4-0.3,1.8-0.7c0.3-0.3,0.4-1,0.9-0.8c1.5,0.4,2,0.1,3.3-0.5c0.3-0.2,0.3-0.7,0.9-0.6
			c0.6,0.1,1,0.2,1.6-0.2c0.8-0.5,0.7-1,1.7-1c1.4-0.1,2-0.6,2.9-1.2C115.4,59.7,104,59.9,92.6,57.5z"/>
		<path fill="#C37EB5" d="M116.3,30.1c-5.8,6.4-10,13.8-18.3,15.2c0.7,0.1,1.2,0.1,1.1,0.1c1.1,0.9,2.5,0.7,3.6,0.3
			c0.8-0.3,1.6,0.1,2.4-0.1c0.8-0.2,1.2-0.7,2-0.6c1.4,0.1,2.4-2,3.3-2.9c0.8-0.8,0.8-1.9,1.4-2.8c0.8-0.4,1.4-1.1,1.5-2
			c0-0.3-0.2-0.9-0.1-1.1c0.2-0.3,2.1-3.3,1.1-3.5c2.1,0.6,2.1-2,3.4-1.9c0.9,0.1,1.9-0.2,2.6-0.1c0.4,0.1,0.8,0.3,1.1,0.5
			C120.2,29.4,117.7,28.7,116.3,30.1z"/>
		<path fill="#8B288F" d="M147.7,42.5c-0.6-1-4.3-2.8-2.6-0.8c0.9,1.1,2.7,2.6,1.4,4.2c-3.1,3.6-8.2-2.4-11.9-0.5
			c-1.8,0.9-3.5,1.2-5,2.7c-1.3,1.2-2.6,2.9-4.1,3.7c-3.2,1.8-7.2,1.9-10.7,2.7c-4.8,1.1-9.9,1.6-14.4-0.8c-2.3-1.2-3.7-3.1-5.3-5
			c-0.4-0.5-3.5-3.5-2.7-4.5c-0.3,0.4,3.6,0.9,5.6,1.2c8.3-1.4,12.5-8.8,18.3-15.2c1.4-1.4,4-0.7,5.1,1.1c0.5,0.3,0.9,0.6,1.4,0.7
			c1.3,0.2,0.9-0.4,1.6,0.6c0.9,1.1,2.2,1.1,3.3,1.7c2.3,1.2,4.3,1.5,6.9,1.7c1.1,0.1,1.9,0.1,2.6-0.8c0.8-0.9-0.2-0.8-0.8-0.8
			c-2.1,0-4.2-1.1-6-2.2c-4-2.5-8.8-6.9-13.9-6.1c-2.5,0.4-5.3,1.9-6.8,4.1c-1.5,2.3-2,5.2-3.8,7.3c-1.5,1.7-4,2.9-6.3,1.8
			c-1.5-0.7-3.9,0-4.1-2.4c-0.1-0.8,1.3-0.8,2.5-0.6c0-9.4,7.8-18.3,17.1-13.4c1.6,0.1,3.2,0.9,4.6,1.7c0.5,0.3,5.2,1.7,5.6,0.6
			c0.4-1.2-10-5.2-11-5.4c-3.9-1.1-11.2-1.8-13.9,1.9c-0.9,1.2-1.5,2.5-1.7,4c-0.1,1.1-0.2,2.2-0.8,3.2c-1.8,2.6-4.1,2.8-6.9,2.3
			c-2.3-0.5-5.1-0.8-7.1-2.1c-1-1.5-3.2-3.7-3.1-5.6c0.1-2.2,3.1-2.8,2.9-5.5c-0.1-1.2-0.7-2.4-1.7-3.1c-0.9-0.7-1.7-1.3-1.2-2.5
			c0.5-1.5,1.7-2.8,2.4-4.2c1.5-2.8,2.5-5.8,3.5-8.9c1.8-6,3.8-12.1,2.3-18.4c-1.4-5.9-5.1-10.4-11.1-11.8
			c-5.4-1.2-10.7,0.1-15.1,3.2c-5,3.5-6.2,9.3-6,15.1C57-7.1,59.2-2.1,60.7,3.3c0.6,2.1,1.2,4.3,1.4,6.5c0.1,1.2,0.2,2.5-0.2,3.6
			c-0.5,1.3-1.8,2.1-2.2,3.5c-1,3.1,1.3,3.9,2.5,6.1c1.6,3-1.4,5.9-3.6,7.5c-3.7,2.8-10.2,3.7-14.4,1.3c-2.5-1.4-3.9-4.1-5.7-6.3
			c-2.2-2.8-4.4-4.2-7.9-4.8c-2.9-0.6-5,0.4-7.8,0.8C19,22,20,19.6,20.1,16.9c0-1.1-0.3-2.3-1.3-2.8c-0.9-0.5-1.2-0.2-0.7,0.6
			c0.8,1.3,0.1,2.6-0.3,3.8c-0.5,1.4-0.2,2.8,0.6,4c1.7,2.7,4.9,2,7.6,2.2c0.6,0,1.8,0,2.8,0.2c4.4-0.2,7.7,3.4,7.3,7.7
			c0.1,0.1,0.2,0.3,0.3,0.4c0.7,0.6,0.8,1.5,1.6,2.2c-3.6-1.6-7.1-2.9-11.2-2.2c-4.3,0.7-6.5,5.9-11.2,5.8c-2.1,0-4.1-0.8-6.1,0.3
			c-1.3,0.8,1.3,0.4,1.6,0.4c1.2,0,2.4,0.6,3.5,1.1c2.5,1.2,5-0.2,7.4-1c1-0.3,2.1-1.8,3.1-1.7c6.7-4.8,14.7,2,18.9,7.4
			c1.6-0.3,3.4-0.9,4.4-0.4c-1.8,0.7-3.7,1.4-5.4,2.3c-1.9,1-3.6,2.4-5.6,3.2c-4.8,2-9.4,1.1-14-0.9c-2.1-1-3.7-2.4-5.4-3.9
			c-1.6-1.3-2.9-3.5-4.9-4.2c-2.4-0.8-5.5-0.1-6.4,2.5c-0.5,1.3-0.9,2.6-1.7,3.7C4.3,48.1,2,49,2,49.2c-0.1,0.9,2.2,0.8,2.6,0.7
			c1.1-0.3,1.9-1.6,2.4-2.5c0.6-1.1,0.7-2.1,1.9-2.7c1.1-0.5,2.7-0.6,3.6,0.4c0.7,0.8,0.8,1.9,1.4,2.8c10.5,7.7,23.8,6.3,36.5,5.1
			c0.2-0.3,0.5-0.5,0.8-0.6c0.5-0.2,1.1-0.1,1.7-0.2c0.6-0.4,1.2-0.7,1.9-0.9c-1,3.8-1.6,8.4-0.7,12.2c1.1,4.8,4.5,9.9,8.8,12.6
			c5.3,3.3,11.5,2.5,17.4,1.3c2.7-0.6,5.6-1.1,8.2-2c1.3-0.5,2.7-1,3.8,0.2c0.9,0.9,1,0.2,0.9-0.9l1.4,0.6c0.7-0.6,1.3,0.7,1.3,1.3
			c-0.1,1.3,1.4,1.1,1.9,1.9c4.6,0,9.1,0.4,13.4,1.7c0.4-0.2,0.9-0.4,1.4-0.6c0.9-0.4,2.7,0.8,3,0.6c0.6-0.4-1-1.9-1.3-2.1
			c-1.1-0.6-2.5-0.5-3.7-0.7c-1.3-0.3-2.4-0.4-3.5,0.2c-1.2,0.6-2.8,0.9-3.9-0.2c-0.7-0.7-0.6-2-1-2.9c-0.4-1.2-0.6-2-1.5-3
			c-1.8-2-4.3-2.5-6.8-3.2c-2.7-0.7-5.4-1.6-7.6-3.2c-2.1-1.5-2.6-4.8-2.6-7.2c0-2.1,0.3-4.4,0.8-6.4c0.2-0.8,0.7-1.8,1.6-0.9
			c0.4,0.4,0.5,1.1,0.8,1.6c0.4,0.7,1.1,0.9,1.5,1.5c0.7,1,0.9,2.1,2.1,2.6c1,0.4,1.5,0.8,2.2,1.4c11.4,2.5,22.8,2.3,34.2,0.1
			c0.2-0.1,0.3-0.2,0.5-0.3c1.2-0.9,2.5-1.2,3.6-2.3c1.5-1.5,2-3.9,3.6-5.3c2-1.7,3.3-1.6,5.7-0.7c2.3,0.8,4.7,0.8,6.7-0.7
			C148.8,46.8,148.9,44.3,147.7,42.5z M85,71.9c0.6,0.4,1.1,0.5,1.6,0.5c-1.7,1.1-3.4,0.2-5.2,0.5c-5.2,3-13,3.1-15.9-1
			c-4.6-6.4-5.1-16.3,0.9-22c0-0.2,0.1-0.3,0.2-0.4c0.8-0.7,1.3-2.1,1.2-3.1c0.9,1.7,2.3,0.5,3.7,0.4c1-0.1,1.2,1.7,1.5,2.6
			c0.1,0.4,0.3,1,0.5,1.7c3.7,5.2,2.3,14.3,5.8,18.6c0.3,0.2,0.6,0.4,0.8,0.6c0.7,0.6,1.8,1,2.6,1.3C83.4,71.8,84.3,71.4,85,71.9z"
			/>
		<path fill="#C37EB5" d="M98.2,36.1c0.6,0.1,1.1,0.1,1.4,0.1c1.8-0.1,3.8-1.1,4.3-3c0.2-0.6,0.1-0.7-0.1-1.2
			c-0.1-0.3,0.7-0.8,0.8-1c0.6-1-0.2-1.7,0-2.7c0.2-0.8-0.7-2.6-0.4-3c1-0.5,0.6-1.3,0.8-2.1c1.2,0.6,1.5-0.4,2.4-0.6
			c0.7-0.1,1.3,0.7,2.3,0c0.6-0.5,0.8,0,1.7,0.1c0.9,0.1,2.4,0,3.3,0c0.2,0,0.4,0,0.6,0C106,17.9,98.2,26.7,98.2,36.1z"/>
		<path fill="#8A288D" d="M97.8,78.5c0.6,1.5,3.4,2.3,4.8,2.6c1.1,0.2,2.3,0.3,3.4,0.2c1.1-0.2,1.9-1.2,3-1c0.8,0.1,1.5,0,2.1-0.3
			c-4.3-1.2-8.8-1.7-13.4-1.7C97.7,78.3,97.7,78.4,97.8,78.5z"/>
		<path fill="#C37EB5" d="M13.9,47.9c0.1,0.1,0.2,0.3,0.3,0.4c0.4,0.5,1.1,0.7,1.5,1.1c0.6,0.7,0.4,1.6,1.3,2c0.5,0.3,1,0,1.2,0.5
			c0.4,1.1,1.6,1.8,2.7,1.9c0.9,0.1,1-0.4,1.4,0.4c0.6,1,1.1,1.5,2.3,1.6c1,0.1,1-0.2,1.4,0.6c0.5,1.2,1.9,1.6,3.1,1.4
			c0.1,0,0.8-0.3,1-0.2c0.3,0.5,0.7,0.8,1.3,0.9c0.8,0.2,2.4,0.4,3-0.3c0.4-0.5,2,0.4,2.8,0.3c0.9-0.1,1.5-0.7,2.3-1
			c1-0.5,2.2,0,3.2-0.5c0.6-0.3,1.1-0.9,1.7-1.2c0.9,0,2.2-0.2,2.8-1c0.6-0.8,1-0.6,2-0.9c0.6-0.2,0.9-0.6,1.2-0.9
			C37.7,54.2,24.4,55.6,13.9,47.9z"/>
	</g>
	<circle display="inline" fill="#FFFFFF" cx="62.3" cy="18.3" r="1.4"/>
	<circle display="inline" fill="#FFFFFF" cx="81.2" cy="18.3" r="1.4"/>
	<circle display="inline" cx="62.3" cy="18.3" r="0.4"/>
	<circle display="inline" cx="81.2" cy="18.3" r="0.4"/>
	<path display="inline" fill="#E83D6F" d="M64.8,25.4c0.1,0.2,2.3,4.1,6.8,4.3c3.1,0.1,6.1-1.6,7.6-4.5"/>
	<path display="inline" fill="none" stroke="#000000" stroke-width="0.1" stroke-miterlimit="10" d="M64.9,25.5c0.9,0.6,3.5,2,7,2
		c3.7,0,6.2-1.6,7.2-2.2"/>
</g>
<g id="glowfish">
	<path opacity="0.83" fill="#B52C59" d="M63.5,41c-1.2,2.7,2,2.9,3.6,2.9c8.4,8,22.7,8.9,33.3,5.9c4.4-1.2,8.4-3.2,12.1-5.9
		c1.5-1.1,3-2.2,4.5-3.5l-53.2,0.2C63.6,40.8,63.5,40.9,63.5,41z"/>
	<path opacity="0.83" fill="#680E28" d="M144,18.8C144,18.8,144,18.8,144,18.8C144,18.8,144,18.8,144,18.8z"/>
	<path opacity="0.83" fill="#680E28" d="M144.7,18.6c-0.3,0.1-0.5,0.1-0.8,0.2c0,0,0,0,0,0c0,0,0,0,0,0c0.1-0.1,1-1,0.6-1
		c-0.4,0.1-0.8,0.3-1.1,0.5c-0.2,0,0.4-0.7,0.4-0.8c0,0-1.2,0.4-1.2-0.2c-0.2-0.9-0.5-1.8-0.9-2.7c-0.9-1.9-2.2-3.6-3.6-5.1
		c-2.9-3-6.6-5.5-10.6-6.7c-7.4-2.3-14.4-0.4-19.5,5.4c-0.4,0.5-1.3,2-1.9,1.8c-0.8-0.3-1.7-0.5-2.5-0.7c-2.1-0.6-4.3-1-6.5-1.3
		c-4.4-0.6-8.8-0.8-13.2-0.2c-4.4,0.5-8.7,1.8-12.6,4c-1.5,0.9-3.4-0.8-5.2,0c-1.6,0.8-1.3,2.9,0.4,3.3c-1,0.7-1.1,1.1-2.2,0.5
		c-1.3-0.7-2.6-1.3-4-1.9c-1.2-0.5-5.6-2.6-6.9-1.7c-0.2,0.1,2.1,1,0.1,1.4c-0.8,0.2-3.7-0.6-4,0c-0.2,0.4,3.3,0.5,1.4,1.9
		c-0.7,0.5-3.7,0.1-3.8,0.6c0-0.1,3.8,1.5,1.4,2.4c-0.7,0.3-5.5,0.3-2.5,1c1.4,0.3,3.4,1.3,2.5,3.2c-0.8,1.6-3.6-1-4.2-1.5
		c-0.9-0.7-7.9-5.9-8.7-4.9c-0.5,0.6,1.3,1.2,0.4,1.9c-0.8,0.6-1.7,0.2-2.5-0.2c-0.5-0.2-4-1.5-4.4-0.6c-0.1,0.2,5.6,1.5,2.2,2
		c-0.7,0.1-6.9-0.5-6.9-0.5c-0.1,0.9,2.9,0.6,3.2,1.3c0.5,1.2-7.7,0.3-7.7,1c0.1,0.8,3.7,0,4.1,0.9c0.5,1.2-3.2,1.5-3.8,1.5
		c-1-0.1-10.5-1.2-10.7-0.4c-0.1,0.5,9.1,0.7,9.4,1.9c0-0.1-8.6,0.1-9.3,0.1c-0.6,0-8.1,0.3-8,0.5C2.9,27.3,14.5,24,14,27.6
		c-0.3,2.1-5,1.7-6.4,1.8c-0.4,0-6.1,0.3-6,0.5c0.8,1.7,16.5-0.9,16.6,0.7c0.1,1.3-7.8,0.3-8.3,1.4c0-0.1,9.3-0.3,10.4,0
		c1.3,0.4,3.3,0.9,1,1.5c-2.6,0.6,0.1,0.8,1.2,0.6c1-0.2,2.3-0.3,3.3,0.1c0,0,0.7,0.3,0.5,0.5c-2.3,1.1-1.7,1.6,0.5,0.8
		c1.3-0.4,2.8-0.5,4,0c0.1,0,1.2,0.5,0.5,0.7c-0.5,0.2-3.3,0.7-3.5,1.4c-0.1,0.3,5.2-0.8,5.4-0.8c0.6-0.1,1.7,0,1.9,0.8
		c0.1,0.3-0.5,1.1-0.4,1.2c0.9,0.8,4.7-1.7,5.5-2.2c1.6-1,3.2-2,4.7-3.2c0.5-0.4,4.3-2.6,4.3-1c0,1.7-2.1,1.2-2.4,2.2
		c-0.1,0.2,1.7-0.1,1.5,0.8c-0.2,1-1.3,0.8-1.8,1.5c0.3-0.4,1.9,0.3,2.1,1c0.2,0.9-0.7,0.9-0.8,1.6c0-0.1,1.7-0.1,2.1,0.1
		c1.3,1.1-0.1,0.8-0.2,1.7c0-0.3,2.4-0.3,2.8-0.1c0.8,0.5-0.4,1,0.3,1.2c2.3,0.5,5-0.7,7.1-1.6c1.2-0.5,2.4-1.1,3.5-1.9
		c0.9,0.8,0.7,1.1,0.4,1.7l53.2-0.2c1.7-1.5,3.1-3.2,4.1-5.1c1.6-3.4,1.6-7.5,2.9-11c0.8-2.2,2.6-2.5,0.7-4.9c-1.6-2-3,2.5-4.8,2.3
		c0.1,0.1,0.1-2.1,0.4-1.7c-0.8-1-0.5-0.6,0.3-1.3c-0.7,0.7-0.5-2.1,0.1-1.3c-0.7-0.9-0.5-0.6,0.4-1.2c0-0.3-0.1-0.4-0.5-0.5
		c0.1-1.3-1.3-1.7-2.3-1.1c-1-0.5-1.9-0.9-2.9-1.3c-2.3-1-4.6-2-7-2.7c5.3-7.7,14-9.8,22.4-5.6c3.9,2,7.6,5,9.9,8.7
		c0.9,1.5,1.6,3.2,1.7,4.9C141.6,21.2,145.1,18.6,144.7,18.6z"/>
	<circle fill="#F7EC27" cx="142.9" cy="18.6" r="2"/>
	<circle cx="109.6" cy="19.3" r="3.3"/>
	<circle fill="#FFFFFF" cx="110.7" cy="19" r="1.1"/>
	<path fill="#F7EC27" d="M138.2,18.9h1.8c0.1,0,0.3,0.1,0.3,0.3v0c0,0.1-0.1,0.3-0.3,0.3h-1.8c-0.1,0-0.3-0.1-0.3-0.3v0
		C137.9,19,138,18.9,138.2,18.9z"/>
	<path fill="#F7EC27" d="M139.6,22.3l1.3-1.3c0.1-0.1,0.3-0.1,0.4,0l0,0c0.1,0.1,0.1,0.3,0,0.4l-1.3,1.3c-0.1,0.1-0.3,0.1-0.4,0l0,0
		C139.5,22.6,139.5,22.4,139.6,22.3z"/>
	<path fill="#F7EC27" d="M143.1,23.7l-0.1-1.8c0-0.1,0.1-0.3,0.2-0.3l0,0c0.1,0,0.3,0.1,0.3,0.2l0.1,1.8c0,0.1-0.1,0.3-0.2,0.3l0,0
		C143.2,23.9,143.1,23.8,143.1,23.7z"/>
	<path fill="#F7EC27" d="M146.3,22.3l-1.3-1.3c-0.1-0.1-0.1-0.3,0-0.4l0,0c0.1-0.1,0.3-0.1,0.4,0l1.3,1.3c0.1,0.1,0.1,0.3,0,0.4l0,0
		C146.6,22.4,146.4,22.4,146.3,22.3z"/>
	<path fill="#F7EC27" d="M147.7,19.3l-1.8,0c-0.1,0-0.3-0.1-0.3-0.3l0,0c0-0.1,0.1-0.3,0.3-0.3h1.8c0.1,0,0.3,0.1,0.3,0.3l0,0
		C148,19.2,147.8,19.3,147.7,19.3z"/>
	<path fill="#F7EC27" d="M146.8,15.5l-1.2,1.4c-0.1,0.1-0.3,0.1-0.4,0l0,0c-0.1-0.1-0.1-0.3,0-0.4l1.2-1.4c0.1-0.1,0.3-0.1,0.4,0v0
		C146.8,15.2,146.8,15.4,146.8,15.5z"/>
	<path fill="none" stroke="#670E28" stroke-miterlimit="10" d="M104.7,30.3c-2.4-0.3-4.3-2-4.6-4c-0.3-1.8,0.6-3.2,0.9-3.5"/>
	<path fill="none" stroke="#680E28" stroke-miterlimit="10" d="M94.9,21.4c-0.4,0.7-1.5,3-0.9,6c1,4.4,5.2,6.1,5.5,6.2"/>
</g>
</svg>
