<svg xmlns="http://www.w3.org/2000/svg" width="367.3" height="372.5"><path fill="#fff" fill-opacity=".6" d="M309.5 304.9l1.6-1.6-1.6 1.6zm-216.2-50l.9.9-.9-.9zm173 37.1l1.2-1.2.7.6-2 2.4.1-1.8zm-10.5-.8h.9l.9-.9.9-.9.9-.9v-.9l-.9-1.7h4.3l-.9.9h-.9v.9l-.9.9-.9.9-.9.9-.9.9-.9.9-1.7.9v.9h-.9v-1.7h.9l1-1.1-.7-1-1.9 1.9-.9 1.7 3.5-2.6zm-150.4-208.2h.9v-2.6l1.7-.9-.7-.9-2.5 2.2 2.3-1.9-1.6-.9h.9v-2h-1.7l-.9.9v1.8l1.6 4.3zm-12.1 5.1h-.9l-.8.9v-.9h1.7zm-2.6.9l-6.9 8.6h.9v-.9l.9-.9v-.9h.9l.9-.9.9-.9v-.9h.7l.9-.9v-.9h.9v-.9l.9-.9-1 .4zm-7.7 9.5h.9v.9h-1.7l.8-.9zm-.9 1.7l.9.9-.9-.9zm0 2.6v0zm-4.3 6.1v0zm-1.8 2.6l-.9.9-.9.9v-.9l1.8-.9zm-5.1.8h.9v.9l-.9-.9zm0 1.8v.9l-1.7.9v1.8l-2.6 2.6-.9.9v.9l5.2-8zm-17.3 12.9l-1 1-.3-.9.5-1.9h-1.8v-.9h.9v-2.6h.9v-1.6h.9v-1.8h.9v-.9l.9-1.7.9-.9h.6v-.9l.9-1.7.9-.9.9-2.6v-.7h.9l.9-1.7.9-.9.9-.9v-.9l.9-.9.9-.9v-1.7h.9v-.9l-12.4 27.8zm11.2-27.6l-.8-.9h-.9l-.9.9v.9l-.9.9-.9.9v.9h-.9l-.9 1.7-.9 1.7-.9.9-.9 1.7v.9l-.9.9v.9h-.9v1.8l-2.9 2.4 2-3.3v-1.7h-.9l-.9.9-.9 1.7-.9 1.7-.9 1.7-.9 1.7-.9.9v1.7h1.6l1-1.7v-.9h1.5l-.9 1.7v.9l-.9.9-.9.9v1.7h-.9l-1.8 3.4 1-3.4-.9-.9v.9l-.9.9-.9 1.7-.9 1.7v.9l-.9.9v.9h-.9v.9l-.9 2.6v2.6h-.9l.9-3.5.9-3.5v-1.7h.9v-2.1h.9v-2.6h.9v-.9h-.9v-3.4h-.9v1.8l-.9.9-.9 1.7-.9 2.6h-.9l.9-1.7v-1.7h.9v-1.8l.9-.9-.9-1.7-.9.9v1.7h-.9v.9l-.9 1.7v1.7h-.9v.9l-.9 1.7v1.7h-.9v1.8h-.9v2.6h-.9v.9l-.9 2.6v1.7h-.2v3.4h-.9v2.6h-.9v2.6h-.9v2.6h-.9v.9l-1.9 3.4 1-2.5v-7.1h.9v-3.5h.9v-2.5h.9v-1.8h.9v-.9l.9-2.6.9-1.7v-3.5h.9v-1.8h.9v-.7l.9-1.7v-1.7h.9v-2.6h.9v-1.8h.6v-.9l.9-1.7.9-2.6v-1.7h.9v-2.6h-1.8l-.9.9-.9.9v1.8l-.9-.9h-.9l-.9 1.7-.9 3.5h-.9l.9-2.6v-1.7l.9-.9v-.9h.9v-.9h-.9v-.9l.9-.9v-1.7h-.9l-.9.9v1.7l-.9.9v1.8l-.9.9-.9 1.7v.9h-.9v1.8l-1.7.9v-.9l.9-.9h-.9v-3.5l.9-.9.9-2.6v-.9h.9v-.9l.9-1.7v-2.6h.9v-3.5l.9-.9-.9-3.5-.7 1.9-.9 2.6-.9.9v1.8h-.9v.9l-.9 1.7v.9h-.9v-2.6h.9v-4.4h-.9v.9l-.9.9-.9.9v2.6l-.9.9v.9h-.9v.9l-.9 1.7-.9 1.7-.9 2.6v.9h-.9v3.5h-.9v1.8h-.4v.9l-.9 1.7-.9 2.6v1.7h-.9v2.6h-.9v2.6h-.9v1.8h-.9v2.7l.9-.9h.9v.9l-.9.9v1.7l-.9-1.7h-.6l-.9 1.7v2.6h-.9v3.5h-.9v5.2h-.8v2.6h-.9v2.6h-.8v.9l-.9.9v3.5h-.9v4.3h.9c6.5 3.8.6.9-.9.9v.9l-.9 1.7v34.5c0 3.4 1.7.5 1.7 5.2h-.8v-2.6h-.8v8.7l1.7 4.3v3.5l.9.9v2.6l.9.9v1.7l.9.9v.9l.9.9v1.7l.9 1.7v3.5l.9 2.6.9.9v1.7l.9 1.7v.9l.9 2.6.6 2.7-1.5-2.7-.9-.9v-2.7l-.9-.9v-1.7l-.9-.9v-1.7l-1.7-.9-.9-1.7v-1.7l-.9-4.3-.9-1.7-1-1.8v-3.5l-.8-.8v-2.6l-.9-1.7v-1.7l-.9-1.7.1-4.4v-1.7l-.9-.9v-13l-.9-3.5-.9-4.3v-5.2l-.8-.8v32l.9.9v3.5l.9 3.5v1.7l1 3.4h1.6v3.5l.9.9v.9l1 2.6h-1.9v2.6l.9 2.6.9.9v.9l.9 1.7v1.7l.9.9v1.7l.9.9v.9l.9.9v.9l.9.9v1.7l.9.9v.9l.9 1.7.9.9v2.6l.9.9.9.9v.9l.9.9v.9l.9 1.7 1 .7.7 1v1.7l.9 1.7.9.9v.9l1 .7.7 1v.9l.9.9v.9l.9.9.9 1.7.9.9.9.9.9.9v.9l.9.9v.9l.9.9.9.9 1 .7.7 1v.9l.9 1.7.9.9.9.9 1 .7.7 1 4.3 4.3 1 .7c3.8 5.2 7.7 12.2 32.7 33l.9.9.9.9.9.9.9.9.9.9 1.7.9.9.9 1.7.9h-.2l.9.9.9.9.9.9.9.9 1.7.9.9.9 1.7.9.9.9 1.7.9.9.9 1.7.9.9.9h1.7l1 .7.7 1 .9.9.9.9 1.7.9.9.9h.9l.9.9 1.7.9 2.6.9 1.7.9h2.6l2.6.9h12.1l5.3-1c2.5-.4 5.8-1.4 7.2-1.9 3.3 0-.1-1.7 2.2-.5l1.7-.9h6.1l.9-.9.9-.9.9-.9 1.7-.9.9-.9.9-.9.9-.9h.9l.9-.9v-1.7l.9-.9.9-1.7.9-.9.9-.9.9-.9v-.9l.7-1 1-.7.9-1.7v-.9l.9-.9v-2.6l.9-1.7v-9.5l-.9-3.5h-.9v1.7l-.7 1-1-2.7v-.9l-.9-.9v-.9l-1-.7-.7-1v-.9l-.9-.9v-.9l-1-.7-.7-1v-.9l-.9-.9-.9-.9-8.6-7.8-.9-.9-.9-.9h-.9l-.9-.9h-6.7l-.9-1.7h-.9l.9 1.7-2.7-.8h-.9l-1-.7-.7-1h-.9l-.9-.9h-2.6l-.8 2.6-.9-.9v-.9l-2.6-.9h-7l-.9-.9-.9-.9-.9-.9-1.7-.9h-.9l-.9-.9h-3.5l-1-.7-.7-1-.9-.9h-1.8v.9l.9.9.9.9h.9l2.6 2.6h.9l1 1.7-1.9-.8h-.9l-.9-.9h-.3l-.9-.9-.9-.9h-.9l-.9-.9-.9-.9-1.7-.9h-.9l-.9-.9h-.9l-.9-.9h-.9l-3.5-1.7h-.9l-1-.7-2.4.7-.9-1.7-1.7-.9v-2.6h-2.7l-.9-.9-.9-.9-.9-.9-.9-.9-.9-.9-.9-.9-.9-.9-.9-.9-.9-1.7-.9-1.7-.9-.9-1-.7-.7-1v-1.7l-.9-.9-.9-.9v-1.7l-.9-.9v-.9l-.9-.9h-.9v1.7l-.7 1-1.9-2.7v-.9l-.9-1.7-.9-.9v-1.7l-2.6-1.7v-.9l-.9-.9v-3.9000000000000004l-.9-1.7-.9-2.6c-1.5 0-.9-.7-.9-2.6 0-3.3.3-.3-.9-2.6l-1-1.7 1.9.8.9 3.5 5.2 6v.9l1.7 2.6v1.7l.9.9.9.9 1.9 1.6.8-.5-1-1v-1.7l-.9-.9-1-.7 1-1.9v-.9l-.9-.9-.9-.9v-.9l.9-1.7 1.7 1.7v.9l.9.9v.9l.9.9v.9l.9.9.9 1.7.9.9.9.9.9.9.9 1.7.9.9 2.6 2.6v.9l1 .7.7 1h1.9l1 .7.7 1v.9l.9.9h.9l.9.9h1.6l.9.9h2.6l.9.9 1.7.9h1.7l3.4 1.1-1.7-2.8-.9-.9h-.9l-.9-.9-.9-.9h-2.6l-5.2-6.1-.9-.9-.9-.9-.9-.9-.9-1.7-.9-.9-.9-.9-.9-.9c-2.4-1.6-3.2-1.6-3.5-5.2l5.2 4.3h.9l.9-.9.9.9 2.6 1.7v-.9l-.9-.9v-.9l-4.3-3.5.9-.9h-.4l-1.1-.6 1-1v-.9l-.9-.9-.9-.9-.9-.9-.9-.9-1-.7-.7-1v-.9l-.9-.9-.9-.9v-.9l-.9-.9v-.9l-.9-1.7-.9-.9-.9-.9v-.9l-.9-1.7-.9-.9v-1.7l-.9-1.7-.9-.9v-.9l-.9-.9v-2.6l-.9-2.6-.9-.9v-.9l-.9-3.5v-6.1l-.9-.9v-1.7l-.9-.9v-6.2h.9v3.5l.9 1.7c1.6 0 .9 5.3.9 6.9l.9 1.7.9 1.7 1 .7.9-.6-1-1.9v-2.6c-1.5 0-.9-4.5-.9-6l-.9-2.6v-13l-.9-5.2v-3.3h-1.7v-4.3h-.3l.9-.9v-.9h-.9v-6l.9-1.7v-5.2h.9v-3.4l.9.9h.9l-.9-2.6v-3.5l.9 3.5.9.9v-.9l.9-1.7c0-2.7-.6-4.8.9-6v-1.8h.9l.1-1.9.7 1h.9l.9-.9v-.9h-.9l.9-.9v-1.7h.9v-3.5l.9-.9v-1.7h.4l.9-.9.9-.9v1.7l.9.9h.9l.9-1.7v-.9h.9v-2.6h.9v-.9l.7-.7h.9v-.9l.9-1.7.9-1.7.9-.9.9-.9.9-1.7v-1.7h.6l.9-.9v-.9h-.9l.9-1.7v.9h.9v-.9l.9-2.6h.9v.9h.9l.9-.9v-1.7h-.9v-1.7l-28.7-2.6zm32 0l.9-1.7v.9l-.9.8zm1.7-2.6l.9-.9.9-.9-1.8 1.8zm5.2-2.6v0zm.9-1.7l.9-2.6v-.9l-.9 3.5zm2.6-8.7h-.9l-1 .7-.7 1 2.6-1.7zm-3.5 1.8l3.3-6.8.1-.1v-2.6l.9-.9.9-.9h1.7v.9l-.9 1.7-.9 2.6-.9.9-.9 1.7h-.9l-.9.9-.7 1-1 .7.2.9zm21.6-8.7v0zm-21.6 7.8l.7-1 1-.7-1.7 1.7zm32-14.7h0zm-50.1 40.6h.9v.9l-.9.9-.9 1.7h-1.7v1.7l2.6-5.2zm-1.8 5.2v-.9l.9-.9-.9 1.8zm1.8-3.5h-.9v-.9l.9-.9 1-2.5 1.6-.1.9 1.7-3.5 2.7zm-18.2-57l.9-.9-.9.9zm206.5 293h0zm-37.1-1.8h0zm-18.2 4.4h-.1102230246251565e-16zm-89.8-297.3l1-.7.7-1h1.8v-.9h.9l.9-.9.9.9-.9.9-2.6.9-1.7 1.7h-1.7l.7-.9zm-80.8 87l1.3-.6-.9-1.7v-.9h.9v-3.5h.9v-1.8l.9-.9v-1.7l.9.9v1.7l1.7.9.5-1.9.4 1.9.8 2.6-2.8 4.1 1.3-1.5 1.6.9-.7-.4c.7-.5 1.2-1 1.6-1.4l.5-1c.2 0 .1.2-.1.5l-.7 4h-3.3c-1 2.8 1.1.6-2.6 2.6l-1.7-.9v2.7h-.9l.7-3.5-.7-.8v0l.4-.3zm74.7-51.6h.9l.9-.9.9-.9h1.7v-.9h.9l.9-1.7v-.9l.9.9h1.7l.9-.9h.9l1.7-.9.9-.9 2.6-.9v-.9h1.8v-.9h1.8v-.9h.9l.9-.9h.9v-.9h1.8v-.5h2.6v-.9h1.7l2.6-.9.9-.9h.9v-.9h1.8v-.9h1.7l2.6-.9h.9l.9-.9v-.9h3.4v-.9h2.6l3.5-.9 1.7-.9v.9h.9l3.5-.9v-.9h3.5l.9-.9h13.9v-.3l5.2.9c2.7 0 6.6-.6 7.8.9h4.3l2.6.9h3.5l1.7.9h1.7l2.6.9h.9l1.7.9h.9l.9.9h1.7l.9.9 1.7.9 2.6.9 1.7.9 1.7.9h4.3l.9 1.7.9.9.9.9h.9l4.3 3.5h1.7l2.8 2.4 2.4-.6 3.4 4.3h.9l2.6 2.6v.9l.9.9.9.9 1 .7.7 1h.9l1 .7.7 1v.9l.9.9.9.9 3.5 3.5v.9l.9.9v.9l.9.9 2.6 2.6v.9l1 .7.7 1v.9l.9.9.9.9v2.6l1.7 2.6v.9l.9.9.9 1.7.9.9v.9l.9.9v.9l.9.9v.9l.9 1.7v1.7l.9.9v1.7l.9.9v.9l.9.9v2.6l.9 1.7.9 1.7.9.9v2.6l.9 2.6.9 1.7v2.6l.9 1.7.9.9v3.5l.9.9v.9l.9 3.5v4.3l.9 3.5v5.2l.9 5.2v17.4h-.9l-.9.9v-4.3h-.9c0 2.7.6 4.8-.9 6 0 2.7.6 5.7-.9 6.9v1.7h.9l.9-.9.9-4.3v-2.6h.9v6.9h-.9v4.3h-.9v1.8h-.9v.9h.9v3.5h-.9v.9l-.9 2.6v1.7h-2.7v3.4h-.9v.9c0 1.8.3 3.2 0 4.3v-.8h-.9l-.9 1.7v.9l-.9 1.7v2.6h-.9v.9l-.9.9v1.7h-.6v1.8h-.9v1.8h-.9v.9l-.9 1.7v-2.9h-.9v.9h.9l-.9 1.7v-.9h-1.7v.9h1.7v.9h-.9v.9l-.9.9-.9.9v1.7h-.7l-.9.9v2.6h-.9l-.9.9v.9l-.9.9v.9h-.9v1.8h-.9l-.9.9-.9.9v1.8h-.9l-.9.9v.9l-.9.9-.9.9-.9.9-.9.9-.9.9-.9.9-.9.9v1.7h-.9l-.9.9-.9.9-.9.9-.9.9v.9l-.9.9-.9.9-.9.9-.9.9-.9.9v-.9h-1.9l1-1.7 2.6-.9.9-1.7-.8-1.7 1.7-.9v-.9l.9-.9v1.7h.9l.9-.9.9-.9.9-1.7.9-.9.9-1.7v-.9h.9l.9-1.7v-.9h.9v-.9l.9-.9.9-.9.9-.9.9-1.7v-.9h.9v-2.5h.9l.9-.9.9-.9v-.9l.9-1.7.9-1.7.9-.9.9-.9.9-2.6.9-2.6.9-.9v-1.7h.9v-.9l.9-1.7.9-.9v-2.6h.9v-.9l.9-1.7v-.9h1.7v-.7h-1.7v-.9h.9l1.7-.9v-1.7h-.9l-1.7.9v-.9h.9l.9-2.6.9-2.6.9-3.5v-2.6l.9-.9h-.9l.9-2.6.9-4.3v-1.7h.9v-1.6h.9v-.9h-.9l-.9-3.5h.9v-.9l.9-4.3v-1.7l-.9-.9.9-1.7v-4.2c-.3-.4-3.5-6-.9-6v-3.5l-.9-.9v-3.5l-.9-.9.9-.9v-1.7l-.9-.9-1-1.7h2.7v-3.5l-.9-.9h-.9l-.9.9v-3.5l-.9-.9v-3.5l-.9-3.5-.9-3.1-.9-.9v-2.6l-.9-1.7v-1.8l-.9-2.6-.9-2.6-.9-.9-.9-3.5-.9-.9-.9-.9v-1.7h-.9v-2.6l-.9-1.7-.9-.9v-1.7h-1.8v1.7l.9 1.7.9 1.7.9.9v.9h.9v3.5l.9.9v1.7l.9 1.7.9 2.6.9 1.7.9 3.5.9 2.6.9 2.6.9.9v3.5l.9 5.2.9 5.2.9 4.3.9 1.7v10.4c1.4 0 1.3 16.2 0 17.3 0 2.7.6 6.6-.9 7.8 0 2.7.6 4.8-.9 6v5.2h-.9v2.6h-.9v.9l-.9 4.3v3.5h-1.7v.9h.9v.9h-.9v2.6h-.9v.9l-.9 1.7-.9 1.7v.9h-.8v.9l-.9 1.7v1.7h-.9v1.8h-.9l-.9.9v1.7l-.9.9v.9h-.9l-.9.9v1.8h-.9v1.8h-.9v1.8h-.9v.9l-.9.9-.9.9-.9 1.7-.9.9-.9 1.7-.9.9-.9 1.7v.9h-.9l-.9.9-.9.9-.9 1.7-.9.9-.9.9v.9h-.9v.9l-.9.9-.9.9-.9.9v.9h-.7v.9l1.7-.9h.9l-.7 1-1 .7-.9.9-.9.9-.9.9-.9.9-1.7.9-.9.9-.9.9-1.7.9-.9.9-.9.9-1.7.9v2.6l-.9 1.7v.9h1.7l.9-.9.9-.9h.9v1.7h-1.7l-.9 1.7h-1.7l-.9.9-.9.9h-1.8v1.7l-3.4 2.7h2.6l.9-.9 1.7-.9.9-.9v-.9h.9l.9-.9h.9l-.7 1-1 .7-.9.9v.9h-1.7v.9h-.9l-.9.9v.9h-1.8l-.9.9v.9h-.9l-.9.9-.9.9-.9.9h-.9l-.9.9v.9h-1.8v.9h-.9l-.9.9h-.9v.9h-.9l-.9.9h-.9v.9h-.2l-.9.9h-.9l-1.7.9-1.7.9-.9.9v.9h-1.7l-.9.9h-.9l-1.7.9-1.7.9 4.3.9v-.9h1.8v-.9h1.8v-.9h.9l.9-.9v.9l-.9.9-.9.9-1.7.9 2.6.9 1.7-.9.9-.9v-1.7h1.7l1.7-.9.9-.9 1.7-.9v-.9l-.9-.9h1.7l.9-.9 1.7-.9v.9h1.7l-1.7-.9.9-.9 1.7.9v-.9h1.8v-.9h1.8v-2.6h2.6l4.3-2.6.9-.9.9-.9 1.7-.9-.9.9-.9.9-.9.9-.9.9-.9.9h-.9l-4.3 3.5h-.9l-.9.9h-.9v.9h-.9l-.9.9h-.9v.9h-1.8v.9h-.9l-.9.9h-.9l-.9.9-.9.9-.9.9v.9h-3.5l-.9.9v2.6h-1.7l-.9.9h-.9l-.9.9-1.7.9v.9h2.6l1.7-.9v-.9h1.7l.9-.9.9-.9h.9l.9-.9h.9l1.7.9.1-1.9.7 1h.9l.9-.9 1.7-.9v-.9h-.9l1.7-.9.9-.9h.9v-.9l.9-.9h3.5l1.7-.9.7-1 1-.7.9-.9.9-.9v-.9h1.8v-.9h1.7l.9-.9 1.7-.9.9-.9 3.5-1.7 2.6-1.7.9-.9h.9l-.9.9-2.6 1.7-2.6 1.7h-.9l-.9.9v.9h-1.3l-.9.9-.9.9-1.7.9-.9.9v.9h-1.8v.9h-.8l-.9 1.7-1.7.9-.9.9h-.9l-.9.9-.9.9v.9h-2.6l-.9.9v.9h-1.7l-.9.9-1.7.9-.9.9-1.7.9-.9.9h-.9v.9h-2.3l-.9.9v1.7h1.7v-.9h.9l2.6-.9h.9l2.6.9v-.9h1.7l2.6-.9.9-.9h.9v-.9h2.6l2.6-.9h.9v-.9h1.8v-.9h.9l.9-.9h.9v-.9h1.8v-.9h1.7l1.7-.9 1.7-.9.9-.9.9-.9.9-.9.9-.9.9-.9h.9v-.9h.9l.9-.9.9-.9h1.8l-.9.9-1.7.9-.9.9-.9.9h-.9l-.9.9v.9h-1.4l-.9.9-.9.9-.9.9h-.9v.9h-1.7l-.9.9h-.9l-.9.9-.9.9-1.7.9v.9h-.9l-.9.9h-.6v.9h-.9l-1.7.9-.9.9h-.9l-1.7.9-.9.9v.9h-1.8l-.9.9v.9h-2.6v.9h-1.8l-.9.9v.9h-1.8l-.9.9v.9l-.9.9h-.4l-1.7.9-1.7.9-.9.9v.9l1.7.9h-1.8v.9h-1.6v.9h-1.7l-.9.9h-1.7l-2.6.9h-2.6l-.9.9v.9l1.7.9h3.5v-.9h1.8v-2.3h2.6v-.9h2.6v-.9h1.8v-.8h1.8l4.3-.9v-.9h.9l.9-.9h.9v-.9h1.7l.9-.9v1.7h-1.8l-.9.9-1.7.9-1.7.9-1.7.9-.9.9v.9h1.7l2.6-.9.9-.9 1.7-.9v-.9h2.6l1.7-.9v-.9h1.7l1.7-.9 2.6-.9h.9v-.9h1.8v-.9h1.8l.9-.9v-.9h1.7l.9-.9.9-.9h.9v-.4h2.6l.9-.9v-.9h1.8v-.9h1.7l1.7-.9.9-.9.9-.9.9-.9v1.7l-1.7.9-.9.9v.9h-1.8v.9h-2.3v.9h-.9l-.9.9-1.7.9-.9.9h-.9v.9h-1.6v.9h-.9l-.9.9h-.9v.9h-1.8v.9h-1.6v.9h-1.8v.9h-.9l-.9.9h-.9v.9h-1.5l-.9.9h-.9l-2.6.9-1.6.5-1.7.9-1.7.9 3.5.9.9-.9 2.6-.9 2.6-.9v-.9h1.7l.9-.9h.9v-.9h1.8v-.9h1.8v-.9h1.7l1.7-.9.9-.9h.9v-.9h2.6l.9-.9v-.9h.9l.9-.9h.9v-.9h.9l.9-.9h.9v-.9h.9l1.7-.9h.9l.9-.9v-.9h.9l.9-.9h1.7v-.9h.9l.9-.9.9-.9 1.7-.9.9-.9 1.7-.9.9-.9.9-.9.9-.9.9-.9.9-.9.9-.9h.9l-.9 2.6 1.9.1-1 .7v.9h1.7v-2.6h1.7v-.9h.9l.9-.9h.9v-1.7h1.7v-.9h.9v-1.7h.9l.9-.9 2.6-.9.9-.9.9-.9v-.9l.9-.9h.9l.9-.9.9-.9.9-.9h1.7l-.9.9h-.9l-.9.9v.9l-1.7.9h-2.3v.9l-.9.9-.9.9-.9.9-.9.9-.9.9-.9.9-.9.9-.9.9-.9.9-.9.9h-.9l-.9.9-.9.9-.9.9v.9h-.9l-.9.9-.9.9h-.9v.9h-.9v-1.8h-.9v-1.7h-1l-.9.9-.9.9-.9.9v.9l2.6-.9v.9l-.9.9h1.7v-.3h1.8l-.9.9-.9.9v.9h-.7v1.7h.9l.9-.9v-.9h.9l.9-.9 1.7-.9.9-.9.9-.9h.9l1.7-2.6h.9l-1.7 2.6-1.7.9-.9.9-.9.9-.9.9-1.7.9-.9.9-.9.9h-1v.9h-.9l-.9.9v.9h-.9l-.9.9-3.5.9v.9l.9.9h-2.6v1.7h-1.7l-1.7.9-.9.9v.9h-.9l-.9.9h-.9l-1.7.9-3.5.9-.9.9-.9.9-.9.9-.9.9v.9h-1.3v.9h-1.8v.9h-.9l-1.7.9h-.9v.9h-1.8v.9h-1.7l-.9.9h-.9l-1.7.9v.9h-.9l-1.7.9h-.9l-1.7.9-2.6.9 3.5.9.9-.9h3.5l1.7-.9h1.7v-.9h.9l1.7-.9 1.7-.9 1.7-.9h.9v-.9h1.8v-.9h1.8v-1.8h1.7l1.7-.9.9-.9 1.7-.9.9-.9h4.3l.9-.9.9-1.7.9-.9v-.9h.9l.9-.9h.9l-.9 1.7 1.7-.9h.9l.9-.9h.9l.9-.9h1.8l-.9.9-.9.9h-.9l-.9.9h-1l-.9.9h-.9l-.9.9-.9.9h-1.7l-.9.9v.9h-1.7l-.9.9h-.9v.9h-.9l-2.4.9-1.7.9-1.7.9h-.9l-.9.9v.9h-1.7l-1.7.9h-.9v.9h-.9l-1.7.9h-2.6v.9h-3.5l-1.7.9h-.9v.9h-1.8v.9h-2.4v.9h-2.6v.9h-1.7l-3.5.9-3.5.9h-.9v.9h-2.5v1.7h4.3v-.9h3.5v-.9h4.3l3.5-.9 3.5-.9 1.7-.9v.9h.9v-.9h1.7l2.6-.9h.9l.9-.9v-.9h2.6l.9-.9h.9v-1h3.5v-.9h.9v-.9h4.3l.9-1.7 1.7-.9h.9v-.9h1.7l2.6-.9 3.5-.9h1.7l.9-.9.9-.9.9-1.7v-.9h1.8v-.9h2.6l.9-.9h1.7l.9-3.5 2.6-.9v-1.9l1.7 1h.9l.9-.9v-.9h1.7l.9-.9.9-.9.9-.9h.9v-.9h.9l.9-.9h.9l.9-.9v-.2h-1.8l.9-1.7h.9v-.9h.9l1.7.9h.9l.9-.9.9-.9.9-.9.1-1.9.7 1h.9l.9-2.6 2.6-.9.9-1.7.9-.9.9-.9.9-.9 1.7-.9.9-.9v-1.7l-1.9 1-.7-.9 1.7-.9.9-.9.9-.9.9-.9.9-.9.9-.9.9-.9v-.9l.9-.9h.9l.9-.9.9-.9.9-.9.9-.9.9-1.7.9-.9v-.9l.9-.9h.9v-2.6h.9l.9-.9v-.9l.9-.9h.9l.9-.9.9-.9.9-.9v-1.8h.9l.9-2.6.9-.9v-.9l.9-.9.9-1.7.9-.9v-.6h.9v-1.8h.9v-3.5h1.7v-6.200000000000001h1.7l.9-.9v-.9l.9-.9.9-.9.9-2.6.9-2.6.9-2.6.9-1.7v-1.7h.9v-2.6h.9l.9-.9.9-3.5.9-3.5v-2.6h-1.7v-.9h.9v-5.2h.9v-4.3h.9v-1.7l.9-1.7v-2.6h.9v-2.6h.9v-1.7l.9-1.7v-2.6h.9v-5.2h.9v-.9h-3v-.9h.9v-2.6l.9-3.5v-6.9h.9v-1.7h-.9v-14.7l-.9-1.7-.9-.9h.9v-.9h-.9v-11.2c-1.6 0-.9-5.3-.9-6.9l-.9-5.2v-.9h-.9v-3.4h-.9v-5.2h-.9v-4.3h-.9v-2.6l-.9-4.3-.9-.9v-2.6h-.9v-1.7l-.9-1.7v-.9h-.9v-2.6l-.9-1.7v-1.7h-.9v-1.7l-.9-1.7-.9-.9v-.9l-.9-1.7v-1.7l-.9-.9-.9-.9v-.9l-.9-.9v-.9l-.9-.9v-.9l-.9-.9v-2.6l-.9-.9-.9-1.7-1.7-.9v-2.6l-.9-1.7-.9-.9-.9-.9v-.9l-.9-.9v-.9l-.9-.9v-.9l-2.6-2.6v-1.7l-.9-.9-.9-.9-.9-.9-.9-.9v-.9l-.9-.9v-.9l-.9-.9-1-.7-.7-1v-.9l-1-.7-.7-1v.4l-.9-.9-.9-.9v-.9l-.9-.9-.9-.9-.9-.9-.9-.9-.9-.9-.9-.9-.9-.9-.9-.9c-2.7-1.8-6.6-4.5-6.9-8.6l-2.5 1-.9-1.9-.9-.9-.9-.9h-3.5l-1.7-.9-.9-.9-.9-.9-1.7-.9-.9-1.7h-.9v1.5l.9.9h.9v.9h1.7l.9.9.9.9v1.7l3 3.2-.8.7-4.2-3.6-1.4.6-.9-.9-2.6-.9-.9-1.7h-1.7l-4.3-1.7-.9-.9h-.9l-.9-.9-.9-.9h-1.7l-1-.7-.7-1-.9-.9h-.9l-.9-.9h-1.7l-.9-.9-.9-.9h-.9l-.9-.9h-2.6l-2.7-.4-.9.2 1.9 1.9.9.9h2.6l.9 1.7.9.9.9.9h2.6l.9.9.9.9h.9l1 .7.7 1 .9.9 1.7.9.9.9 1.7.9.9.9v1.7h1.7l2.6 2.6h.9l2.6 2.6.9.9v1.7l1.7 1.7.9.9 2.6 2.6.9 1.7.9.9.9.9.9.9.9.9.9 1.7c2.7 1.8 3.5 2.4 4.3 6v.9l.9.9 2.6 3.5v.9l.9.9.9 1.7.9.9v.9l.9.9.9 1.7.9.9v.9l.9.9v.9l1 2.5-1.9-2.5-.9-1.7-.9-1.7-.9-1.7-.9-.9v-.9l-1.7-2.6-.9-.9-.9-.9v-1.4h-.9l-.9.9-.9-.9v-.9l-5.2-5.2v-.9l-.9-.9-.9-.9-.9-.9-.9-.9-.9-.9-.9-.9-.9-.9-.9-.9-.9-.9-.9-.9-.9-.9-.9-.9-.9-.9-.9-.9h-1.7l-.9-1.7h-.9l-4.3-3.5-.9-.9-.9-.9h-.9l-2.6-2.6h-2.6l-1.7-2.6h-.9l-3.5-2.6h-1.7l-3.5-3.5-.9-.9-2.6-.9h-.9l-2.6-1.7h-.9l-.9-.9-.9-.9-1.7-.9h-1.7l-.9-.9-1.7-.9h-1.7l-3.5-1.7h-.9l-.9-.9-1.7-.9h-.9l-.9-.9h-4.3l-3.5-2.6h-3.5l-.9-.9h-2.8l-3.5-1.7h-.9l-.9-.9h-3.5v-.9l-2.5.3h-5.2v-.9h-4.3v-.9h-.9v.9h-3.5v-.9h-19v.9h-8.7v.9h-4.3l-1.7.9h-1.7v.9h-2.6l-1.7.9v2.7h-1.8v.6h-2.6l-.9.9h-.9v1.7l.9-.9 2.7.4-1.9.5-.9.9h-2.6v.9h-1.8l-1.7.9v.9h-2.6l-1.7.9v.9h-3.2v.9h-.9l-1.7.9-.9.9h-.9v-.9h-.9l-.9.9v.9h-1.7l-.9.9h-.9v.5h-1.7l-2.6.9h-.9v.9h-2.6l-.9.9v.9h-2.6v.9h-1.8v.9h-1.8v.6h-1.8v.9h-1.8l-.9.9v.9h-1.2v.9h-.9l-.9.9v-.9h-1.7l-.9 1.7h-.7l-3.5 2.6v.9h-.9v-1.7l1.6-.1 1.9-2.5h-1.7l-.9.9-.9.9v.9h-.9l-.9.9 1.7.9-.9.9-.9.9-.9.9h-.9l-2.7 2.7-1.3-1.4-.9.9-1.7.9v1.7l2.6-.8-.9.8-.9.9h-.9l-1.7-.9v.9h-2.5l-.9 2.6-.9.9-.9.9-.9.9-.9.9-.9.9v1.5h-.9l-.7.8-.9.9v.9l-.9.9-.9.9-.9.9v-2.6h-.9l-.9.9v1.7h1.7l-.6.7v.9h-.9v.9l-.8.8v.9h-.9v1.8h-2.6v.9h-.9l-.9 2.6v1.7h1.8l.9-1.7v-.9h.9l.9-.9.7-1 1-.7v-.9l.9-.9v-1.7h.9l.9-.9.9-.9.9-.9.9-.9h.9l.9-1.7.9-.9.9-.9v.9l-.9.9v.9l-.9 1.7-1.2.9v.9h-.9l-.9.9h-.9l-1.7 2.6-.9.9-1.6 1.6-.9.9v1.7h-.9l-.9.9v.9h-.9v1.7h-.9v1.8h-.9l-.9.9-.9.9v3.5h-.9l-.9 1.7v1.7h-1.7v1.7l-.9.9v2.6h-.9l-.9 1.7v1.7h-.9v.9l-.9.9-.9.9-.9 1.7v2.6l.8.4 2.7-.4c-.6 1.1-.9.9-.9 2.6 0 3.6.1 1.8-.9 2.6v1.7l1.4-.2 3.9-5.8-.9 3.2 4.3 1.1v-2.6h1.7l.1-6.2 2.5 1v-1.7h-1.7v-1.7l.9-.9-.9.9h-.9v.9h-.9l.9-1.7.9-1.7.9-.9v-.9l.9-.9.9-.9v-.9l.9-.9.9-1.7 1-2.7.7 1 .9 1.7h.9l.9-.9 1.7-2.6.9-1.7h.9l-.9 1.7 3.6-3.6.7 1-1 .1.9.4 2.7-1.4-1.2-2.7-.6 2-.7-1h-.9v-.9l.9-2.6v-.9l.9-.9.9-.9.9-.9.9-1.7.9-.9.9-.9.9-.9.9-.9.9-.9.9-1.7.9-.9.9-.9.9-.9.9-.9.9-.9.9-.9.9-.9.9-.9.9-.9.9-.9.9-.9.9-.9.9-.9.9-.9.9-.9.9-.9.9-1.7.9-.9.9-.9.9-.9.9-.9.9-.9.9-.9.9-.9h.9l.9-.9 1.7-.9v-.9h.9l.9-.9h.9v-.9h1.8v-.9h1.8v-.9h1.7l.9-.9h.9l.9-.9v-.9h2.6v-.9h1.8v-.4h2.6v-.9h1.8l1.7-.9.9-.9v-.9h1.8v-.9h1.7l.9-.9h.9v-.9h1.8l4.3-1.7h1.8l2.6-.9v-.9h1.7l.9-.9v1.8h-3.5l-1.7.9h-.9l-2.6 1.7v3l.9-.9h1.7l-.9.9-.7.7.7 1h.9v-.9h1.8v-.9h1.7l1.7-.9h.9v-.8h1.7l.9.9h-1.7l-.9.9h-.9v.9h-1.7l-1.7.9h-.9v.9h-4.3v.9h-2.6v.6h-1.7l-.9.9h-.9l-.9 1.7-3.5.9-.9.9-.9.9-1.7.9-.9.9-1.7.9-.9.9-.9.9-.9.9v.9h1.7l1.7-.9 1.7-.9v-1.7h1.7l1.7-.9v-1.9l1.7 1h1.7l1.7-.9v-.9h2.6l2.6-.9.9-.9.9-.9h1.7l.9-.9v1.7h-1.7v.9l.9.9h-.9l-.9.9v.9l.9.9-1.7-.9h-.9l-.9.9v.9h-.9l-.9.9-.9.9-1.7.9v1.7h.9l1.7-.9.9-.9 1.7-.9.9-.9h.9l.9-.9h5.1v-.9l.9.9h.9v-.9h2.6v-.9l.9-.9 2.6.9.9-.9v-.9h2.6v-.9h4.4l1.7-.9v-.9h1.7l2.7.1-1 .7v.9h-2.6v.9h-3.5l-1.7.9v-.9h-.9l-2.6.9v1.7h-1.7l-.9.9h-1.8v.9h-2.6v.9h-1.8l-.9.9v.9l-3.5.9h-.9l-.9.9v.9l-1.7.9-.9.9h-.3v.9h-1.8v.9h-1.7l-.9.9h-1.6v.5l-1.7.9-1.7.9h-.9l-.9.9v.9h-1.8v.9h-1.7l-.9.9-1 1-.7-.9 1.7-.9 1.7-.9.9-.9v-.9h-1.7l-1.7.9-.9.9-1.7.9v.9h-.9l-.9.9h-.9l-.9.9-.9.9v.9h-1.5l-.9.9h-.9v.9h-.9l-1.7.9-.9.9-.9.9h-.9v.9h-.9l-.9.9-.9.9-.9.9h-.9v.9l-1.7.9-.9.9-.9.9-.9.9-.9.9-.9.9-.9.9-.9.9-.9.9-.9.9-.9.9-.9 1.7h-.9v.9l-.9.9v.9h-.9l-.9.9v.9l-.9.9-.9.9v.9h-.9v.9l-.9.9-.9.9-.9 1.7-.9.9-.9 1.7-.9.9-.9.9-.9 1.7-.9 1.7v.9h-.9v.9l.5.1-.9 1.7-.9 1.7v1.7h-.9v.9l-.9 3.5-.9.9-.9 2.6-.9 1.7v7.8h-.7v3.5l-.9.9-.9 1.7v-4.4h-.9l-.9 3.5v1.7l.9 3.5h1.7v-1.7h1v-.9l.9-1.7.9-1.7v-2.6l.9-1.7.9-3.5v-1.7h.9l.9-.9.9-.9v-.9l.7-1.7.9-1.7v-4.4h1.7l.9-1.7.9-2.6.9-.9v-.9l-.9-1.7.9-1.7v1.7h.7l.9-.9.9-.9v-2.6l-.9-.9 1.7-.9.9-.9v-1.7l.9-.9.9-1.7v-1.7l.9.9h.9v.9h.9v-.9h.9v-.9l.9-.9.9-1.7.9-.9.9-.9v-1.7h1.7l.9-.9.9-1.7.9-.9.9-.9.9-.9.9-.9 1.7-.9h.9v-.9l.9-.9.9-.9.9-.9.9-.9.9-.9 1.7-.9h.9v-.9l.9-.9.9-.9v-1.8l.9-1.7v2.6h1.7l.9-.9h-.9zm-33.7 33.7v-1.7h.9l-.1 2.7-.8-1zm32.9-35.4l.9-.9 1-.8-1 1.7-.9.9v-.9zm-43.3 19l.9-.9v-.9h.9v-.9h.9l-.9 1.7-.9.9-.9.9v-.8zm.9-3.5l-.9.9v-.9l.9-.9v.9zm48.4-47.5v-.9l-2.6.9v.9l2.6-.9zm7.8-6h.9l.9.9h-1.7v-.9h-.1zm-48.4 25l-.9.9-.8.8-.9.9.9-1.7v-.9h1.7zm-2.6 2.6v.9l-1.9 1.9-.6-.9 2.5-1.9zm-.9 24.2h-.8l-.9 1.7 1.5-.5 2.8 1.4v-1.6l-2.6-1zm-6.9 9.5l.9-.9h-.9v.9l-.9.9.9-.9zm-5.2 2.6l-.9.9.9-.9zm-7.7 11.2v.9l1-1.7-1 .8zm-60.1 36.2l-.6 1.8.6-1.8zm18.6 115.9h-.9v-.9l.9.9zm-1.8-1.7l-.9-.9v-.9l1 .7.7 1-.8.1zm69.2-9.5h-.9v-.9l.9.9zm6.9-.9l-.9-.9h.9v.9zm-9.5 0h-.9v-.9l.9.9zm-10.4-2.6l-.9-.8-1.7-.9-.9-.9-.9-1.7-.9-.9-.9-1.7-.9-.9-.9-.9-.9-.9v-.9l1.9 1.6.8-.5-1-1h.9l.9.9.9 1.7h.9v.9l.9.9.9 1.7.9.9.9.9.9.9.9.9v1.7h-1.8v-1zm-4.3.9l-.9-.9h.9v.9zm25.1-.9h1.7v-.8l-.9-.9h-.9v-1.7l-1.7-.9-.9-.9-.9-.9-.9-.9-.9-.9-1.7.9.9.9.9.9.9.9.9.9.9.9.9.9h.9v.9l.8.7zm-8.7-5.1l-.9-.9h.9v.9zm5.2 6h-1.7l-5.2-6.1 1.7.9h1.8l.9 2.6.9.9 1.6 1.7zm.9-1.7v.9l-.9-.9h.9zm-11.3.8l-.8-.8v-.9l1 .7.7 1h-.9zm-2.6-1.7l-.9-.9v-.9l1 .7.7 1h-.8v.1zm-9.5 0l-.9-.9h.9v.9zm-2.6-.8l-.7 1-1.9-2.7h.9l.9.9.8.8zm17.3-8.7l-.9-.9v-.9l2.6 1.7h.9l.9.9.9.9-.9 1.7-.9-.9-.9-.9-.9-.9-.8-.7zm1.7-1.7v.9l-.9-.9h.9zm-9.5 7.8l-.9-.9v-.9l2.6 2.6h-.9l-.8-.8zm-10.3.8v-1.7h.9l.9.9v.9h-.9l-.9-.1zm24.2-5.2h-.9l-.9-.9-.9-.9v-1.7h1.7l.9 1.7h.9l-.8 1.8zm1.7 0l-.9.9.9-.9zm1.7 1.8l-1.7 1 .8-1.9.9.9zm.9.8l-.9.9.9-.9zm.9 1.8h-.9l.9-.9v.9zm-32-1.8l-.9-.9h.9v.9zm19-1.7v-1.7h.9l-.9 1.7zm1.7 0l-.9.9.9-.9zm1.7 1.7h-1.7l1.7-.9v.9zm-20.7-.8h-.9v-.9h.9v.9zm-56.2 0h-.9v-.9l.9.9zm52.8-6.1v1.7h-.9l-.9-.9v.9l-.9-.9h.9v-.8h-.9v-.9h.9v-1.7h-.9v-.9h1.8l.9.9v.9l.9-.9 1.7 2.6v4.3h-1.8l-2.6-1.7h2.6l-.8-2.6zm-53.6 3.5h-.9v-.9l.9.9zm61.3-.9h-.9v-.9h.9v.9zm12.1-.9v-.9l.9-.9v1.7l-.9.1zm-74.3 0h-.9v-.9l.9.9zm71.7-1.7l-1.9-1.5-.9.5 1.9 1 .9.9v.9c-2.4-1.6-3.2-1.6-3.5-5.2l5.2 4.3h-.9l-.8-.9zm-11.6-.4s-.6-.3-.5-.5l.5.5zm-.5 1.3l-1-.7 1-1.9h.9l.9.9v1.7h-1.8zm-56.1-2.6v-1.8h.9l.9 2.6h-.9l-.9-.8zm75.1.9l-.9-.9v-.9l-.9-.9-.9-.9-1.7-2.6-1.7-2.6-.9-.9v-2.6h.9l.9.9.9.9.9 1.7.9 1.7.9.9.9 1.7.9.9v1.7h.7v1.7l-.9.2zm-4.3-5.2l.9 2.6-.9-.9h-.4l-1.4-.7 1-1h.8zm3.5 6l-4.3-3.5 2.6.9.9.9.9.9v.8h-.1zm-4.3-6.9l-.9-.9.9.9zm-11.3 5.2h-.9v-.9l.9.9zm-4.3-3.5l.9-1.7 1.7 1.7-1.7 1.7-.9-.9v-.8zm2.6 2.6h0zm0-1.7l.9.9-.9-.9zm-9.5-1.7l-.9-2.6v-.9l5.2 6h-.8l-.9-.9h-1.8l-.8-1.6zm-48.4.8l.9-.8.9 1.7h-.9l-.9-.9zm.9-2.6l-.9-.9.9.9zm-.9.9l-.9-.9.9.9zm-2.6-3.5l-.9-1.7h.9v1.7zm48.4-1.7l-1-1.7 1.9.8-.9.9zm-47.5-2.6v-1.7l.9 1.7h-.9zm65.6-.8l-.9-.9h.9v.9zm-65.6-2.6h-.9v-.9l.9.9zm-8.7-2.6v-4.3l1 3.4h1.6v2.6l-1.7 1.7-.9-3.4zm1.8 6.9v-3.5l1 1.7.7-.8 1 2.6h-2.7zm.8-4.3l.9.9-.9-.9zm5.2-1.8h-.9v-.9l.9.9zm-2.6 0l-.9-.8h.9v.8zm1.7-2.5h-.8v-.9l.8.9zm63.1-.9l-.9-.9h.9v.9zm-65.7-.9l-.8-.8h.8v.8zm1.8-1.7h-.9v-.9l.9.9zm-6.9-.9v-3.5l.9 3.5h-.9zm69.1-.8l-.9-.9h.9v.9zm-64.8 0l-.9-1.7h.9v1.7zm63.9-1.8l-.9-.9h.9v.9zm2.6-8.6l.9.9v.9l-.9 2.6h-.9l-.9-.9v-.9l-1.4-3.6c-.1 1.2 1.6 5.4-.4 5.4v-1.7l-.9-1.7.1-2.6.9-1.7 1 .7.9-.6-1-1.9h.9l.9 1.7.9.9v2.5h-.1zm-2.6 6.9l.9-2.6.9 1.7-.9 1.7-.9-.8zm1.8 3.5l.9-2.6v2.6h-.9zm-3.5-7.8l-.9-.9.9.9zm5.2 4.3h-.9v-.9h.9v.9zm-68.3 0l-.9-1.7.1-4.4h.9v5.2h.9v-2.6l1.7 4.3h-1l-1.7-.8zm62.2-6l-.9-3.5h.9v3.5zm-63-1.8l-.9-.9h.9v.9zm.8-27.6c0-1.9-.7-10.4.9-10.4v9.5l1.7-.9 1.7 1.1v3.3l4.5 2.3-3.6.3.8 2.6-1.9 1.5c1.3 2.5 1-.5 1 2.8 0 .4-.5 1.5-.6 1.2 0-.2-.1.7-.3.6l-1-.7 1.1-1.8-.9-1.9 1.1-4.3h-1.9l.8 2.6h-2.5l1.7 1-.9 1.5 1 1.7-.4 2.6h-1.4v6c0 3.4 1.7.5 1.7 5.2h-.9v-2.6h-.8v5.2h-.9v-15.6h-.8v-4.3h.9v-8.5h-.1zm61.4 19.9l-.9-.9h.9v.9zm-.9-2.6l-.9-.9h.9v.9zm3.5-2.6l-.9-2.6h.9v2.6zm-46.7-4.4v0zm-2.4 2.7l.8-4.3c2 .2 4.1 1.6 4.1 3.4 0 1.2-1.2 1.7-2.6 1.7-1.6 0-1.4-.3-2.3-.8zm-17.5-2.7l-.9-4.3h.9v4.3zm67.4-2.5v-2.6h.9l.9 1.7v.9h-1.8zm-64.8-20.8v2.6h-.8v-2.6h.8zm-1.7 3.5v-.9l.9.9h-.9zm-2.6 7.7v-6.9h.9l.9 5.2-.9 1.7h-.9zm2.6 1.8v0zm-1.7-.9l.9 1.7h-.9l-.9-.8v-.9h.9zm14.5-5.6l1.8.6-1.8-.6zm-.7-3.9c0-1 1.2-2 1.7-2.6l-1 3.4h1.8l.9 4.3-1.9 2.5-3.3-.9-2.5 2-.5-3.6-.6-1.7h1.8v1.7l4.2-2c-.3-2.1-.6-1.1-.6-3.1zm30.2 6.1c.1-2.4.6-2.1 2.6-2.6v2.6h-2.6zm-42.3-.9v-2.6h.9v2.6h-.9zm63.9-2.6v-1.7h-1.7v-4.3h.9v2.6l.9-1.7h.9v5.2l-1-.1zm-59.6-9.5l1.7 1v3.3l2.5-1 .1 2.8c-2.8-.1-4.3.3-4.3-2.6 0-1.9.6-2.6-.9-2.6v-.9h.9zm38-13.9l1-1.6 3.3 1-.5 7.5c4.3-2.7.3-1.5 4-4.3v1.7l2.6-.8c-.5 4.1 1.2 1.4-2.6 3.4l1.9 2.5-1.1 1.8h-1.6c-.3-3.5-.2-3.6-2.6-2.6l-.8-2.6-3.7 3.3 1.9.2-1.1 3.4 1.2-1.6h3.3l1 2.5 2.4.1v1.7h-2.5l-1 3.4-2.4-1.8-.1 3.6 2.5-1c-1.9 2.8.6 1.6-3.4 1.9v-2.6h-1.7l1.9-1.5-2.7-.2v1.7l-1.7-.9 1.9 4.3-2 .1v1.7h-1.7v-1.7l-2.5 1 1.5-2.1.2-3.3 2-2.4 1.4-.2v1.7c2.3-1.1-.7-.9 2.6-.9.1 0 1.7.9 1.7.9l2.6-1c-2.4-2-1.8-1.6-6-1.6v-3.5h-1.7l-.7-3.5c2.1-1.1-.9-.8 2.4-.8h2.6c-1.9-2.8-1.4-.6-1.7-4.3h3.5v-1.7l-3.6-.9zm-42.3 7.8l.9-1.7h.9l.9 3.5v5.2l-.9 1.7h-.9v-3.5h-.9v4.3l-.9-5.2.9-4.3zm-1.7 13.9v-4.3l.9 4.3h-.9zm217.7 200.5v-1.7h1.7v.9l-.9.9-.8-.1zm2.6-3.5h-.9v-.9h.9v.9zm10.4-5.2l2.6.9-1.7.9-1.7.9-2.6.9-3.5-.9 1.7-.9 3.5-.9 1.7-.9zm-9.5 3.5l2.6.9h-2.6v-.9zm13.8-6.1h-.9v-.9h.9v.9zm-23.3-.8l1.7-.9h.9v1.7h-2.6v-.8zm51.8 0h-.9v-.9h.9v.9zm-23.3-.9h-.9v-.9h.9v.9zm-24.2-.9l2.6-.9h.9v1.7l-2.6.9h-1.8v-.9l.9-.8zm4.3-1.7l1.7-.9h.9v1.7h-2.6v-.8zm5.2-.9h-.9v-.9h.9v.9zm36.3-.8h-1.7v-.9h1.7v.9zm-60.5 0v-1.7h1.7l1.7.9v.9l-3.4-.1zm12.1-1.8h-1.7v-.9h1.7v.9zm-6-1.7l.9-.9h1.7v1.7l-1.7.9h-.9v-1.7zm22.4.9l1.7.9-1.7-.9zm-1.7.8l1.7.9-1.7-.9zm-1.7.9l1.7.9h-1.7v-.9zm0-3.4h-.9v-.9h.9v.9zm11.2-7l.9-1.7h1.8v-.9h1.8v-.9l1.9.1-1 .7-1.7.9-1.7.9-.9.9h-1.1zm-43.2 3.5l-.9-.9h.9v.9zm-4.3 0l3.5.9-2.6.9h-1.7v-.9l.8-.9zm36.3-3.5c.2-.2.5.5.5.5-.1 0-.7-.3-.5-.5zm-18.2-5.1l1.9 1.5 1.5-.7 1.8.1v.9l-.9.9-2.6.9h-1.7v.9h-2.6v.9l-2.6.9-1.7.9-2.6.9-2.6-.9 1.7-.9 1.7-.9 1.7-.9 2.6-.9h1.7v-.9l.9-.9.9-1.7h.9v-.1zm1.8 0h0zm-14.7 8.6v-.9l.9.9h-.9zm71.7-9.5h-.9v-.9h.9v.9zm-54.4-.9l1.7-.9h.9v1.7l-1.7.9h-.9v-1.7zm56.1 0h-.9v-.9h.9v.9zm2.6-3.4l.9-.9h.9v1.7l-.9.9-1.7-.9.8-.8zm-1.7 2.6v-.9l.9.9h-.9zm4.3-2.6l.9-.9h.9v1.7h-1.7l-.1-.8zm-41.5 0h0zm-8.6 0h-1.7v-.9h1.7v.9zm-5.2-1.8l-1.7-.9h1.7v.9zm-3.5 0l1.7.9-1.7-.9zm-.8 1.8v-.9l.9.9h-.9zm63.1-.9h-.9v-.9h.9v.9zm-1.8-.9h-.9v-.8h.9v.8zm-44-4.3h0zm-3.5.9h0zm-13 0h-.9v-.9h.9v.9zm68.3-4.3h-.9l.9-.9h.9l-.9.9zm-74.3 2.6h-.9v-.9h.9v.9zm-2.6-1.8l-1.7-.9h1.7v.9zm-3.5 0l1.7.9-.9.9h-2.6v-.9l1.8-.9zm21.7.9v-1.7h.9v1.7h-.9zm-10.4-1.7v-.9l.9.9h-.9zm73.4-3.5h-.9l.9-.9h.9l-.9.9zm-70.8-3.4l.9-.9h1.7v.9l-.9 1.7-1.7.9-1.7.9-.9.9-2.6.9-1.7.9h-3.5v-.9l1.7-.9 1.7-.9 2.6-.9 1.7-.9h1.7l1-1.7zm-1.8 0h.9l-.9.8v-.8zm26.8 4.3h-.8v-.9h.9v.9h-.1zm-15.6-3.6l-1.8.6 1.8-.6zm-6.8 6.2l1.7.9-1.7-.9zm-1.8.8l1.7.9-1.7-.9zm-.8 1.8v-.9l.9.9h-.9zm5.2-11.3h-.9v-.9h.9v.9zm82.1-4.3v-.9l.9-.9v.9l-.9.9zm-31.6.3l-1.7.8.4.5-1.8 1.1-.7-1h.9l2.9-1.4zm-28.9 1.4h1.3l-2.2 1.7v-.9l.9-.8zm-13.9-1.7v.9l-1.7.9h-4.3l-1.7.9-1.7-.9.9-.9 1.7-.9 1.7-.9.9-.9 1.7-.9 1.7-.9.9-.9 1.7-.9.9-.9.9-.9 2.6-.9 1.7-.9.9-.9.9-.9.9-.9h2.6v-1.7h.9v2.6l-4.3 2.6-2.5 1 .8.7h.9l1.7-1.7.9 1.7-1.7.9h-.9v.9h-1.8v.9h-.9v.9h-1.8v.9h-1.8v1.7h-.9l-1.8.3zm1.8-1.7h-.9l-1.7.9-1.9.7 1-.7 2.6-1.7 2.6-1.7 1.9-1.9.6.9-.7 1h-.9l-.9.9-.9.9h-.9l.1.7zm-13 4.3l1.7.9h-1.7v-.9zm97.7-16.4h-.9l-.9.9-1.7 2.6-2.6 2.6v-.9l1-.7.7-1v-.9h.9l.9-1.7.9-.9.9-.9v-.9l1.7-1.7h.9l-.9.9v.9l-.9.9v.8zm-7.7 7.6l.6.8-4.2 3.6v-.9l3.6-3.5zm-46.8-8.5l.9-.9h.9l.9-.9.9-.9.7-1-.6-.8-.1.1-1 1.8-.9.9h-.9l-.9.9-.9.9h1v-.1zm-14.7.9h-.9v-.9h.9v.9zm28.5-.9l.9-1.7h.9l-.9 1.7-.9.9-1 .7-.7 1h-.9l2.6-2.6zm-6 5.2l-.9 1.7h-.9l.9-1.7h.9zm14.7-13h-.9v-.9h.9v.9zm-29.4 0h-1.7l-2.4 2.8.5.8c1.4-2 2.7-2.4 4.5-3.6l1-.7-1.9.7zm10.4-9.5v0zm54.4 11.3h0zm-52.7-15.6v-1.7h1.7l-1.7 1.7zm86.8-19.9v0zm3.1-11.2v-1.7h1.7v.9l-.9.9-.8-.1zm1.7-5.2v-1.8h.9v.9h.9v.9h-.9v.9l-.9 1.7h-.9v-2.6h.9zm1.7-2.6v-1.7h.9v1.7h-.9zm-65.6-9.5v-1.7h.9v1.7h-.9zm.8-4.3l.9-1.7v1.7h-.9zm2.6-2.6v-1.7h.9v1.7h-.9zm68.3-14.7v-2.6h-.9l.9 2.6zm-2.6 8.7c1.5-1.3.9-6 .9-8.6l1.7.9v.9c-1.5 1.3-.9 6-.9 8.6l-.9 4.3h-1.7v-.9l.9-5.2zm-64 0h-.9v-.9h.9v.9zm0-1.8h-.9v-.9h.9v.9zm65.7-10.3h.9v-1.7h-.9v1.7zm0-2.6h.9v-8.6h-.9v8.6zm.9-9.5v-.9h-.9v.9h.9zm-.9-1.8h.9v-4.3h-.9v4.3zm0-5.2h.9v-2.6h-.9v2.6zm0-3.4h.9v-1.7h-.9v1.7zm.9-5.2v-.9h-.9v.9h.9zm-2.6-.9h-.9v-.8h.9v.8zm1.7-4.3l-.9.9v-.9h.9zm0 3.5h.9v-2.6l-.9 2.6zm-.9-4.4v-3.5h.9v3.5h-.9zm-2.5-7.7l-.9.9v-.9h.9zm.8 1.7h-.8l.9-.9v.9h-.1zm0-7.8v-6.9h.9l.9 5.2v.9l-1.8.8zm.9 5.2l.9-5.2-.9 5.2zm0 .9l1.7-.9v4.3h-.9l-.9-2.6.1-.8zm-3.5-7.8v-2.6h1.7v4.3h-.9l-.8-1.7zm-.8-5.2v-4.4h.9v.9h.9v5.2h-.9l-.9-1.7zm-.9-5.2v-2.6l.9-.9v3.4h-.9v.1zm-2.6-10.3l-.9-1.7v-.9h1.7v2.6h-.8zm-263.6-29.4l3.5-2.6v3.5h-.9l-.9-.9h-1.7000000000000002zm5.2-4.3h-.9l.9-.9v.9zm5.2-2.6v-.9l-3.5.9h3.5zm.9-1.8v-.9l-.9.9h.9zm-1.8-6.9l.9-.9h.9v.9l-1.6 1.9-1-1 .8-.9zm-.8-6.9l.9-.9h.9l-10.4 9.5v-.9l1-.7.7-1 .9-.9 1-.7.7-1 .9-.9.9-.9.9-.9 1.6-.7zm-7.8 6.1l-.9.9.9-.9zm2.6-2.6l-.9.9.9-.9zm8.6 6l4.1-4.5-.5-.8-.9 1.2-1-1v-.9l2.6-.9h.9v-.9h.9v.9h-.9v.9h.9v.9h-.9v1.7l-1.7.9-.9.9-.9 1.7h-1.7v-.1zm14.7-8.6l-.9-.9h.9v.9zm-2.6 0h1.7v1.7l-.9.9-.9.9h-.9v-2.6l1-.9zm45.8-2.6l1.7-.9h.9v1.7l-2.6-.8zm-2.6.8l2.6.9-1.7.9-1.7.9h-2.6v-.9l1.7-.9 1.7-.9zm-33.7-4.3v1.7h-2.6l-.9.9-.9.9v1.7h.9l1.7-.9v-1.8h3.5l.9-.9v-2.6h-1.7l-.9 1zm28.6 3.5v-1.8h1.7v.9l-.9.9h-.8zm-22.5-3.5v-.9h2.6v-.9h.9l.9-.9h2.6l.9-2.6v-.9h-2.6l-.9.9-.9.9h-2.7l-.9.9v2.6h-1.7v.9h1.8zm-19.9-2.6v-.9l.9-1.7.9-.9h1.8l.9.9v.9l-.9.9-.9.9-.9.9h-1.7l-.1-1zm-47.5 2.6v.9l-.9.8-.8-1.7-.9.9-.9.8-2.6 3.5-.9 1.7-.9.9-.8 1.7-1.7-.8v-.9l.9-.9.9-.9.9-1.7h.9v-1.8l.9-.9h.9v-1.7l.9-.9.9-.9.9-.9.9-.9v-.6h.9l.9-.9.9-.9h1.7v-1.7l.9-.9 1.7-.9.9-.9.9-1.7.9-.9.9-.9.9-.9.9-.9.9-.9.9-.9.9-.9 1.7-.9.9-.9h.9v-.9h.1l.9-1.7.9-.9.9-.9v-.9h1.8v-.9h1.5v-.9l.9-.9h1.8v-.9h.9l1.7-.9.9-.9h1.7v-1.7h2.6v-.9l.9-.9 1.7-.9.9-.9h.9l.9-.9.9-.9h2.6l.9-.9h.9l.9-.9v-.9h2.6l.9.9-.9.9h-1.7l-.9.9-.9.9-1.7.9-.9.9-1.7.9-.9.9h-1.7v.9h-2.1v.9h-1.8v.9l-.9.9h-.9l-.9.9-.9.9h-.9v.9h-.9l-.9.9-1.7.9-.9.9-.5 1.3-.9.8-.9.9-.9 1.7-.9.9-.9.9-.7.8-.9.9-1.7.9v.9h-.9l-.9.9-.9.9h-.9v.9h-.9l-.9.9v.9h-.7l-.9.9-.9 1.7-.9.9-.9.9-.9.9h-1.5v1.7l-.9.9-.9.9-.9.9v.9h-.9l-.7-.5zm-.9-.8l1-1.9.6.9-.7 1h-.9zm59.6-2.6l-.9-.9v-.9h2.6v.9l-.9.9h-.8zm-33.7-1.8h.9l-.7 1-.2-1zm.9-.8h.9l-.7 1-.2-1zm.9-.9h.9l-.7 1-.2-1zm.8-.9h0zm1.8-.8l.9.9-.9-.9zm0 2.6l.9-.9-.9.9zm-7 6l.9-.9-.9.9zm72.6-10.4v0zm-58.7-4.3h1.7l-1.6 1.9-1-1 .9-.9zm1.7-.8l.9.9-.9-.9zm1.7-.9v.9l-.9-.9h.9zm72.6 1.7v-.9h1.7l.9.9h-2.6zm-82.1-4.3l1.7-.9h2.6v.9l-.9.9-1.6.8-.9.9-.9 1.7-3.5.9-.9.9-.9 2.6h-1.6l-.9.9-.9 1.7h-1.7v-.9l.9-2.6.9-.9 1.7-.9.9-.9.9-.9.9-.9.9-.9.9-.9.9-.9 1.5-.6zm-2.8 3.2l2.9-2.1.9.6-3.8 1.5zm14.1-.6h-.9v-.9h.9v.9zm18.1-2.6v0zm22.5-.9v-.9l.9.9h-.9zm-46.7 0l-.9-.9v-.9h1.7v1.7h-.8v.1zm50.1-3.4v.9h-.9v-.9h.9zm60.5-5.2v-.9h-1.7000000000000002v-.9l-.9-.9h-.9l-.9-.9-3.5-.9h-6.8v-.9h-4.3v-.9c3.7 0 13.7-1.3 15.6.9l3.5.9h3.5l.9.9h4.3l.9.9h2.6l.9.9h1.7l.9.9 1.7.9h1.7l.9.9.9.9h1.7l.9.9 1.7.9h1.7l.9.9h.9l.9.9 1.7.9h2.7v-1.7l2.6 1.7 2.6.9h2.6l.9 1.7 1.7.9 1.7.9h.9l1 .7.7 1 .9.9.9.9 1.7.9h2.6l4.3 5.2.9.9.9.9.9.9h1.7l6.7 7.1-.6.7h-1.4l-3.5-3.5-.9-.9h-.9l-.9-.9-.9-.9-.9-.9-.9-.9h-3.4l-.9-1.7-.9-.9-.9-.9-1.7-.9h-.9l-1-.7-.7-1h-3.5l-.9-1.7-.9-.9h-.9l-1-.7-.7-1-.9-.9-1.7-.9h-.9l-.9-.9h-1.7l-2.6-2.6h-.9l-1.7-.9-2.6-.9h-2.6l-.9-.9h-1.7l-.9-.9h-1.7l-1.7-.9h-.4l-1.7-.9h-1.7l-.9-.9h-4.3c-1.6 0-6.9.7-6.9-.9h-1.8v.1zm-114-2.6c.2-.2.5.5.5.5s-.7-.3-.5-.5zm94.1-3.4v.9h-2.6v-.9h2.6zm-38.1-.4l1.8-.6-1.8.6zm-5.1-3.1l2.6-.9h.9v1.7l-1.7.9h-1.7v-1.7h-.1zm9.5-1.2h0zm4.4-4h-1.7v-.9h1.7v.9zm-11.3-2.6l2.6-.9h1.7l1.7-.9 3.5-.9h1.7v-.9h.9l1.7-.9 4.3-.9c1.5 0 6 .7 6-.9 1.9 0 10.4.7 10.4-.9h5.2v.9l-.9.9h-.9c-1.7 0-8.6-.7-8.6.9-1.5 0-6-.7-6 .9-1.5 0-6-.7-6 .9l-2.6.9-2.6.9-2.6.9h-3.5v.9l-4.3.9-3.5.9h-1.7v-.9l.9-.9 2.6-.9zm23.4-1.7l-2.6.9c0 1.5 4.5.9 6 .9 0-1.6 5.3-.9 6.9-.9l2.6-.9v-.9h-6.9c0 1.6-4.5.9-6 .9zm-4.4 1.7v.9h1.7l-1.7-.9zm-10.3-4.3v-.9h-1.7v.9h1.7zm4.3-.9h3.5l.9-.9v-.9l-2.6-.9h-2.6v.9l.8 1.8zm-1.7-.8v-.9h-1.7v.9h1.7zm15.5-.9v-.9h-3.5l3.5.9zm-4.3.9h.9l-.9-.9v.9zm8.6-1.8h-3.5l-4.3-.9v-.8l.9-.9h3.5l2.6-.9h6.9v-.9h.9v.9l.9-.9h13.100000000000001l.9 1.7h-3.5l-.9.9-1.7.9h-10.4v.9h-5.4zm-10.3 0h.9l.9-.9v-.8h-1.8v1.7zm-5.2-8.6v-.9h-.9l.9.9zm-4.3 0l3.5.9-3.5-.9zm-3.5.9l3.5.9v-.9h-3.5zm2.6 1.7v1.9l-1.7-1h-.9l-5.2.9-3.5.9-2.6.9-1.7.7h-.9v.9h-1.7l-.9.9-2.6.9-2.6.9-2.6.9-1.7.9-.9.9-1.7.9v.9h2.6l1.7-.9 1.7-.9 1.7-.9 3.5-.9 1.7-.9 2.6-.9 2.6-.9 2.6-.9 2.6-.9 4.3-.9c0-1.5 4.1-1.3 5.2 0h.9l.9-.9.9-.9v.9h2.6l1.7-.9 2.6-.9 1.7-.9h2.6v-.9h.9l2.6.9c0-1.5 4.1-1.3 5.2 0h2.6v-.9l-.9-.9h1.7v1.7h1.7v-1.4h.9v1.7h4.3v-1.7h11.2v.9h.9v-.9h.9v-.9h-3.5v-2.6h1.7v-.9l-.9-.9h-.9v.9h-.9v-.8l-.9-.9h-11.2v-1.7h1.8l.9-.9v-.8h-4.2v.9h-.9l-.9-2.6-.9 1.7v.9h-3.5v.9h-.9l.9.9v.9h1.7v-1.1h5.2l-.7.9-2.6.9v.9h-4.3l-2.6.9h-.9l-.9.9-2.6.9-.9.9v-1.7h-.9v-1.1h-.9v.9h.9v2.6h-.9v.9h-9.600000000000001v.9h-.9v-.9l-2.3.8zm-4.3-.9l1.7.9h-1.7v-.9zm51 4.3h-1.7v-.9h1.7v.9zm-3.5-1.7h-.9l.9.9v-.9zm-25.9-.8v-.9l.9.9h-.9zm-4.3-3.5h-.9v-.9h.9v.9zm-18.2-2.6l3.5-.9h3.5v.9l-.9.9h-1.8l-3.5.9h-.9l.1-1.8zm13.8-1.7l-2.6-.9h2.6v.9zm-6 0l3.5.9h-3.5v-.9zm19-.9v-.9l.9.9h-.9zm-1.7-.9l-.9-.9h.9v.9zm-1.7.9v-.9l.9.9h-.9zm18.1-2.6h-1.7v-.8h1.7v.8zm-6.9-2.6l-.9-.9h.9v.9zm1.7-.8v-.9h.9v.9l1.7-.9h5.2v.9l-.9.9c-1.5 0-6-.7-6 .9h-.9v-1.8zm-129.6 166.7h.9v1.7l-.9 1.7-2.5-1.7v-1.7h1.7v.9h.9v-.9h-.1zm-.9-.8h-.9v-2.6h.9v2.6zm0-7.8c.2-.2.5.5.5.5s-.6-.3-.5-.5zm-27.6-6l.9.9-.9.9v-1.8zm1.7-1.8h-.9v-1.7l.9.9v.8zm2.6-6l-.9-1.7v-.9h.9v2.6zm.9-5.2h-.9v-.9h.9v.9zm12.1-7.8l-.9.9.9-.9zm-.9 4.3l-.9.9v-.9h.9zm26.8-5.1l-.9-.9h.9v.9zm-.9 1.7l-.9-1.7.9 1.7zm-2.6 1.7l.9-1.7.9 3.5-.9.9h-.9v-2.7zm-21.6-6l1 2.6-1-.8v-1.8zm-2.6-1.8l.7 1.9-.7-1v-.9zm-19-6h.9v-1.7l.9.9.9 1.7h-1.8v.9l-.9-.9v-.9zm16.4 2.6l-.9-.9h.9v.9zm17.3-.9h0zm20.8-1.7h-.9v-.9h.9v.9zm-15.6-6.9l-.9.9.9-.9zm-.9 6.9h.9l-.7 1 .9 2.4c-3.5-3.4 1.5-.1-2.8-1.7l1.7-1.7zm4.4-6.1h-.9v-.9h.9v.9zm-6.1 3.5l-.9.9.9-.9zm.9-1.7l-.9.9.9-.9zm-17.3.8v.9l.9-1.7-.9.8zm-26.8 0l-.9-.9-.9-.9.9-.9v.9h.9v1.8zm62.2.9h-.9v-.9h.9v.9zm-44.1-1.7h-.9v.9l.9 1.7v-.9h.9v-1.8h.9v-1.8h.9v-.9l.9-.9v-1.7h.9v-1.8h.9v-.9l.9-.9v-1.7h.9v-.9h.9l.9-1.7.9-.9-.9-2.6-.9.9-.9 1.7-.9 1.7-.9.9v.9l-.9.9v.9h-.9v1.8h-.9v.9l-.9 1.7-.9.9-.9 1.7v1.9zm-17.2-1.8h-.9v-.9h.9v.9zm40.1-2.2s.3.6.5.5c.1-.1-.5-.5-.5-.5zm-40.1.5h-.9v-.9h.9v-.9l.9-.9v.9l-.9 1.8zm.8-4.3v-.9l1.7-.9v.9l-1.7.9zm19-5.2l-.9-.9h.9v.9zm-1.7 1.7v-1.7l.9 1.7h-.9zm10.4-6.9l-.9-.9h.9v.9zm-1.7 0l.5 1.7-.5-1.7zm.8 4.3h1.7v-2.6h-1.7v2.6zm1.7-3.4l.9.9v-.9h.9l.9-.9-.9-1.7h-.9l-.9 1.7v.9zm-19-5.2l.9-.9v-.9h-1.7l.8 1.8zm-.8 1.7l-.9-1.7.9 1.7zm37.8 2.5l.9-.9c1.5 1.2-1.6 1 1.9 1 .4 0 .6-1.2.9-.9l1 .7c-2 2.2-1.9 1.2-2.7 3.6h-1.7l.4-2.7-.7-.8zm-26.6 3.6h-.9v-.9h.9v.9zm0-3.5v1.7l.9.9h.9l.9-.9v-4.3h.9v-.9h.9v-.9l1.7-.9.9-2.6.9-.9.9-1.7.9-.9v-.9h.9l-.9-2.6-.9.9-.9.9v.9l-.9.9h-.9v.9l-1 .9-.9 1.7-.9 1.7h-.9v2.6h-.9l-.9 2.6 1 1-.9.6-.8-.7zm11.2-2.6l.9-1.7h.9v2.6l-.9.9-.9-1.8zm16.5-6l-.9.9.9-.9zm-8.7 6h-.8v-.9h.9v.9h-.1zm-5.2-3.4l.9-.9h1.7v.9l-.9.9h-1.7v-.9zm18.2-4.4l.9-1.7-.9 1.7zm-9.5-4.3l-.9-1.7h.9v-.9l.9-.9.9-.9.9-.9.9-1.7.9-.9.9-.9.9-.9.9-.9h1.7v1.7l-1.2 1.1h-1.7v1.7l-.9.9v1.7h-.9v-.9l-.9 1.7-.9.9-2.4 1v.8zm-2.6.9l.9-.9.9 1.7h-1.7l-.1-.8zm-5.2-4.3v-1.7l2.5-1.9.1 1.9-.9.9-.9.9-.8-.1zm2.6-4.4l.9.9-.9-.9zm7.8 7.8v0zm-1.8.9v-.9l.9.9h-.9zm9.5-13.8l.9-1.7h1.7v.8l-.9 1.7-.9.9-.8-1.7zm-.8 2.6v-.9l.9.9h-.9zm-13.8-13l-1.7-.9h1.7v.9zm-2.6-1.7h-1.8v.9h.9l-.9.9v-.9h-.9v.9l-1.7.8v3.5h-.9l-.9.9-.9.9 1.7.9 1.7-.9v2.6h1.7l.9-.9v-.9h.9l.9-.9.9-.9v-.9h1v-.9h.9v-2.6h.9l.9-2.6.9-1.7.9-.9 1.7-.9.9-.9v-1.7h-1.7l-.9 1.7-.9.9h-.9l-.9-.9v.9h.9l-.9.9-1 .9-.8.9v.9h-1.7l-.9-.9v.9zm-8.7 9.5l.9-.9.9 1.7h-1.7v-.8h-.1zm10.4-10.4l-.9-.9h.9v.9zm3.4-5.2v1.8l1.7-.9v-1.7h-.9l-.8.8zm63.3 240.1l-.9-.9.6-.6 1.2.9-.9.6zm-116-38.7l.9 1.7.7 1.9-.7-1-.9-.9v-.9l-1.9-4.3 1.9 3.5zm-2.1-4.1l-1.7-2.6 2-.2-.3 2.8zm66.1-6.3h-.9l-1-.7 1.9.7zm-7.8-15.6v-.9l-.9-1.7-.9-.9-1-2.6h1.9v1.7l.9.9.9 2.6v.9l.9.9v.9h-.9l-.9-1.8zm-4.3-10.3l.9.9h-.9l-.9-.9h.9zm-28.5-7.8l.9.9v6.9h-.9v-1.8c-1.6 0-.9-5.3-.7-7.1l.7 1.1zm58.7-114.9v-1.7h1.7v1.7h-1.7zm191.9 232.4c.2-.2.4.4.5.5 0 0-.7-.3-.5-.5zm-62.4-9l1.8-.6-1.8.6zm-65.5-283.4h0zm166.8 41.8l.9.9-.9-.9zm28 179.8v0zm-34.1 33.7h0zm-38.9-192.7l.9.9v.9l.9.9h-.9l-.9-.9-.9-.9v-.9l-1-1.7 1.9 1.7zm-14.7-14.7l.9.9.9.9.9.9.9.9.9.9 1 .7.7 1 .9 1.7.9.9.9.9 1 1.7-2.7-2.5-.9-.9-.9-.9-1-.7-.7-1h-.9l-.9-.9-.9-.9-.9-.9-.9-.9-.9-.9-1-1.7 2.7.8zm21.6-1.8l.9.9.9.9.9.9h-.9l-.9-.9-.9-.9-.9-.9-1-.7 1.9.7zm-133.1-42.4l-1.8.6 1.8-.6z"/></svg>