<?xml version="1.0" encoding="utf-8"?>
<!DOCTYPE svg PUBLIC "-//W3C//DTD SVG 1.1//EN" "http://www.w3.org/Graphics/SVG/1.1/DTD/svg11.dtd">
<svg version="1.1" id="Capa_1" xmlns="http://www.w3.org/2000/svg" xmlns:xlink="http://www.w3.org/1999/xlink" x="0px" y="0px"
	 width="367.3px" height="372.5px" viewBox="0 0 367.3 372.5" enable-background="new 0 0 367.3 372.5" xml:space="preserve">
<g>
	<g>
		<g>
			<path fill="#FFFFFF" fill-opacity="0.6" d="M309.5,304.9l1.6-1.6L309.5,304.9L309.5,304.9z M93.3,254.9l0.9,0.9L93.3,254.9
				L93.3,254.9z M266.3,292l1.2-1.2l0.7,0.6l-2,2.4L266.3,292L266.3,292z M255.8,291.2h0.9l0.9-0.9l0.9-0.9l0.9-0.9v-0.9l-0.9-1.7
				h4.3l-0.9,0.9H261v0.9l-0.9,0.9l-0.9,0.9l-0.9,0.9l-0.9,0.9l-0.9,0.9l-1.7,0.9v0.9h-0.9v-1.7h0.9L255.8,291.2l-0.7-1l-1.9,1.9
				l-0.9,1.7L255.8,291.2L255.8,291.2z M105.4,83h0.9v-0.9v-1.7l1.7-0.9l-0.7-0.9l-2.5,2.2l2.3-1.9l-1.6-0.9h0.9V76h-1.7l-0.9,0.9
				v0.9v0.9L105.4,83L105.4,83z M93.3,88.1h-0.9L91.6,89v-0.9H93.3L93.3,88.1z M90.7,89l-6.9,8.6h0.9v-0.9l0.9-0.9v-0.9h0.9l0.9-0.9
				l0.9-0.9v-0.9H89l0.9-0.9v-0.9h0.9v-0.9l0.9-0.9L90.7,89L90.7,89z M83,98.5h0.9v0.9h-1.7L83,98.5L83,98.5z M82.1,100.2l0.9,0.9
				L82.1,100.2L82.1,100.2z M82.1,102.8v0.9V102.8L82.1,102.8z M77.8,108.9v0.9V108.9L77.8,108.9z M76,111.5l-0.9,0.9l-0.9,0.9v-0.9
				L76,111.5L76,111.5z M70.9,112.3h0.9v0.9L70.9,112.3L70.9,112.3z M70.9,114.1v0.9l-1.7,0.9v0.9v0.9l-2.6,2.6l-0.9,0.9v0.9
				L70.9,114.1L70.9,114.1z M53.6,127l-1,1l-0.3-0.9l0.5-1.9h-0.9H51v-0.9h0.9v-0.9v-1.7h0.9V121v-0.9h0.9v-0.9v-0.9h0.9v-0.9
				l0.9-1.7l0.9-0.9H57v-0.9l0.9-1.7l0.9-0.9l0.9-2.6V108h0.9l0.9-1.7l0.9-0.9l0.9-0.9v-0.9l0.9-0.9l0.9-0.9v-1.7h0.9v-0.9L53.6,127
				L53.6,127z M64.8,99.4L64,98.5h-0.9l-0.9,0.9v0.9l-0.9,0.9l-0.9,0.9v0.9h-0.9l-0.9,1.7l-0.9,1.7l-0.9,0.9l-0.9,1.7v0.9l-0.9,0.9
				v0.9h-0.9v0.9v0.9l-2.9,2.4l2-3.3v-1.7h-0.9l-0.9,0.9l-0.9,1.7l-0.9,1.7l-0.9,1.7l-0.9,1.7l-0.9,0.9v1.7l1.6,0l1-1.7v-0.9H51
				l-0.9,1.7v0.9l-0.9,0.9l-0.9,0.9v1.7h-0.9l-1.8,3.4l1-3.4l-0.9-0.9v0.9l-0.9,0.9l-0.9,1.7l-0.9,1.7v0.9l-0.9,0.9v0.9h-0.9v0.9
				l-0.9,2.6v2.6h-0.9l0.9-3.5l0.9-3.5v-1.7h0.9v-0.9V127h0.9v-0.9v-1.7h0.9v-0.9h-0.9V121v-0.9h-0.9v0.9v0.9l-0.9,0.9l-0.9,1.7
				l-0.9,2.6h-0.9l0.9-1.7v-1.7h0.9v-0.9v-0.9l0.9-0.9l-0.9-1.7l-0.9,0.9v1.7h-0.9v0.9l-0.9,1.7v1.7h-0.9v0.9l-0.9,1.7v1.7h-0.9v0.9
				v0.9h-0.9v0.9v1.7h-0.9v0.9l-0.9,2.6v1.7H32v1.7v1.7h-0.9v0.9v1.7h-0.9v0.9v1.7h-0.9v0.9v1.7h-0.9v0.9l-1.9,3.4l1-2.5V146h0.9
				v-0.9v-2.6h0.9v-0.9V140h0.9v-0.9v-0.9h0.9v-0.9l0.9-2.6l0.9-1.7v-3.5h0.9v-0.9v-0.9h0.9V127l0.9-1.7v-1.7h0.9v-0.9V121h0.9v-0.9
				v-0.9H38v-0.9l0.9-1.7l0.9-2.6v-1.7h0.9v-0.9v-1.7h-0.9h-0.9l-0.9,0.9l-0.9,0.9v0.9v0.9l-0.9-0.9h-0.9l-0.9,1.7l-0.9,3.5h-0.9
				l0.9-2.6v-1.7l0.9-0.9v-0.9h0.9v-0.9h-0.9v-0.9l0.9-0.9v-1.7h-0.9l-0.9,0.9v1.7l-0.9,0.9v0.9v0.9l-0.9,0.9l-0.9,1.7v0.9h-0.9v0.9
				v0.9l-1.7,0.9v-0.9l0.9-0.9h-0.9v-0.9v-2.6l0.9-0.9l0.9-2.6v-0.9h0.9V108l0.9-1.7v-2.6h0.9v-2.6v-0.9l0.9-0.9l-0.9-3.5L32,97.7
				l-0.9,2.6l-0.9,0.9v0.9v0.9h-0.9v0.9l-0.9,1.7v0.9h-0.9v-2.6h0.9v-0.9v-2.6v-0.9h-0.9v0.9l-0.9,0.9l-0.9,0.9v2.6l-0.9,0.9v0.9
				h-0.9v0.9l-0.9,1.7l-0.9,1.7l-0.9,2.6v0.9h-0.9v0.9v1.7v0.9h-0.9v0.9v0.9H19v0.9l-0.9,1.7l-0.9,2.6v1.7h-0.9v0.9v1.7h-0.9v2.6
				h-0.9v0.9v0.9h-0.9v0.9v0.9v0.9l0.9-0.9h0.9v0.9l-0.9,0.9v1.7l-0.9-1.7H13l-0.9,1.7v1.7v0.9h-0.9v2.6v0.9h-0.9v0.9v4.3H9.5v0.9
				v1.7H8.6v1.7v0.9H7.8v0.9l-0.9,0.9v3.5H6v4.3h0.9c6.5,3.8,0.6,0.9-0.9,0.9v0.9l-0.9,1.7v3.5v9.5v8.6v6.9v6c0,3.4,1.7,0.5,1.7,5.2
				H6v-2.6H5.2v5.2v3.5l1.7,4.3v3.5l0.9,0.9v2.6l0.9,0.9v1.7l0.9,0.9v0.9l0.9,0.9v1.7l0.9,1.7v3.5l0.9,2.6l0.9,0.9v1.7l0.9,1.7v0.9
				l0.9,2.6l0.6,2.7l-1.5-2.7l-0.9-0.9v-0.9v-0.9v-0.9l-0.9-0.9v-1.7l-0.9-0.9v-1.7l-1.7-0.9l-0.9-1.7v-1.7l-0.9-4.3l-0.9-1.7
				L6,227.3v-3.5L5.2,223v-2.6l-0.9-1.7v-1.7l-0.9-1.7l0.1-4.4v-1.7l-0.9-0.9v-13l-0.9-3.5l-0.9-4.3v-5.2L0,181.5v6v0.9v25.1
				l0.9,0.9v3.5l0.9,3.5v1.7l1,3.4l1.6,0v2.6v0.9l0.9,0.9v0.9l1,2.6l-1.9,0v2.6l0.9,2.6l0.9,0.9v0.9l0.9,1.7v1.7l0.9,0.9v1.7
				l0.9,0.9v0.9l0.9,0.9v0.9l0.9,0.9v1.7l0.9,0.9v0.9l0.9,1.7l0.9,0.9v2.6l0.9,0.9l0.9,0.9v0.9l0.9,0.9v0.9l0.9,1.7l1,0.7l0.7,1v1.7
				l0.9,1.7l0.9,0.9v0.9l1,0.7l0.7,1v0.9l0.9,0.9v0.9l0.9,0.9l0.9,1.7l0.9,0.9l0.9,0.9l0.9,0.9v0.9l0.9,0.9v0.9l0.9,0.9l0.9,0.9
				l1,0.7l0.7,1v0.9l0.9,1.7l0.9,0.9l0.9,0.9l1,0.7l0.7,1l4.3,4.3l1,0.7c3.8,5.2,7.7,12.2,32.7,33l0.9,0.9l0.9,0.9l0.9,0.9l0.9,0.9
				l0.9,0.9l1.7,0.9l0.9,0.9l1.7,0.9H83l0.9,0.9l0.9,0.9l0.9,0.9l0.9,0.9l1.7,0.9l0.9,0.9l1.7,0.9l0.9,0.9l1.7,0.9l0.9,0.9l1.7,0.9
				l0.9,0.9h1.7l1,0.7l0.7,1l0.9,0.9l0.9,0.9l1.7,0.9l0.9,0.9h0.9l0.9,0.9l1.7,0.9l2.6,0.9l1.7,0.9h2.6l2.6,0.9h12.1l5.3-1
				c2.5-0.4,5.8-1.4,7.2-1.9c3.3,0-0.1-1.7,2.2-0.5l1.7-0.9h2.6h3.5l0.9-0.9l0.9-0.9l0.9-0.9l1.7-0.9l0.9-0.9l0.9-0.9l0.9-0.9h0.9
				l0.9-0.9v-1.7l0.9-0.9l0.9-1.7l0.9-0.9l0.9-0.9l0.9-0.9v-0.9l0.7-1l1-0.7l0.9-1.7v-0.9l0.9-0.9v-2.6l0.9-1.7v-1.7v-2.6v-5.2
				l-0.9-3.5h-0.9v1.7l-0.7,1l-1-2.7v-0.9l-0.9-0.9v-0.9l-1-0.7l-0.7-1v-0.9l-0.9-0.9v-0.9l-1-0.7l-0.7-1v-0.9l-0.9-0.9l-0.9-0.9
				l-8.6-7.8l-0.9-0.9l-0.9-0.9h-0.9l-0.9-0.9H146h-5.2l-0.9-1.7h-0.9l0.9,1.7l-2.7-0.8h-0.9l-1-0.7l-0.7-1h-0.9l-0.9-0.9h-0.9h-1.7
				l-0.8,2.6l-0.9-0.9v-0.9l-2.6-0.9h-2.6h-3.5h-0.9l-0.9-0.9l-0.9-0.9l-0.9-0.9l-1.7-0.9h-0.9l-0.9-0.9h-3.5l-1-0.7l-0.7-1
				l-0.9-0.9h-0.9h-0.9v0.9l0.9,0.9l0.9,0.9h0.9l2.6,2.6h0.9l1,1.7l-1.9-0.8h-0.9l-0.9-0.9H108l-0.9-0.9l-0.9-0.9h-0.9l-0.9-0.9
				l-0.9-0.9l-1.7-0.9h-0.9l-0.9-0.9h-0.9l-0.9-0.9h-0.9l-3.5-1.7h-0.9l-1-0.7l-2.4,0.7l-0.9-1.7l-1.7-0.9l0-1.7v-0.9h-0.9h-0.9
				h-0.9l-0.9-0.9l-0.9-0.9l-0.9-0.9l-0.9-0.9l-0.9-0.9l-0.9-0.9l-0.9-0.9l-0.9-0.9l-0.9-1.7l-0.9-1.7l-0.9-0.9l-1-0.7l-0.7-1v-1.7
				l-0.9-0.9l-0.9-0.9v-1.7l-0.9-0.9v-0.9l-0.9-0.9h-0.9v1.7l-0.7,1l-1.9-2.7v-0.9l-0.9-1.7l-0.9-0.9v-1.7l-2.6-1.7v-0.9l-0.9-0.9
				V248v-0.9v-1.7l-0.9-1.7l-0.9-2.6c-1.5,0-0.9-0.7-0.9-2.6c0-3.3,0.3-0.3-0.9-2.6l-1-1.7l1.9,0.8l0.9,3.5l5.2,6v0.9l1.7,2.6v1.7
				l0.9,0.9l0.9,0.9l1.9,1.6l0.8-0.5l-1-1v-1.7l-0.9-0.9l-1-0.7l1-1.9v-0.9l-0.9-0.9l-0.9-0.9v-0.9l0.9-1.7l1.7,1.7v0.9l0.9,0.9v0.9
				l0.9,0.9v0.9l0.9,0.9l0.9,1.7l0.9,0.9l0.9,0.9l0.9,0.9l0.9,1.7l0.9,0.9l2.6,2.6v0.9l1,0.7l0.7,1H83l1,0.7l0.7,1v0.9l0.9,0.9h0.9
				l0.9,0.9H89l0.9,0.9h2.6l0.9,0.9l1.7,0.9h1.7l3.4,1.1l-1.7-2.8l-0.9-0.9h-0.9l-0.9-0.9l-0.9-0.9h-0.9h-1.7l-5.2-6.1l-0.9-0.9
				l-0.9-0.9l-0.9-0.9l-0.9-1.7l-0.9-0.9l-0.9-0.9l-0.9-0.9c-2.4-1.6-3.2-1.6-3.5-5.2l5.2,4.3h0.9l0.9-0.9l0.9,0.9l2.6,1.7v-0.9
				l-0.9-0.9V248l-4.3-3.5l0.9-0.9h-0.4L82,243l1-1v-0.9l-0.9-0.9l-0.9-0.9l-0.9-0.9l-0.9-0.9l-1-0.7l-0.7-1v-0.9l-0.9-0.9l-0.9-0.9
				v-0.9l-0.9-0.9v-0.9l-0.9-1.7l-0.9-0.9l-0.9-0.9v-0.9l-0.9-1.7l-0.9-0.9v-1.7l-0.9-1.7l-0.9-0.9v-0.9l-0.9-0.9v-2.6l-0.9-2.6
				l-0.9-0.9v-0.9l-0.9-3.5v-6.1l-0.9-0.9v-1.7l-0.9-0.9V191h0.9v3.5l0.9,1.7c1.6,0,0.9,5.3,0.9,6.9l0.9,1.7l0.9,1.7l1,0.7l0.9-0.6
				l-1-1.9v-2.6c-1.5,0-0.9-4.5-0.9-6l-0.9-2.6v-9.5v-0.9v-2.6l-0.9-5.2v-0.9v-0.9V172h-1.7v-4.3H64l0.9-0.9v-0.9H64v-1.7v-2.6v-1.7
				l0.9-1.7v-3.5V153h0.9v-1.7v-1.7l0.9,0.9h0.9l-0.9-2.6v-3.5l0.9,3.5l0.9,0.9v-0.9l0.9-1.7c0-2.7-0.6-4.8,0.9-6v-0.9v-0.9h0.9
				l0.1-1.9l0.7,1h0.9l0.9-0.9v-0.9h-0.9l0.9-0.9v-1.7h0.9v-0.9v-0.9v-1.7l0.9-0.9V127H76l0.9-0.9l0.9-0.9v1.7l0.9,0.9h0.9l0.9-1.7
				v-0.9h0.9v-0.9v-1.7h0.9v-0.9L83,121h0.9v-0.9l0.9-1.7l0.9-1.7l0.9-0.9l0.9-0.9l0.9-1.7v-1.7H89l0.9-0.9v-0.9H89l0.9-1.7v0.9h0.9
				V108l0.9-2.6h0.9v0.9h0.9l0.9-0.9v-1.7h-0.9V102L64.8,99.4L64.8,99.4z M96.8,99.4l0.9-1.7v0.9L96.8,99.4L96.8,99.4z M98.5,96.8
				l0.9-0.9l0.9-0.9L98.5,96.8L98.5,96.8z M103.7,94.2v-0.9V94.2L103.7,94.2z M104.6,92.5l0.9-2.6V89L104.6,92.5L104.6,92.5z
				 M107.2,83.8h-0.9l-1,0.7l-0.7,1L107.2,83.8L107.2,83.8z M103.7,85.6l3.3-6.8l0.1-0.1l0-2.6l0.9-0.9l0.9-0.9h1.7v0.9l-0.9,1.7
				l-0.9,2.6l-0.9,0.9l-0.9,1.7h-0.9l-0.9,0.9l-0.7,1l-1,0.7L103.7,85.6L103.7,85.6z M125.3,76.9v0.9V76.9L125.3,76.9z M103.7,84.7
				l0.7-1l1-0.7L103.7,84.7L103.7,84.7z M135.7,70h0.9H135.7L135.7,70z M85.6,110.6h0.9v0.9l-0.9,0.9l-0.9,1.7H83v1.7L85.6,110.6
				L85.6,110.6z M83.8,115.8v-0.9l0.9-0.9L83.8,115.8L83.8,115.8z M85.6,112.3h-0.9v-0.9l0.9-0.9l1-2.5l1.6-0.1l0.9,1.7L85.6,112.3
				L85.6,112.3z M67.4,55.3l0.9-0.9L67.4,55.3L67.4,55.3z M273.9,348.3h-0.9H273.9L273.9,348.3z M236.8,346.5h-0.9H236.8
				L236.8,346.5z M218.6,350.9h-0.9H216h1.7H218.6L218.6,350.9z M128.8,53.6l1-0.7l0.7-1h0.9h0.9V51h0.9l0.9-0.9l0.9,0.9l-0.9,0.9
				l-2.6,0.9l-1.7,1.7h-1.7L128.8,53.6L128.8,53.6z M48,140.6l1.3-0.6l-0.9-1.7v-0.9h0.9v-0.9v-2.6h0.9v-0.9v-0.9l0.9-0.9v-1.7
				l0.9,0.9v1.7l1.7,0.9l0.5-1.9l0.4,1.9l0.8,2.6l-2.8,4.1l1.3-1.5l1.6,0.9l-0.7-0.4c0.7-0.5,1.2-1,1.6-1.4l0.5-1
				c0.2,0,0.1,0.2-0.1,0.5l-0.7,4l-3.3,0c-1,2.8,1.1,0.6-2.6,2.6l-1.7-0.9l0,2.7h-0.9l0.7-3.5l-0.7-0.8V140v0.9L48,140.6L48,140.6z
				 M122.7,89h0.9l0.9-0.9l0.9-0.9h1.7v-0.9h0.9l0.9-1.7v-0.9l0.9,0.9h1.7l0.9-0.9h0.9l1.7-0.9l0.9-0.9l2.6-0.9v-0.9h0.9h0.9v-0.9
				h0.9h0.9v-0.9h0.9l0.9-0.9h0.9v-0.9h0.9h0.9V76h0.9h1.7v-0.9h1.7l2.6-0.9l0.9-0.9h0.9v-0.9h0.9h0.9v-0.9h1.7l2.6-0.9h0.9l0.9-0.9
				v-0.9h1.7h1.7v-0.9h2.6l3.5-0.9l1.7-0.9v0.9h0.9l3.5-0.9v-0.9h3.5l0.9-0.9h0.9h3.5h9.5V64l5.2,0.9c2.7,0,6.6-0.6,7.8,0.9h4.3
				l2.6,0.9h3.5l1.7,0.9h1.7l2.6,0.9h0.9l1.7,0.9h0.9l0.9,0.9h1.7l0.9,0.9l1.7,0.9l2.6,0.9l1.7,0.9l1.7,0.9h2.6h1.7l0.9,1.7l0.9,0.9
				l0.9,0.9h0.9l4.3,3.5h1.7l2.8,2.4l2.4-0.6l3.4,4.3h0.9l2.6,2.6v0.9l0.9,0.9l0.9,0.9l1,0.7l0.7,1h0.9l1,0.7l0.7,1v0.9l0.9,0.9
				l0.9,0.9l3.5,3.5v0.9l0.9,0.9v0.9l0.9,0.9l2.6,2.6v0.9l1,0.7l0.7,1v0.9l0.9,0.9l0.9,0.9v2.6l1.7,2.6v0.9l0.9,0.9l0.9,1.7l0.9,0.9
				v0.9l0.9,0.9v0.9l0.9,0.9v0.9l0.9,1.7v1.7l0.9,0.9v1.7l0.9,0.9v0.9l0.9,0.9v2.6l0.9,1.7l0.9,1.7l0.9,0.9v2.6l0.9,2.6l0.9,1.7v2.6
				l0.9,1.7l0.9,0.9v3.5l0.9,0.9v0.9l0.9,3.5v4.3l0.9,3.5v5.2l0.9,5.2v6.9v0.9v7.8v0.9v0.9h-0.9l-0.9,0.9v-4.3h-0.9
				c0,2.7,0.6,4.8-0.9,6c0,2.7,0.6,5.7-0.9,6.9v1.7h0.9l0.9-0.9l0.9-4.3v-2.6h0.9v4.3v2.6h-0.9v1.7v2.6h-0.9v0.9v0.9h-0.9v0.9h0.9
				v3.5h-0.9v0.9l-0.9,2.6v1.7H299v1.7v1.7h-0.9v0.9c0,1.8,0.3,3.2,0,4.3v-0.8h-0.9l-0.9,1.7v0.9l-0.9,1.7v2.6h-0.9v0.9l-0.9,0.9
				v1.7H293v0.9v0.9h-0.9v0.9v0.9h-0.9v0.9l-0.9,1.7V248h-0.9v0.9h0.9l-0.9,1.7v-0.9h-1.7v0.9h1.7v0.9h-0.9v0.9l-0.9,0.9l-0.9,0.9
				v1.7H286l-0.9,0.9v0.9v1.7h-0.9l-0.9,0.9v0.9l-0.9,0.9v0.9h-0.9v0.9v0.9h-0.9l-0.9,0.9l-0.9,0.9v0.9v0.9h-0.9l-0.9,0.9v0.9
				l-0.9,0.9l-0.9,0.9l-0.9,0.9l-0.9,0.9l-0.9,0.9l-0.9,0.9l-0.9,0.9v1.7h-0.9l-0.9,0.9l-0.9,0.9l-0.9,0.9l-0.9,0.9v0.9l-0.9,0.9
				l-0.9,0.9l-0.9,0.9l-0.9,0.9l-0.9,0.9v-0.9l-1.9,0l1-1.7l2.6-0.9l0.9-1.7l-0.8-1.7l1.7-0.9v-0.9l0.9-0.9v1.7h0.9l0.9-0.9l0.9-0.9
				l0.9-1.7l0.9-0.9l0.9-1.7v-0.9h0.9l0.9-1.7v-0.9h0.9v-0.9l0.9-0.9l0.9-0.9l0.9-0.9l0.9-1.7v-0.9h0.9v-0.9V261h0.9l0.9-0.9
				l0.9-0.9v-0.9l0.9-1.7l0.9-1.7l0.9-0.9l0.9-0.9l0.9-2.6l0.9-2.6l0.9-0.9v-1.7h0.9v-0.9l0.9-1.7l0.9-0.9v-2.6h0.9v-0.9l0.9-1.7
				v-0.9h1.7V235h-1.7v-0.9h0.9l1.7-0.9v-1.7h-0.9l-1.7,0.9v-0.9h0.9l0.9-2.6l0.9-2.6l0.9-3.5v-2.6l0.9-0.9h-0.9l0.9-2.6l0.9-4.3
				v-1.7h0.9V210v-0.9h0.9v-0.9h-0.9l-0.9-3.5h0.9v-0.9l0.9-4.3v-1.7l-0.9-0.9l0.9-1.7V191c-0.3-0.4-3.5-6-0.9-6v-3.5l-0.9-0.9v-3.5
				l-0.9-0.9l0.9-0.9v-1.7l-0.9-0.9l-1-1.7l2.7,0v-3.5l-0.9-0.9h-0.9l-0.9,0.9v-3.5l-0.9-0.9v-3.5l-0.9-3.5L293,153l-0.9-0.9v-2.6
				l-0.9-1.7V146l-0.9-2.6l-0.9-2.6l-0.9-0.9l-0.9-3.5l-0.9-0.9l-0.9-0.9v-1.7h-0.9v-2.6l-0.9-1.7l-0.9-0.9v-1.7h-0.9h-0.9v1.7
				l0.9,1.7l0.9,1.7l0.9,0.9v0.9h0.9v0.9v2.6l0.9,0.9v1.7l0.9,1.7l0.9,2.6l0.9,1.7l0.9,3.5l0.9,2.6l0.9,2.6l0.9,0.9v3.5l0.9,5.2
				l0.9,5.2l0.9,4.3l0.9,1.7v10.4c1.4,0,1.3,16.2,0,17.3c0,2.7,0.6,6.6-0.9,7.8c0,2.7,0.6,4.8-0.9,6v5.2H293v0.9v1.7h-0.9v0.9
				l-0.9,4.3v2.6v0.9h-1.7v0.9h0.9v0.9h-0.9v0.9v1.7h-0.9v0.9l-0.9,1.7l-0.9,1.7v0.9H286v0.9l-0.9,1.7v1.7h-0.9v0.9v0.9h-0.9
				l-0.9,0.9v1.7l-0.9,0.9v0.9h-0.9l-0.9,0.9v0.9v0.9h-0.9v0.9v0.9h-0.9v0.9v0.9h-0.9v0.9l-0.9,0.9l-0.9,0.9l-0.9,1.7l-0.9,0.9
				l-0.9,1.7l-0.9,0.9l-0.9,1.7v0.9h-0.9l-0.9,0.9l-0.9,0.9l-0.9,1.7l-0.9,0.9l-0.9,0.9v0.9h-0.9v0.9l-0.9,0.9l-0.9,0.9l-0.9,0.9
				v0.9H261v0.9l1.7-0.9h0.9l-0.7,1l-1,0.7l-0.9,0.9l-0.9,0.9l-0.9,0.9l-0.9,0.9l-1.7,0.9l-0.9,0.9l-0.9,0.9l-1.7,0.9l-0.9,0.9
				l-0.9,0.9l-1.7,0.9v1.7v0.9l-0.9,1.7v0.9h1.7l0.9-0.9l0.9-0.9h0.9v1.7h-1.7l-0.9,1.7h-1.7l-0.9,0.9l-0.9,0.9h-0.9h-0.9l0,1.7
				l-3.4,2.7h2.6l0.9-0.9l1.7-0.9l0.9-0.9v-0.9h0.9l0.9-0.9h0.9l-0.7,1l-1,0.7l-0.9,0.9v0.9h-1.7v0.9h-0.9l-0.9,0.9v0.9h-0.9h-0.9
				l-0.9,0.9v0.9h-0.9l-0.9,0.9l-0.9,0.9l-0.9,0.9h-0.9l-0.9,0.9v0.9h-0.9h-0.9v0.9h-0.9l-0.9,0.9h-0.9v0.9h-0.9l-0.9,0.9h-0.9v0.9
				H229l-0.9,0.9h-0.9l-1.7,0.9l-1.7,0.9l-0.9,0.9v0.9h-1.7l-0.9,0.9h-0.9l-1.7,0.9l-1.7,0.9l4.3,0.9v-0.9h0.9h0.9v-0.9h0.9h0.9
				v-0.9h0.9l0.9-0.9v0.9l-0.9,0.9l-0.9,0.9l-1.7,0.9l2.6,0.9l1.7-0.9l0.9-0.9v-1.7h1.7l1.7-0.9l0.9-0.9l1.7-0.9v-0.9l-0.9-0.9h1.7
				l0.9-0.9l1.7-0.9v0.9h1.7l-1.7-0.9l0.9-0.9l1.7,0.9v-0.9h0.9h0.9v-0.9h0.9h0.9V312h2.6l4.3-2.6l0.9-0.9l0.9-0.9l1.7-0.9l-0.9,0.9
				l-0.9,0.9l-0.9,0.9l-0.9,0.9l-0.9,0.9H248l-4.3,3.5h-0.9l-0.9,0.9h-0.9v0.9h-0.9l-0.9,0.9h-0.9v0.9h-0.9h-0.9v0.9h-0.9l-0.9,0.9
				h-0.9l-0.9,0.9l-0.9,0.9l-0.9,0.9v0.9h-3.5l-0.9,0.9v2.6h-1.7l-0.9,0.9h-0.9l-0.9,0.9l-1.7,0.9v0.9h2.6l1.7-0.9v-0.9h1.7l0.9-0.9
				l0.9-0.9h0.9l0.9-0.9h0.9l1.7,0.9l0.1-1.9l0.7,1h0.9l0.9-0.9l1.7-0.9v-0.9h-0.9l1.7-0.9l0.9-0.9h0.9v-0.9l0.9-0.9h3.5l1.7-0.9
				l0.7-1l1-0.7l0.9-0.9l0.9-0.9v-0.9h0.9h0.9v-0.9h1.7l0.9-0.9l1.7-0.9l0.9-0.9l3.5-1.7l2.6-1.7l0.9-0.9h0.9l-0.9,0.9l-2.6,1.7
				l-2.6,1.7h-0.9l-0.9,0.9v0.9h-0.9H255l-0.9,0.9l-0.9,0.9l-1.7,0.9l-0.9,0.9v0.9h-0.9h-0.9v0.9H248l-0.9,1.7l-1.7,0.9l-0.9,0.9
				h-0.9l-0.9,0.9l-0.9,0.9v0.9h-1.7h-0.9l-0.9,0.9v0.9h-1.7l-0.9,0.9l-1.7,0.9l-0.9,0.9l-1.7,0.9l-0.9,0.9h-0.9v0.9H229h-1.7
				l-0.9,0.9v1.7h1.7v-0.9h0.9l2.6-0.9h0.9l2.6,0.9v-0.9h1.7l2.6-0.9l0.9-0.9h0.9v-0.9h2.6l2.6-0.9h0.9v-0.9h0.9h0.9v-0.9h0.9
				l0.9-0.9h0.9v-0.9h0.9h0.9v-0.9h1.7l1.7-0.9l1.7-0.9l0.9-0.9l0.9-0.9l0.9-0.9l0.9-0.9l0.9-0.9h0.9v-0.9h0.9l0.9-0.9l0.9-0.9h0.9
				h0.9l-0.9,0.9l-1.7,0.9l-0.9,0.9l-0.9,0.9h-0.9l-0.9,0.9v0.9H261l-0.9,0.9l-0.9,0.9l-0.9,0.9h-0.9v0.9h-1.7l-0.9,0.9h-0.9
				l-0.9,0.9l-0.9,0.9l-1.7,0.9v0.9h-0.9l-0.9,0.9H248v0.9h-0.9l-1.7,0.9l-0.9,0.9h-0.9l-1.7,0.9l-0.9,0.9v0.9h-0.9h-0.9l-0.9,0.9
				v0.9h-0.9h-1.7v0.9h-0.9h-0.9l-0.9,0.9v0.9h-0.9h-0.9l-0.9,0.9v0.9l-0.9,0.9H229l-1.7,0.9l-1.7,0.9l-0.9,0.9v0.9l1.7,0.9h-0.9
				h-0.9v0.9h-0.9H223v0.9h-1.7l-0.9,0.9h-1.7l-2.6,0.9h-0.9h-1.7l-0.9,0.9v0.9l1.7,0.9h0.9h0.9h1.7v-0.9h0.9h0.9V350h1.7h0.9v-0.9
				h0.9h1.7v-0.9h0.9h0.9v-0.8h0.9h0.9l4.3-0.9v-0.9h0.9l0.9-0.9h0.9v-0.9h1.7l0.9-0.9v1.7h-0.9h-0.9l-0.9,0.9l-1.7,0.9l-1.7,0.9
				l-1.7,0.9l-0.9,0.9v0.9h1.7l2.6-0.9l0.9-0.9l1.7-0.9v-0.9h0.9h1.7l1.7-0.9v-0.9h1.7l1.7-0.9l2.6-0.9h0.9v-0.9h0.9h0.9v-0.9h0.9
				h0.9l0.9-0.9v-0.9h1.7l0.9-0.9l0.9-0.9h0.9V337h1.7h0.9l0.9-0.9v-0.9h0.9h0.9v-0.9h1.7l1.7-0.9l0.9-0.9l0.9-0.9l0.9-0.9l0,1.7
				l-1.7,0.9l-0.9,0.9v0.9h-0.9h-0.9v0.9h-0.9H261v0.9h-0.9l-0.9,0.9l-1.7,0.9l-0.9,0.9h-0.9v0.9H255h-0.9v0.9h-0.9l-0.9,0.9h-0.9
				v0.9h-0.9h-0.9v0.9h-0.9H248v0.9h-0.9h-0.9v0.9h-0.9l-0.9,0.9h-0.9v0.9H242l-0.9,0.9h-0.9l-2.6,0.9L236,350l-1.7,0.9l-1.7,0.9
				l3.5,0.9l0.9-0.9l2.6-0.9l2.6-0.9v-0.9h1.7l0.9-0.9h0.9v-0.9h0.9h0.9v-0.9h0.9h0.9v-0.9h1.7l1.7-0.9l0.9-0.9h0.9v-0.9h1.7h0.9
				l0.9-0.9v-0.9h0.9l0.9-0.9h0.9v-0.9h0.9l0.9-0.9h0.9v-0.9h0.9l1.7-0.9h0.9l0.9-0.9v-0.9h0.9l0.9-0.9h1.7v-0.9h0.9l0.9-0.9
				l0.9-0.9l1.7-0.9l0.9-0.9l1.7-0.9l0.9-0.9l0.9-0.9l0.9-0.9l0.9-0.9l0.9-0.9l0.9-0.9h0.9l-0.9,2.6l1.9,0.1l-1,0.7v0.9h1.7v-2.6
				h1.7v-0.9h0.9l0.9-0.9h0.9v-1.7h1.7v-0.9h0.9v-1.7h0.9l0.9-0.9l2.6-0.9l0.9-0.9l0.9-0.9v-0.9l0.9-0.9h0.9l0.9-0.9l0.9-0.9
				l0.9-0.9h1.7l-0.9,0.9h-0.9l-0.9,0.9v0.9l-1.7,0.9H299v0.9l-0.9,0.9l-0.9,0.9l-0.9,0.9l-0.9,0.9l-0.9,0.9l-0.9,0.9l-0.9,0.9
				l-0.9,0.9l-0.9,0.9l-0.9,0.9h-0.9l-0.9,0.9l-0.9,0.9l-0.9,0.9v0.9h-0.9l-0.9,0.9l-0.9,0.9h-0.9v0.9h-0.9v-0.9v-0.9h-0.9v-1.7H280
				l-0.9,0.9l-0.9,0.9l-0.9,0.9v0.9l2.6-0.9v0.9l-0.9,0.9h1.7V331h0.9h0.9l-0.9,0.9l-0.9,0.9v0.9H280v1.7h0.9l0.9-0.9v-0.9h0.9
				l0.9-0.9l1.7-0.9l0.9-0.9l0.9-0.9h0.9l1.7-2.6h0.9l-1.7,2.6l-1.7,0.9l-0.9,0.9l-0.9,0.9l-0.9,0.9l-1.7,0.9l-0.9,0.9l-0.9,0.9H280
				v0.9h-0.9l-0.9,0.9v0.9h-0.9l-0.9,0.9l-3.5,0.9v0.9l0.9,0.9h-2.6v1.7h-1.7l-1.7,0.9l-0.9,0.9v0.9h-0.9l-0.9,0.9h-0.9l-1.7,0.9
				l-3.5,0.9l-0.9,0.9l-0.9,0.9l-0.9,0.9l-0.9,0.9v0.9H255h-0.9v0.9h-0.9h-0.9v0.9h-0.9l-1.7,0.9h-0.9v0.9h-0.9h-0.9v0.9h-1.7
				l-0.9,0.9h-0.9l-1.7,0.9v0.9h-0.9l-1.7,0.9h-0.9l-1.7,0.9l-2.6,0.9l3.5,0.9l0.9-0.9h3.5l1.7-0.9h1.7v-0.9h0.9l1.7-0.9l1.7-0.9
				l1.7-0.9h0.9v-0.9h0.9h0.9v-0.9h0.9h0.9V356h1.7l1.7-0.9l0.9-0.9l1.7-0.9l0.9-0.9h4.3l0.9-0.9l0.9-1.7l0.9-0.9v-0.9h0.9l0.9-0.9
				h0.9l-0.9,1.7l1.7-0.9h0.9l0.9-0.9h0.9l0.9-0.9h0.9h0.9l-0.9,0.9l-0.9,0.9h-0.9l-0.9,0.9H274l-0.9,0.9h-0.9l-0.9,0.9l-0.9,0.9
				h-1.7l-0.9,0.9v0.9h-1.7l-0.9,0.9h-0.9v0.9h-0.9L261,356l-1.7,0.9l-1.7,0.9h-0.9l-0.9,0.9v0.9h-1.7l-1.7,0.9h-0.9v0.9h-0.9
				l-1.7,0.9h-2.6v0.9h-3.5l-1.7,0.9h-0.9v0.9h-0.9h-0.9v0.9h-1.7H236v0.9h-1.7h-0.9v0.9h-1.7l-3.5,0.9l-3.5,0.9h-0.9v0.9H223h-1.7
				v1.7h4.3v-0.9h2.6h0.9v-0.9h4.3l3.5-0.9l3.5-0.9l1.7-0.9v0.9h0.9v-0.9h1.7l2.6-0.9h0.9l0.9-0.9v-0.9h2.6l0.9-0.9h0.9V363h3.5
				v-0.9h0.9v-0.9h4.3l0.9-1.7l1.7-0.9h0.9v-0.9h1.7l2.6-0.9l3.5-0.9h1.7l0.9-0.9l0.9-0.9l0.9-1.7v-0.9h0.9h0.9v-0.9h2.6l0.9-0.9
				h1.7l0.9-3.5l2.6-0.9l0-1.9l1.7,1h0.9l0.9-0.9v-0.9h1.7l0.9-0.9l0.9-0.9l0.9-0.9h0.9v-0.9h0.9l0.9-0.9h0.9l0.9-0.9V337H299
				l0.9-1.7h0.9v-0.9h0.9l1.7,0.9h0.9l0.9-0.9l0.9-0.9l0.9-0.9l0.1-1.9l0.7,1h0.9l0.9-2.6l2.6-0.9l0.9-1.7l0.9-0.9l0.9-0.9l0.9-0.9
				l1.7-0.9l0.9-0.9v-1.7l-1.9,1l-0.7-0.9l1.7-0.9l0.9-0.9l0.9-0.9l0.9-0.9l0.9-0.9l0.9-0.9l0.9-0.9v-0.9l0.9-0.9h0.9l0.9-0.9
				l0.9-0.9l0.9-0.9l0.9-0.9l0.9-1.7l0.9-0.9v-0.9l0.9-0.9h0.9v-0.9v-1.7h0.9l0.9-0.9v-0.9l0.9-0.9V299h0.9l0.9-0.9l0.9-0.9l0.9-0.9
				v-0.9v-0.9h0.9l0.9-2.6l0.9-0.9v-0.9l0.9-0.9l0.9-1.7l0.9-0.9V286h0.9v-0.9v-0.9h0.9v-0.9v-2.6h1.7v-2.6v-0.9v-0.9v-0.9v-0.9h1.7
				l0.9-0.9v-0.9l0.9-0.9l0.9-0.9l0.9-2.6l0.9-2.6l0.9-2.6l0.9-1.7v-1.7h0.9v-1.7v-0.9h0.9l0.9-0.9l0.9-3.5l0.9-3.5v-2.6h-1.7v-0.9
				h0.9v-2.6v-2.6h0.9v-1.7v-2.6h0.9v-1.7l0.9-1.7v-2.6h0.9v-0.9v-1.7h0.9v-1.7l0.9-1.7v-2.6h0.9v-0.9v-4.3h0.9v-0.9H363v-0.9h0.9
				v-2.6l0.9-3.5v-6.9h0.9v-1.7h-0.9v-14.7l-0.9-1.7l-0.9-0.9h0.9v-0.9H363v-11.2c-1.6,0-0.9-5.3-0.9-6.9l-0.9-5.2v-0.9h-0.9v-1.7
				v-1.7h-0.9v-2.6v-2.6h-0.9v-2.6v-1.7h-0.9v-2.6l-0.9-4.3l-0.9-0.9v-2.6h-0.9v-1.7l-0.9-1.7v-0.9h-0.9v-2.6l-0.9-1.7v-1.7h-0.9
				v-1.7l-0.9-1.7l-0.9-0.9v-0.9l-0.9-1.7v-1.7l-0.9-0.9l-0.9-0.9v-0.9l-0.9-0.9v-0.9l-0.9-0.9v-0.9l-0.9-0.9v-2.6l-0.9-0.9
				l-0.9-1.7l-1.7-0.9l0-1.7v-0.9l-0.9-1.7l-0.9-0.9l-0.9-0.9v-0.9l-0.9-0.9v-0.9l-0.9-0.9v-0.9l-2.6-2.6v-1.7l-0.9-0.9l-0.9-0.9
				l-0.9-0.9l-0.9-0.9v-0.9l-0.9-0.9v-0.9l-0.9-0.9l-1-0.7l-0.7-1v-0.9l-1-0.7l-0.7-1V76l-0.9-0.9l-0.9-0.9v-0.9l-0.9-0.9l-0.9-0.9
				l-0.9-0.9l-0.9-0.9l-0.9-0.9l-0.9-0.9l-0.9-0.9l-0.9-0.9c-2.7-1.8-6.6-4.5-6.9-8.6l-2.5,1l-0.9-1.9l-0.9-0.9l-0.9-0.9h-0.9h-2.6
				l-1.7-0.9l-0.9-0.9l-0.9-0.9l-1.7-0.9l-0.9-1.7h-0.9V51l0.9,0.9h0.9v0.9h1.7l0.9,0.9l0.9,0.9v1.7l3,3.2l-0.8,0.7l-4.2-3.6
				l-1.4,0.6l-0.9-0.9l-2.6-0.9l-0.9-1.7h-1.7l-4.3-1.7l-0.9-0.9h-0.9l-0.9-0.9l-0.9-0.9h-1.7l-1-0.7l-0.7-1l-0.9-0.9h-0.9l-0.9-0.9
				h-1.7l-0.9-0.9l-0.9-0.9h-0.9l-0.9-0.9h-1.7h-0.9l-2.7-0.4l-0.9,0.2l1.9,1.9l0.9,0.9h0.9h1.7l0.9,1.7l0.9,0.9l0.9,0.9h2.6
				l0.9,0.9l0.9,0.9h0.9l1,0.7l0.7,1l0.9,0.9l1.7,0.9l0.9,0.9l1.7,0.9l0.9,0.9v1.7h1.7l2.6,2.6h0.9l2.6,2.6l0.9,0.9v1.7l1.7,1.7
				l0.9,0.9l2.6,2.6l0.9,1.7l0.9,0.9l0.9,0.9l0.9,0.9l0.9,0.9l0.9,1.7c2.7,1.8,3.5,2.4,4.3,6v0.9l0.9,0.9l2.6,3.5v0.9l0.9,0.9
				l0.9,1.7l0.9,0.9v0.9l0.9,0.9l0.9,1.7l0.9,0.9v0.9l0.9,0.9v0.9l1,2.5l-1.9-2.5l-0.9-1.7l-0.9-1.7l-0.9-1.7l-0.9-0.9v-0.9
				l-1.7-2.6l-0.9-0.9l-0.9-0.9V89h-0.9l-0.9,0.9l-0.9-0.9v-0.9l-5.2-5.2v-0.9l-0.9-0.9l-0.9-0.9l-0.9-0.9l-0.9-0.9l-0.9-0.9
				l-0.9-0.9l-0.9-0.9l-0.9-0.9l-0.9-0.9l-0.9-0.9l-0.9-0.9l-0.9-0.9l-0.9-0.9l-0.9-0.9h-1.7l-0.9-1.7h-0.9l-4.3-3.5l-0.9-0.9
				l-0.9-0.9h-0.9l-2.6-2.6h-0.9h-1.7l-1.7-2.6h-0.9l-3.5-2.6h-1.7l-3.5-3.5l-0.9-0.9l-2.6-0.9h-0.9l-2.6-1.7h-0.9l-0.9-0.9
				l-0.9-0.9l-1.7-0.9h-1.7l-0.9-0.9l-1.7-0.9h-1.7l-3.5-1.7h-0.9l-0.9-0.9l-1.7-0.9h-0.9l-0.9-0.9h-1.7h-2.6l-3.5-2.6h-3.5
				l-0.9-0.9H223h-1.7l-3.5-1.7h-0.9l-0.9-0.9h-3.5v-0.9L210,32h-2.6h-2.6v-0.9h-2.6h-1.7v-0.9h-0.9v0.9h-3.5v-0.9h-9.5H178h-0.9
				v0.9h-7.8h-0.9V32h-1.7h-1.7h-0.9l-1.7,0.9h-1.7v0.9h-0.9h-1.7l-1.7,0.9v0.9v0.9v0.9h-0.9h-0.9V38h-2.6l-0.9,0.9h-0.9v1.7
				l0.9-0.9l2.7,0.4l-1.9,0.5l-0.9,0.9h-1.7h-0.9v0.9h-0.9h-0.9l-1.7,0.9v0.9h-0.9h-1.7l-1.7,0.9v0.9H140h-2.6v0.9h-0.9l-1.7,0.9
				l-0.9,0.9h-0.9v-0.9h-0.9l-0.9,0.9v0.9h-1.7l-0.9,0.9h-0.9V51h-1.7l-2.6,0.9h-0.9v0.9h-0.9h-1.7l-0.9,0.9v0.9h-1.7h-0.9v0.9h-0.9
				h-0.9v0.9h-0.9h-0.9V57h-0.9h-0.9v0.9h-0.9h-0.9l-0.9,0.9v0.9H108h-0.9v0.9h-0.9l-0.9,0.9v-0.9l-1.7,0l-0.9,1.7H102l-3.5,2.6v0.9
				h-0.9v-1.7l1.6-0.1l1.9-2.5h-1.7l-0.9,0.9l-0.9,0.9v0.9h-0.9l-0.9,0.9l1.7,0.9l-0.9,0.9l-0.9,0.9l-0.9,0.9h-0.9l-2.7,2.7L89.9,70
				L89,70.9l-1.7,0.9l0,1.7l2.6-0.8L89,73.5l-0.9,0.9h-0.9l-1.7-0.9v0.9H83l-0.9,2.6l-0.9,0.9l-0.9,0.9l-0.9,0.9l-0.9,0.9l-0.9,0.9
				v0.9V83h-0.9L76,83.8l-0.9,0.9v0.9l-0.9,0.9l-0.9,0.9l-0.9,0.9v-2.6h-0.9l-0.9,0.9v1.7h1.7L71.7,89v0.9h-0.9v0.9L70,91.6v0.9
				h-0.9v0.9v0.9h-0.9h-1.7v0.9h-0.9l-0.9,2.6v1.7h0.9h0.9l0.9-1.7v-0.9h0.9l0.9-0.9l0.7-1l1-0.7v-0.9l0.9-0.9v-1.7h0.9l0.9-0.9
				l0.9-0.9l0.9-0.9l0.9-0.9h0.9l0.9-1.7l0.9-0.9l0.9-0.9v0.9l-0.9,0.9v0.9l-0.9,1.7L76.9,89v0.9H76l-0.9,0.9h-0.9l-1.7,2.6
				l-0.9,0.9L70,95.9l-0.9,0.9v1.7h-0.9l-0.9,0.9v0.9h-0.9v1.7h-0.9v0.9v0.9h-0.9l-0.9,0.9l-0.9,0.9v0.9v2.6h-0.9l-0.9,1.7v1.7h-1.7
				v1.7l-0.9,0.9v2.6h-0.9l-0.9,1.7v1.7h-0.9v0.9l-0.9,0.9l-0.9,0.9l-0.9,1.7v1.7v0.9l0.8,0.4l2.7-0.4c-0.6,1.1-0.9,0.9-0.9,2.6
				c0,3.6,0.1,1.8-0.9,2.6v1.7l1.4-0.2l3.9-5.8l-0.9,3.2l4.3,1.1v-2.6h1.7l0.1-6.2l2.5,1v-1.7h-1.7v-1.7l0.9-0.9l-0.9,0.9h-0.9v0.9
				h-0.9l0.9-1.7l0.9-1.7l0.9-0.9v-0.9l0.9-0.9l0.9-0.9v-0.9l0.9-0.9l0.9-1.7l1-2.7l0.7,1l0.9,1.7h0.9l0.9-0.9l1.7-2.6l0.9-1.7h0.9
				l-0.9,1.7l3.6-3.6l0.7,1l-1,0.1l0.9,0.4l2.7-1.4l-1.2-2.7l-0.6,2l-0.7-1h-0.9v-0.9l0.9-2.6v-0.9l0.9-0.9l0.9-0.9l0.9-0.9l0.9-1.7
				l0.9-0.9l0.9-0.9l0.9-0.9l0.9-0.9l0.9-0.9l0.9-1.7l0.9-0.9l0.9-0.9l0.9-0.9l0.9-0.9l0.9-0.9l0.9-0.9l0.9-0.9l0.9-0.9l0.9-0.9
				l0.9-0.9l0.9-0.9l0.9-0.9l0.9-0.9l0.9-0.9l0.9-0.9l0.9-0.9l0.9-1.7l0.9-0.9l0.9-0.9l0.9-0.9l0.9-0.9l0.9-0.9l0.9-0.9l0.9-0.9h0.9
				l0.9-0.9l1.7-0.9v-0.9h0.9l0.9-0.9h0.9v-0.9h0.9h0.9v-0.9h0.9h0.9v-0.9h1.7l0.9-0.9h0.9l0.9-0.9v-0.9h1.7h0.9v-0.9h0.9h0.9V57
				v-0.9h2.6v-0.9h0.9h0.9l1.7-0.9l0.9-0.9v-0.9h0.9h0.9v-0.9h1.7l0.9-0.9h0.9v-0.9h0.9h0.9l4.3-1.7h0.9h0.9l2.6-0.9v-0.9h1.7
				l0.9-0.9v0.9v0.9H153l-1.7,0.9h-0.9l-2.6,1.7V51v0.9v0.9l0.9-0.9h1.7l-0.9,0.9l-0.7,0.7l0.7,1h0.9v-0.9h0.9h0.9v-0.9h1.7l1.7-0.9
				h0.9V51h1.7l0.9,0.9h-1.7l-0.9,0.9h-0.9v0.9h-1.7l-1.7,0.9h-0.9v0.9h-2.6h-1.7v0.9h-1.7h-0.9V57h-1.7l-0.9,0.9h-0.9l-0.9,1.7
				l-3.5,0.9l-0.9,0.9l-0.9,0.9l-1.7,0.9l-0.9,0.9l-1.7,0.9l-0.9,0.9l-0.9,0.9l-0.9,0.9v0.9h1.7l1.7-0.9l1.7-0.9v-1.7h1.7l1.7-0.9
				l0-1.9l1.7,1h1.7l1.7-0.9v-0.9h0.9h1.7l2.6-0.9l0.9-0.9l0.9-0.9h1.7l0.9-0.9v1.7h-1.7v0.9l0.9,0.9h-0.9l-0.9,0.9v0.9l0.9,0.9
				l-1.7-0.9h-0.9l-0.9,0.9v0.9h-0.9l-0.9,0.9l-0.9,0.9l-1.7,0.9v1.7h0.9l1.7-0.9l0.9-0.9l1.7-0.9l0.9-0.9h0.9l0.9-0.9h1.7h1.7h1.7
				v-0.9l0.9,0.9h0.9v-0.9h1.7h0.9v-0.9l0.9-0.9l2.6,0.9l0.9-0.9v-0.9h1.7h0.9v-0.9h3.5h0.9l1.7-0.9v-0.9h1.7l2.7,0.1l-1,0.7v0.9
				h-0.9h-1.7v0.9h-3.5l-1.7,0.9v-0.9h-0.9l-2.6,0.9v1.7h-1.7l-0.9,0.9h-0.9h-0.9v0.9h-1.7h-0.9v0.9h-0.9h-0.9l-0.9,0.9v0.9
				l-3.5,0.9h-0.9l-0.9,0.9v0.9l-1.7,0.9l-0.9,0.9H146v0.9h-0.9h-0.9v0.9h-1.7l-0.9,0.9H140V76l-1.7,0.9l-1.7,0.9h-0.9l-0.9,0.9v0.9
				h-0.9h-0.9v0.9h-1.7l-0.9,0.9l-1,1l-0.7-0.9l1.7-0.9l1.7-0.9l0.9-0.9v-0.9h-1.7l-1.7,0.9l-0.9,0.9l-1.7,0.9v0.9h-0.9l-0.9,0.9
				h-0.9l-0.9,0.9l-0.9,0.9v0.9H121l-0.9,0.9h-0.9v0.9h-0.9l-1.7,0.9l-0.9,0.9l-0.9,0.9h-0.9v0.9h-0.9l-0.9,0.9l-0.9,0.9l-0.9,0.9
				h-0.9v0.9l-1.7,0.9l-0.9,0.9l-0.9,0.9l-0.9,0.9l-0.9,0.9l-0.9,0.9l-0.9,0.9l-0.9,0.9l-0.9,0.9l-0.9,0.9l-0.9,0.9l-0.9,1.7h-0.9
				v0.9l-0.9,0.9v0.9h-0.9l-0.9,0.9v0.9l-0.9,0.9l-0.9,0.9v0.9h-0.9v0.9l-0.9,0.9l-0.9,0.9l-0.9,1.7l-0.9,0.9l-0.9,1.7l-0.9,0.9
				l-0.9,0.9l-0.9,1.7l-0.9,1.7v0.9h-0.9v0.9L83,127l-0.9,1.7l-0.9,1.7v1.7h-0.9v0.9l-0.9,3.5l-0.9,0.9l-0.9,2.6l-0.9,1.7v7.8H76
				v0.9v2.6l-0.9,0.9l-0.9,1.7V153v-0.9v-0.9h-0.9l-0.9,3.5v1.7l0.9,3.5h1.7v-1.7H76v-0.9l0.9-1.7l0.9-1.7v-2.6l0.9-1.7l0.9-3.5
				v-1.7h0.9l0.9-0.9l0.9-0.9v-0.9L83,140l0.9-1.7v-0.9v-0.9v-2.6h1.7l0.9-1.7l0.9-2.6l0.9-0.9v-0.9l-0.9-1.7l0.9-1.7v1.7H89
				l0.9-0.9l0.9-0.9v-2.6l-0.9-0.9l1.7-0.9l0.9-0.9v-1.7l0.9-0.9l0.9-1.7v-1.7l0.9,0.9h0.9v0.9h0.9v-0.9h0.9v-0.9l0.9-0.9l0.9-1.7
				l0.9-0.9l0.9-0.9v-1.7h1.7l0.9-0.9l0.9-1.7l0.9-0.9l0.9-0.9l0.9-0.9l0.9-0.9l1.7-0.9h0.9v-0.9l0.9-0.9l0.9-0.9l0.9-0.9l0.9-0.9
				l0.9-0.9l1.7-0.9h0.9v-0.9l0.9-0.9l0.9-0.9v-0.9v-0.9l0.9-1.7v1.7v0.9h1.7l0.9-0.9L122.7,89L122.7,89z M89,122.7V121h0.9
				l-0.1,2.7L89,122.7L89,122.7z M121.9,87.3l0.9-0.9l1-0.8l-1,1.7l-0.9,0.9V87.3L121.9,87.3z M78.6,106.3l0.9-0.9v-0.9h0.9v-0.9
				h0.9l-0.9,1.7l-0.9,0.9l-0.9,0.9V106.3L78.6,106.3z M79.5,102.8l-0.9,0.9v-0.9l0.9-0.9V102.8L79.5,102.8z M127.9,55.3v-0.9
				l-2.6,0.9v0.9L127.9,55.3L127.9,55.3z M135.7,49.3h0.9l0.9,0.9h-1.7V49.3L135.7,49.3z M87.3,74.3l-0.9,0.9L85.6,76l-0.9,0.9
				l0.9-1.7v-0.9H87.3L87.3,74.3z M84.7,76.9v0.9l-1.9,1.9l-0.6-0.9L84.7,76.9L84.7,76.9z M83.8,101.1H83l-0.9,1.7l1.5-0.5l2.8,1.4
				l0-1.6L83.8,101.1L83.8,101.1z M76.9,110.6l0.9-0.9h-0.9V110.6l-0.9,0.9L76.9,110.6L76.9,110.6z M71.7,113.2l-0.9,0.9L71.7,113.2
				L71.7,113.2z M64,124.4v0.9l1-1.7L64,124.4L64,124.4z M3.9,160.6l-0.6,1.8L3.9,160.6L3.9,160.6z M22.5,276.5h-0.9v-0.9
				L22.5,276.5L22.5,276.5z M20.7,274.8l-0.9-0.9v-0.9l1,0.7l0.7,1L20.7,274.8L20.7,274.8z M89.9,265.3H89v-0.9L89.9,265.3
				L89.9,265.3z M96.8,264.4l-0.9-0.9h0.9V264.4L96.8,264.4z M87.3,264.4h-0.9v-0.9L87.3,264.4L87.3,264.4z M76.9,261.8L76,261
				l-1.7-0.9l-0.9-0.9l-0.9-1.7l-0.9-0.9l-0.9-1.7l-0.9-0.9l-0.9-0.9l-0.9-0.9v-0.9l1.9,1.6l0.8-0.5l-1-1h0.9l0.9,0.9l0.9,1.7h0.9
				v0.9l0.9,0.9l0.9,1.7l0.9,0.9l0.9,0.9l0.9,0.9l0.9,0.9v1.7h-0.9h-0.9V261.8L76.9,261.8z M72.6,262.7l-0.9-0.9h0.9V262.7
				L72.6,262.7z M97.7,261.8h1.7V261l-0.9-0.9h-0.9v-1.7l-1.7-0.9l-0.9-0.9l-0.9-0.9l-0.9-0.9l-0.9-0.9l-1.7,0.9l0.9,0.9l0.9,0.9
				l0.9,0.9l0.9,0.9l0.9,0.9l0.9,0.9h0.9v0.9L97.7,261.8L97.7,261.8z M89,256.7l-0.9-0.9H89V256.7L89,256.7z M94.2,262.7h-1.7
				l-5.2-6.1l1.7,0.9h0.9h0.9l0.9,2.6l0.9,0.9L94.2,262.7L94.2,262.7z M95.1,261v0.9l-0.9-0.9H95.1L95.1,261z M83.8,261.8L83,261
				v-0.9l1,0.7l0.7,1H83.8L83.8,261.8z M81.2,260.1l-0.9-0.9v-0.9l1,0.7l0.7,1H81.2L81.2,260.1z M71.7,260.1l-0.9-0.9h0.9V260.1
				L71.7,260.1z M69.1,259.3l-0.7,1l-1.9-2.7h0.9l0.9,0.9L69.1,259.3L69.1,259.3z M86.4,250.6l-0.9-0.9v-0.9l2.6,1.7H89l0.9,0.9
				l0.9,0.9l-0.9,1.7l-0.9-0.9l-0.9-0.9l-0.9-0.9L86.4,250.6L86.4,250.6z M88.1,248.9v0.9l-0.9-0.9H88.1L88.1,248.9z M78.6,256.7
				l-0.9-0.9v-0.9l2.6,2.6h-0.9L78.6,256.7L78.6,256.7z M68.3,257.5v-1.7h0.9l0.9,0.9v0.9h-0.9L68.3,257.5L68.3,257.5z M92.5,252.3
				h-0.9l-0.9-0.9l-0.9-0.9v-1.7h1.7l0.9,1.7h0.9L92.5,252.3L92.5,252.3z M94.2,252.3l-0.9,0.9L94.2,252.3L94.2,252.3z M95.9,254.1
				l-1.7,1l0.8-1.9L95.9,254.1L95.9,254.1z M96.8,254.9l-0.9,0.9L96.8,254.9L96.8,254.9z M97.7,256.7h-0.9l0.9-0.9V256.7L97.7,256.7
				z M65.7,254.9l-0.9-0.9h0.9V254.9L65.7,254.9z M84.7,253.2v-1.7h0.9L84.7,253.2L84.7,253.2z M86.4,253.2l-0.9,0.9L86.4,253.2
				L86.4,253.2z M88.1,254.9h-1.7l1.7-0.9V254.9L88.1,254.9z M67.4,254.1h-0.9v-0.9h0.9V254.1L67.4,254.1z M11.2,254.1h-0.9v-0.9
				L11.2,254.1L11.2,254.1z M64,248v1.7h-0.9l-0.9-0.9v0.9l-0.9-0.9h0.9V248h-0.9v-0.9h0.9v-1.7h-0.9v-0.9h0.9h0.9l0.9,0.9v0.9
				l0.9-0.9l1.7,2.6v2.6v1.7h-0.9h-0.9l-2.6-1.7h2.6L64,248L64,248z M10.4,251.5H9.5v-0.9L10.4,251.5L10.4,251.5z M71.7,250.6h-0.9
				v-0.9h0.9V250.6L71.7,250.6z M83.8,249.7v-0.9l0.9-0.9v1.7L83.8,249.7L83.8,249.7z M9.5,249.7H8.6v-0.9L9.5,249.7L9.5,249.7z
				 M81.2,248l-1.9-1.5l-0.9,0.5l1.9,1l0.9,0.9v0.9c-2.4-1.6-3.2-1.6-3.5-5.2l5.2,4.3h-0.9L81.2,248L81.2,248z M69.6,247.6
				c0,0-0.6-0.3-0.5-0.5L69.6,247.6L69.6,247.6z M69.1,248.9l-1-0.7l1-1.9H70l0.9,0.9v1.7H69.1L69.1,248.9z M13,246.3v-0.9v-0.9h0.9
				l0.9,2.6h-0.9L13,246.3L13,246.3z M88.1,247.2l-0.9-0.9v-0.9l-0.9-0.9l-0.9-0.9l-1.7-2.6l-1.7-2.6l-0.9-0.9v-1.7v-0.9h0.9
				l0.9,0.9l0.9,0.9l0.9,1.7l0.9,1.7l0.9,0.9l0.9,1.7l0.9,0.9v1.7H89v1.7L88.1,247.2L88.1,247.2z M83.8,242l0.9,2.6l-0.9-0.9h-0.4
				L82,243l1-1H83.8L83.8,242z M87.3,248l-4.3-3.5l2.6,0.9l0.9,0.9l0.9,0.9V248L87.3,248z M83,241.1l-0.9-0.9L83,241.1L83,241.1z
				 M71.7,246.3h-0.9v-0.9L71.7,246.3L71.7,246.3z M67.4,242.8l0.9-1.7l1.7,1.7l-1.7,1.7l-0.9-0.9V242.8L67.4,242.8z M70,245.4h-0.9
				H70L70,245.4z M70,243.7l0.9,0.9L70,243.7L70,243.7z M60.5,242l-0.9-2.6v-0.9l5.2,6H64l-0.9-0.9h-0.9h-0.9L60.5,242L60.5,242z
				 M12.1,242.8L13,242l0.9,1.7H13L12.1,242.8L12.1,242.8z M13,240.2l-0.9-0.9L13,240.2L13,240.2z M12.1,241.1l-0.9-0.9L12.1,241.1
				L12.1,241.1z M9.5,237.6l-0.9-1.7h0.9V237.6L9.5,237.6z M57.9,235.9l-1-1.7l1.9,0.8L57.9,235.9L57.9,235.9z M10.4,233.3v-1.7
				l0.9,1.7H10.4L10.4,233.3z M76,232.5l-0.9-0.9H76V232.5L76,232.5z M10.4,229.9H9.5V229L10.4,229.9L10.4,229.9z M1.7,227.3V223
				l1,3.4l1.6,0v2.6l-1.7,1.7L1.7,227.3L1.7,227.3z M3.5,234.2v-3.5l1,1.7l0.7-0.8l1,2.6l-1.9,0H3.5L3.5,234.2z M4.3,229.9l0.9,0.9
				L4.3,229.9L4.3,229.9z M9.5,228.1H8.6v-0.9L9.5,228.1L9.5,228.1z M6.9,228.1L6,227.3h0.9V228.1L6.9,228.1z M8.6,225.6H7.8v-0.9
				L8.6,225.6L8.6,225.6z M71.7,224.7l-0.9-0.9h0.9V224.7L71.7,224.7z M6,223.8L5.2,223H6V223.8L6,223.8z M7.8,222.1H6.9v-0.9
				L7.8,222.1L7.8,222.1z M0.9,221.2v-3.5l0.9,3.5H0.9L0.9,221.2z M70,220.4l-0.9-0.9H70V220.4L70,220.4z M5.2,220.4l-0.9-1.7h0.9
				V220.4L5.2,220.4z M69.1,218.6l-0.9-0.9h0.9V218.6L69.1,218.6z M71.7,210l0.9,0.9v0.9l-0.9,2.6h-0.9l-0.9-0.9v-0.9l-1.4-3.6
				c-0.1,1.2,1.6,5.4-0.4,5.4v-1.7l-0.9-1.7l0.1-2.6l0.9-1.7l1,0.7l0.9-0.6l-1-1.9H70l0.9,1.7l0.9,0.9V210L71.7,210z M69.1,216.9
				l0.9-2.6l0.9,1.7l-0.9,1.7L69.1,216.9L69.1,216.9z M70.9,220.4l0.9-2.6v2.6H70.9L70.9,220.4z M67.4,212.6l-0.9-0.9L67.4,212.6
				L67.4,212.6z M72.6,216.9h-0.9V216h0.9V216.9L72.6,216.9z M4.3,216.9l-0.9-1.7l0.1-4.4h0.9v5.2h0.9v-2.6l1.7,4.3H6L4.3,216.9
				L4.3,216.9z M66.5,210.9l-0.9-3.5h0.9V210.9L66.5,210.9z M3.5,209.1l-0.9-0.9h0.9V209.1L3.5,209.1z M4.3,181.5
				c0-1.9-0.7-10.4,0.9-10.4v9.5l1.7-0.9l1.7,1.1l0,3.3l4.5,2.3l-3.6,0.3l0.8,2.6l-1.9,1.5c1.3,2.5,1-0.5,1,2.8
				c0,0.4-0.5,1.5-0.6,1.2c0-0.2-0.1,0.7-0.3,0.6l-1-0.7l1.1-1.8L7.7,191l1.1-4.3l-1.9,0l0.8,2.6l-2.5,0l1.7,1L6,191.8l1,1.7
				l-0.4,2.6H5.2v6c0,3.4,1.7,0.5,1.7,5.2H6v-2.6H5.2v5.2H4.3v-15.6H3.5v-4.3h0.9V181.5L4.3,181.5z M65.7,201.4l-0.9-0.9h0.9V201.4
				L65.7,201.4z M64.8,198.8l-0.9-0.9h0.9V198.8L64.8,198.8z M68.3,196.2l-0.9-2.6h0.9V196.2L68.3,196.2z M21.6,191.8v1.7V191.8
				L21.6,191.8z M19.2,194.5l0.8-4.3c2,0.2,4.1,1.6,4.1,3.4c0,1.2-1.2,1.7-2.6,1.7C19.9,195.3,20.1,195,19.2,194.5L19.2,194.5z
				 M1.7,191.8l-0.9-4.3h0.9V191.8L1.7,191.8z M69.1,189.3v-2.6H70l0.9,1.7v0.9H69.1L69.1,189.3z M4.3,168.5v2.6H3.5v-2.6H4.3
				L4.3,168.5z M2.6,172v-0.9l0.9,0.9H2.6L2.6,172z M0,179.7v-6.9h0.9l0.9,5.2l-0.9,1.7H0L0,179.7z M2.6,181.5v-2.6V181.5L2.6,181.5
				z M0.9,180.6l0.9,1.7H0.9L0,181.5v-0.9H0.9L0.9,180.6z M15.4,175l1.8,0.6L15.4,175L15.4,175z M14.7,171.1c0-1,1.2-2,1.7-2.6
				l-1,3.4l1.8,0l0.9,4.3l-1.9,2.5l-3.3-0.9l-2.5,2l-0.5-3.6l-0.6-1.7l1.8,0v1.7l4.2-2C15,172.1,14.7,173.1,14.7,171.1L14.7,171.1z
				 M44.9,177.2c0.1-2.4,0.6-2.1,2.6-2.6v2.6H44.9L44.9,177.2z M2.6,176.3v-2.6h0.9v2.6L2.6,176.3L2.6,176.3z M66.5,173.7V172h-1.7
				v-4.3h0.9v2.6l0.9-1.7h0.9v5.2L66.5,173.7L66.5,173.7z M6.9,164.2l1.7,1l0,3.3l2.5-1l0.1,2.8c-2.8-0.1-4.3,0.3-4.3-2.6
				c0-1.9,0.6-2.6-0.9-2.6v-0.9L6.9,164.2L6.9,164.2z M44.9,150.3l1-1.6l3.3,1l-0.5,7.5c4.3-2.7,0.3-1.5,4-4.3v1.7l2.6-0.8
				c-0.5,4.1,1.2,1.4-2.6,3.4l1.9,2.5l-1.1,1.8l-1.6,0c-0.3-3.5-0.2-3.6-2.6-2.6l-0.8-2.6l-3.7,3.3l1.9,0.2l-1.1,3.4l1.2-1.6l3.3,0
				l1,2.5l2.4,0.1v1.7H51l-1,3.4l-2.4-1.8l-0.1,3.6l2.5-1c-1.9,2.8,0.6,1.6-3.4,1.9v-2.6h-1.7l1.9-1.5l-2.7-0.2v1.7l-1.7-0.9
				l1.9,4.3l-2,0.1v1.7h-1.7v-1.7l-2.5,1l1.5-2.1l0.2-3.3l2-2.4l1.4-0.2v1.7c2.3-1.1-0.7-0.9,2.6-0.9c0.1,0,1.7,0.9,1.7,0.9l2.6-1
				c-2.4-2-1.8-1.6-6-1.6v-3.5h-1.7l-0.7-3.5c2.1-1.1-0.9-0.8,2.4-0.8h2.6c-1.9-2.8-1.4-0.6-1.7-4.3h3.5v-1.7L44.9,150.3L44.9,150.3
				z M2.6,158.1l0.9-1.7h0.9l0.9,3.5v5.2l-0.9,1.7H3.5v-0.9v-2.6H2.6v4.3l-0.9-5.2L2.6,158.1L2.6,158.1z M0.9,172v-4.3l0.9,4.3H0.9
				L0.9,172z M218.6,372.5v-1.7h1.7v0.9l-0.9,0.9L218.6,372.5L218.6,372.5z M221.2,369h-0.9v-0.9h0.9V369L221.2,369z M231.6,363.8
				l2.6,0.9l-1.7,0.9l-1.7,0.9l-2.6,0.9l-3.5-0.9l1.7-0.9l3.5-0.9L231.6,363.8L231.6,363.8z M222.1,367.3l2.6,0.9h-2.6V367.3
				L222.1,367.3z M235.9,361.2h-0.9v-0.9h0.9V361.2L235.9,361.2z M212.6,360.4l1.7-0.9h0.9v1.7h-2.6V360.4L212.6,360.4z
				 M264.4,360.4h-0.9v-0.9h0.9V360.4L264.4,360.4z M241.1,359.5h-0.9v-0.9h0.9V359.5L241.1,359.5z M216.9,358.6l2.6-0.9h0.9v1.7
				l-2.6,0.9H216v-0.9L216.9,358.6L216.9,358.6z M221.2,356.9l1.7-0.9h0.9v1.7h-2.6V356.9L221.2,356.9z M226.4,356h-0.9v-0.9h0.9
				V356L226.4,356z M262.7,355.2H261v-0.9h1.7V355.2L262.7,355.2z M202.2,355.2v-1.7h1.7l1.7,0.9v0.9L202.2,355.2L202.2,355.2z
				 M214.3,353.4h-1.7v-0.9h1.7V353.4L214.3,353.4z M208.3,351.7l0.9-0.9h1.7v1.7l-1.7,0.9h-0.9V351.7L208.3,351.7z M230.7,352.6
				l1.7,0.9L230.7,352.6L230.7,352.6z M229,353.4l1.7,0.9L229,353.4L229,353.4z M227.3,354.3l1.7,0.9h-1.7V354.3L227.3,354.3z
				 M227.3,350.9h-0.9V350h0.9V350.9L227.3,350.9z M238.5,343.9l0.9-1.7h0.9h0.9v-0.9h0.9h0.9v-0.9l1.9,0.1l-1,0.7l-1.7,0.9
				l-1.7,0.9l-0.9,0.9H238.5L238.5,343.9z M195.3,347.4l-0.9-0.9h0.9V347.4L195.3,347.4z M191,347.4l3.5,0.9l-2.6,0.9h-1.7v-0.9
				L191,347.4L191,347.4z M227.3,343.9c0.2-0.2,0.5,0.5,0.5,0.5C227.7,344.4,227.1,344.1,227.3,343.9L227.3,343.9z M209.1,338.8
				l1.9,1.5l1.5-0.7l1.8,0.1v0.9l-0.9,0.9l-2.6,0.9h-1.7v0.9h-0.9h-1.7v0.9l-2.6,0.9l-1.7,0.9l-2.6,0.9l-2.6-0.9l1.7-0.9l1.7-0.9
				l1.7-0.9l2.6-0.9h1.7v-0.9l0.9-0.9l0.9-1.7H209.1L209.1,338.8z M210.9,338.8h0.9H210.9L210.9,338.8z M196.2,347.4v-0.9l0.9,0.9
				H196.2L196.2,347.4z M267.9,337.9H267V337h0.9V337.9L267.9,337.9z M213.5,337l1.7-0.9h0.9v1.7l-1.7,0.9h-0.9V337L213.5,337z
				 M269.6,337h-0.9v-0.9h0.9V337L269.6,337z M272.2,333.6l0.9-0.9h0.9v1.7l-0.9,0.9l-1.7-0.9L272.2,333.6L272.2,333.6z
				 M270.5,336.2v-0.9l0.9,0.9H270.5L270.5,336.2z M274.8,333.6l0.9-0.9h0.9v1.7h-1.7L274.8,333.6L274.8,333.6z M233.3,333.6h-1.7
				H233.3L233.3,333.6z M224.7,333.6H223v-0.9h1.7V333.6L224.7,333.6z M219.5,331.8l-1.7-0.9h1.7V331.8L219.5,331.8z M216,331.8
				l1.7,0.9L216,331.8L216,331.8z M215.2,333.6v-0.9l0.9,0.9H215.2L215.2,333.6z M278.3,332.7h-0.9v-0.9h0.9V332.7L278.3,332.7z
				 M276.5,331.8h-0.9V331h0.9V331.8L276.5,331.8z M232.5,327.5h-1.7H232.5L232.5,327.5z M229,328.4h1.7H229L229,328.4z M216,328.4
				h-0.9v-0.9h0.9V328.4L216,328.4z M284.3,324.1h-0.9l0.9-0.9h0.9L284.3,324.1L284.3,324.1z M210,326.7h-0.9v-0.9h0.9V326.7
				L210,326.7z M207.4,324.9l-1.7-0.9h1.7V324.9L207.4,324.9z M203.9,324.9l1.7,0.9l-0.9,0.9h-2.6v-0.9L203.9,324.9L203.9,324.9z
				 M225.6,325.8v-1.7h0.9v1.7H225.6L225.6,325.8z M215.2,324.1v-0.9l0.9,0.9H215.2L215.2,324.1z M288.6,320.6h-0.9l0.9-0.9h0.9
				L288.6,320.6L288.6,320.6z M217.8,317.2l0.9-0.9h1.7v0.9l-0.9,1.7l-1.7,0.9l-1.7,0.9l-0.9,0.9l-2.6,0.9l-1.7,0.9h-3.5v-0.9
				l1.7-0.9l1.7-0.9l2.6-0.9l1.7-0.9h1.7L217.8,317.2L217.8,317.2z M216,317.2h0.9L216,318V317.2L216,317.2z M242.8,321.5H242v-0.9
				h0.9V321.5L242.8,321.5z M227.2,317.9l-1.8,0.6L227.2,317.9L227.2,317.9z M220.4,324.1l1.7,0.9L220.4,324.1L220.4,324.1z
				 M218.6,324.9l1.7,0.9L218.6,324.9L218.6,324.9z M217.8,326.7v-0.9l0.9,0.9H217.8L217.8,326.7z M223,315.4h-0.9v-0.9h0.9V315.4
				L223,315.4z M305.1,311.1v-0.9l0.9-0.9v0.9L305.1,311.1L305.1,311.1z M273.5,311.4l-1.7,0.8l0.4,0.5l-1.8,1.1l-0.7-1h0.9
				L273.5,311.4L273.5,311.4z M244.6,312.8h1.3l-2.2,1.7v-0.9L244.6,312.8L244.6,312.8z M230.7,311.1v0.9l-1.7,0.9h-2.6h-1.7
				l-1.7,0.9l-1.7-0.9l0.9-0.9l1.7-0.9l1.7-0.9l0.9-0.9l1.7-0.9l1.7-0.9l0.9-0.9l1.7-0.9l0.9-0.9l0.9-0.9l2.6-0.9l1.7-0.9l0.9-0.9
				l0.9-0.9l0.9-0.9h2.6v-1.7h0.9v2.6l-4.3,2.6l-2.5,1l0.8,0.7h0.9l1.7-1.7l0.9,1.7l-1.7,0.9h-0.9v0.9h-0.9h-0.9v0.9h-0.9v0.9h-0.9
				h-0.9v0.9h-0.9h-0.9v1.7h-0.9L230.7,311.1L230.7,311.1z M232.5,309.4h-0.9l-1.7,0.9L228,311l1-0.7l2.6-1.7l2.6-1.7l1.9-1.9
				l0.6,0.9l-0.7,1h-0.9l-0.9,0.9l-0.9,0.9h-0.9L232.5,309.4L232.5,309.4z M219.5,313.7l1.7,0.9h-1.7V313.7L219.5,313.7z
				 M317.2,297.3h-0.9l-0.9,0.9l-1.7,2.6l-2.6,2.6v-0.9l1-0.7l0.7-1v-0.9h0.9l0.9-1.7l0.9-0.9l0.9-0.9v-0.9l1.7-1.7h0.9l-0.9,0.9
				v0.9l-0.9,0.9V297.3L317.2,297.3z M309.5,304.9l0.6,0.8l-4.2,3.6v-0.9L309.5,304.9L309.5,304.9z M262.7,296.4l0.9-0.9h0.9
				l0.9-0.9l0.9-0.9l0.7-1l-0.6-0.8l-0.1,0.1l-1,1.8l-0.9,0.9h-0.9l-0.9,0.9l-0.9,0.9H262.7L262.7,296.4z M248,297.3h-0.9v-0.9h0.9
				V297.3L248,297.3z M276.5,296.4l0.9-1.7h0.9l-0.9,1.7l-0.9,0.9l-1,0.7l-0.7,1h-0.9L276.5,296.4L276.5,296.4z M270.5,301.6
				l-0.9,1.7h-0.9l0.9-1.7H270.5L270.5,301.6z M285.2,288.6h-0.9v-0.9h0.9V288.6L285.2,288.6z M255.8,288.6h-1.7l-2.4,2.8l0.5,0.8
				c1.4-2,2.7-2.4,4.5-3.6l1-0.7L255.8,288.6L255.8,288.6z M266.2,279.1v0.9V279.1L266.2,279.1z M320.6,290.4h-0.9H320.6
				L320.6,290.4z M267.9,274.8v-1.7h1.7L267.9,274.8L267.9,274.8z M354.7,254.9v1.7V254.9L354.7,254.9z M357.8,243.7V242h1.7v0.9
				l-0.9,0.9L357.8,243.7L357.8,243.7z M359.5,238.5v-0.9v-0.9h0.9v0.9h0.9v0.9h-0.9v0.9l-0.9,1.7h-0.9v-2.6H359.5L359.5,238.5z
				 M361.2,235.9v-1.7h0.9v1.7H361.2L361.2,235.9z M295.6,226.4v-1.7h0.9v1.7H295.6L295.6,226.4z M296.4,222.1l0.9-1.7v1.7H296.4
				L296.4,222.1z M299,219.5v-1.7h0.9v1.7H299L299,219.5z M367.3,204.8v-2.6h-0.9L367.3,204.8L367.3,204.8z M364.7,213.5
				c1.5-1.3,0.9-6,0.9-8.6l1.7,0.9v0.9c-1.5,1.3-0.9,6-0.9,8.6l-0.9,4.3h-1.7v-0.9L364.7,213.5L364.7,213.5z M300.7,213.5h-0.9v-0.9
				h0.9V213.5L300.7,213.5z M300.7,211.7h-0.9v-0.9h0.9V211.7L300.7,211.7z M366.4,201.4h0.9v-1.7h-0.9V201.4L366.4,201.4z
				 M366.4,198.8h0.9v-8.6h-0.9V198.8L366.4,198.8z M367.3,189.3v-0.9h-0.9v0.9H367.3L367.3,189.3z M366.4,187.5h0.9v-4.3h-0.9
				V187.5L366.4,187.5z M366.4,182.3h0.9v-2.6h-0.9V182.3L366.4,182.3z M366.4,178.9h0.9v-1.7h-0.9V178.9L366.4,178.9z M367.3,173.7
				v-0.9h-0.9v0.9H367.3L367.3,173.7z M364.7,172.8h-0.9V172h0.9V172.8L364.7,172.8z M366.4,168.5l-0.9,0.9v-0.9H366.4L366.4,168.5z
				 M366.4,172h0.9v-2.6L366.4,172L366.4,172z M365.5,167.6v-3.5h0.9v3.5H365.5L365.5,167.6z M363,159.9l-0.9,0.9v-0.9H363
				L363,159.9z M363.8,161.6H363l0.9-0.9V161.6L363.8,161.6z M363.8,153.8v-6.9h0.9l0.9,5.2v0.9L363.8,153.8L363.8,153.8z
				 M364.7,159l0.9-5.2L364.7,159L364.7,159z M364.7,159.9l1.7-0.9v4.3h-0.9l-0.9-2.6L364.7,159.9L364.7,159.9z M361.2,152.1v-2.6
				h1.7v4.3h-0.9L361.2,152.1L361.2,152.1z M360.4,146.9v-3.5v-0.9h0.9v0.9h0.9v5.2h-0.9L360.4,146.9L360.4,146.9z M359.5,141.7
				v-2.6l0.9-0.9v1.7v1.7H359.5L359.5,141.7z M356.9,131.4l-0.9-1.7v-0.9h1.7v2.6L356.9,131.4L356.9,131.4z M93.3,102l3.5-2.6v3.5
				h-0.9l-0.9-0.9h-0.9L93.3,102L93.3,102z M98.5,97.7h-0.9l0.9-0.9V97.7L98.5,97.7z M103.7,95.1v-0.9l-3.5,0.9H103.7L103.7,95.1z
				 M104.6,93.3v-0.9l-0.9,0.9H104.6L104.6,93.3z M102.8,86.4l0.9-0.9h0.9v0.9l-1.6,1.9l-1-1L102.8,86.4L102.8,86.4z M102,79.5
				l0.9-0.9h0.9l-10.4,9.5v-0.9l1-0.7l0.7-1l0.9-0.9l1-0.7l0.7-1l0.9-0.9l0.9-0.9l0.9-0.9L102,79.5L102,79.5z M94.2,85.6l-0.9,0.9
				L94.2,85.6L94.2,85.6z M96.8,83l-0.9,0.9L96.8,83L96.8,83z M105.4,89l4.1-4.5l-0.5-0.8l-0.9,1.2l-1-1V83l2.6-0.9h0.9v-0.9h0.9
				v0.9h-0.9V83h0.9v0.9h-0.9v1.7l-1.7,0.9l-0.9,0.9l-0.9,1.7H105.4L105.4,89z M120.1,80.4l-0.9-0.9h0.9V80.4L120.1,80.4z
				 M117.5,80.4h1.7v1.7l-0.9,0.9l-0.9,0.9h-0.9v-2.6L117.5,80.4L117.5,80.4z M163.3,77.8l1.7-0.9h0.9v1.7L163.3,77.8L163.3,77.8z
				 M160.7,78.6l2.6,0.9l-1.7,0.9l-1.7,0.9h-2.6v-0.9l1.7-0.9L160.7,78.6L160.7,78.6z M127,74.3V76h-2.6l-0.9,0.9l-0.9,0.9v1.7h0.9
				l1.7-0.9v-0.9v-0.9h3.5l0.9-0.9v-2.6h-1.7L127,74.3L127,74.3z M155.6,77.8V76h1.7v0.9l-0.9,0.9L155.6,77.8L155.6,77.8z
				 M133.1,74.3v-0.9h1.7h0.9v-0.9h0.9l0.9-0.9h1.7h0.9l0.9-2.6v-0.9h-2.6l-0.9,0.9l-0.9,0.9h-0.9h-0.9h-0.9l-0.9,0.9v2.6h-1.7v0.9
				H133.1L133.1,74.3z M113.2,71.7v-0.9l0.9-1.7l0.9-0.9h0.9h0.9l0.9,0.9V70l-0.9,0.9l-0.9,0.9l-0.9,0.9h-1.7L113.2,71.7L113.2,71.7
				z M65.7,74.3v0.9L64.8,76L64,74.3l-0.9,0.9L62.2,76l-2.6,3.5l-0.9,1.7l-0.9,0.9L57,83.8L55.3,83v-0.9l0.9-0.9l0.9-0.9l0.9-1.7
				h0.9v-0.9v-0.9l0.9-0.9h0.9v-1.7l0.9-0.9l0.9-0.9l0.9-0.9l0.9-0.9V70h0.9l0.9-0.9l0.9-0.9h1.7v-1.7l0.9-0.9l1.7-0.9l0.9-0.9
				l0.9-1.7l0.9-0.9l0.9-0.9l0.9-0.9l0.9-0.9l0.9-0.9l0.9-0.9l0.9-0.9l1.7-0.9l0.9-0.9h0.9v-0.9H83l0.9-1.7l0.9-0.9l0.9-0.9v-0.9
				h0.9h0.9v-0.9h0.9H89v-0.9l0.9-0.9h0.9h0.9v-0.9h0.9l1.7-0.9l0.9-0.9h1.7v-1.7h1.7h0.9v-0.9l0.9-0.9l1.7-0.9l0.9-0.9h0.9l0.9-0.9
				l0.9-0.9h2.6l0.9-0.9h0.9l0.9-0.9v-0.9h0.9h1.7l0.9,0.9l-0.9,0.9h-1.7l-0.9,0.9l-0.9,0.9l-1.7,0.9l-0.9,0.9l-1.7,0.9l-0.9,0.9
				h-1.7v0.9H102h-0.9v0.9h-0.9h-0.9v0.9l-0.9,0.9h-0.9l-0.9,0.9l-0.9,0.9h-0.9v0.9h-0.9l-0.9,0.9l-1.7,0.9l-0.9,0.9L89.9,51
				L89,51.8l-0.9,0.9l-0.9,1.7l-0.9,0.9l-0.9,0.9L84.7,57l-0.9,0.9l-1.7,0.9v0.9h-0.9l-0.9,0.9l-0.9,0.9h-0.9v0.9h-0.9l-0.9,0.9v0.9
				H76l-0.9,0.9l-0.9,1.7l-0.9,0.9l-0.9,0.9l-0.9,0.9H70v1.7l-0.9,0.9l-0.9,0.9l-0.9,0.9v0.9h-0.9L65.7,74.3L65.7,74.3z M64.8,73.5
				l1-1.9l0.6,0.9l-0.7,1L64.8,73.5L64.8,73.5z M124.4,70.9l-0.9-0.9v-0.9h2.6V70l-0.9,0.9H124.4L124.4,70.9z M90.7,69.1h0.9l-0.7,1
				L90.7,69.1L90.7,69.1z M91.6,68.3h0.9l-0.7,1L91.6,68.3L91.6,68.3z M92.5,67.4h0.9l-0.7,1L92.5,67.4L92.5,67.4z M93.3,66.5h1.7
				H93.3L93.3,66.5z M95.1,65.7l0.9,0.9L95.1,65.7L95.1,65.7z M95.1,68.3l0.9-0.9L95.1,68.3L95.1,68.3z M88.1,74.3l0.9-0.9
				L88.1,74.3L88.1,74.3z M160.7,63.9v-0.9V63.9L160.7,63.9z M102,59.6h1.7l-1.6,1.9l-1-1L102,59.6L102,59.6z M103.7,58.8l0.9,0.9
				L103.7,58.8L103.7,58.8z M105.4,57.9v0.9l-0.9-0.9H105.4L105.4,57.9z M178,59.6v-0.9h1.7l0.9,0.9H178L178,59.6z M95.9,55.3
				l1.7-0.9h2.6v0.9l-0.9,0.9L97.7,57l-0.9,0.9l-0.9,1.7l-3.5,0.9l-0.9,0.9l-0.9,2.6h-0.9H89l-0.9,0.9l-0.9,1.7h-1.7v-0.9l0.9-2.6
				l0.9-0.9l1.7-0.9l0.9-0.9l0.9-0.9l0.9-0.9l0.9-0.9l0.9-0.9l0.9-0.9L95.9,55.3L95.9,55.3z M93.1,58.5l2.9-2.1l0.9,0.6L93.1,58.5
				L93.1,58.5z M107.2,57.9h-0.9V57h0.9V57.9L107.2,57.9z M125.3,55.3v0.9V55.3L125.3,55.3z M147.8,54.4v-0.9l0.9,0.9H147.8
				L147.8,54.4z M101.1,54.4l-0.9-0.9v-0.9h1.7v1.7H101.1L101.1,54.4z M151.2,51v0.9h-0.9V51H151.2L151.2,51z M211.7,45.8v-0.9h-0.9
				H210v-0.9l-0.9-0.9h-0.9l-0.9-0.9l-3.5-0.9H197v-0.9h-4.3v-0.9c3.7,0,13.7-1.3,15.6,0.9l3.5,0.9h3.5l0.9,0.9h4.3l0.9,0.9h2.6
				l0.9,0.9h1.7l0.9,0.9l1.7,0.9h1.7l0.9,0.9l0.9,0.9h1.7l0.9,0.9l1.7,0.9h1.7l0.9,0.9h0.9l0.9,0.9l1.7,0.9h0.9h0.9h0.9v-1.7
				l2.6,1.7l2.6,0.9h0.9h1.7l0.9,1.7l1.7,0.9l1.7,0.9h0.9l1,0.7l0.7,1l0.9,0.9l0.9,0.9l1.7,0.9h0.9h1.7l4.3,5.2l0.9,0.9l0.9,0.9
				l0.9,0.9h1.7l6.7,7.1l-0.6,0.7H280l-3.5-3.5l-0.9-0.9h-0.9l-0.9-0.9l-0.9-0.9l-0.9-0.9l-0.9-0.9h-1.7h-1.7l-0.9-1.7l-0.9-0.9
				l-0.9-0.9l-1.7-0.9h-0.9l-1-0.7l-0.7-1h-0.9h-2.6l-0.9-1.7l-0.9-0.9h-0.9l-1-0.7l-0.7-1l-0.9-0.9l-1.7-0.9h-0.9l-0.9-0.9h-1.7
				l-2.6-2.6h-0.9l-1.7-0.9l-2.6-0.9h-2.6l-0.9-0.9h-1.7l-0.9-0.9h-1.7l-1.7-0.9H229l-1.7-0.9h-1.7l-0.9-0.9H223h-0.9h-1.7
				c-1.6,0-6.9,0.7-6.9-0.9H211.7L211.7,45.8z M97.7,43.2c0.2-0.2,0.5,0.5,0.5,0.5S97.5,43.4,97.7,43.2L97.7,43.2z M191.8,39.8v0.9
				h-2.6v-0.9H191.8L191.8,39.8z M153.7,39.4l1.8-0.6L153.7,39.4L153.7,39.4z M148.6,36.3l2.6-0.9h0.9v1.7l-1.7,0.9h-1.7V36.3
				L148.6,36.3z M158.1,35.1h1.7H158.1L158.1,35.1z M162.5,31.1h-1.7v-0.9h1.7V31.1L162.5,31.1z M151.2,28.5l2.6-0.9h1.7l1.7-0.9
				l3.5-0.9h1.7v-0.9h0.9l1.7-0.9l4.3-0.9c1.5,0,6,0.7,6-0.9c1.9,0,10.4,0.7,10.4-0.9h2.6h2.6v0.9l-0.9,0.9h-0.9
				c-1.7,0-8.6-0.7-8.6,0.9c-1.5,0-6-0.7-6,0.9c-1.5,0-6-0.7-6,0.9l-2.6,0.9l-2.6,0.9l-2.6,0.9h-3.5v0.9l-4.3,0.9l-3.5,0.9h-1.7
				v-0.9l0.9-0.9L151.2,28.5L151.2,28.5z M174.6,26.8l-2.6,0.9c0,1.5,4.5,0.9,6,0.9c0-1.6,5.3-0.9,6.9-0.9l2.6-0.9v-0.9h-6.9
				C180.6,27.5,176.1,26.8,174.6,26.8L174.6,26.8z M170.2,28.5v0.9h1.7L170.2,28.5L170.2,28.5z M159.9,24.2v-0.9h-1.7v0.9H159.9
				L159.9,24.2z M164.2,23.3h3.5l0.9-0.9v-0.9l-2.6-0.9h-2.6v0.9L164.2,23.3L164.2,23.3z M162.5,22.5v-0.9h-1.7v0.9H162.5
				L162.5,22.5z M178,21.6v-0.9h-3.5L178,21.6L178,21.6z M173.7,22.5h0.9l-0.9-0.9V22.5L173.7,22.5z M182.3,20.7h-2.6h-0.9l-4.3-0.9
				V19l0.9-0.9h3.5l2.6-0.9h6.9v-0.9h0.9v0.9l0.9-0.9h6h0.9h0.9h0.9h0.9h1.7h0.9h0.9l0.9,1.7h-3.5l-0.9,0.9l-1.7,0.9h-10.4v0.9
				L182.3,20.7L182.3,20.7z M172,20.7h0.9l0.9-0.9V19H172V20.7L172,20.7z M166.8,12.1v-0.9h-0.9L166.8,12.1L166.8,12.1z M162.5,12.1
				l3.5,0.9L162.5,12.1L162.5,12.1z M159,13l3.5,0.9V13H159L159,13z M161.6,14.7l0,1.9l-1.7-1H159l-5.2,0.9l-3.5,0.9l-2.6,0.9
				L146,19h-0.9v0.9h-1.7l-0.9,0.9l-2.6,0.9l-2.6,0.9l-2.6,0.9l-1.7,0.9l-0.9,0.9l-1.7,0.9v0.9h2.6l1.7-0.9l1.7-0.9l1.7-0.9l3.5-0.9
				l1.7-0.9l2.6-0.9l2.6-0.9l2.6-0.9l2.6-0.9l4.3-0.9c0-1.5,4.1-1.3,5.2,0h0.9l0.9-0.9l0.9-0.9v0.9h2.6l1.7-0.9l2.6-0.9l1.7-0.9h1.7
				h0.9v-0.9h0.9l2.6,0.9c0-1.5,4.1-1.3,5.2,0h2.6v-0.9l-0.9-0.9h1.7v1.7h1.7V13h0.9v1.7h4.3V13h11.2v0.9h0.9V13h0.9v-0.9h-3.5v-1.7
				V9.5h1.7V8.6l-0.9-0.9h-0.9v0.9h-0.9V7.8l-0.9-0.9h-1.7h-9.5V5.2h0.9h0.9l0.9-0.9V3.5H191v0.9h-0.9l-0.9-2.6l-0.9,1.7v0.9h-2.6
				h-0.9v0.9h-0.9l0.9,0.9v0.9h1.7V6h5.2L191,6.9l-2.6,0.9v0.9h-4.3l-2.6,0.9h-0.9l-0.9,0.9l-2.6,0.9l-0.9,0.9v-1.7h-0.9V9.5h-0.9
				v0.9h0.9v1.7V13h-0.9v0.9h-3.5h-0.9h-5.2v0.9h-0.9v-0.9L161.6,14.7L161.6,14.7z M157.3,13.8l1.7,0.9h-1.7V13.8L157.3,13.8z
				 M208.3,18.1h-1.7v-0.9h1.7V18.1L208.3,18.1z M204.8,16.4h-0.9l0.9,0.9V16.4L204.8,16.4z M178.9,15.6v-0.9l0.9,0.9H178.9
				L178.9,15.6z M174.6,12.1h-0.9v-0.9h0.9V12.1L174.6,12.1z M156.4,9.5l3.5-0.9h3.5v0.9l-0.9,0.9h-0.9h-0.9l-3.5,0.9h-0.9
				L156.4,9.5L156.4,9.5z M170.2,7.8l-2.6-0.9h2.6V7.8L170.2,7.8z M164.2,7.8l3.5,0.9h-3.5V7.8L164.2,7.8z M183.2,6.9V6l0.9,0.9
				H183.2L183.2,6.9z M181.5,6l-0.9-0.9h0.9V6L181.5,6z M179.8,6.9V6l0.9,0.9H179.8L179.8,6.9z M197.9,4.3h-1.7V3.5h1.7V4.3
				L197.9,4.3z M191,1.7l-0.9-0.9h0.9V1.7L191,1.7z M192.7,0.9V0h0.9v0.9l1.7-0.9h5.2v0.9l-0.9,0.9c-1.5,0-6-0.7-6,0.9h-0.9V0.9
				L192.7,0.9z M63.1,167.6h0.9v1.7l-0.9,1.7l-2.5-1.7v-1.7h1.7v0.9h0.9V167.6L63.1,167.6z M62.2,166.8h-0.9v-2.6h0.9V166.8
				L62.2,166.8z M62.2,159c0.2-0.2,0.5,0.5,0.5,0.5S62.1,159.2,62.2,159L62.2,159z M34.6,153l0.9,0.9l-0.9,0.9V153L34.6,153z
				 M36.3,151.2h-0.9v-1.7l0.9,0.9V151.2L36.3,151.2z M38.9,145.2l-0.9-1.7v-0.9h0.9V145.2L38.9,145.2z M39.8,140h-0.9v-0.9h0.9V140
				L39.8,140z M51.9,132.2l-0.9,0.9L51.9,132.2L51.9,132.2z M51,136.5l-0.9,0.9v-0.9H51L51,136.5z M77.8,131.4l-0.9-0.9h0.9V131.4
				L77.8,131.4z M76.9,133.1l-0.9-1.7L76.9,133.1L76.9,133.1z M74.3,134.8l0.9-1.7l0.9,3.5l-0.9,0.9h-0.9V134.8L74.3,134.8z
				 M52.7,128.8l1,2.6l-1-0.8V128.8L52.7,128.8z M50.1,127l0.7,1.9l-0.7-1V127L50.1,127z M31.1,121H32v-1.7l0.9,0.9l0.9,1.7H32v0.9
				l-0.9-0.9V121L31.1,121z M47.5,123.6l-0.9-0.9h0.9V123.6L47.5,123.6z M64.8,122.7h0.9H64.8L64.8,122.7z M85.6,121h-0.9v-0.9h0.9
				V121L85.6,121z M70,114.1l-0.9,0.9L70,114.1L70,114.1z M69.1,121H70l-0.7,1l0.9,2.4c-3.5-3.4,1.5-0.1-2.8-1.7L69.1,121L69.1,121z
				 M73.5,114.9h-0.9v-0.9h0.9V114.9L73.5,114.9z M67.4,118.4l-0.9,0.9L67.4,118.4L67.4,118.4z M68.3,116.7l-0.9,0.9L68.3,116.7
				L68.3,116.7z M51,117.5v0.9l0.9-1.7L51,117.5L51,117.5z M24.2,117.5l-0.9-0.9l-0.9-0.9l0.9-0.9v0.9h0.9V117.5L24.2,117.5z
				 M86.4,118.4h-0.9v-0.9h0.9V118.4L86.4,118.4z M42.3,116.7h-0.9v0.9l0.9,1.7v-0.9h0.9v-0.9v-0.9h0.9v-0.9v-0.9h0.9v-0.9l0.9-0.9
				v-1.7h0.9v-0.9v-0.9h0.9v-0.9l0.9-0.9v-1.7h0.9v-0.9h0.9l0.9-1.7l0.9-0.9l-0.9-2.6l-0.9,0.9l-0.9,1.7l-0.9,1.7l-0.9,0.9v0.9
				l-0.9,0.9v0.9h-0.9v0.9v0.9h-0.9v0.9l-0.9,1.7l-0.9,0.9l-0.9,1.7L42.3,116.7L42.3,116.7z M25.1,114.9h-0.9v-0.9h0.9V114.9
				L25.1,114.9z M65.2,112.7c0,0,0.3,0.6,0.5,0.5C65.8,113.1,65.2,112.7,65.2,112.7L65.2,112.7z M25.1,113.2h-0.9v-0.9h0.9v-0.9
				l0.9-0.9v0.9L25.1,113.2L25.1,113.2z M25.9,108.9V108l1.7-0.9v0.9L25.9,108.9L25.9,108.9z M44.9,103.7l-0.9-0.9h0.9V103.7
				L44.9,103.7z M43.2,105.4v-1.7l0.9,1.7H43.2L43.2,105.4z M53.6,98.5l-0.9-0.9h0.9V98.5L53.6,98.5z M51.9,98.5l0.5,1.7L51.9,98.5
				L51.9,98.5z M52.7,102.8h1.7v-2.6h-1.7V102.8L52.7,102.8z M54.4,99.4l0.9,0.9v-0.9h0.9l0.9-0.9l-0.9-1.7h-0.9l-0.9,1.7V99.4
				L54.4,99.4z M35.4,94.2l0.9-0.9v-0.9h-1.7L35.4,94.2L35.4,94.2z M34.6,95.9l-0.9-1.7L34.6,95.9L34.6,95.9z M72.4,98.4l0.9-0.9
				c1.5,1.2-1.6,1,1.9,1c0.4,0,0.6-1.2,0.9-0.9l1,0.7c-2,2.2-1.9,1.2-2.7,3.6h-1.7l0.4-2.7L72.4,98.4L72.4,98.4z M45.8,102h-0.9
				v-0.9h0.9V102L45.8,102z M45.8,98.5v1.7l0.9,0.9h0.9l0.9-0.9v-4.3h0.9v-0.9h0.9v-0.9l1.7-0.9l0.9-2.6l0.9-0.9l0.9-1.7l0.9-0.9
				v-0.9h0.9l-0.9-2.6l-0.9,0.9l-0.9,0.9v0.9l-0.9,0.9h-0.9v0.9L51,89l-0.9,1.7l-0.9,1.7h-0.9v1.7v0.9h-0.9l-0.9,2.6l1,1l-0.9,0.6
				L45.8,98.5L45.8,98.5z M57,95.9l0.9-1.7h0.9v2.6l-0.9,0.9L57,95.9L57,95.9z M73.5,89.9l-0.9,0.9L73.5,89.9L73.5,89.9z M64.8,95.9
				H64v-0.9h0.9V95.9L64.8,95.9z M59.6,92.5l0.9-0.9h1.7v0.9l-0.9,0.9h-1.7L59.6,92.5L59.6,92.5z M77.8,88.1l0.9-1.7L77.8,88.1
				L77.8,88.1z M68.3,83.8l-0.9-1.7h0.9v-0.9l0.9-0.9l0.9-0.9l0.9-0.9l0.9-1.7l0.9-0.9l0.9-0.9l0.9-0.9l0.9-0.9h1.7v1.7L76,76h-1.7
				v1.7l-0.9,0.9v1.7h-0.9v-0.9l-0.9,1.7l-0.9,0.9L68.3,83L68.3,83.8L68.3,83.8z M65.7,84.7l0.9-0.9l0.9,1.7h-1.7L65.7,84.7
				L65.7,84.7z M60.5,80.4v-1.7l2.5-1.9l0.1,1.9l-0.9,0.9l-0.9,0.9L60.5,80.4L60.5,80.4z M63.1,76l0.9,0.9L63.1,76L63.1,76z
				 M70.9,83.8V83V83.8L70.9,83.8z M69.1,84.7v-0.9l0.9,0.9H69.1L69.1,84.7z M78.6,70.9l0.9-1.7h1.7V70l-0.9,1.7l-0.9,0.9L78.6,70.9
				L78.6,70.9z M77.8,73.5v-0.9l0.9,0.9H77.8L77.8,73.5z M64,60.5l-1.7-0.9H64V60.5L64,60.5z M61.4,58.8h-0.9h-0.9v0.9h0.9l-0.9,0.9
				v-0.9h-0.9v0.9L57,61.4v3.5h-0.9l-0.9,0.9l-0.9,0.9l1.7,0.9l1.7-0.9v2.6h1.7l0.9-0.9v-0.9h0.9l0.9-0.9l0.9-0.9v-0.9H64v-0.9h0.9
				v-1.7v-0.9h0.9l0.9-2.6l0.9-1.7l0.9-0.9l1.7-0.9l0.9-0.9v-1.7h-1.7l-0.9,1.7l-0.9,0.9h-0.9l-0.9-0.9v0.9h0.9l-0.9,0.9L64.8,57
				L64,57.9v0.9h-1.7l-0.9-0.9V58.8L61.4,58.8z M52.7,68.3l0.9-0.9l0.9,1.7h-1.7V68.3L52.7,68.3z M63.1,57.9L62.2,57h0.9V57.9
				L63.1,57.9z M66.5,52.7l0,1.8l1.7-0.9v-1.7h-0.9L66.5,52.7L66.5,52.7z M129.8,292.8l-0.9-0.9l0.6-0.6l1.2,0.9L129.8,292.8
				L129.8,292.8z M13.8,254.1l0.9,1.7l0.7,1.9l-0.7-1l-0.9-0.9v-0.9l-1.9-4.3L13.8,254.1L13.8,254.1z M11.7,250l-1.7-2.6l2-0.2
				L11.7,250L11.7,250z M77.8,243.7h-0.9l-1-0.7L77.8,243.7L77.8,243.7z M70,228.1v-0.9l-0.9-1.7l-0.9-0.9l-1-2.6l1.9,0v1.7l0.9,0.9
				l0.9,2.6v0.9l0.9,0.9v0.9h-0.9L70,228.1L70,228.1z M65.7,217.8l0.9,0.9h-0.9l-0.9-0.9H65.7L65.7,217.8z M37.2,210l0.9,0.9v6.9
				h-0.9V216c-1.6,0-0.9-5.3-0.7-7.1L37.2,210L37.2,210z M95.9,95.1v-1.7h1.7v1.7H95.9L95.9,95.1z M287.8,327.5
				c0.2-0.2,0.4,0.4,0.5,0.5C288.3,328,287.6,327.7,287.8,327.5L287.8,327.5z M225.4,318.5l1.8-0.6L225.4,318.5L225.4,318.5z
				 M159.9,35.1h-1.7H159.9L159.9,35.1z M326.7,76.9l0.9,0.9L326.7,76.9L326.7,76.9z M354.7,256.7v-1.7V256.7L354.7,256.7z
				 M320.6,290.4h-0.9H320.6L320.6,290.4z M281.7,97.7l0.9,0.9v0.9l0.9,0.9h-0.9l-0.9-0.9l-0.9-0.9v-0.9l-1-1.7L281.7,97.7
				L281.7,97.7z M267,83l0.9,0.9l0.9,0.9l0.9,0.9l0.9,0.9l0.9,0.9l1,0.7l0.7,1l0.9,1.7l0.9,0.9l0.9,0.9l1,1.7l-2.7-2.5l-0.9-0.9
				l-0.9-0.9l-1-0.7l-0.7-1h-0.9l-0.9-0.9l-0.9-0.9l-0.9-0.9l-0.9-0.9l-0.9-0.9l-1-1.7L267,83L267,83z M288.6,81.2l0.9,0.9l0.9,0.9
				l0.9,0.9h-0.9l-0.9-0.9l-0.9-0.9l-0.9-0.9l-1-0.7L288.6,81.2L288.6,81.2z M155.5,38.8l-1.8,0.6L155.5,38.8z"/>
		</g>
	</g>
</g>
</svg>
