<?xml version="1.0" encoding="utf-8"?>
<!-- Generator: Adobe Illustrator 16.0.3, SVG Export Plug-In . SVG Version: 6.00 Build 0)  -->
<!DOCTYPE svg PUBLIC "-//W3C//DTD SVG 1.1//EN" "http://www.w3.org/Graphics/SVG/1.1/DTD/svg11.dtd">
<svg version="1.1" id="Layer_1" xmlns="http://www.w3.org/2000/svg" xmlns:xlink="http://www.w3.org/1999/xlink" x="0px" y="0px"
	 width="3000px" height="1000px" viewBox="0 0 3000 1000" enable-background="new 0 0 3000 1000" xml:space="preserve">
<rect x="-1" fill="#F15B31" width="3002" height="1000"/>
<rect x="1000.006" fill="#3AC2D8" width="1000" height="1000"/>
<circle fill="#FFFFFF" cx="500" cy="500" r="387"/>
<circle fill="#0B2C40" cx="1500" cy="501.001" r="387"/>
<circle fill="#FFFFFF" cx="2501.6" cy="500" r="387"/>
<polygon fill="none" stroke="#3AC2D8" stroke-width="10" stroke-miterlimit="10" points="647.083,648 350.098,351.016 
	647.083,351.016 350.098,648 "/>
<circle fill="none" stroke="#FFFFFF" stroke-width="10" stroke-miterlimit="10" cx="1500.675" cy="497.091" r="59.21"/>
<circle fill="none" stroke="#FFFFFF" stroke-width="10" stroke-miterlimit="10" cx="1500.675" cy="344.97" r="59.21"/>
<circle fill="none" stroke="#FFFFFF" stroke-width="10" stroke-miterlimit="10" cx="1500.675" cy="647.206" r="59.21"/>
<circle fill="none" stroke="#FFFFFF" stroke-width="10" stroke-miterlimit="10" cx="1350.556" cy="417.03" r="59.21"/>
<circle fill="none" stroke="#FFFFFF" stroke-width="10" stroke-miterlimit="10" cx="1350.556" cy="569.149" r="59.21"/>
<circle fill="none" stroke="#FFFFFF" stroke-width="10" stroke-miterlimit="10" cx="1650.79" cy="417.03" r="59.21"/>
<circle fill="none" stroke="#FFFFFF" stroke-width="10" stroke-miterlimit="10" cx="1650.79" cy="569.149" r="59.21"/>
<circle fill="none" stroke="#3AC2D8" stroke-width="10" stroke-miterlimit="10" cx="2496" cy="497.091" r="210"/>
<circle fill="none" stroke="#3AC2D8" stroke-width="10" stroke-miterlimit="10" cx="2496" cy="497.091" r="189"/>
<circle fill="none" stroke="#3AC2D8" stroke-width="10" stroke-miterlimit="10" cx="2496" cy="497.091" r="168.21"/>
<circle fill="none" stroke="#3AC2D8" stroke-width="10" stroke-miterlimit="10" cx="2496" cy="497.091" r="148.025"/>
</svg>
