<svg xmlns="http://www.w3.org/2000/svg" width="555.5" height="335.247"><path fill="#182E4F" d="M14.468 83.229l-2.242-2.18 4.482-4.584h-16.708v-3.472h16.709l-4.654-4.639 2.414-2.125 8.532 8.5-8.533 8.5z"/><rect x="69.126" y="66" fill="#182E4F" width="5" height="5"/><rect x="76.126" y="66" fill="#182E4F" width="5" height="5"/><rect x="83.126" y="66" fill="#182E4F" width="5" height="5"/><rect x="69.126" y="73" fill="#182E4F" width="5" height="5"/><rect x="76.126" y="73" fill="#182E4F" width="5" height="5"/><rect x="83.126" y="73" fill="#182E4F" width="5" height="5"/><rect x="69.126" y="80" fill="#182E4F" width="5" height="5"/><rect x="76.126" y="80" fill="#182E4F" width="5" height="5"/><rect x="83.126" y="80" fill="#182E4F" width="5" height="5"/><path fill="#A28351" d="M14.468 165.229l-2.242-2.18 4.482-4.584h-16.708v-3.472h16.709l-4.654-4.639 2.414-2.125 8.532 8.5-8.533 8.5z"/><path fill="#A28351" d="M0 321.034l8.532-8.5 2.414 2.125-4.654 4.639h16.709v3.472h-16.708l4.482 4.584-2.242 2.18-8.533-8.5z"/><rect x="69.126" y="148" fill="#A28351" width="5" height="5"/><rect x="76.126" y="148" fill="#A28351" width="5" height="5"/><rect x="83.126" y="148" fill="#A28351" width="5" height="5"/><rect x="69.126" y="155" fill="#A28351" width="5" height="5"/><rect x="76.126" y="155" fill="#A28351" width="5" height="5"/><rect x="83.126" y="155" fill="#A28351" width="5" height="5"/><rect x="69.126" y="162" fill="#A28351" width="5" height="5"/><rect x="76.126" y="162" fill="#A28351" width="5" height="5"/><rect x="83.126" y="162" fill="#A28351" width="5" height="5"/><g fill="#182E4F"><rect x="291.126" width="2" height="10"/><rect x="291.126" y="22" opacity=".5" enable-background="new" width="2" height="10"/><rect x="277.123" y="15" fill-opacity=".25" width="9" height="2"/><rect x="298.126" y="15" width="9" height="2"/><rect x="283.865" y="18.359" transform="matrix(.707 .707 -.707 .707 99.844 -194.792)" opacity=".5" enable-background="new" width="2.384" height="9.536"/><rect x="298.055" y="4.173" transform="matrix(.707 .707 -.707 .707 93.969 -208.981)" width="2.384" height="9.536"/><rect x="298.059" y="18.297" transform="matrix(.707 -.707 .707 .707 71.34 218.358)" opacity=".5" enable-background="new" width="2.384" height="9.536"/><rect x="283.869" y="4.11" transform="matrix(.707 -.707 .707 .707 77.215 204.169)" fill-opacity=".25" width="2.384" height="9.536"/></g><path fill="#182E4F" d="M172.126 27.62l10.561-10.544 1.049 1.048-12.376 12.375-12.375-12.375 1.049-1.058 10.561 10.554v-26.469h1.532l-.001 26.469z"/><path fill="#182E4F" d="M409.209 26.482l-1.048 1.049-12.375-12.375 12.375-12.376 1.058 1.049-11.192 11.26 11.182 11.393z"/><path fill="#182E4F" d="M427.745 15.089l-11.192-11.26 1.058-1.049 12.375 12.375-12.376 12.376-1.048-1.049 11.183-11.393z"/><path fill="#182E4F" d="M555.497 15.756l.003-.004-.015-.012c-.457-.599-9.112-11.682-21.864-11.682-12.717 0-21.299 11.014-21.8 11.674l-.023.017.005.006-.005.006.023.017c.501.66 9.083 11.674 21.8 11.674 12.752 0 21.407-11.083 21.864-11.682l.015-.012-.003-.002zm-21.877 10.228c-10.059 0-17.6-7.605-19.904-10.228 2.303-2.623 9.844-10.228 19.904-10.228 10.057 0 17.637 7.603 19.956 10.228-2.318 2.625-9.899 10.228-19.956 10.228zm-.318-1.433c-4.809 0-8.721-3.912-8.721-8.721s3.912-8.721 8.721-8.721 8.721 3.912 8.721 8.721-3.913 8.721-8.721 8.721zm0-16.443c-4.257 0-7.721 3.464-7.721 7.721s3.464 7.721 7.721 7.721 7.721-3.464 7.721-7.721-3.464-7.721-7.721-7.721z"/><path fill="#A28351" d="M409.209 116.482l-1.048 1.049-12.375-12.375 12.375-12.375 1.058 1.049-11.192 11.26 11.182 11.392z"/><path fill="#A28351" d="M427.745 105.089l-11.192-11.26 1.058-1.049 12.375 12.375-12.375 12.375-1.048-1.049 11.182-11.392z"/><path fill="#A28351" d="M555.497 105.756l.003-.004-.015-.012c-.457-.599-9.112-11.682-21.864-11.682-12.717 0-21.299 11.014-21.8 11.674l-.023.017.005.006-.005.006.023.017c.501.66 9.083 11.674 21.8 11.674 12.752 0 21.407-11.083 21.864-11.682l.015-.012-.003-.002zm-21.877 10.228c-10.059 0-17.6-7.605-19.904-10.228 2.303-2.623 9.844-10.228 19.904-10.228 10.057 0 17.637 7.603 19.956 10.228-2.318 2.625-9.899 10.228-19.956 10.228zm-.318-1.433c-4.809 0-8.721-3.912-8.721-8.721s3.912-8.721 8.721-8.721 8.721 3.912 8.721 8.721-3.913 8.721-8.721 8.721zm0-16.443c-4.257 0-7.721 3.464-7.721 7.721s3.464 7.721 7.721 7.721 7.721-3.464 7.721-7.721-3.464-7.721-7.721-7.721z"/><g fill="#8490A3"><path d="M198.095 127.05c-6.224 0-11.298-5.05-12.178-11.05h-1.742c.831 7 6.517 12.995 14.092 12.995 5.087 0 8.289-2.041 11.325-5.063l-1.516-1.401c-2.914 2.898-5.837 4.519-9.981 4.519zm-.032-25.854c4.308 0 7.373 1.696 9.875 4.138l1.536-1.635c-2.954-2.732-5.997-4.418-11.126-4.418-7.781 0-13.546 5.719-14.222 13.719h1.712c.643-7 5.782-11.804 12.225-11.804z"/><polygon points="240.139,104 223.694,124 226.378,124 243.031,104"/><path d="M271.409 127.024c-6.852 0-12.283-5.712-12.283-13.039v-.083c0-7.285 5.372-12.956 12.265-12.956 4.308 0 7.306 1.821 9.809 4.264l1.582-1.573c-2.954-2.732-6.146-4.637-11.274-4.637-8.288 0-14.382 6.789-14.382 14.985v.083c0 8.32 6.103 14.902 14.309 14.902 5.087 0 8.368-2.029 11.404-5.05l-1.528-1.408c-2.913 2.898-5.758 4.512-9.902 4.512z"/><rect x="222.126" y="100" width="23" height="2"/><rect x="267.126" y="113" width="22" height="2"/><rect x="222.126" y="126" width="23" height="2"/></g><path fill="#182E4F" d="M300.437 214.676c0-3.984-3.072-7.297-7.969-7.297-3.84 0-6.769 1.873-9.265 4.945l-1.729-1.44c2.736-3.408 6.001-5.713 11.089-5.713 6.337 0 10.417 4.225 10.417 9.409 0 6-4.608 9.169-10.177 9.841l-.432 6h-1.536l-.624-7.776.24-.24c6.338-.144 9.986-3.073 9.986-7.729zm-10.417 24.53v-4.08h3.168v4.08h-3.168z"/><path d="M409.126 224v-9.75l-.366-.004c-3.026 0-5.986.217-8.751.527-.31 2.764-.501 5.833-.501 8.859l.028.369 9.59-.001z" fill="none"/><path d="M409.126 235.194v-9.194h-9.562c.087 3 .361 5.995.701 8.916 2.708.298 5.544.393 8.495.393.156 0 .366-.114.366-.115z" fill="none"/><path d="M399.204 208.902c-1.748 1.357-3.246 3.02-4.406 4.914 1.168-.189 2.428-.375 3.764-.543.197-1.57.419-3.041.642-4.371z" fill="none"/><path d="M397.867 223.631c0-2.949.202-5.912.495-8.625-1.657.215-3.19.442-4.556.68-1.081 2.329-1.688 4.97-1.688 7.703l.014.612h5.737l-.002-.37z" fill="none"/><path d="M408.76 212.578l.366.004v-7.479c-3 .168-5.671 1.057-8.105 2.493-.289 1.578-.594 3.436-.858 5.477 2.714-.293 5.648-.495 8.597-.495z" fill="none"/><path d="M411.126 224h9.358l.002-.369c0-2.951-.144-5.918-.441-8.627-2.871-.335-5.919-.633-8.919-.724v9.72z" fill="none"/><path d="M420.457 226h-9.331v9.163c3-.09 5.901-.127 8.715-.451.33-2.864.531-5.712.616-8.712z" fill="none"/><path d="M419.843 213.276c-.296-2.315-.613-4.41-.935-6.128-2.352-1.232-4.782-1.965-7.782-2.061v7.524c3 .089 5.898.344 8.717.665z" fill="none"/><path d="M426.136 214.139c-1.359-2.323-3.215-4.321-5.423-5.845.267 1.542.539 3.293.773 5.187 1.671.211 3.24.438 4.65.658z" fill="none"/><path d="M421.479 234.506c1.374-.175 2.674-.25 3.872-.433 1.659-2.379 2.764-5.072 3.133-8.072h-6.359c-.081 1.999-.33 5.695-.646 8.505z" fill="none"/><path d="M427.076 215.978c-1.572-.258-3.405-.535-5.395-.792.281 2.655.473 5.571.473 8.445l-.002.369h6.46c.006 0 .014-.43.014-.619 0-2.613-.556-5.154-1.55-7.403z" fill="none"/><path d="M397.896 226h-5.636c.387 3 1.58 5.845 3.371 8.295.927.145 1.906.398 2.934.53-.327-2.869-.586-5.825-.669-8.825z" fill="none"/><path d="M420.991 238.158c1.028-.738 1.979-1.578 2.833-2.509-.818.116-1.667.23-2.546.34-.093.744-.189 1.468-.287 2.169z" fill="none"/><path d="M397.251 235.996c.532.551 1.098 1.069 1.695 1.55l-.177-1.349c-.518-.064-1.021-.132-1.518-.201z" fill="none"/><path d="M411.126 236.832v4.731c3-.1 5.644-.896 8.075-2.232.147-.99.325-2.042.465-3.14-2.759.31-5.54.555-8.54.641z" fill="none"/><path d="M408.76 236.865c-2.874 0-5.682-.192-8.338-.473.111.858.148 1.684.263 2.477 2.505 1.546 5.44 2.503 8.44 2.678v-4.685l-.365.003z" fill="none"/><path fill="#182E4F" d="M429.013 216.307c-.236-.626-.504-1.236-.8-1.83-1.753-3.52-4.517-6.449-7.91-8.41-.612-.354-1.244-.676-1.895-.964-2.279-1.009-4.78-1.601-7.408-1.683l-.629-.016c-.349 0-.695.009-1.039.027-2.789.144-5.427.868-7.799 2.048-.659.328-1.297.692-1.912 1.088-2.926 1.883-5.328 4.51-6.939 7.613-.312.601-.594 1.219-.844 1.854-.893 2.26-1.388 4.719-1.388 7.292l.014.563c.016.562.052 1.118.114 1.668.331 2.955 1.308 5.717 2.791 8.14.408.667.858 1.306 1.34 1.918 1.291 1.642 2.831 3.08 4.568 4.249.596.401 1.217.768 1.857 1.104 2.474 1.301 5.252 2.1 8.199 2.253.344.018.691.027 1.039.027l.629-.016c2.789-.087 5.435-.748 7.824-1.872.632-.298 1.248-.625 1.843-.985 2.186-1.325 4.098-3.059 5.63-5.095.455-.604.873-1.237 1.258-1.892 1.38-2.348 2.293-5 2.61-7.831.062-.549.098-1.106.114-1.668l.014-.563c-.001-2.47-.456-4.835-1.281-7.019zm-2.877-2.168c-1.41-.22-2.979-.448-4.651-.658-.234-1.894-.505-3.645-.773-5.187 2.209 1.524 4.065 3.522 5.424 5.845zm-5.65 9.492l-.002.369h-9.358v-9.72c3 .092 6.048.389 8.919.724.298 2.709.441 5.676.441 8.627zm-9.36 2.369h9.331c-.085 3-.286 5.848-.616 8.712-2.814.324-5.715.362-8.715.451v-9.163zm7.75-18.851c.322 1.718.702 3.812.998 6.128-2.819-.321-5.748-.577-8.748-.665v-7.524c3 .095 5.399.828 7.75 2.061zm-9.75-2.046v7.479l-.366-.004c-2.949 0-5.832.202-8.546.495.265-2.041.492-3.899.781-5.477 2.434-1.436 5.131-2.325 8.131-2.493zm-9.065 9.67c2.764-.31 5.673-.527 8.699-.527l.366.004v9.75h-9.589l-.002-.369c0-3.026.216-6.094.526-8.858zm-.497 11.227h9.562v9.194l-.366.004c-2.951 0-5.839.016-8.547-.282-.34-2.921-.562-5.916-.649-8.916zm-.36-17.098c-.223 1.33-.445 2.801-.642 4.371-1.336.168-2.596.354-3.764.543 1.16-1.894 2.658-3.557 4.406-4.914zm-7.086 14.479c0-2.732.607-5.352 1.688-7.682 1.365-.238 2.899-.493 4.556-.708-.293 2.714-.495 5.697-.495 8.646l.002.362h-5.737l-.014-.618zm.142 2.619h5.636c.083 3 .343 5.845.669 8.714-1.028-.131-2.007-.162-2.934-.307-1.791-2.451-2.985-5.407-3.371-8.407zm4.991 9.996c.496.069 1 .136 1.518.2l.177 1.349c-.597-.48-1.162-.998-1.695-1.549zm3.461 2.873c-.115-.793-.178-1.619-.289-2.477 2.655.281 5.438.473 8.312.473l.391-.004v4.685c-3-.174-5.91-1.131-8.414-2.677zm10.414 2.694v-4.731c3-.086 5.749-.331 8.509-.641-.14 1.098-.256 2.15-.403 3.14-2.431 1.336-5.106 2.132-8.106 2.232zm9.865-3.405c.098-.701.194-1.425.287-2.169.879-.11 1.729-.224 2.546-.34-.854.931-1.804 1.771-2.833 2.509zm4.36-4.197c-1.198.183-2.497.48-3.872.656.315-2.809.564-6.617.646-8.617h6.359c-.369 3-1.474 5.582-3.133 7.961zm-3.199-9.961l.002-.369c0-2.874-.192-5.762-.473-8.417 1.99.256 3.824.52 5.395.778.993 2.25 1.549 4.783 1.549 7.397l-.014.612h-6.459v-.001z"/><path fill="#182E4F" d="M543.119 204.146l7.071 7.071-27.373 27.373-11.071 4.299 3.989-11.358 27.384-27.385zm4.243 7.071l-4.243-4.243-25.715 25.715-1.443 3.696 2.132 2.132 3.541-1.574 25.728-25.726z"/><path fill="#182E4F" d="M190.872 219.378l6.011-1.424 2.127-8.137-2.339-2.338-3.102 3.102c-.564.564-1.26.786-1.786.261s-.303-1.221.261-1.785l3.102-3.102-2.266-2.266-8.173 2.091-1.461 5.975-15.196 15.196-5.793 1.279-1.909 7.99 2.266 2.266 2.738-2.738c.564-.564 1.26-.786 1.785-.261s.303 1.222-.261 1.786l-2.738 2.738 2.338 2.338 7.954-1.945 1.242-5.829 15.2-15.197zm-17.64 19.83l-6.333 1.527-.725-.725 1.721-1.721c1.128-1.129 1.368-2.724.267-3.825s-2.697-.861-3.825.267l-1.721 1.721-.653-.653 1.491-6.369 5.335-1.184 15.754-15.754 1.366-5.518 6.552-1.673.653.653-2.086 2.086c-1.129 1.129-1.368 2.724-.267 3.825s2.697.861 3.825-.267l2.086-2.086.725.725-1.709 6.516-5.553 1.33-15.755 15.755-1.148 5.37z"/><path fill="#A28351" d="M300.437 306.676c0-3.984-3.072-7.297-7.969-7.297-3.84 0-6.769 1.873-9.265 4.945l-1.729-1.44c2.736-3.408 6.001-5.713 11.089-5.713 6.337 0 10.417 4.225 10.417 9.409 0 6-4.608 9.169-10.177 9.841l-.432 6h-1.536l-.624-7.776.24-.24c6.338-.144 9.986-3.073 9.986-7.729zm-10.417 24.53v-4.08h3.168v4.08h-3.168z"/><path d="M409.126 316v-9.75l-.366-.004c-3.026 0-5.986.217-8.751.527-.31 2.764-.501 5.833-.501 8.859l.028.369h9.59v-.001z" fill="none"/><path d="M409.126 327.194v-9.194h-9.562c.087 3 .361 5.995.701 8.916 2.708.298 5.544.393 8.495.393.156 0 .366-.114.366-.115z" fill="none"/><path d="M399.204 300.902c-1.748 1.357-3.246 3.02-4.406 4.914 1.168-.189 2.428-.375 3.764-.543.197-1.57.419-3.041.642-4.371z" fill="none"/><path d="M397.867 315.631c0-2.949.202-5.912.495-8.625-1.657.215-3.19.442-4.556.68-1.081 2.329-1.688 4.97-1.688 7.703l.014.612h5.737l-.002-.37z" fill="none"/><path d="M408.76 304.578l.366.004v-7.479c-3 .168-5.671 1.057-8.105 2.493-.289 1.578-.594 3.436-.858 5.477 2.714-.293 5.648-.495 8.597-.495z" fill="none"/><path d="M411.126 316h9.358l.002-.369c0-2.951-.144-5.918-.441-8.627-2.871-.335-5.919-.633-8.919-.724v9.72z" fill="none"/><path d="M420.457 318h-9.331v9.163c3-.09 5.901-.127 8.715-.451.33-2.864.531-5.712.616-8.712z" fill="none"/><path d="M419.843 305.276c-.296-2.315-.613-4.41-.935-6.128-2.352-1.232-4.782-1.965-7.782-2.061v7.524c3 .089 5.898.345 8.717.665z" fill="none"/><path d="M426.136 306.139c-1.359-2.323-3.215-4.321-5.423-5.845.267 1.542.539 3.293.773 5.187 1.671.211 3.24.438 4.65.658z" fill="none"/><path d="M421.479 326.506c1.374-.175 2.674-.25 3.872-.433 1.659-2.379 2.764-5.072 3.133-8.072h-6.359c-.081 1.999-.33 5.695-.646 8.505z" fill="none"/><path d="M427.076 307.978c-1.572-.258-3.405-.535-5.395-.792.281 2.655.473 5.571.473 8.445l-.002.369h6.46c.006 0 .014-.43.014-.619 0-2.613-.556-5.154-1.55-7.403z" fill="none"/><path d="M397.896 318h-5.636c.387 3 1.58 5.845 3.371 8.295.927.145 1.906.398 2.934.53-.327-2.869-.586-5.825-.669-8.825z" fill="none"/><path d="M420.991 330.158c1.028-.738 1.979-1.578 2.833-2.509-.818.116-1.667.23-2.546.34-.093.744-.189 1.468-.287 2.169z" fill="none"/><path d="M397.251 327.996c.532.551 1.098 1.069 1.695 1.55l-.177-1.349c-.518-.064-1.021-.132-1.518-.201z" fill="none"/><path d="M411.126 328.832v4.731c3-.1 5.644-.896 8.075-2.232.147-.99.325-2.042.465-3.14-2.759.31-5.54.555-8.54.641z" fill="none"/><path d="M408.76 328.865c-2.874 0-5.682-.192-8.338-.473.111.858.148 1.684.263 2.477 2.505 1.546 5.44 2.503 8.44 2.678v-4.685l-.365.003z" fill="none"/><path fill="#A28351" d="M429.013 308.307c-.236-.626-.504-1.236-.8-1.83-1.753-3.52-4.517-6.449-7.91-8.41-.612-.354-1.244-.676-1.895-.964-2.279-1.009-4.78-1.601-7.408-1.683l-.629-.016c-.349 0-.695.009-1.039.027-2.789.144-5.427.868-7.799 2.048-.659.328-1.297.692-1.912 1.088-2.926 1.883-5.328 4.51-6.939 7.613-.312.601-.594 1.219-.844 1.854-.893 2.26-1.388 4.719-1.388 7.292l.014.563c.016.562.052 1.118.114 1.668.331 2.955 1.308 5.717 2.791 8.14.408.667.858 1.306 1.34 1.918 1.291 1.642 2.831 3.08 4.568 4.249.596.401 1.217.768 1.857 1.104 2.474 1.301 5.252 2.1 8.199 2.253.344.018.691.027 1.039.027l.629-.016c2.789-.087 5.435-.748 7.824-1.872.632-.298 1.248-.625 1.843-.985 2.186-1.325 4.098-3.059 5.63-5.095.455-.604.873-1.237 1.258-1.892 1.38-2.348 2.293-5 2.61-7.831.062-.549.098-1.106.114-1.668l.014-.563c-.001-2.47-.456-4.835-1.281-7.019zm-2.877-2.168c-1.41-.22-2.979-.448-4.651-.658-.234-1.894-.505-3.645-.773-5.187 2.209 1.524 4.065 3.522 5.424 5.845zm-5.65 9.492l-.002.369h-9.358v-9.72c3 .092 6.048.389 8.919.724.298 2.709.441 5.676.441 8.627zm-9.36 2.369h9.331c-.085 3-.286 5.848-.616 8.712-2.814.324-5.715.362-8.715.451v-9.163zm7.75-18.851c.322 1.718.702 3.812.998 6.128-2.819-.321-5.748-.577-8.748-.665v-7.524c3 .095 5.399.828 7.75 2.061zm-9.75-2.046v7.479l-.366-.004c-2.949 0-5.832.202-8.546.495.265-2.041.492-3.899.781-5.477 2.434-1.436 5.131-2.325 8.131-2.493zm-9.065 9.67c2.764-.31 5.673-.527 8.699-.527l.366.004v9.75h-9.589l-.002-.369c0-3.026.216-6.094.526-8.858zm-.497 11.227h9.562v9.194l-.366.004c-2.951 0-5.839.016-8.547-.282-.34-2.921-.562-5.916-.649-8.916zm-.36-17.098c-.223 1.33-.445 2.801-.642 4.371-1.336.168-2.596.354-3.764.543 1.16-1.894 2.658-3.557 4.406-4.914zm-7.086 14.479c0-2.732.607-5.352 1.688-7.682 1.365-.238 2.899-.493 4.556-.708-.293 2.714-.495 5.697-.495 8.646l.002.362h-5.737l-.014-.618zm.142 2.619h5.636c.083 3 .343 5.845.669 8.714-1.028-.131-2.007-.162-2.934-.307-1.791-2.451-2.985-5.407-3.371-8.407zm4.991 9.996c.496.069 1 .136 1.518.2l.177 1.349c-.597-.48-1.162-.998-1.695-1.549zm3.461 2.873c-.115-.793-.178-1.619-.289-2.477 2.655.281 5.438.473 8.312.473l.391-.004v4.685c-3-.174-5.91-1.131-8.414-2.677zm10.414 2.694v-4.731c3-.086 5.749-.331 8.509-.641-.14 1.098-.256 2.15-.403 3.14-2.431 1.336-5.106 2.132-8.106 2.232zm9.865-3.405c.098-.701.194-1.425.287-2.169.879-.11 1.729-.224 2.546-.34-.854.931-1.804 1.771-2.833 2.509zm4.36-4.197c-1.198.183-2.497.48-3.872.656.315-2.809.564-6.617.646-8.617h6.359c-.369 3-1.474 5.582-3.133 7.961zm-3.199-9.961l.002-.369c0-2.874-.192-5.762-.473-8.417 1.99.256 3.824.52 5.395.778.993 2.25 1.549 4.783 1.549 7.397l-.014.612h-6.459v-.001z"/><path fill="#A28351" d="M543.119 296.146l7.071 7.071-27.373 27.373-11.071 4.299 3.989-11.358 27.384-27.385zm4.243 7.071l-4.243-4.243-25.715 25.715-1.443 3.696 2.132 2.132 3.541-1.574 25.728-25.726z"/><path fill="#A28351" d="M190.872 311.378l6.011-1.424 2.127-8.137-2.339-2.338-3.102 3.102c-.564.564-1.26.786-1.786.26s-.303-1.221.261-1.785l3.102-3.102-2.266-2.266-8.173 2.091-1.461 5.975-15.196 15.196-5.793 1.279-1.909 7.99 2.266 2.266 2.738-2.738c.564-.564 1.26-.786 1.785-.261s.303 1.222-.261 1.786l-2.738 2.738 2.338 2.339 7.954-1.945 1.242-5.829 15.2-15.197zm-17.64 19.83l-6.333 1.527-.725-.725 1.721-1.721c1.128-1.128 1.368-2.724.267-3.825s-2.697-.861-3.825.267l-1.721 1.721-.653-.653 1.491-6.369 5.335-1.184 15.754-15.754 1.366-5.518 6.552-1.673.653.653-2.086 2.086c-1.129 1.129-1.368 2.724-.267 3.825s2.697.861 3.825-.267l2.086-2.086.725.725-1.709 6.516-5.553 1.33-15.755 15.755-1.148 5.37z"/><path fill="#182E4F" d="M0 239.034l8.532-8.5 2.414 2.125-4.654 4.639h16.709v3.472h-16.708l4.482 4.584-2.242 2.18-8.533-8.5z"/></svg>