<svg xmlns:rdf="http://www.w3.org/1999/02/22-rdf-syntax-ns#" xmlns="http://www.w3.org/2000/svg" height="1000.043pt" width="306.34692pt" version="1.1" xmlns:cc="http://creativecommons.org/ns#" xmlns:xlink="http://www.w3.org/1999/xlink" viewBox="0 0 306.34692 1000.043" xmlns:dc="http://purl.org/dc/elements/1.1/"><defs><linearGradient id="linearGradient3750"><stop stop-color="#000000" offset="0"/><stop stop-color="#090909" offset="1"/></linearGradient><linearGradient id="linearGradient3756" y2="2.845" xlink:href="#linearGradient3750" gradientUnits="userSpaceOnUse" x2="163.927" gradientTransform="translate(0.136933,-0.0242977)" y1="529.012" x1="-152.433"/><linearGradient id="linearGradient3761" y2="-195.331" xlink:href="#linearGradient3750" gradientUnits="userSpaceOnUse" x2="317.365" gradientTransform="translate(0.136933,-0.0242977)" y1="295.51" x1="92.9204"/></defs><metadata><rdf:RDF><cc:Work rdf:about=""><dc:format>image/svg+xml</dc:format><dc:type rdf:resource="http://purl.org/dc/dcmitype/StillImage"/><dc:title/></cc:Work></rdf:RDF></metadata><path fill="url(#linearGradient3756)" d="m145.402,0.0454858h9.03c-2.55,4.09-5.09,8.21-7.19,12.55,4.49-0.13,8.95-0.74,13.45-0.87,2.24-3.82,4.69-7.55,6.35-11.68h15.78c-0.78,1.48-1.46,3.02-2.08,4.57,1.98-0.91,2.97-2.86,4.12-4.57h12.4c-1.49,2.06,2.26,2.07,0.83,0h19.26c-43.3,77.11-87.86,153.52-131.98,230.18-14.66,25.03-29.05,50.21-44,75.07,4.56,1.73,9.03,3.81,13.77,5.05,0.82-0.64,1.48-1.42,1.97-2.35,59.78-102.05,118.28-204.85,176.23-307.95h8.81c-33.15,59.2-65.94,118.61-99.68,177.47-27.55,48.65-55.32,97.16-83.28,145.57-1.83,2.93-2.14,6.44-2.66,9.77-1.38,9.45-2.76,18.9-4,28.37,1.42,0.62,2.84,1.24,4.26,1.87-2.08,4.43-4.59,8.63-7.04,12.87-1.56-0.56-3.11-1.12-4.65-1.68,0.18-1.67,0.37-3.33,0.56-4.99-3.48-0.87-6.73-2.6-10.28-3.15-3.95,5.25-6.65,11.32-10.21,16.84-8.19,14.35-16.54,28.61-25.01,42.8v-22.22c2.97-5.54,6.72-10.67,9.07-16.54-4.02,3.82-6.32,8.96-9.07,13.68v-124.1c1.51-0.52,3.25-0.9,3.99-2.49,2.66-4.32,5.41-8.6,7.75-13.09-2.78-3.89-6.44-7.06-9.72-10.53-0.69,1.1-1.36,2.2-2.02,3.31v-17.96c5.59-9.27,11.29-18.48,17.16-27.58,43.27-69.05,85.65-138.66,128.08-208.22m53.65,17.26c3.39-0.19,3.91-4.58,4.8-7.21-2.54,1.6-3.39,4.72-4.8,7.21m-9.8-5.09c-0.53,1.64,0.02,2.18,1.64,1.64,0.53-1.63-0.02-2.18-1.64-1.64m-13.99,1.06m-30.06,2.02c-0.2,2.38,2.41,3.76,3.73,5.43,2.3-0.86,4.77-1.03,7.13-1.71,1.35-1.32,2.12-3.1,3.11-4.68-4.66,0.2-9.37,0.13-13.97,0.96m42.29,0.91c-0.58,1.63-0.05,2.19,1.58,1.71,0.57-1.64,0.04-2.21-1.58-1.71m-18.41,9.05c2.25-1.93,3.53-4.65,4.9-7.21-3.15,0.53-4.3,4.47-4.9,7.21m-27.45-2.99c1.49-0.29,2.99-0.59,4.48-0.92-0.72-1.03-1.47-2.05-2.21-3.07-1.02,1.17-1.78,2.52-2.27,3.99m9.95,2.31c1.2,1.34,3.34-0.77,2.18-2.02-1.21-1.05-3.54,0.71-2.18,2.02m-5.9-0.17c-3.04,0.74-7.4,0.77-8.22,4.57,1.34,4.04,4.16,7.38,5.84,11.28,2.93-4.23,5.7-8.6,7.98-13.21-0.89-2.12-3.38-3.43-5.6-2.64m34.65,3.93m-49.97,12.23c3.1,0.44,6.21-0.13,9.29-0.46-1.02-2.82-2.43-5.48-3.9-8.09-2.13,2.63-3.76,5.6-5.39,8.55m48.15-8.26c-1.28,0.79-0.28,3.48,1.16,2.18,1.38-0.8,0.32-3.55-1.16-2.18m11.93-0.2c-1.33,0.2-2.01,2.8-0.37,3.02,1.38-0.12,1.99-2.83,0.37-3.02m-27.03,0.84c-1.01,0.42-1.83,2.58-0.33,2.87,1.97,0.29,2.8-3.88,0.33-2.87m-35.07,10.6c-0.33,2.6,3.2,3.66,4.69,5.38,1.6-1.71,3.19-3.48,4.26-5.59-2.97-0.41-6-0.32-8.95,0.21m40.04,7.39c2.79-0.14,3.06-3.96,2.67-6.09-1.33,1.82-2.14,3.92-2.67,6.09m-41.99-4.23c-0.72,1.4-1.32,2.89-2.29,4.15-3.38,4.18-5.8,9.02-8.61,13.58-1.61,2.77-3.55,5.4-4.55,8.48,5.07-1.25,10.39-1.93,15.24-3.82,3.28-4.84,6.08-10.01,8.98-15.08-2.89-2.48-5.45-5.38-8.77-7.31m55.02,1.5c-1.13,0.18-2.07,2.59-0.53,2.77,1.06-0.22,2.03-2.58,0.53-2.77m-28.12,1.99c-0.46,1.45,0.01,1.89,1.4,1.32,0.46-1.44,0-1.88-1.4-1.32m6,18.12c1.74-2.05,2.54-4.63,2.63-7.28-1.9,1.96-3.08,4.49-2.63,7.28m-16.09-0.13c1.04,1.66,2.27,3.2,3.8,4.45,0.44-1.12,0.88-2.25,1.3-3.38-1.62-0.7-3.3-1.38-5.1-1.07m-11.9,8.71c3.04-0.69,3.81-4.56,4.97-7.06-2.46,1.69-3.64,4.51-4.97,7.06m7.57-1.59c1.77-0.64,4.49,0,5.54-1.92-0.82-1.13-1.72-2.21-2.61-3.28-1.13,1.64-2.14,3.37-2.93,5.2m-28.88,1c-1.8,0.18-3.31,1.98-3.44,3.67,1.94,4.46,4.15,8.84,6.62,13.05,1.73-7.36,7.7-12.77,10.24-19.81-4.48,0.99-8.95,2.06-13.42,3.09m26.36,2.7c-1.52,2.38-3.02,4.78-4.07,7.41,2.24-0.13,4.49-0.32,6.73-0.53,1.67-2.78,3.37-5.55,4.77-8.47-2.5,0.41-4.98,0.94-7.43,1.59m13.17,2.24c-1.41,0.86-0.34,3.76,1.26,2.41,1.52-0.83,0.35-3.9-1.26-2.41m11.89,1.16c-0.91,1.2-0.72,1.95,0.59,2.24,0.91-1.2,0.72-1.95-0.59-2.24m-70.92,23.719c-4.12,6.6-8.62,13.02-12.01,20.03,6.11-1.32,12.17-2.86,18.2-4.5,4.40999-7.58,9.02999-15.04,13.54-22.57,0.62-1.15,1.66-2.5,0.75-3.81-2.08-4.16-3.95-8.47-6.53-12.36-4.65999,7.73-9.74999,15.22-13.95,23.21m34.94-20.0295m-1.84,3.26c-1.04,0.46-2.05,2.71-0.47,3.12,1.73,0.17,2.74-3.89,0.47-3.12m-6.3,12.72c1.92-2.4,3.53-5.05,4.64-7.92-2.58,1.66-4.33,4.89-4.64,7.92m22.16-0.93c2.03-1.01,2.21-3.38,2.53-5.35-1.93,1.01-3.19,3.16-2.53,5.35m-14.18-3.09c-2.04,2.82-3.92,5.83-5.2,9.08,0.44,1.85,1.59,3.84,3.77,3.7,2.48-2.53,3.74-6.04,5.73-8.97-1.35-1.33-2.47-3.11-4.3-3.81m26.29,1.2c-1.09,0.65-0.46,3.34,0.89,2.06,1.11-0.67,0.52-3.32-0.89-2.06m-38.75,8.45c-2.16,3.88-4.71,7.53-6.61,11.55,2.08-0.47,2.76-2.64,3.8-4.23,1.9-3.65,4.68-6.89,5.74-10.93-1.4,0.81-2.13,2.29-2.93,3.61m1.14,9.64c1.72-0.54,4.13-0.38,4.98-2.34,1.52-1.56,0.05-3.38-0.71-4.86-1.64,2.27-3.05,4.69-4.27,7.2m20.76,2.04c3.52-0.34,4.36-4.49,4.34-7.4-1.73,2.29-3.24,4.75-4.34,7.4m-6.52,0.8c2.55-0.9,3.08-4.26,3.12-6.64-1.31,1.94-4.15,4.11-3.12,6.64m-19.23,5.8c3.55-0.92,8.68-0.93,9.23-5.59-4.18-0.97-8.46,1.19-9.23,5.59m25.63-2.1-1.34-0.89-0.17,1.02,1.31,0.07c-2.22,3.7-2.7,8.05-2.97,12.26,2.32-4.5,3.63-9.47,4.9-14.35-0.43,0.47-1.3,1.42-1.73,1.89m-33.3,4.17c1.93-1.12,2.75-3.27,3.68-5.17-2.24,0.77-2.93,3.17-3.68,5.17m-24.08,1.84c-1.73,0.23-2.65,1.76-3.33,3.2,1.71,4.98,4.54,9.51,6.71,14.31,2.03-1.72,3.08-4.22,4.44-6.44,2.89-5.09,6.2-9.95,8.84-15.18-5.59,1.19-11.16,2.53-16.66,4.11m29.02-0.09c-1.73,3.09-3.77,6-5.39,9.15,0.31,2.08,3.27,1.94,4.69,3,3.1-4.44,5.9-9.13,8.26-14.01-2.54,0.53-5.06,1.18-7.56,1.86m16.73,10.49c0.44-0.18,1.31-0.53,1.75-0.7,2.08-2.92,4.14-6.15,4.25-9.85-2.9,2.84-5,6.62-6,10.55m-5.6-2.24c3.04-0.65,3.51-4.66,3.66-7.24-1.51,2.17-4.01,4.4-3.66,7.24m-46.33-0.22c-5.09,7.96-9.92,16.09-14.86,24.15-3.34,6.89-8.68,12.61-11.68,19.71,4.96-0.9,9.79-2.39,14.69-3.57,1.89-0.59,4.37-0.69,5.26-2.8,4.79-8.2,9.94-16.2,14.55-24.49-1.55-4.11-3.76-7.94-5.68-11.89-0.37-0.8-1.53-3-2.28-1.11m21.32,4.26c-2.65,4.64-5.8,9.01-8.07,13.87,2.07-0.37,2.6-2.66,3.65-4.16,2.68-5.06,6.18-9.67,8.45-14.94-2.01,1.12-2.78,3.42-4.03,5.23m22.41-0.96c-2.55,0.38,0.57,4.85,1.18,1.93,2.77-0.79-0.31-5.37-1.18-1.93m-26.52,19c-1.61,2.42,0.98,4.89,3.12,5.72,3.99-5.64,7.33-11.75,10.66-17.79-0.61-2.07-1.80999-3.89-2.89999-5.73-4.2,5.55-7.31,11.84-10.88,17.8m33.07-5.75c1.4-3.13,2.45-6.41,3.27-9.73-0.13-0.42-0.39-1.28-0.52-1.7-2.88,3.03-2.53,7.55-2.75,11.43m-5.65-2.98c-0.04,0.07-0.11,0.2-0.15,0.26-1.54,2.48-2.86,5.11-3.33,8.02l1.83-0.26c-0.59,1.41-2.85,4.04-0.27,4.83,0.6-1.78,1.18-3.56,1.76-5.35-0.27-0.19-0.8-0.56-1.07-0.75,1.36-3.66,4.42-6.79,4.11-10.98-1.13,1.29-2.07,2.73-2.88,4.23m-8.18,1.64c0.48,0.61,0.95,1.23,1.43,1.84,1-1.86,1.72-3.9,1.21-6.03-0.93,1.37-1.79,2.77-2.64,4.19m-2.98,5.16c-0.86,1.16-0.95,2.36-0.29,3.61,2.17,0.71,2.86-4.8,0.29-3.61m-24.65,4.6c-2.26,3.81-4.65,7.55-6.66,11.5,2.09-0.49,2.81-2.66,3.87-4.27,2.05-3.72,4.71-7.13,6.21-11.13-1.66,0.76-2.51,2.42-3.42,3.9m1.38,9.4c2.83-0.07,5.11-1.51,6.21-4.13-0.54-1.12-1.09-2.24-1.63-3.36-1.9,2.25-3.22,4.9-4.58,7.49m22.73,0.09c3.47-0.19,3.91-3.97,4.19-6.68-2.08,1.73-3.27,4.19-4.19,6.68m-6.30999-2.95c-0.03,0.05-0.1,0.15-0.14,0.2-0.8,1.19-1.36,2.48-1.67,3.87-0.01,0.12-0.05,0.36-0.06,0.48l1.25,0.41c0.43-0.42,1.28-1.26,1.7-1.68,0.02-0.03,0.05-0.1,0.07-0.13,0.87-1.71,0.87-3.66,0.96-5.53-0.76,0.74-1.46,1.54-2.11,2.38m-20.7,9.73c2.3-0.38,4.6-0.83,6.82-1.56,1.74-0.08,2.38-2.07,0.41-2.49-2.87,0.25-6.3,0.87-7.23,4.05m24.83-2.6c0.26,2.32-0.49,4.55-0.59,6.82-1.54999,0.34-1.85999,1.2-0.94999,2.58-0.13,1.6-0.24,3.2-0.309996,4.8,0.429986-0.75,1.28999-2.24,1.72999-2.99,0.02-0.07,0.07-0.2,0.09-0.27,0.53-1.82,1.35-3.6,1.43-5.51l0.89-0.17,0.41-1-0.52-0.79c0.52-0.96,1.01-1.94,1.46-2.93-0.81-0.92-3.23-2.81-3.64-0.54m-31.25,1.74c-1.31,0.11-1.99,2.74-0.33,2.81,1.47-0.01,2.16-2.86,0.33-2.81m22.85,0.04c-1.08,0.67-0.33,3.41,0.94,1.98,1.1-0.73,0.47-3.34-0.94-1.98m-50.35,7.38c-1.78,0.35-2.46,2.24-3.53,3.47,2.11,5.17,4.54,10.21,6.88,15.27,2.77-3.4,4.68-7.39,7.1-11.03,2.4-4,5.17-7.83,6.87-12.21-5.79,1.43-11.57,2.94-17.32,4.5m31.4-2.55c-1.71,3.02-3.78,5.85-5.31,8.98-0.3,2.34,1.66,4.31,2.93,6.11,3.71-5.53,7.1-11.29,10.3-17.13-2.67,0.55-5.31,1.24-7.92,2.04m16.82,10.35c0.55,0.01,1.66,0.04,2.22,0.05,2.12-2.83,3.9-6.14,3.69-9.8-2.49,2.9-4.16,6.38-5.91,9.75m-6.94-0.7c0.35,0.37,1.05,1.12,1.4,1.49,1.6-2.53,2.88-5.3,3.1-8.32-2.21,1.68-3.52,4.29-4.5,6.83m-28.18,10.4c3.54-3.43,5.49-8.18,7.93-12.4-3.5,3.42-5.56,8.14-7.93,12.4m-39.05,22.92c-2.15,4.96-6.27,8.76-8.05,13.91,6.42-1.18,12.7-3.02,18.97-4.8,5.63-9.01,10.91-18.24,16.63-27.2-2.46-4.92-4.16-10.25-7.3-14.8-6.77,10.95-13.64,21.84-20.25,32.89m64.98-27.02c1.67,0.39,2.65-3.13,0.98-3.71-1.39,0.43-1.67,2.59-0.98,3.71m7.44,10.36c1.44-4.18,3.09-8.33,3.85-12.7-3.85,2.82-4.7,8.32-3.85,12.7m-35.44,7.67c-1.96,2.37,0.27,5.89,3.05,6.25,3.73-6.05,7.3-12.19,11.06-18.21,0.63-1.28,1.72-2.49,1.58-4-1.12-1.46-3.18-1.56-4.74-2.32-3.78,6.02-7.27,12.2-10.95,18.28m25.91-4.39c-0.28,1.11-0.91,3.17,1.11,3.15-0.13,0.56-0.37,1.67-0.49,2.23,2.52,0.23,1.02-2.38,0.72-3.73,2.11-3.53,4.84-7.04,4.67-11.38-2.42,2.96-4.23,6.36-6.01,9.73m-3.56-7.44c-1.31,0.37-1.42,2.81,0,3.11,1.51-0.18,1.58-3.04,0-3.11m-22.92,0.91m19.71,4.37c-1.26,0.9,0.12,3.43,1.51,2.43,1.01-0.94-0.15-3.24-1.51-2.43m-22.86,0.76c-0.47,1.43,0,1.89,1.39,1.36,0.47-1.42,0-1.88-1.39-1.36m19.82,8.54c0.97-1.24,1.89-2.52,2.78-3.8-0.32-0.51-0.95-1.52-1.27-2.02-1.41,1.6-1.36,3.8-1.51,5.82m-24.7,0.55m32.95,0.9m-6.22,5.99c2.39-0.52,2.28-3.18,2.7-5.07-1.48,1.33-2.6,3.02-2.7,5.07m-28.85-4.07m7.31-0.52c-1.46,2.41-3,4.8-3.9,7.49,2.57-0.26,4.63-1.71,5.83-3.97-0.45-1.27-0.82-2.65-1.93-3.52m11.75,6.94c0.93-0.2,1.85-0.4,2.77-0.6,0.21-1.35,0.42-2.7,0.59-4.06-1.74,1.03-2.47,2.96-3.36,4.66m6.18,1.71c0.05,1.67-1.6,4.62,1.41,4.32-2.96,3.46-3.21,8.12-3.47,12.44,0.7-1.3,1.76-2.59,1.56-4.16l0.9-0.12,0.48-0.96-0.44-0.8,0.08-1.08,0.9-0.19,0.4-1-0.51-0.77c0.88-1.72,1.41-3.74,0.44-5.55l0.28-0.79c0.02-0.07,0.07-0.2,0.1-0.27l0.6-1.58c-0.68,0.13-2.05,0.38-2.73,0.51m-9.18,2.58c-0.28,1.32-0.54,2.65-0.79,3.98,2.17,0.22,3.72-4.09,0.79-3.98m-18.18,5.04c-2.34,2.88-4.07,6.24-5.84,9.49,0.05,2.03,1.36,3.82,2.18,5.63,0.29-0.11,0.87-0.32,1.17-0.43,3.53-5.39,6.82-10.96,9.86-16.65-2.48,0.55-5.01,1-7.37,1.96m-34.05,5.34c-1.8,0.11-2.33,2-3.16,3.27,3.45,3.35,6.55,7.04,10.06,10.31,3.53-6.06,7.63-11.79,10.82-18.04-5.94,1.33-11.81,3-17.72,4.46m51.18,5.42c4.18,0.59,4.43-5.07,4.94-7.98-2.14,2.32-3.58,5.16-4.94,7.98m-8.76,1.85c0.38,0.14,1.15,0.42,1.54,0.55,1.77-2.18,2.93-4.84,3.08-7.67-2.28,1.75-3.83,4.38-4.62,7.12m6.78,3.75,2.03-0.02c-0.79,1.22-1.53,2.47-2.24,3.74-1.06,2.56-1.73,5.77-0.19,8.27,0.05-0.52,0.16-1.58,0.21-2.11,1.29-3.52,2.28-7.14,3.68-10.63-0.45,0.03-1.34,0.08-1.79,0.1-0.11-0.68-0.33-2.03-0.44-2.7-0.44,1.11-0.85,2.23-1.26,3.35m-33,12.91c1.12,1.7,2.91,2.57,4.82,3.1,2.42-3.72,4.65-7.56,6.93-11.38,1.84-2.64-1.06-5.31-1.95-7.73-3.5,5.19-6.37,10.77-9.8,16.01m24.27-14.11c-0.86,1.19-0.98,2.42-0.35,3.72,2.07,0.59,2.93-5.05,0.35-3.72m-0.65,15.03c-1.76-1.2-3.2,2.85-0.95,2.79l-0.05,1.44c3.11-3,4.92-7.16,5.78-11.34-2.41,1.67-3.44,4.61-4.78,7.11m-30.81-0.78m23.48-0.15c-1.28,0.51-2.24,2.39-1.38,3.62,1.78,0.89,3.52-3.4,1.38-3.62m-25.28,2.85m7,0.87c-0.81,0.95-1.49,2-2.19,3.04,1.35,0.14,2.68,0.11,4.01-0.1,0.69-1.17-0.2-3.62-1.82-2.94m14.32,2.34c-0.88,1.16-1,2.39-0.38,3.69,2.02,0.65,3-5.11,0.38-3.69m8.69,4.22c-0.16,0.41-0.48,1.24-0.64,1.65,1.42,3.33,3.88-3.26,0.64-1.65m-28.13,1.53c-2.36,3.45-4.41,7.11-6.22,10.88,2.09,0.59,4.78,1.42,6.55-0.33,2.5-3.65,4.74-7.5,6.71-11.46-2.27-0.29-5.49-1.46-7.04,0.91m23.09,2.11c-1.37,0.76-1.46,1.46-0.26,2.11,1.36-0.76,1.45-1.46,0.26-2.11m-33.02,2.05m23.07,0.92c-1.31,0.78-1.35,1.49-0.13,2.12,1.32-0.78,1.37-1.49,0.13-2.12m3.87,7.86c0.13,1.45,0.5,2.88,0.48,4.35-0.02,0.09-0.07,0.27-0.09,0.37-0.89,1.47-1.51,3.06-1.63,4.8,3.28-0.9,2.8-5.28,4.05-7.89l-2.11,0.33c1.18-2.16,2.81-4.25,2.86-6.82-1.68,1.17-3.09,2.82-3.56,4.86m-6.99-1.72m-2.85,2.97c-0.54,1.59,0.02,2.17,1.67,1.74,0.54-1.6-0.02-2.18-1.67-1.74m-20.37,10.72c1.51-2.19,2.97-4.44,4.1-6.85-2.87,0.49-5.38,4.09-4.1,6.85m3.12,1.24c2.53-1.25,3.96-4.09,4.66-6.69-0.38-0.11-1.15-0.32-1.53-0.42-1.61,1.97-2.58,4.6-3.13,7.11m32.08,4.3c-3.31,6.4-7.4,12.4-10.69,18.81-1.46,7.15-1.65,14.53-3.21,21.69,1.67,0.62,3.35,1.25,5.02,1.89-0.31-4.33,3.54-7.15,4.25-11.19,1.18-0.74,3.03-1.01,3.18-2.69,0.64-2.74,1.75-5.37,3.89-7.27,0.14,0.75,0.42,2.26,0.56,3.01,4.28-6,7.32-12.77,11.3-18.97-4.68-1.97-9.41-3.86-14.3-5.28m4.84,46.25c1.33,0.28,2.66,0.57,4,0.85,0.41-2.58,0.72-5.17,0.86-7.77-2.47,1.59-3.76,4.3-4.86,6.92m-29.42-4.34c-0.93,0.75-2.04,2.3-1.15,3.46,1.98,1.16,3.6-4.67,1.15-3.46m9.58,8.07c-0.06,0.74-0.17,2.2-0.23,2.94-0.55,0.08-1.65,0.26-2.2,0.34-2.83,5.13-5.87,10.14-8.7,15.27-0.82,1.29-0.86,2.83-0.83,4.32,2.4-1.79,3.32-4.72,4.76-7.2,3.74-6.01,7.51-12.01,10.84-18.26-1.07,1.07-2.03,2.34-3.64,2.59z"/><path fill="url(#linearGradient3761)" d="m145.567,0.00292,11.32,0c-0.27,1.17-0.68,2.35-0.57,3.57,1.85,1.3,4.30001,2.72,6.56,1.52,0.95-1.61,1.59-3.39,2.4-5.09h1.82c-0.84999,2.47-2.46,5.2-1.19,7.82,2.77,1.87,6.01,2.85,9.12,3.97,1.53-3.9,2.85-7.88,4.35-11.79h0.36001c-1.46001,3.93-3.24,7.78-4.21001,11.88,0.6,0.41,1.8,1.24,2.41,1.65,1.92-4.37,3.66-8.84,4.66-13.53h6.77001c-1.40001,3.12-2.71001,6.56-1.37,9.96,1.94999-3.07,2.87999-6.61,4.19999-9.96h34.75c0.93,1.79,0.03,5.91,2.73003,5.87,0.96997-1.82,0.95996-3.9,0.54996-5.87h76.12c-1.78,3.42-4.35,6.46-7.43,8.76-3.82,0.84-7.73,1.04-11.59,1.62-0.26,1.06-0.51,2.12-0.76,3.17-1.08,1.44-2.03,2.99-2.46,4.75-5.15,18.6-10.71,37.09-16.07,55.63-2.64,9.33-5.86,18.51-8.03,27.95,1.44,4.13,4.07,7.74,6.17,11.56,3.23,1.68,4.47,5.28,6.07,8.3,1.08,1.62,0.28,3.53-0.07,5.24-27.56,99.89-56.04,199.51-84.4,299.17,19.53,2.69,39.04,5.48,58.59,8.07-0.12,2.26-0.3,4.52-0.54,6.78-19.99-2.47-39.88-5.72-59.88-7.97-7.52,23.79-13.92,48.02-21.2,71.92-1.04001,3.84-2.56001,7.58-3.02001,11.56-0.58,19.86-1.36,39.71-2.42,59.55-0.15,2.98,0.34,5.95,0.32,8.93-2.27,50.33-4.43,100.67-6.55,151-1.2,27.39-2.05,54.8-3.91,82.15-0.53,20.5-1.44,40.99-2.16,61.48,0.71,0.09,2.14,0.26,2.85,0.34,0.13,5.21-1.75,10.06-3.31,14.94,48.17,5.51,96.42,10.4,144.58,16.05-0.05,2.65-0.3,5.3-0.8,7.91-28.49-3.16-56.98-6.32-85.49-9.27-19.63-2.06-39.22-4.5-58.87-6.29-1.36,32.23-2.54,64.47-3.93,96.7h-5.7c0-1.78996,0.01-3.56996,0.01-5.32996-2.79,1.3-5.64,2.72-7.46,5.32996h-5.54c0.66-14,1.74-27.98,1.94-41.99-18.26,4.6-36.35,9.84-54.47,14.94-3.03,0.93-6.21,1.42-9.08,2.8-1.92,5.87-3.64,11.84-4.91,17.9,4.54,2.05,8.93,4.42,13.52,6.34998h-7.37c-2.45-1.37998-4.98-2.66998-7.74-3.27998,1.3,1.21,2.7,2.33,4.22,3.27998h-37.2c2.25-7.21998,4.36-14.4899,6.34-21.7799-3.38,0.68-10.9962,20.928-14.3362,21.808-4.53278-0.093-6.1109-0.047-14.001,0.012-0.015783-137.333,0.287447-628.719-0.2598-714.784,11.5-28.06,68.1566-114.046,79.2766-142.266-0.52-1.04-1.04-2.09-1.55-3.13,0.44-1.14,0.9-2.27,1.36-3.4,4.58-2.6,9.33-5.13,14.65-5.69,5.67-14.87,11.81-29.54,17.63-44.35,11.21-28.88,23.15-57.48,34.2-86.42m73.04,10.5603c2.14-0.759998,4.24-1.63,6.3-2.58-0.37-1.86-0.75-3.72-1.12-5.59-3.81,0.86-5.15,4.66-5.18,8.17m-64.82-3.08004c0.1,4.2,1.94,8.05,3.33,11.93,2.26-2.56,2.92-6.02,3.91-9.19-2.32-1.15-4.7-2.2-7.24-2.74m9.16,3.84c-0.71,1.89-1.51,3.73-2.16,5.64-0.55,1.57-1.09,3.15-1.71,4.7-1.28,2.28-0.31,5.19,1.82,6.57-0.01-0.82-0.02-2.47-0.02-3.3l0.99,0.55,0.06,0.28c0.86-0.25,1.72-0.5,2.59-0.74,0.78,3.42,3.13,6.41,3.05,10.02-2.72,2.42-3.05,6.08-1.14,9.12,1.8-3.75,3.36-7.65,4.09-11.76,2.66-4.79,4.39-10.12,5.7-15.4-4.37-2.01-8.65-4.3-13.27-5.68m-13.34,3.61c-0.87,2.06-1.94,4.16-1.7,6.47l0.98-2c0.51,0.64,1,1.29,1.5,1.95-0.78,2.05-1.63,4.07-2.45,6.09-0.7-0.83-1.35-1.69-2-2.54-0.39,0.67-1.16,2.01-1.55,2.68,0.52,0.18,1.57,0.56,2.1,0.75-1.87,3.37-3.32,7-4.3,10.72,0.33,2.88,3.85,5.83,6.68,3.9,2.19-5.63,4.47-11.23,6.41-16.95-1.51-3.33-1.76-7.33-4.28-10.12l0.29,2.94c-0.43,0.12-1.29,0.37-1.72,0.49,0.24-1.46,0.25-2.92,0.04-4.38m67.52,1.4c-1.25-0.07-2.25,2.4-0.54,2.39,1.21,0.04,2.19-2.33,0.54-2.39m50.67,0.59c-0.68,2.16,1.96,3.4,3.31,4.56-0.61-1.83-0.26-5.75-3.31-4.56m-45.62,1.2c-1.44,0.07-1.98,2.73-0.29,2.81,1.49,0,2-2.77,0.29-2.81m18.27,0.15c-1.33,1.51,1.38,2.14,2.16,1.03,1.67001-1.51-1.44-2.52-2.16-1.03m12.7,1.89c-0.54,1.63,0,2.19,1.63,1.66,0.53-1.64-0.01-2.19-1.63-1.66m-71.11,0.12c-1.89,5.25-4.15,10.38-5.6,15.76,0.15,0.47,0.47,1.42,0.63,1.89,1.76,0.55,1.89-1.3,2.38-2.48,1.15-3.53,2.59-6.97,3.72-10.52,0.81-1.67,0-3.38-1.13-4.65m12.6,5.43c-1.67,3.02-2.67,6.37-3.37,9.74,4.09-2.18,7.83-4.94,11.6-7.62,1.83-1.24,1.15-3.68,0.53-5.38,0.63-0.02,1.87-0.04,2.5-0.05-0.16-0.23-0.46-0.69-0.61-0.92-3.58,1.29-7.55,1.95-10.65,4.23m20.06,0.85c2.23-1.22,5.28-2.79,4.33-5.92-2.27,1.29-6.14,2.61-4.33,5.92m-3.49-0.55c-1.11,0.23-1.89,2.55-0.43,2.77,1.17-0.16,1.94-2.6,0.43-2.77m52.89,2.75c1.85-0.43,4.01-0.63,5.1-2.42-2.25-0.19-4.96-0.55-5.1,2.42m-27.06-0.36c-1.38,2.68-0.46,5.81,1.73,7.75,0.78-2.1,1.41-4.24,1.96-6.4-1.24-0.45-2.47-0.9-3.69-1.35m5.86001,1.45c-0.73001,2.43-1.43001,4.87-2.06001,7.33,3.86001-1.65,10.22-1.03,11.29-6.11-3.07-0.47-6.15-0.85-9.23-1.22m-92.62,17.84c2.72,2.33,5.45,4.67,8.07,7.12,0.29-0.44,0.86-1.32,1.15-1.77-0.53,2.06,0.49,3.59,2.37,4.37,1.49-2.93,2.32-6.19,0.9-9.34-0.41,0.45-1.22,1.36-1.63,1.81,0.31-1.57,0.96-3.21,0.37-4.8-1.56-5.01-3.37-9.95-4.95-14.96-3.56,5.11-5.11,11.5-6.28,17.57m45.39-10.6c1.58-0.49,3.13-1.08,4.68-1.69,0.13-0.59,0.38-1.76,0.51-2.35-1.93,1.08-3.92,2.18-5.19,4.04m66.41-2.12c-0.87,2.9-1.79,5.8-2.12,8.83,1.66,0.05,3.33,0.09,5,0.13,1.15-3.63,2.34-7.26,3.06-11-2,0.62-3.98,1.32-5.94,2.04m-12.82,7.04c-0.14-0.49-0.41-1.49-0.54-1.99-1.41,0.77-4.13,0.61-3.79,2.85,1.78,1.29,4.35,0.37,6.45,0.79,0.48-1.57,0.97-3.15,1.43-4.73-2.11-0.14-3.23,1.12-3.55,3.08m-75.07-0.34c-1.27,3.77-2.77,7.45-4.07,11.21-0.89,1.69,0.26,3.42,0.76,5,2.33-3.97,3.58-8.49,4.96-12.86,0.71-1.45-0.5-2.71-1.65-3.35m13.46,4.07c-2.03,3.03-2.72,6.76-3.54,10.26,3.11-1.7,6.04-3.7,8.94-5.72,2.85-1.81,3.2-5.51,4.26-8.43-3.24,1.2-6.78,1.92-9.66,3.89m-47.54-0.93c1.02,3.5,2.03,7.04,3.78,10.26,0.83-1.73,1.61-3.48,2.37-5.24-1.83-1.92-3.67-3.95-6.15-5.02m62.7,6.34,0.89-1.53c0.69,0.55,1.38,1.11,2.07,1.68,0.66001-1.38,0.24-2.33-1.28-2.84,0.27-0.65,0.79-1.95,1.05-2.6-2.63,0.33-2.48,3.32-2.73,5.29m28.37-4.17c-1.81997,4.64-3.27999,9.43-4.59999,14.23,1.57-0.48,3.15002-0.99,4.72999-1.51,0.91-3.61,2.46-7.05,3.1-10.73,0.47-1.99-1.78-3.4-3.23-1.99m6.84-0.13c0.96,3.14,1.93,6.28,2.98,9.39,2.51001-0.36,4.36001-1.83,4.62001-4.44,0.08,0.63,0.24,1.89,0.33,2.52,0.69-0.31,2.09-0.93,2.79-1.24-1.7-2.38-3.94-4.29-5.81-6.52-1.64001,0.08-3.28001,0.17-4.91001,0.29m-100.56,3.85c-2.97,7.39-5.8,14.83-8.74,22.23-0.6,1.6-1.54,3.81,0.28,4.99,1.41,1.34,3.76,3.85,5.59,1.73,2.23-4.43,3.48-9.26,5.5-13.79,0.58-1.85,1.98-3.82,0.98-5.79-1.13-3.15-1.94-6.45-3.61-9.37m7.99,10.36c1.7,5,3.32,10.04,5.24,14.96,0.74-1.35,1.49-2.72,2.23-4.08-1.22,2.97-2.88,6.48-0.13,9.21,2.81-6.16,5-12.62,7.07-19.06-3.46-4-7.85-7.44-11.94-10.91-1.1,3.15-3.71,6.42-2.47,9.88m90.07-7.23c-0.49,1.36-0.94,2.72-1.39,4.09,0.7-0.03,2.1-0.07,2.8-0.09-0.18-1.43-0.46-2.87-1.41-4m-45.2,1.34c-0.31,0.32-0.94,0.96-1.25,1.28,0.84,3.17,5.24-2.59,1.25-1.28m67.89-0.07c-0.44,1.65,0.13,2.27,1.7,1.86,0.44-1.67-0.13-2.29-1.7-1.86m-53.23,1.2c-0.44,1.45,0.03,1.87,1.43001,1.25,0.42-1.44-0.05-1.86-1.43001-1.25m-5,1.84c-0.48,1.29-0.85,2.63-1.01,4.01,0.88-0.86,1.65-1.82,2.29-2.89,0.39-0.02,1.17-0.07,1.57-0.09-0.95-0.34-1.93-0.69-2.85-1.03m5.45,4.31c2.25001-0.89,4.29001-2.33,5.47001-4.49-2.15,0.98-4.82001,1.92-5.47001,4.49m49.79-3.32c-0.79,1.97-1.36,4.01-1.77,6.09,1.84-0.03,3.69-0.08,5.54-0.14,0.15-2.7-1.98-4.33-3.77-5.95m-42.24,7.26c2.68-0.97,2.37-4.44,3-6.72-1.63,1.91-2.31,4.37-3,6.72m29.76-5.45c0.15001,1.69,0.37001,3.49,2.00001,4.43,0.59-1.86,1.08-3.75,1.52-5.65-1.18,0.4-2.35,0.81-3.52001,1.22m-55.67,2.28c-0.56,1.66-0.03,2.19,1.59,1.57,0.56-1.66,0.03-2.19-1.59-1.57m12.56,2.02c-0.08,0.35-0.24,1.05-0.32,1.4,0.42,0.26,1.27,0.77,1.69,1.03-0.88,1.27-2.27,2.19-1.73,3.97,1.87-0.65,3.73-1.33,5.6-2-0.14-0.97-0.28-1.94-0.41-2.91-0.45-0.27-1.33-0.82-1.78-1.09,0.36-0.72,1.07-2.17,1.43-2.89-1.73,0.35-3.32,1.16-4.48,2.49m6.84001,1.8c1.44-0.98,1.82-2.73,2.41-4.27-2.32,0.31-3.01001,2.2-2.41,4.27m29.75-3.78c-3.11,1.4,1.45,2.86,2.65,1.35,1.21-1.62-1.71-2.23-2.65-1.35m-56.24,3.78c-1.13,2.23-1.63,4.71-2.33,7.09,2.06-0.75,4.12-1.5,6.18-2.29,0.76-1.84,1.95-3.43,3.43-4.76-0.53-1.03-1.06-2.07-1.58-3.1-1.96,0.83-4.53,1.06-5.7,3.06m-43.59,17.09c2.81,2.55,5.65,5.09,8.79,7.24,0.84-2.16,1.64-4.32,2.55-6.45-0.42,2.3-1.2,4.51-2.1,6.66,0.71,0.91,1.55,1.71,2.55,2.31,0.8-1.94,1.72-3.86,2.2-5.92-3.14-7.22-4.59-15.06-7.62-22.35-3.06,5.74-5.65,11.98-6.37,18.51m87.45-16.26c0.52,1.87,0.31001,5.7,2.77999,5.93,0.85001-1.84,1.21001-3.85,1.69-5.81-1.48999-0.04-2.97999-0.08-4.46999-0.12m6.94998,0.12c-0.88996,2.65-2.00999,5.26-2.38999,8.05,1.55002,4.3,6.26999,2.03,9.13999,0.52,1.37-1.54,1.43001-3.81,2.17001-5.69-0.20001,1.75-0.41001,3.49-0.62001,5.24,4.85001-0.44,2.27001-5.35,0.81-7.89-3.02999-0.33-6.07-0.18-9.11-0.23m21.48,0.39c-0.12,0.7-0.37,2.1-0.5,2.8,1.86-0.7,4.23-0.83,5.38-2.69-1.64-0.07-3.26-0.1-4.88-0.11m-87.73,0.43c-2.84,7.71-6.09,15.3-8.46,23.17-0.75,1.31,1.58,3.09,1.87,1.04,2.14-5.36,4.4-10.7,6.29-16.15-0.31-2.7,1.28-5.52,0.3-8.06m44.84,6.48c-2,4.29-3.64001,8.75-5.07001,13.25,0.66001-0.19,1.98-0.56,2.63002-0.74,2.14999-4.21,3.16999-9.02,4.56999-13.55-0.53,0.26-1.59999,0.78-2.13,1.04m39.96,2.31c-0.94,3.03-0.18,6.16,1.09,8.99,0.35,0.11,1.05,0.32,1.41,0.43,1.43-3.73,2.5-7.59,3.4-11.48-2,0.59-3.96,1.29-5.9,2.06m-54.28,3.05c1.38,0.49,2.89-0.930001,3.55-2.05-0.81-1.86-4.71,0.2-3.55,2.05m-69.11,0.5c0.66,3.76,2.06,7.33,3.42,10.88,1.21-1.78,2.04-3.77,2.7-5.81-1.98-1.77-3.99-3.5-6.12-5.07m109.91,2.02c0.78,0.94,1.6,1.86,2.43,2.77,0.47-1.56,0.92-3.12,1.3-4.7-1.29,0.56-2.54,1.21-3.73,1.93m-40.09,0.97c0.33,2.42,0.77,4.83,1.48,7.18,1.82-2.71,3.25-5.98,2.29-9.28-1.27,0.69-2.52,1.4-3.77,2.1m-21.25,4.46c-0.06,0.83-0.18,2.49-0.24,3.32,1.84-1.78,2.76-4.17,3.43-6.59-1.49,0.63-7.03,1.94-3.19,3.27m53.28-2.15c1.42002,0.12,2.83999,0.21,4.26999,0.28-0.31-2.53-3.33999-2.22-4.26999-0.28m-113.48,23.93c-0.62,2.04-2.6,4.82-0.25,6.47,1.53,1.23,3.56,3.64,5.55,1.82,2.95-6.38,5.15-13.1,7.68-19.65-1.32-3.75-2.53-7.53-3.83-11.27-3.84,7.17-6.01,15.13-9.15,22.63m19.61-22.48c-1.18,2.7-2.21,5.45-3.27,8.19,1.84,5.79002,3.83,11.52,5.78,17.27,3.42-5.29,4.56-11.65,7.13-17.35-3.11-2.83-6.31-5.55-9.64-8.11m54.56,5.42c1.36-0.07,3.47,1.02,3.76-1.06l-2.16,0.31c0.16-0.96,0.5-2.86,0.67-3.82-2.16,0.45-1.93,2.89-2.27,4.57m40.45-3.45c-0.22,1.27-0.42,2.54-0.62,3.81,1.56002,0.12,3.11999,0.22,4.68999,0.31,0.16-1.36,0.33-2.73,0.51-4.09-1.53-0.02-3.06-0.03-4.57999-0.03m4.81999,0.64c-0.03,0.98-0.09,2.93-0.13,3.91,2.96,0.68,2.61-2.62,3.23-4.44-1.04,0.17-2.07,0.34-3.1,0.53m12.38-0.37c-1.69,0.51-1.37,3.73,0.65,3.03,1.83-0.42,1.26-3.66-0.65-3.03m-46.46,9.56001c-1.17,3.57-3.84,7.2-2.18,11.06,0.53-0.23,1.61-0.7,2.14-0.93,1.96-4.55,3.43-9.33,4.58-14.15-1.8,0.95-3.99,1.84-4.54,4.02001m-55.6-3.31001c-2.64,5.73002-4.49,11.78-6.76,17.66-0.33,1.33-0.04,5.19,2.07,3.62,2.35-5.85,4.55-11.78,6.57-17.75,1.13-1.66001-0.95-2.62001-1.88-3.53001m46.24,2.79c-1.2,1.43002,1.28,2.46002,2.13,1.25002,1.38-1.42002-1.33-2.72002-2.13-1.25002m-8.56,3.68002c-0.53,0.98,0.3,2.04,0.4,3.03,1.08-1.1,1.82-3.12,3.77-2.34l0.11-0.71c-1.42-0.08-3.01-0.95-4.28,0.02m51.67,2.22c-0.55999,4.44-1.30999,9.13,0.02,13.49,0.48-1.67,0.33-3.84,2.32-4.53-3.45-1.6-1.29-5.65-0.73-8.35,5.33,2.3,1.61,9.61,4.63,13.51-0.05-0.85-0.13-2.54-0.18-3.38,1.57-0.71,3.13-1.45,4.59001-2.39-1.55001-0.18-3.10001-0.35-4.64001-0.49-0.71-3.6-1.08-7.4-2.98-10.62-1.83-1.12-2.91,1.3-3.03,2.76m-105.22-1.92c-2.4,6.52-6.15,12.82-6.23,19.93,2.84,2.42,5.74001,4.76,8.75,6.95,1.18-3.3,2.97-6.48,3.42-9.98-1.81-5.68-3.3-11.54-5.94-16.9m111.93,6.45c1.7,0.1,3.39001,0.2,5.10001,0.29-0.8-2.2-1.95-4.24-3.32001-6.13-0.64,1.93-1.23,3.88-1.78,5.84m-54.09-1.64c-0.37,0.67-1.11,2.01-1.47,2.68-0.45-0.31-1.33-0.94-1.78-1.25,0.4,0.34,1.2,1.01,1.6,1.35-0.1,0.82-0.3,2.46-0.4,3.28,0.8,0.27,1.62,0.51,2.45,0.72,1.44-2.01,1.99-5.25-0.4-6.78m33.41,12.15c1.04,0.75,2.13,1.45,3.3,2-0.37-1.93-0.98-3.8-1.74-5.61-0.54,1.2-1.06,2.4-1.56,3.61m-57.26-1.82c-1.39,0.68-1.45,1.35-0.18,2,1.38-0.67,1.44-1.34,0.18-2m98.15-0.02c-1.3,0.88-0.4,3.97,1.28,2.66,1.22-0.86,0.32-3.95-1.28-2.66m-70.45,5.65c-1.43,3.59-2.86,7.19-3.99,10.89,2.18-0.7,4.36-1.45,6.51-2.26,1.41-4.9,3.36-9.63,4.39-14.63-2.51,1.65-5.96,2.83-6.91,6m-79.04-3.81c0.59,3.88,2.03,7.53,3.39,11.19,1.44-1.78,2.66-3.97,2.63-6.31-1.8-1.87-3.96-3.33-6.02-4.88m124.55,6.62c-0.06,0.46-0.17,1.37-0.23,1.83,0.37,0.53,1.11,1.59,1.48,2.11,2.07-3.03,4.56-5.88,4.81-9.75-0.56-0.1-1.68-0.3-2.24-0.4-1.49,1.98-0.78,5.57-3.82,6.21m-101.12-4.79c-0.83,2.36-1.73,4.71-2.52,7.09-1.21,1.7,1.06,2.61,2.04,3.48,0.98-2.15,1.83-4.35,2.65-6.56-0.61-1.41-1.28-2.78-2.17-4.01m-15.18,4.96c-1.17,3.01-2.29,6.03-3.4,9.05,0.76,1.68,0.79,3.92,2.26,5.16,2.84,0.39,5.73,0.47,8.57,1.02,0.85,0.91,1.72,1.81,2.61,2.7,1.02-2.16,1.99-4.37,2.58-6.7,0.86-1.61-1.32-2.17-2.26-2.87-3.19-3.09-6.65-5.92-10.36-8.36m24.13,0.48c-1.24,0.61-2.11,3.28-0.44,3.83,1.4-0.4,1.91-3.36,0.44-3.83m-40.17,13.17c2.76,0.02,5.74,0.92,8.39,0.03,0.16-0.41,0.47-1.23,0.62-1.63-0.94-3.85-2.45-7.53-3.69-11.28-2.59,3.88-3.6,8.58-5.32,12.88m113.08-8.22c2.36-0.06,4.7-0.7,7.08-0.45-0.46-1.33-1.01-2.62-1.64-3.88-2.4,0.7-5.99,0.96-5.44,4.33m-36.89-0.14c-1.42,0.91-0.13,3.64,1.39,2.35,1.52-0.91,0.17-3.86-1.39-2.35m37,3.14c-1.3,1.51,1.46,2.99,2.41,1.53,1.07-1.48-1.48-2.99-2.41-1.53m6.21,4.69c0.05,1.12,0.1,2.23,0.16,3.35,0.6,0.11,1.81,0.33,2.42,0.44-0.28,0.47-0.84,1.4-1.12,1.87,0.47-0.02,1.41-0.06,1.88-0.08l0.76999,1.37c-2.24999,0.41-1.89999,2-0.98999,3.54-1.09,0.91-1.54,2.07-1.36,3.48-0.69-0.75-1.41-1.5-2.11-2.24-0.38,1.05-0.76,2.09-1.13,3.14,1.9,0.83,3.81,2.06,5.97999,1.83,3.31999,0.07,3.50999-4.2,3.64999-6.62-2.74999-3.35-4.69998-7.33-8.14998-10.08m-42.67,10.23c2.43-0.6,4.81-1.36,7.21-2.08,0.89-2.3,1.68-4.64,2-7.09-3.58,2.49-8.52,4.27-9.21,9.17m-56.48-7.15c0.26,1.3,1,1.49,2.23,0.58-0.27-1.3-1.01-1.5-2.23-0.58m14.04,0.06c-0.95,0.78-1.65,2.32-1.13,3.5,1.53,0.42,2.86-3.29,1.13-3.5m26.35,6c0.32,1.37,0.52,2.81,1.18,4.07,2.9-0.33,3.37-3.66,4.14-5.89-1.77,0.62-3.54,1.24-5.32,1.82m-64.9,1.89c-0.39,1.3-0.78,2.6-1.15,3.9,1.65,0.64,3.4,0.89,5.18,0.81,0.52,0.33,1.56,1,2.08,1.33,0.76-1.92,1.44-3.87,1.96-5.86-2.68-0.25-5.38-0.28-8.07-0.18m61.39,0.09c-0.57,1.68-0.05,2.28,1.54,1.8,0.53-1.69,0.02-2.29-1.54-1.8m-53.6,8.89c3.07,3.48,4.95,7.93,8.59,10.92,1.13-2.32,2.11-4.7,3.05-7.1-2.35-4.41-5.08-8.62-7.63-12.92-1.99,2.71-2.7,6.06-4.01,9.1m14.21-7.91c3.12,0.94,0.73,4.88,3.05,6.73,0.62-1.7,2.3-3.48,1.46-5.39-0.62-1.86-3.07-0.88-4.51-1.34m56.36,20.63c0.47-0.13,1.42001-0.38,1.89-0.5,0.82-2.39,1.53001-4.82,1.97-7.31-3.47,1.07-4.65,4.46-3.86,7.81m-61.15-1.48c0.82,0.61,1.64,1.21,2.47,1.81,0.89-2.77,3.17-6.01,0.29-8.48-1.11,2.15-1.99,4.39-2.76,6.67m-32.53,13.78c1.78,0.53,2.8,2.09,3.96001,3.4,0.92999-2.87,2.25-5.59,3.14-8.47,0.54999-2.77-0.69001-5.48-1.32001-8.13-3.09,3.64-3.92,8.83-5.78,13.2m28.58-10.67c-1.78,6.2-4.55,12.05-6.61,18.14-0.44,1.05,0.55,1.84,1.01,2.66,2.23-6.46,4.98-12.74,7-19.26-0.35-0.39-1.05-1.16-1.4-1.54m95.03,3.56-0.39-1.94c-2.40001,0.8-5.96001,1.36-4.59001,4.78,1.54,0.03,3.67,0.75,4.30002-1.23,2.83999,1.25,2.4-2.78,3.12999-4.52-1.28,0.5-1.76,1.84-2.45,2.91m-106.34-0.87c-0.02,4.33,1.81,8.54,3.74,12.35,1.51-3.68,2.87-7.41,4.28-11.14-2.73,0.09-5.4-0.49-8.02-1.21m6.64,17.89c0.94,0.24,1.88,0.48,2.83,0.72,1.95-5.95,4.58-11.66,6.3-17.68-0.47-0.53-1.41-1.59-1.88-2.12-2.93999,6.13-5.08,12.64-7.25,19.08m16.26-9.17c-2.09,5.54-4.71,10.85-6.80001,16.38,3.01-0.39,3.09001-3.91,4.12-6.12,0.94-3.4,3.17-6.61,2.68001-10.26m-35.41,4.02c0.20001,2.84-0.05,5.68-0.15999,8.52,1.77999-1.76,2.43-4.25,3.38-6.49-1.08001-0.68-2.15-1.35-3.22001-2.03m6.05001,2.42c-1.72,4.85-4.70001,9.5-4.33,14.84,1.16999,0.94,2.35,1.88,3.51999,2.83,0.48001-3.28,3.79001-5.42,3.67001-8.84-0.62001-3.03-1.41001-6.08-2.86001-8.83m67.96,7.38c1.64-0.51,3.27-1.04,4.91-1.56,0.13-1.41,0.24-2.81,0.37-4.21-2.53,0.9-6.1,2.44-5.28,5.77m32.7,4.38c-1.53001,2.86,2.46999,3.43,3.76,1.36,0.27999,0.46,0.84999,1.37,1.12999,1.82,0.34-1.26,0.69-2.51,1.06-3.76-1.93999,0.55-4.14-0.05-5.94999,0.58m-77.79,1.14c-1.28,0.68-2.19,2.5-1.67,3.9,1.54,0.47,3.09001-3.28,1.67-3.9m-3.57999,11.53c0.79999-2.01,1.33999-4.12,1.63999-6.27-2.83,0.51-3.68,4.39-1.63999,6.27m-26.51-1.75c3.25,3.05,6.13,6.58,9.96999,8.93,0.59,0.73,1.18,1.47,1.78001,2.21,0.43999-0.99,0.89-1.97,1.34999-2.95-3.24,1.8-2.74-2.53-2.88-4.42-3.47999-2.51-6.82-5.22-10.42-7.55-0.84999,1.24-1.36999,2.86,0.20001,3.78m77.91-0.75c-0.48,1.64,0.08,2.19,1.7,1.64,0.48-1.65-0.09-2.19-1.7-1.64m-9.91999,7.91c3.44999-0.51,6.79999-1.51,10.17-2.43-0.82-1.13-1.75-2.39-3.23-2.62-2.52,1.37-4.87,3.06-6.93999,5.05m53.87-1.22c-0.48001,1.62,0.07,2.2,1.66999,1.75,0.48-1.65-0.07-2.23-1.66999-1.75m-138.58,2.03c-0.88,2.44-1.75,4.89-2.47,7.39,1.89,0.37,3.76,0.87,5.61,1.46,0.87-1.9,1.86-3.8,2.2-5.89-1.08-1.85-3.57-2.04-5.34-2.96m12.94-0.07c1.68,5.3,3.23001,10.95,7.3,14.97,0.69-2.02,1.41-4.02,2.17-6.01-2.99-3.15-5.88-6.47-9.47-8.96m68.7,1.44c-0.47,1.42,0,1.85,1.42,1.3,0.46-1.43-0.02-1.86-1.42-1.3m41.1,1.98c-1.42,0.61-1.5,1.27-0.23,1.98,1.4-0.61,1.48-1.27,0.23-1.98m13.95,1.27c-1.21001,0.75-0.09,3.1,1.19,2,1.08001-0.76,0.05-2.93-1.19-2m-129.14,7.89c0.05-2.26,0-4.52-0.15-6.77-1.89,1.94-3.21,5.55,0.15,6.77m106.42-4.35c-0.42,1.41,0.06,1.91,1.45,1.51,0.41-1.41-0.07-1.92-1.45-1.51m-91,1.12c-0.99,2.48-1.82,5.02-2.55,7.59l2.03-0.58c-0.04,0.72-0.12,2.17-0.16,2.89,1.7-2.39,2.41-5.27,3.36-7.99-0.41999,0.21-1.27,0.64-1.69,0.85-0.25-0.69-0.74-2.07-0.99-2.76m-13.09,1.54c0.08,2.46,0.28,4.91,0.66001,7.34,0.93-0.73,3.39999-0.88,2.63999-2.62-0.75999-1.79-2.05-3.27-3.3-4.72m102.18,2.69c-1.25,2.22,3.15001,2.45,3.40001,0.44-0.20001-1.57-2.59001-1.39-3.40001-0.44m-28.68,6.54c1.48001,1.44,3.32,2.44,5.08001,3.52,1.25-0.33,2.52-0.65,3.78999-0.96,1.05001-2.83,1.94-5.72,2.47001-8.69-4.19001,1.06-8.54001,2.7-11.34,6.13m50.18-4.17c0.86999,0.39,1.77,0.75,2.67,1.09,0.06-0.72,0.18-2.17,0.23001-2.9-1.11001,0.41-3.05002,0.07-2.90002,1.81m-141.73-0.56c-0.5,1.55-1.22,3.08-1.35,4.73,0.87,2.97,3.66,4.52,6.11,6.05,0.37-0.98,0.7-1.97,1-2.96-1.95-2.59-4.09-5.03-5.76-7.82m40.42,3.1c-0.62,1.85-1.21,3.72-1.61,5.63,1.67-1.15,2.62-2.91,3.14-4.84-0.38-0.2-1.15-0.59-1.53-0.79m-18.33,2.18c-1.44,0.89-0.24,3.87,1.38,2.51,1.31-0.9,0.14-3.71-1.38-2.51m63.61,2.95c0.97,0.86,1.88,1.84,3.06,2.44,2.1,0.14,3.98-1.14,5.92-1.78-1.56-1.17-3.06-2.5-4.93-3.14-1.43,0.69-2.73,1.61-4.05,2.48m-77.82,0.82c-0.32,0.82-0.64,1.65-0.96,2.48,1.67,0.69,3.35,1.35,5.03,2.02,0.81-1.12,1.56-2.27,2.26-3.45-2.13-0.22-4.25-0.54-6.33-1.05m29.13,5.88c1.49-0.97,1.84-2.76,2.42-4.31-2.04,0.51-2.77,2.34-2.42,4.31m42.45-1.1c1.87-0.32,3.74-0.74,5.57-1.25-0.68-0.83-1.37-1.65-2.06-2.46-1.31,1.1-2.51,2.32-3.51,3.71m-56.68,3.58c1.14-0.1,2.29-0.2,3.43-0.29,0.58-1.19,0.3-1.9-0.86-2.13,0.05-0.95,0.15-2.85,0.2-3.8-1.99,1.45-2.27,4-2.77,6.22m37.94,3.5c1.15-0.57,2.46-0.95,3.36-1.92,0.3-2.09,0.19-4.21,0.2-6.31-2.64,1.7-2.5,5.52-3.56,8.23m16.19-7.03c-0.56,1.39-0.13,1.86,1.32,1.42,0.55-1.39,0.11-1.86-1.32-1.42m-85.24,1.44c-0.44,6.56,2.33,12.88,3.42,19.31,1.42-2.09,2.25-4.48,3.08-6.85-1.38-3.35-2.61-6.77-4.07-10.08-0.48-1.11-1.29-1.9-2.43-2.38m7.06,0.29c0.44,1.35,0.87,2.72,1.44,4.04,1.74,0.53,1.65-1.83,2.35-2.84-1.26-0.42-2.53-0.82-3.79-1.2m115.36,2.47c-0.96,2.88-1.88,5.78-2.43,8.78,2.94-1.03,6.13-1.6,8.82-3.23,1.64-2.61,2.07-5.76,2.94-8.67-3.16,0.89-6.26,1.97-9.33,3.12m-111.89,6.6c1.25,3.85,3.66,7.19,6.17,10.31,0.86-2.38,1.73-4.75,2.61-7.12-2.15-3.29-4.16-6.66-6.38-9.9-0.91,2.17-2.31,4.3-2.4,6.71m73.56-0.27c2.65-0.11,5.08-1.31,6.83-3.31-2.38,0.84-5.26,1.12-6.83,3.31m47.88-3.66c-0.44,1.65,0.13,2.22,1.72,1.71,0.41-1.66-0.16-2.23-1.72-1.71m-108.76,3.13c0.58,1.83,1.64,3.42,3.15,4.63,0.22,1.06,0.7,2,1.42,2.81,0.38-1.27,0.76-2.53,1.11-3.8-1.95-1.13-3.8-2.41-5.68-3.64m58.05,0.17c-0.56,1.64-0.01,2.14,1.64,1.5,0.54-1.64-0.01-2.14-1.64-1.5m6.49,6.4c-1.13,0.3-2.08,0.91-2.74,1.87,3.35001-0.83,6.71001-1.68,9.99-2.79l0.78,0.51,1-0.41,0.17-0.89c1.74-0.06,3.43-0.56,5.13-0.93-0.08-0.43-0.26-1.28-0.34999-1.71-4.68001,1.36-9.38,2.73-13.98,4.35m-94.12-2.19c-7.79,19.55-15.6,39.09-23.41,58.64-0.79,2.3-2.84,5.06-0.4,7.07,3.12,1.11,6.57,2.91,9.82,2.56,6.74-16.89,13.44-33.81,19.85-50.83-1.04-6.73-2.88999-13.35-4.49-19.98-0.33999,0.64-1.02999,1.91-1.37,2.54m25.46,10.88c0.35-0.84,1.06-2.53,1.42-3.38,0.92-0.59,1.83-1.19,2.75-1.79-0.93-1.44-1.86-2.88-2.79-4.31-1.58,2.78-4.53,6.74-1.38,9.48m73.85-4.76c2.21,0.28,4.45,0.3,6.66-0.06,0.34-1,0.69-2,1.04-3-2.5,1-6.2,0.5-7.7,3.06m36.16-3.07c-0.57,1.63-0.03,2.15,1.63,1.57,0.53-1.62-0.01-2.15-1.63-1.57m-121.55,0.15c-1.03,2.74-2.41,5.4-2.91,8.31,1.01,5.3,2.24,10.57,3.64,15.78,1.81-3.71,3.62-7.57,4.48-11.6-1.5-4.24-2.89-8.61-5.21-12.49m29.75,3.6c-1.33,0.71-1.37,1.4-0.12,2.07,1.33-0.72,1.37-1.41,0.12-2.07m-16.8,1.93c0.86,2.45,3.02,1.35,4.68,0.53-1.14-1.75-3.05-1-4.68-0.53m61.46-0.84c0.37,1.1,0.56,2.38,1.56,3.13,2.7-0.18,5.19-1.51,7.59-2.68-3-0.71-6.1-1.02-9.15-0.45m-5.26,1.7c-1.07,0.81-0.64,3.91,1.08,2.73,1.43-0.76,0.62-4.18-1.08-2.73m4.12,3.24c1.76-0.56,0.73-3.22-0.82-3.13-1.88,0.44-1.23,3.95,0.82,3.13m-46.13-0.61c-1.33,1.55,0.99,3.52,1.86,1.36,0.1-0.21,0.29-0.64,0.39-0.85,1.05-2.08-1.88-2.46-2.25-0.51m94.68,7.67c5.41,0.82,6.03-6.72,2.67-9.33-1.26,2.99-2.34,6.08-2.67,9.33m7.98-2.68c1.4-0.38,2.8-0.77,4.21-1.19,0.24-1.6,0.48-3.2,0.69-4.79-1.92,1.73-3.88,3.54-4.9,5.98m-12.25,0.85c0.73,0.14,2.2,0.42,2.93,0.56,0.71-2.25,1.34-4.52,1.88-6.81-3.56,0.07-5.25,3-4.81,6.25m-4.68-3.28c-1.26,1.51,1.56,2.74,2.5,1.46,1.34-1.59-1.55-2.83-2.5-1.46m-107.01,3.43c-1.41,4.12-3.71,8.03-4.41,12.33,0.87,5.12,2.15,10.18,3.47,15.21,2.88-4.35,4.36-9.46,6.07-14.33-0.97-4.55-2.86-9.1-5.13-13.21m61.39,5.4c2.14-0.29,4.87-0.67,5.57-3.13-2,0.68-4.75,0.78-5.57,3.13m42.44-1.58c-1.55,1.45,1.11,3.29,2.39,1.97,1.72-1.34-1.21-3.13-2.39-1.97m-120.37,8.62c-4.94,13-10.2,25.88-15.04,38.93,3.06,0.97,6.13,1.9,9.28,2.55,4.04-10.55,8.17-21.07,12.32-31.58,0.46-1.32,1.07-2.74,0.59-4.14-1.05-4.76-2.16-9.5-3.34-14.22-1.78,2.57-2.68,5.58-3.81,8.46m79.93-0.34c-0.93,0.58-2.55,0.85-2.66,2.18,2.8,1.27,5.99,1.27,8.98,1.92,2.38,0.58,4.92,0.42,7.13-0.68,1.08-1.12,1.13-2.9,1.76-4.29-1.37-1-2.72-2-4.06-3.02-3.77,1.15-7.5,2.42-11.15,3.89m56.19-2.82c-0.78,2.26-1.5,4.55-2.04,6.88,1.48,0.23,2.96,0.46,4.46,0.7,0.63-1.81,1.37-3.6,1.67-5.5-0.8-1.4-2.77-1.37-4.09-2.08m-8,5.76c-0.62-1.02-1.21-2.06-1.79-3.09-0.96,0.87-3.75,0.96-2.8,2.81,2.71,0.42,5.46,0.58,8.16,1.09,0.6-1.96,1.19-3.93,1.67-5.92-2.68,0.53-5.8,1.59-5.24,5.11m-50.94,3.47c1.86,1.84,4.25,1.54,6.29,0.16-2.06-0.56-4.3-1.41-6.29-0.16m-12.02,6.94c1.97-1,2.3-3.25,2.78-5.19-1.99,0.99-2.66,3.1-2.78,5.19m56.02-5.44c-0.88,3-0.7,6.13,0.33,9.08,1.79-2.66,2.44-5.83,3.16-8.9-0.87-0.04-2.61-0.13-3.49-0.18m4.89,0.59c-1.13,3.44-2.28,6.89-3.18,10.4,1.5-0.49,3.33-0.46,4.54-1.61,1.29-2.69,1.94-5.63,2.45-8.55-0.95-0.06-2.86-0.18-3.81-0.24m6.24,0.8c-0.8,2.35-1.6,4.73-1.78,7.23,1.72-0.58,3.46-1.17,5.18-1.8,0.4-1.64,0.8-3.28,1.2-4.92-1.54-0.18-3.07-0.34-4.6-0.51m-136.95,33.07c2.6,0.86,5.22,1.64,7.87,2.31,2.76-6.43,5.59-12.82,8.37-19.23-1.3-4.96-2.15-10.02-3.56-14.95-4.76,10.38-8.56,21.21-12.68,31.87m112.33-27.73c-0.26,1.41-0.54,2.84-0.36,4.3,0.92-0.31,1.83-0.61,2.76-0.91-0.04-1.16-0.08-2.31-0.12-3.46-0.57,0.02-1.71,0.05-2.28,0.07m-33.56,10.82c-0.18,1.62-0.33,3.25-0.45,4.89,4.16-1.3,8.23-2.88,12.35-4.31,1.31-3.59,2.62-7.19,3.32-10.96-5.24,3.22-10.13,6.95-15.22,10.38m-53.98,6.58c3.33-2.37,5.92-5.62,6.54-9.76-0.47-0.68-1.41-2.05-1.88-2.73-2.08,3.93-3.62,8.16-4.66,12.49m43.33-5.71c2.67-0.73,2.77-3.7,3.32-5.94-2.33,1.08-2.69,3.73-3.32,5.94m-5.6,4.05c3.73-1.16,4.41-5.13,5.33-8.39-4.04,0.4-4.08,5.41-5.33,8.39m69.54-4.85c-0.99,2.5-1.76,5.08-2.29,7.72,1.54,0.28,3.09,0.53,4.65,0.78,1.03-3.28,2.13-6.56,2.78-9.95-1.72,0.47-3.43,0.96-5.14,1.45m-76.96,1.94c-1.39,0.2-1.56,2.73-0.08,2.94,1.54-0.09,1.75-2.93,0.08-2.94m63.8,2.8c-0.51,1.66,0.03,2.22,1.63,1.68,0.51-1.66-0.03-2.22-1.63-1.68m-55.78,10.86c2.88-1.15,2.91-4.68,3.75-7.2-2.92,1.18-3.01,4.59-3.75,7.2m-38.06-5.74c-0.66,1.65-0.17,2.21,1.47,1.66,0.66-1.66,0.17-2.21-1.47-1.66m80.81-0.1c-1.5,4.69-3.35,9.3-4.45,14.11,0.55,1.77,2.97,2.08,4.37,3.12,1.67-0.59,3.34-1.16,5.02-1.73-0.93-0.94-1.85-1.87-2.77-2.79-0.02-0.72-0.06-2.17-0.08-2.89,1.63-0.58,3.36-0.96,4.88-1.84,0.82-2.16,0.64-4.53,0.81-6.79-2.6-0.43-5.19-0.82-7.78-1.19m-48.69,7.52c1.34-0.39,2.67-0.8,4.01-1.2,0.47-1.53,0.95-3.05,1.41-4.58-2.43,1.27-4.94,2.84-5.42,5.78m59.48-1.5c0.45,1.97,3,0.48,2.01-1.01,2.02-0.48,0.78-4.53-1.08-2.85-1.32,0.45-1.27,2.69-0.93,3.86m6.53-3.14c-0.03,2.1-0.04,4.2,0.04,6.3,1.34-1.65,3.26-6.05-0.04-6.3m8.06,1.13c-0.44,1.38,0.04,1.87,1.45,1.46,0.44-1.4-0.04-1.89-1.45-1.46m-158.12,9.05c1.27,5.31,2.2,10.71,3.74,15.96,3.13-6.4,5.36-13.21,7.95-19.84-3.38-1.16-6.81-2.19-10.25-3.15-0.83,2.25-2.36,4.55-1.44,7.03m14.03-3.17c-2.88,8.05-6.35,15.89-9.13,23.96,0.44,5.39,2.2,10.62,3.25,15.92,0.86-1.07,1.5-2.29,1.98-3.57,4.38-11.2,8.75-22.4,13.15-33.58-3.02-1.13-6.11-2.05-9.25-2.73m75.24,7.31c2.7-1.38,5.2-3.13,7.42-5.2-3.24,0.24-7.53,1.06-7.42,5.2m13.21-2.45c-0.56,4.22-1.19,8.44-1.49,12.69,1.56-0.45,3.14-0.89,4.72-1.33,1.39-4.08,2.74-8.18,4.14-12.26-1.05-0.65-2.09-1.33-3.2-1.85-1.49,0.76-2.82,1.78-4.17,2.75m-77.8-1.9c-5.26,12.61-9.95,25.44-14.98,38.14-1.36,2.53-0.11,5.32,0.37,7.89,1.77-2.57,2.86-5.51,4.12-8.34,5.18-12.05,10.69-23.98,15.52-36.17-1.68-0.51-3.36-1.01-5.03-1.52m60.08,7.3c2.91-0.54,2.88-3.78,3.53-6.07-2.33,1.16-2.85,3.79-3.53,6.07m-4.87-3c-0.91,2.35-2.05,4.75-1.64,7.35,4.38-0.48,5.17-5.07,6.37-8.46-1.62,0.17-3.19,0.59-4.73,1.11m47.95-0.9c-1.87,0.32-1.21,3.58,0.72,2.79,2.21-0.37,1.23-3.35-0.72-2.79m22.04,3.91c-0.45,2.91-0.93,5.86-0.61,8.82,0.62,0.06,1.86,0.19,2.49,0.25,1.4-3.38,2.3-6.94,3.25-10.47-1.72,0.45-3.42,0.93-5.13,1.4m-155.55-0.45c-8.79314,18.951-8.33511,52.2901,4.96,21.13-0.5-4.76-2.01-9.35-2.89-14.04-0.63-2.37-0.66-5.01-2.07-7.09m91.63,6.45c-0.82,2.27-1.67,4.56-1.93,6.98,3.25-0.99,6.47-2.11,9.68-3.24,0.35-3.26,0.87-6.5,1.26-9.75-3.15,1.78-6.06,3.93-9.01,6.01m51-1.8c-0.05,0.64-0.14,1.91-0.19,2.55,0.61-0.05,1.82-0.15,2.43-0.2,0.02-0.65,0.07-1.94,0.09-2.58-0.58,0.06-1.75,0.17-2.33,0.23m-68.21,1.02c-0.58,1.71-0.07,2.23,1.53,1.56,0.54-1.68,0.03-2.2-1.53-1.56m-29.87,4.6c-0.88,1.62,0.66,3.17,1.15,4.62,2.19-2.26,2.78-5.45,3.59-8.37-1.86,0.85-4.37,1.38-4.74,3.75m41.02,4.98c2.86-0.95,2.72-4.64,3.72-7.02-2.81,1.16-3.13,4.43-3.72,7.02m43.05-5c-0.64,2.06-1.23,4.13-1.74,6.22,3.48-0.73,7.02-1.28,10.39-2.46,0.13-0.53,0.37-1.59,0.49-2.13-2.97-0.89-6.07-1.24-9.14-1.63m9.63,9.08c2.69,0.13,3.71-2.1,4.31-4.31-3.06-0.65-3.91,1.83-4.31,4.31m5.24-3.75c-0.88,1.25-0.67,1.99,0.64,2.21,0.87-1.26,0.66-1.99-0.64-2.21m-101.41,8.98c0.99-2.06,1.88-4.15,2.7-6.27-0.44-0.63-1.33-1.88-1.77-2.51-1.23,2.62-4.35,6.63-0.93,8.78m83.64-5.95c-0.22,1.35-0.43,2.71-0.63,4.07,3.48-0.73,6.9-1.73,10.36-2.54,0.44-1.33,0.85-2.67,1.28-4-3.71,0.64-7.38,1.5-11.01,2.47m23.61,3.74c3.09-0.02,1.76-3.74,1.99-5.67-1.62,1.46-1.83,3.63-1.99,5.67m-43.64-3c-1.42,0.08-1.88,2.71-0.2,2.71,1.52,0.02,2.04-2.87,0.2-2.71m-19.94,4.16c-0.44,1.26-0.86,2.52-1.26,3.8,3.53-1.24,6.63-3.58,9.23-6.23-2.72,0.58-5.34,1.52-7.97,2.43m55.85-2,0.11,1.98c-0.9-0.36-1.78-0.74-2.65-1.13-1.62,0.21-2.41,1.33-2.53,2.91,0.46,1.51,1.03,1.56,1.72,0.14l1.03-1.56c0.55,0.43,1.11,0.87,1.66,1.31,0.98-0.46,1.96-0.92,2.95-1.37,0.03-0.58,0.09-1.75,0.11-2.33-0.6,0.01-1.8,0.03-2.4,0.05m-11.32,3.76c0.8,1.21,2.52,0.61,3.74,0.84,0.01-0.63,0.02-1.89,0.03-2.51-1.22,0.57-3.06,0.42-3.77,1.67m-90.71-0.72c-1,1.63-1.51,3.5-1.99,5.34,0.91-0.3,1.81-0.6,2.73-0.9,0.56-1.47,1.28-3.75-0.74-4.44m40.28,6.52c2.95-1.02,3.11-4.46,3.58-7.06-2.59,1.33-2.61,4.64-3.58,7.06m-85.53,50.18c5.07-13.01,10.38-25.93,15.15-39.03-0.57-5.49-2.11-10.84-3.41-16.19m77.38,9.24c-3.52,1.91-3.79,6.29-4.91,9.71,5.69-1.83,11.38-3.62,17-5.66,0.54-4.47,1.23-8.92,1.67-13.39-4.77,2.84-9.16,6.26-13.76,9.34m-56.8-4.99c-1.22,0.51-1.86,2.35-1.08,3.47,1.32,0.19,2.64-3.11,1.08-3.47m111.01,4.24,0.08,1.91c-0.94-0.31-1.87-0.63-2.79-0.96-1.79,0.19-2.42,1.67-2.51,3.28,0.67,0,2.02,0.01,2.7,0.01l0.21-2.31c1.05,2.29,2.75,3.72,5.42,3.49,0.29-1.27,0.55-2.55,0.77-3.83-1.24-0.67-2.57-1.11-3.88-1.59m-103.82,3.94c-0.52,1.63,0.01,2.2,1.61,1.7,0.53-1.67-0.01-2.23-1.61-1.7m40.62,7.73c3.41,0,2.93-4.91,4.04-7.32-2.69,1.44-2.96,4.78-4.04,7.32m-43.98,4.25c1.63-2.87,3.68-5.89,3.49-9.34-2.19,2.57-3.22,6.02-3.49,9.34m42.32-6.84c-1.02,0.72-1.8,2.36-1.1,3.54,1.83,0.87,2.98-3.28,1.1-3.54m47.16,3.32c-0.36-1.31-0.76-2.62-1.15-3.91-2.34,1.18-0.83,3.46,1.15,3.91m6.52-3.5c-0.53,1.68,0,2.25,1.59,1.73,0.53-1.67,0-2.25-1.59-1.73m4.14,0.61c-0.94,3.04-2.9,6.48-0.53,9.38,0.91-2.64,2.47-5.31,2.32-8.13-0.45-0.31-1.35-0.94-1.79-1.25m-120.67,0.94c-3.64,9.9-7.66,19.66-11.39,29.52-0.89,2.59-2.66,5.09-2.14,7.95,0.86-0.86,1.7-1.77,2.15-2.92,2.55-5.79,5-11.63,7.62-17.38,1.52-3.11,1.27-6.67,1.95-9.99,4.57,0.55,3.16-4.7,1.81-7.18m9.88,1.7c-1.04,0.97-2.05,2.84-1.29,4.23,1.83,0.51,3.1-3.78,1.29-4.23m121-0.36c-1.13,1.34,1.07,3.51,2.13,1.82,1.07-1.34-1.08-3.49-2.13-1.82m-9.26,7.3c1.33,0.73,2.81,2.86,4.39,1.35,0.92-2.2,1.44-4.53,2.05-6.82-1.28-0.67-2.56-1.33-3.83-1.98-0.9,2.47-1.74,4.96-2.61,7.45m-19.52,8.77c3.91-1.34,8.19-1.99,11.75-4.11,0.11-2.26-0.93-4.54-2.15-6.39-1.68-1.27-3.57-2.2-5.38-3.23-1.58,4.52-3.25,9.03-4.22,13.73m27.07-8.18c1.14-0.35,2.28-0.69,3.43-1.03,0.02-1.51-0.66-2.79-1.59-3.92-1.28,1.36-1.76,3.11-1.84,4.95m-64.43,1.16c-0.43,1.3-0.85,2.61-1.24,3.93,3.7-1.55,6.97-4.03,9.95-6.7-2.99,0.64-5.87,1.68-8.71,2.77m6.46,6.31c3.44,0.58,6.91,1.03,10.41,1.27,0.81-3.34,1.5-6.7,1.88-10.1-4.21,2.77-8.61,5.37-12.29,8.83m-11.64-1.6c2.69,0.96,2.41-2.56,3.12-4.15-2.09,0.35-2.35,2.58-3.12,4.15m-1.8-2.74c-1.39,0.07-2.02,2.7-0.33,2.79,1.45,0,2.11-2.81,0.33-2.79m-58.52,13.15c3.69-0.54,4.48-4.26,5.24-7.31-3.28,1.03-4.57,4.24-5.24,7.31m126.17-2.52c1.52-0.43,3.05-0.85,4.59-1.25,0.13-1.32,1.92-3.41-0.26-3.84-2.64,0.16-5.8,2.1-4.33,5.09m-67.86,8.95c5.01-1.55,9.97-3.28,14.98-4.84,1.81-0.59,3.73-1.08,5.24-2.32-5.39-0.67-10.78-1.92-16.22-1.92-2.92,1.96-2.87,6.05-4,9.08m-12.86-6.47c-0.59,1.41-0.17,1.88,1.27,1.39,0.57-1.42,0.15-1.88-1.27-1.39m8.73,8.16c3.32-0.81,2.97-5.16,4.05-7.78-2.93,1.43-3.14,5.03-4.05,7.78m-54.84-4.99c-0.89,0.94,0.43,2.96,1.62,2.18,0.83-0.94-0.44-2.96-1.62-2.18m49.4,6.8c3.71,0.1,4.23-3.52,5.02-6.28-2.62,1.21-4.66,3.31-5.02,6.28m-52.58-1.98c-0.37-1.8-2.97-0.87-2.44,0.79-0.49,1.28-1,2.55-1.5,3.83,0.44-0.43,1.33-1.31,1.78-1.75-0.62,2.03,3.08,3.53,3.9,1.73,0.98-1.7,1.75-3.59,1.94-5.55-1.07-1.73-3.54-1.1-3.68,0.95m101.08,0.32c2.95,2.08,5.88,4.2,8.95,6.09,0.82-2.29,1.59-4.61,1.9-7.03-3.6-0.38-7.68-1.44-10.85,0.94m11.28,7.41c0.39,0.41,1.17,1.23,1.56,1.64,1.15-2.99,2.1-6.06,3-9.14-0.51-0.06-1.54-0.19-2.05-0.26-1.21,2.43-2.06,5.07-2.51,7.76m5.97-7.25c-0.98,3.54-2.48,6.94-2.87,10.62,1.52-0.33,3.08-0.57,4.54-1.14,1.34-2.72,1.94-5.74,2.95-8.58-1.54-0.35-3.08-0.64-4.62-0.9m4.94,8.24c1.88-0.42,3.74-0.94,5.59-1.49-0.77-1.85-0.65-4.9-2.76-5.61-2.07,1.49-1.92,4.78-2.83,7.1m-23.37-6.54c-1.04,5.28,4.48,7.91,8.14,10.24,0.49-1.29,0.97-2.57,1.46-3.84-3.03-2.37-6.01-4.92-9.6-6.4m-41.71,6.73c-0.47,1.59-0.89,3.2-1.26,4.82,3.52-2.37,7.29-4.49,10.24-7.57-3.05,0.74-6,1.79-8.98,2.75m-2.49,12.57c-3.68,1.94-3.76,6.61-5.11,10.08,7.41-1.91,14.53-4.81,21.94-6.72l-0.23,1.69c2.86-6.99,5.47-14.13,7.22-21.48-8.17,5.13-15.82,11.04-23.82,16.43m-70.63-4.7c-4.73065,12.6876-3.57509,9.96315,1.12,0.27,1.05-2.68,2.92-5.23,2.66-8.24-1.94,2.28-2.67,5.25-3.78,7.97m66.98,0.36c3.13-1.21,3.22-4.93,4.1-7.66-3.17,1.03-2.98,5.06-4.1,7.66m59.22-6.93c-1.48,0.84,0,3.13,1.37,2.04,1.63-0.8-0.04-3.1-1.37-2.04m-118.01,0.35c-3.57,7.94-7.51,15.84-10.38,24.03-6.08959,8.28112,7.23415-0.74804,8.5-2.42,2.72-6.75,5.04-13.66,7.67-20.44-1.26-0.32-2.53-0.64-3.78-0.94l-0.63,1.05c-0.35-0.32-1.04-0.96-1.38-1.28m55.03,1.74c-2.05,3.18-3.16,6.9-4.38,10.48,1.86-1.16,3.8-2.24,5.43-3.71,1.25-2.61,2.25-5.39,2.52-8.28-0.89,0.38-2.68,1.13-3.57,1.51m-8.54,3.44c-0.92,2.09-1.74,4.23-2.42,6.43,1.67-1.71,2.53-4.05,2.42-6.43m79.44,4.15c1.27,1.33,2.67,2.54,4.15,3.64,0.39-1.6,2.66-4.25,0.33-5.27-1.69-0.64-3.2,0.77-4.48,1.63m-11.87,3.02c-0.14,0.75-0.43,2.23-0.57,2.98,0.45,0.12,1.36,0.38,1.82,0.5,0.35-1.16,0.71-2.31,1.06-3.46-0.58-0.01-1.73-0.01-2.31-0.02m-104.73,12.48c-0.82,2.72-3.89,5.74-1.49,8.42,2.69-6.54,5.21-13.16,7.42-19.88-3.29,2.87-3.8,7.75-5.93,11.46m48.19-10.34c-0.53,0.36-1.59,1.07-2.13,1.43-0.81,2.28-1.6,4.56-2.34,6.87,0.47-0.09,1.42-0.27,1.89-0.36,0.92-2.63,1.8-5.27,2.58-7.94m59.11,1.53c1.71,0.41,3.43,0.74,5.18,0.96-0.98-2.21-4.29-4.45-5.18-0.96m-71.47,9.45c1.92-0.68,4.12-0.93,5.78-2.17,0.86-1.67,1.3-3.52,1.86-5.3-2.89,2.01-7.28,3.44-7.64,7.47m53.07-7.08c-0.23,1.74,3.56,2.28,4.38,1.06-0.69-1.47-3.1-2.07-4.38-1.06m-1.29,3.87c-1.27,4.84-3.31,9.46-4.31,14.37,4.33-0.86,8.5-2.34,12.67-3.78,0.33-1.2,0.68-2.4,1.03-3.59-0.7-1.92-1.38-3.84-2.02-5.76-2.43-0.58-4.89-1.01-7.37-1.24m17.18,7.83c2.61-0.27,4.26-1.89,4.65-4.48-1.46-0.31-2.92-0.61-4.36-0.91-1.37,1.64-1.14,3.57-0.29,5.39m6.91-2.94c0.19,1.66,0.72,1.8,1.57,0.44,0.43-0.11,1.3-0.31,1.74-0.41,1.24-2.58-4.83-2.7-3.31-0.03m-131.69,14.91c3.11-4.82,5.33-10.32,6.51-15.93m55.23,18.39c-3.99,2.05-4.28,6.96-5.54,10.76,7.64-2.3,15.28-4.64,22.84-7.21,2.06-6.66,4.86-13.09,6.47-19.88-8.17,5.07-15.78,10.98-23.77,16.33m2.34-12.71c-0.54,1.49-1.07,2.99-1.55,4.51,4.17-1.48,7.54-4.55,11.05-7.14-3.29,0.4-6.39,1.57-9.5,2.63m-6.34,8.4c3.21-1.23,3.22-5.2,4.2-7.98-3.1,1.37-3.18,5.17-4.2,7.98m-6.51-4.14c-1.99,3.9-3.64,8.01-4.99,12.18,2.33-1.37,4.58-2.86,6.77-4.44,3.45-2.05,3.48-6.57,4.9-9.93-2.25,0.65-4.57,1.15-6.68,2.19m-37.43,3.06c-2.19,5.25-4.69,10.38-6.79,15.68-0.66,1.29-0.35,2.73-0.24,4.11,0.56,0.02,1.68,0.05,2.25,0.07,2.05-5.58,4.43-11.04,6.18-16.72,0.76-1.32-0.88-2.15-1.4-3.14m115.71,2.54c0.1,1.32,0.49,2.6,1.41,3.6,0.39-1.25,0.78-2.48,1.16-3.72-0.64,0.03-1.93,0.09-2.57,0.12m-11.19,3.74c-0.63,1.84-1.27,3.68-1.91,5.53,1.51,0.56,3.08,0.93,4.67,1.21,0.8-2.6,2.08-5.21,1.68-8-1.49,0.4-2.96,0.83-4.44,1.26m-3.26,5.07c0.47-1.45,0.93-2.89,1.35-4.34-2.55-0.1-4.03,3.21-1.35,4.34m-63.35,6.69c3.75-0.89,3.39-5.86,4.6-8.82-3.17,1.8-3.42,5.73-4.6,8.82m72.93-6.72c-1.5,0.16-1.52,2.77,0,2.92,1.59-0.06,1.52-2.84,0-2.92m-83.72,9.85c2.98-0.76,6.13-1.26,8.84-2.77,0.8-1.79,1.27-3.69,1.8-5.56-3.63,2.59-8.21,4.45-10.64,8.33m59.7,1.69c1.7,1.01,3.37,2.07,5.04,3.13,1.01-2.66,1.87-5.37,2.66-8.1-2.12-1.58-4.36-3.12-7.1-3.22-0.44,2.71-0.71,5.44-0.6,8.19m15.1-4.74c-0.79,1.76,3.25,3.35,3.58,1.19-0.32-1.47-2.45-1.98-3.58-1.19m-6.81,6.01c-0.26,1.16-1.84,4.85,0.75,4,0.79-2.85,3.31-6.23,1.44-9.07-0.97,1.57-1.68,3.29-2.19,5.07m12.94-4.76c-0.38,0.87-0.76,1.75-1.14,2.62,1.39,1.03,2.81,2.03,4.26,3,0.47-1.5,0.93-3,1.38-4.49-1.51-0.39-3-0.76-4.5-1.13m-116.89,1.02c-0.46,1.57-0.92,3.15-1.32,4.74,2.11-0.09,2.08-2.57,2.83-4.03-0.38-0.18-1.13-0.53-1.51-0.71m105.85,9.05c1.41,1.04,3.79,1.86,5,0.05,0.78-1.74,1.22-3.59,1.76-5.4-1.25-0.92-2.51-1.85-3.75-2.75-1.3,2.58-2.09,5.37-3.01,8.1m-58.32-2.38c-1.24,1.46-1.45,3.52-2.07,5.3,4.29-2.25,8.14-5.23,11.98-8.15-3.4,0.51-6.74,1.51-9.91,2.85m-2.85,13.27c-4.2,2.15-4.31,7.43-5.89,11.35,7.8-2.07,15.43-4.76,23.17-7.03,2.29-6.95,4.93-13.79,6.82-20.86-8.32,5.07-16.01,11.12-24.1,16.54m69.98-14.63c-0.25,1.04-0.49,2.09-0.73,3.14,1.14-0.5,3.05-0.15,3.55-1.53-0.93-0.57-1.87-1.11-2.82-1.61m-73.97,10.2c3.23-1.42,3.42-5.34,4.19-8.32-3.23,1.35-3.11,5.47-4.19,8.32m-9.61-3.33c-2.04,4.62-4.25,9.21-5.75,14.06,3.54-1.96,6.71-4.47,10.07-6.71,3.98-2.06,4.08-7.09,5.46-10.83-3.23,1.16-6.97,1.47-9.78,3.48m62.87-1.53c-0.05,1.22-0.08,2.44-0.11,3.67,1.29-0.38,2.56-0.78,3.84-1.16-0.95-1.23-2.31-1.97-3.73-2.51m8.29,10.99c-1.16,1.79-1.43,3.99-1.94,6.02,1.47,0.32,2.95,0.63,4.44,0.95,0.99-2.8,1.87-5.63,2.57-8.51-1.7,0.47-3.46,0.8-5.07,1.54m7.71-0.98c-1.08,2.94-2.03,5.94-2.59,9.03,1.71-0.09,3.41-0.31,5.06-0.81,0.53-1.85,1.12-3.7,1.74-5.52-1.38-0.96-2.77-1.87-4.21-2.7m-12.03,2.43c-0.36,1.2-0.72,2.4-1.06,3.61,2.86,0.62,2.61-2.7,3.35-4.58-0.77,0.32-1.53,0.64-2.29,0.97m-63.39,9.63c0.45-0.05,1.33-0.16,1.78-0.22,1.35-2.75,2.1-5.74,2.98-8.66-3.29,1.73-3.6,5.74-4.76,8.88m-13.39,4.25c3.86-0.63,7.56-1.95,11.27-3.15,0.65-2.06,1.3-4.14,1.91-6.22-4.61,2.78-9.14,5.8-13.18,9.37m58.83-5.64c-2.33,7.59-5.19,15.03-7.14,22.74,2.62-0.7,5.21-1.51,7.79-2.34,1.04-7.43,2.03-14.87,2.93-22.31-1.84-0.88-3.36-0.17-3.58,1.91m66.58,14.01c0.52,0.57,1.56,1.71,2.08,2.28,0.82-1.16,2.01-2.22,1.96-3.76,0.26-4.13,0.42-8.27,0.45-12.41-2.28,4.32-3.06,9.25-4.49,13.89m-47.35-11.56c0.44,1.45,0.9,2.9,1.39,4.34,1.76-0.69,1.91-2.44,1.86-4.07-0.82-0.07-2.44-0.21-3.25-0.27m6.31,1.24c-0.5,1.61,0.08,2.14,1.73,1.6,0.47-1.62-0.11-2.15-1.73-1.6m-1.86,5.71c-0.29,2.02,3.12,1.2,4.43,1.79,0.31-1.13,0.64-2.24,0.95-3.36-1.81,0.44-3.69,0.74-5.38,1.57m-68.42,1.68c-1.41,1.52-1.61,3.7-2.2,5.61,4.17-2.39,8.32-5.01,11.76-8.39-3.25,0.67-6.48,1.52-9.56,2.78m-3.29,13.93c-4.36,2.33-4.19,7.94-6.06,11.97,7.88-2,15.54-4.72,23.37-6.89,2.41-7.29,5.18-14.47,7.21-21.88-8.53,5.04-16.27,11.32-24.52,16.8m-1.34-12.64c-0.66,1.36-1.38,2.69-2.15,4-0.09-0.79-0.27-2.39-0.36-3.19-4.1,1.53-8.61,2.16-12.46,4.24-2.46,5.33-4.81,10.75-6.68,16.32,3.57-1.94,6.71-4.53,10.07-6.8,2.97-2.24,7.27-3.78,7.43-8.12,0.92,0.57,1.86,1.15,2.79,1.73,1.04-1.61,2.39-3.26,2.25-5.29l0.89-0.13,0.45-0.98-0.5-0.8c0.08-0.43,0.25-1.3,0.33-1.74-0.52,0.19-1.55,0.57-2.06,0.76m61.11-0.47c-0.52,1.62,0.04,2.13,1.7,1.54,0.49-1.62-0.08-2.14-1.7-1.54m11.25,0.69c-1.03,1.28,1.34,2.12,2.09,1.11,1.22-1.3-1.36-2.18-2.09-1.11m-12.56,3c-0.61,1.63-0.08,2.2,1.56,1.71,0.57-1.62,0.05-2.19-1.56-1.71m55.13,10.88c-0.74,3.64-0.64,7.4-0.71,11.11,2.17-5.28,3.65-10.86,4.79-16.45-1.58,1.58-3.2,3.24-4.08,5.34m-55.11,0.94c-0.84,2.16-1.56,4.37-2.05,6.64,1.45,0.36,2.92,0.72,4.38,1.09,1.09-2.92,2.02-5.9,2.78-8.92-1.71,0.38-3.41,0.79-5.11,1.19m7.36,0.76c-0.89,2.61-1.71,5.24-2.28,7.94,1.34,0.24,2.69,0.39,4.05,0.45,1.25-1.77,2.14-3.99,1.96-6.18-0.76-1.38-2.43-1.64-3.73-2.21m-76.21,10.06c0.44,0.02,1.33,0.06,1.77,0.09,1.48-2.96,2.4-6.16,3.22-9.35-3.61,1.59-3.45,6.14-4.99,9.26m-14.29,4.89c4.1-1.02,8.1-2.39,12.15-3.6,0.79-2.35,1.54-4.71,2.1-7.13-4.68,3.66-10.21,6.36-14.25,10.73m62.93-7.56c1.92,2.46,4.87,3.86,7.74,4.91,0.07-0.74,0.21-2.21,0.28-2.94-2.63-0.81-5.28-1.62-8.02-1.97m16.66,4.99c0.15,1.38,0.83,1.59,2.03,0.64-0.17-1.37-0.85-1.59-2.03-0.64m52.18-0.38c-0.69,1.98-1.85,3.96-1.68,6.13,0.51,0.53,2.56,1.61,2.46,0.09-0.06-2.04,1.02-4.68-0.78-6.22m-47.07,7.25c1.52,0.3,3.03,0.33,4.51,0.08,0.66-1.45,1.08-2.99,1.61-4.47-0.68-0.18-2.02-0.56-2.69-0.75-2.77-0.02-3.11,3.08-3.43,5.14m-24.4-3.14c0.09,4.99,3.15,9.17,6.12,12.93,2.04-2.03,3.37-5.58,2.22-8.29-2.61-1.83-5.4-3.42-8.34-4.64m-44.1,3.57c-2.82,0.61-2.55,4.27-3.44,6.39,4.36-2.67,8.61-5.56,12.56-8.82-3.11,0.51-6.14,1.42-9.12,2.43m64.18-2.6c-0.61,1.57-0.07,2.09,1.61,1.57,0.62-1.61,0.08-2.13-1.61-1.57m56.23,6.4c2.19-1.26,1.7-4.3,2.29-6.44-1.29,1.92-1.81,4.2-2.29,6.44m-112.87,2.43c-4.79,3.48-9.84,6.64-14.45,10.36-1.85,3.25-2.59,7.04-3.74,10.59,7.86-2.07,15.54-4.79,23.41-6.86,2.2-7.59,5.51-14.82,7.34-22.51-4.48,2.34-8.37,5.63-12.56,8.42m-15.88,3.63c3.35-1.51,3.41-5.62,4.5-8.65-3.68,0.89-3.39,5.73-4.5,8.65m120.87-8.19c-0.3,1.32-0.6,2.65-0.87,3.99,1.39,0.03,2.78-0.08,4.15-0.33,1.1-2.32-1.86-2.71-3.28-3.66m-136.42,5.84c-10.3939,22.5493-1.21961,13.1596,12.54,4.8,1.17-3.25,2.31-6.51,3.33-9.81-5.28,1.67-10.72,2.96-15.87,5.01m145.73,9.09c-1.16,6.97-3.45,13.81-3.4,20.94,1.73-1.14,3.42-2.34,5.05-3.62,0.21-9.58,1-19.14,1.17-28.72-1.83,3.52-1.89,7.6-2.82,11.4m-11.4-7.83c-0.14,0.71-0.43,2.12-0.57,2.83,2.09-0.48,4.16-1.03,6.19-1.74-1.86-0.47-3.74-0.81-5.62-1.09m-47.19,6.96c-0.78,1.65-1.16,3.44-1.62,5.21,1.79-0.38,3.59-0.82,5.35-1.36,0.52-1.9,1.04-3.81,1.55-5.7-1.74,0.61-3.87,0.57-5.28,1.85m45.37-0.48c-0.59,1.99-1.16,3.98-1.67,6,3.05,2.62,4.5,6.51,7.35,9.3,0.52-5.57,0.84-11.16,1.05-16.75-2.25,0.45-4.49,0.94-6.73,1.45m-123.77,13.67c0.5-0.16,1.49-0.48,1.98-0.65,1.5-3.07,2.44-6.4,3.17-9.72-3.61,2.18-3.73,6.8-5.15,10.37m-2.41,1c1.05-2.45,1.85-4.99,2.54-7.55m74.98,12.16c-0.37,1.54,0.28,2.05,1.94,1.54,0.38-1.59-0.27-2.1-1.94-1.54m-74.84,4.28c-0.71,1.94-1.42,3.91-1.53,6,4.21-2.86,8.59-5.55,12.3-9.06-3.65,0.81-7.2,1.97-10.77,3.06m116.93-2.13c-0.59,1.69-0.1,2.28,1.48,1.76,0.57-1.69,0.08-2.28-1.48-1.76m-107.16,7.74c-4.98,3.71-10.28,7.01-15.08,10.95-2.1,3.58-2.99,7.77-4.23,11.71,7.8-1.94,15.44-4.48,23.17-6.67,2.55-8.02,5.79-15.82,7.94-23.96-4.23,2.2-7.87,5.31-11.8,7.97m95.44,0.8c0.03-0.72,0.07-2.15,0.1-2.86-0.41,1.17-0.81,2.35-1.19,3.54,1.52,0.48,2.65,1.4,2.87,3.08,1.19,0.87,2.45,1.65,3.75,2.39-1.89,3.14,2.59,5.15,2.7,8.17,0.82-2.62,2.6-4.74,3.94-7.08,0.98-3.03-0.42-6.15-2.38-8.42-0.47,0.42-1.41,1.28-1.88,1.71-1.25-0.38-2.49-0.76-3.72-1.14,0.48-0.44,1.45-1.32,1.93-1.76,0.24-1.55,0.64-3.06,1.08-4.56-3.26,1.47-3.36,6.89-7.2,6.93m-112.14,3.24c3.62-1.34,3.4-5.94,4.62-9.01-3.77,1.03-3.32,6.06-4.62,9.01m-5.75,4.48c4.37-2.32,4.36-7.88,6.09-11.96m127.63,0.31c-0.33,0.92-0.65,1.84-0.96,2.78,0.34,0.58,1.01,1.76,1.35,2.34,2.41-1.31,1.1-3.66-0.39-5.12m-49.93,12.49c0.02,0.58,0.06,1.74,0.07,2.32,1.39,0.09,2.78,0.21,4.17,0.33-0.05-1.52-0.09-3.02-0.15-4.53-1.61,0-2.9,0.91-4.09,1.88m-9.76-1.18c-0.36,1.51,2.24,2.28,3.26,1.46,0.72-1.7-2.29-2.68-3.26-1.46m-75.54,16.28c0.49-0.15,1.47-0.43,1.95-0.58,1.55-3.43,2.64-7.06,3.73-10.66-4.08,2.08-4,7.47-5.68,11.24m86.23-1.14c-0.53,1.64,0.03,2.17,1.65,1.57,0.52-1.66-0.03-2.18-1.65-1.57m-85.66,11.4c0.204678,12.6341,7.44184-0.25769,10.31-2.89m135.99,14.33c-0.7,5.2-2.44,10.3-2.09,15.62,2.1-1.66,4.86-3.6,4.86-6.57,0.33-7.73,0.75-15.45,0.95-23.18-2.21,4.38-2.92,9.33-3.72,14.13m-137.1-4.93c3.61-0.71,7.1-1.9,10.67-2.79,0.54-1.91,0.95-3.86,1.21-5.82-4.08,2.68-8.32,5.24-11.88,8.61m51.84,2.13c2.1-0.32,4.57-0.38,5.88-2.35-2.04,0.45-4.6,0.34-5.88,2.35m4.93,9.89c-1.49,3.38-2.35,6.99-3.2,10.57,0.93-0.23,2.79-0.68,3.72-0.9,0.59-3.58,1.11-7.17,1.4-10.79-0.48,0.28-1.44,0.84-1.92,1.12m-7.05,1.6c0.6,1.43,1.22,2.88,1.86,4.32,0.71-1.76,1.34-3.56,1.9-5.37-1.26,0.33-2.51,0.68-3.76,1.05m-47.25,1.55c-0.49,1.42-0.03,1.87,1.38,1.36,0.48-1.43,0.02-1.88-1.38-1.36m131.88,13.68c-0.24,4.98-0.76,9.97-0.66,14.97,0.6,0.32,1.79,0.95,2.39,1.27,1.24-7.6,3.67-15.09,3.29-22.87-2.02,1.84-5.16,3.46-5.02,6.63m-138.46,10.56c0.72-2.15,1.42-4.33,2.06-6.5m129.68,4.15c-0.97,0.83-1.37,2.51-0.74,3.66,1.88,1.05,2.56-3.53,0.74-3.66m-79.91,4.21c-0.99,2.07,3.25,2.07,3.58,0.32-0.08-1.8-2.77-1.31-3.58-0.32m76.17,8.93c1.17,0.61,2.35,1.22,3.54,1.83,0.26-2.91,0.61-5.84,0.39-8.76-0.36-0.09-1.07-0.28-1.42-0.37-1.57,2.02-1.58,4.93-2.51,7.3m9.59-3.77c0.4,2.76-1.99,6.9,0.62,8.83,0.08-2.91,3.24-7.47-0.62-8.83m-10.68,7.53c-0.28,1.35-0.55,2.71-0.81,4.08,1.88-0.43,3.77-0.9,5.52-1.75-1.54-0.84-3.12-1.61-4.71-2.33m14.11,3.45c-1.32,4.89-1.94,9.95-3,14.91-1,6.35-3.11,12.61-2.6,19.12,1.89-1.67,3.66-3.47,5.37-5.33,0.44-9.82,0.95-19.64,1.24-29.46-0.25,0.19-0.76,0.57-1.01,0.76m-15.81,4.16c2.16-0.51,4.42-0.94,6.24-2.29-2.08,0.51-5.2-0.02-6.24,2.29m-1.45,3.8c-3.38,13.3-7.4,26.44-10.83,39.73,5.13,2.43,9.98,5.49,15.34,7.4,0.87-16.25,1.93-32.5,2.58-48.77-2.37,0.54-4.73,1.09-7.09,1.64m-39.22,27.75c-0.32,1.1-0.63,2.21-0.92,3.33,1.33-0.37,2.66-0.77,4-1.13-1.02-0.75-2.05-1.49-3.08-2.2m50.42,4.17c-0.69,5.84-0.67,11.77-1.01,17.65,0.67,0.45,2,1.35,2.66,1.8,1.33-8.17,3.99-16.2,3.8-24.54-1.88,1.61-3.91,3.12-5.45,5.09m-95.4,0.35c-1.15,2.07-2.51,4.03-3.94,5.94,2.77-0.7,5.64-0.91,8.44-0.2,0.05-2.19-0.27-4.37-1.47-6.24-0.76,0.13-2.27,0.37-3.03,0.5m-7.7,4.49c-0.89,1.01,0.31,3.26,1.7,2.63,1.12-1.02-0.34-3.3-1.7-2.63m-12.11,5.78c-1.24,0.62-1.78,2.48-1.14,3.71,1.67,0.73,2.81-3.27,1.14-3.71m90.63,6.62c5.85,2.71,11.37,6.05,17.18,8.83,0.23-2.58,0.41-5.14,0.63-7.7-5.17-2.98-10.58-5.5-15.91-8.16-0.76,2.3-1.44,4.64-1.9,7.03m-88.92-3.36c-0.44,1.64,0.15,2.23,1.76,1.75,0.41-1.64-0.18-2.23-1.76-1.75m87.85,6.89c-1.46,5.27-3.31,10.46-4.22,15.87,7.54-1.77,15.1-3.53,22.56-5.63-5.56-4.25-12.22-6.87-18.34-10.24m24.34,0.54c-0.17,2.89-0.34,5.79-0.26,8.7,2.49-1.86,1.95-5.37,2.67-8.07-0.6-0.16-1.81-0.48-2.41-0.63m-59.15,9.89c1.6,0.16,3.21,0.32,4.82,0.5,2.21-3.03-0.45-5.85-2.34-8.2-2.4,1.41-2.16,5.18-2.48,7.7m62.98,1.45c-1.83,8.09002-3.02,16.32-4.76,24.44-0.63,2.85-1,5.74-1.05,8.66,2.05-1.14,3.77-2.75,5.39-4.42,0.15-10.04,1.53-20.04,1.39-30.09-0.24,0.35-0.73,1.05-0.97,1.41m-4.84,0.04c-0.53,1.62,0.02,2.18,1.65,1.68,0.52-1.64-0.03-2.2-1.65-1.68m-117.99,3.29c-0.35,1.42-0.69,2.85002-1.02,4.29002,4.2-0.78,8.35-1.88,12.42-3.19002,1.71-0.24,1.39-2.22,1.85-3.43-4.58-0.97-8.93,1.16-13.25,2.33m87.9,8.42002c-3,10.56-5.99,21.13-8.95,31.71,10.19,5.38,20.45,10.67,30.77,15.81,1.04-17.9,1.93-35.81,2.56-53.72-8.2,1.76-16.23,4.23-24.38,6.2m-31.69-2.63c-0.32,1.13-0.62,2.29-0.92,3.44,1.02-0.36,2.04-0.73,3.06-1.07,0.02-0.56,0.07-1.68,0.09-2.23-0.56-0.04-1.67-0.11-2.23-0.14m-51.36,9.01c0.79,0.52,1.59,1.05,2.39,1.58,0.4-0.88,0.81-1.75,1.21-2.61-1.2,0.33-2.4,0.67-3.6,1.03m-16.45,12.33c2.49-1.35,2.53-4.54,2.34-6.98-1.84,1.84-2.17,4.5-2.34,6.98m62.63-4.11c-0.62,1.71-0.64,3.58,1.58,3.96,0.42-1.51,0.83-3.03,1.25-4.53-0.71,0.15-2.12,0.43-2.83,0.57m-1.66,5.81c-0.4,1.41-0.78,2.85-1.17,4.28,0.75,0.39,1.5,0.79,2.26,1.2,0.44-1.53,0.87-3.06,1.3-4.59-0.8-0.31-1.6-0.61-2.39-0.89m67.1,10.95c-0.26,5.61-0.56,11.23-0.83,16.85-0.24,1.29,0.2,4.2,2.19,3.15,1.18-2.9,1.17-6.15,1.87-9.18,0.91-6.17,2.88-12.27,2.37-18.57-2.35,2.09-5.73,4.18-5.6,7.75m-69.58-2.24c-0.53,2.89-3.54,7.03,0.06,8.99,0.81-2.71,1.57-5.43,2.31-8.15-0.59-0.21-1.78-0.63-2.37-0.84m-36.3,7.92c-0.33,1.69,0.27,2.3,1.8,1.83,1.03-1.36,0.84-2.33-0.58-2.92-0.31-2.56-3.83,0.76-1.22,1.09m67.33-2.14c-0.28,1.46-0.54,2.94-0.8,4.42,10.79,5.29,21.28,11.27,32.32,16.03,0.02-1.59,0.04-3.16,0.05-4.73-10.57-5.13-20.71-11.23-31.57-15.72m-97.68,7.12c-0.4,1.2-0.78,2.44-1.15,3.67,0.69,0.09,2.08,0.26,2.77,0.34,0.14-1.57-0.63-2.89-1.62-4.01m95.47,1.62c-3.11,10.48-6.06,21.02-8.88,31.58,14.14-3.1,28.09-7.07,42-11.08,0.06-1.32,0.13-2.63,0.2-3.93-11.15-5.44-22.02-11.47-33.32-16.57m39.53,10.7c-0.09,3.04-0.32,6.11,0.2,9.14,1.35-2.83,1.64-5.97,1.97-9.03-0.54-0.0296-1.63-0.08-2.17-0.11m-125.93,10.34c0.27-0.36,0.81-1.06,1.08-1.42-0.98-2.21-1.44-5.27-3.46-6.64m131.51,13.09c-0.87,5.83-2.38,11.56-3.18,17.41,1.45,0.06,2.9,0.12,4.35,0.2,0.35-7.55,0.81-15.1,0.83-22.66-1.86,0.98-1.54,3.29-2,5.05m-48.72,9.54c-1.73,0.49-3.65,0.81-4.95,2.17,14.31,1.77,28.66,3.21,43,4.71,0.39-5.87,0.73-11.75,0.76-17.63-12.98,3.45-25.85,7.27-38.81,10.75m-82.6,12.43c-1.86-1.65-4.28-2.34-6.51-3.29m77.4,18.83c15.86,7.55,31.44,15.69,47.39,23.04,0.56-11.97,1.5-23.92,1.8-35.89-14.87-1.43-29.7-3.22-44.57-4.63-1.53,5.83-3.45,11.56-4.62,17.48m55.26-11.87c-0.04,2-0.08,4.02-0.13,6.04,2.7-0.84,4.01-3.13,4.25-5.83-1.38-0.09-2.75-0.17-4.12-0.21m-121.8,16.29c-1.54-2.38-3.28-4.94-2.33-7.92m123.21,10.6c1.63-2.48,2.11-5.48,2.99-8.26-4.04,0.39-2.6,5.48-2.99,8.26m-55.75-4.29c-0.35,1.45,0.1,2.45,1.37,2.99,15.72,8,31.21,16.48,46.92,24.52,0.13-0.91,0.4-2.73,0.53-3.64-5.66-3.32-11.77-5.78-17.57-8.84-10.48-4.88-20.59-10.58-31.25-15.03m58.1,11.45c-0.68,0-2.06,0.0104-2.75,0.02-0.26,3.97-0.46,7.96-0.63,11.96,0.59,0.2,1.76,0.6,2.35,0.8,1.53-7.7,3.31-15.34,4.65-23.07-1.73,3.22-2.48,6.84-3.62,10.29m-59.69-4.8c-3.92,15.79-9.14,31.25-12.83,47.11,20.79-5.57,41.43-11.72,62.27-17.09,0.11-1.44,0.21-2.88,0.3-4.3-13.36-6.95-26.65-14.03-40.02-20.98-3.21-1.64-6.29-3.57-9.72-4.74m-42.36,5.59c-2.16,7.52-4.62,14.95-6.7,22.5,1.65,0.2,3.32,0.45,5,0.43,1.08-2.84,0.82-6.01,1.44-8.96,0.63-6,2-11.92,2.29-17.95-1.07,1.09-1.66,2.5-2.03,3.98m-29.06,19.81c0.3-0.19,0.91-0.58,1.22-0.77,1.87-5.35,3.29-10.86,4.96-16.28m121.16,21.5c0.92-1.58,1.24-3.4,1.55-5.16-0.1-1.44,1.65-4.79-1.01-4.58-0.94,3.14-0.67,6.49-0.54,9.74m4.95-1.13c2.11-1.46,1.31-4.26,1.45-6.4-1.47,1.8-1.45,4.17-1.45,6.4m-0.81,3.2c-2.19,8.23-3.22,16.75-4.99,25.08-0.96,4.06-1.1,8.23-1.27,12.38,2.31-1.23,4.6-2.48,6.85-3.8,0.28-11.5,1.28-22.97,1.25-34.46-0.46,0.2-1.38,0.6-1.84,0.8"/></svg>