<svg xmlns:rdf="http://www.w3.org/1999/02/22-rdf-syntax-ns#" xmlns="http://www.w3.org/2000/svg" height="869.74201pt" width="302.0076pt" version="1.1" xmlns:cc="http://creativecommons.org/ns#" xmlns:dc="http://purl.org/dc/elements/1.1/" viewBox="0 0 302.0076 869.74201"><metadata><rdf:RDF><cc:Work rdf:about=""><dc:format>image/svg+xml</dc:format><dc:type rdf:resource="http://purl.org/dc/dcmitype/StillImage"/><dc:title/></cc:Work></rdf:RDF></metadata><path fill="#000000" d="m0,0c51.57,111.15,52.9,114.329,113.42,238.597,1.7462,3.3184,3.8299,6.39097,5.173,10.0246,5.4061,18.6709,10.9607,37.2694,16.7244,55.7704,0.8587,2.78178,1.2315,5.75525,1.992,8.57789,14.3047,47.0649,28.5288,94.174,42.7202,141.286,7.7581,25.6242,14.9051,52.7033,23.1517,78.0821,8.7886,26.4921,10.9446,34.3405,21.5321,70.7192-35.0096,20.3732-70.2346,40.183-105.202,60.686,0.7006,2.49994,1.5523,4.93701,2.583,7.25752,20.731-11.9558,41.4619-23.9116,62.2606-35.6744,14.3133-8.12639,28.5013-16.6009,42.8973-24.4773,46.0434,160.315,47.481,166.063,74.6731,258.893,0-31.6464-0.1475-649.972-0.13-659.445-69.57-109.324-91.53-137.194-137.46-210.063m-121.81,5.93227c1.4456,2.43221,2.866,4.89599,4.032,7.57101-2.4786-0.0536-5.0309,0.40812-7.4707-0.29363-1.8917-1.96214-3.0045-4.81728-4.3897-7.30627,2.6098-0.14848,5.2216-0.0977,7.8284,0.0289m-6.5463,5.53675c0.7451,1.42803,0.457,2.14832-0.8716,2.164-0.7249-1.44696-0.437-2.16724,0.8716-2.164m35.8308-4.69365c0.9286-0.0704,1.7988,0.21,2.5376,0.91386-2.7382,0.26517-5.4891,0.5145-8.2445,0.49186l-0.4616,0.72935-0.858-0.0749-0.351-0.79144c-1.3294,0.49002-2.7311,0.54663-4.1078,0.72979-0.047-0.43335-0.1239-1.29684-0.1634-1.73333,3.8754-0.18014,7.7685-0.35707,11.6487-0.26523m74.3128-6.74979c7.8792-0.003957,8.6072-0.0796121,14.738-0.034212,0,0,16.5936,28.6742,15.9234,30.0118-2.0792,2.03452-4.2351,4.8278-6.7776,5.5172m-101.134-23.3827c-1.5994,0.96053-3.2865,1.68367-5.046,2.03665-0.507-0.84242-1.0215-1.6817-1.536-2.52098,2.1386,0.16341,4.8085-1.47436,6.582,0.48433m-28.0834,8.45277c0.8383,1.36818,0.5605,2.03157-0.8385,2.00281-0.8056-1.37127-0.5303-2.04415,0.8385-2.00281m36.8205-10.2241c-0.01,1.16055,0.1724,2.43539-0.3955,3.46172-2.0846,0.67789-4.2982,0.19806-6.4039-0.15817,2.0887-1.61707,4.3529-2.88586,6.7994-3.30355m4.3987-0.0397c1.0109,0.43257,1.4616,3.51059-0.133,2.93111-1.2703-0.27194-1.5139-3.7732,0.133-2.93111m-2.3018,4.3709c-1.4696,0.0217-1.3569-2.82728-0.1636-3.22909,1.5303-0.17331,1.9173,3.36309,0.1636,3.22909m-34.9089,21.9641c-3.8816,2.4791-6.236-4.48376-4.3508-8.01769,1.6998,2.44234,3.2886,5.03618,4.3508,8.01769m2.7678-3.07956c-0.5164,0.36238-1.5567,1.09029-2.0732,1.45267-1.0991-1.91274-2.1429-3.86962-3.1237-5.87377,2.7067-1.05266,4.7163,1.19754,5.1969,4.4211m2.7149-4.58491c1.3295,1.03736-0.4931,3.09149-1.5233,2.17187-1.41-1.08815,0.4629-3.17378,1.5233-2.17187m87.8885-28.9034c0.6235,5.13393,1.1433,19.1786,1.4045,24.3686-3.2638-3.22413-12.8415-20.4261-15.3514-24.5117m-37.27,23.0878c-1.689,0.39741-3.8464,0.89488-4.9905-1.22036,1.6809,0.0168,3.7833-0.75275,4.9905,1.22036m-32.4546,11.8414c1.5336,0.88924-0.016,3.47215-1.3126,2.62145-1.6345-0.73139,0.1311-3.35171,1.3126-2.62145m93.0844-29.6561c6.9836,10.788,14.1789,21.3616,21.0995,32.2285-2.0689,1.88276-4.1554,3.73069-6.3723,5.33796-5.6909-8.74517-11.4423-17.4336-17.2063-26.1062-0.6776-1.10848-1.4937-2.26473-1.4812-3.74465-0.6967-10.428-2.4015-17.3831,3.9603-7.71565m-60.4646,24.8038c0.8476,0.25825,2.139,0.005,2.5547,1.2333-1.7974,2.08582-4.2071,3.08862-6.3032,4.64559-1.6529,1.29877-3.6116,1.94535-5.5561,1.59584-1.0961-0.72372-1.5791-2.39776-2.4027-3.51925,0.7847-1.37998,1.5544-2.75366,2.3115-4.14319,3.1355-0.0934,6.2708-0.0604,9.3958,0.18771m-43.1516,14.9867c1.1546,1.90023,2.2712,3.8478,3.262,5.88993-1.0604,0.68358-2.1209,1.36717-3.1939,2.06654-0.9288-1.5202-1.9355-2.98683-2.6374-4.6962,0.2541-1.58051,1.7498-2.17132,2.5693-3.26027m7.4841,2.95314c0.2132-1.16319,0.3987-2.33594,0.5792-3.49605,0.9428,0.52411,3.0729-0.2675,2.8181,1.78735-1.9421,1.25061-3.9795,2.26698-5.8915,3.59989-0.9435-1.67202-1.882-3.35668-2.7424-5.09491,2.1571-0.33934,4.7791-0.31387,5.2366,3.20372m39.3483-12.7192c-0.9448,2.33142-2.8252,2.79794-4.7114,2.1292,1.416-1.1792,2.8955-2.69026,4.7114-2.1292m10.816,2.80961c-1.7383-0.33002-2.5504-2.36222-3.3983-4.05298,1.751,0.31424,2.7849,2.10666,3.3983,4.05298m-43.6786,12.446c1.4152,2.57128,2.0622,5.59919,2.0221,8.72343-2.0176-1.96245-3.3016-4.76742-4.6134-7.45545,0.6472-0.31146,1.9391-0.94388,2.5913-1.26798m-3.5463,2.0973c1.7141,2.91038,3.4458,5.82397,5.0037,8.87311-1.2557,0.006-2.6306,0.61013-3.8323-0.1012-1.6473-2.14811-2.8738-4.73473-3.9895-7.34638,0.7027-0.3556,2.1154-1.06994,2.8181-1.42553m-4.5136,2.72102c1.1921,1.97939,2.3918,3.98725,3.1532,6.30392-1.4445-0.01-2.9064-0.023-4.3633-0.0804-0.7124-1.43112-1.4248-2.86223-2.1372-4.29335,1.1183-0.65498,2.234-1.28784,3.3473-1.93019m111.726-11.6575c-1.7489,1.63373-3.5329,3.1978-5.3671,4.66688-3.6934-5.23641-7.4297-10.4128-11.1331-15.624-0.2587-5.11722-0.8824-10.1879-1.0505-15.3112,6.1923,8.35745,11.7719,17.4439,17.5507,26.2683m-91.7912,8.98744c0.5491,1.25679,1.1184,2.52628,1.3476,3.96885-0.7725-0.005-1.5349-0.004-2.3125,0.004-0.26-1.11377-0.5174-2.21804-0.7749-3.32232,0.4356-0.16019,1.3043-0.49008,1.7398-0.65028m28.058-0.27833c0.5412,1.48129,1.0623,2.9815,1.5632,4.50064-3.4677,0.0736-6.9374-0.14684-10.4074-0.20919-1.8876-2.9962-3.7777-6.00189-5.2495-9.36072,4.7637,1.40953,9.3907,3.41323,14.0937,5.06927m42.4228-10.7225c-3.1084-1.20304-5.8779-3.4741-7.3818-7.20932,0.1849-0.79328,0.5523-2.38932,0.7372-3.18259,2.5544,3.0769,4.7758,6.60835,6.6446,10.3919m-34.1601,8.20054c-2.1995,0.14634-3.018-2.64166-3.9938-4.59521,2.0302,0.2928,2.9651,2.69529,3.9938,4.59521m5.2434,2.08429c-3.1078,0.0713-4.6146-3.48362-6.1251-6.28915,3.1519-0.89028,4.4354,3.85317,6.1251,6.28915m-53.7441,17.2562c1.3732,2.06205,2.6002,4.2692,3.661,6.60876-1.0932,0.74991-2.2016,1.47449-3.3175,2.20221-1.5986-2.78993-3.25-5.55786-4.589-8.57167,1.4168-0.0945,2.8312-0.16691,4.2455-0.2393m58.6212-22.3512c1.1001-0.2471,1.8614,2.1012,0.7959,2.7658-1.1859,0.39868-2.0549-2.23134-0.7959-2.7658m-47.4944,22.714c0.8005,1.41553,0.5327,2.11689-0.811,2.10724-0.8005-1.41553-0.5327-2.11689,0.811-2.10724m44.8531-7.22536c-2.4632-0.18635-3.3689-3.52797-4.6338-5.65616,2.501,0.20226,3.4219,3.4111,4.6338,5.65616m27.3148-17.4134c0.9114,1.35888,0.6813,2.04452-0.6951,2.03795-0.9139-1.36837-0.6813-2.04452,0.6951-2.03795m-61.0692,25.3082c2.3063,3.9807,4.8569,7.77544,6.8911,11.9958,0.027,1.85317-1.7232,2.9082-2.5206,4.33557-1.4092-0.0351-2.8133-0.0512-4.2249-0.0642,0.4674-1.1847,0.9297-2.35676,1.3945-3.51933-0.1649-0.68979-0.4975-2.07886-0.6624-2.76864-1.3764-0.0382-2.7784,0.1449-4.1467-0.21266-1.1598-1.79273-1.6166-4.09917-2.3104-6.19116,1.8565-1.22552,3.7155-2.40994,5.5794-3.57536m38.6618-8.16725c-1.1098,0.051-2.217,0.0799-3.3293,0.1214-0.7379-1.30469-1.4807-2.59674-2.2109-3.90457,2.1533,0.44173,4.4421,1.1431,5.5402,3.78317m-45.3067,17.274c0.1528,2.01159-2.1462,1.39874-1.771-0.32694-1.646,0.17934-1.7224-4.05515,0.1029-3.04503,1.1097,0.0122,1.6322,2.1544,1.6681,3.37197m-5.7183-0.92807c0.548,1.98411,1.0808,3.97451,1.5457,5.9932-1.425-1.14512-3.976-4.71849-1.5457-5.9932m-5.8059,3.60643c0.6776,1.17173,0.4375,1.78778-0.7301,1.8418-0.6826-1.19071-0.4425-1.80676,0.7301-1.8418m121.708-41.1148c0.3689,5.44004,1.0172,10.8586,1.1672,16.3266-3.9654-5.09161-7.3534-10.8554-10.9684-16.3351,2.2631-2.16371,4.5965-4.21974,6.9549-6.21246,1.1898,1.87502,2.921,3.57746,2.8463,6.22094m-11.3913,1.40113c4.1893,6.73655,8.7717,13.0883,12.8904,19.8753,1.016,5.25507,0.9947,10.7732,1.5273,16.1346-0.9173-0.74541-1.7059-1.70237-2.3887-2.76659-6.1103-9.25534-12.2131-18.5138-18.3335-27.7439,1.9986-2.02208,4.1027-3.8668,6.3045-5.4994m-55.008,30.5916c-2.3848-0.46128-4.7111-1.33667-6.9059-2.60386,2.5076-0.79068,5.9534-1.36084,6.9059,2.60386m-10.5918,1.82685c1.4787,3.83003,3.0102,7.63805,4.2999,11.5783-1.2909,0.0632-2.5945,0.1422-3.8982,0.22119-2.0706-3.43621-4.116-6.90398-6.1941-10.337,0.6305-0.94712,1.2461-1.91958,1.9545-2.76215,1.3157,0.25308,2.5755,0.80328,3.8379,1.29972m58.2952-26.2606c7.1278,10.3172,13.8801,21.0225,20.8566,31.4974,1.6603,1.97421,1.4139,5.01572,1.6942,7.60633-1.9799-1.88331-3.5388-4.33162-5.1985-6.62206-6.9273-9.81076-14.0738-19.4039-20.7717-29.4576,1.1415-1.01226,2.2855-2.01503,3.4194-3.02415m-43.5586,25.8165c-2.3333,0.40215-3.1212-2.68303-4.185-4.6526,2.0503,0.36874,3.101,2.70195,4.185,4.6526m2.9284-4.37883c1.2753,1.9448,2.7367,3.86477,3.0774,6.46185-3.4287,0.92121-5.1737-3.18776-6.9282-6.02867,1.2663-0.34788,2.5574-0.44271,3.8508-0.43318m-36.4469,14.219c1.4927-0.28407,1.8096,3.01814,0.1541,2.87489-1.762,0.34349-1.7671-2.79351-0.1541-2.87489m-15.671,10.6402c1.0679,2.62102,2.1684,5.27058,2.6671,8.1811-0.4533,0.25186-1.3575,0.76507-1.8184,1.02008-1.903-2.76856-3.4734-5.86516-5.0741-8.91756,1.4118-0.1135,2.8161-0.19224,4.2254-0.28362m117.391-49.3254c13.3961,19.9493,26.7998,39.8954,40.1807,59.8509,0.8792,0.95086,0.6052,2.39218,0.5906,3.67287-2.6049,1.85297-5.1419,3.86738-7.807,5.58738-10.4558-15.8531-21.078-31.5422-31.4254-47.4932-0.813-4.67587-0.8205-9.50786-1.3289-14.2367-0.117-2.4479-0.7547-4.9635-0.21-7.38129m-67.6042,34.9275c1.1872,1.89715,2.4022,3.80386,3.204,6.01944-2.7028,0.0818-5.4153,0.0309-8.1228-0.0328-1.0799-2.98471-2.2832-5.897-3.3908-8.85964,2.8248,0.69954,5.5608,1.82577,8.3096,2.87297m-38.9759,14.3234c0.1979,0.59184,0.5835,1.76916,0.7814,2.361-0.4733,0.14429-1.4124,0.42973-1.8857,0.57403-0.1777-0.61076-0.5381-1.81965-0.7134-2.42092,0.4532-0.12537,1.3646-0.38874,1.8177-0.51411m51.7813-20.474c0.8659,1.44098,0.6107,2.09494-0.7656,1.96188-0.8281-1.42508-0.5729-2.07904,0.7656-1.96188m23.7146-5.02303c1.07,1.26124,0.2944,3.21677,0.287,4.7473-2.2197-1.45699-3.4633-4.2998-4.8057-6.81714,1.6177,0.2222,3.6464-0.0637,4.5187,2.06984m-29.7409,17.6224c-2.3981-0.003-3.2155-3.54973-4.5662-5.49472,2.4129,0.21785,3.4726,3.22149,4.5662,5.49472m-33.7709,8.78652c0.9987,1.75438,1.9622,3.53398,2.8703,5.3577-2.8115,0.40097-5.6231,0.99167-8.464,0.93088-0.2309-0.46227-0.6773-1.39309-0.903-1.86799,2.0209-1.77852,4.2751-3.08528,6.4967-4.42058m-5.0032,11.6476c-1.9995,0.96903-3.3279-0.82728-4.3339-2.73663,2.149-1.57898,3.4114,0.50809,4.3339,2.73663m-4.8964-1.91267c0.9775,0.91,1.0039,1.6785,0.069,2.29915-0.9724-0.92263-0.9964-1.68164-0.069-2.29915m78.852-23.3541c-1.2632-1.64436-2.4583-3.34863-3.6081-5.10338,0.1748-0.73638,0.5344-2.20279,0.7093-2.93917,1.5845,2.10052,4.9444,4.92644,2.8988,8.04255m-64.6699,20.6452c0.5038,1.2124,1.0027,2.43744,1.494,3.66563-2.8115,0.40097-5.6451,0.52676-8.4614,0.8455-0.6651-1.12426-1.31-2.26745-1.9675-3.39485,2.9626-0.5587,5.9501-0.89599,8.9349-1.11628m-16.8996,10.9724c-2.3392,0.95238-2.2651-2.99713-2.9217-4.75699,1.5891,0.87673,2.2905,2.8707,2.9217,4.75699m32.2154-16.5664c1.0927-0.37044,2.0981,1.98163,0.829,2.50974-1.1432,0.496802-2.2589-2.08321-0.829-2.50974m16.1034-2.31916c0.6475,1.05781,1.28,2.1219,1.9023,3.21127-2.9767-0.0675-5.9038-1.31433-8.5307-3.01266,2.1998-0.30445,4.414-0.23572,6.6284-0.19861m-42.6897,15.6582,0.4122,1.9142c0.5899-0.62467,1.1596-1.26204,1.7192-1.90576,1.2763-0.3099,2.1532,0.50498,2.6391,1.96716,0.03,1.57805-0.3879,1.8047-1.2643,0.67359l-1.1683-1.15713c-0.3079,0.5811-0.6208,1.17483-0.9262,1.76542-0.8554-0.12861-1.7108-0.25722-2.5712-0.37319-0.1677-0.54117-0.5058-1.63299-0.6659-2.1773,0.4557-0.17912,1.3672-0.53737,1.8254-0.70699m9.4918,0.0109c-0.3017,1.40014-1.751,1.37125-2.6151,1.97311-0.1651-0.59492-0.4879-1.7879-0.6505-2.37333,1.0641,0.15759,2.4165-0.56322,3.2656,0.40022m68.36-29.1994c1.1632,1.23301,2.0162,2.84789,2.8391,4.44372-0.7625,0.001-1.5174-0.0006-2.2874,0.004-0.7908-1.21944-1.905-3.15752-0.5517-4.44754m-28.7967,18.8517c-2.4836-0.0409-3.465-3.25624-4.4704-5.5767,2.2892,0.4484,3.1323,3.58431,4.4704,5.5767m83.6669,15.9776c-2.1415,1.63908-4.3131,3.22749-6.5047,4.77158-7.0844-10.7567-14.3275-21.3525-21.2076-32.2889-0.9428-5.39088-1.1177-10.9538-1.474-16.4412,9.9775,14.3878,19.5592,29.2142,29.1863,43.9585m-85.3282-10.8624c3.1369,0.70664,4.4365,4.77973,6.138,7.67427-4.756,0.0515-9.5021,0.1409-14.2578-0.029-1.526-4.07365-3.1604-8.08115-4.6109-12.1862,4.3137,1.19654,8.4854,3.06314,12.7307,4.54096m41.6588-22.5925c1.0491,0.10063,1.9929,1.64616,1.6838,2.95458-0.9496,0.59532-2.7722-2.12243-1.6838-2.95458m-82.7969,38.9218,0.4174,1.83832c0.6325-0.58978,1.255-1.18591,1.8674-1.78839,1.3997-0.38233,2.2458,0.8246,2.7166,2.32469-0.5062,0.21062-1.5235,0.6445-2.0371,0.85826l-0.7365-2.12689c-0.2203,2.50399-1.1468,4.39591-3.2213,5.0169-0.5368-1.11446-1.0534-2.24784-1.5397-3.3938,0.7691-1.02583,1.6637-1.86162,2.5332-2.72909m79.4139-28.8986c0.8005,1.3839,0.5428,2.09161-0.791,2.11993-0.8181-1.41873-0.5502-2.1201,0.791-2.11993m-28.7509,20.1073c-2.5759,1.07195-3.4415-3.74003-4.8829-5.67892,2.3922,0.52138,3.4317,3.60719,4.8829,5.67892m34.2859-9.79086c-1.9493-2.2121-4.2533-4.43456-4.9728-7.7694,2.2972,1.75127,3.9383,4.70259,4.9728,7.7694m-33.6798,6.81033c0.9506,0.36285,1.9501,1.67451,1.7164,3.01474-1.1647,1.40117-3.0715-2.17694-1.7164-3.01474m-34.7944,17.9768c-0.056-1.35676-0.081-2.7261-0.1093-4.0733,2.0628,0.38458,1.4925,3.02368,0.1093,4.0733m-5.8007-1.27297c0.8205,1.42823,0.5628,2.13594-0.7684,2.14213-0.8181-1.41873-0.5628-2.13594,0.7684-2.14213m-2.9749,1.88052c1.4706,2.59039,3.8117,5.23986,2.7468,8.73787-1.3478-2.2201-3.1941-4.26435-3.7862-6.98854,0.2623-0.43575,0.7847-1.31673,1.0394-1.74933m91.3899-37.0411c5.2262,8.25386,10.7043,16.2554,15.9884,24.443,1.3202,2.17892,3.2827,3.99577,3.6052,6.87425-0.8648-0.54605-1.7269-1.14586-2.3545-2.0961-3.3747-4.69487-6.6862-9.46864-10.1037-14.1035-1.9262-2.47451-2.6279-5.93263-3.9721-8.87056-3.3145,1.95873-3.5627-3.46837-3.1633-6.24702m-7.0382,4.71966c1.0283,0.59389,2.2591,2.05159,2.0327,3.61004-1.2548,1.05942-3.2873-2.61387-2.0327-3.61004m-91.494,37.6954c1.1888,0.91685,0.07,3.66842-1.1537,2.39732-1.1435-0.93571-0.057-3.65258,1.1537-2.39732m8.8211,4.01899c-0.8221,1.11108-1.4072,3.59835-2.9785,2.66158-1.2453-1.79926-2.2209-3.84767-3.2545-5.82983,0.7993-1.03841,1.6011-2.06732,2.3979-3.0836,1.2977,2.06186,2.5551,4.16157,3.8351,6.25185m16.9394,2.18916c-3.2888-0.0429-6.6846,0.68547-9.9042-0.20795-0.6484-2.11085-0.4331-4.6022,0.025-6.74193,0.9514-1.73373,2.1465-3.21073,3.2561-4.7575,2.3242,3.79418,4.7139,7.55057,6.6223,11.7074m-22.495,0.74432c-0.9487,0.0261-1.8949,0.0617-2.8486,0.10046-0.3929-1.42717-0.1995-2.85604,0.2205-4.2211,1.307,0.88867,2.1074,2.39907,2.6281,4.12064m48.9609-19.1528c0.65,1.09892,1.295,2.21048,1.9198,3.34096-3.1828-0.3083-6.2733-1.63463-9.1923-3.23249,2.4187-0.33237,4.8544-0.25044,7.2725-0.10847m-3.3015,8.02085c-2.4535,1.63199-4.9622,3.14999-7.546,4.47807-1.4474-2.91605-2.8092-5.88881-3.9467-8.99699,3.8731,1.30614,7.8473,2.39116,11.4927,4.51892m8.3926-5.17799c-1.7918,1.75695-2.4608-1.67263-3.3949-2.95883,1.6664-0.32475,2.4206,1.71047,3.3949,2.95883m0.6744-3.16694c1.0675-0.37051,2.2013,1.92812,0.9472,2.54482-1.0953,0.45582-2.2968-2.00425-0.9472-2.54482m47.4958-5.91278c-2.9226,0.64735-4.4499-2.63573-5.7869-5.2922,2.7353-0.0533,4.5128,2.58845,5.7869,5.2922m-95.9398,37.2701c-1.2558,0.0696-2.5167,0.15187-3.7801,0.25626-0.4283-1.21222-2.3033-2.63357-0.7641-3.72706,2.0343-0.67802,4.9066,0.17027,4.5442,3.4708m53.5005-12.836c-4.1723,0.1035-8.3519,0.0204-12.5267,0.11442-1.5148,0.009-3.0878,0.1473-4.5386-0.55516,3.904-2.33042,7.663-5.21143,11.7723-6.92153,2.6961,0.94272,3.6815,4.84109,5.293,7.36227m8.0961-10.1846c0.7984,1.15305,0.5987,1.73125-0.6117,1.71876-0.7858-1.16883-0.5836-1.73754,0.6117-1.71876m-4.5535,10.4907c-2.7105,0.27472-3.5343-3.96478-5.0056-6.11245,2.5711,0.43644,3.6303,3.78792,5.0056,6.11245m40.1781-21.9763c0.9075,0.61256,0.4156,2.94511-0.6784,2.57874-0.8621-0.63143-0.408-2.94826,0.6784-2.57874m-35.6159,21.9845c-2.7776,1.26119-4.0759-2.01182-5.3631-4.38356,2.2819,0.32504,4.3482,1.67729,5.3631,4.38356m39.2238-18.4085c-0.1707-1.82506,2.026-1.75953,2.0409-0.0171,0.6903,1.06108,1.3932,2.10637,2.0911,3.16431-0.4399-0.26989-1.3324-0.8255-1.7824-1.10173,0.9762,1.73218-1.4435,4.31926-2.5133,2.86828-1.1655-1.30574-2.2199-2.85788-2.8537-4.65879,0.3755-1.97866,2.3989-2.15705,3.0174-0.25499m-76.2762,32.0789c-1.7081,2.9019-3.3911,5.83549-5.2374,8.59475-1.1923-1.91613-2.3543-3.87647-3.1938-6.07633,2.6243-1.49242,5.4412-3.78126,8.4312-2.51842m-6.6674,10.5803c-0.192,0.51181-0.5761,1.53544-0.7681,2.04725-1.6167-2.4769-3.1023-5.09263-4.5526-7.73357,0.3702-0.21728,1.1158-0.66448,1.4836-0.89125,1.5218,1.92644,2.8243,4.1654,3.8371,6.57757m-6.3233-5.00575c1.6258,3.05247,3.6094,5.80857,4.8246,9.17942-1.2308,0.16455-2.4693,0.42711-3.7148,0.34497-1.6926-2.16087-2.9012-4.83916-4.3746-7.21769,1.0757-0.81636,2.1665-1.57577,3.2648-2.3067m-1.6705,9.3752c-1.5252,0.19228-5.8737-6.78773-7.4088-6.72829,0.1189-1.99827,2.0787,2.21515,3.4949,0.87785,1.9365,0.76374,2.6461,3.93411,3.9139,5.85044m16.0179-13.555c2.1063,4.6854-1.4055,8.91732-3.5875,12.2798-0.6928-1.07057-1.3757-2.13479-2.0634-3.18637,1.6959-3.20236,3.3092-6.55987,5.6509-9.09338m103.998-41.1081c0.8659,1.50423,2.3358,2.82022,2.0432,4.92242-0.1363,5.04983-0.2953,10.1091-0.6202,15.1426-3.3472-4.5272-6.3693-9.41093-9.472-14.1873,2.5928-2.15342,5.2782-4.11371,8.049-5.87772m-70.8067,34.3851c0.7528,1.36165,1.4727,2.758,2.1575,4.17957-3.2519-1.14332-6.6301-1.97072-9.6289-3.96723,2.4891-0.2563,4.9801-0.18689,7.4714-0.21234m5.0253,11.15c3.2651,0.68482,4.4938,5.09293,6.3816,7.96263-6.0754,0.51621-11.4759,3.53653-17.5512,4.05319l-2.9202-8.19069c-3.909-5.73658-4.8533-5.50697-8.0139-11.9342,7.455,2.30164,14.7122,5.50721,22.1037,8.10911m67.1474-21.2012c-0.1832,4.48999-0.2079,9.00883-0.5169,13.4985-0.8331,0.0833-1.1275-1.47958-1.7382-1.95228-5.2014-8.03244-10.6648-15.8189-15.6998-24.0153,2.1968-1.58834,4.4011-3.17984,6.6455-4.65106,3.7278,5.74878,7.5085,11.4439,11.3094,17.1202m-14.9688-5.46357c1.9553,3.09439,4.1879,5.93649,5.8081,9.34945-2.4972-2.54234-4.3491-5.87997-6.5867-8.74106-1.4635-2.21406-3.514-4.04695-4.0706-6.98609,2.0359,1.55457,3.3302,4.14452,4.8492,6.3777m-50.507,21.3974c-2.6671-0.16473-3.6657-3.66785-5.0133-5.98282,2.6522-0.0187,3.5168,3.8667,5.0133,5.98282m-46.4686,12.0375c1.3281,0.33216,0.783,2.97132-0.5246,2.36725-1.4314-0.24704-0.7452-2.95542,0.5246-2.36725m89.2329-36.7649c4.6829,6.41523,9.6353,12.6762,13.8521,19.5488,0.8212,1.04875,1.6449,2.10699,2.4938,3.13368-3.1798-0.58342-6.7937-0.26982-9.5201-2.75897-3.7432-5.55276-7.2243-11.3832-10.907-16.9927,0.8718-0.69987,1.7511-1.40288,2.6203-2.08061l0.7386,0.79872c0.1844-0.4138,0.5455-1.23826,0.7223-1.64892m-41.1347,18.9508c2.344,2.37436,4.113,5.55684,5.9302,8.57183-1.6953-0.51649-3.4309-0.93188-5.0299-1.81496-1.5971-2.08474-3.0479-4.40945-3.9748-7.06807,0.7673,0.081,2.3071,0.23024,3.0745,0.3112m7.3116,0.581c1.2178,1.69484,2.3726,3.46858,3.4366,5.34329-1.6893-1.09833-2.9243-3.04936-3.4366-5.34329m62.9845-25.4521c7.6598,11.1913,15.2038,22.5152,22.8183,33.757-0.5912,4.75462-4.0985,7.57301-6.2532,11.2296-5.9123-8.72675-11.739-17.5418-17.6086-26.2969,0.4225-6.22233-0.03-12.586,1.0435-18.6897m-121.956,54.3642c-0.6267,1.66181-1.3816,3.25056-2.2244,4.76005-0.6948-1.39629-3.0725-3.19836-1.5676-4.8991,1.1166-1.13882,2.61-0.27498,3.792,0.13905m9.7221-0.86452c0.2934,0.66797,0.8827,1.98178,1.176,2.64975-0.3098,0.25537-0.9323,0.78826-1.2497,1.04678-0.5546-0.99117-1.1142-1.9697-1.6663-2.95138,0.4357-0.19182,1.3044-0.55333,1.74-0.74515m82.2354-21.0752c1.2998,2.32434,4.3743,4.22616,3.2318,7.52476-3.6681-5.36284-7.2277-10.8551-10.5781-16.5397,3.2032,1.69027,4.8092,6.16256,7.3463,9.0149m-38.9895,5.33303c0.4905,0.17514,1.4687,0.51592,1.9667,0.68792,1.1823,1.90979,2.3494,3.82586,3.4862,5.78613-0.3776,0.0623-1.1402,0.19008-1.5177,0.25239-1.353-2.20747-2.6781-4.437-3.9352-6.72644m-44.2692,20.034c-1.1892,0.92676-2.406,1.78072-3.6729,2.5397,0.1875-2.40603,2.1275-5.573,3.6729-2.5397m56.3526-13.4961c-1.6204-0.042-3.3449,0.41229-4.909-0.24301-1.0674-1.315-1.8626-2.93289-2.7308-4.44662,2.6858,0.99962,6.3598,0.9771,7.6398,4.68963m-41.8604,9.96182c0.6091,1.57949-2.1189,3.28352-3.0435,2.38314,0.1535-1.61238,1.824-2.93956,3.0435-2.38314m1.9426,3.26829c2.1701,4.1954,4.8668,7.9399,6.8504,12.2866-3.486,0.54476-7.0063,0.45065-10.5165,0.39452-0.5494-1.03543-1.114-2.06457-1.6761-3.08422,0.049-2.04271,0.082-4.07914,0.085-6.103,1.6906-1.31448,3.4413-2.496,5.2572-3.49394m-11.0192,12.8337c-2.0391,0.56416-3.6908-0.45503-4.6333-2.79113,1.0254-0.75324,2.0532-1.49699,3.066-2.23446,1.4451,1.12619,1.7541,3.03065,1.5673,5.02559m-5.9553-0.61874c0.2717,1.63557-0.094,1.93508-1.0759,0.91123-0.3523,0.0308-1.0596,0.11438-1.4169,0.15776-1.5821-2.0594,2.9732-4.08147,2.4928-1.06899m103.669-34.6927c-0.1775,2.47562-0.3123,4.95452-0.4596,7.4492-3.5551-3.598-6.6079-8.12131-8.9026-13.076,3.4284,0.92239,7.3985,1.41922,9.3622,5.62677m11.104-9.17157c4.6643,7.0761,9.3866,14.0859,14.0786,21.14-1.5517,2.63666-3.2641,5.10848-5.0972,7.44087-3.7728-5.95128-7.9765-11.502-11.4922-17.6867-0.197-4.37393,0.2478-8.76208,0.3477-13.1226,0.8396,0.54599,1.5984,1.26255,2.1631,2.22845m-57.587,38.3644c3.5269,0.69179,4.9742,5.26173,6.8765,8.47299-6.3466,0.21829-12.7032,0.3986-19.0569,0.33541-3.2222-5.6748-6.9458-10.8986-9.8604-16.8383,7.4399,2.24469,14.6669,5.46283,22.0408,8.0299m-4.947-11.3301c0.7807,1.24471,1.5562,2.50206,2.299,3.79411-3.5202-0.0941-6.8338-1.94909-10.1332-3.3044,2.5854-0.65451,5.2197-0.51833,7.8342-0.48971m6.8906,5.98114c-2.7326-0.15856-3.7333-3.92416-5.169-6.25516,2.6845,0.32604,3.6955,3.90825,5.169,6.25516m3.882-5.97659c2.4788,3.07672,4.7534,6.45968,6.8163,9.9939-2.1029-0.5681-4.1752-1.27526-6.2248-2.08672-3.1189-0.86155-4.2723-5.14297-6.1854-7.88625,1.8623-0.0903,3.7398-0.34491,5.5939-0.0209m42.9007-5.82297c-2.5551-2.60257-1.4338-6.77717-1.1339-10.2518,2.9105,2.17021,1.6097,6.90409,1.1339,10.2518m-13.8605-3.03852c2.9677,4.29541,6.1394,8.37947,9.0516,12.7506,0.8212,1.01713,0.9473,2.48158,1.2093,3.8262-0.418,0.19503-1.2565,0.57559-1.6821,0.77376-2.9444-4.6527-6.1081-9.08774-8.8508-13.9297-0.9044-1.01417,0.1269-2.31764,0.272-3.42092m-86.7724,38.7854c0.2546,1.28452,0.2802,2.62223-0.1646,3.86074-0.6073-1.06403-1.2096-2.10907-1.8069-3.16675,0.491-0.17271,1.4805-0.52128,1.9715-0.69399m9.3885,0.0328c0.9362,1.54868,1.8799,3.09421,2.8261,4.64925-1.0005,1.00629-2.094,1.85107-3.225,2.6167-1.2548-2.21671-2.8746-4.29203-3.2703-7.06633,1.2256-0.0887,2.4436-0.14257,3.6692-0.19962m3.7308,3.78819c-0.7177-1.22876-1.4254-2.45115-2.1054-3.69562,1.9013-0.89654,3.8472,1.78043,2.1054,3.69562m94.8208-40.9127c1.8232,2.30667,3.7144,4.58504,5.1773,7.27344,1.5147,1.67661,2.4574,3.88622,2.1941,6.4818-1.1953,1.60348-2.388,3.21645-3.5959,4.80408-1.8659-2.37317-3.6133-4.901-5.3305-7.44141-0.073-3.17195-0.063-6.34686,0.2565-9.49254-1.0075-0.9923,0.6668-3.19543,1.2985-1.62537m-45.2924,27.349c-3.0554,0.33396-4.0266-4.49726-5.6812-6.92684,2.845,0.71225,4.0169,4.36443,5.6812,6.92684m-56.7726,16.5467c1.1731-0.31964,1.8411,2.15175,0.7304,2.77197-1.2161,0.44287-1.8586-2.2182-0.7304-2.77197m65.7064-16.9673c-2.4413,0.21531-4.9458,0.73088-7.3707,0.14934-1.0521-1.44778-1.8824-3.10371-2.7505-4.7123,3.39,1.31759,7.315,1.64354,10.1212,4.56296m-44.6749,20.3714c-1.0316,1.4932-2.0279,3.02444-3.0243,4.55568-1.4283-2.20765-2.7559-4.50992-4.0356-6.85318,1.2063-2.16634,2.5131-4.33243,4.558-5.2887,1.0102,2.4343,1.8971,4.94103,2.5019,7.5862m108.448-51.5769c0.8461,6.01043,0.1492,12.3048-0.3434,18.3562-2.1016-2.94929-4.0696-6.02791-6.0905-9.0529,2.0156-3.23002,4.1369-6.37756,6.4339-9.3033m-121.041,51.824c1.037,1.42243-1.6171,4.20183-2.4067,2.25506-0.126-1.49607,1.3554-2.64979,2.4067-2.25506m6.6476,3.56455c0.4866,1.01946,2.6032,4.02571,0.4341,4.03299-1.3097-2.45718-4.0588-4.87365-3.3566-8.15752,1.1254,1.18548,2.092,2.59509,2.9225,4.12453m-10.9656-0.45092c0.5047,0.70644,1.0119,1.42238,1.5166,2.12881-0.7924,1.41474-1.6149,2.81044-2.4676,4.18708-0.7303-1.27621-1.453-2.55556-2.1657-3.82857,1.0432-0.84491,2.0761-1.66454,3.1167-2.48732m88.5544-35.7768c0.7402,1.3458,1.483,2.7011,2.1828,4.08476-1.6164,0.57785-2.214-1.78586-3.1459-2.93607,0.2421-0.29034,0.7211-0.85836,0.9631-1.14869m-77.6957,41.8658c-0.805,1.43052-2.3977,2.95712-3.7645,1.61925-1.0245-1.4066-1.8196-3.02449-2.6803-4.57298,0.7141-1.26631,1.4333-2.54525,2.1448-3.78943,1.6274,2.04054,2.9221,4.44076,4.3,6.74316m43.4598-20.5926c1.302,0.99618,1.9759,2.88574,2.8895,4.3806-3.8035-0.78735-7.4573-2.406-11.0884-3.97085,2.6959-0.58466,5.4691-0.68531,8.1989-0.40975m5.4724,11.7014c3.7105,0.72071,5.1144,5.69846,7.2885,8.92305-6.4099,0.48692-12.8466,0.33183-19.2613,0.61003-3.4683-5.87779-7.1736-11.5411-10.3699-17.6586,7.5532,2.19753,14.8757,5.52342,22.3427,8.12551m65.147-29.3016c0.3386,3.95686-0.239,7.96837-0.2905,11.9401-4.5068-4.79254-8.0656-10.854-12.1412-16.2052,1.569-2.44372,3.1908-4.81458,4.8451-7.15689,2.586,3.7379,5.1972,7.47587,7.5866,11.422m-121.67,37.4119c0.449,0.90869,0.893,1.83001,1.3369,2.75134-0.9862-0.11629-2.3414,0.81639-3.0644-0.33648,0.56-0.83345,1.135-1.64157,1.7275-2.41486m153.322-15.8426c-0.8779,4.62108-4.4903,7.13563-6.6199,10.7923-6.188-7.86412-11.3801-16.9116-17.2706-25.1418-0.7578-1.38064-2.1727-2.58265-1.9533-4.45418,0.2182-5.97933,0.439-11.9492,0.7604-17.9188,8.6351,11.9337,16.6097,24.6058,25.0834,36.7225m-94.8934,2.27255c-2.7952-0.33264-3.9192-3.99419-5.2464-6.58107,2.7777,0.26619,3.7177,4.21505,5.2464,6.58107m6.4265-6.18215c2.6967,3.7445,5.5143,7.40708,7.8606,11.5397-3.1644-0.74781-6.1869-2.13406-9.2854-3.20426-3.5218-0.70443-4.8556-5.448-6.8336-8.56459,2.7301,0.0858,5.6329-0.79559,8.2584,0.22918m42.3953-18.9382c1.1402,1.43217,2.2375,2.92433,3.2567,4.50167,1.7553,2.33495,3.5055,4.68254,5.054,7.25099-0.9663,0.0545-1.9327,0.10906-2.9041,0.17622l-0.1152-0.34181c-3.3697-1.463-7.4989-1.57759-10.1259-4.83493,1.0896-1.62271,2.1189-3.28352,3.216-4.87776,0.537-0.63429,1.0791-1.24959,1.6185-1.87438m-90.2704,37.2494c0.343,1.14244,0.6709,2.29116,1.0012,3.44937-1.0696,0.0448-2.129,0.0643-3.191,0.10594,0.41-1.46629,1.2522-2.5963,2.1898-3.55531m-3.5132,13.0389c1.3241,1.3346,2.0784,3.3382,2.9714,5.10496-1.0304,0.76589-2.0708,1.52542-3.1163,2.29759-1.4483-2.34684-2.821-4.75674-4.0702-7.27069,1.4018-0.0882,2.8138-0.32823,4.2151-0.13186m-6.0693,1.49337c1.5513,2.45145,3.0194,5.00073,4.2154,7.75804-1.3142,0.45211-2.6535,0.77767-4.025,0.82171-0.8631-1.58961-1.7716-3.16035-2.6952-4.69319,0.8023-1.34514,1.6247-2.64596,2.5048-3.88656m110.229-34.7365c-1.1585,2.25184-1.4738,5.95409-3.8555,6.68184l0.3376,1.34481c-1.4457,0.81228-1.0279-2.40589-1.215-3.46572-2.209-3.45236-4.728-6.55448-6.9395-9.98471,3.9358,1.44859,8.8053,1.25511,11.6724,5.42378m-100.533,33.2616c0.5721,1.026,1.1443,2.052,1.7038,3.09378-2.0054,1.48762-2.647-1.74266-3.6763-3.29473,0.6617,0.0617,1.3158,0.12659,1.9725,0.20095m80.0718-34.2483c1.1799,1.83705,2.3118,3.71509,3.3429,5.68775-2.0894,0.53241-5.2566-3.24805-3.3429-5.68775m-29.7778,23.4631c-0.3524,0.094-1.0446,0.26621-1.3996,0.35071-1.7077-2.18621-3.0222-4.78886-4.4174-7.2842,2.918,0.60806,4.1553,4.31733,5.817,6.93349m65.8187-21.1539c3.8383,5.9135,7.8404,11.6535,11.6786,17.567-1.2005,1.77422-2.4991,3.46283-3.9559,4.93284-4.6525-6.61754-9.5242-12.9858-14.1439-19.638,0.2549-3.67711,0.2934-7.38005,0.5231-11.0572,2.2888,2.32362,3.9699,5.42683,5.8981,8.19544m-54.6407,20.9792c-3.0734,0.61536-6.1986,0.52539-9.3013,0.55249-1.0064-1.75124-2.0177-3.52146-2.9988-5.30426,4.1778,1.18989,8.3553,2.63275,12.3001,4.75177m23.0832-16.3582c2.6757,4.33263,5.6916,8.33407,8.2009,12.8307-1.5224-0.0512-2.2971-1.84614-3.2388-3.06595-2.1112-3.24025-4.6282-6.04827-6.3991-9.61972,0.3598-0.0339,1.0796-0.10168,1.437-0.14506m-68.9344,29.4977c3.6587,6.47277,7.6802,12.6365,11.0819,19.3427-2.1543,0.1591-4.3134,0.20434-6.4699,0.22746-2.6443-6.72641-5.2532-13.478-7.7942-20.2579,1.1698-1.4138,2.4957-1.21762,3.1822,0.68778m-46.7903,34.2296c-0.2503,0.70457-0.7507,2.11371-1.001,2.81828-0.9095-0.84342-2.0736-1.4756-2.4211-2.95325-1.2295-3.8389-2.386-7.71872-3.4442-11.6394,2.8029,3.38426,4.6253,7.81914,6.8663,11.7744m132.76-68.183c0.8336,1.22271,1.6645,2.46755,2.4804,3.71867-0.2011,3.08589-0.3696,6.1687-0.6411,9.24177-1.8193-1.65522-3.2174-3.87545-4.6736-5.99779,0.8065-2.41082,1.6608-4.79939,2.8343-6.96265m-99.8883,42.3263c0.03,1.51481,0.045,3.0359,0.036,4.55694-1.5021-0.10175-2.0532-1.71588-2.4232-3.27897,0.602-0.32422,1.7906-0.96638,2.3875-1.27797m-4.4564,3.16073c0.7805,1.3712,0.4749,2.05666-0.9066,2.06272-0.7603-1.39012-0.4547-2.07558,0.9066-2.06272m2.8334,4.83583c0.7244,1.82643-2.0566,2.11995-2.8986,3.09185-0.5169-0.97526-1.0439-1.92525-1.5582-2.89103,1.4773-0.15129,2.9725-0.45748,4.4568-0.20082m103.502-34.4338c-2.6679-1.28101-4.0438-4.8167-5.6273-7.58129,2.5443,1.41668,4.2075,4.67479,5.6273,7.58129m-51.3971,14.5203c1.4454,0.9997,2.1418,3.00631,3.0653,4.63401-3.748-0.95797-7.5382-2.14057-10.9823-4.26783,2.6226-0.38563,5.2752-0.59409,7.917-0.36618m5.9699,12.1896c3.8764,0.84129,5.1513,6.22033,7.572,9.45818-6.4529,0.57852-12.9197,0.40438-19.3773,0.8058-3.6441-6.16283-7.5326-12.1081-10.9197-18.5043,7.7043,2.10303,15.1221,5.63155,22.725,8.2403m-2.1497-12.4204c0.8388,1.08358,1.7154,2.11982,2.6248,3.12135-0.1296-0.77824-0.3939-2.35371-0.5261-3.14145,3.4799,0.16358,7.0444-0.65611,10.473,0.10817,3.1916,4.28648,6.3226,8.69298,9.1285,13.3928-3.1821-0.7194-6.2019-2.19102-9.3079-3.28971-2.8039-1.1928-6.4373-1.303-7.6438-5.37268-0.5524,0.83031-1.1174,1.6764-1.6749,2.51935-1.1884-1.20145-2.6209-2.34342-3.0229-4.31452l-0.7049,0.15636-0.5851-0.78885,0.1776-0.91663c-0.1679-0.38305-0.514-1.1555-0.6845-1.54805,0.4403,0.0169,1.3135,0.0539,1.7462,0.0739m-46.2803,18.7642c0.7981,1.37441,0.5026,2.0346-0.8989,1.99634-0.7755-1.38384-0.4749-2.05666,0.8989-1.99634m-8.3257,4.19153c1.0983,0.89133-0.4819,2.43377-1.3011,1.71074-1.2468-0.85059,0.482-2.49701,1.3011-1.71074m114.093-35.8179c1.6513-0.35008,1.7455,3.79274,0.6195,4.51411l-0.3416-0.37399c-2.066,0.017-4.2505,0.22031-6.1712-0.89757-0.8765-2.72174-0.1317-5.90747-0.2153-8.80117,0.054-0.97069,0.1113-1.93188,0.1732-2.87409,2.208,2.46257,4.7758,4.98611,5.9354,8.43271m-103.855,34.7175c0.8686,1.35561,0.6108,2.06332-0.7506,2.11371-0.8359-1.35869-0.5856-2.06326,0.7506-2.11371m-38.9239,27.6589c1.4696,3.22285,2.3346,6.82367,3.3155,10.3236-2.96-4.33017-5.4737-9.16205-7.7333-14.1103,1.5888,1.00321,3.2278,2.0698,4.4178,3.78671m41.8655-16.4318c1.175,1.78644,2.2717,3.65807,3.2096,5.65896-1.0053,0.79756-2.0256,1.60142-3.036,2.41162-1.5538-2.42932-3.0018-4.9659-4.3313-7.59389,1.3868-0.17681,2.7735-0.322,4.1577-0.47669m94.6966-40.2394c2.2845,3.45255,5.2292,6.32487,6.9769,10.2852-0.8545,0.89281-1.964,0.7857-2.5307-0.47429-1.6972-2.49608-3.4774-4.95759-4.8167-7.78167,0.091-0.51206,0.2791-1.5172,0.3705-2.02926m28.2179,5.64825c-2.1767-3.17084-2.0675-4.16359-4.0779-7.49846m-13.7755,3.74164c-0.1679,2.73496-1.372,5.16377-2.7692,7.20947-2.1824-2.81036-4.2361-5.76902-6.2874-8.71819,2.9483,0.56387,6.6299-1.14729,9.0566,1.50872m-110.43,41.3831c1.3251,2.19791,2.6025,4.43681,3.7085,6.82075-0.9523,0.64907-1.9346,1.21584-2.9469,1.70033-1.387-1.28733-2.6146-3.11501-3.0265-5.25057,0.2289-1.54895,1.4254-2.32074,2.2649-3.27051m60.0858-14.4071c-0.3274,0.1573-0.9897,0.47505-1.3146,0.64184-1.8584-2.34469-3.3538-5.09326-4.7712-7.86377,3.1248,0.37457,4.142,4.7442,6.0858,7.22193m12.018,0.14994c-3.3523,0.32057-6.7167,0.27745-10.0787,0.40194-1.1846-1.98253-2.3415-3.98712-3.3699-6.1084,4.4508,2.00327,9.3036,2.828,13.4486,5.70646m-49.4288,12.6057c-0.8349,2.93886-2.7132,5.19524-4.6185,7.09421-0.238-0.68048-0.7115-2.03195-0.947-2.70294,1.7841-1.59569,3.5833-3.19767,5.5655-4.39127m105.192-25.0734c-4.1692-5.10161-5.2451-6.15309-8.9832-11.7501,1.2001-1.52125,2.3752-3.07418,3.5377-4.61133m-111.083,51.4091c0.2319,1.3572-0.2292,1.77031-1.3733,1.2457-0.2143-1.35399,0.2443-1.7766,1.3733-1.2457m-39.5121,16.0424c1.0166,1.66272,2.3882,3.17769,2.8025,5.29112-0.2526,0.66345-1.5311,2.33313-1.8358,0.85875-0.4649-1.95544-1.9411-4.1221-0.9667-6.14987m155.436-41.572c-2.7022-0.266-5.4881-0.11795-8.1187-1.06684-2.5941-3.38691-5.226-6.78972-7.4344-10.5899,1.3011-1.67911,2.5796-3.38041,3.853-5.06908,3.995,5.45852,8.3352,10.6048,11.7001,16.7259m-118.09,33.657c-1.0731,0.76261-2.2063,1.26577-3.3868,1.49369-0.8613-1.16901-1.5638-2.49891-2.3344-3.73728,0.4687-0.38463,1.3859-1.16661,1.8444-1.55759,2.0875-0.88976,3.1198,1.94621,3.8768,3.80118m17.6465-10.6511c1.1802,4.76533-0.086,9.69535-1.3888,14.1984-2.0488-1.2858-3.9414-4.23774-3.7506-7.17187,1.5138-2.5577,3.2236-4.94415,5.1394-7.02651m34.2063-10.4741c2.2829-0.30741,2.9944,3.25192,4.197,4.98467-3.9614-1.16405-7.8948-2.57152-11.6941-4.42455,2.4769-0.4935,4.9933-0.58213,7.4971-0.56012m-49.1323,17.7072c0.8536,1.29865,0.5758,1.96204-0.8234,1.99652-0.8711-1.33348-0.5932-1.99687,0.8234-1.99652m-40.8754,23.7518c-1.9695-0.50768-2.3599-3.5476-3.3409-5.39364,1.4548,1.41714,2.418,3.41809,3.3409,5.39364m140.197-64.3782c2.5117,2.97877,4.8192,6.23215,6.8696,9.71891-1.4641-0.24397-3.4557,0.50056-4.3308-1.48436-1.2344-2.3305-3.5338-4.31262-3.8012-7.10875,0.32-0.28065,0.9525-0.8388,1.2624-1.1258m-54.327,31.2036c4.4889,1.79781,9.0941,3.21013,13.5071,5.29236,2.2105,2.50368,3.7175,5.86892,5.4743,8.87744-6.4553,0.50578-12.9372,0.33793-19.4,0.84686-3.5606-6.51364-7.8695-12.3366-11.1755-19.0615,3.9695,0.81306,7.731,2.71342,11.5941,4.04483m12.9038-1.54601c-2.9083-0.38035-3.9817-4.26313-5.563-6.79688,3.0025-0.31195,3.9941,4.37385,5.563,6.79688m-93.3545,30.2215c0.5569,1.15877,1.1162,2.32704,1.6554,3.51423-1.0426,0.46544-2.1201,0.79797-3.2175,0.99131-1.4113-1.85659,0.7272-3.15732,1.5621-4.50554m104.513-37.3406c3.274,4.66301,6.4269,9.53441,9.1238,14.743-5.9161-1.5199-11.4951-4.59166-17.3959-6.24434-1.6968-2.71746-3.3735-5.45382-4.9695-8.26589,4.4063-0.0745,8.8384-0.55995,13.2416-0.23282m-107.811,54.4404c2.6198,6.252,6.0607,12.0254,7.8065,18.8096-1.592-0.53837-3.1688-1.14627-4.7203-1.84898-2.555-9.02833-5.5432-17.8553-8.0681-26.8962,2.2629,2.76628,3.3288,6.62059,4.9819,9.9356m6.653-11.0167c0.2834,0.62999,0.8551,1.87736,1.1385,2.50736-1.6989,0.20133-3.4002,0.32993-5.1112,0.29406,1.2875-1.03087,2.6226-1.94463,3.9727-2.80142m140.118-54.1168c1.8305,2.49326,3.5147,5.19486,5.6176,7.35358-1.0552-2.70004-2.8134-4.7915-4.3902-6.99003,3.1323,0.3398,3.4358-0.88121,5.7252,2.71682-0.7936,2.17368,2.0576,3.88317,1.1786,6.0187-0.4124-0.16546-1.2373-0.49638-1.6497-0.66184,1.5569,2.09096,0.7755,4.53347-0.5686,6.36743-3.0872-5.06731-6.6431-9.68673-9.5338-14.9306,1.2104,0.0125,2.4131,0.0597,3.6209,0.12597m-102.73,45.8895c1.002,1.32115,1.7367,2.90095,2.527,4.43662-1.4472,0.20196-2.917,0.35011-4.3816,0.39075-0.8681-1.64021-1.7387-3.28992-2.5967-4.92378,1.467,0.0321,3.066-0.67546,4.4513,0.0964m-34.3928,13.8067c0.9435,1.70365,1.8719,3.41358,2.7625,5.17086-1.6487,3.44596-1.771,7.59458-3.2259,11.139-1.7861-5.12416-3.4263-10.3302-4.9832-15.5708,1.8122-0.28012,3.6269-0.51911,5.4466-0.73913m96.9159-25.9309c-0.4176,0.005-1.2455,0.0127-1.6582,0.005-1.9011-2.44283-3.4441-5.30852-4.8261-8.23074,3.2723,0.93466,4.5187,5.28273,6.4843,8.22536m12.5121-0.42436c-3.4707,0.4436-6.9632,0.32743-10.4414,0.61607-1.406-1.99573-2.6457-4.15548-3.8073-6.36879,4.7859,1.74795,9.7461,3.04413,14.2487,5.75272m35.6637-27.5347c-0.09,2.74464-1.1935,10.3457-1.457,13.0994-1.1628,1.75852,1.0148-1.50706,0.6545-2.77919,0.7154-2.05688,0.5442-3.66741,1.33-5.67984m-104.039,52.2556c0.6646,1.34562,0.3012,2.03409-1.0803,2.07178-0.6848-1.38994-0.3214-2.07842,1.0803-2.07178m57.6051-19.4634c1.0216,1.61846,2.0507,3.2654,2.6566,5.21487-3.8957-1.39157-7.8772-2.56832-11.5578-4.73412,2.9598-0.37847,5.9317-0.39324,8.9012-0.48075m-88.8623,34.7357c0.8684,1.41886,0.6459,2.13298-0.6778,2.13603-0.8533-1.42514-0.6307-2.13927,0.6778-2.13603m82.8853-26.3388c4.6899,1.95642,9.5191,3.42304,14.1306,5.65439,2.4819,2.73836,4.2023,6.43617,6.1246,9.78663-6.3775,0.61033-12.7842,0.60078-19.1712,0.95178-3.9325-6.81182-8.3311-13.1979-11.9915-20.2494,3.7457,0.75875,7.2734,2.56683,10.9075,3.85656m-71.8958,30.7616c-0.2027-0.67407-0.5906-2.019-0.7909-2.68358,0.6024,0.9818,1.1997,1.97624,1.7845,2.98646-1.0282,0.93348-1.6516,2.16207-1.3976,3.82606-0.6813,1.19998-1.438,2.33652-2.2349,3.44767,2.2132,2.38669-0.6683,5.70311,0.01,8.60459-1.2749-2.22941-3.1498-3.68238-4.7474-5.48252-1.4983-2.56831-1.2211-5.97025-0.3084-8.74131,0.4601,0.25096,1.3853,0.77186,1.848,1.03232,0.8491-0.75368,1.6908-1.50422,2.5249-2.25162-0.4727-0.2668-1.4255-0.79726-1.8982-1.06406-0.569-1.39598-1.2489-2.70369-1.9565-3.98933,2.8303,0.37068,4.2616,5.48447,7.1724,4.31532m85.5215-32.1762c-3.0697-0.1341-4.0542-4.57006-5.7437-7.10092,3.1055-0.20734,4.0238,4.70913,5.7437,7.10092m11.4816-7.61163c3.3614,5.12174,6.7253,10.253,9.7464,15.7059-5.3805-1.26875-10.4923-3.83971-15.7637-5.64895-3.8815-0.82865-5.2648-6.10993-7.5922-9.43926,4.5277-0.50423,9.0697-0.41392,13.6095-0.6177m-109.944,41.0333c0.4795,0.76962,0.9513,1.54239,1.4207,2.33728-0.1118,0.65748-0.3228,1.98828-0.4345,2.64576-2.1482-0.48599-1.7465-3.12867-0.9862-4.98304m40.8417-3.83898c0.13,0.55688,0.39,1.67065,0.5275,2.22439-1.0274,0.5224-2.0475,1.07327-3.0675,1.62414-0.3424-1.45866-0.6874-2.89519-1.0198-4.34751,1.2162-0.50611,2.4182-0.0478,3.5598,0.49898m7.0776-4.18831c0.6497,1.32028-1.1217,2.86857-2.0974,2.41079-0.9691-1.38748,1.0595-3.26402,2.0974-2.41079m61.1357-8.29181c-0.4077,0.0116-1.218,0.0539-1.6181,0.0624-2.0289-2.76886-3.7604-5.87219-5.4843-8.94704,3.6024,0.69198,4.8903,5.83388,7.1024,8.88464m13.4008-0.70993c-3.7153,0.69283-7.4893,0.39887-11.2295,0.90189-1.5843-2.22701-3.04-4.60233-4.322-7.1132,5.2312,1.84709,10.5001,3.67846,15.5515,6.21131m-78.8245,26.7346c0.8106,1.39025,0.5202,2.06942-0.8537,2.0091-0.8081-1.41238-0.5226-2.07892,0.8537-2.0091m67.5596-16.1057c1.4224,1.23049,2.1816,3.28469,3.1376,5.0358-3.9539-1.16719-7.9429-2.40404-11.6487-4.53828,2.819-0.43573,5.6681-0.75755,8.5111-0.49752m-107.654,56.8504c1.8296,4.71634,4.4197,9.01081,5.4861,14.1711-2.0015-0.9157-4.5718-1.88973-5.3147-4.70916-2.183-7.23439-4.4314-14.431-6.516-21.7062,2.765,3.46323,4.5396,7.93909,6.3446,12.2443m102.333-47.7784c-2.9046,0.46082-5.8387,0.42825-8.7581,0.70563-0.8857-1.64342-1.6832-3.36568-2.3699-5.14459,3.7525,1.26156,7.5958,2.35891,11.128,4.43896m13.4634-2.09485c-3.2309-0.17245-4.3209-4.69089-6.0302-7.42418,3.1931,0.0933,4.1493,4.89918,6.0302,7.42418m8.4898-7.79929c2.0388,2.87008,4.07,5.7433,6.0231,8.70172-3.8782,0.36037-7.7714,0.56892-11.6592,0.60672-1.699-2.94829-3.5391-5.76412-5.1776-8.76919,3.594-0.38954,7.2126-0.43117,10.8137-0.53925m-60.5806,28.2124c-1.6664,0.35638-3.5473,1.07588-5.0297-0.38245,1.6537-0.2141,3.56-1.12327,5.0297,0.38245m-1.2538,10.9388c1.971,2.74026,3.5237,5.8969,5.0613,9.02821-0.76,0.074-2.2777,0.23153-3.0352,0.31503-1.3412-3.21304-2.6321-6.45758-3.7566-9.8029,0.4326,0.11492,1.2978,0.34474,1.7305,0.45966m5.7258-0.69733c-0.096,1.54612-0.2011,3.11752-0.3244,4.6857-0.9766-1.44758-1.9028-2.95828-2.7786-4.50049,1.0344-0.0828,2.0662-0.1435,3.103-0.18521m36.0806-13.3819c0.7253,1.19398,0.4904,1.76577-0.7022,1.72487-0.7203-1.20662-0.4854-1.77841,0.7022-1.72487m-96.2008,54.4439c1.4271,4.65209,3.0681,9.22566,4.2433,14.0036-0.3732,0.49239-1.1145,1.46453-1.4877,1.95693-2.8379-6.82492-6.5471-13.1713-8.2062-20.6764,1.9862,1.11172,4.7634,1.66253,5.4506,4.71584m124.865-54.4898c-1.6992,0.35946-3.4886,0.59852-5.1178-0.30362,1.6787-0.18241,3.5948-0.95875,5.1178,0.30362m-3.9446,10.5111c2.1469,7.67418-5.3266,2.37444-8.9921,0.7082,2.9704-0.65672,5.9925-0.60812,8.9921-0.7082m-4.7841,9.93353c-2.9646,0.23298-5.939,0.26988-8.9013,0.54399-1.0816-1.81467-2.1558-3.66411-3.1821-5.52291,4.1023,1.22132,8.3834,2.38932,12.0834,4.97892m-109.006,39.7264c0.9404,0.483,1.6627,1.95209,1.4745,3.24184-1.1575,1.58776-2.8168-2.5463-1.4745-3.24184m61.4175-21.1237c1.2657,1.65385-1.9373,2.98672-2.6243,1.42918-0.3899-1.7339,1.7648-2.11436,2.6243-1.42918m-55.3053,32.4218c-0.7313,0.94687-1.4701,1.89689-2.2164,2.85005-0.9244-2.68075-1.9217-5.35219-2.4859-8.19331,0.2494-0.19861,0.7382-0.60217,0.9801-0.79763,1.6912,1.42405,2.4268,4.18339,3.7222,6.14089m-8.1875-0.5642c0.3883,2.74582,3.2293,5.92463,1.7405,8.57726-0.7884-2.73733-4.3161-6.07279-1.7405-8.57726m9.9514,3.79094c0.5492,1.19354,1.0933,2.39972,1.6324,3.61853-1.5277,0.18279-3.073,0.33075-4.6076,0.074,0.9533-1.28153,1.9542-2.50918,2.9752-3.6925m-9.7958,7.71067c2.2204,4.22715,3.9545,8.83573,5.9959,13.2111,2.3439,5.71373,5.5037,10.9931,6.7469,17.3334-1.8455-0.9912-3.6328-2.14354-5.3898-3.3717-2.7888-9.18386-5.6305-18.3457-8.3061-27.5767,0.2365,0.10178,0.7168,0.30219,0.9531,0.40397m115.63-45.0638c-1.3438-0.01-2.8393,0.5179-4.0254-0.54757m-98.6211,44.5905c-1.7593,0.19487-3.5741,0.49711-5.2866-0.21232,1.6988-0.16972,3.9231-1.65365,5.2866,0.21232m2.0459,3.15154c5.8802,11.5632,12.2039,22.7734,18.1194,34.3114-3.2674,3.91946-6.1657,8.34897-9.7368,11.8471-4.7221-15.1527-9.5878-30.2457-14.1487-45.4866,1.9254-0.2324,3.8458-0.45217,5.7661-0.67193m36.5686,14.0142c0.5168,0.94364,1.0287,1.89992,1.5279,2.87198-1.0972,0.0669-2.202,0.10522-3.3043,0.18471,0.5829-1.03262,1.1759-2.0589,1.7764-3.05669m-37.0444,19.8085c1.982,5.32704,3.4503,10.9627,5.1781,16.4377-0.3936,0.63781-1.1732,1.91028-1.5592,2.54494-3.0484-7.33773-7.0665-14.1245-9.0091-22.1014,1.8229,0.93739,3.734,1.7327,5.3902,3.11872m72.1531-29.6574c1.3865,1.60355,2.9042,3.03667,4.4622,4.40032-2.2676,0.20624-4.4881,0.90909-6.4257,2.46331-0.5856-2.06327-0.8891-4.23335-0.4504-6.38578,0.6066-0.1155,1.8073-0.36235,2.4139-0.47785m6.9398,1.84184c0.925,0.67903,0.5813,3.19219-0.6262,3.03108-1.1013-0.61621-0.5688-3.23959,0.6262-3.03108m10.5938,1.68013c1.0918,0.19877,1.965,1.79472,1.7892,3.16356-1.0789,1.21796-2.9406-2.22089-1.7892-3.16356m-66.8063,34.7745c-3.7412,4.4116-7.0756,9.31753-10.7691,13.783-0.8191-2.3769-1.5955-4.75054-2.402-7.1116,3.16-4.45416,6.6164-8.54707,9.9773-12.7478,1.1494,1.94449,2.2484,3.95211,3.1938,6.07634m66.3301-31.1422c0.7426,1.41855,0.4445,2.16411-0.8918,2.21456-0.7199-1.42798-0.4218-2.17354,0.8918-2.21456m-64.6389,34.1569c2.4213,4.54387,5.117,8.88922,7.1577,13.7389-6.1385,0.68998-12.2896,1.39574-18.4502,1.7473,3.1369-5.78238,7.5125-10.3632,11.2925-15.4862m-18.2514,8.16406c0.8514,2.69005,1.7052,5.3896,2.3727,8.17723-2.3463-0.98296-2.8163-4.48478-4.0356-6.82156,0.4132-0.34051,1.2472-1.02466,1.6629-1.35567m47.1562-9.20555c-1.1687,0.65485-2.3449,1.31286-3.516,1.98985-2.4274-2.18167-1.1235-5.69491-0.2836-8.51991,2.1657,0.58407,2.9274,4.2384,3.7996,6.53006m-47.2127,21.1747c3.406,7.10462,6.3637,14.5433,9.7093,21.7047,1.1888,2.50748,2.1912,5.13466,2.9594,7.89091-1.8337-0.43778-3.5357-1.42546-5.1772-2.50155-2.6248-9.48386-6.1687-18.5431-8.577-28.1276,0.2688,0.25681,0.8142,0.76729,1.0855,1.0336m3.6662-1.48352c0.8056,1.37127,0.5302,2.07578-0.8263,2.11353-0.8029-1.3934-0.5276-2.09791,0.8263-2.11353m89.99-33.965c0.6197,1.23798,1.2342,2.48863,1.8437,3.75189-3.3679,0.57984-6.7779,0.84018-10.1801,0.87601-1.3518,0.30971-1.6054-1.67051-2.2555-2.67456,3.2171-2.36058,7.0359-1.70601,10.5919-1.95334m-64.2938,35.6251c4.9078,9.08159,9.8105,18.1758,14.693,27.289-6.3518,8.31056-12.7789,16.5577-19.2889,24.6813-5.2633-16.6656-10.4157-33.3879-15.3718-50.1919,6.6346-0.90695,13.3184-1.08645,19.9677-1.77833m23.2809-12.4586c0.5244,0.97212,1.0412,1.97901,1.5555,2.9764-0.8606-0.0211-1.7237-0.0517-2.5792-0.0538-0.1552-0.52533-0.4731-1.57283-0.6258-2.08866,0.413-0.21401,1.2339-0.6294,1.6495-0.83392m41.0514-7.59208c-0.4667,0.74198-0.9385,1.4966-1.4102,2.25121-0.5222-0.70964-1.0496-1.40665-1.5669-2.09731,0.989-0.064,1.9805-0.11842,2.9771-0.1539m-32.8283,22.3202c0.896,1.42841,1.3789,3.19732-0.203,4.25593-0.695-1.30142-1.385-2.61548-2.0774-3.90741,0.5738-0.0808,1.709-0.25823,2.2804-0.34852m2.7072,4.99363c0.6549,1.21278,1.3022,2.46032,1.9545,3.69523-0.469,0.60599-0.9354,1.22148-1.407,1.84961-0.7151-1.31412-1.4227-2.63138-2.1302-3.94865,0.5268-0.54577,1.056-1.08204,1.5827-1.59619m-47.9485,31.4882c1.5997,5.24387,4.2182,13.3605,5.828,18.6108-0.3999,0.16315-1.2368,0.51674-1.8524,0.80288-1.6168-2.38204-2.4222-5.47043-3.709-8.12678-2.2308-5.57115-5.2448-10.7426-6.4355-16.8836,2.298,1.24531,5.3741,2.16683,6.1689,5.59672m52.0008-23.9994c1.1233,2.57688,4.4326,5.56079,2.2035,8.55312-1.2898-2.31799-2.5443-4.66119-3.7837-7.01068,0.3931-0.38482,1.187-1.15761,1.5802-1.54244m29.4023-3.89264c0.6721,1.50058,0.3714,2.26827-0.9019,2.30307-1.1184-0.96727-1.2174-1.94783-0.2924-2.9543-0.4061-2.52767,3.0834-0.48252,1.1943,0.65123m-51.3967,19.1341c0.5768,1.29796,1.1433,2.6212,1.71,3.94444-6.8276,8.41374-13.2559,17.3882-20.4048,25.3774-0.4129-1.50311-0.8207-2.98723-1.221-4.47449,6.7013-8.19269,12.8353-17.171,19.9158-24.8473m3.8557,7.6022c4.9709,8.97107,9.8359,18.0494,14.6077,27.1876-11.4569,1.50216-22.9879,2.11869-34.4986,2.68468-0.3755-1.23423-0.7561-2.45581-1.1342-3.6679,7.0619-8.6693,13.7648-17.8107,21.0251-26.2044m-27.1845,22.5841c0.8285,2.85759,1.7702,5.69966,2.1353,8.73952-1.7277-2.26216-2.7322-5.15181-3.747-7.95295,0.4005-0.19785,1.2113-0.58834,1.6117-0.78657m1.4275,15.5968c2.1156,5.26095,4.6896,10.2258,6.7572,15.5277-1.0803,0.51278-2.1606,1.02555-3.2359,1.55731-2.153-7.05722-4.3891-14.0799-6.2953-21.2503,1.6502,0.34561,1.9863,2.6391,2.774,4.16528m12.1676,12.2333c-1.763-5.44982-3.4906-10.9248-4.9842-16.4973,10.6682-0.80525,25.372-0.6495,36.0325-1.41998m11.8162,22.2957c-10.0921,12.1529-19.8251,24.778-30.0352,36.7693-3.4172-11.1871-7.1166-22.2358-10.3375-33.5047,10.8752-6.03198,21.6301-12.3932,32.5102-18.4062,2.6141,5.05348,5.4979,9.88944,7.8625,15.1415m-44.7129,6.10309c0.5306,1.88604,1.0661,3.79106,1.6091,5.69294-2.2497,0.0513-3.8121-1.71076-4.6688-4.19843,1.0199-0.51925,2.0348-1.02587,3.0597-1.49451m5.4402,17.7191c-1.8517-1.84187-2.9647-4.5389-4.3249-6.90133,3.0672-0.98195,3.3349,4.38486,4.3249,6.90133m41.4111-18.5753c-9.8739,12.5361-20.1111,25.7021-29.9673,38.2731-0.3259-0.823-0.9851-2.46586-1.3109-3.28886,3.4451-4.93095,7.4453-9.18696,11.0611-13.9151,6.6959-7.92707,12.25-16.0232,19.1894-23.5987m-34.8175,38.9508c-0.3956,0.37533-1.1794,1.12285-1.5751,1.49818-3.0819-6.82868-6.3376-13.5218-9.2835-20.4387m66.0428,24.3395c0,57.3212-0.053,117.089-0.011,158.171-0.4434-1.33242-47.5504-155.829-47.9736-157.149,8.3537-10.7975,16.6219-21.6964,24.9832-32.497,2.0146-2.56594,5.3352-6.56923,5.3352-6.56923m-33.9537,44.9296c-1.0902-1.21069-3.5949-7.43924-4.2694-9.01256,0.6193-0.49459,1.0886-0.57744,1.5893-1.21428,1.0026,2.93183,1.9653,7.10073,2.6801,10.2268m-4.0219,0.48336c-1.9591-0.72269-2.0552-3.63224-2.6963-5.61975,1.5607,1.24665,2.1384,3.50279,2.6963,5.61975m1.4121,2.78311c3.7131,7.12434,6.6224,14.8886,10.0432,22.2399,1.7408,3.5524,43.0456,136.621,44.2122,140.507,0,7.53378-0.021,24.3604,0,28.7447-3.0882-10.829-52.9975-180.756-55.849-191.673,0.3975,0.0453,1.1926,0.13577,1.5901,0.18103"/><path fill="#000000" d="m141.4,13.8384-8.2542-13.6126-1.7244,0.0228823,10.9661,18.0091"/><path fill="#000000" d="m300.59,637.73-58.2848,13.8054-0.9211,2.93212,59.315-11.761z"/><path fill="#000000" d="m301.9,671.981-34.2725,66.7343-0.1324,6.96131,34.4167-64.6502z"/><path fill="#000000" d="m301.95,686.137-30.7905,59.3536-0.7333,6.42016,31.5814-59.1763z"/><path fill="#000000" d="m301.86,736.779-29.1152,12.0734-3.1396,5.97879,32.2817-11.9206z"/><path fill="#000000" d="m258.07,703.812,12.5498,5.81015,2.0917,6.97217-14.6157-6.8759,21.2334,35.1706-10.1038-29.6891,5.8102,6.73977,9.8432,36.9432-23.875-36.9678-4.3283-17.8706z"/><path fill="#000000" d="m301.07,816.848-12.2506-1.81012-2.6964-8.81654,14.6949,3.32711-26.4117-46.744,15.3276,45.8935-6.9109-10.1231-16.5152-56.0654,30.7181,48.8455,3.9352,22.7434z"/><path fill="#000000" d="m123.066,255.104c62.1777,193.771,121.03,388.161,178.788,583.256l0.028-5.19272-176.492-579.458z"/><path fill="#000000" d="m120.92,244.566c63.6719,193.286,121.699,388.319,180.962,582.962l-0.012-3.74021-178.637-580.634z"/></svg>