<!-- Created with Inkscape (http://www.inkscape.org/) -->
<svg xmlns:rdf="http://www.w3.org/1999/02/22-rdf-syntax-ns#" xmlns="http://www.w3.org/2000/svg" height="1700" width="500" version="1.1" xmlns:cc="http://creativecommons.org/ns#" xmlns:dc="http://purl.org/dc/elements/1.1/">
<metadata>
<rdf:RDF>
<cc:Work rdf:about="">
<dc:format>image/svg+xml</dc:format>
<dc:type rdf:resource="http://purl.org/dc/dcmitype/StillImage"/>
<dc:title/>
</cc:Work>
</rdf:RDF>
</metadata>
<g transform="translate(-64.84924,-711.65998)">
<path d="m524.182,908.61-457.502,0,0-51.17,457.5,0z" fill="#000000"/>
<path d="m90.88,757.5,198.3,0c14.04,0,25.84,11.8,25.84,25.84v198.3c0,14.61-11.79,25.84-25.84,25.84h-198.3c-14.6,0-25.84-11.24-25.84-25.84v-198.3c0-14.05,11.23-25.84,25.84-25.84z" fill="#000000"/>
<polygon points="256,176.3,255.8,176.3,142.1,176.3,143.2,188.5,154.4,313.6,256,313.6,256,268.2,195.9,268.2,191.8,221.7,256,221.7" transform="matrix(0.74,0,0,0.66,-0.96,680)" fill="#ebebeb"/>
<polygon points="202,336.3,177.4,336.3,156.4,336.3,162.8,407.6,255.8,433.5,256,433.4,256,386.2,255.8,386.2,205.2,372.6" transform="matrix(0.74,0,0,0.66,-0.96,680)" fill="#ebebeb"/>
<polygon points="349.6,400,360.3,280.4,361.4,268.2,349.2,268.2,255.8,268.2,255.8,313.6,311.8,313.6,306.5,372.5,255.8,386.2,255.8,433.4,348.9,407.6" transform="matrix(0.74,0,0,0.66,-0.96,680)" fill="#ffffff"/>
<polygon points="365.4,221.7,365.4,221.7,365.5,221.7,366.4,211.5,368.5,188.5,369.6,176.3,255.8,176.3,255.8,204.5,255.8,221.6,255.8,221.7" transform="matrix(0.74,0,0,0.66,-0.96,680)" fill="#ffffff"/>
</g>
<g transform="translate(-64.849237,-371.75614)">
<path d="M524.182,908.614,66.68,908.61v-51.17h457.5c0.001,0.00068,0.002,51.1739,0.002,51.1739z" fill="#000000"/>
<path d="m90.88,757.5,198.3,0c14.04,0,25.84,11.8,25.84,25.84v198.3c0,14.61-11.79,25.84-25.84,25.84h-198.3c-14.6,0-25.84-11.24-25.84-25.84v-198.3c0-14.05,11.23-25.84,25.84-25.84z" fill="#000000"/>
<g transform="matrix(0.91,0,0,0.8,54,682)">
<g transform="translate(55,142)">
<path d="m93.8,75.5,49.28,0,3.403-38.13-52.68,0,0-37.24,0.129,0,93.25,0-0.893,9.991-9.152,102.6-83.33,0,0-37.24z" fill="#ffffff"/>
<path d="m94.02,172.2-0.163,0.046-41.47-11.2-2.652-29.7-20.15,0-17.23,0,5.216,58.47,76.28,21.18,0.172-0.048,0-38.74z" fill="#ebebeb"/>
<path d="m139.9,111.2-4.484,49.87-41.53,11.21,0,38.74,76.34-21.16,0.56-6.29,6.478-72.37-37.36,0z" fill="#ffffff"/>
<path d="m93.93,0.125,0,23.13,0,14.02,0,0.092-89.83,0-0.119,0-0.747-8.37-1.697-18.88-0.89-9.991,93.28,0z" fill="#ebebeb"/>
<path d="m93.8,75.5,0,23.13,0,14.02,0,0.092-40.83,0-0.119,0-0.746-8.369-1.698-18.88-0.89-9.991,44.28,0z" fill="#ebebeb"/>
</g>
</g>
</g>
<g transform="translate(-64.853739,-31.847789)">
<path d="m523,908-457,0,0-51,457,0c-0.003,0.005,0,51,0,51z" fill="#000000"/>
<path d="m90,757,198,0c14,0,25,11,25,25v198c0,14-11,25-25,25h-198c-14,0-25-11-25-25v-198c0-14,11-25,25-25z" fill="#000000"/>
<switch transform="matrix(2.67,0,0,2.66,105,775)">
<path d="m31.6,8.495c-8.68,0-16.32,3.215-22.22,9.205-6.077,6.16-9.376,14.15-9.376,22.48,0,8.421,3.212,16.24,9.29,22.31,6.077,6.077,13.98,9.376,22.31,9.376,8.334,0,16.41-3.299,22.66-9.463,5.904-5.817,9.029-13.54,9.029-22.23,0-8.595-3.125-16.41-9.116-22.4-6.077-6.077-13.89-9.29-22.57-9.29zm0.087,5.731c7.119,0,13.46,2.691,18.41,7.64,4.861,4.862,7.466,11.29,7.466,18.32,0,7.119-2.518,13.37-7.38,18.15-5.123,5.035-11.72,7.727-18.49,7.727-6.859,0-13.28-2.691-18.23-7.64-4.949-4.95-7.727-11.46-7.727-18.23,0-6.859,2.778-13.37,7.727-18.41,4.862-4.948,11.11-7.553,18.23-7.553z" fill="#ffffff"/>
</switch>
</g>
<g transform="translate(-64.997708,308.08224)">
<path d="m523,908-457,0,0-51,457,0c0.00055,0.005,0,51,0,51z" fill="#000000"/>
<path d="m90,757,198,0c14,0,25,11,25,25v198c0,14-11,25-25,25h-198c-14,0-25-11-25-25v-198c0-14,11-25,25-25z" fill="#000000"/>
<switch transform="matrix(2.67,0,0,2.66,105,775)">
<path d="m31.6,8.495c-8.68,0-16.32,3.215-22.22,9.205-6.077,6.16-9.376,14.15-9.376,22.48,0,8.421,3.212,16.24,9.29,22.31,6.077,6.077,13.98,9.376,22.31,9.376,8.334,0,16.41-3.299,22.66-9.463,5.904-5.817,9.029-13.54,9.029-22.23,0-8.595-3.125-16.41-9.116-22.4-6.077-6.077-13.89-9.29-22.57-9.29zm0.087,5.731c7.119,0,13.46,2.691,18.41,7.64,4.861,4.862,7.466,11.29,7.466,18.32,0,7.119-2.518,13.37-7.38,18.15-5.123,5.035-11.72,7.727-18.49,7.727-6.859,0-13.28-2.691-18.23-7.64-4.949-4.95-7.727-11.46-7.727-18.23,0-6.859,2.778-13.37,7.727-18.41,4.862-4.948,11.11-7.553,18.23-7.553z" fill="#ffffff"/>
</switch>
</g>
<g transform="translate(-64.993206,648.06484)">
<path d="M523.002,908.004,66,908v-51h457z" fill="#000000"/>
<path d="m90,757,198,0c14,0,25,11,25,25v198c0,14-11,25-25,25h-198c-14,0-25-11-25-25v-198c0-14,11-25,25-25z" fill="#000000"/>
<switch transform="matrix(2.67,0,0,2.66,105,775)">
<path d="m31.6,8.495c-8.68,0-16.32,3.215-22.22,9.205-6.077,6.16-9.376,14.15-9.376,22.48,0,8.421,3.212,16.24,9.29,22.31,6.077,6.077,13.98,9.376,22.31,9.376,8.334,0,16.41-3.299,22.66-9.463,5.904-5.817,9.029-13.54,9.029-22.23,0-8.595-3.125-16.41-9.116-22.4-6.077-6.077-13.89-9.29-22.57-9.29zm0.087,5.731c7.119,0,13.46,2.691,18.41,7.64,4.861,4.862,7.466,11.29,7.466,18.32,0,7.119-2.518,13.37-7.38,18.15-5.123,5.035-11.72,7.727-18.49,7.727-6.859,0-13.28-2.691-18.23-7.64-4.949-4.95-7.727-11.46-7.727-18.23,0-6.859,2.778-13.37,7.727-18.41,4.862-4.948,11.11-7.553,18.23-7.553z" fill="#ffffff"/>
</switch>
</g>
<path d="m163.907,831.665c0.9402-2.881,2.197-9.278-1.253-17.47,0,0-6.087-1.835-19.86,6.912-5.396-1.279-11.13-1.912-16.88-1.912-6.325,0-12.72,0.765-18.68,2.316-14.21-9.2-20.48-7.315-20.48-7.315-4.095,9.718-1.564,16.91-0.7937,18.7-4.812,4.929-7.75,11.22-7.75,18.94,0,5.824,0.6988,11.05,2.406,15.59l1.795,3.858c4.796,8.486,14.25,13.97,31.08,15.69-2.388,1.522-4.824,4.111-5.811,8.493-1.238,6.789-0.8896,9.86-0.4598,22.56,0,0-0.3943,4.502-4.743,6.002,0,0-2.569,1.69,0.199,2.625,20.15-0.3765,15.4-0.2101,47.03-0.0005,2.76499-0.936,0.1982-2.624,0.1982-2.624-4.348-1.5-4.743-6.002-4.743-6.002v-18.19c0-7.094-3.147-10.85-6.226-12.83,17.94-1.689,26.55-7.187,30.52-15.73l1.417-3.814c1.33-4.549,1.73-9.785,1.73-15.62,0.00023-8.372-3.314-15.07-8.695-20.17z" fill="#ffffff"/>
<path d="m123.72,1515.08c-5.37-9.792-14.53-13.69-25.17-13.69-15.48,0-27.8,10.95-27.8,29.49,0,18.8499,11.58,29.49,28.33,29.49,10.74,0,19.9-5.898,24.96-14.85l-11.8-6.003c-2.634,6.318-6.633,8.214-11.69,8.214-8.742,0-12.74-7.266-12.74-16.85,0-9.582,3.369-16.85,12.74-16.85,2.52599,0,7.581,1.371,10.53,7.686l12.64-6.636z" fill="#ffffff"/>
<path d="m178.62,1515.08c-5.373-9.792-14.53-13.69-25.17-13.69-15.48,0-27.8,10.95-27.8,29.49,0,18.8499,11.59,29.49,28.33,29.49,10.74,0,19.9-5.898,24.96-14.85l-11.8-6.003c-2.631,6.318-6.633,8.214-11.69,8.214-8.739,0-12.74-7.266-12.74-16.85,0-9.582,3.372-16.85,12.74-16.85,2.526,0,7.581,1.371,10.53,7.686l12.64-6.636z" fill="#ffffff"/>
<path d="m-131.159,1074.76a29.9247,29.288,0,1,1,-59.8494,0,29.9247,29.288,0,1,1,59.8494,0z" fill-rule="nonzero" transform="matrix(0.66413786,0,0,0.65985579,231.01021,457.31274)" fill="#ffffff"/>
<path fill="#ffffff" d="m79.8473,1205.57c1.68655-8.4029,8.96498-13.6589,18.2147-15.2263h50.9692c12.3036,1.5744,20.0806,7.0224,22.0494,21.3633,0,24.0965,0.0273,16.7827,0.0273,39.0783-4.44202,5.3866-8.88421,8.1413-16.5136,12.2843l-0.84965-40.875c-1.25599-1.5793-2.34937-1.2487-3.35535-0.077l-0.34119,44.3285-49.5894-2.5618-0.0799-41.6113c-1.17481-1.4998-2.55781-1.3744-3.43524,0l-0.900424,38.8711c-5.64836,0.6695-8.26792-1.4298-15.9054-7.3428,0,0-0.327844-31.3479-0.290426-48.2313z"/>
</svg>
