<svg xmlns:rdf="http://www.w3.org/1999/02/22-rdf-syntax-ns#" xmlns="http://www.w3.org/2000/svg" height="700" width="50" version="1.1" xmlns:cc="http://creativecommons.org/ns#" xmlns:xlink="http://www.w3.org/1999/xlink" viewBox="0 0 39.999962 559.99961" xmlns:dc="http://purl.org/dc/elements/1.1/">
<metadata>
<rdf:RDF>
<cc:Work rdf:about="">
<dc:format>image/svg+xml</dc:format>
<dc:type rdf:resource="http://purl.org/dc/dcmitype/StillImage"/>
<dc:title/>
</cc:Work>
</rdf:RDF>
</metadata>
<defs>
<linearGradient id="linearGradient3050" y2="58.2544" gradientUnits="userSpaceOnUse" y1="243.254" gradientTransform="matrix(0.90160646,0,0,0.31789425,2.4870273,3.9010317)" x2="19.6732" x1="20">
<stop stop-color="#000000" offset="0"/>
<stop stop-color="#000000" stop-opacity="0" offset="1"/>
</linearGradient>
<linearGradient id="linearGradient3007" y2="119.546" gradientUnits="userSpaceOnUse" x2="23.7302" gradientTransform="matrix(0.89654847,0,0,0.98937335,6.60587e-4,343.99827)" y1="134.885" x1="21.875">
<stop stop-color="#000000" offset="0"/>
<stop stop-color="#000000" stop-opacity="0" offset="1"/>
</linearGradient>
</defs>
<path fill="url(#linearGradient3007)" d="m3.3035,479.841c0.775354,0.10014,1.32805,0.14783,2.10223,0.26047,0.443864,0.0639,0.906106,0.0882,1.34038-0.0566,1.25415-0.8859,3.13035-1.91187,4.20325-0.45707,1.07996,1.34797,2.37042,3.49691,3.34966,4.92818,0.609457,1.09941,1.34058,1.45737,2.13151,2.56682,0.248796,0.36835,0.719535,0.37484,1.10137,0.45989,2.17875,0.30587,4.35383,0.64369,6.53107,0.94819,0.838917,0.2024,1.50507-0.95706,2.03493-1.45603,1.4761-1.6549,2.64906-3.26672,3.50266-4.00545,0.397647-0.42398,0.774372-0.91208,1.29842-1.16146,1.05716-0.31102,2.32907-0.002,2.93222,1.0321,0.274012,0.3644,0.546981,0.80781,1.01098,0.90299,0.663338,0.14754,1.69053,0.16129,2.36353,0.1564,0.323177,0.19911,0.318901-0.0534,0.655215,0.0112,0.595376-0.0736,1.15104,0.34901,1.67293,0.61919,0.234824,0.83149,0.166851,1.70362,0.198261,2.56007,0.03786,1.98373,0.149363,3.96846,0.03269,5.9505-0.05388,3.02723,0.123055,6.0522,0.09895,9.07996,0.03561,2.66909,0.07127,5.33995,0.105515,8.01061-0.0011,1.35174,0.126224,2.7171-0.129923,4.0559-0.585245,0.48648-1.13354,1.02235-1.73425,1.48554-0.243643,0.20634-0.574068,0.092-0.855586,0.0896-1.25951-0.10671-2.51574-0.32278-3.78228-0.29128-0.409118-0.0436-0.818343-0.092-1.22706-0.11978-1.58365-0.14692-3.16781-0.43611-4.75936-0.35843-0.321653,0.48633-0.59316,1.01405-0.696332,1.60455-0.0985,0.65985-0.555806,1.14087-0.981066,1.59252,0.321589,0.48317,0.392909,1.08414,0.424928,1.66111,0.04519,1.05357,0.07404,2.10748,0.01344,3.16097-0.05655,1.15755,0.120998,2.32389-0.03992,3.47517-0.244585,1.07943-0.520563,2.15361-0.787567,3.22907-0.824157-0.0253-1.54455,0.41559-2.31949,0.63612-0.06591,0.28772-0.130348,0.57552-0.193208,0.86636-0.376498,0.0113-0.751502,0.0225-1.12799,0.0336,0.03149,1.28449,0.05107,2.57075,0.06028,3.85591,0.251108-0.0229,0.504031-0.0328,0.756897-0.0451,0.53619,0.73248,0.408675,1.78797-0.021,2.54607-0.22315,0.4347-0.53405,0.81347-0.726969,1.26615-0.09292,0.40219-0.03491,0.82363-0.02779,1.23721,0.25001,0.23566,0.6125,0.44277,0.625367,0.84656,0.09234,0.85154,0.06283,1.71136,0.05974,2.56895,0.480255,0.15147,0.915753,0.48124,1.07167,1.0102,0.548632,1.30065,0.304263,2.75288,0.387209,4.13202,0.06874,1.64967,0.119638,3.48466-0.828605,4.89625-0.30906,0.51447-0.815234,0.82484-1.24354,1.2134,0.07045,0.56478,0.320239,1.09594,0.31356,1.67395-0.03514,0.69122-0.28241,1.35846-0.231014,2.05813,0.0319,0.63388,0.283379,0.783,0.191907,1.42529-0.961727-0.00099-4.01893,0.004-4.71354,0.002-0.155216-0.80394,0.670678-1.4403,0.430523-2.24647-0.181807-0.97677,0.05773-1.95664,0.02629-2.93625-0.828547-0.93373-1.30524-2.21598-1.28163-3.50056-0.0043-0.84468-0.0682-1.68911-0.01891-2.53229,0.06594-0.95401,0.02994-1.9399,0.371094-2.84382,0.180754-0.58498,0.556228-1.12364,0.525733-1.76052-0.01166-1.2662-0.172284-2.53257-0.03196-3.79369,0.06572-0.59877,0.05987-1.20182,0.04217-1.80142-0.265632-0.0835-0.52967-0.16258-0.79524-0.24314-0.0049-0.464-0.01625-0.92638,0.0062-1.38811,0.578269-0.71051,1.38933-1.09792,2.1862-1.45651,0.04143-1.58964-0.09428-3.17886,0.0053-4.76739-0.641171-0.0331-1.28336-0.0472-1.92514-0.0447-0.123733,0.11653-0.24887,0.23629-0.372452,0.35852-0.44174-0.0379-0.884906-0.0733-1.32662-0.11076-0.198585-1.23675-0.392722-2.47374-0.537908-3.7185-0.204543-1.35818-0.116106-2.73463-0.139273-4.10131-0.0281-1.45348,0.25241-2.88624,0.458636-4.31524-0.353383-0.26108-0.755636-0.51107-0.931685-0.94953-0.382643-0.90773-0.632578-1.86965-0.94593-2.80628-0.347401-1.1108-1.49669-1.64173-2.51674-1.76127-2.93834-0.24865-5.87661-0.4941-8.81472-0.73336-0.554039-0.063-1.18855-0.12864-1.57411-0.60824-0.426054-0.55276-0.246699-1.31597-0.267146-1.96751,0.114091-8.9552,0.211758-17.9113,0.31988-26.8663,0.0189943-0.62136-0.0441191-1.25109,0.0615142-1.86364,0.532162-0.708,1.11479-1.28678,2.05558-1.36378m9.4636,14.6324c-0.428871,0.36507-0.422146,1.00431-0.483624,1.53373-0.01676,0.47094-0.160628,0.98058,0.03835,1.43261,0.199535,0.60677,0.762284,1.08571,1.38415,1.06085,0.412633-0.48133,0.60554-1.11716,0.60471-1.75824-0.01119-0.76394,0.09125-1.56275-0.206339-2.28191-0.422648-0.17052-0.942774-0.30809-1.337,0.0126m16.1588,1.91797c-0.285777,0.61342-0.09752,1.30723-0.158962,1.95967-0.0099,0.44866-0.185288,0.94666,0.0925,1.34574,0.136824,0.35744,0.505846,0.46663,0.800281,0.63148,0.346099-0.15773,0.823863-0.22995,0.966694-0.66059,0.236365-0.74603,0.125784-1.55119,0.120259-2.32325,0.01452-0.37777-0.198527-0.6872-0.369834-0.99326-0.481671-0.14822-0.993053-0.23237-1.45092,0.0433m-7.86246,23.8386-0.04889,0.0692c-0.230753,0.0639-0.461507,0.1278-0.692194,0.19442-0.100968,0.43711-0.219727,0.8782-0.195149,1.33378,0.03144,1.23864,0.0618,2.47732,0.09216,3.71599,1.27163,0.11526,2.54627,0.23184,3.82228,0.22214,0.0023-0.0797,0.006-0.24176,0.0084-0.32235,0.0922-0.79541,0.214512-1.63756-0.02038-2.41205-0.225832-1.19353-1.02622-2.25435-2.1217-2.65587-0.285299-0.0354-0.566438-0.0829-0.844957-0.14544m1.44264,16.8137c-0.02182,0.44438,0.0099,0.8919,0.110035,1.32776,0.204515-0.46562,0.526333-0.94567,0.394012-1.48341-0.168568,0.049-0.335564,0.10146-0.504024,0.15482m0.513112,8.2354c0.07429,1.02418-0.115524,2.39568-1.15856,2.7963-0.673042,0.24599-1.4644,0.10072-2.03526-0.34496-0.318234-0.34586-0.557732-0.76033-0.838002-1.13726-0.474764,0.31585-0.420095,0.96637-0.414889,1.48263,0.05792,1.44949,0.04585,2.90251,0.127532,4.35118,0.07644,0.44465,0.166563,1.0846,0.663794,1.19934,0.229782,0.0787,0.34072-0.19497,0.474415-0.33008,0.692064-0.13824,1.43401-0.24649,2.11718-0.0193,0.01381,0.1243,0.04046,0.37304,0.05534,0.49718,0.621446-0.10287,0.819998-0.81227,1.15712-1.27554,0.390644-0.46644,0.246455-1.1239,0.351781-1.68752,0.206237-0.94252,0.108007-1.91242,0.112884-2.86782-0.02639-0.9009,0.04791-1.81265-0.130205-2.69951-0.120539,0.004-0.362731,0.0262-0.483114,0.0358m-3.46273,10.68c-0.06754,0.52472-0.145487,1.05117-0.157757,1.58373,0.166235,0.40254,0.737424,0.31434,1.07414,0.26012,0.06008-0.28459,0.122169-0.60533-0.04928-0.85592-0.267914-0.48002-0.453415-1.00028-0.596032-1.53296-0.139257,0.15142-0.273753,0.31447-0.271083,0.54503m2.14041-0.52982c-0.153878,0.7089-0.215438,1.47822,0.022,2.1753,0.09889,0.20561,0.326618,0.2019,0.419656-0.0126,0.122124-0.72836,0.02498-1.47073-0.07165-2.19424-0.09227,0.003-0.277898,0.0238-0.370133,0.0277z"/>
<path fill="url(#linearGradient3050)" d="m3.28684,488.572c0.01083-7.48165,0.209892-16.3622,0.01624-23.8265,0.02258-6.91056,0.128207-13.8187,0.09503-20.7355-0.05773-1.12284-0.09611-2.27042-0.08389-3.41862,0.05323-5.44663,0.07755-10.9018,0.109815-16.3497,0.01349-2.02422,0.06223-4.07159-0.06315-6.06063-0.02524-6.18793,0.06856-12.3745,0.09013-18.5577,0.06856-3.10749-0.143269-6.1837-0.07756-9.29146,0.03607-6.18174,0.118011-12.3756,0.08563-18.5582-0.166251-2.73229-0.03065-5.52613-0.03965-8.28593,0.000183-5.91159,0.169683-11.8445-0.01441-17.7368,0.0092-4.66839,0.06672-9.33677,0.08205-14.0048-0.000911-3.03222,0.104675-6.08694-0.04598-9.09673-0.135156-3.32518-0.04057-6.69841-0.08838-10.0476,0.04506-13.1434,0-26.2796,0.05231-39.4225-0.0092-7.19859-0.04598-14.406,0.04874-21.6,0.121535-52.1222,0.05865-162.681,0.09013-229.438,3.00208-4.11395,5.45914-5.91778,11.0422-8.71058,0.01175,56.0359-0.09494,104.682-0.09954,160.716-0.03515,53.8034-0.03157,107.617-0.07388,161.419-0.01349,5.74023-0.159588,11.4948-0.02974,17.2284,0.150392,4.11515,0.01441,8.25618,0.03515,12.385,0.05498,12.0423-0.03515,24.0864,0.01716,36.1288-0.07214,8.38884,0.01349,16.7836-0.01891,25.1721-0.07756,7.49125,0.07122,14.9999-0.04598,22.4812-0.04782,3.82673-0.08297,7.65444-0.0748,11.4816,0.181056,9.29139-0.135596,18.6076,0.06223,27.8956l0.924862,0.0951c0.01716-7.66702,0.104666-15.3268,0.121627-22.9937-0.2107-6.17947,0.04057-12.3992-0.03515-18.6035-0.07306-1.06932-0.09539-2.17169-0.08297-3.26516,0.03873-5.66717,0.07755-11.334,0.107383-17.0017,0.0092-2.19968,0.07664-4.43115-0.06489-6.5973-0.03607-6.15034,0.108457-12.3049,0.06131-18.4512-0.269577-3.79362-0.0092-7.7405-0.06764-11.6-0.142636-7.1198,0-14.2538-0.0092-21.3759-0.194116-9.98272,0.160038-19.9902-0.04415-29.9682-0.03066-4.97328,0.12171-9.94945,0-14.9157-0.04415-5.82308,0.03157-11.6504,0.0469-17.4732-0.106658-5.85138-0.04506-11.7184-0.01441-17.5775,0.06223-3.84185-0.09215-7.68392-0.0424-11.5266,0-4.53851,0.05589-9.06413,0.05323-13.5967-0.175457-8.39294,0.104584-16.8101-0.05323-25.2012-0.01624-2.14206,0-4.28557,0.01533-6.42996,0.02799-6.60952,0.100435-13.209,0.133256-19.8122-0.18257-5.27911-0.02524-10.5949-0.0234-15.8933-0.05681-0.88693-0.123519-1.7917-0.127483-2.71186-0.02708-5.85927,0.123876-11.7175,0.0092-17.575-0.02708-5.65751,0.03065-11.317,0.04873-16.9748-0.173474-6.97419-0.08389-10.1578-0.13533-18.0227-0.01799-9.67972,0.218456-19.3605,0.07755-29.0359-0.02708-6.93792,0.116653-13.88,0-20.8168,0.07664-6.47052-0.331612,4.57749,0.0092-52.5145-0.182487-8.67971,0.133981-25.2253,0.144802-25.8028,3.70461-2.10188,7.22683-3.28543,10.8382-4.28973,0.06672-3.0728,0.145335,3.33249,0.165343,4.40201-0.05232,6.74904-0.09601,13.4993-0.135413,20.2496-0.01083,2.15046-0.06039,4.3076,0.01716,6.44449,0.05589,0.9527,0.119819,1.89547,0.11892,2.86412-0.245146,113.452-0.493357,226.903-0.738503,340.354-0.04874,17.128-0.05232,34.2607-0.127217,51.3806-0.05589,4.95317-0.0703,9.90526-0.112073,14.855,0.134789,10.9446-0.04148,21.9016-0.07306,32.8459,0.03249,2.55401,0.16101,4.776,0.127602,7.33998l0.672146,0.003c0.04956-12.4041,0.08462-24.3956,0.109824-36.8021,0.000257-1.72412,0.02882-3.44579,0.06397-5.16072,0.01808-15.2179-0.28608-5.25043,0.110449-65.4221-0.04864-10.2247,0.02524-20.4528,0.05947-30.6797-0.03965-4.53657-0.02708-9.08367,0.01175-13.6233,0.01349-22.7247,0.05865-2.59416,0.0424-33.4402,0.117653-63.2974,0.253259-126.588,0.367847-189.886,0.05048-6.49187-0.0469-13.0158,0.105768-19.4976-0.09774-4.46953,0.05865-15.28,0-21.4456,0.0092-5.69745,0.05232-11.3914,0.08747-17.0858-0.103235-9.28873,0-18.5886,0.0514-27.8785-0.101344-10.3993-0.03515-9.2525,0.01982-19.6576,2.65865-0.5204,4.82016-2.75863,10.3734-2.77713-0.15419,98.1257-0.291863,196.251-0.440548,294.375-0.03699,18.6621-0.02882,37.3282-0.0971,55.9923-0.04057,6.33438,0.02258,12.6688-0.01716,19.0032-0.05773,13.323-0.000734,26.6408-0.08389,39.9607,0.0424,8.94327-0.0092,17.8877-0.03791,26.8341,0.04782,9.12986-0.01624,18.2643-0.03873,27.3976,0.04874,7.0988,0.240134,12.4525,0.23114,19.5516l0.775598-0.0231c0.14661-161.943,0.24082-322.006,0.3905-483.949-0.0297-4.30621-32.116,5.64004-35.342,16.0006-0.03699,58.8832-0.108099,117.768-0.152374,176.645-0.09927,96.5143-0.16554,194.537-0.275263,291.05"/>
</svg>
