<svg xmlns:rdf="http://www.w3.org/1999/02/22-rdf-syntax-ns#" xmlns="http://www.w3.org/2000/svg" height="932.464" width="489.656" version="1.1" xmlns:cc="http://creativecommons.org/ns#" xmlns:dc="http://purl.org/dc/elements/1.1/" viewBox="0 0 391.72433 745.97139">
<metadata>
<rdf:RDF>
<cc:Work rdf:about="">
<dc:format>image/svg+xml</dc:format>
<dc:type rdf:resource="http://purl.org/dc/dcmitype/StillImage"/>
<dc:title/>
</cc:Work>
</rdf:RDF>
</metadata>
<defs>
<linearGradient id="linearGradient3757" x1="18.8624" gradientUnits="userSpaceOnUse" y1="1523.2" gradientTransform="matrix(0.98235177,0,0,0.48108916,171.09846,11.903327)" x2="19.6732" y2="58.2544">
<stop stop-color="#000000" offset="0"/>
<stop stop-color="#000000" stop-opacity="0" offset="1"/>
</linearGradient>
<linearGradient id="linearGradient3001" x1="21.1376" gradientUnits="userSpaceOnUse" x2="19.6732" gradientTransform="matrix(0.98235177,0,0,0.47978773,349.68456,13.011766)" y1="1522.01" y2="58.2544">
<stop stop-color="#000000" offset="0"/>
<stop stop-color="#000000" stop-opacity="0" offset="1"/>
</linearGradient>
<linearGradient id="linearGradient3001-4" x1="21.1627" gradientUnits="userSpaceOnUse" x2="19.6732" gradientTransform="matrix(0.98235177,0,0,0.48239346,4.8519781,11.200743)" y1="1522.48" y2="58.2544">
<stop stop-color="#000000" offset="0"/>
<stop stop-color="#000000" stop-opacity="0" offset="1"/>
</linearGradient>
</defs>
<path d="m171.181,745.98,0.81833-0.0149c0.0122-11.3224,0.19981-25.3396-0.0117-36.6358,0.0242-10.4583,0.13973-20.9128,0.10358-31.3803-0.0632-1.69938-0.1048-3.43617-0.091-5.1738,0.0584-8.24274,0.0845-16.4982,0.11959-24.7431,0.0145-3.06339,0.0674-6.16179-0.0689-9.17194-0.0272-9.36458,0.0747-18.727,0.0981-28.0844,0.0746-4.70285-0.15606-9.35827-0.0847-14.0614,0.0396-9.35504,0.12855-18.7287,0.0932-28.0852-0.18116-4.13486-0.0338-8.36304-0.0435-12.5396,0.00017-8.9463,0.18481-17.9249-0.0159-26.8421,0.009-7.06487,0.0723-14.1299,0.0889-21.1941-0.00098-4.58912,0.11402-9.21182-0.0503-13.7668-0.1472-5.0322-0.0443-10.1372-0.0968-15.2058,0.0496-19.8908,0.00099-39.7707,0.0574-59.6606-0.008-10.8939-0.0499-21.8015,0.0531-32.6884,0.13244-78.8798,0.0642-246.195,0.0982-347.223,3.27091-6.22592,5.948-8.95577,12.031-13.1823,0.013,84.8026-0.10345,158.421-0.10844,243.222-0.0383,81.424-0.0343,162.863-0.0807,244.286-0.0151,8.68696-0.17396,17.3958-0.0323,26.0728,0.16391,6.22772,0.016,12.4945,0.0378,18.7431,0.0601,18.2242-0.0381,36.4513,0.0187,54.6757-0.0781,12.6955,0.0151,25.3999-0.0204,38.0944-0.0841,11.337,0.078,22.7003-0.0502,34.0222-0.0526,5.79131-0.0903,11.5841-0.0818,17.3758,0.19725,14.0612-0.0953,29.103,0.12018,43.1592l0.90292-0.0132c0.0186-11.603,0.16641-23.981,0.1849-35.5838-0.22953-9.3517,0.0438-18.7645-0.0386-28.1538-0.0798-1.61828-0.10393-3.28656-0.0906-4.94129,0.0427-8.57647,0.0843-17.1525,0.11698-25.7297,0.009-3.32901,0.0833-6.70602-0.0712-9.98408-0.0388-9.30771,0.11821-18.6219,0.0663-27.9233-0.29369-5.74103-0.005-11.7141-0.0733-17.5551-0.15533-10.7749,0.00098-21.5712-0.007-32.3494-0.21147-15.1075,0.17445-30.2523-0.0484-45.3529-0.0333-7.52617,0.13262-15.057,0.003-22.5728-0.0479-8.81252,0.0347-17.6312,0.0506-26.4432-0.11621-8.85536-0.0495-17.7343-0.0155-26.6011,0.0673-5.81411-0.10038-11.6288-0.0462-17.444-0.004-6.86851,0.0608-13.7173,0.0581-20.5768-0.19116-12.7014,0.11397-25.4398-0.0577-38.1385-0.0177-3.2418,0.002-6.48572,0.0172-9.73096,0.03-10.0026,0.10941-19.99,0.14525-29.9831-0.19898-7.98921-0.0272-16.0338-0.0254-24.0523-0.0616-1.34206-0.1346-2.71142-0.13889-4.10396-0.0296-8.8671,0.13488-17.7329,0.006-26.5975-0.0297-8.56178,0.0338-17.1265,0.0532-25.689-0.18899-10.5545-0.0916-15.3723-0.14748-27.2747-0.0196-14.6489,0.2381-29.2994,0.0847-43.9419-0.0295-10.4996,0.12712-21.0056,0.00099-31.5033,0.0837-9.79223-0.3614,6.92741,0.0101-79.4735-0.19884-13.1356,0.14598-38.175,0.15778-39.0491,4.03637-3.1809,7.87405-4.97204,11.8087-6.49191,0.0725-4.65025,0.15834,5.04325,0.18014,6.66183-0.057,10.2137-0.10459,20.4294-0.14746,30.6451-0.012,3.25442-0.066,6.51894,0.0186,9.75282,0.0611,1.44178,0.13055,2.86855,0.12956,4.33446-0.2671,171.694-0.53745,343.386-0.80456,515.079-0.0528,25.9209-0.0566,51.8488-0.13862,77.7574-0.0612,7.49585-0.0767,14.9903-0.12217,22.481,0.14691,16.5631-0.0457,33.1449-0.0799,49.7077,0.0357,3.86523-0.17585,6.95455-0.21205,10.8349l0.88443-0.007c0.0536-18.7719,0.29193-36.6342,0.31943-55.4098,0.00026-2.60933,0.0314-5.21484,0.0694-7.81013,0.0192-23.0302-0.31169-7.94571,0.12028-99.0073-0.0529-15.4737,0.0279-30.9525,0.0647-46.4295-0.0431-6.86536-0.0292-13.7469,0.0125-20.617,0.0152-34.3906,0.0637-3.92572,0.0467-50.6072,0.12816-95.7919,0.27587-191.574,0.40078-287.366,0.055-9.82456-0.0509-19.6977,0.11521-29.507-0.10647-6.76401,0.0635-23.1241,0.005-32.4549,0.005-8.62231,0.0573-17.2392,0.0949-25.8569-0.11242-14.0572,0.002-28.1313,0.0561-42.1902-0.11034-15.7379-0.0382-14.0024,0.0211-29.7491,2.89672-0.787548,5.25179-4.17479,11.3023-4.2028-0.16464,148.496-0.31464,296.996-0.47603,445.493-0.0402,28.2424-0.0314,56.491-0.10584,84.7365-0.0444,9.58622,0.0243,19.1723-0.0184,28.7588-0.0624,20.1625-0.0008,40.3171-0.091,60.4751,0.0465,13.5344-0.008,27.0705-0.0415,40.6098,0.0517,13.8168-0.0175,27.6406-0.0425,41.4626,0.0527,10.7432-0.0878,18.9287-0.097,29.672l1.0312,0.003c0.1598-245.078,0.42537-487.433,0.58844-732.511-0.0321-6.51684-34.9922,8.53543-38.5071,24.2147-0.0401,89.1116-0.11779,178.226-0.16603,267.328" fill="url(#linearGradient3757)"/>
<path d="m350.556,745.978c0.0118-11.2918,0.22869-26.1617,0.0177-37.4273,0.0246-10.4299,0.13969-20.8562,0.10354-31.2955-0.0629-1.69468-0.10472-3.42667-0.0914-5.15962,0.058-8.22042,0.0845-16.4537,0.11965-24.6761,0.0147-3.0551,0.0678-6.14512-0.0688-9.14712-0.0275-9.33925,0.0747-18.6765,0.0982-28.0085,0.0747-4.69004-0.1561-9.33287-0.0845-14.0233,0.0393-9.32992,0.12858-18.6781,0.0933-28.0093-0.18114-4.12377-0.0334-8.34041-0.0432-12.5057,0.0002-8.92218,0.18488-17.8765-0.0157-26.7696,0.01-7.04586,0.0727-14.0917,0.0894-21.137-0.00099-4.57642,0.11405-9.18681-0.0501-13.7294-0.14726-5.01859-0.0442-10.1097-0.0963-15.1646,0.0491-19.837,0-39.663,0.057-59.4991-0.01-10.8646-0.0501-21.7426,0.0531-32.6002,0.13242-78.6664,0.0639-245.529,0.0982-346.284,3.27094-6.20907,5.94805-8.93153,12.0311-13.1466,0.0128,84.5732-0.10344,157.993-0.10845,242.564-0.0383,81.2037-0.0344,162.423-0.0805,243.625-0.0147,8.66355-0.17388,17.3487-0.0324,26.0023,0.16386,6.21087,0.0157,12.4608,0.0383,18.6923,0.0599,18.1751-0.0383,36.3528,0.0187,54.528-0.0786,12.661,0.0147,25.331-0.0206,37.9914-0.0845,11.3063,0.0776,22.6389-0.0501,33.9302-0.0521,5.77556-0.0904,11.5526-0.0815,17.3288,0.19727,14.0232-0.23505,29.8999-0.0195,43.9179l1.02515,0.004c0.0187-11.5716,0.18389-24.8085,0.20237-36.38-0.22957-9.32649,0.0442-18.7137-0.0383-28.0777-0.0796-1.61389-0.10393-3.27766-0.0904-4.928,0.0422-8.55328,0.0845-17.1061,0.117-25.6601,0.01-3.31992,0.0835-6.68779-0.0707-9.95709-0.0393-9.28252,0.11817-18.5714,0.0668-27.8478-0.29372-5.72559-0.01-11.6825-0.0737-17.5075-0.15541-10.7457,0-21.5128-0.01-32.262-0.2115-15.0666,0.17437-30.1706-0.0481-45.2301-0.0334-7.50602,0.13261-15.0164,0-22.5118-0.0481-8.78859,0.0344-17.5836,0.0511-26.3718-0.11621-8.83131-0.0491-17.6862-0.0157-26.5292,0.0678-5.79839-0.1004-11.5971-0.0462-17.3968,0-6.84983,0.0609-13.6802,0.058-20.5211-0.19117-12.6672,0.11395-25.371-0.058-38.0354-0.0177-3.23294,0-6.46807,0.0167-9.70454,0.0305-9.97553,0.10943-19.9359,0.14519-29.9019-0.19892-7.9676-0.0275-15.9906-0.0255-23.9872-0.0619-1.33863-0.13458-2.70417-0.1389-4.09295-0.0295-8.8432,0.13497-17.6848,0.01-26.5254-0.0295-8.53872,0.0334-17.0804,0.0531-25.6195-0.18901-10.5259-0.0914-15.3308-0.14745-27.2011-0.0196-14.6093,0.23802-29.2202,0.0845-43.823-0.0295-10.4712,0.1271-20.9487,0-31.4181,0.0835-9.76574-0.36131,6.90867,0.01-79.2585-0.19883-13.1,0.14598-38.0717,0.15777-38.9434,4.03638-3.17231,7.87404-4.9586,11.8088-6.47435,0.0727-4.63769,0.15835,5.02961,0.18015,6.64381-0.057,10.1861-0.10461,20.3741-0.14754,30.5621-0.0118,3.24563-0.0658,6.50133,0.0187,9.72647,0.0609,1.43787,0.13055,2.86078,0.12957,4.32273-0.2671,171.229-0.53754,342.457-0.80464,513.686-0.0531,25.8508-0.057,51.7086-0.13861,77.5471-0.0609,7.47566-0.0766,14.9497-0.12211,22.4202,0.14686,16.5183-0.0452,33.0553-0.0796,49.5733,0.0354,3.85468,0.0357,7.80198-0.00066,11.6717l0.92441,0.004c0.054-18.7211,0.0398-37.4132,0.0673-56.138,0.00028-2.60217,0.0314-5.20063,0.0697-7.78891,0.0197-22.9679-0.3117-7.92431,0.12034-98.7395-0.053-15.4318,0.0275-30.8687,0.0648-46.3039-0.0432-6.84689-0.0295-13.7097,0.0128-20.5612,0.0147-34.2977,0.0639-3.91528,0.0462-50.4702,0.12819-95.5328,0.27594-191.055,0.40079-286.589,0.055-9.79797-0.0511-19.6444,0.11524-29.4271-0.10649-6.74572,0.0639-23.0616,0-32.3671,0.01-8.59899,0.057-17.1926,0.0953-25.787-0.11248-14.0192,0-28.0552,0.056-42.0761-0.11042-15.6953-0.0383-13.9645,0.0216-29.6686,2.89676-0.785416,5.25184-4.16351,11.3024-4.19143-0.168,148.098-0.318,296.196-0.48,444.291-0.0403,28.1661-0.0314,56.3382-0.1058,84.5074-0.0442,9.56029,0.0246,19.1206-0.0187,28.681-0.0629,20.1079-0.0008,40.2081-0.0914,60.3114,0.0462,13.4978-0.01,26.9974-0.0413,40.4999,0.0521,13.7794-0.0177,27.5658-0.0422,41.3504,0.0531,10.714,0.24418,19.7546,0.23438,30.469l0.8276,0.00002c0.15974-244.415,0.29731-486.989,0.46039-731.404-0.0324-6.49921-34.9922,8.51234-38.5071,24.1492-0.0403,88.8706-0.11778,177.744-0.16602,266.605-0.10815,145.666-0.23274,294.988-0.35229,440.652" fill="url(#linearGradient3001)"/>
<path d="m4.91948,745.98,0.684622-0.0165c0.01218-11.3532,0.347976-24.1193,0.136526-35.4461,0.02417-10.4866,0.13973-20.9694,0.103579-31.4654-0.06316-1.70399-0.104787-3.44548-0.09096-5.18773,0.05845-8.26517,0.08448-16.543,0.119601-24.8102,0.01454-3.0716,0.06739-6.1784-0.06886-9.19671-0.02721-9.39006,0.07466-18.7778,0.09814-28.1606,0.07466-4.7155-0.156056-9.38346-0.08468-14.0995,0.03959-9.3804,0.128551-18.7794,0.09323-28.1614-0.181165-4.14598-0.03379-8.38572-0.04352-12.5736,0.000157-8.97045,0.18481-17.9735-0.01591-26.9149,0.0088-7.08402,0.0723-14.1681,0.0889-21.2516-0.000982-4.60147,0.114022-9.2368-0.0503-13.8041-0.147206-5.04585-0.0443-10.1646-0.09676-15.2469,0.04961-19.9449,0.000982-39.8785,0.05737-59.8224-0.0079-10.9234-0.0499-21.8606,0.05305-32.777,0.132441-79.0937,0.06425-246.863,0.09824-348.165,3.27091-6.24281,5.948-8.98005,12.031-13.218,0.01297,85.0326-0.103451,158.851-0.108442,243.881-0.03831,81.6448-0.03428,163.305-0.08075,244.949-0.01513,8.71042-0.173965,17.4429-0.03232,26.1434,0.163925,6.24461,0.01601,12.5283,0.03782,18.794,0.06012,18.2736-0.03812,36.5501,0.01867,54.8239-0.0781,12.7298,0.01513,25.4686-0.02043,38.1976-0.08409,11.3678,0.078,22.7619-0.0502,34.1146-0.05256,5.80691-0.09028,11.6154-0.08183,17.4229,0.197256,14.0994-0.08085,27.8836,0.134631,41.9777l0.89144,0.0135c0.01857-11.6343,0.16343-22.7743,0.181908-34.4086-0.229517-9.37715,0.04381-18.8154-0.03861-28.2302-0.07977-1.62258-0.103933-3.29547-0.09067-4.95478,0.04273-8.59973,0.08428-17.199,0.116988-25.7995,0.0088-3.33804,0.0833-6.72411-0.07122-10.0111-0.0388-9.33295,0.118217-18.6723,0.06631-27.9991-0.293694-5.75659-0.0049-11.7458-0.07328-17.6027-0.15534-10.8041,0.000982-21.6297-0.0079-32.4371-0.211471-15.1484,0.174456-30.3344-0.04843-45.4757-0.0333-7.54669,0.132627-15.0979,0.0029-22.634-0.04794-8.83652,0.03468-17.6791,0.05059-26.515-0.116212-8.87928-0.04951-17.7825-0.01552-26.6732,0.06729-5.82988-0.100387-11.6603-0.04617-17.4914-0.0039-6.88713,0.06081-13.7544,0.05806-20.6325-0.191155-12.736,0.113963-25.5089-0.05766-38.2421-0.01768-3.2505,0.002-6.5032,0.01719-9.75724,0.02996-10.0297,0.109415-20.0441,0.145241-30.0644-0.198965-8.01078-0.02721-16.0772-0.02535-24.1175-0.06169-1.3457-0.134592-2.71876-0.138894-4.11507-0.02957-8.89124,0.134886-17.7808,0.0059-26.6695-0.02967-8.58519,0.03379-17.1732,0.05324-25.7587-0.188984-10.583-0.09155-15.414-0.14748-27.3486-0.01965-14.6887,0.238092-29.3788,0.08468-44.0611-0.02947-10.528,0.127116-21.0625,0.000982-31.5887,0.0837-9.81878-0.361397,6.94617,0.01012-79.689-0.198847-13.1712,0.145987-38.2785,0.157776-39.155,4.03638-3.18953,7.87405-4.98553,11.8087-6.50952,0.0725-4.66286,0.158345,5.05693,0.180134,6.6799-0.05698,10.2414-0.104581,20.4848-0.147451,30.7281-0.01198,3.26325-0.06601,6.53663,0.01857,9.77928,0.0611,1.44569,0.130535,2.87632,0.129553,4.34623-0.267102,172.159-0.537464,344.317-0.804566,516.476-0.05275,25.9912-0.05658,51.9895-0.138629,77.9682-0.0613,7.51626-0.07672,15.031-0.122166,22.5421,0.146911,16.6079-0.04568,33.2348-0.07986,49.8423,0.03566,3.87571,0.09022,5.67477,0.05407,9.56559l0.85675,0.006c0.05364-18.8228,0.05354-35.4478,0.08104-54.2743,0.000265-2.6164,0.03144-5.22906,0.06935-7.8313,0.01916-23.0928-0.31169-7.96725,0.120269-99.2758-0.05295-15.5157,0.0279-31.0364,0.06474-46.5554-0.04312-6.88397-0.02917-13.7841,0.01248-20.6729,0.01523-34.4839,0.06376-3.93636,0.04666-50.7444,0.128177-96.0515,0.275884-192.093,0.40079-288.145,0.05501-9.8512-0.05089-19.7511,0.11521-29.587-0.106467-6.78236,0.06346-23.1868,0.0049-32.5428,0.0049-8.64571,0.05727-17.2859,0.0949-25.927-0.112365-14.0953,0.002-28.2075,0.05615-42.3046-0.110338-15.7806-0.03821-14.0403,0.02112-29.8298,2.89677-0.789684,5.25184-4.18611,11.3023-4.21419-0.1645,148.899-0.3145,297.801-0.4759,446.701-0.04018,28.319-0.03144,56.6442-0.105839,84.9663-0.0444,9.61211,0.02426,19.2242-0.01837,28.8366-0.06238,20.2173-0.000786,40.4265-0.09096,60.6391,0.04646,13.5711-0.0079,27.1438-0.04146,40.7198,0.05167,13.8543-0.01749,27.7156-0.04254,41.5751,0.05265,10.7722-0.215689,17.6859-0.224929,28.4583l1.04865,0.0149c0.1598-245.744,0.535785-487.474,0.698885-733.216-0.0321-6.53449-34.9921,8.55859-38.5071,24.2803-0.04008,89.3532-0.11778,178.709-0.16602,268.052" fill="url(#linearGradient3001-4)"/>
</svg>
