<svg xmlns:rdf="http://www.w3.org/1999/02/22-rdf-syntax-ns#" xmlns="http://www.w3.org/2000/svg" height="700" width="50" version="1.1" xmlns:cc="http://creativecommons.org/ns#" xmlns:xlink="http://www.w3.org/1999/xlink" viewBox="0 0 40.000065 559.99979" xmlns:dc="http://purl.org/dc/elements/1.1/">
<metadata>
<rdf:RDF>
<cc:Work rdf:about="">
<dc:format>image/svg+xml</dc:format>
<dc:type rdf:resource="http://purl.org/dc/dcmitype/StillImage"/>
<dc:title/>
</cc:Work>
</rdf:RDF>
</metadata>
<defs>
<linearGradient id="linearGradient3757" x1="18.7816" gradientUnits="userSpaceOnUse" x2="18.7155" gradientTransform="matrix(0.86948623,0.02174306,-0.02489031,0.97025777,2.9925061,346.22011)" y1="130.381" y2="126.745">
<stop stop-color="#000000" offset="0"/>
<stop stop-color="#000000" stop-opacity="0" offset="1"/>
</linearGradient>
<linearGradient id="linearGradient3024" y2="58.2544" gradientUnits="userSpaceOnUse" y1="243.254" gradientTransform="matrix(0.90160859,0,0,0.317895,1.5715416,4.8718743)" x2="19.6732" x1="20">
<stop stop-color="#000000" offset="0"/>
<stop stop-color="#000000" stop-opacity="0" offset="1"/>
</linearGradient>
</defs>
<path fill="url(#linearGradient3757)" d="m35.8707,479.3c-0.752396,0.10212-1.51068,0.15283-2.26196,0.2672-0.43073,0.065-0.879235,0.091-1.30038-0.0488-0.720458-0.1852-1.05877-1.13234-1.84116-1.15645-0.783079-0.0533-1.72584-0.0198-2.23624,0.7292-1.29038,2.14164-2.92128,3.65748-4.06902,5.59856-0.45226,0.56644-0.83946,1.18716-1.25918,1.78087-0.241896,0.36257-0.698621,0.3713-1.0692,0.45664-2.11426,0.31098-4.22502,0.65326-6.33782,0.96289-0.814206,0.20274-1.23724-0.70796-1.75061-1.19475-0.283363-0.24045-0.402389-0.588-0.704831-0.80847-0.935698-1.14325-1.94705-2.20952-2.90945-3.3256-0.385213-0.4139-0.750039-0.89079-1.25813-1.13279-1.02523-0.29976-2.25969,0.01-2.8463,1.02713-0.266355,0.35882-0.531806,0.79513-0.982111,0.89082-1.04908,0.0445-2.23801,0.25361-2.93003,0.34776-0.57754-0.0691-1.117,0.1798-1.62372,0.44743-0.228981,0.8168-0.164241,1.67195-0.195904,2.51222-0.039482,1.94605-0.150412,3.89346-0.039958,5.83708,0.048083,2.96919-0.127777,5.93731-0.108589,8.90718-0.038249,2.61833-0.076541,5.23839-0.113472,7.85825-0.0008141,1.32594-0.126229,2.66586,0.120433,3.97783,0.567136,0.47427,1.09836,0.99716,1.68052,1.4485,0.236099,0.20117,0.556841,0.0873,0.829974,0.0836,1.22214-0.11099,2.44125-0.32925,3.67001-0.3047,0.396991-0.0448,0.794094-0.0943,1.19067-0.12365,1.53668-0.15206,3.07405-0.44368,4.61808-0.37548,0.311397,0.47544,0.574086,0.99173,0.673366,1.57044,0.09465,0.64675,0.537668,1.11629,0.94964,1.5572-0.312678,0.47555-0.382705,1.06541-0.414571,1.63154-0.04531,1.03368-0.07476,2.06762-0.01742,3.10072,0.05326,1.13515-0.120613,2.28013,0.03391,3.40863,0.235803,1.0576,0.502072,2.10989,0.759632,3.16348,0.79964-0.0289,1.49796,0.39992,2.24951,0.61235,0.06355,0.2819,0.125667,0.56388,0.186252,0.84885l1.09435,0.0274c-0.03233,1.26013-0.0531,2.52194-0.06384,3.78262-0.243598-0.0212-0.488972-0.0297-0.734288-0.0405-0.521233,0.72119-0.398978,1.7559,0.01685,2.49737,0.2159,0.42529,0.517015,0.79527,0.703559,1.23835,0.0896,0.39404,0.03274,0.80773,0.02525,1.21344-0.242889,0.23243-0.594867,0.4374-0.607911,0.83355-0.09076,0.83575-0.06333,1.67901-0.06155,2.52023-0.466159,0.15099-0.889136,0.47663-1.04115,0.99629-0.534092,1.27858-0.299014,2.70187-0.381401,4.0551-0.06898,1.61854-0.120903,3.41876,0.797136,4.79865,0.299141,0.5031,0.789806,0.80501,1.20481,1.18399-0.06914,0.55436-0.312218,1.07664-0.306538,1.64359,0.03315,0.67784,0.272114,1.33111,0.22128,2.01769-0.03182,0.62194-0.107177,2.65129-0.01931,3.28087,0.64478,0.0151,3.2573,0.0854,3.81053,0.0963,0.181659-0.66151,0.571664-1.3122,0.599964-2.02101,0.151707-0.78938-0.654922-1.38871-0.420805-2.18068,0.177745-0.95905-0.0533-1.91901-0.02144-2.88008,0.805159-0.92007,1.26943-2.18024,1.2483-3.44018,0.0054-0.82858,0.06851-1.65722,0.02186-2.48407-0.06266-0.93547-0.02636-1.90272-0.3561-2.78767-0.174558-0.57292-0.538101-1.0994-0.507632-1.72428,0.01307-1.24208,0.170662-2.48511,0.03627-3.72145-0.06294-0.58702-0.05642-1.17858-0.03841-1.76683,0.257834-0.0832,0.514116-0.16213,0.771887-0.24249,0.0054-0.45516,0.01701-0.90879-0.0041-1.36159-0.560057-0.69404-1.34642-1.06999-2.11906-1.41773-0.038-1.5591,0.09587-3.11868,0.0015-4.67639,0.622116-0.0357,1.24519-0.0527,1.86786-0.0535,0.119885,0.11368,0.24113,0.23053,0.360861,0.3498,0.428634-0.0394,0.858648-0.0764,1.28726-0.1153,0.194384-1.21414,0.384451-2.42851,0.527037-3.65023,0.200332-1.33328,0.116433-2.68301,0.140804-4.02374,0.02928-1.42587-0.24089-2.82988-0.438993-4.23057,0.343218-0.25788,0.733834-0.50512,0.905246-0.9361,0.372502-0.89231,0.616325-1.83714,0.921641-2.75747,0.338592-1.09134,1.45438-1.6179,2.44421-1.74028,2.85116-0.25865,5.70223-0.51415,8.55315-0.76361,0.537622-0.0646,1.15333-0.13215,1.52806-0.60453,0.414128-0.54433,0.241174-1.29209,0.261915-1.93131-0.09828-8.78371-0.18063-17.5684-0.273124-26.352-0.01757-0.60941,0.04454-1.22744-0.0571-1.82777-0.515088-0.69444-1.02363-1.59649-1.93624-1.66688m-9.25877,14.7379c0.41559,0.35595,0.408179,0.98302,0.467092,1.50203,0.01561,0.46187,0.154484,0.96106-0.03916,1.40547-0.194433,0.59619-0.74108,1.06881-1.3444,1.04755-0.399675-0.47007-0.585954-1.09279-0.584261-1.72165,0.01192-0.74942-0.08637-1.53246,0.203355-2.23939,0.410293-0.1694,0.915112-0.30695,1.29715,0.006m-15.6801,1.96221c0.276414,0.60028,0.0928,1.28179,0.151511,1.92147,0.009,0.44004,0.178456,0.92765-0.09161,1.32052-0.133244,0.35131-0.491424,0.46026-0.777317,0.62344-0.33557-0.15298-0.799003-0.22142-0.936983-0.64313-0.228291-0.73061-0.119887-1.52094-0.113458-2.2783-0.01357-0.37049,0.193565-0.67509,0.360194-0.97617,0.467529-0.1478,0.963789-0.23291,1.40764,0.0353m7.59522,23.3442,0.04733,0.0675c0.223792,0.0615,0.447583,0.12304,0.671305,0.18724,0.09736,0.42827,0.211965,0.86034,0.187488,1.30734-0.03217,1.21516-0.06335,2.43035-0.09452,3.64553-1.23391,0.11945-2.47074,0.24021-3.70873,0.2371-0.0022-0.0781-0.0055-0.23712-0.0078-0.31616-0.08835-0.77977-0.205853-1.60524,0.02312-2.36612,0.220759-1.17189,0.99877-2.21648,2.06217-2.61582,0.27685-0.0361,0.549681-0.0841,0.819989-0.14692m-1.42297,16.5001c0.02056,0.43577-0.01085,0.87492-0.108599,1.30297-0.197778-0.45572-0.509344-0.92498-0.380218-1.45314,0.163476,0.0473,0.325427,0.0978,0.488794,0.14935m-0.50924,8.0808c-0.0735,1.00501,0.108763,2.34938,1.12018,2.73711,0.652652,0.23791,1.42064,0.0914,1.97511-0.34858,0.309232-0.34086,0.54217-0.74864,0.814615-1.11976,0.460182,0.30743,0.406241,0.94581,0.400475,1.45224-0.0582,1.42212-0.04851,2.84734-0.129765,4.26878-0.07478,0.43654-0.163104,1.06474-0.645683,1.17978-0.223045,0.0783-0.330299-0.18954-0.459825-0.3214-0.671255-0.13213-1.39096-0.23458-2.05408-0.008-0.01357,0.122-0.03977,0.36612-0.05438,0.48797-0.60279-0.0978-0.794445-0.79264-1.12088-1.24539-0.37836-0.45557-0.237555-1.10122-0.338963-1.65354-0.198786-0.92351-0.10214-1.87538-0.105547-2.81253,0.02688-0.88383-0.04397-1.7778,0.130066-2.64865,0.116943,0.003,0.35189,0.0239,0.468673,0.0327m3.34478,10.4589c0.06479,0.51435,0.139697,1.03037,0.150864,1.55271-0.161842,0.39568-0.715894,0.31205-1.0425,0.26053-0.05789-0.27885-0.117691-0.59315,0.049-0.83982,0.260598-0.47221,0.441294-0.98346,0.580401-1.50671,0.134898,0.14785,0.265162,0.3071,0.262252,0.53329m-2.07603-0.5082c0.148312,0.69459,0.206972,1.44892-0.02436,2.13389-0.09623,0.20217-0.317168,0.19968-0.407138-0.0102-0.117477-0.71386-0.02219-1.44255,0.07256-2.15273,0.08952,0.002,0.269588,0.0218,0.35907,0.0253z"/>
<path fill="url(#linearGradient3024)" d="m2.37136,489.544c0.01083-7.48167,0.209893-16.3622,0.01624-23.8265,0.02258-6.91058,0.128208-13.8188,0.09503-20.7356-0.05773-1.12285-0.09611-2.27043-0.08389-3.41863,0.05323-5.44665,0.07755-10.9018,0.109816-16.3498,0.01349-2.02422,0.06223-4.0716-0.06315-6.06064-0.02524-6.18795,0.06856-12.3746,0.09013-18.5577,0.06856-3.10751-0.143269-6.18372-0.07756-9.29149,0.03607-6.18176,0.118011-12.3756,0.08563-18.5582-0.166251-2.7323-0.03065-5.52614-0.03965-8.28595,0.000183-5.91161,0.169683-11.8445-0.01441-17.7368,0.0092-4.6684,0.06672-9.33679,0.08205-14.0048-0.000912-3.03223,0.104675-6.08696-0.04598-9.09676-0.135156-3.32518-0.04057-6.69842-0.08838-10.0477,0.04506-13.1435,0-26.2797,0.05231-39.4226-0.0092-7.19861-0.04598-14.4061,0.04874-21.6001,0.121536-52.1223,0.05865-162.681,0.09013-229.439,3.00209-4.11396,5.45916-5.91779,11.0422-8.7106,0.0118,56.036-0.0949,104.682-0.0995,160.717-0.0352,53.8035-0.0316,107.617-0.0739,161.42-0.0135,5.74024-0.15959,11.4948-0.0297,17.2285,0.15039,4.11516,0.0144,8.2562,0.0352,12.385,0.055,12.0424-0.0352,24.0864,0.0172,36.1288-0.0721,8.38885,0.0135,16.7837-0.0189,25.1721-0.0776,7.49127,0.0712,15-0.046,22.4813-0.0478,3.82674-0.083,7.65446-0.0748,11.4816,0.18106,9.29141-0.1356,18.6077,0.0622,27.8956l0.92486,0.0951c0.0172-7.66704,0.10467-15.3268,0.12163-22.9938-0.2107-6.17949,0.0406-12.3992-0.0352-18.6036-0.0731-1.06933-0.0954-2.1717-0.083-3.26518,0.0387-5.66718,0.0776-11.334,0.10738-17.0017,0.009-2.19968,0.0766-4.43116-0.0649-6.59732-0.0361-6.15035,0.10846-12.3049,0.0613-18.4512-0.26957-3.79363-0.009-7.74052-0.0676-11.6-0.14263-7.11981,0-14.2538-0.009-21.376-0.19411-9.98274,0.16004-19.9903-0.0442-29.9683-0.0307-4.97329,0.12171-9.94947,0-14.9157-0.0442-5.8231,0.0316-11.6504,0.0469-17.4733-0.10666-5.8514-0.0451-11.7184-0.0144-17.5776,0.0622-3.84187-0.0922-7.68395-0.0424-11.5267,0-4.53852,0.0559-9.06415,0.0532-13.5968-0.17545-8.39297,0.10459-16.8102-0.0532-25.2013-0.0162-2.14207,0-4.28559,0.0153-6.42998,0.028-6.60953,0.10044-13.209,0.13326-19.8122-0.18257-5.27913-0.0252-10.595-0.0234-15.8933-0.0568-0.88693-0.12352-1.7917-0.12748-2.71186-0.0271-5.85929,0.12387-11.7175,0.009-17.5751-0.0271-5.65753,0.0306-11.317,0.0487-16.9748-0.17348-6.97421-0.0839-10.1578-0.13533-18.0228-0.018-9.67973,0.21845-19.3606,0.0776-29.036-0.0271-6.93794,0.11665-13.8801,0-20.8168,0.0766-6.47053-0.33162,4.57751,0.009-52.5146-0.18249-8.67973,0.13398-25.2253,0.1448-25.8029,3.70461-2.10189,7.22684-3.28544,10.8382-4.28974,0.0667-3.07281,0.14533,3.3325,0.16534,4.40202-0.0523,6.74906-0.096,13.4994-0.13541,20.2497-0.0108,2.15046-0.0604,4.30761,0.0172,6.4445,0.0559,0.9527,0.11982,1.89548,0.11892,2.86413-0.24515,113.452-0.49336,226.903-0.73851,340.355-0.0487,17.1281-0.0523,34.2608-0.12721,51.3807-0.0559,4.95319-0.0703,9.90529-0.11208,14.855,0.13479,10.9446-0.0415,21.9016-0.0731,32.846,0.0325,2.55401,0.16101,4.77601,0.12761,7.34l0.67214,0.003c0.0496-12.4041,0.0846-24.3956,0.10983-36.8022,0.00025-1.72413,0.0288-3.4458,0.064-5.16073,0.0181-15.2179-0.28608-5.25045,0.11045-65.4223-0.0486-10.2247,0.0252-20.4528,0.0595-30.6798-0.0397-4.53658-0.0271-9.08369,0.0117-13.6233,0.0135-22.7248,0.0587-2.59417,0.0424-33.4403,0.11765-63.2976,0.25326-126.588,0.36785-189.886,0.0505-6.49189-0.0469-13.0159,0.10576-19.4976-0.0977-4.46955,0.0587-15.28,0-21.4456,0.009-5.69746,0.0523-11.3914,0.0875-17.0858-0.10323-9.28875,0-18.5886,0.0514-27.8785-0.10134-10.3991-0.0352-9.25233,0.0198-19.6575,2.65866-0.5204,4.82017-2.75864,10.3734-2.77714-0.15419,98.1257-0.29186,196.252-0.44055,294.376-0.037,18.6621-0.0288,37.3282-0.0971,55.9924-0.0406,6.33439,0.0226,12.6688-0.0172,19.0033-0.0577,13.323-0.00073,26.6408-0.0839,39.9608,0.0424,8.94329-0.009,17.8878-0.0379,26.8342,0.0478,9.12988-0.0162,18.2644-0.0387,27.3977,0.0487,7.09882,0.24013,12.4526,0.23114,19.5516l0.7756-0.0231c0.14661-161.943,0.24082-322.007,0.3905-483.95-0.0297-4.30622-32.1161,5.64005-35.3421,16.0006-0.03699,58.8834-0.108099,117.769-0.152374,176.646-0.09927,96.5145-0.16554,194.538-0.275264,291.051"/>
</svg>
