<!-- Created with Inkscape (http://www.inkscape.org/) -->
<svg xmlns:rdf="http://www.w3.org/1999/02/22-rdf-syntax-ns#" xmlns="http://www.w3.org/2000/svg" height="414" width="360" version="1.1" xmlns:cc="http://creativecommons.org/ns#" xmlns:dc="http://purl.org/dc/elements/1.1/" viewBox="0 0 287.99993 331.19971">
<defs>
<clipPath id="clipPath3063" clipPathUnits="userSpaceOnUse">
<rect fill-rule="evenodd" height="405.032" width="360.008" y="32.2825" x="0.00000172438" fill="#000080"/>
</clipPath>
</defs>
<metadata>
<rdf:RDF>
<cc:Work rdf:about="">
<dc:format>image/svg+xml</dc:format>
<dc:type rdf:resource="http://purl.org/dc/dcmitype/StillImage"/>
<dc:title/>
</cc:Work>
</rdf:RDF>
</metadata>
<g transform="matrix(0.79998325,0,0,0.81771241,-1.3794751e-6,-26.397802)" clip-path="url(#clipPath3063)">
<g transform="matrix(0,0.43978979,0.44501953,0,-245.19082,-2496.0503)" clip-path="none">
<g fill="#000000" transform="matrix(1.25,0,0,1.25,5673.4777,550.24143)">
<path d="m1.66792,0.587922c13.4474,0.166993,852.997-0.00224,854.217-0.007922,0.004,2.45116-0.003,646.531-0.001,647.176-0.86558-0.001-850.059-0.0249-854.229-0.0129m763.254-636.134c9.7,8.47,19.51,16.83,29.23,25.29,1.85-0.04,3.71-0.08,5.57-0.13,9.02-8.66,17.1651-16.5257,26.1551-25.2057-23.1046,1.06427-37.2939,1.69903-60.1202,1.14476m64.9485-0.250486c-10.99,7.7309-18.374,15.7014-27.784,24.4414,5.85,0,11.7-0.08,17.56-0.16,0.25,5.02,0.1,10.05,0.41,15.07,8.53-9.18,16.52-18.86,24.9-28.18,3.58-3.18,1.58-8.37,2.02-12.53-5.52-0.26-6.58732-0.25-12.0973-0.29m-805.773,2.15c8.58,8.13,18.3418,16.8269,27.0318,24.8269,1.97019,0.16818,2.72805,0.0066,5.14824,0.213082,8.67-8.56,17.85-16.61,26.25-25.44-19.48,0.08-38.95,0.29-58.43,0.4m263.96,0.01c8.18,7.88,16.77,15.34,25.13,23.03,1.24,1.44,3.2,1.24,4.91,1.39,9.07-8.4,18.28-16.65,27.39-25.01-19.15,0.14-38.29,0.48-57.43,0.59m73.72-0.32c9.09,8.21,18.07,16.55,27.15,24.77,1.36-0.1,2.72-0.18,4.09-0.26,9.45-8.32,18.9-16.63,28.32-24.98-19.85,0.27-39.71,0.29-59.56,0.47m64.5-0.78c-9.58,8.58-19.52,16.74-29.21,25.19,20.72,0.16,41.45,0.05,62.18,0.21-9.05-8.09-18.02-16.27-27.09-24.34-1.54-1.58-3.93-0.87-5.88-1.06m9.66,0.74c8.22,7.7,16.86,14.95,25.21,22.52,2.34,2.63,7.23,3.21,9.57,0.28,8.07-8,16.36-15.78,24.52-23.7-19.77,0.28-39.54,0.56-59.3,0.9m63.73,0.15c-9.08,7.95-17.78,16.36-26.73,24.47,20.21-0.16,40.41-0.59,60.62-0.79-7.97-8-17.11-14.78-25.48-22.37-2.11-2.33-5.71-2.04-8.41-1.31m11.21-0.38c9.41,8,18.86,15.94,28.29,23.92,1.4,0.02,2.8,0.03,4.21,0.05,9.07-8.05,18.11-16.12,27.13-24.22-19.88,0.04-39.75,0.21-59.63,0.25m63.56-0.23c-8.73,8.18-17.86,15.95-26.53,24.21,19.89,0.42,39.79,0.15,59.68,0.43-8.11-7.67-16.24-15.31-24.35-22.97-2.18-2.58-5.87-1.4-8.8-1.67m11.56,0.08c8.33,7.65,16.68,15.27,25,22.94,2.11,2.43,6.39,2.9,8.67,0.47,8.84-7.92,17.64-15.88,26.53-23.74-20.07-0.13-40.13,0.43-60.2,0.33m62.67,1.18c-8.92,7.88-17.86,15.74-26.74,23.67,20.42,0.07,40.84,0.05,61.26,0.02-9.14-8.28-18.3-16.55-27.31-24.97-2.42,0.2-5.35-0.67-7.21,1.28m11.02-1.2c9.28,8.18,18.62,16.29,27.86,24.53,2.04-0.04,4.08-0.1,6.14-0.18,8.88-8.17,17.88-16.21,26.81-24.34-20.27,0-40.54,0.03-60.81-0.01m64.91,0.23c-9.19,8.18-18.47,16.25-27.71,24.36,28.8-0.13,57.59,0.49,86.39,0.31-9.51-8.24-18.9-16.62-28.32-24.96-10.13,0.04-20.25,0.14-30.36,0.29m-719.04,0.75c0.01,5.7,0.02,11.41,0.1,17.12,9.14,8.78,18.29,17.56,27.38,26.41-0.03-6.35-0.07-12.71-0.08-19.06,4.05,0.01,8.09,0.11,12.14,0.15-8.59-8.25-17.3-16.37-25.89-24.62h-13.65m80.85,2.06c-8.6,7.65-17.34,15.15-25.98,22.76,33.83-0.28,67.66-0.01,101.48-0.23-9.3-8.15-18.54-16.35-27.77-24.58-14.66,0-29.34-0.06-44,0.02-1.58-0.16-2.61,1.17-3.73,2.03m52.97-1.89c8.95,8,17.92,15.97,26.85,24,1.25-0.02,2.51-0.04,3.77-0.07,8.8-8.23,17.83-16.22,26.52-24.56-19.05,0.02-38.09,0.55-57.14,0.63m35.59,23.94c20.33,0.35,40.67,0.12,61,0.43-9.03-8.22-18.19-16.3-27.17-24.57-2.24-0.01-4.48,0-6.72,0.01-9.06,8.02-18.03,16.14-27.11,24.13m37.2-24.13c9.02,7.55,17.91,15.25,26.88,22.85,1.81,1.9,5.02,1.5,6.75-0.31,8.57-7.7,17.19-15.34,25.76-23.03-19.8,0.08-39.59,0.42-59.39,0.49m62.53,1.32c-8.74,7.59-17.54,15.11-26.26,22.73,20.3-0.32,40.6-0.54,60.89-0.86-9.05-7.91-18.18-15.73-27.2-23.68-2.54,0.22-5.53-0.28-7.43,1.81m46.41,22.86c21.03,0.03,42.07-0.21,63.1-0.28-9.37-8.12-18.7-16.29-28.07-24.42-2.36,0.01-4.71,0-7.06-0.01-9.33,8.22-18.67,16.44-27.97,24.71m494.279,17.745c-0.0981,2.13146,0.15544,3.92407,0.18334,5.04611,8.15,9,17.8172,18.9289,25.9772,27.9289,0.2-21.12,0.7-42.22,0.85-63.33-8.92,9.73-17.0482,19.4976-25.8982,29.2876m-810.87-20.0776c0.07,19.11,0.09,38.23,0.08,57.35,9.04-8.23,18.3431-17.7798,27.0931-26.2998-0.108022-1.54288,0.424125-3.83154,0.136868-5.6302-9.23-8.34-18.15-17.01-27.31-25.42m376.43,12.19c-0.01,2.17-0.03,4.33-0.04,6.49,14.22,0.05,28.44,0.05,42.67,0.05-0.23-2.02-0.46-4.05-0.7-6.07-13.98-0.01-27.96-0.56-41.93-0.47m46.19-0.05c0.24,2.12-0.4,4.65,0.56,6.51,14.18,0.19,28.37,0.06,42.56,0.05-0.21-2.18-0.39-4.37-0.53-6.55-14.2,0.01-28.39,0.02-42.59-0.01m46.5-0.43c-0.04,2.34-0.07,4.69-0.1,7.03,14.73-0.01,29.47-0.01,44.2,0.01-0.04-2.19-0.06-4.37-0.09-6.55-14.68,0.09-29.34-0.48-44.01-0.49m94.82,0.89c0.14,2.05,0.28,4.1,0.43,6.15,14.12,0.17,28.26-0.28,42.38,0.24-114.4,0.13-228.8,0.02-343.2,0.01-27.11-0.16-54.25,0.29-81.35-0.22,0.5-1.43,0.28-3.02,0.49-4.51-14.2,0.2-28.39,0.12-42.58,0.2,0.05,1,0.16,3,0.21,3.99,13.78,0.1,27.57-0.07,41.33,0.35-1.39,0.12-2.79,0.18-4.19,0.2-44.97-0.18-89.95,0.02-134.92,0.04-0.03,75.8,0.06,151.61-0.04,227.41-1.92,0.05-4.22588,0.1-6.14588,0.16-0.65,14.21,0.135879,28.43-0.02412,42.65,1.99,0.07,3.97,0.13,5.96,0.21,0.12-14.2-0.25-28.41,0.2-42.6,0.07,75.49,0.11,150.98-0.02,226.47-0.6-13.65-0.08-27.33-0.19-40.99-1.77-0.01-3.53-0.01-5.3-0.01,0.03,13.64,0.13,27.28,0.19,40.93,1.77,0.12,3.54,0.25,5.31,0.39,0.03,29.07,0.06,58.15-0.08,87.22-2.09-0.03-4.18-0.04-6.27-0.05,0.05,2.81,0.1,5.62,0.16,8.43,2.55-0.03,5.09-0.07,7.64-0.1,0.14-1.57,0.29-3.14,0.43-4.7-0.56-0.01-1.68-0.04-2.24-0.06l0.09-1.05c31.78-0.03,63.56-0.35,95.34-0.17,28.84-0.04,61.3285-0.23758,90.1685,0.002-13.27,0.53-30.2085,0.15758-43.4885,0.27758,0.15,1.59,0.3,3.19,0.45,4.8,13.57,0.13,26.9927-0.49758,40.5627-0.27758-0.18-1.58-0.19031-3.40454-0.36031-4.96454,1.64,0.02,3.24758-0.16214,4.89758-0.13212-0.04,1.52-0.07,3.48424-0.09,5.02424,14.88,0.03,29.77-0.11,44.65-0.11v-4.48c-14.77-0.09-38.3842,0.0182-46.9079-0.11515,16.34-0.07,35.2679-0.25485,51.6079-0.0848-0.05,1.5-0.11,3.01-0.16,4.53,3.78,0,7.17818-0.005,10.9582-0.0748,10.31,0.48,20.8621,0.0651,31.1821,0.35515-0.15-1.58-0.23757-4.0409-0.37757-5.6109,1.03,0.01,3.46181,0.1997,4.48181,0.2097,0.03,1.48-0.0248,3.77605,0.0152,5.26605,14.17,0.1,28.1803,0.12485,42.3603,0.0649-0.08-1.43-0.65908-4.89635-0.73908-6.30635,1.86-0.14,4.80059,0.12181,6.65059-0.14819,14.03-0.02,27.5085,1.60454,41.5285,1.67454-13.96,0.46-27.8227,0.33212-41.7927,0.39212-0.07,1.11-0.34727,3.10788-0.41727,4.21788,14.21,0.15,28.43,0.08,42.65,0.15-0.15-1.51-0.42727-4.18787-0.57727-5.67787,1.64,0.01,3.53454,0.40181,5.18454,0.42181-0.11,1.48-0.33727,3.76606-0.43727,5.25606,13.2,0.39182,26.39,0.06,39.58,0.07-0.05-1.51-0.17485-3.86848-0.22485-5.35848,1.75,0,3.61727-0.0424,5.36727-0.0424-0.04,1.62-0.10242,4.1609-0.13242,5.7909,15,0.01,30,0.04,45.01,0.12-0.1-1.62,0.002-4.34302-0.0779-5.94302,1.72-0.16,3.42758-0.0255,5.15758-0.27546,13.31,0.01,28.7736,0.77848,42.0836,0.88848-13.41,0.43-28.6118,0.31212-42.5833,0.19,0.01,1.66,0.03,3.33,0.06,5.01,13.68-0.1,27.37,0,41.06-0.29-0.1-1.52-0.39212-4.2603-0.47212-5.7703,1.4-0.01,3.09697,0.0224,4.50697,0.0124-0.09,1.65-0.24485,4.48787-0.30485,6.14787,14.88,0,29.76,0.07,44.65,0.13-0.03-1.76-0.05-3.52-0.06-5.27-14.68-0.03-30.9497,0.27-45.6197-0.17,14.66-0.09,31.0594-0.44424,45.7194-0.46424,1.34,0.22,2.76484-0.14151,4.12484,0.0485-0.02,1.57-0.27454,4.14575-0.28454,5.73575,14.69,0.35,29.1779-0.0873,43.8679,0.20273,0.03-1.68,0.11242-3.47727,0.17242-5.13727,0.82,0,2.88424,0.0948,3.70424,0.0948,0.07,1.55,0.19243,3.42697,0.28243,4.99697,14.51,0.18,28.743,0.0127,43.243,0.64273-0.12-1.9-0.50454-4.56363-0.62454-6.45363,0.99,0,3.40424-0.0524,4.39424-0.0524-0.04,1.88-0.6197,4.61606-0.1597,6.48606l-0.18,0.11788c14.49-0.02,28.7855-0.35242,43.3055-0.11242,0.08-1.83,0.33969-3.66,0.44969-5.48,1.21-0.07,2.55727-0.18243,3.77727-0.22243-0.01,1.67-0.0424,3.65697-0.0324,5.34697,11.99,0.05,24.4349,0,36.4349,0.1,0.10439-1.09204-0.004-3.42,0.18632-5.12,0.73,0.04,2.21905-1.57355,2.95905-1.53355,0.12,1.74,0.12972,4.41642,0.26972,6.17642,2.99,0.05,5.99-0.67713,8.99-0.56713,0.17-3.74,0.24-5.92574,0.25-9.66574-1.03,0.15-2.05,0.3-3.06,0.47-0.02,1.44-0.07,2.89-0.15,4.35h-0.16c0.06-43.69-0.06-87.39,0.06-131.08,0.44,12.96,0.09,25.93,0.2,38.9,0.91,0.03,3.18536,0.12,4.09536,0.15,0.26-13.25,0.0776-26.45,0.20762-39.69-1.43,0.13-3.10298,0.17-4.51298,0.32-0.09-86.21-0.01-172.42-0.04-258.64,0.11-50.91-0.16-103.31,0.23-154.22l0.12546,2.76749c1.58-0.37,3.42454-0.687576,5.02454-1.04758-0.16-2.42-0.33-4.84-0.53-7.25-3.39,0.08-6.78,0.09-10.17,0.05,0.23,1.76,0.47,3.53,0.72,5.29,1.41,0.14,4.10993,0.05001,4.85997,0.220014-13.789-0.0739-28.139,0.2961-41.929,0.1761,10.79-0.46,21.8681-0.116178,32.6681-0.286178-0.36-1.76,0.063-3.68854-0.24702-5.44854-10.5-0.08-22.001,0.07471-32.491,0.0047-0.16,1.91-0.31,3.82-0.42,5.74-16.17,0.04-32.34,0.08-48.5-0.01,14.92-0.51,29.85-0.06,44.78-0.24,0.1-1.82,0.2-3.64,0.3-5.45-15.15-0.1-30.29-0.44-45.44-0.58-0.02,2.09-0.04,4.18-0.03,6.28-32.29,0.07-64.57,0.07-96.86-0.01-0.01-2.21-0.03-4.42-0.05-6.63-14.38,0.2-28.76,0.18-43.14,0.23m46.85-0.34c0.11,2.17,0.22,4.34,0.35,6.51,14.65,0,29.3,0.02,43.95,0.01-0.07-2.01-0.13-4.01-0.18-6.02-14.71-0.13-29.42-0.3-44.12-0.5m-423.05,1.06c0.08,1.79,0.16,3.58,0.25,5.36,14.01-0.01,28.01,0.01,42.01,0,0.08-1.78,0.17-3.56,0.25-5.33-14.17-0.05-28.34-0.03-42.51-0.03m47.94,0.01c-0.33,1.76-0.66,3.51-0.98,5.27,13.84,0.14,27.68,0.07,41.53,0.09-0.04-1.92-0.08-3.85-0.12-5.78-13.47,0.33-26.95,0.32-40.43,0.42m46.25,0.04c0.14,1.77,0.28,3.54,0.41,5.31,13.92,0.03,27.83,0.03,41.75,0.01-0.06-1.79-0.12-3.58-0.17-5.37-14,0.07-28-0.05-41.99,0.05m46.75-0.37c0.01,1.9,0.02,3.8,0.04,5.7,14.54,0.02,29.08-0.01,43.63,0.02-0.05-2.12-0.09-4.24-0.12-6.35-14.51,0.27-29.03,0.31-43.55,0.63m187.63,0.2c0.19,1.86,0.39,3.72,0.57,5.57,14.35-0.03,28.7,0.01,43.05-0.02,0.14-1.98,0.29-3.96,0.44-5.94-14.69,0.09-29.38,0.18-44.06,0.39m142.03-0.42c0.03,1.97,0.06,3.95,0.11,5.92,13.94,0.19,27.89,0.03,41.84,0.08-0.08-2.04-0.15-4.09-0.22-6.13-13.91,0.07-27.82-0.08-41.73,0.13m-607.08,1.97c-0.01,0.99-0.02,2.97-0.03,3.96,12.29,0,24.57-0.02,36.86-0.03-0.19-1.45-0.38-2.9-0.56-4.35-12.09,0.12-24.18,0.19-36.27,0.42m41.76-0.39c0.11,1.05,0.32,3.15,0.42,4.2,13.85-0.12,27.69-0.03,41.54-0.05-0.08-1.43-0.15-2.86-0.23-4.29-13.91-0.05-27.82,0.05-41.73,0.14m-55.69,0.59c0.04,2.43,0.08,4.86,0.15,7.28,1.59,0.05,3.18,0.09,4.78,0.14,0.02-1.17,0.05-2.34,0.08-3.51,0.77-0.03,2.31-0.08,3.08-0.1-0.05-1.01-0.14-3.04-0.18-4.05-2.64,0.08-5.27,0.15-7.91,0.24m757.97,10.65c-0.02,11.96-0.01,23.92-0.01,35.88,1.7-0.14,3.42-0.23,5.13-0.51,0.68-11.94,0.2-23.95,0.29-35.91-1.81,0.17-3.61,0.35-5.41,0.54m-758.36,0.58c-0.03,11.9-0.07,23.81-0.15,35.71,1.83-0.03,3.65-0.06,5.48-0.09,0.04-11.87,0.01-23.74,0.02-35.61-1.79-0.01-3.57-0.01-5.35-0.01m772.82,2.9c-0.1,22.46-0.03,44.93-0.02,67.39,8.35-8.71,17.08-17.06,25.34-25.85,1.23-4.03,0.28-8.55,0.72-12.77-8.67-9.59-16.99-19.53-26.04-28.77m-809.4,32.95c-0.2,8.55-0.35,17.11-0.53,25.67,8.78,8.86,17.39,17.89,26.27,26.65,0.39-26.23,0.89-52.44,1.27-78.67-9.03,8.75-18.01,17.56-27.01,26.35m794.94,3.79c-0.03,12.82-0.01,25.64,0,38.46,1.45-0.2,2.91-0.4,4.38-0.59,0.09-12.59,0.31-25.18,0.23-37.77-1.55-0.04-3.08-0.07-4.61-0.1m-758.658,2.016c-0.07,12.48-0.38,24.96-0.27,37.44,1.96,0.19,3.93,0.38,5.9,0.57,0.03-13.02,0.03-26.05,0-39.07-1.87,0.36-3.75,0.71-5.63,1.06m773.27,31.6c-0.16053,3.26236-0.21895,5.99407-0.26649,8.27407,7.88,7.73,17.5765,16.8359,25.4765,24.5459,0.06-19.65,0.46-39.3,0.58-58.95-8.61,8.7-17.17,17.44-25.79,26.13m-809.79-7.51c0.19,19.56,0,39.13,0.4,58.68,8.98-8.26,17.05-17.46,25.77-25.99-0.06-2.33-0.13-4.65-0.21-6.98-8.72-8.5-17.28-17.17-25.96-25.71m795.25,16.34c-0.19,14.21-0.03,28.43-0.08,42.64,1.37-0.04,2.75-0.07,4.14-0.1-0.02-14.17-0.18-28.33-0.09-42.5-1.33-0.01-2.66-0.03-3.97-0.04m-758.8,2.96c-0.56,13.18-0.12,26.4-0.35,39.6,2.02,0.03,4.04,0.06,6.06,0.09,0.01-13.45,0.02-26.9-0.01-40.35-1.9,0.16-3.82,0.26-5.7,0.66m773.18-0.42c-0.74,19.36-0.46,38.74-0.92,58.11,8.64-8.68,17.23-17.42,25.94-26.04-0.03-2.31-0.05-4.63-0.06-6.94-8.23-8.48-16.75-16.65-24.96-25.13m-809.4,44.07c0.02,2.05,0.04,4.09,0.05,6.13,8.52,8.32,17.04,16.64,25.6,24.92,0.02-19.17,0.02-38.34,0.17-57.51-8.56,8.87-17.38,17.49-25.82,26.46m808.58,17.6c0.02,2.35,0.08,4.71,0.14,7.07,8.64,8.32,17.38,16.55,25.98,24.92-0.1-19.55-0.07-39.11-0.22-58.66-8.73,8.79-17.16,17.89-25.9,26.67m-772.71-16.51c0.23,13.8-0.04,27.6,0.38,41.39,1.9,0.04,3.8,0.09,5.7,0.14-0.03-14.16,0.01-28.31-0.02-42.47-2.02,0.31-4.04,0.62-6.06,0.94m759.07-0.39c-0.04,14.34,0.06,28.67-0.05,43.01,1.28-0.04,2.57-0.09,3.88-0.13,0.18-14.26-0.02-28.52,0.28-42.78-1.38-0.03-2.75-0.07-4.11-0.1m-794.6,8.77c-0.1,19.54-0.5,39.08-0.36,58.63,8.4-9.03,17.09-17.77,25.49-26.79-0.06-2.4-0.1-4.8-0.14-7.19-8.31-8.24-16.6-16.5-24.99-24.65m808.25,18.68c-0.27,19.46-0.02,38.92-0.56,58.38,8.43-8.39,16.74-16.88,25.12-25.31,2.28-1.77,1.39-4.83,1.67-7.31-8.75-8.58-17.47-17.19-26.23-25.76m-808.12,44.45c-0.03,1.74-0.05,3.48-0.07,5.23,8.41,8.73,16.75,17.52,25.08,26.33-0.13-19.65-0.04-39.29-0.17-58.93-8.34,9.07-16.48,18.32-24.84,27.37m35.55-25.31c-0.04,13.28-0.1,26.55-0.01,39.82,1.97,0.12,3.95,0.22,5.93,0.33,0.01-13.62-0.01-27.24,0-40.85-1.97,0.23-3.95,0.46-5.92,0.7m758.92,1.51c0.01,13.06-0.03,26.13,0.03,39.2,1.44-0.04,2.9-0.07,4.37-0.1-0.33-13.05-0.51-26.09-0.35-39.14-1.36,0.01-2.71,0.02-4.05,0.04m13.85,40.23c-0.14,2.24-0.23,4.49-0.28,6.74,8.85,8.48,17.21,17.46,26.19,25.8,0.06-19.58,0.12-39.16,0.16-58.74-8.79,8.64-17.3,17.55-26.07,26.2m-808.46-7.06c0.1,19.19,0.16,38.39,0.35,57.58,8.05-7.97,17.1708-17.804,24.9708-26.024-0.332526-1.85-0.200768-3.78597,0.02923-6.34597-8.5-8.36-16.91-16.8-25.35-25.21m794.63,10c-0.04,14.18-0.01,28.36-0.02,42.55,1.34-0.09,2.69-0.18,4.04-0.26,0.02-14.05-0.17-28.1-0.08-42.15-1.33-0.05-2.64-0.1-3.94-0.14m13.17,7.24c-0.19,19.69-0.04,39.39-0.24,59.08,8.93-8.91,17.85-17.82,26.62-26.88-0.04-2.14-0.06-4.28-0.05-6.42-8.71-8.66-17.39-17.36-26.33-25.78m-807.76,45.25c0.04,2.11,0.08,4.22,0.14,6.34,8.52,8.73,16.98,17.52,25.47,26.29-0.05-20.01-0.21-40.02-0.21-60.04-8.48,9.12-16.9,18.3-25.4,27.41m809.23,16.24c-2.32,1.86-1.49,5.08-1.74,7.66,9.01,8.6,17.99,17.22,27,25.81-0.11-19.76-0.09-39.52-0.23-59.28-8.38,8.57-16.62,17.27-25.03,25.81m-773.76-21.86c0,14.06,0.14,28.12,0.11,42.18,2-0.03,4-0.06,6-0.09-0.04-13.98,0.02-27.96-0.03-41.94-2.03-0.05-4.05-0.1-6.08-0.15m759.12,0.17c-0.04,13.83-0.02,27.66-0.01,41.49,1.28-0.1,2.58-0.19,3.89-0.28-0.12-13.8-0.03-27.61,0.08-41.42-1.33,0.07-2.65,0.14-3.96,0.21m-794.18,16.88c-0.34,18.92-0.25,37.85-0.51,56.78,8.38-8.93,16.9-17.73,25.34-26.6,0.03-2,0.04-3.99,0.07-5.98-8.33-8.04-16.42-16.33-24.9-24.2m806.91,15.11c0.13,19.71,0.32,39.41,0.69,59.11,8.34-8.59,16.6-17.25,24.9-25.89,1.88-1.58,1.29-4.25,1.66-6.39-9.03-9-18.14-17.92-27.25-26.83m-12.75,13.35c0,14.34-0.01,28.67,0.01,43.01,0.91-0.02,2.72-0.08,3.63-0.11,0.23-14.43,0.31-28.87,0.45-43.3-1.37,0.13-2.74,0.26-4.09,0.4m-759.01,1.68c0,13.63,0.09,27.25,0.13,40.88,1.95,0.19,3.9,0.39,5.86,0.59,0.05-13.88,0.01-27.76,0.01-41.64-2,0.06-4,0.12-6,0.17m-33.57,28.38c-2.66,2.13-1.57,5.84-1.92,8.78,8.65,8.21,17.21,16.52,25.88,24.71-0.23-19.3-0.45-38.61-0.39-57.91-7.78,8.22-15.72,16.28-23.57,24.42m805.51,19.67c0.02,2.81-0.02,6.08,2.33,8.09,8.34,7.87,16.59,15.84,25.09,23.54,0.13-19.58,0.09-39.17-0.22-58.75-9.08,9.02-18.21,18-27.2,27.12m-807.24-7.87c-0.1,19.65-0.16,39.29-0.23,58.94,8.49-8.77,17.01-17.51,25.55-26.23,0.245879-1.8202,0.164121-5.41577,0.253132-7.44731-8.07-8.4-17.3431-17.0127-25.5731-25.2627m35.39,4.73c0.56,14.1,0.24,28.21,0.49,42.31,1.8,0.05,3.6,0.1,5.4,0.17,0.05-14.16,0.02-28.32,0.02-42.48h-5.91m758.94,0.03c-0.03,14.13-0.03,28.25,0,42.38,1.45-0.18,2.92-0.34,4.39-0.5-0.57-13.88-0.34-27.78-0.56-41.67-1.29-0.08-2.57-0.15-3.83-0.21m13.13,12.44c-0.07,19.63-0.12,39.27-0.03,58.91,8.51-8.26,17.05-16.51,25.58-24.75,2.69-2.04,1.28-5.69,1.41-8.52-8.91-8.63-17.92-17.16-26.96-25.64m-807.19,45.86c-0.09,2.01-0.18,4.02-0.27,6.04,8.58,8.65,17.21,17.27,25.8,25.91,0.04-19.7,0.01-39.41-0.06-59.12-8.49,9.06-16.99,18.1-25.47,27.17m807.281,16.32c-0.0238,2.03,0.003,4.42997,0.13728,6.08995,8.97,8.5,17.9418,17.26,27.0018,25.65,0.13-19.41,0.06-38.82,0.01-58.23m-834.83,19.3c-0.09,19.84-0.09,39.69-0.09,59.54,8.8-8.86,17.6-17.72,26.37-26.61-0.35-2.93,0.79-6.68-1.94-8.74-8.15-8.02-16.2-16.16-24.34-24.19m807.88,17.46c-0.6,25.73-0.53,51.47-0.82,77.2,9.14-9.11,18.66-17.86,27.66-27.1,0.71-3.89,0.17-7.91,0.32-11.85-0.15-4.22,0.41-8.51-0.27-12.68-8.77-8.71-17.93-17.04-26.89-25.57m-13.44,4.93c0,12.94-0.01,25.88,0,38.81,0.87-0.05,2.62-0.16,3.49-0.21,0.27-12.86,0.42-25.73,0.68-38.59-1.4-0.01-2.79-0.01-4.17-0.01m-758.34,1.57c0.08,14.35-0.01,28.69,0.09,43.04,1.71,0.18,3.42,0.36,5.13,0.56-0.06-14.55,0.02-29.09,0-43.64-1.74,0.01-3.48,0.03-5.22,0.04m-36.2,39.16c0.04,2.44,0.08,4.88,0.13,7.33,8.72,8.5,17.42,17.02,26.06,25.6,0.2-20.07,0.27-40.13,0.43-60.19-8.9,9.06-17.69,18.23-26.62,27.26m794.56,1.57c-0.04,12.65-0.03,25.3,0,37.96,2.98502,0.0504,2.44801-0.22722,3.02155-0.19299,0.03-10.8-0.002-27.247,0.41845-38.027-0.86,0.06-2.58,0.19-3.44,0.26m-758.23,6.53c0.03,10.9-0.27,21.81-0.34,32.71,1.75,0,3.49,0,5.24,0.02,0.07-11.15,0.2-22.3,0.15-33.44-1.68,0.23-3.36,0.47-5.05,0.71m771.23,27.24c-0.13368,2.32089-0.15614,3.64057,0.0139,5.69057,8.69,9.06,18.0261,18.4694,26.8461,27.3994,0.14-20.27,0.68-40.54,0.92-60.81-9.22,9.29-18.73,18.28-27.78,27.72m-807.55-24.56c-0.57,19.6-0.6,39.21-1.05,58.81,8.98-8.3,18.09-16.47,27.01-24.84,0.07-3.03,0.16-6.05,0.23-9.07-8.79-8.25-17.25-16.83-26.19-24.9m806.59,51.67c-4.04,0.03-8.08,0.03-12.11,0.13,8.66,8.81,17.2471,16.0671,26.0471,24.7371,4.54-0.06,8.9262,0.004,14.0119,0.0889-0.04-5.44,0.0209-10.116,0.0209-15.556-9.04-9.21-17.96-18.56-27.2-27.58-0.69,6.03-0.63,12.12-0.77,18.18m-759.18-15.02c-0.05,1.48-0.1,2.97-0.15,4.47,12.47-0.16,24.94-0.47,37.41-0.47-0.04-1.36-0.08-2.71-0.12-4.05-12.38-0.02-24.76,0.11-37.14,0.05m41.74-0.14c0.04,0.92,0.1,2.77,0.14,3.69,14.02,0.06,28.05,0.03,42.08,0.19,0.05-1.32,0.09-2.64,0.14-3.95-14.12-0.01-28.24,0.15-42.36,0.07m47.45-0.08c-0.01,0.96-0.03,2.88-0.04,3.84,14.29,0.46,28.58,0.24,42.87,0.48-0.05-1.48-0.09-2.95-0.14-4.42-14.23,0.04-28.46,0.14-42.69,0.1m-137.07,26.23c0,4.69-0.09,9.39-0.13,14.09,4.68-0.18,9.39,0.17,14.04-0.37,9.12-7.97,17.41-16.91,26.29-25.16-4.7-0.1-9.42-0.06-14.1-0.51,0.34-4.58,0.33-9.17,0.28-13.75-8.84,8.52-17.65,17.08-26.38,25.7m54.78-12.53c9.09,8.68,18.17,17.39,27.39,25.93,11.55-0.04,23.1,0.09,34.65,0.02-9.32-8.7-18.89-17.14-28.31-25.73-11.24-0.02-22.48-0.09-33.73-0.22m186.23-0.37c9.66,8.77,19.61,17.23,29.39,25.88,1.17-0.03,2.35-0.05,3.53-0.06,8.89-8.18,17.76-16.38,26.67-24.53-19.85-0.94-39.74-0.39-59.59-1.29m139.72,0.65c-9.17,8.51-18.66,16.66-27.9,25.1,19.94-0.11,39.87-0.1,59.8-0.31-8.78-8.46-17.8-16.66-26.73-24.96-1.73,0.05-3.45,0.11-5.17,0.17m8.86-0.32c9.3,8.28,18.49,16.69,27.77,25,1.28,0.1,2.58,0.21,3.87,0.33,9.17-8.06,18.2-16.27,27.35-24.35-19.66-0.4-39.33-0.71-58.99-0.98m-345.01,1.06c-8.72,8.6-17.62,17.02-26.35,25.6,19.91-0.58,39.85-0.34,59.76-1.11-8.92-8.18-17.81-16.41-26.7-24.63-2.23,0.03-4.47,0.08-6.71,0.14m48.29-0.7c9.11,8.54,18.51,16.77,27.66,25.27,1.55-0.01,3.1-0.01,4.65,0,9.55-8.39,19.18-16.7,28.67-25.15-20.32,0-40.65-0.21-60.98-0.12m64.44,1.44c-9.08,8.03-18.27,15.93-27.24,24.09,20.05,0.14,40.1,0.02,60.15,0.07-9.06-8.52-18.15-17.01-27.13-25.61-1.97,0.22-4.27-0.13-5.78,1.45m9.54-1.45c9.26,8.92,19.08,17.25,28.43,26.08,1.92-0.44,4.06-0.61,5.47-2.15,8.59-7.75,17.15-15.54,25.77-23.26-19.88-0.61-39.78-0.54-59.67-0.67m63.43,1.54c-8.4,8.04-17.03,15.84-25.31,24.01,19.88-0.63,39.77-0.25,59.65-0.62-8.59-8.71-18.1-16.48-27.11-24.76-2.4,0.29-5.36-0.61-7.23,1.37m74.62-0.6c-8.97,8.11-17.83,16.38-26.67,24.64,20.18-0.5,40.38-0.29,60.57-0.57-8.33-7.69-16.78-15.26-25.08-22.97-2.19-2.57-5.98-2.02-8.82-1.1m10.02-0.85c9,7.91,18.14,15.67,27.17,23.55,1.56,1.84,4.09,0.94,6.18,1.04,8.76-8.21,17.7-16.24,26.34-24.57-19.9-0.18-39.79-0.1-59.69-0.02m138.75,0.6c-8.6,8.54-17.82,16.43-26.54,24.86,20.44,0.06,40.87-0.36,61.32-0.21-8.29-7.76-16.9-15.15-25.24-22.84-2.4-2.77-6.36-1.52-9.54-1.81m11.02-0.6c8.61,8.37,17.79,16.13,26.63,24.26,1.75,1.9,4.83,1.43,6.48-0.37,8.86-7.92,17.95-15.58,26.66-23.67-19.92-0.12-39.85-0.18-59.77-0.22m38.45,25.11c19.8,0.34,39.6,0.42,59.4,0.63-8.03-7.87-16.21-15.61-24.23-23.49-2.27-2.72-6.19-1.59-9.26-2.14-8.7,8.26-17.23,16.71-25.91,25m35.82-24.94c8.83,8.72,17.88,17.22,26.89,25.78,2.22-0.09,4.44-0.16,6.68-0.2,9.03-8.48,18.29-16.72,27.08-25.44-20.22-0.15-40.44-0.16-60.65-0.14m64.26,1.12c-8.9,8.11-17.88,16.15-26.73,24.33,20.36,0.06,40.72,0.4,61.08,0.47-9.46-8.73-18.95-17.44-28.36-26.22-2.05,0.2-4.49-0.36-5.99,1.42m10.12-1.19c9.32,8.79,18.94,17.24,28.34,25.95,2.01-0.2,4.46,0.55,6.06-1.06,9.24-8.11,18.46-16.25,27.69-24.37-20.7,0.17-41.39-0.7-62.09-0.52m65.96,1.31c-8.98,8.24-18.03,16.41-27.01,24.65,20.43,0,40.87,0.08,61.29,0.41-8.57-8.25-17.49-16.14-26.15-24.29-1.94-2.3-5.88-2.91-8.13-0.77m9.42-0.95c9.87,8.94,19.91,17.68,29.76,26.65,11.03-0.25,22.17,0.23,33.14-0.5,9.44-8.3,18.79-16.76,27.95-25.38-30.28-0.15-60.57-0.66-90.85-0.77m66.89,26.0714c21.3971-1.66426,38.465-1.1257,59.8722-0.74713-8.85-8.41-15.6222-15.7743-24.4622-24.1843-2.62-0.04-5.22-0.06-7.82-0.09-9.18,8.49-18.49,16.4514-27.59,25.0214z"/>
<path d="m54.9004,52.6187c44.97-0.02,89.0496,0.1613,134.02,0.3413,1.4-0.02,2.8-0.08,4.19-0.2l0.55-0.03c27.1,0.51,54.24,0.06,81.35,0.22,114.4,0.01,228.8,0.12,343.2-0.01l0.38,0.01c32.29,0.08,64.57,0.08,96.86,0.01l0.39-0.01c16.16,0.09,32.33,0.05,48.5,0.01l0.49-0.01c13.79,0.12,21.6503-0.330719,35.4403-0.260719l6.48334,0.06607c0.09,0.3-0.0218,5.10477,0.0682,5.40477-0.39002,50.91-0.10448,97.9429-0.21448,148.853,0.03,86.22,0.14625,172.227,0.23628,258.437l0.01,0.67001c-0.12,43.69-0.1733,87.5808-0.23328,131.271-31,0.04-62.1403-0.47082-93.1403-0.33082-1.33-0.04-2.65-0.03-3.96,0.01-30.35-0.11-60.7-0.12-91.04,0-1.31-0.05-2.62-0.07-3.92-0.07-14.66,0.02-29.32-0.05-43.98,0.04-1.72-0.03-3.43-0.03-5.14,0.01-13.31-0.11-26.61-0.03-39.92-0.04-1.67-0.02-3.33,0-4.98,0.07-15.05-0.12-30.09-0.11-45.13-0.01-1.62-0.06-3.23-0.06-4.84,0-13.07-0.1-26.14-0.11-39.21,0-1.66-0.06-2.4024,0.55863-3.84028,0.64103,0.95566-0.07-27.8546-0.62623-41.8846-0.60623-31.21,0.01-63.7451-0.20485-94.9551-0.0149l-0.89654,0.18541c-16.34-0.17-42.9542,0.26468-49.4155,0.0849-1.98-0.05-2.00947,0.0192-3.35311-0.0905-28.84-0.24-58.592,0-87.432,0.04-31.78-0.18-64.1328,0.62166-95.9128,0.65167,0.05-0.62-0.250841-3.41327-0.200841-4.03327,0.14-29.07-0.01366-51.2637-0.04366-80.3337l-0.01-7.56554c0.13-75.49,0.347252-147.167,0.277252-222.657l-0.118626-10.3349c0.0998-75.8,0.07411-144.492,0.104113-220.292z"/>
<path d="m290.383,595.829c31.21-0.19,62.3452,0.63386,93.5552,0.62386-1.85,0.27-2.69678-0.6719-4.55678-0.5319-1.28794,0.56322-0.5014,4.46841-0.4214,5.89841-14.18,0.06-28.36,0.12-42.53,0.02-0.04-1.49-0.07-2.98-0.1-4.46-1.02-0.01-3.07-0.03-4.1-0.04,0.14,1.57,0.27,3.14,0.42,4.72-10.32-0.29-21.0418,0.04-31.3518-0.44,10.16-0.46,21.0088,0.43666,31.1788,0.24666-0.08-0.88-0.52697-3.09666-0.60697-3.96666-10.96-0.18-21.92-0.08-32.88,0-2.79,0.01-7.63877-0.29515-8.52212,0.29302m46.402-0.342c-0.02,0.86-0.16485,3.09909-0.19485,3.96909,13.86,0.21,28.3564,0.42969,42.2164,0.0797-0.05-0.84-0.68151-3.18878-0.72151-4.02878-13.77-0.07-27.53-0.07-41.3-0.02z"/>
<path d="m430.383,597.005c12.8094-1.21732,27.1171-0.0349,40.1871,0.0651,1.89813,0.56879-12.39,0.77-18.58,0.81-6.88-0.11-22.2837,0.29032-21.6071-0.87514z"/>
<path d="m475.41,597.07c15.04-1.01191,30.0149-0.95677,45.13,0.01,1.42661,0.47182-15.04,0.6-22.56,0.81-7.52-0.22-24.4308-0.1609-22.57-0.82z"/>
<path d="m618.48,597.07c28.0601-2.53005,60.6249-1.67328,91.04,0-2.84,0.35-5.68,0.67-8.53,0.67-11.31-0.08-22.62-0.09-33.93-0.01-0.26,1.54-0.21303,3.14242-0.46303,4.70242-0.09-1.57-0.46697-3.19242-0.53697-4.74242-0.82,0-2.46-0.01-3.28-0.01-0.06,1.66-0.1,3.33-0.13,5.01-14.69-0.29-29.39,0.02-44.08-0.33,14.57-0.38,29.15,0.17,43.73-0.17-0.09-1.49-0.17-2.98-0.24-4.46-11.69-0.09-23.38-0.06-35.07,0.01-2.85,0-5.69-0.32-8.51-0.67z"/>
<path d="m713.545,596.734c31-0.14,61.9449,0.30568,92.9449,0.26568h0.16l-0.04,0.4c-1.87,0.16-3.73,0.24-5.58,0.35-0.15,1.81-0.28,3.62-0.41,5.44-0.14-1.76-0.28-3.52-0.4-5.26-0.74-0.04-2.21-0.12-2.94-0.16-12.17-0.32-24.35-0.26-36.52-0.03-1.22,0.04-2.44,0.11-3.65,0.18-0.11,1.82-0.2,3.65-0.28,5.48-14.52-0.24-29.07,0.05-43.56,0.07l0.18-0.33c14.33,0.02,28.67,0.02,43.01-0.19-0.03-1.79-0.05-3.58-0.06-5.35-14.3-0.33-30.1582,0.78027-42.8549-0.86568z"/>
</g>
</g>
<path fill="#000000" d="m335.95,437.455c4.08399-0.18078,20.9386-0.0835,20.9386-0.0835l-0.15284,2.36434h-17.7294l-3.51533-1.07091" clip-path="none"/>
<path fill="#000000" d="M25.6632,437.476c-5.1966-0.042-21.6618-0.139-21.6618-0.139l0.264094,1.97493h17.7295l3.51532-1.07091" clip-path="none"/>
</g>
</svg>
