<?xml version="1.0" standalone="no"?>
<!DOCTYPE svg PUBLIC "-//W3C//DTD SVG 1.1//EN" "http://www.w3.org/Graphics/SVG/1.1/DTD/svg11.dtd" >
<svg xmlns="http://www.w3.org/2000/svg">
<metadata></metadata>
<defs>
<font id="sf_wasabiregular" horiz-adv-x="997" >
<font-face units-per-em="2048" ascent="1638" descent="-410" />
<missing-glyph horiz-adv-x="899" />
<glyph horiz-adv-x="2048" />
<glyph horiz-adv-x="2048" />
<glyph unicode="&#xd;" horiz-adv-x="2048" />
<glyph unicode=" "  horiz-adv-x="899" />
<glyph unicode="&#x09;" horiz-adv-x="899" />
<glyph unicode="&#xa0;" horiz-adv-x="899" />
<glyph unicode="!" horiz-adv-x="599" d="M402 1492q0 -56 -19 -139q-23 -113 -27 -138q-8 -57 -12 -131t-5 -167q-1 -117 -2 -191.5t-3 -108.5q-1 -16 -4.5 -39t-9.5 -54q-20 -57 -64 -57q-45 0 -66 146q-8 61 -15 150t-13 207q-12 240 -12 382q0 243 124 243q48 0 86 -27q42 -30 42 -76zM450 150q0 -60 -45 -105 q-44 -45 -105 -45q-62 0 -106 44t-44 106t44 106q43 43 106 43q61 0 105 -44q45 -44 45 -105z" />
<glyph unicode="&#x22;" horiz-adv-x="999" d="M848 1448q0 -69 -126 -256q-130 -193 -192 -193q-33 0 -33 80q0 75 36 263q16 79 16 106q0 29 12 58q39 91 136 91q64 0 107 -43q44 -44 44 -106zM450 1448q0 -69 -128 -257q-131 -192 -192 -192q-32 0 -32 77q0 67 18 168q8 42 15 83.5t15 83.5q1 16 5 39.5t11 55.5 q37 91 135 91q64 0 108 -43q45 -44 45 -106z" />
<glyph unicode="#" horiz-adv-x="1434" d="M1284 865q0 -127 -295 -124q-13 -148 -38 -211q-23 -57 -68 -57q-56 0 -56 272q-49 2 -121 5.5t-169 8.5q-6 -57 -9 -86t-4 -33q-11 -74 -27 -114q-23 -57 -68 -57q-59 0 -55 304q-218 21 -218 74q0 52 90 72q32 6 131 9l6 172q-233 23 -233 76q0 59 99 74l72 4l72 4 q9 144 27 209q38 131 131 131q42 0 77 -28q37 -28 37 -68q0 -51 -21 -123q-10 -30 -19 -60t-19 -59q68 0 127.5 3t113.5 8q9 142 27 204q37 127 130 127q41 0 78 -28t37 -68q0 -33 -48 -196q55 12 93 12q52 0 85 -38q31 -34 31 -88q0 -125 -257 -125q-4 -23 -7.5 -49.5 t-5.5 -55.5q106 27 170 27q45 0 77 -42q27 -38 27 -86zM837 1075q-45 2 -111 4.5t-155 6.5q-5 -51 -18 -156h49q139 0 229 9z" />
<glyph unicode="$" horiz-adv-x="1390" d="M1215 1481q0 -46 -29 -83q-30 -39 -77 -39q-11 0 -52 5.5t-114 16.5l-162 27q-7 -45 -11.5 -89t-8.5 -90q-12 -150 -38 -150q-46 0 -66 125q-7 49 -14 106.5t-14 123.5q-92 15 -99 18q-71 21 -71 56q0 33 162 38q-2 36 -3 80t-1 97q0 185 124 185q49 0 86 -28 q42 -32 42 -77q0 -7 -17 -73q-8 -29 -19.5 -72.5t-25.5 -103.5q129 9 226 36q60 16 74 16q48 0 80 -39q28 -35 28 -86zM1029 833q0 -43 -33 -74q-32 -30 -75 -30q-6 0 -16.5 1t-25.5 3q-140 18 -244.5 33t-177.5 27q-125 20 -125 66q0 34 148 38q46 1 91 1q46 0 92 1 q54 2 99 7.5t83 14.5q67 16 80 16q42 0 73 -31q31 -30 31 -73zM1241 108q0 -48 -40 -79q-37 -28 -85 -28t-85 31q-38 32 -38 78q0 16 15 73q9 32 15.5 72.5t11.5 92t9.5 116.5t7.5 146q6 147 38 147q43 0 67 -126q24 -132 44 -251.5t36 -229.5q2 -14 3 -24t1 -18zM402 1492 q0 -16 -23 -90q-35 -109 -56 -230t-29 -255q-11 -150 -38 -150q-46 0 -66 125q-20 138 -30 267.5t-10 254.5q0 183 123 183q44 0 85 -29q44 -32 44 -76zM953 172q0 -37 -86 -60q-5 -2 -35 -7t-85 -13q5 -57 13 -108t19 -99q16 -61 16 -74q0 -50 -37 -78q-38 -30 -87 -30 t-86 30q-38 29 -38 76q0 21 9.5 84.5t28.5 170.5q-239 -42 -282 -42q-47 0 -78 40q-28 35 -28 84t29 86q30 37 79 37q17 0 74 -15q49 -14 107 -23t125 -14l20 113q21 125 66 125q27 0 36 -108l6 -135q214 -7 214 -40z" />
<glyph unicode="%" horiz-adv-x="1572" d="M1300 1416q0 -20 -18 -48q-14 -23 -56 -62q-167 -155 -311 -383q-72 -115 -98 -115q-28 0 -28 40q0 73 98 293q38 84 74 156t70 133q65 116 133 116q50 0 93 -40t43 -90zM753 1300q0 -25 -19 -44t-45 -19q-16 0 -32 9q-10 8 -51 80q-39 70 -126 204q-30 40 -30 54 q0 13 11 13q31 0 144 -110q96 -96 132 -145q16 -22 16 -42zM1422 501q0 -25 -19 -44t-44 -19q-19 0 -33 10q-6 3 -19 25q-24 45 -63.5 109t-94.5 149q-32 43 -32 57q0 11 11 11q34 0 144 -110q84 -84 132 -146q18 -23 18 -42zM450 1502q0 -25 -48 -56q-59 -38 -141 -144 q-77 -99 -99 -99q-10 0 -10 17q0 19 65 140q28 54 45 84.5t24 40.5q54 84 100 84q12 0 23.5 -6t20.5 -15.5t14.5 -21.5t5.5 -24zM737 1155q0 -11 -35 -63t-63 -127q-19 -50 -32 -81.5t-20 -45.5q-20 -39 -53 -39q-25 0 -45 20.5t-20 45.5q0 19 110 159q114 142 144 142 q14 0 14 -11zM1119 703q0 -24 -48 -55q-55 -37 -99 -91q-125 -153 -143 -153q-10 0 -10 11q0 20 22 60q42 81 64.5 124.5t24.5 48.5q75 123 124 123q12 0 23.5 -6t21 -15.5t15 -22t5.5 -24.5zM1404 356q0 -15 -32 -62q-26 -40 -54.5 -99.5t-57.5 -140.5q-20 -54 -58 -54 q-25 0 -45.5 20.5t-20.5 45.5q0 14 137 190q87 112 117 112q14 0 14 -12zM447 864q0 -61 -66 -61q-40 0 -110 117q-23 40 -45 79t-45 78q-32 47 -32 59q0 11 13 11q32 0 119 -94q29 -32 57.5 -63.5t57.5 -63.5q51 -11 51 -62zM1114 70q0 -66 -66 -66q-35 0 -87 82 q-17 28 -33.5 56.5t-33.5 57.5q-76 130 -76 136q0 11 13 11q33 0 119 -92q58 -65 115 -127q49 -10 49 -58zM737 749q0 -32 -48 -128q-56 -111 -156 -339q-6 -18 -14.5 -45t-19.5 -63q-3 -13 -8.5 -31.5t-13.5 -41.5q-26 -50 -94 -50q-50 0 -93 36q-42 37 -42 87q0 32 36 80 q54 74 135 182.5t191 254.5q63 82 99 82q28 0 28 -24z" />
<glyph unicode="&#x26;" horiz-adv-x="1374" d="M1162 1488q0 -134 -195 -134q-54 0 -107.5 4t-108.5 12q-5 -40 -10 -87.5t-10 -104.5l-1 -16q-10 -133 -37 -133q-47 0 -66 126q-10 67 -16.5 129t-11.5 120q-199 60 -199 122q0 24 46 24q10 0 28.5 -2.5t44.5 -7.5q12 -2 30 -4t42 -6q-2 45 -3 80.5t-1 63.5 q0 184 124 184q48 0 86 -27q42 -32 42 -78q0 -60 -54 -211q59 9 108.5 18.5t91.5 19.5q76 17 92 17q85 0 85 -109zM1052 833q0 -42 -33 -73q-31 -31 -74 -31q-6 0 -16.5 1t-25.5 3l-175 25t-246 35q-126 19 -126 66q0 30 147 38q46 1 92 1.5t92 1.5q108 3 182 21 q67 16 80 16q21 0 40 -8t33 -22.5t22 -33.5t8 -40zM375 1359q0 -17 -13 -75q-11 -49 -18.5 -135.5t-9.5 -211.5q-5 -150 -42 -150t-62 126l-51 207q-28 121 -28 210q0 134 113 134q23 0 43 -8t35 -22t24 -33.5t9 -41.5zM1223 146q0 -49 -28 -84q-31 -40 -78 -40 q-32 0 -177 24q-42 7 -82.5 13.5t-82.5 14.5q6 -59 24 -133t18 -76q0 -48 -38 -78t-87 -30q-48 0 -83 28q-39 31 -39 78q0 40 36 240q-139 25 -139 69q0 33 156 38l16 89q20 113 21 121q24 89 59 89q33 0 38 -132l6 -161q166 7 278 38q57 15 74 15q48 0 80 -38 q28 -34 28 -85zM427 110q0 -49 -37 -79q-38 -29 -87 -29q-46 0 -86 29q-38 30 -38 77q0 25 3.5 55t10.5 66q6 31 12 61l12 60l46 281q22 126 67 126q30 0 38 -147q2 -56 7.5 -137.5t15.5 -190.5q1 -7 6.5 -29t15.5 -59q14 -61 14 -84z" />
<glyph unicode="'" horiz-adv-x="599" d="M450 1448q0 -69 -128 -257q-131 -192 -192 -192q-32 0 -32 77q0 67 18 168q8 42 15 83.5t15 83.5q1 16 5 39.5t11 55.5q37 91 135 91q64 0 108 -43q45 -44 45 -106z" />
<glyph unicode="(" horiz-adv-x="899" d="M749 1404q0 -40 -30 -68q-5 -4 -21 -15t-45 -29q-107 -68 -196 -179l-167 -210q-77 -95 -117 -95q-20 0 -20 27q0 37 131 287q100 193 138 249q109 169 199 169q47 0 88 -44q40 -43 40 -92zM742 147q0 -52 -37 -96q-38 -44 -88 -44q-20 0 -38 7q-79 27 -205 260 q-26 51 -66.5 120.5t-95.5 160.5q-62 83 -62 108q0 30 24 30q66 0 236 -185q58 -64 115.5 -127.5t115.5 -126.5q101 -38 101 -107z" />
<glyph unicode=")" horiz-adv-x="909" d="M759 1003q0 -54 -38 -92t-92 -38q-33 0 -59 17q-31 20 -107 162q-75 137 -137 238.5t-114 169.5q-62 80 -62 108q0 29 24 29q63 0 284 -221q85 -86 151.5 -158.5t115.5 -133.5q34 -41 34 -81zM725 711q0 -24 -66 -124q-45 -68 -99.5 -187.5t-121.5 -293.5q-5 -12 -13 -29 t-19 -39q-27 -38 -78 -38q-58 0 -98 37t-40 93q0 36 48 89q30 33 73.5 89.5t100.5 137.5q204 289 285 289q28 0 28 -24z" />
<glyph unicode="*" horiz-adv-x="1124" d="M976 943q0 -74 -79 -74q-38 0 -159 88q-108 78 -149 122q24 -98 24 -196q0 -22 15 -65q15 -44 15 -65q0 -82 -77 -82q-78 0 -78 84q0 208 38 328q-23 -23 -146 -115q-11 -8 -27 -21t-37 -30q-13 -15 -40 -40q-20 -14 -49 -14q-75 0 -75 74q0 51 65 84q177 91 282 117 q-35 11 -65.5 23t-56.5 23q-21 11 -52.5 24.5t-74.5 30.5q-10 1 -23.5 4.5t-30.5 8.5q-47 21 -47 77q0 73 76 73q37 0 158 -88q108 -78 150 -123q-22 89 -22 195q0 22 -16 64q-15 43 -15 66q0 81 77 81q78 0 78 -81q0 -210 -38 -327q37 26 89 67.5t121 98.5q53 53 90 53 q30 0 51.5 -24t21.5 -54q0 -50 -67 -84q-105 -53 -135 -66q-40 -17 -75.5 -29.5t-67.5 -20.5q38 -11 68.5 -22t53.5 -22q20 -11 51.5 -24.5t74.5 -30.5q9 -2 22.5 -6t32.5 -9q48 -21 48 -73z" />
<glyph unicode="+" d="M847 835q0 -49 -33.5 -76.5t-84.5 -27.5q-38 0 -156 18q1 -19 17 -77q13 -48 13 -77q0 -23 -8 -43t-22 -35t-33.5 -23.5t-41.5 -8.5q-42 0 -72 32q-30 33 -30 76q0 16 21 178q-75 11 -113 17t-39 6q-115 25 -115 65q0 30 127 37q40 1 79 1.5t79 1.5q37 283 91 283 q39 0 40 -277q24 2 48 6t49 10q34 8 52.5 12t21.5 4q22 0 42 -7.5t35 -21t24 -32.5t9 -41z" />
<glyph unicode="," horiz-adv-x="599" d="M450 150q0 -68 -128 -255q-131 -191 -192 -191q-32 0 -32 77q0 66 18 167l30 165q1 16 5 39.5t11 55.5q37 91 135 91q64 0 108 -43q45 -44 45 -106z" />
<glyph unicode="-" d="M847 833q0 -42 -33 -73q-32 -31 -75 -31q-5 0 -15.5 1t-26.5 3l-175 25t-246 35q-126 19 -126 66q0 30 147 38q48 1 118.5 3.5t165.5 7.5q11 1 33 5t54 12q60 12 78 12q21 0 39.5 -8t32 -22.5t21.5 -33.5t8 -40z" />
<glyph unicode="." horiz-adv-x="599" d="M450 150q0 -60 -45 -105q-44 -45 -105 -45q-62 0 -106 44t-44 106t44 106q43 43 106 43q61 0 105 -44q45 -44 45 -105z" />
<glyph unicode="/" horiz-adv-x="1355" d="M1201 1416q0 -40 -75 -110q-166 -160 -311 -383q-73 -115 -98 -115q-28 0 -28 47q0 64 100 286q42 93 77 165t64 124q68 116 135 116q49 0 93 -41q43 -40 43 -89zM637 749q0 -31 -48 -128q-28 -56 -66.5 -140t-87.5 -199q-13 -35 -21.5 -61.5t-13.5 -46.5q-6 -24 -23 -73 q-26 -50 -88 -50q-55 0 -96 34q-45 36 -45 89q0 30 35 80q78 108 159 216.5t167 220.5q63 82 101 82q27 0 27 -24z" />
<glyph unicode="0" horiz-adv-x="1406" d="M1306 1003q0 -52 -38 -92q-38 -38 -90 -38q-33 0 -62 17q-26 17 -106 162q-76 140 -138.5 241t-112.5 167q-62 80 -62 108q0 29 24 29q62 0 285 -221q180 -180 267 -292q33 -42 33 -81zM699 1404q0 -40 -30 -68q-6 -6 -66 -44q-108 -68 -195 -179l-168 -210 q-77 -95 -118 -95q-22 0 -22 26q0 34 56 143q20 36 39 72t39 73q48 92 82.5 154t56.5 95q111 169 198 169q49 0 88 -44q40 -43 40 -92zM1273 711q0 -23 -67 -124q-45 -69 -100 -188t-121 -293q-5 -12 -13 -29t-19 -39q-27 -38 -78 -38q-58 0 -98 37t-40 93q0 36 48 89 q31 33 74 89.5t100 137.5q204 289 285 289q29 0 29 -24zM692 146q0 -52 -37 -95t-87 -43q-37 0 -71 22q-63 41 -173 244q-25 49 -65 119t-97 162q-63 84 -63 108q0 30 25 30q61 0 214 -163q51 -57 100 -112.5t98 -111.5q13 -13 27 -25.5t28 -26.5q101 -38 101 -108z" />
<glyph unicode="1" horiz-adv-x="553" d="M402 1492q0 -15 -23 -90q-65 -214 -85 -485q-11 -150 -38 -150q-46 0 -66 125q-20 136 -30 265t-10 255q0 185 123 185q44 0 85 -29q44 -32 44 -76zM404 110q0 -49 -38 -79q-38 -29 -87 -29t-84 28q-39 31 -39 78q0 22 25 171l59 352q21 126 65 126q30 0 38 -147 q9 -186 12 -215q5 -62 13 -114.5t19 -97.5q17 -66 17 -73z" />
<glyph unicode="2" horiz-adv-x="1390" d="M1241 1498q0 -25 -3.5 -55t-10.5 -66l-12 -60t-12 -61l-46 -282q-23 -126 -67 -126q-32 0 -38 149q-1 55 -6.5 136.5t-15.5 190.5q-2 8 -7 30t-15 57q-15 55 -15 85q0 47 39 79q36 30 84 30q50 0 85 -28q40 -31 40 -79zM953 1434q0 -33 -148 -37q-110 -3 -327 -24 q-17 -3 -87 -21q-54 -16 -86 -16q-45 0 -77 38q-31 37 -31 85q0 50 28 85q31 40 78 40q25 0 55 -3.5t67 -10.5q31 -6 61 -12t60 -11l281 -47q126 -23 126 -66zM1029 773q0 -43 -32 -73t-73 -30q-29 0 -80 13q-64 16 -81 17q-20 2 -283 9q-148 4 -148 38q0 45 125 66 q116 21 422 60q15 2 25.5 3t16.5 1q22 0 41.5 -8t34.5 -22t23.5 -33t8.5 -41zM1216 124q0 -48 -30 -85q-33 -39 -79 -39q-19 0 -74 16q-65 17 -164 27q-41 4 -105.5 8t-155.5 8q-149 8 -149 39q0 43 126 66q81 14 200.5 34t281.5 46q14 2 24 3t18 1q46 0 76 -39 q31 -37 31 -85zM402 114q0 -44 -44 -76q-41 -30 -85 -30q-123 0 -123 184q0 125 10 254t30 267q19 126 66 126q27 0 38 -150q18 -275 85 -485q23 -72 23 -90z" />
<glyph unicode="3" horiz-adv-x="1414" d="M1231 1346q0 -89 -29 -219q-13 -54 -25.5 -107t-25.5 -107q-29 -126 -63 -126q-10 0 -15 4q-24 15 -27 146q-1 69 -2 112t-3 63q-6 96 -23 172q-14 64 -14 75q0 22 8.5 41t23.5 33.5t34.5 22.5t42.5 8q25 0 46.5 -9t37.5 -24.5t25 -37.5t9 -47zM909 1348 q0 -63 -35.5 -102.5t-96.5 -39.5q-20 0 -50 8q-273 75 -466 236q-76 64 -76 106q0 26 25 26q17 0 127 -56q61 -31 167 -52q112 -24 257 -36q59 -5 68 -6q42 -7 61 -27t19 -57zM1025 859q0 -45 -126 -66q-66 -11 -170.5 -26t-251.5 -34q-15 -2 -25.5 -3t-16.5 -1 q-43 0 -75 31q-32 32 -32 73q0 48 31 76t79 28q-4 0 15.5 -4.5t61.5 -12.5q70 -16 180 -19q46 -1 91 -2t91 -2q148 -7 148 -38zM1201 108q0 -48 -40 -79q-37 -28 -85 -28t-85 31q-38 32 -38 78q0 14 15 73q16 63 27 162q5 54 9 120t8 145q7 147 38 147q43 0 67 -126 q24 -132 44 -251.5t36 -229.5q2 -14 3 -24t1 -18zM913 172q0 -44 -126 -66q-149 -26 -269 -46t-213 -34q-14 -2 -24 -3t-18 -1q-46 0 -77 40q-28 37 -28 85q0 25 7.5 47.5t22 39t34 26t43.5 9.5q14 0 74 -15q58 -16 164 -26.5t262 -17.5q148 -7 148 -38z" />
<glyph unicode="4" horiz-adv-x="1440" d="M1290 1488q0 -7 -4.5 -25.5t-11 -48t-13.5 -70t-12 -91.5q-9 -104 -18 -264q-7 -148 -38 -148q-44 0 -67 125q-14 81 -34 200.5t-46 281.5q-3 28 -3 42q0 46 39 78q37 28 84 28q51 0 86 -28q38 -32 38 -80zM1288 106q0 -44 -42 -75q-41 -31 -86 -31q-123 0 -123 183 q0 126 10 255.5t30 266.5q18 126 65 126q27 0 38 -150q10 -137 31 -257t55 -228q22 -69 22 -90zM402 1492q0 -16 -23 -90q-34 -108 -55.5 -228t-29.5 -257q-11 -150 -38 -150q-46 0 -66 125q-20 136 -30 265.5t-10 256.5q0 183 123 183q44 0 85 -29q44 -32 44 -76zM981 526 q0 -48 -36 -87q-35 -39 -82 -39q-83 0 -476 181q-105 49 -105 88q0 26 46 26q17 0 107 -18q148 -31 434 -31q48 0 80 -36q32 -37 32 -84z" />
<glyph unicode="5" horiz-adv-x="1390" d="M1216 1482q0 -46 -29 -84q-32 -39 -78 -39q-25 0 -55 3t-66 10q-31 6 -61 12l-60 12l-282 46q-126 22 -126 66q0 27 129 38q40 2 80 3t80 3q57 2 103.5 6t83.5 11q7 1 29 6.5t59 15.5q60 15 84 15q45 0 77 -39q32 -38 32 -85zM1029 833q0 -43 -33 -74q-32 -30 -75 -30 q-6 0 -16.5 1t-25.5 3q-140 18 -244.5 33t-177.5 27q-125 20 -125 66q0 34 148 38q46 1 91 1q46 0 92 1q54 2 99 7.5t83 14.5q67 16 80 16q42 0 73 -31q31 -30 31 -73zM1241 108q0 -48 -40 -79q-37 -28 -85 -28t-85 31q-38 32 -38 78q0 16 15 73q9 32 15.5 72.5t11.5 92 t9.5 116.5t7.5 146q6 147 38 147q43 0 67 -126q24 -132 44 -251.5t36 -229.5q2 -14 3 -24t1 -18zM402 1492q0 -16 -23 -90q-35 -109 -56 -230t-29 -255q-11 -150 -38 -150q-46 0 -66 125q-20 138 -30 267.5t-10 254.5q0 183 123 183q44 0 85 -29q44 -32 44 -76zM953 172 q0 -44 -126 -66q-151 -26 -271 -46t-211 -34q-14 -2 -24 -3t-18 -1q-45 0 -77 41q-29 38 -29 84q0 47 31 84q32 38 77 38q15 0 74 -15q124 -34 426 -44q148 -6 148 -38z" />
<glyph unicode="6" horiz-adv-x="1414" d="M1241 1482q0 -48 -31 -85q-32 -38 -78 -38q-25 0 -55 3t-66 10q-59 12 -120 24l-281 46q-126 22 -126 66q0 28 127 38l159 6q56 2 103 6t86 10q10 2 32.5 7t57.5 15q61 15 84 15q44 0 76 -39q32 -38 32 -84zM1264 303q0 -47 -38 -77q-38 -29 -86 -29q-49 0 -86 30 q-38 32 -38 78q0 12 17 74q8 32 15.5 73t12.5 92q5 44 8.5 108.5t7.5 152.5q6 148 38 148q42 0 65 -126q26 -149 46 -268.5t34 -213.5q2 -14 3 -24t1 -18zM1052 833q0 -42 -33 -73q-31 -31 -74 -31q-6 0 -16.5 1t-25.5 3l-175 25t-246 35q-126 19 -126 66q0 33 147 38 q46 1 92 1t92 1q54 2 99 7.5t83 14.5q67 16 80 16q21 0 40 -8t33 -22.5t22 -33.5t8 -40zM425 1492q0 -21 -21 -90q-68 -213 -86 -485q-11 -150 -38 -150q-48 0 -66 125q-20 138 -30 267.5t-10 254.5q0 181 123 181q48 0 86 -26q42 -30 42 -77zM1151 141q0 -44 -126 -65 q-73 -11 -177.5 -26t-244.5 -34q-15 -2 -25.5 -3t-16.5 -1q-43 0 -76 30q-32 32 -32 74q0 22 9 41t24 32.5t35 21.5t43 8q7 0 73 -15q71 -17 366 -25q148 -3 148 -38zM398 110q0 -49 -38 -79q-38 -29 -87 -29t-84 28q-39 31 -39 78q0 21 38 226q10 52 21.5 116t24.5 141 q22 126 65 126q33 0 38 -147q6 -132 12 -195q5 -55 13 -102.5t19 -89.5q17 -63 17 -73z" />
<glyph unicode="7" horiz-adv-x="1197" d="M1197 1416q0 -40 -75 -110q-85 -81 -162.5 -176t-149.5 -207q-73 -115 -97 -115q-28 0 -28 47q0 64 100 286q42 91 77 163t64 126q66 116 134 116q51 0 94 -40t43 -90zM907 1500q0 -44 -126 -66q-91 -17 -210.5 -36.5t-271.5 -42.5q-16 -2 -26.5 -3.5t-15.5 -1.5 q-46 0 -77 40q-30 37 -30 84q0 46 32 84q31 39 77 39q16 0 75 -15q31 -9 71.5 -15.5t92 -12t116 -9.5t145.5 -7q148 -6 148 -38zM635 729q0 -28 -48 -128q-121 -252 -172 -477q-2 -13 -8 -31t-14 -41q-25 -52 -98 -52q-49 0 -89 37t-40 87q0 33 34 80q40 63 100 154.5 t141 216.5q115 178 167 178q27 0 27 -24z" />
<glyph unicode="8" horiz-adv-x="1770" d="M1448 1308q0 -38 -36 -68q-37 -29 -75 -29q-41 0 -94 44q-20 18 -40.5 36t-40.5 37q-1 1 -43.5 29t-129.5 85q-76 49 -76 102q0 32 21 32q25 0 145 -34q369 -104 369 -234zM1620 1113q0 -61 -54 -101q-17 -13 -81.5 -40t-176.5 -69q-221 -82 -262 -82q-43 0 -43 29 q0 34 116 93q82 43 147 109l129 132q57 58 107 58q47 0 82 -41q36 -41 36 -88zM857 1548q0 -53 -76 -102q-29 -17 -72.5 -45.5t-100.5 -68.5l-40 -36t-40 -37q-53 -44 -94 -44q-40 0 -76 30t-36 68q0 105 178 181q13 5 66 20.5t147 41.5q90 24 122 24q22 0 22 -32zM1517 545 q0 -59 -34 -99q-38 -42 -95 -42q-23 0 -52 8q-96 27 -194 120q-40 42 -80 82.5t-81 82.5q-76 70 -76 106q0 26 23 26q28 0 137 -61q35 -20 70.5 -40t70.5 -40q20 -11 41.5 -20t44.5 -17q14 -4 36 -7.5t54 -6.5q29 -2 51 -6.5t37 -9.5q47 -17 47 -76zM767 855q0 -30 -44 -30 q-74 0 -434 150q-69 28 -95 49q-44 36 -44 93q0 52 37 90q37 39 89 39q39 0 120 -78l54 -56t53 -56q68 -69 148 -109q116 -59 116 -92zM1564 349q0 -24 -118 -90q-82 -44 -164 -120q-30 -28 -60 -55.5t-60 -56.5q-91 -76 -133 -76q-50 0 -87 39q-36 39 -36 90q0 62 57 97 q5 4 169 73q48 20 95.5 41t95.5 41q132 51 193 51q48 0 48 -34zM865 807q0 -37 -76 -106q-27 -28 -67.5 -69t-94.5 -97q-127 -127 -244 -127q-57 0 -94 40t-37 99q0 55 47 78q15 7 101 14q80 8 164 52l141 81q107 61 136 61q24 0 24 -26zM863 82q0 -51 -36 -88 q-36 -39 -86 -39q-42 0 -104 53q-38 36 -96 87.5t-138 118.5q-19 13 -38.5 25.5t-40.5 23.5q-118 66 -118 90q0 34 46 34q64 0 193 -52l192 -81q29 -11 71.5 -29t98.5 -44q56 -35 56 -99z" />
<glyph unicode="9" horiz-adv-x="1414" d="M1264 1490q0 -20 -38 -225q-9 -48 -20.5 -112.5t-25.5 -146.5q-21 -125 -65 -125q-32 0 -38 148q-3 71 -6 119.5t-5 74.5q-11 107 -33 191q-17 62 -17 74q0 47 39 79q37 29 84 29q49 0 87 -29t38 -77zM961 1482q0 -45 -30.5 -74t-75.5 -29q-20 0 -78 16q-73 19 -181 22 q-47 1 -93 1h-91q-149 2 -149 38q0 45 126 66q20 4 68 11t126 18l227 31q15 2 25.5 3t16.5 1q22 0 42 -8t35 -22t23.5 -33t8.5 -41zM1241 183q0 -181 -124 -181q-49 0 -86 27q-42 30 -42 77q0 22 21 90q18 58 32 114t24 112q21 113 30 259q10 150 38 150q47 0 67 -126 q20 -138 30 -267.5t10 -254.5zM1058 739q0 -37 -147 -38q-95 2 -283 -9l-30 -6t-49 -11q-51 -14 -78 -14q-23 0 -43 8t-34.5 21.5t-23 32.5t-8.5 42q0 43 31 73q31 31 76 31q7 0 17.5 -1t24.5 -3q131 -17 235.5 -32t185.5 -28q126 -21 126 -66zM398 1292q0 -11 -17 -74 q-23 -89 -37 -277q-2 -35 -4 -72t-3 -76q-3 -147 -38 -147q-42 0 -65 125q-14 81 -34 200.5t-46 280.5q-2 14 -3 24.5t-1 17.5q0 46 39 78q37 29 84 29q51 0 86 -29q39 -32 39 -80zM930 90q0 -34 -147 -38q-55 -2 -137 -7.5t-191 -15.5q-9 -2 -30 -7t-55 -13 q-54 -14 -86 -14q-47 0 -78 36q-31 37 -31 84q0 48 29 85q31 40 78 40q10 0 70 -9.5t172 -28.5q47 -8 117 -19t164 -27q125 -21 125 -66z" />
<glyph unicode=":" horiz-adv-x="599" d="M450 1048q0 -60 -45 -105q-44 -44 -105 -44q-63 0 -106 43q-44 44 -44 106t44 106t106 44q61 0 105 -45q45 -44 45 -105zM450 150q0 -60 -45 -105q-44 -45 -105 -45q-62 0 -106 44t-44 106t44 106q43 43 106 43q61 0 105 -44q45 -44 45 -105z" />
<glyph unicode=";" horiz-adv-x="599" d="M450 1048q0 -60 -45 -105q-44 -44 -105 -44q-63 0 -106 43q-44 44 -44 106t44 106t106 44q61 0 105 -45q45 -44 45 -105zM450 150q0 -68 -128 -255q-131 -191 -192 -191q-32 0 -32 77q0 66 18 167l30 165q1 16 5 39.5t11 55.5q37 91 135 91q64 0 108 -43q45 -44 45 -106z " />
<glyph unicode="&#x3c;" horiz-adv-x="899" d="M749 1404q0 -40 -30 -68q-5 -4 -21 -15t-45 -29q-107 -68 -196 -179l-167 -210q-77 -95 -117 -95q-20 0 -20 27q0 37 131 287q100 193 138 249q109 169 199 169q49 0 88 -43q40 -43 40 -93zM742 147q0 -52 -37 -96q-38 -44 -88 -44q-20 0 -38 7q-79 27 -205 260 q-26 51 -66.5 120.5t-95.5 160.5q-62 83 -62 108q0 30 24 30q66 0 236 -185q58 -64 115.5 -127.5t115.5 -126.5q101 -38 101 -107z" />
<glyph unicode="=" d="M847 1033q0 -43 -33 -74q-31 -31 -75 -31q-5 0 -15.5 1t-26.5 3q-134 17 -238.5 32t-182.5 29q-126 21 -126 65q0 32 147 38l92 2l92 2q109 3 182 21q67 15 78 15q45 0 75.5 -29t30.5 -74zM847 633q0 -42 -33 -73q-33 -30 -75 -30q-11 0 -42 3q-70 9 -175 24t-246 36 q-126 21 -126 66q0 32 147 38q48 1 118.5 3.5t165.5 7.5q11 1 33 5t54 12q60 12 78 12q21 0 39.5 -8t32 -22.5t21.5 -33.5t8 -40z" />
<glyph unicode="&#x3e;" horiz-adv-x="909" d="M759 1003q0 -54 -38 -92t-92 -38q-33 0 -59 17q-31 20 -107 162q-75 137 -137 238.5t-114 169.5q-62 80 -62 108q0 29 24 29q63 0 284 -221q85 -86 151.5 -158.5t115.5 -133.5q34 -41 34 -81zM725 711q0 -24 -66 -124q-45 -68 -99.5 -187.5t-121.5 -293.5q-5 -12 -13 -29 t-19 -39q-27 -38 -78 -38q-58 0 -98 37t-40 93q0 36 48 89q30 33 73.5 89.5t100.5 137.5q204 289 285 289q28 0 28 -24z" />
<glyph unicode="?" horiz-adv-x="1390" d="M1241 1498q0 -22 -39 -242q-14 -95 -45 -282q-23 -126 -67 -126q-33 0 -38 149q-2 85 -4 138t-4 76q-9 119 -36 211q-15 55 -15 74q0 47 39 79q36 30 84 30q50 0 85 -28q40 -31 40 -79zM953 1434q0 -33 -148 -37q-159 -4 -215 -9q-119 -10 -211 -36q-52 -16 -74 -16 q-45 0 -77 38q-31 37 -31 85q0 50 28 85q31 40 78 40q20 0 243 -38q48 -8 117.5 -19.5t163.5 -26.5q126 -21 126 -66zM1029 773q0 -22 -8.5 -41t-23.5 -33t-35 -22t-43 -8q-17 0 -74 16q-71 19 -147 29.5t-159 14.5q-148 7 -148 38q0 43 119 66l78 8t79 8l212 24 q17 2 27.5 3t14.5 1q44 0 75 -31q33 -30 33 -73zM381 955q0 -7 -22 -91q-23 -86 -45 -325q-2 -23 -6.5 -44.5t-10.5 -41.5q-19 -64 -41 -64q-106 0 -106 418q0 122 11 161q24 90 113 90q107 0 107 -103zM450 150q0 -60 -45 -105q-44 -45 -105 -45q-62 0 -106 44t-44 106 t44 106q43 43 106 43q61 0 105 -44q45 -44 45 -105z" />
<glyph unicode="@" horiz-adv-x="1406" d="M1306 1003q0 -52 -38 -92q-38 -38 -90 -38q-33 0 -62 17q-26 17 -106 162q-76 140 -138.5 241t-112.5 167q-62 80 -62 108q0 29 24 29q62 0 285 -221q180 -180 267 -292q33 -42 33 -81zM857 873q0 -14 -12 -14t-37 36q-11 20 -28 49.5t-40 68.5q-1 1 -7.5 9t-19.5 22 q-20 25 -20 33q0 47 50 47q41 0 68 -87q8 -32 16 -62.5t16 -61.5q1 -2 4 -11.5t10 -28.5zM699 1404q0 -40 -30 -68q-6 -6 -66 -44q-108 -68 -195 -179l-168 -210q-77 -95 -118 -95q-22 0 -22 26q0 34 56 143q20 36 39 72t39 73q48 92 82.5 154t56.5 95q111 169 198 169 q49 0 88 -44q40 -43 40 -92zM677 1073q0 -15 -43 -108q-19 -42 -33 -70.5t-22 -44.5q-18 -35 -34 -35q-12 0 -12 12q0 9 14 46q31 83 38 194q0 12 4 27q9 26 43 26q45 0 45 -47zM923 575q0 -50 -47 -50q-45 0 -45 43q0 8 2 24.5t2 24.5q0 33 -18 104q-18 70 -18 102 q0 24 8 24q18 0 67 -121q49 -120 49 -151zM821 661q0 -33 -28 -33q-27 0 -150 61q-37 19 -37 34q0 10 11 10q27 0 74 -16q48 -14 74 -16q56 -2 56 -40zM1273 711q0 -23 -67 -124q-45 -69 -100 -188t-121 -293q-5 -12 -13 -29t-19 -39q-27 -38 -78 -38q-58 0 -98 37t-40 93 q0 36 48 89q31 33 74 89.5t100 137.5q204 289 285 289q29 0 29 -24zM606 799q0 -31 -18 -127q-20 -102 -31 -119q-18 -27 -48 -27q-42 0 -42 44q0 15 28 67q7 13 75 156q13 30 23 30q13 0 13 -24zM692 146q0 -52 -37 -95t-87 -43q-37 0 -71 22q-63 41 -173 244 q-25 49 -65 119t-97 162q-63 84 -63 108q0 30 25 30q61 0 214 -163q51 -57 100 -112.5t98 -111.5q13 -13 27 -25.5t28 -26.5q101 -38 101 -108z" />
<glyph unicode="A" horiz-adv-x="1115" d="M989 923q0 -37 -24 -37q-50 0 -149 156q-32 50 -60.5 101t-54.5 105q-19 38 -36 66.5t-34 45.5q-13 11 -25.5 22t-26.5 22q-26 26 -26 62q0 51 40 91t92 40q50 0 83 -35q51 -53 99 -213q4 -10 62 -239q3 -14 8.5 -33.5t13.5 -45.5q6 -14 12 -27l12 -26q14 -33 14 -55z M509 1460q0 -25 -30 -91l-45 -90q-30 -72 -60 -143t-60 -143q-104 -225 -156 -225q-30 0 -30 37q0 16 36 118q28 78 52 207.5t45 313.5q6 48 15 72q24 62 99 62q52 0 93 -33t41 -85zM1164 132q0 -58 -32.5 -95t-89.5 -37q-120 0 -120 117q0 11 1 28.5t3 40.5t3.5 40.5 t1.5 29.5q0 90 -32 223q-14 55 -28 109t-28 109q-12 52 -12 99q0 61 28 61q29 0 82 -114l138 -303q85 -201 85 -308zM892 360q0 -88 -87 -88q-63 0 -388 163q-99 49 -99 93q0 25 33 25q42 0 132 -25q34 -10 67 -19t67 -18q40 -10 71 -15t53 -7q151 -10 151 -109zM320 727 q0 -75 -50 -334q-51 -262 -80 -319q-39 -74 -114 -74q-47 0 -85 32q-37 33 -37 81q0 26 18 71q8 20 21 48t33 65q26 47 75 150t122 264q36 80 63 80q34 0 34 -64z" />
<glyph unicode="B" horiz-adv-x="1315" d="M1092 1308q0 -40 -37 -68q-35 -28 -77 -28q-54 0 -145 65q-26 19 -51 34t-48 28q-34 16 -84 41.5t-117 61.5q-76 49 -76 102q0 32 23 32q14 0 143 -34q109 -29 177 -48t95 -29q197 -72 197 -157zM1264 1113q0 -64 -54 -101q-35 -24 -342 -108q-308 -83 -357 -83 q-44 0 -44 29q0 38 116 91q118 52 176.5 78.5t60.5 27.5q132 64 219 137q70 58 99 58q51 0 88 -40q38 -40 38 -89zM402 1492q0 -18 -23 -90q-68 -213 -85 -485q-9 -150 -38 -150q-46 0 -66 125q-20 137 -30 266t-10 254q0 185 123 185q44 0 85 -29q44 -32 44 -76zM1162 585 q0 -30 -9 -56t-26.5 -44.5t-41.5 -29.5t-54 -11q-110 0 -376 127q-285 138 -285 232q0 26 23 26q20 0 129 -56q73 -38 195.5 -62.5t296.5 -35.5q20 -1 46.5 -5t60.5 -11q41 -17 41 -74zM1229 349q0 -26 -118 -90q-73 -39 -126 -68.5t-87 -49.5q-58 -35 -108 -69t-93 -68 q-67 -53 -104 -53q-50 0 -87 40q-36 39 -36 89q0 63 58 97q28 18 261 93q70 23 143.5 46t151.5 48q61 19 97 19q48 0 48 -34zM404 110q0 -49 -38 -79q-38 -29 -87 -29t-84 28q-39 31 -39 78q0 25 3.5 55t10.5 66q5 31 11 61l12 60l47 281q21 126 65 126q32 0 38 -147 q2 -56 7.5 -137.5t15.5 -190.5q3 -17 21 -88q17 -60 17 -84z" />
<glyph unicode="C" horiz-adv-x="1364" d="M1121 1313q0 -50 -37 -90q-36 -39 -85 -39q-27 0 -74 26q-7 4 -35 21.5t-79 49.5l-298 191q-92 59 -92 96q0 26 34 26q27 0 120 -35q84 -31 134 -49t67 -24q58 -19 109.5 -32t97.5 -20q13 -2 31 -5.5t42 -8.5q65 -23 65 -107zM402 1492q0 -16 -23 -90q-35 -109 -56 -230 t-29 -255q-11 -150 -38 -150q-46 0 -66 125q-20 138 -30 267.5t-10 254.5q0 183 123 183q44 0 85 -29q44 -32 44 -76zM1214 286q0 -71 -67 -110q-24 -16 -282 -58q-255 -42 -312 -42q-69 0 -69 34q0 29 127 80q92 36 141.5 55.5t57.5 23.5q57 25 104 50t85 51q67 45 93 45 q49 0 85 -40q37 -40 37 -89zM404 110q0 -49 -38 -79q-38 -29 -87 -29t-84 28q-39 31 -39 78q0 25 3.5 55t10.5 66q5 31 11 61l12 60l47 281q21 126 65 126q32 0 38 -147q4 -85 6 -138.5t4 -76.5q11 -123 34 -212q17 -63 17 -73z" />
<glyph unicode="D" horiz-adv-x="1364" d="M1121 1313q0 -50 -37 -90q-36 -39 -85 -39q-27 0 -74 26q-7 4 -35 21.5t-79 49.5l-298 191q-92 59 -92 96q0 26 34 26q27 0 120 -35q84 -31 134 -49t67 -24q58 -19 109.5 -32t97.5 -20q13 -2 31 -5.5t42 -8.5q65 -23 65 -107zM1199 549q0 -49 -38 -79q-38 -29 -87 -29 q-47 0 -84 29q-39 31 -39 77q0 25 3.5 55t10.5 67q5 30 11 60t12 61l47 281q21 126 65 126q32 0 38 -149q4 -110 24 -327q5 -29 10 -53.5t10 -44.5q17 -63 17 -74zM402 1492q0 -16 -23 -90q-35 -109 -56 -230t-29 -255q-11 -150 -38 -150q-46 0 -66 125q-20 138 -30 267.5 t-10 254.5q0 183 123 183q44 0 85 -29q44 -32 44 -76zM1214 286q0 -71 -67 -110q-24 -16 -282 -58q-255 -42 -312 -42q-69 0 -69 34q0 29 127 80q92 36 141.5 55.5t57.5 23.5q57 25 104 50t85 51q67 45 93 45q49 0 85 -40q37 -40 37 -89zM404 110q0 -49 -38 -79 q-38 -29 -87 -29t-84 28q-39 31 -39 78q0 25 3.5 55t10.5 66q5 31 11 61l12 60l47 281q21 126 65 126q32 0 38 -147q4 -85 6 -138.5t4 -76.5q11 -123 34 -212q17 -63 17 -73z" />
<glyph unicode="E" horiz-adv-x="1317" d="M1216 1482q0 -46 -29 -84q-32 -39 -78 -39q-25 0 -55 3t-66 10q-31 6 -61 12l-60 12l-282 46q-126 22 -126 66q0 36 294 45q52 2 97.5 5.5t84.5 10.5q7 1 29 6.5t59 15.5q60 15 84 15q45 0 77 -39q32 -38 32 -85zM1029 833q0 -43 -33 -74q-32 -30 -75 -30q-6 0 -16.5 1 t-25.5 3q-71 10 -176 25t-246 35q-125 21 -125 66q0 31 148 38q48 1 118 3.5t165 7.5q24 2 44.5 5.5t37.5 7.5q68 16 74 16q46 0 78 -28t32 -76zM402 1492q0 -16 -23 -90q-34 -109 -55.5 -229.5t-29.5 -255.5q-11 -150 -38 -150q-46 0 -66 125q-20 137 -30 266.5t-10 255.5 q0 183 123 183q44 0 85 -29q44 -32 44 -76zM1201 146q0 -49 -31 -86q-32 -38 -78 -38q-24 0 -54 3.5t-67 10.5q-29 6 -59 12t-61 11l-281 47q-126 22 -126 66q0 36 292 45q52 1 97.5 5t85.5 11q7 2 28.5 7t57.5 15q59 14 85 14q46 0 78 -38q33 -38 33 -85zM404 110 q0 -49 -38 -79q-38 -29 -87 -29t-84 28q-39 31 -39 78q0 25 3.5 55t10.5 66q5 31 11 61l12 60l47 281q21 126 65 126q30 0 38 -147q5 -97 7.5 -150.5t3.5 -64.5q9 -122 33 -212q17 -63 17 -73z" />
<glyph unicode="F" horiz-adv-x="1266" d="M1216 1482q0 -46 -29 -84q-32 -39 -78 -39q-25 0 -55 3t-66 10q-31 6 -61 12l-60 12l-282 46q-126 22 -126 66q0 36 294 45q52 2 97.5 5.5t84.5 10.5q7 1 29 6.5t59 15.5q60 15 84 15q45 0 77 -39q32 -38 32 -85zM1029 833q0 -43 -33 -74q-32 -30 -75 -30q-6 0 -16.5 1 t-25.5 3q-71 10 -176 25t-246 35q-125 21 -125 66q0 31 148 38q48 1 118 3.5t165 7.5q24 2 44.5 5.5t37.5 7.5q68 16 74 16q46 0 78 -28t32 -76zM402 1492q0 -16 -23 -90q-34 -109 -55.5 -229.5t-29.5 -255.5q-11 -150 -38 -150q-46 0 -66 125q-20 137 -30 266.5t-10 255.5 q0 183 123 183q44 0 85 -29q44 -32 44 -76zM404 110q0 -49 -38 -79q-38 -29 -87 -29t-84 28q-39 31 -39 78q0 25 3.5 55t10.5 66q5 31 11 61l12 60l47 281q21 126 65 126q30 0 38 -147q5 -97 7.5 -150.5t3.5 -64.5q9 -122 33 -212q17 -63 17 -73z" />
<glyph unicode="G" horiz-adv-x="1330" d="M1174 1457q0 -49 -33 -89t-81 -40q-74 0 -256 59q-66 22 -130.5 44t-130.5 45q-11 3 -27.5 8.5t-38.5 13.5q-36 16 -50 46q0 40 77 40q10 0 75 -6q76 -7 150 -10.5t148 -3.5q78 0 129 6t61 6q46 0 76 -37q31 -35 31 -82zM1115 974q0 -46 -126 -65q-234 -36 -360 -36 q-181 0 -181 124q0 102 100 102q32 0 129 -28q85 -24 156.5 -39t131.5 -20l23 -2q127 -10 127 -36zM1130 771q0 -14 -23 -65q-14 -31 -22 -48t-10 -21q-20 -60 -31 -160q-14 -149 -38 -149q-38 0 -38 74q0 63 -25 181q-24 120 -24 182q0 108 108 108q103 0 103 -102z M402 1492q0 -16 -23 -90q-35 -109 -56 -230t-29 -255q-11 -150 -38 -150q-46 0 -66 125q-20 138 -30 267.5t-10 254.5q0 183 123 183q44 0 85 -29q44 -32 44 -76zM1180 185q0 -72 -67 -109q-30 -16 -284 -57q-126 -20 -203.5 -30t-107.5 -10q-68 0 -68 31q0 29 127 80 q85 33 135 52.5t64 26.5q55 24 102 49t87 51q71 47 93 47q50 0 86 -41t36 -90zM404 110q0 -49 -38 -79q-38 -29 -87 -29t-84 28q-39 31 -39 78q0 25 3.5 55t10.5 66q5 31 11 61l12 60l47 281q21 126 65 126q32 0 38 -147q2 -56 7.5 -137.5t15.5 -190.5q3 -17 21 -88 q17 -60 17 -84z" />
<glyph unicode="H" horiz-adv-x="1440" d="M1290 1488q0 -7 -4.5 -25.5t-11 -48t-13.5 -70t-12 -91.5q-9 -104 -18 -264q-7 -148 -38 -148q-44 0 -67 125q-14 81 -34 200.5t-46 281.5q-3 28 -3 42q0 46 39 78q37 28 84 28q51 0 86 -28q38 -32 38 -80zM1288 106q0 -44 -42 -75q-41 -31 -86 -31q-123 0 -123 183 q0 126 10 255.5t30 266.5q18 126 65 126q27 0 38 -150q10 -137 31 -257t55 -228q22 -69 22 -90zM1027 779q0 -48 -36 -87q-35 -39 -82 -39q-80 0 -476 182q-105 49 -105 88q0 26 46 26q20 0 108 -19q149 -31 433 -31q24 0 44.5 -9.5t35.5 -26t23.5 -38.5t8.5 -46zM402 1492 q0 -16 -23 -90q-34 -108 -55.5 -228t-29.5 -257q-11 -150 -38 -150q-46 0 -66 125q-20 136 -30 265.5t-10 256.5q0 183 123 183q44 0 85 -29q44 -32 44 -76zM404 110q0 -49 -38 -79q-38 -29 -87 -29t-84 28q-39 31 -39 78q0 13 6 54t17 111l61 358q21 126 65 126 q30 0 38 -147q4 -89 6.5 -142.5t4.5 -72.5q10 -120 33 -212q17 -66 17 -73z" />
<glyph unicode="I" horiz-adv-x="553" d="M402 1492q0 -15 -23 -90q-65 -214 -85 -485q-11 -150 -38 -150q-46 0 -66 125q-20 136 -30 265t-10 255q0 185 123 185q44 0 85 -29q44 -32 44 -76zM404 110q0 -49 -38 -79q-38 -29 -87 -29t-84 28q-39 31 -39 78q0 22 25 171l59 352q21 126 65 126q30 0 38 -147 q9 -186 12 -215q5 -62 13 -114.5t19 -97.5q17 -66 17 -73z" />
<glyph unicode="J" horiz-adv-x="1378" d="M1229 1480q0 -13 -4.5 -50.5t-14.5 -101.5q-11 -72 -22 -185.5t-22 -271.5q-6 -98 -40 -98q-43 0 -68 136q-32 172 -57 367q-10 73 -15 124.5t-5 81.5q0 52 40 85q37 31 90 31q52 0 85 -32t33 -86zM1222 711q0 -24 -65 -124q-100 -149 -223 -481q-4 -12 -12 -29t-19 -39 q-26 -38 -78 -38q-57 0 -97 37t-40 93q0 36 47 89q28 31 70.5 87.5t101.5 139.5q104 147 177 220q70 69 111 69q27 0 27 -24zM641 139q0 -52 -37 -92q-36 -39 -88 -39q-34 0 -68 22q-65 43 -174 244l-75 144q-47 86 -87 137q-62 82 -62 108q0 30 24 30q65 0 217 -162 q49 -57 98 -112.5t98 -112.5q11 -12 24.5 -25t29.5 -27q100 -37 100 -115z" />
<glyph unicode="K" horiz-adv-x="1378" d="M1050 1388q0 -45 -47 -92q-15 -14 -52.5 -46.5l-97.5 -84.5q-53 -45 -125.5 -106t-166.5 -140q-83 -69 -108 -69q-30 0 -30 25q0 43 69 124q45 49 107.5 125.5t144.5 182.5q20 31 35 56.5t24 46.5q23 55 44 76q31 31 73 31q50 0 90 -40q40 -39 40 -89zM402 1492 q0 -18 -23 -90q-68 -213 -85 -485q-9 -150 -38 -150q-46 0 -66 125q-20 137 -30 266t-10 254q0 185 123 185q44 0 85 -29q44 -32 44 -76zM1229 202q0 -58 -34 -98q-36 -44 -92 -44q-39 0 -112 39q-196 106 -376 376q-14 23 -35.5 55.5t-51.5 75.5l-24 24t-23 24 q-29 35 -29 57q0 24 23 24q65 0 190 -100q7 -5 52.5 -49t131.5 -128q128 -123 190 -144q29 -8 59 -14.5t60 -13.5q71 -26 71 -84zM404 110q0 -49 -38 -79q-38 -29 -87 -29t-84 28q-39 31 -39 78q0 25 3.5 55t10.5 66q5 31 11 61l12 60l47 281q21 126 65 126q32 0 38 -147 q4 -85 6 -138.5t4 -76.5q11 -123 34 -212q17 -63 17 -73z" />
<glyph unicode="L" horiz-adv-x="1250" d="M402 1492q0 -16 -23 -90q-34 -109 -55.5 -229.5t-29.5 -255.5q-11 -150 -38 -150q-46 0 -66 125q-20 137 -30 266.5t-10 255.5q0 183 123 183q44 0 85 -29q44 -32 44 -76zM1201 146q0 -49 -31 -86q-32 -38 -78 -38q-24 0 -54 3.5t-67 10.5q-29 6 -59 12t-61 11l-281 47 q-126 22 -126 66q0 36 292 45q52 1 97.5 5t85.5 11q7 2 28.5 7t57.5 15q59 14 85 14q46 0 78 -38q33 -38 33 -85zM404 110q0 -49 -38 -79q-38 -29 -87 -29t-84 28q-39 31 -39 78q0 25 3.5 55t10.5 66q5 31 11 61l12 60l47 281q21 126 65 126q30 0 38 -147q5 -97 7.5 -150.5 t3.5 -64.5q9 -122 33 -212q17 -63 17 -73z" />
<glyph unicode="M" horiz-adv-x="2099" d="M1871 833q0 -32 -26 -32q-78 0 -215 350q-20 51 -36.5 90t-29.5 68l-45 90q-31 63 -31 89q0 51 40 85q41 35 90 35q103 0 118 -136q38 -350 99 -521q36 -101 36 -118zM1460 1472q0 -30 -41 -73q-28 -28 -43 -45t-19 -24q-32 -63 -63.5 -125t-63.5 -125 q-105 -194 -155 -194q-31 0 -31 39q0 4 35 106q2 5 17.5 75.5t44.5 207.5q44 197 101 254q39 39 88 39q54 0 92 -41t38 -94zM2049 114q0 -49 -36 -82q-37 -32 -86 -32q-80 0 -122 82q-26 53 -58 309q-14 115 -21 197t-7 133q0 84 40 84q25 0 57 -84q45 -121 86.5 -227 t83.5 -200q63 -146 63 -180zM1018 833q0 -32 -25 -32q-44 0 -97 89q-49 82 -119 261q-16 41 -32.5 80.5t-33.5 77.5q-12 25 -29 61.5t-39 86.5q-8 22 -8 31q0 50 40 84q40 36 90 36q63 0 90 -39q21 -30 28 -97q36 -341 100 -521q35 -102 35 -118zM608 1472q0 -30 -28 -58 l-24 -22l-24 -22q-21 -20 -85 -150q-40 -81 -61.5 -123.5t-25.5 -48.5q-95 -162 -139 -162q-28 0 -28 31q0 18 23 93q14 46 21 71.5t9 31.5l26 120t26 121q43 166 91 214q37 39 88 39q54 0 92 -41q39 -41 39 -94zM1172 126q0 -26 -9 -47t-25.5 -36.5t-38.5 -24t-47 -8.5 q-133 0 -133 196q0 74 11 177t33 238q18 114 47 114q30 0 46 -94q4 -24 27 -115q10 -40 24.5 -98.5t34.5 -137.5q30 -119 30 -164zM360 807q0 -92 -40 -264q-20 -87 -30 -152.5t-10 -110.5q0 -23 1 -42t3 -36q5 -42 7.5 -61.5t2.5 -18.5q0 -25 -9.5 -45.5t-26 -35.5 t-38.5 -23t-47 -8q-122 0 -122 148q0 104 77 297q21 51 52.5 126t73.5 176q46 118 76 118t30 -68z" />
<glyph unicode="N" horiz-adv-x="1440" d="M1290 1488q0 -16 -16 -73q-15 -58 -24.5 -162t-18.5 -264q-7 -148 -38 -148q-44 0 -67 125q-14 81 -34 200.5t-46 281.5q-3 28 -3 42q0 46 39 78q37 28 84 28q51 0 86 -28q38 -32 38 -80zM968 839q0 -52 -38 -90q-37 -37 -90 -37q-35 0 -67 19q-60 37 -278 426 q-41 74 -41 114q0 29 26 29q23 0 111 -94q29 -29 69 -65t94 -78q64 -50 106.5 -84t62.5 -53q45 -41 45 -87zM1288 106q0 -44 -42 -75q-41 -31 -86 -31q-123 0 -123 183q0 126 10 255.5t30 266.5q18 126 65 126q27 0 38 -150q10 -137 31 -257t55 -228q22 -69 22 -90z M402 1492q0 -16 -23 -90q-34 -109 -55.5 -229.5t-29.5 -255.5q-11 -150 -38 -150q-46 0 -66 125q-20 137 -30 266.5t-10 255.5q0 183 123 183q44 0 85 -29q44 -32 44 -76zM404 110q0 -49 -38 -79q-38 -29 -87 -29t-84 28q-39 31 -39 78q0 25 3.5 55t10.5 66q5 31 11 61 l12 60l47 281q21 126 65 126q30 0 38 -147q5 -97 7.5 -150.5t3.5 -64.5q9 -122 33 -212q17 -63 17 -73z" />
<glyph unicode="O" horiz-adv-x="1406" d="M1306 1003q0 -52 -38 -92q-38 -38 -90 -38q-33 0 -62 17q-26 17 -106 162q-76 140 -138.5 241t-112.5 167q-62 80 -62 108q0 29 24 29q62 0 285 -221q180 -180 267 -292q33 -42 33 -81zM699 1404q0 -40 -30 -68q-6 -6 -66 -44q-108 -68 -195 -179l-168 -210 q-77 -95 -118 -95q-22 0 -22 26q0 34 56 143q20 36 39 72t39 73q48 92 82.5 154t56.5 95q111 169 198 169q49 0 88 -44q40 -43 40 -92zM1273 711q0 -23 -67 -124q-45 -69 -100 -188t-121 -293q-5 -12 -13 -29t-19 -39q-27 -38 -78 -38q-58 0 -98 37t-40 93q0 36 48 89 q31 33 74 89.5t100 137.5q204 289 285 289q29 0 29 -24zM692 146q0 -52 -37 -95t-87 -43q-37 0 -71 22q-63 41 -173 244q-25 49 -65 119t-97 162q-63 84 -63 108q0 30 25 30q61 0 214 -163q51 -57 100 -112.5t98 -111.5q13 -13 27 -25.5t28 -26.5q101 -38 101 -108z" />
<glyph unicode="P" horiz-adv-x="1250" d="M1132 1182q0 -40 -36 -68q-35 -27 -77 -27q-86 0 -205 107q-43 43 -86 85.5t-87 85.5q-27 20 -54 41t-54 41q-76 61 -76 97q0 32 23 32q48 0 143 -34q62 -23 158 -75q54 -30 93 -49.5t63 -29.5q195 -80 195 -206zM1201 886q0 -62 -54 -99q-35 -23 -342 -108 q-308 -84 -357 -84q-44 0 -44 30q0 37 116 90q59 26 117 53t118 54q131 64 219 137q70 57 101 57q50 0 88 -39q38 -40 38 -91zM402 1492q0 -18 -23 -90q-68 -213 -85 -485q-9 -150 -38 -150q-46 0 -66 125q-20 137 -30 266t-10 254q0 185 123 185q44 0 85 -29q44 -32 44 -76 zM404 110q0 -49 -38 -79q-38 -29 -87 -29t-84 28q-39 31 -39 78q0 25 3.5 55t10.5 66q5 31 11 61l12 60l47 281q21 126 65 126q32 0 38 -147q2 -56 7.5 -137.5t15.5 -190.5q3 -17 21 -88q17 -60 17 -84z" />
<glyph unicode="Q" horiz-adv-x="1408" d="M1306 1003q0 -52 -38 -92q-38 -38 -90 -38q-33 0 -62 17q-26 17 -106 162q-76 140 -138.5 241t-112.5 167q-62 80 -62 108q0 29 24 29q65 0 286 -221q92 -91 158 -163.5t108 -128.5q33 -44 33 -81zM699 1404q0 -39 -32 -68q-5 -5 -21 -16t-43 -28q-108 -68 -195 -179 l-168 -210q-77 -95 -118 -95q-21 0 -21 35q0 27 57 137q19 35 38 71t38 71q48 92 82 154t57 95q111 169 198 169q49 0 88 -44q40 -43 40 -92zM1408 -13q0 -49 -39 -92q-38 -44 -87 -44q-77 0 -162 126q-10 13 -37 61t-73 132q-39 -99 -45 -111q-38 -60 -92 -60t-95 38 q-41 39 -41 93q0 36 48 89q32 35 61 71t55 74q-86 104 -86 139q0 30 23 30q38 0 127 -78q196 280 279 280q29 0 29 -24q0 -19 -56 -111q-18 -29 -36 -59t-36 -59q-17 -32 -33 -66t-31 -71q28 -34 55.5 -68t55.5 -68q87 -102 114 -115q11 -5 28 -14t40 -22q34 -25 34 -71z M692 146q0 -52 -37 -95t-87 -43q-37 0 -71 22q-63 41 -173 244q-25 49 -65 119t-97 162q-63 84 -63 108q0 30 25 30q63 0 215 -162q50 -57 99 -112.5t98 -112.5q23 -24 55 -52q101 -38 101 -108z" />
<glyph unicode="R" horiz-adv-x="1279" d="M1092 1308q0 -40 -37 -68q-35 -28 -77 -28q-54 0 -145 65q-27 19 -63.5 40.5t-84.5 44.5q-59 30 -97 50t-55 30q-76 45 -76 102q0 32 23 32q14 0 143 -34q109 -29 177 -48t95 -29q197 -72 197 -157zM1193 1063q0 -64 -55 -100q-34 -24 -343 -108q-308 -84 -355 -84 q-44 0 -44 30q0 40 115 89q100 45 159 71.5t77 36.5q67 32 121.5 66.5t97.5 69.5q73 59 101 59q51 0 88 -40q38 -40 38 -90zM402 1492q0 -18 -23 -90q-68 -213 -85 -485q-9 -150 -38 -150q-46 0 -66 125q-20 137 -30 266t-10 254q0 185 123 185q44 0 85 -29q44 -32 44 -76z M1229 202q0 -58 -34 -98q-36 -44 -92 -44q-39 0 -112 39q-196 106 -376 376q-14 23 -35.5 55.5t-51.5 75.5l-24 24t-23 24q-29 35 -29 57q0 24 23 24q65 0 190 -100q7 -5 52.5 -49t131.5 -128q128 -123 190 -144q29 -8 59 -14.5t60 -13.5q71 -26 71 -84zM404 110 q0 -49 -38 -79q-38 -29 -87 -29t-84 28q-39 31 -39 78q0 25 3.5 55t10.5 66q5 31 11 61l12 60l47 281q21 126 65 126q32 0 38 -147q4 -85 6 -138.5t4 -76.5q11 -123 34 -212q17 -63 17 -73z" />
<glyph unicode="S" horiz-adv-x="1390" d="M1216 1482q0 -46 -29 -84q-32 -39 -78 -39q-25 0 -55 3t-66 10q-31 6 -61 12l-60 12l-282 46q-126 22 -126 66q0 27 129 38q40 2 80 3t80 3q57 2 103.5 6t83.5 11q7 1 29 6.5t59 15.5q60 15 84 15q45 0 77 -39q32 -38 32 -85zM1029 833q0 -43 -33 -74q-32 -30 -75 -30 q-6 0 -16.5 1t-25.5 3q-140 18 -244.5 33t-177.5 27q-125 20 -125 66q0 34 148 38q46 1 91 1q46 0 92 1q54 2 99 7.5t83 14.5q67 16 80 16q42 0 73 -31q31 -30 31 -73zM1241 108q0 -48 -40 -79q-37 -28 -85 -28t-85 31q-38 32 -38 78q0 16 15 73q9 32 15.5 72.5t11.5 92 t9.5 116.5t7.5 146q6 147 38 147q43 0 67 -126q24 -132 44 -251.5t36 -229.5q2 -14 3 -24t1 -18zM402 1492q0 -16 -23 -90q-35 -109 -56 -230t-29 -255q-11 -150 -38 -150q-46 0 -66 125q-20 138 -30 267.5t-10 254.5q0 183 123 183q44 0 85 -29q44 -32 44 -76zM953 172 q0 -44 -126 -66q-151 -26 -271 -46t-211 -34q-14 -2 -24 -3t-18 -1q-45 0 -77 41q-29 38 -29 84q0 47 31 84q32 38 77 38q15 0 74 -15q124 -34 426 -44q148 -6 148 -38z" />
<glyph unicode="T" horiz-adv-x="1077" d="M1027 1456q0 -46 -32 -86q-32 -38 -78 -38q-10 0 -144 28q-55 11 -157.5 20.5t-254.5 17.5q-86 2 -173 6q-138 10 -138 38q0 86 342 122q100 11 206 16.5t221 5.5q208 0 208 -130zM659 1246q0 -19 -28 -171q-14 -75 -22 -131.5t-10 -96.5q-10 -148 -38 -148 q-56 0 -86 126q-63 261 -63 399q0 48 10 67q35 65 111 65q51 0 88 -31q38 -30 38 -79zM657 103q0 -44 -44 -76q-40 -28 -84 -28q-123 0 -123 182q0 57 10 152.5t30 230.5q18 125 65 125q24 0 38 -150q6 -63 27 -147q1 -2 12 -39.5t34 -110.5q35 -116 35 -139z" />
<glyph unicode="U" horiz-adv-x="1478" d="M1328 1480q0 -31 -18 -152q-10 -63 -21 -176.5t-23 -280.5q-8 -98 -40 -98q-43 0 -67 136q-17 94 -30.5 178t-24.5 159q-11 82 -17 141t-6 95q0 52 40 85q37 30 89 30q118 0 118 -117zM412 1486q0 -20 -31 -89q-49 -117 -58 -394q-5 -141 -6 -160q-14 -126 -50 -126 t-54 126l-1 7q-11 63 -20.5 126t-19.5 126q-11 73 -16.5 136t-5.5 117q0 242 128 242q50 0 91 -29q43 -31 43 -82zM1322 711q0 -24 -66 -124q-48 -72 -102.5 -191t-118.5 -290q-18 -46 -32 -68q-26 -38 -78 -38q-58 0 -98 37t-40 93q0 36 48 89q31 35 73.5 91.5t99.5 135.5 q205 289 286 289q28 0 28 -24zM742 146q0 -50 -35 -94q-38 -45 -89 -45q-36 0 -71 23q-56 38 -150 202q-32 59 -64 117t-64 117q-16 28 -30 50t-27 39q-62 82 -62 108q0 30 24 30q90 0 375 -344q41 -50 92 -95q101 -38 101 -108z" />
<glyph unicode="V" horiz-adv-x="1115" d="M1164 1482q0 -43 -76 -182q-68 -125 -198 -414q-36 -79 -61 -79q-34 0 -34 64q0 38 12.5 121.5t37.5 213.5q49 267 80 318q40 73 116 73q48 0 86 -33q37 -33 37 -82zM284 797q0 -56 -28 -56q-31 0 -82 114q-35 76 -69.5 151t-68.5 151q-83 204 -83 309q0 57 31 94.5 t88 37.5q122 0 122 -116q0 -21 -6 -63q-2 -21 -3.5 -36.5t-1.5 -25.5q0 -112 61 -343q40 -153 40 -217zM987 793q0 -15 -36 -118q-59 -170 -99 -521l-5 -30t-8 -42q-23 -62 -99 -62q-52 0 -92 32q-42 34 -42 86q0 27 31 90q11 23 22.5 45.5t22.5 45.5q29 72 59 143t60 143 q102 224 156 224q30 0 30 -36zM561 132q0 -53 -40 -93q-39 -39 -92 -39q-118 0 -191 288q-9 34 -22.5 84t-30.5 117q-4 26 -21 79q-38 87 -38 107q0 36 24 36q57 0 161 -176q32 -60 65 -118t65 -117q6 -11 16.5 -26.5t26.5 -35.5q13 -11 25 -22.5t25 -22.5q27 -26 27 -61z " />
<glyph unicode="W" horiz-adv-x="1900" d="M1950 1494q0 -28 -59 -169q-19 -45 -38 -89.5t-39 -89.5q-20 -49 -44.5 -113.5t-54.5 -146.5q-32 -83 -55 -83q-40 0 -40 83q0 51 7 133.5t21 199.5q30 257 58 307q43 82 121 82q47 0 85 -33q38 -32 38 -81zM1073 1482q0 -56 -27 -155q-11 -38 -21 -77t-21 -77 q-17 -66 -28.5 -117.5t-18.5 -89.5q-20 -93 -46 -93q-29 0 -48 114q-22 135 -33 238.5t-11 176.5q0 195 134 195q51 0 85.5 -32t34.5 -83zM1772 775q0 -16 -36 -118q-31 -88 -56 -217.5t-45 -303.5q-1 -13 -4.5 -31.5t-8.5 -43.5q-22 -61 -105 -61q-48 0 -89 35 q-40 36 -40 85q0 19 32 88q11 23 22.5 45.5t22.5 45.5q12 28 28.5 67t36.5 91q138 350 216 350q26 0 26 -32zM1360 136q0 -55 -39 -95t-92 -40q-50 0 -87 39q-49 50 -91 216q-6 20 -51 239q-6 26 -21 82q-34 99 -34 111q0 33 29 33q44 0 139 -162q13 -23 27 -48.5t28 -54.5 q14 -28 27 -56.5t26 -57.5q17 -35 33 -61t32 -45l24 -22l24 -22q26 -26 26 -56zM259 801q0 -68 -29 -68q-30 0 -76 117q-32 76 -63.5 151t-63.5 151q-74 198 -74 308q0 28 8 53.5t23 44t37 29.5t50 11q48 0 86 -32q37 -31 37 -80q0 -18 -6 -54q-4 -20 -5.5 -34.5t-2.5 -22.5 q-1 -10 -1 -22v-25q0 -91 40 -264q40 -172 40 -263zM919 775q0 -18 -36 -118q-30 -82 -55 -211.5t-45 -309.5q-3 -26 -15 -75q-22 -61 -97 -61q-53 0 -93 33q-43 34 -43 87q0 22 29 78q47 96 113 259q137 350 215 350q27 0 27 -32zM507 136q0 -55 -38 -96q-37 -40 -92 -40 q-50 0 -87 40q-48 51 -92 216q-13 60 -25.5 119.5t-26.5 119.5q-3 14 -8 34.5t-12 47.5q-34 98 -34 111q0 33 30 33q73 0 246 -372q38 -80 65 -113q11 -11 23 -22t25 -22q26 -26 26 -56z" />
<glyph unicode="X" horiz-adv-x="1315" d="M1201 1472q0 -32 -44 -90q-23 -31 -62.5 -88.5t-95.5 -144.5q-97 -150 -163.5 -227t-108.5 -77q-30 0 -30 28q0 23 58 120q95 163 198 493q7 24 14 41.5t14 28.5q27 42 84 42q55 0 95 -37q41 -36 41 -89zM646 877q0 -36 -27 -36q-65 0 -177 163q-19 28 -53.5 84.5 t-85.5 144.5q-29 50 -78 101q-32 28 -61 58q-34 35 -34 74q0 49 36 90q38 41 86 41q139 0 236 -322q16 -54 31.5 -101.5t29.5 -90.5q12 -36 42 -102q8 -13 17 -25t17 -25q21 -32 21 -54zM1214 132q0 -52 -38 -93q-38 -39 -90 -39q-85 0 -150 134q-20 42 -41.5 110t-46.5 165 q-45 182 -69 224q-48 87 -48 108q0 34 28 34q38 0 112 -87q49 -60 99 -156q21 -41 42 -81.5t42 -82.5q17 -34 35 -60.5t37 -46.5l30 -28t29 -28q29 -34 29 -73zM581 737q0 -22 -53 -122q-91 -165 -181 -499q-6 -26 -25 -70q-27 -46 -91 -46q-50 0 -91 35q-41 36 -41 86 q0 34 40 95q16 22 31.5 43.5t31.5 44.5q40 66 80 131t80 131q130 199 189 199q30 0 30 -28z" />
<glyph unicode="Y" horiz-adv-x="970" d="M1021 1472q0 -32 -45 -90q-49 -65 -158 -233q-96 -151 -162.5 -227.5t-108.5 -76.5q-29 0 -29 23q0 24 57 125q98 167 198 493q8 27 28 70q25 42 84 42q55 0 95 -37q41 -36 41 -89zM465 877q0 -37 -23 -37q-41 0 -118 83q-28 30 -62.5 81.5t-76.5 125.5q-40 72 -75 122.5 t-64 81.5q-15 14 -30 29t-31 29q-32 37 -32 75q0 48 36 89q35 41 83 41q89 0 158 -127q43 -78 100 -265q56 -181 82 -224q8 -12 16.5 -24.5t17.5 -25.5q19 -29 19 -54zM617 110q0 -49 -38 -79q-38 -29 -87 -29q-48 0 -83 28q-39 31 -39 78q0 2 1 12.5t3 29.5l22 217 q5 51 14.5 126t22.5 176q19 126 66 126q30 0 38 -147q18 -295 64 -465q16 -60 16 -73z" />
<glyph unicode="Z" horiz-adv-x="1355" d="M1201 1416q0 -40 -75 -110q-166 -160 -311 -383q-73 -115 -98 -115q-28 0 -28 47q0 64 100 286q42 93 77 165t64 124q68 116 135 116q49 0 93 -41q43 -40 43 -89zM911 1500q0 -44 -126 -66q-91 -17 -210.5 -36.5t-271.5 -42.5q-16 -2 -26.5 -3.5t-15.5 -1.5q-46 0 -77 40 q-30 37 -30 84t31 84q31 39 78 39q17 0 74 -15q62 -17 163 -28q50 -5 115.5 -8.5t147.5 -7.5q148 -6 148 -38zM1204 124q0 -49 -31 -86q-30 -38 -77 -38q-25 0 -55 3.5t-66 10.5q-29 5 -59 11t-61 12l-282 47q-125 21 -125 66q0 36 289 45q52 2 98 6t88 11q17 3 86 21 q57 15 85 15q46 0 78 -39q32 -38 32 -85zM637 749q0 -31 -48 -128q-28 -56 -66.5 -140t-87.5 -199q-13 -35 -21.5 -61.5t-13.5 -46.5q-6 -24 -23 -73q-26 -50 -88 -50q-55 0 -96 34q-45 36 -45 89q0 30 35 80q78 108 159 216.5t167 220.5q63 82 101 82q27 0 27 -24z" />
<glyph unicode="[" horiz-adv-x="899" d="M749 1404q0 -40 -30 -68q-5 -4 -21 -15t-45 -29q-107 -68 -196 -179l-167 -210q-77 -95 -117 -95q-20 0 -20 27q0 37 131 287q100 193 138 249q109 169 199 169q47 0 88 -44q40 -43 40 -92zM742 147q0 -52 -37 -96q-38 -44 -88 -44q-20 0 -38 7q-79 27 -205 260 q-26 51 -66.5 120.5t-95.5 160.5q-62 83 -62 108q0 30 24 30q66 0 236 -185q58 -64 115.5 -127.5t115.5 -126.5q101 -38 101 -107z" />
<glyph unicode="\" horiz-adv-x="1355" d="M659 855q0 -47 -28 -47q-25 0 -98 115q-140 219 -312 383q-72 69 -72 115q0 49 43 86q43 39 92 39q66 0 131 -116q64 -113 144 -289q100 -221 100 -286zM1201 174q0 -52 -44 -88t-96 -36q-63 0 -91 51q-5 11 -21 73q-20 76 -63 178q-17 40 -49 107t-78 162 q-48 97 -48 128q0 24 28 24q36 0 100 -82q39 -51 119.5 -159.5t205.5 -277.5q37 -49 37 -80z" />
<glyph unicode="]" horiz-adv-x="909" d="M759 1003q0 -54 -38 -92t-92 -38q-33 0 -59 17q-31 20 -107 162q-75 137 -137 238.5t-114 169.5q-62 80 -62 108q0 29 24 29q63 0 284 -221q85 -86 151.5 -158.5t115.5 -133.5q34 -41 34 -81zM725 711q0 -24 -66 -124q-45 -68 -99.5 -187.5t-121.5 -293.5q-5 -12 -13 -29 t-19 -39q-27 -38 -78 -38q-58 0 -98 37t-40 93q0 36 48 89q30 33 73.5 89.5t100.5 137.5q204 289 285 289q28 0 28 -24z" />
<glyph unicode="^" horiz-adv-x="1426" d="M1277 1277q0 -21 -7.5 -39t-21 -32t-31.5 -22t-39 -8q-25 0 -65 36q-23 20 -65.5 52t-104.5 77q-112 79 -165 132.5t-53 83.5q0 21 18 21q22 0 94 -48q111 -74 360 -168q18 -6 51 -24q29 -20 29 -61zM693 1502q0 -25 -14 -48q-10 -16 -139 -90q-41 -23 -81 -45.5 t-80 -45.5q-37 -23 -68 -43.5t-57 -40.5q-65 -49 -82 -49q-22 0 -22 18q0 51 167 216q123 123 218 198q32 25 62 25q19 0 36.5 -7.5t31 -20.5t21 -30.5t7.5 -36.5z" />
<glyph unicode="_" d="M847 -293q0 -42 -33 -73q-31 -31 -75 -31q-4 0 -14.5 1.5t-27.5 3.5q-70 9 -175 24t-246 35q-126 22 -126 67q0 31 147 37q95 2 284 12q48 5 82 12q65 16 78 16q45 0 75.5 -29.5t30.5 -74.5z" />
<glyph unicode="`" horiz-adv-x="1031" d="M881 1692q0 -34 -69 -34q-55 0 -313 42q-257 43 -282 57q-67 40 -67 111q0 48 36 89q37 40 86 40q27 0 94 -46q98 -67 387 -179q128 -50 128 -80z" />
<glyph unicode="a" horiz-adv-x="1003" d="M888 831q0 -32 -20 -32q-50 0 -144 159q-29 52 -58.5 104t-58.5 105q-12 19 -39 57q-24 19 -47 41q-24 24 -24 57q0 47 37 81q37 36 84 36q94 0 158 -211q20 -76 39.5 -151t39.5 -151q33 -89 33 -95zM457 1315q0 -25 -24 -73q-17 -32 -42 -90t-60 -143 q-62 -150 -108 -230q-49 -88 -82 -88q-25 0 -25 34q0 16 32 106q49 133 88 469q1 22 12 64q20 56 87 56q47 0 85 -30q37 -28 37 -75zM1048 118q0 -118 -109 -118q-110 0 -110 109q0 10 1 25t3 35t3.5 34.5t1.5 24.5q0 80 -29 201q-13 51 -25 100t-25 98q-12 52 -12 91 q0 53 26 53q27 0 74 -102q25 -54 49.5 -107t50.5 -107q58 -126 83 -220q18 -68 18 -117zM803 324q0 -80 -78 -80q-31 0 -84 25q-45 20 -111.5 50t-154.5 72q-89 47 -89 84q0 22 30 22q43 0 121 -22q58 -17 88.5 -25.5t34.5 -9.5q17 -4 44 -9t63 -10q67 -4 94 -18 q42 -23 42 -79zM288 655q0 -72 -45 -301q-47 -237 -73 -288q-36 -66 -103 -66q-21 0 -40.5 8t-34.5 22t-24 33t-9 40q0 39 65 164q30 56 74 148.5t104 223.5q33 72 55 72q31 0 31 -56z" />
<glyph unicode="b" horiz-adv-x="1182" d="M983 1176q0 -36 -33 -61q-34 -26 -69 -26q-48 0 -130 60q-52 37 -136 78q-50 25 -83.5 42.5t-51.5 28.5q-68 44 -68 92q0 28 19 28q17 0 130 -30q16 -4 39 -9t55 -13q328 -78 328 -190zM1138 1001q0 -57 -50 -90q-30 -22 -309 -97q-276 -75 -320 -75q-38 0 -38 26 q0 33 105 81q53 25 105 49t106 49q120 61 197 123q64 52 91 52q46 0 79 -37q34 -35 34 -81zM362 1342q0 -20 -21 -80q-61 -180 -78 -437q-8 -134 -33 -134q-45 0 -60 112q-36 250 -36 468q0 167 111 167q41 0 77 -27q40 -28 40 -69zM1046 528q0 -27 -8.5 -50.5t-24.5 -40.5 t-38 -27t-49 -10q-102 0 -339 113q-255 121 -255 210q0 22 21 22q13 0 116 -50q66 -31 179 -54q120 -24 265 -33q16 -1 38.5 -4.5t51.5 -8.5q43 -15 43 -67zM1105 314q0 -22 -232 -149q-108 -60 -165 -99l-38 -30t-39 -30q-55 -43 -77 -47q-5 -1 -9.5 -1.5t-9.5 -0.5 q-44 0 -79 35q-33 34 -33 81q0 60 52 87q14 8 75.5 29.5t170.5 56.5q84 27 147 47.5t108 34.5q59 17 86 17q43 0 43 -31zM364 98q0 -22 -9 -40t-24.5 -30.5t-35.5 -19.5t-42 -7q-43 0 -79 27q-35 29 -35 70q0 44 13 108q5 27 11 54t11 54l42 254q18 113 60 113q28 0 33 -134 q2 -49 7 -122t15 -171q1 -7 6 -27l13 -52q14 -53 14 -77z" />
<glyph unicode="c" horiz-adv-x="1229" d="M1008 1180q0 -45 -33 -79t-76 -34q-31 0 -176 92l-262 165q-82 52 -82 86q0 24 31 24q27 0 107 -30q91 -35 281 -96q26 -3 64 -10.5t89 -18.5q57 -23 57 -99zM362 1342q0 -19 -21 -80q-60 -183 -78 -437q-8 -134 -33 -134q-45 0 -60 112q-36 250 -36 470q0 165 111 165 q41 0 77 -27q40 -28 40 -69zM1092 257q0 -64 -59 -99q-13 -7 -76.5 -20t-178.5 -32t-185.5 -28.5t-96.5 -9.5q-61 0 -61 30q0 25 114 72l90 36t90 35q51 22 93 45t77 46q61 42 84 42q45 0 76 -37q33 -36 33 -80zM364 98q0 -22 -9 -40t-24.5 -30.5t-35.5 -19.5t-42 -7 q-43 0 -79 27q-35 29 -35 70q0 44 13 108q5 27 11 54t11 54l42 254q18 113 60 113q28 0 33 -134q2 -49 7 -122t15 -171q1 -7 6 -27l13 -52q14 -53 14 -77z" />
<glyph unicode="d" horiz-adv-x="1229" d="M1008 1180q0 -45 -33 -79t-76 -34q-31 0 -176 92l-262 165q-82 52 -82 86q0 24 31 24q27 0 107 -30q91 -35 281 -96q26 -3 64 -10.5t89 -18.5q57 -23 57 -99zM1079 493q0 -42 -35 -71q-31 -25 -77 -25q-41 0 -76 26q-36 28 -36 70q0 8 8.5 61.5t25.5 154.5q7 43 17 106 t24 148q19 114 61 114q29 0 34 -134q1 -98 21 -294q1 -6 6 -25.5t14 -52.5q13 -46 13 -78zM362 1342q0 -19 -21 -80q-60 -183 -78 -437q-8 -134 -33 -134q-45 0 -60 112q-36 250 -36 470q0 165 111 165q41 0 77 -27q40 -28 40 -69zM1092 257q0 -64 -59 -99q-13 -7 -76.5 -20 t-178.5 -32t-185.5 -28.5t-96.5 -9.5q-61 0 -61 30q0 25 114 72l90 36t90 35q51 22 93 45t77 46q61 42 84 42q45 0 76 -37q33 -36 33 -80zM364 98q0 -22 -9 -40t-24.5 -30.5t-35.5 -19.5t-42 -7q-43 0 -79 27q-35 29 -35 70q0 44 13 108q5 27 11 54t11 54l42 254 q18 113 60 113q28 0 33 -134q2 -49 7 -122t15 -171q1 -7 6 -27l13 -52q14 -53 14 -77z" />
<glyph unicode="e" horiz-adv-x="1184" d="M1094 1334q0 -43 -28 -77q-29 -35 -69 -35q-45 0 -109 13q-26 5 -53 10.5t-54 10.5l-253 42q-114 19 -114 59q0 30 275 41q144 6 239 32q58 15 74 15q40 0 66 -35t26 -76zM925 749q0 -42 -27 -68t-69 -26q-5 0 -14.5 1t-23.5 3q-64 8 -158 21.5t-221 32.5 q-115 18 -115 60q0 28 134 34q42 1 83 1.5t83 1.5q99 3 164 19q61 14 66 14q42 0 70 -26t28 -68zM362 1342q0 -5 -32 -116q-25 -85 -42 -185t-25 -216q-9 -134 -33 -134q-45 0 -60 112q-36 249 -36 470q0 165 111 165q41 0 77 -27q40 -28 40 -69zM1081 132q0 -42 -29 -77 t-69 -35q-10 0 -218 35q-43 7 -106 17t-148 24q-111 18 -111 58q0 23 116 34l144 6q162 7 255 33q52 15 66 15q43 0 71 -34q29 -35 29 -76zM364 98q0 -22 -9 -40t-24.5 -30.5t-35.5 -19.5t-42 -7q-43 0 -79 27q-35 29 -35 70q0 44 13 108q5 27 11 54t11 54l42 254 q18 113 60 113q27 0 33 -134q4 -82 6.5 -130t3.5 -62q9 -110 30 -189q15 -56 15 -68z" />
<glyph unicode="f" horiz-adv-x="1140" d="M1094 1334q0 -43 -28 -77q-29 -35 -69 -35q-45 0 -109 13q-26 5 -53 10.5t-54 10.5l-253 42q-114 19 -114 59q0 30 275 41q144 6 239 32q58 15 74 15q40 0 66 -35t26 -76zM925 749q0 -42 -27 -68t-69 -26q-5 0 -14.5 1t-23.5 3q-64 8 -158 21.5t-221 32.5 q-115 18 -115 60q0 28 134 34q42 1 83 1.5t83 1.5q99 3 164 19q61 14 66 14q42 0 70 -26t28 -68zM362 1342q0 -5 -32 -118q-25 -87 -42 -186t-25 -213q-9 -134 -33 -134q-45 0 -60 112q-36 249 -36 470q0 165 111 165q41 0 77 -27q40 -28 40 -69zM364 98q0 -22 -9 -40 t-24.5 -30.5t-35.5 -19.5t-42 -7q-43 0 -79 27q-35 29 -35 70q0 44 13 108q5 27 11 54t11 54l42 254q18 113 60 113q27 0 33 -134q4 -82 6.5 -130t3.5 -62q9 -110 30 -189q15 -56 15 -68z" />
<glyph unicode="g" horiz-adv-x="1197" d="M1056 1311q0 -43 -29 -80q-29 -36 -72 -36q-68 0 -230 52q-60 20 -118 40.5t-117 40.5q-11 2 -26 7t-35 13q-44 20 -44 47q0 16 29 25q25 9 42 6q123 -18 332 -18h41t30 1q8 1 20.5 2t30.5 3q16 2 28.5 3t22.5 1q21 0 38.5 -9t30 -23.5t19.5 -34t7 -40.5zM1003 877 q0 -41 -115 -60q-100 -16 -180 -24t-142 -8q-162 0 -162 112q0 92 81 92q32 0 125 -26q72 -20 136 -33.5t123 -18.5q134 -14 134 -34zM1016 693q0 -15 -21 -58q-14 -30 -21 -45.5t-8 -16.5q-10 -26 -16 -64q-3 -29 -6 -59t-6 -59q-12 -96 -31 -96q-36 0 -36 67q0 57 -22 163 q-22 107 -22 164q0 96 98 96q91 0 91 -92zM362 1342q0 -19 -21 -80q-60 -183 -78 -437q-8 -134 -33 -134q-45 0 -60 112q-36 252 -36 470q0 165 111 165q41 0 77 -27q40 -28 40 -69zM1063 168q0 -92 -139 -120q-40 -8 -85 -16t-96 -16q-111 -17 -181 -26t-99 -9 q-59 0 -59 27t115 72q78 30 122.5 48t56.5 23q51 22 93.5 45t77.5 46q61 42 84 42q43 0 76 -37q34 -35 34 -79zM364 98q0 -22 -9 -40t-24.5 -30.5t-35.5 -19.5t-42 -7q-43 0 -79 27q-35 29 -35 70q0 44 13 108q5 27 11 54t11 54l42 254q18 113 60 113q28 0 33 -134 q2 -49 7 -122t15 -171q1 -7 6 -27l13 -52q14 -53 14 -77z" />
<glyph unicode="h" horiz-adv-x="1296" d="M1161 1338q0 -15 -14 -65q-11 -40 -21.5 -136t-18.5 -249q-8 -131 -34 -131q-38 0 -59 114q-23 134 -41 240.5t-30 190.5q-2 13 -3 22.5t-1 15.5q0 42 36 71q33 27 76 27q45 0 77.5 -27.5t32.5 -72.5zM1159 96q0 -38 -38 -67q-37 -28 -78 -28q-111 0 -111 165 q0 233 36 469q18 112 61 112q23 0 34 -134q9 -126 28.5 -234.5t48.5 -202.5q19 -57 19 -80zM925 701q0 -43 -33 -79q-32 -35 -75 -35q-71 0 -428 164q-94 43 -94 80q0 21 40 21q15 0 98 -15q151 -29 390 -29q102 0 102 -107zM362 1342q0 -17 -21 -80q-60 -188 -78 -437 q-8 -134 -33 -134q-45 0 -60 112q-36 250 -36 470q0 165 111 165q41 0 77 -27q40 -28 40 -69zM364 98q0 -22 -9 -40t-24.5 -30.5t-35.5 -19.5t-42 -7q-43 0 -79 27q-35 29 -35 70q0 6 6 42.5t17 104.5l54 323q18 113 60 113q25 0 33 -134q5 -88 7 -136t3 -56q9 -110 30 -189 q15 -56 15 -68z" />
<glyph unicode="i" horiz-adv-x="497" d="M362 1342q0 -16 -21 -80q-58 -184 -78 -437q-9 -134 -33 -134q-45 0 -60 112q-36 249 -36 468q0 167 111 167q41 0 77 -27q40 -28 40 -69zM364 98q0 -22 -9 -40t-24.5 -30.5t-35.5 -19.5t-42 -7q-43 0 -79 27q-35 29 -35 70q0 4 6 42t19 110q8 54 21 133t31 185 q20 113 60 113q25 0 33 -134q4 -84 6.5 -131.5t3.5 -60.5q10 -110 30 -189q15 -56 15 -68z" />
<glyph unicode="j" horiz-adv-x="1241" d="M1105 1332q0 -11 -4.5 -45t-12.5 -92q-6 -46 -15.5 -148.5t-22.5 -263.5q-6 -88 -36 -88q-19 0 -35 31q-23 42 -60 295q-36 240 -36 313q0 47 37 77q35 29 82 29q103 0 103 -108zM1100 639q0 -20 -59 -109q-45 -66 -94 -173.5t-106 -260.5q-14 -37 -31 -60 q-26 -36 -70 -36q-48 0 -85 34q-36 34 -36 82q0 34 42 82q25 29 56 68.5t69 90.5q44 60 74.5 100t47.5 62q115 142 167 142q25 0 25 -22zM577 126q0 -48 -34 -83q-35 -35 -80 -35q-32 0 -59 18q-47 32 -136 182q-29 53 -59 105t-59 105q-15 28 -51 81q-55 73 -55 98 q0 26 22 26q80 0 338 -309q27 -33 84 -87q10 -5 24.5 -12.5t34.5 -18.5q30 -23 30 -70z" />
<glyph unicode="k" horiz-adv-x="1241" d="M945 1248q0 -42 -42 -82q-13 -13 -45.5 -41.5t-86.5 -74.5q-45 -37 -110.5 -92.5t-155.5 -130.5q-74 -62 -97 -62q-27 0 -27 22q0 41 61 112q26 29 64 73t89 103q88 104 128 193q9 24 39 70q25 28 64 28q46 0 82 -36q37 -36 37 -82zM362 1342q0 -19 -21 -80 q-60 -185 -78 -437q-8 -134 -33 -134q-45 0 -60 112q-36 250 -36 468q0 167 111 167q41 0 77 -27q40 -28 40 -69zM1105 181q0 -50 -29 -87q-32 -39 -82 -39q-37 0 -104 35q-183 97 -337 337q-11 20 -30.5 50t-47.5 68q-23 22 -42 45q-27 31 -27 52q0 19 21 19q83 0 262 -174 q194 -188 245 -205q27 -7 54 -13t53 -13q64 -22 64 -75zM364 98q0 -22 -9 -40t-24.5 -30.5t-35.5 -19.5t-42 -7q-43 0 -79 27q-35 29 -35 70q0 44 13 108q5 27 11 54t11 54l42 254q18 113 60 113q28 0 33 -134q2 -49 7 -122t15 -171q1 -7 6 -27l13 -52q14 -53 14 -77z" />
<glyph unicode="l" horiz-adv-x="1124" d="M362 1342q0 -5 -32 -118q-25 -87 -42 -186t-25 -213q-9 -134 -33 -134q-45 0 -60 112q-36 249 -36 470q0 165 111 165q41 0 77 -27q40 -28 40 -69zM1081 132q0 -42 -29 -77t-69 -35q-10 0 -218 35q-43 7 -106 17t-148 24q-111 18 -111 58q0 23 116 34l144 6q162 7 255 33 q52 15 66 15q43 0 71 -34q29 -35 29 -76zM364 98q0 -22 -9 -40t-24.5 -30.5t-35.5 -19.5t-42 -7q-43 0 -79 27q-35 29 -35 70q0 44 13 108q5 27 11 54t11 54l42 254q18 113 60 113q27 0 33 -134q4 -82 6.5 -130t3.5 -62q9 -110 30 -189q15 -56 15 -68z" />
<glyph unicode="m" horiz-adv-x="1889" d="M1683 749q0 -28 -21 -28q-41 0 -89 81q-21 36 -43.5 81.5t-45.5 102.5q-20 48 -39 95t-39 95l-20 42l-20 42q-27 58 -27 83q0 44 40 75q37 29 82 29q62 0 89 -55q7 -18 12 -68q29 -300 90 -469q31 -84 31 -106zM1315 1324q0 -28 -23 -51q-11 -10 -21.5 -19t-21.5 -19 q-20 -20 -60 -103q-159 -333 -223 -333q-25 0 -25 34q0 8 29 93q5 13 10 31.5t10 44.5q11 54 23 107.5t24 107.5q37 146 82 193q35 35 78 35q47 0 82 -36q36 -36 36 -85zM1843 101q0 -42 -32 -72q-32 -29 -76 -29q-71 0 -109 74q-24 46 -53 279q-13 105 -19 178.5t-6 118.5 q0 75 36 75q21 0 64 -106q13 -32 25 -65t24 -65q14 -38 37 -94t54 -132q8 -16 18 -40.5t24 -57.5q13 -39 13 -64zM917 749q0 -28 -25 -28q-41 0 -87.5 82t-107.5 230q-36 88 -61 147t-39 88q-26 52 -26 70q0 45 37 76q38 32 81 32q92 0 106 -122q32 -312 90 -469 q32 -88 32 -106zM547 1324q0 -26 -23 -51l-45 -42q-20 -19 -58 -99q-155 -333 -221 -333q-28 0 -28 34q0 10 30 93q5 16 21 88q11 53 23 105t23 104q36 140 80 187q35 35 78 35q49 0 84 -36q36 -36 36 -85zM1054 114q0 -48 -29.5 -77t-77.5 -29q-120 0 -120 177q0 58 10 151 t30 223q16 102 42 102q25 0 42 -84q10 -56 78 -318q25 -97 25 -145zM324 727q0 -81 -36 -238q-36 -156 -36 -237q0 -11 1.5 -28t3.5 -39q6 -44 6 -65q0 -49 -29.5 -81t-78.5 -32q-51 0 -83 38q-28 34 -28 89q0 47 18 119q22 80 165 428q43 106 68 106q29 0 29 -60z" />
<glyph unicode="n" horiz-adv-x="1296" d="M1161 1338q0 -14 -14 -65q-13 -48 -23 -143.5t-17 -241.5q-8 -131 -34 -131q-38 0 -59 114q-23 132 -41 239t-30 192q-2 13 -3 22.5t-1 15.5q0 42 34 70t77 28q22 0 42.5 -7t35.5 -20.5t24 -32t9 -40.5zM871 755q0 -47 -35 -82q-34 -34 -81 -34q-32 0 -60 18 q-34 23 -147 208q-55 90 -87.5 148t-42.5 84q-8 27 -8 41q0 32 18 32q24 0 104 -84q51 -56 147 -128q60 -46 97.5 -76.5t54.5 -46.5q40 -36 40 -80zM1159 96q0 -38 -38 -67q-37 -28 -78 -28q-111 0 -111 165q0 233 36 469q18 112 61 112q23 0 34 -134q9 -126 28.5 -234.5 t48.5 -202.5q19 -57 19 -80zM362 1342q0 -5 -32 -118q-25 -87 -42 -186t-25 -213q-9 -134 -33 -134q-45 0 -60 112q-36 249 -36 470q0 165 111 165q41 0 77 -27q40 -28 40 -69zM364 98q0 -22 -9 -40t-24.5 -30.5t-35.5 -19.5t-42 -7q-43 0 -79 27q-35 29 -35 70q0 44 13 108 q5 27 11 54t11 54l42 254q18 113 60 113q27 0 33 -134q4 -82 6.5 -130t3.5 -62q9 -110 30 -189q15 -56 15 -68z" />
<glyph unicode="o" horiz-adv-x="1266" d="M1176 903q0 -46 -35 -83q-35 -35 -81 -35q-34 0 -57 16q-17 9 -108 168q-28 49 -55.5 98t-56.5 98q-26 42 -51.5 79.5t-48.5 70.5q-56 76 -56 95q0 28 23 28q60 0 257 -198q74 -75 133 -141t105 -123q31 -38 31 -73zM629 1264q0 -46 -86 -102q-89 -55 -177 -161 q-31 -39 -61.5 -78t-61.5 -77q-99 -119 -133 -119q-18 0 -18 24q0 34 48 129l36 64t35 64q46 88 76.5 144.5t47.5 81.5q99 152 178 152q44 0 80 -39t36 -83zM1145 639q0 -18 -59 -109q-35 -55 -84.5 -163t-115.5 -271q-14 -36 -31 -60q-26 -36 -72 -36q-49 0 -85 33 q-35 35 -35 83q0 32 44 82q58 63 156 204q181 259 258 259q24 0 24 -22zM621 126q0 -49 -34 -83q-33 -35 -81 -35q-31 0 -58 18q-49 33 -136 181q-29 53 -57.5 105t-57.5 104q-8 14 -21 35t-30 48q-56 76 -56 98q0 26 22 26q75 0 338 -309q16 -19 36.5 -40.5t45.5 -46.5 q11 -5 26 -12.5t35 -18.5q28 -22 28 -70z" />
<glyph unicode="p" horiz-adv-x="1124" d="M1018 1065q0 -36 -33 -61q-29 -23 -67 -23q-76 0 -185 95l-78 76l-78 76l-96 75q-69 55 -69 87q0 28 19 28q81 0 210 -66q51 -26 101 -52t101 -52q175 -72 175 -183zM1081 799q0 -57 -48 -90q-16 -11 -92.5 -35.5t-215.5 -62.5q-274 -76 -321 -76q-40 0 -40 29 q0 33 209 128q56 26 95 44.5t62 31.5q85 45 147 96q61 51 89 51q46 0 81 -35q34 -34 34 -81zM362 1342q0 -20 -21 -80q-61 -180 -78 -437q-8 -134 -33 -134q-45 0 -60 112q-36 250 -36 468q0 167 111 167q41 0 77 -27q40 -28 40 -69zM364 98q0 -22 -9 -40t-24.5 -30.5 t-35.5 -19.5t-42 -7q-43 0 -79 27q-35 29 -35 70q0 44 13 108q5 27 11 54t11 54l42 254q18 113 60 113q28 0 33 -134q2 -49 7 -122t15 -171q1 -7 6 -27l13 -52q14 -53 14 -77z" />
<glyph unicode="q" horiz-adv-x="1266" d="M1176 903q0 -46 -35 -83q-35 -35 -81 -35q-31 0 -56 15q-26 17 -95 147q-128 240 -226 368q-56 73 -56 95q0 28 23 28q59 0 255 -199q245 -249 264 -301q7 -17 7 -35zM629 1264q0 -46 -86 -102q-89 -55 -177 -161q-31 -39 -61.5 -78t-61.5 -77q-99 -119 -133 -119 q-18 0 -18 24q0 34 48 129l36 64t35 64q46 88 76.5 144.5t47.5 81.5q99 152 178 152q44 0 80 -39t36 -83zM1266 -11q0 -46 -33 -83q-32 -38 -78 -38q-72 0 -148 112q-12 17 -36.5 60t-61.5 112q-35 -87 -42 -99q-32 -53 -85 -53q-48 0 -83 34q-36 34 -36 82q0 26 63 106 q21 26 42 53t42 53q-77 95 -77 125q0 27 21 27q35 0 115 -70q176 251 252 251q24 0 24 -22q0 -15 -51 -100q-16 -26 -32 -52.5t-32 -53.5q-15 -29 -29.5 -59.5t-28.5 -62.5q172 -211 204 -227q11 -5 26 -13t35 -19q29 -23 29 -63zM621 126q0 -49 -34 -83q-33 -35 -81 -35 q-31 0 -58 18q-49 33 -136 181q-29 53 -57.5 105t-57.5 104q-8 14 -21 35t-30 48q-56 76 -56 98q0 26 22 26q77 0 338 -309q16 -20 36.5 -41.5t45.5 -45.5q11 -5 26 -12.5t35 -18.5q28 -22 28 -70z" />
<glyph unicode="r" horiz-adv-x="1151" d="M983 1176q0 -36 -33 -61q-34 -26 -69 -26q-48 0 -130 60q-52 37 -136 78q-50 25 -83.5 42.5t-51.5 28.5q-68 44 -68 92q0 28 19 28q17 0 130 -30q16 -4 39 -9t55 -13q328 -78 328 -190zM1073 957q0 -60 -48 -90q-34 -21 -310 -98q-273 -76 -319 -76q-40 0 -40 28 q0 35 105 82q53 23 105 47t106 49q60 29 109.5 59.5t89.5 62.5q64 52 90 52q46 0 79 -35t33 -81zM362 1342q0 -19 -21 -80q-60 -185 -78 -437q-8 -134 -33 -134q-45 0 -60 112q-36 250 -36 468q0 167 111 167q41 0 77 -27q40 -28 40 -69zM1105 181q0 -50 -29 -87 q-32 -39 -82 -39q-37 0 -104 35q-183 97 -337 337q-11 20 -30.5 50t-47.5 68q-23 22 -42 45q-27 31 -27 52q0 19 21 19q83 0 262 -174q194 -188 245 -205q27 -7 54 -13t53 -13q64 -22 64 -75zM364 98q0 -22 -9 -40t-24.5 -30.5t-35.5 -19.5t-42 -7q-43 0 -79 27 q-35 29 -35 70q0 44 13 108q5 27 11 54t11 54l42 254q18 113 60 113q28 0 33 -134q2 -49 7 -122t15 -171q1 -7 6 -27l13 -52q14 -53 14 -77z" />
<glyph unicode="s" horiz-adv-x="1250" d="M1094 1334q0 -43 -28 -77q-29 -35 -69 -35q-45 0 -109 13q-26 5 -53 10.5t-54 10.5l-253 42q-114 19 -114 59q0 32 267 41q74 2 135 10t112 22q58 15 74 15q40 0 66 -35t26 -76zM925 749q0 -42 -27 -68t-69 -26q-5 0 -14.5 1t-23.5 3q-250 33 -379 54q-115 18 -115 60 q0 29 134 34q86 -2 257 9q8 1 25 5t45 11q46 11 69 11q42 0 70 -26t28 -68zM1117 98q0 -43 -35 -70t-78 -27q-41 0 -76 26q-36 28 -36 71q0 14 15.5 69t24.5 147q10 97 15 232q4 135 34 135q40 0 60 -113q13 -73 31 -180.5t41 -253.5q2 -14 3 -22.5t1 -13.5zM362 1342 q0 -19 -21 -80q-60 -183 -78 -437q-8 -134 -33 -134q-45 0 -60 112q-36 250 -36 470q0 165 111 165q41 0 77 -27q40 -28 40 -69zM857 154q0 -39 -112 -58q-49 -9 -157 -27t-277 -45q-16 -2 -25 -3t-12 -1q-41 0 -70 35q-28 35 -28 77q0 41 29 76q28 34 71 34q14 0 65 -15 q52 -14 149 -24t235 -15q132 -5 132 -34z" />
<glyph unicode="t" horiz-adv-x="968" d="M925 1310q0 -43 -30 -77q-28 -34 -70 -34q-7 0 -39.5 6t-90.5 19q-18 4 -39.5 7.5t-46.5 6.5q-77 8 -184.5 14.5t-247.5 11.5q-133 4 -133 34q0 77 309 110q90 10 185.5 15t198.5 5q188 0 188 -118zM593 1122q0 -51 -18 -136q-24 -108 -27 -136q-3 -31 -6 -61t-5 -61 q-12 -99 -32 -99q-50 0 -78 114q-57 235 -57 357q0 41 9 61q31 58 103 58q45 0 76 -25q35 -29 35 -72zM591 94q0 -38 -38 -67q-37 -28 -78 -28q-109 0 -109 165q0 100 36 343q16 112 57 112q24 0 34 -133q10 -113 78 -312q20 -58 20 -80z" />
<glyph unicode="u" horiz-adv-x="1330" d="M1195 1332q0 -11 -4.5 -45t-12.5 -92q-6 -43 -15.5 -145t-22.5 -267q-7 -88 -35 -88q-41 0 -62 122q-14 81 -27.5 163t-24.5 167q-10 67 -14.5 113.5t-4.5 73.5q0 47 37 77q35 29 82 29q104 0 104 -108zM370 1338q0 -19 -27 -82q-22 -54 -35 -141.5t-17 -212.5 q-9 -256 -49 -256q-34 0 -52 119q-9 57 -18 113t-18 113q-10 66 -15 122.5t-5 104.5q0 220 116 220q45 0 81 -27q39 -29 39 -73zM1191 639q0 -21 -61 -109q-43 -64 -93 -171.5t-107 -262.5q-7 -19 -14 -34t-15 -26q-26 -36 -73 -36q-49 0 -84 34q-35 35 -35 82q0 34 42 82 q25 29 56 68.5t69 90.5q45 60 75 100.5t47 61.5q115 142 166 142q27 0 27 -22zM667 126q0 -48 -34 -83q-35 -35 -80 -35q-32 0 -60 18q-46 33 -135 182l-117 210q-17 28 -51 81q-56 76 -56 98q0 26 22 26q80 0 337 -309q28 -33 84 -87q11 -5 25.5 -12.5t34.5 -18.5 q30 -23 30 -70z" />
<glyph unicode="v" horiz-adv-x="1003" d="M1048 1334q0 -40 -69 -164q-26 -48 -70.5 -140.5t-107.5 -230.5q-33 -72 -56 -72q-30 0 -30 56q0 69 45 302q23 121 41.5 192.5t31.5 94.5q37 66 103 66q45 0 78 -30q34 -30 34 -74zM256 717q0 -50 -26 -50q-27 0 -74 101q-25 54 -49.5 107.5t-48.5 107.5 q-56 126 -80 221q-19 69 -19 116q0 119 103 119q112 0 112 -110q0 -9 -1 -22.5t-3 -31.5t-3 -31.5t-1 -23.5q0 -78 53 -307q37 -151 37 -196zM888 713q0 -11 -33 -105q-24 -71 -46 -188t-42 -282q-1 -22 -12 -64q-21 -56 -96 -56q-45 0 -79 31q-35 32 -35 75q0 12 66 164 q28 64 55 127.5t55 128.5q93 201 140 201q27 0 27 -32zM505 118q0 -49 -36 -83q-37 -35 -84 -35q-44 0 -74 32q-46 49 -88 192q-2 5 -15.5 59l-39.5 158q-3 11 -8 29t-12 41q-34 93 -34 97q0 31 22 31q54 0 159 -186q124 -224 140 -239l24 -20t22.5 -21.5t17 -24.5t6.5 -30z " />
<glyph unicode="w" horiz-adv-x="1710" d="M1753 1344q0 -46 -55 -162q-29 -62 -67.5 -157t-86.5 -226q-28 -76 -50 -76q-36 0 -36 76q0 94 24 297q27 228 54 278q39 72 109 72q22 0 41.5 -7.5t34.5 -21t23.5 -32.5t8.5 -41zM965 1334q0 -59 -22 -140q-10 -35 -19.5 -69.5t-19.5 -69.5q-13 -50 -23.5 -96t-19.5 -89 q-16 -85 -42 -85t-42 103q-20 131 -30 224t-10 150q0 176 120 176q48 0 78 -28t30 -76zM1594 697q0 -19 -32 -106q-58 -160 -90 -469q-2 -23 -12 -66q-20 -56 -94 -56q-44 0 -81 30q-36 31 -36 74q0 14 6 32q11 22 26.5 55.5t35.5 78.5q24 64 65 157.5t101 218.5 q46 81 89 81q22 0 22 -30zM1224 122q0 -48 -35 -86q-35 -36 -83 -36q-43 0 -77 36q-45 48 -82 194q-11 54 -23 107.5t-24 108.5q-3 13 -27 93q-23 75 -23 80q0 31 27 31q65 0 221 -336q34 -73 61 -102q11 -10 21 -19.5t21 -18.5q23 -23 23 -52zM234 721q0 -62 -28 -62 q-24 0 -125 242q-122 298 -122 411q0 126 107 126q22 0 41.5 -7.5t34.5 -21t23.5 -32t8.5 -39.5q0 -24 -6 -72q-6 -47 -6 -71q0 -81 36 -237t36 -237zM827 697q0 -16 -32 -106q-62 -165 -90 -469q-1 -22 -14 -66q-26 -56 -90 -56q-48 0 -83 31q-36 31 -36 77q0 19 25 69 q32 81 84 197.5t125 271.5q46 81 87 81q24 0 24 -30zM457 122q0 -49 -36 -86q-35 -36 -84 -36q-44 0 -78 36q-43 46 -81 193q-5 22 -45 216q-2 13 -7 31t-12 43q-32 93 -32 100q0 31 28 31q67 0 222 -336q16 -41 57 -102q11 -10 22.5 -19.5t22.5 -18.5q23 -23 23 -52z" />
<glyph unicode="x" horiz-adv-x="1182" d="M1081 1324q0 -27 -40 -79q-20 -26 -55.5 -78t-87.5 -133q-85 -133 -149 -206q-60 -67 -94 -67q-28 0 -28 24q0 9 14 37q8 18 17.5 35.5t20.5 34.5q43 74 87.5 185t90.5 261q4 11 10 26.5t16 35.5q26 38 80 38q47 0 82 -34q36 -35 36 -80zM581 789q0 -32 -24 -32 q-62 0 -172 167l-138 225q-26 33 -43 52q-14 13 -29 25.5t-29 25.5q-30 31 -30 69q0 44 33 80q33 37 76 37q86 0 147 -115q19 -35 40 -94.5t46 -144.5q46 -158 74 -201q49 -77 49 -94zM1092 118q0 -47 -33 -83q-33 -35 -80 -35q-98 0 -168 196q-20 70 -39 139.5t-38 140.5 q-8 34 -33 94q-44 83 -44 97q0 30 26 30q38 0 100 -78q44 -54 114 -193q34 -66 63 -113.5t54 -76.5q13 -12 27 -25t25.5 -27.5t18.5 -30.5t7 -35zM524 663q0 -19 -49 -110q-35 -67 -75.5 -179t-85.5 -271q-12 -43 -24 -61q-29 -42 -79 -42q-48 0 -85 33q-36 33 -36 81 q0 23 36 76q18 26 51.5 80t82.5 137q82 138 143 211q59 71 92 71q29 0 29 -26z" />
<glyph unicode="y" horiz-adv-x="873" d="M919 1324q0 -27 -40 -79q-20 -26 -55.5 -78t-87.5 -133q-85 -133 -149 -206q-58 -67 -94 -67q-28 0 -28 24q0 9 14 37q8 18 17.5 35.5t20.5 34.5q43 74 87.5 185t90.5 261q4 11 10 26.5t16 35.5q26 38 80 38q47 0 82 -34q36 -35 36 -80zM419 789q0 -32 -23 -32 q-62 0 -172 167q-35 57 -69.5 112.5t-69.5 112.5q-7 9 -18 22t-25 30q-26 24 -39.5 36.5t-15.5 14.5q-28 31 -28 68q0 44 31 81q30 37 74 37q85 0 146 -115q36 -67 85 -239q46 -159 75 -201q49 -77 49 -94zM555 98q0 -43 -35 -72q-31 -25 -76 -25q-42 0 -76 26 q-36 28 -36 71q0 3 3 36q8 78 21.5 194.5t32.5 272.5q16 114 61 114q26 0 34 -132q8 -117 21 -230q15 -108 36 -187q14 -51 14 -68z" />
<glyph unicode="z" horiz-adv-x="1218" d="M1081 1275q0 -35 -67 -99q-162 -159 -281 -345q-66 -104 -87 -104q-27 0 -27 41q0 57 90 258q37 82 68.5 147t59.5 113q58 106 122 106q45 0 83 -37q39 -36 39 -80zM819 1350q0 -41 -112 -60q-72 -13 -179.5 -31t-253.5 -41q-13 -2 -22.5 -3t-15.5 -1q-41 0 -70 35 q-28 34 -28 77q0 42 29 77t71 35q5 0 21 -3.5t44 -10.5q52 -14 148 -23.5t237 -16.5q131 -6 131 -34zM1084 112q0 -43 -28 -77q-29 -35 -69 -35q-6 0 -60.5 8.5t-158.5 25.5l-253 42q-111 19 -111 58q0 34 270 43q145 5 245 31q58 15 66 15q41 0 70 -35t29 -76zM573 673 q0 -24 -43 -114q-17 -33 -41 -82t-56 -115q-25 -57 -43.5 -107.5t-29.5 -98.5q-5 -21 -21 -64q-23 -47 -83 -47q-45 0 -84 33q-38 33 -38 78q0 15 7 33q6 15 147 204l169 228q57 74 90 74q26 0 26 -22z" />
<glyph unicode="{" horiz-adv-x="899" d="M749 1404q0 -40 -30 -68q-5 -4 -21 -15t-45 -29q-107 -68 -196 -179l-167 -210q-77 -95 -117 -95q-20 0 -20 27q0 37 131 287q100 193 138 249q109 169 199 169q47 0 88 -44q40 -43 40 -92zM742 147q0 -52 -37 -96q-38 -44 -88 -44q-20 0 -38 7q-79 27 -205 260 q-26 51 -66.5 120.5t-95.5 160.5q-62 83 -62 108q0 30 24 30q66 0 236 -185q58 -64 115.5 -127.5t115.5 -126.5q101 -38 101 -107z" />
<glyph unicode="|" horiz-adv-x="553" d="M402 1492q0 -15 -23 -90q-65 -214 -85 -485q-11 -150 -38 -150q-46 0 -66 125q-20 136 -30 265t-10 255q0 185 123 185q44 0 85 -29q44 -32 44 -76zM404 110q0 -49 -38 -79q-38 -29 -87 -29t-84 28q-39 31 -39 78q0 22 25 171l59 352q21 126 65 126q30 0 38 -147 q9 -186 12 -215q5 -62 13 -114.5t19 -97.5q17 -66 17 -73z" />
<glyph unicode="}" horiz-adv-x="909" d="M759 1003q0 -54 -38 -92t-92 -38q-33 0 -59 17q-31 20 -107 162q-75 137 -137 238.5t-114 169.5q-62 80 -62 108q0 29 24 29q63 0 284 -221q85 -86 151.5 -158.5t115.5 -133.5q34 -41 34 -81zM725 711q0 -24 -66 -124q-45 -68 -99.5 -187.5t-121.5 -293.5q-5 -12 -13 -29 t-19 -39q-27 -38 -78 -38q-58 0 -98 37t-40 93q0 36 48 89q30 33 73.5 89.5t100.5 137.5q204 289 285 289q28 0 28 -24z" />
<glyph unicode="~" horiz-adv-x="1362" d="M1212 1458q0 -20 -23 -48q-121 -139 -318 -139q-84 0 -184 79q-101 80 -155 80q-157 0 -246 -113q-7 -10 -16.5 -23t-23.5 -30q-23 -23 -46 -23q-50 0 -50 39q0 121 138 223q127 94 253 94q61 0 162 -80q100 -79 187 -79q130 0 204 60q30 24 51 24q67 0 67 -64z" />
<glyph unicode="&#xa1;" horiz-adv-x="599" d="M450 1046q0 -60 -45 -105q-44 -44 -105 -44q-63 0 -106 43q-44 44 -44 106t44 106t106 44q61 0 105 -45q45 -44 45 -105zM450 -153q0 -244 -124 -244q-49 0 -86 27q-42 31 -42 77q0 57 19 140q22 111 27 138q13 111 15 297q1 225 6 297q10 150 78 150q46 0 67 -146 q8 -57 14.5 -146t13.5 -210q12 -227 12 -380z" />
<glyph unicode="&#xa2;" horiz-adv-x="1364" d="M1121 1322q0 -53 -35 -94q-35 -44 -87 -44q-34 0 -118 51q-29 19 -58 37.5t-58 37.5q-6 -71 -12 -144q-14 -114 -36 -114q-47 0 -66 126q-8 61 -14.5 116t-11.5 106l-112 72q-92 59 -92 96q0 24 33 24q38 0 161 -48q-2 42 -3 77t-1 63q0 197 124 197q48 0 86 -27 q42 -30 42 -76q0 -20 -22 -90q-16 -49 -28 -100.5t-22 -107.5q104 -34 192 -46q12 -2 30 -5.5t43 -8.5q65 -23 65 -98zM402 1492q0 -16 -23 -90q-35 -109 -56 -230t-29 -255q-11 -150 -38 -150q-46 0 -66 125q-20 138 -30 267.5t-10 254.5q0 183 123 183q44 0 85 -29 q44 -32 44 -76zM1214 284q0 -71 -67 -108q-31 -19 -356 -68q7 -84 30 -161q16 -51 16 -74q0 -50 -37 -78q-38 -30 -87 -30t-86 30q-38 29 -38 76q0 38 30 211q-48 -6 -70 -6q-65 0 -65 34q0 29 157 92l15 90q10 59 15.5 91t6.5 37q24 97 61 97q30 0 38 -117l2 -72l2 -72 q128 53 218 114q67 45 93 45q52 0 86 -40q36 -41 36 -91zM404 110q0 -49 -38 -79q-38 -29 -87 -29t-84 28q-39 31 -39 78q0 13 6 54t17 111l61 358q21 126 65 126q30 0 38 -147q4 -89 6.5 -142.5t4.5 -72.5q10 -120 33 -212q17 -66 17 -73z" />
<glyph unicode="&#xa5;" horiz-adv-x="1271" d="M1170 1472q0 -34 -44 -90q-24 -32 -63.5 -90t-95.5 -143q-97 -151 -162.5 -227.5t-107.5 -76.5q-30 0 -30 28q0 12 15 42q7 14 17.5 33t25.5 45q99 170 198 493q7 24 14 41.5t14 28.5q26 41 90 41q53 0 90 -37q39 -36 39 -88zM615 877q0 -36 -26 -36q-43 0 -116 82 q-50 54 -106 150q-23 40 -46.5 80t-46.5 80q-19 29 -38.5 54t-39.5 47q-16 14 -31 28.5t-31 29.5q-35 35 -35 74q0 50 37 90q38 41 85 41q90 0 161 -128q44 -81 100 -265q28 -91 47.5 -147t31.5 -76q8 -13 16.5 -25t17.5 -25q20 -32 20 -54zM1084 269q0 -48 -34.5 -75 t-83.5 -27q5 0 -20.5 2.5t-82.5 7.5l-114 11q18 -68 18 -78q0 -49 -37 -79q-38 -29 -87 -29q-26 0 -48.5 8t-39 23t-26 35.5t-9.5 46.5q0 2 2.5 25t7.5 66q-342 28 -342 89q0 40 161 40h194q5 42 11.5 104.5t16.5 147.5q-182 16 -214 21q-169 25 -169 73q0 33 147 38 q43 0 107 0.5t151 1.5q18 75 51 75q28 0 37 -73q69 2 123.5 7t97.5 13q83 16 72 16q23 0 43 -8t35 -22t23.5 -33.5t8.5 -42.5q0 -21 -9 -40t-24 -32.5t-34.5 -21.5t-40.5 -8q2 0 -28 3t-94 10q-26 2 -66 5.5t-97 7.5q5 -67 11.5 -126.5t14.5 -111.5q31 2 77 6.5t107 12.5 q40 8 58.5 12t14.5 4q46 0 78 -29.5t32 -75.5z" />
<glyph unicode="&#xa6;" horiz-adv-x="507" d="M366 1342q0 -16 -21 -80q-28 -91 -47 -199.5t-29 -237.5q-11 -134 -33 -134q-44 0 -60 112q-19 125 -28 241t-9 227q0 167 111 167q40 0 78 -29t38 -67zM368 98q0 -43 -34 -70q-35 -27 -78 -27q-110 0 -110 116q0 2 5.5 35t16.5 98q16 106 51 318q21 113 61 113 q26 0 34 -134q2 -48 5 -95.5t5 -96.5q5 -55 12 -102t17 -87q15 -56 15 -68z" />
<glyph unicode="&#xa8;" horiz-adv-x="1098" d="M949 1847q0 -60 -45 -105q-44 -44 -104 -44q-64 0 -107 43t-43 106t43 106t107 43q60 0 104 -44q45 -44 45 -105zM450 1847q0 -60 -45 -105q-44 -44 -105 -44q-63 0 -106 43q-44 44 -44 106t44 106q43 43 106 43q61 0 105 -44q45 -44 45 -105z" />
<glyph unicode="&#xa9;" horiz-adv-x="1406" d="M1306 1003q0 -52 -38 -92q-38 -38 -90 -38q-33 0 -62 17q-26 17 -106 162q-76 140 -138.5 241t-112.5 167q-62 80 -62 108q0 29 24 29q65 0 286 -221q92 -91 158 -163.5t108 -128.5q33 -44 33 -81zM875 993q0 -48 -46 -48q-11 0 -181 107q-37 22 -37 36q0 10 14 10 q8 0 44 -14q30 -8 75 -20.5t106 -30.5q25 -7 25 -40zM699 1404q0 -39 -32 -68q-5 -5 -21 -16t-43 -28q-108 -68 -195 -179l-168 -210q-77 -95 -118 -95q-21 0 -21 35q0 27 57 137q19 35 38 71t38 71q48 92 82 154t57 95q111 169 198 169q49 0 88 -44q40 -43 40 -92z M606 1060q0 -17 -13 -59q-17 -53 -18 -63q-4 -21 -6.5 -44t-4.5 -49q-5 -56 -15 -56q-40 0 -40 242q0 69 51 69q46 0 46 -40zM1273 711q0 -27 -67 -124q-52 -77 -103 -190q-20 -46 -50 -118.5t-68 -172.5q-5 -12 -13 -29t-19 -39q-27 -38 -78 -38q-58 0 -98 37t-40 93 q0 38 48 89q59 63 174 227q204 289 285 289q29 0 29 -24zM909 608q0 -27 -24 -40q-9 -6 -105 -23q-95 -15 -119 -15q-26 0 -26 11q0 9 49 29.5t145 68.5q28 18 34 18q46 0 46 -49zM606 541q0 -41 -47 -41q-46 0 -46 41q0 26 30 196q9 48 27 48q8 0 11 -54.5t18 -160.5 q7 -25 7 -29zM692 146q0 -52 -37 -95t-87 -43q-37 0 -71 22q-63 40 -173 244q-25 49 -65 119t-97 162q-63 82 -63 108q0 30 25 30q66 0 216 -162q50 -57 98.5 -112.5t97.5 -112.5q23 -24 55 -52q101 -38 101 -108z" />
<glyph unicode="&#xab;" horiz-adv-x="1298" d="M1149 1404q0 -40 -30 -68q-4 -4 -67 -44q-53 -34 -101.5 -78t-93.5 -101l-168 -210q-77 -95 -118 -95q-21 0 -21 26q0 34 56 143q20 36 39 72t39 73q94 183 138 249q111 169 199 169q49 0 88 -44q40 -43 40 -92zM749 1404q0 -40 -30 -68q-5 -4 -21 -15t-45 -29 q-107 -68 -196 -179l-167 -210q-77 -95 -117 -95q-20 0 -20 27q0 37 131 287q100 193 138 249q109 169 199 169q49 0 88 -43q40 -43 40 -93zM1140 139q0 -52 -36 -91q-36 -38 -89 -38q-36 0 -68 20q-63 41 -174 244q-49 100 -162 281q-62 85 -62 108q0 30 24 30 q62 0 215 -163q50 -57 99 -112.5t99 -111.5q25 -25 55 -52q99 -38 99 -115zM742 147q0 -52 -37 -96q-38 -44 -88 -44q-20 0 -38 7q-79 27 -205 260q-26 51 -66.5 120.5t-95.5 160.5q-62 83 -62 108q0 30 24 30q66 0 236 -185q58 -64 115.5 -127.5t115.5 -126.5 q101 -38 101 -107z" />
<glyph unicode="&#xad;" d="M847 833q0 -42 -33 -73q-32 -31 -75 -31q-5 0 -15.5 1t-26.5 3l-175 25t-246 35q-126 19 -126 66q0 30 147 38q48 1 118.5 3.5t165.5 7.5q11 1 33 5t54 12q60 12 78 12q21 0 39.5 -8t32 -22.5t21.5 -33.5t8 -40z" />
<glyph unicode="&#xae;" horiz-adv-x="1406" d="M1306 1003q0 -52 -38 -92q-38 -38 -90 -38q-33 0 -62 17q-26 17 -106 162q-76 140 -138.5 241t-112.5 167q-62 80 -62 108q0 29 24 29q65 0 286 -221q92 -91 158 -163.5t108 -128.5q33 -44 33 -81zM852 981q0 -36 -44 -36q-10 0 -71 36q-16 8 -39.5 21.5t-54.5 30.5 q-30 18 -30 38q0 12 10 12q4 0 54 -14q175 -49 175 -88zM888 888q0 -23 -18 -33q-9 -5 -41 -16t-89 -27q-109 -31 -132 -31q-17 0 -17 10q0 9 26 23q33 15 80 40.5t108 62.5q28 22 38 22q45 0 45 -51zM699 1404q0 -39 -32 -68q-5 -5 -21 -16t-43 -28q-108 -68 -195 -179 l-168 -210q-77 -95 -118 -95q-21 0 -21 35q0 27 57 137q19 35 38 71t38 71q48 92 82 154t57 95q111 169 198 169q49 0 88 -44q40 -43 40 -92zM593 1050q0 -16 -13 -59q-7 -26 -11 -42.5t-5 -22.5q-4 -22 -6.5 -45t-4.5 -46q-5 -56 -14 -56q-19 0 -26 46q-7 45 -10.5 93.5 t-3.5 102.5q0 69 49 69q45 0 45 -40zM903 568q0 -55 -51 -55q-5 0 -37 17q-56 31 -98 82q-19 26 -38 52.5t-38 52.5q-5 6 -12.5 16t-17.5 24q-1 10 10 10q33 0 105 -69q81 -77 105 -87q22 -5 45 -12q27 -11 27 -31zM1273 711q0 -27 -67 -124q-52 -77 -103 -190 q-20 -46 -50 -118.5t-68 -172.5q-5 -12 -13 -29t-19 -39q-27 -38 -78 -38q-58 0 -98 37t-40 93q0 38 48 89q59 63 174 227q204 289 285 289q29 0 29 -24zM593 532q0 -41 -45 -41q-47 0 -47 36q0 10 8 59.5t24 140.5q9 48 24 48q9 0 14 -54q1 -28 4.5 -68t11.5 -94 q6 -26 6 -27zM692 146q0 -52 -37 -95t-87 -43q-37 0 -71 22q-63 40 -173 244q-25 49 -65 119t-97 162q-63 82 -63 108q0 30 25 30q66 0 216 -162q50 -57 98.5 -112.5t97.5 -112.5q23 -24 55 -52q101 -38 101 -108z" />
<glyph unicode="&#xaf;" d="M847 1494q0 -42 -33 -73q-31 -31 -75 -31q-4 0 -14.5 1.5t-27.5 3.5q-70 9 -175 24t-246 35q-126 22 -126 66q0 32 147 37q95 2 284 12q23 2 44 5.5t38 7.5q67 15 78 15q45 0 75.5 -29t30.5 -74z" />
<glyph unicode="&#xb0;" horiz-adv-x="699" d="M549 1398q0 -82 -59 -141q-58 -58 -142 -58q-81 0 -140 59q-58 58 -58 140t58 140q59 59 140 59q84 0 142 -58q59 -59 59 -141zM429 1398q0 34 -23.5 56.5t-56.5 22.5q-15 0 -29.5 -6.5t-26 -17t-18 -25t-6.5 -30.5q0 -33 23.5 -56t56.5 -23q15 0 29.5 6.5t26 17.5 t18 25.5t6.5 29.5z" />
<glyph unicode="&#xb1;" d="M847 835q0 -49 -33.5 -76.5t-84.5 -27.5q-38 0 -156 18q1 -19 17 -77q13 -48 13 -77q0 -23 -8 -43t-22 -35t-33.5 -23.5t-41.5 -8.5q-42 0 -72 32q-30 33 -30 76q0 16 21 178q-75 11 -113 17t-39 6q-115 25 -115 65q0 30 127 37q40 1 79 1.5t79 1.5q37 283 91 283 q39 0 40 -277q24 2 48 6t49 10q34 8 52.5 12t21.5 4q22 0 42 -7.5t35 -21t24 -32.5t9 -41zM847 103q0 -42 -33 -73q-33 -30 -75 -30q-5 0 -15.5 1t-26.5 3q-134 17 -238.5 32t-182.5 28q-126 21 -126 66q0 32 147 38q48 1 118.5 3t165.5 7q20 1 84 17q53 13 81 13 q21 0 39.5 -8.5t32 -22.5t21.5 -33.5t8 -40.5z" />
<glyph unicode="&#xb4;" horiz-adv-x="1031" d="M881 1868q0 -72 -68 -111q-25 -15 -283 -57q-254 -42 -312 -42q-68 0 -68 34q0 29 128 80q91 36 141 55.5t58 23.5q56 25 103 49.5t85 50.5q67 46 94 46q48 0 85 -40t37 -89z" />
<glyph unicode="&#xb6;" horiz-adv-x="2369" d="M2219 1442q0 -28 -138 -38q-86 -5 -171 -6q-156 -7 -208 -12q-59 -5 -110 -11.5t-96 -14.5q1 0 -72 -17q-46 -11 -72 -11q-45 0 -78 39q-32 40 -32 85q0 130 208 130q227 0 424 -21q345 -36 345 -123zM1858 1248q0 -151 -65 -423q-30 -126 -85 -126q-29 0 -38 148 q-6 82 -33 228q-27 148 -27 171q0 47 39 79q35 31 84 31t86 -29q39 -32 39 -79zM1201 1412q0 -124 -10 -253t-30 -267q-20 -125 -67 -125q-28 0 -38 150q-18 273 -86 485q-21 67 -21 90q0 48 44 78q37 27 89 27q119 0 119 -185zM1864 181q0 -181 -124 -181q-49 0 -86 27 q-42 30 -42 76q0 31 34 139q23 72 34.5 109.5t12.5 40.5q20 79 26 147q15 150 38 150q47 0 67 -125q20 -135 30 -230.5t10 -152.5zM892 1544q0 -36 -75 -97q-26 -20 -53 -41t-54 -41q-44 -43 -87 -85.5t-86 -85.5q-121 -107 -205 -107q-42 0 -76 27q-39 28 -39 68 q0 89 92 151q13 10 169 84q94 49 192 99q123 60 201 60q21 0 21 -32zM1195 108q0 -48 -40 -79q-35 -28 -85 -28q-48 0 -85 31q-38 32 -38 78q0 18 16 73q8 33 15.5 74t12.5 91q9 87 15 262q6 147 38 147q43 0 67 -126q25 -132 44.5 -251.5t35.5 -229.5q2 -14 3 -24t1 -18z M947 625q0 -30 -44 -30q-51 0 -357 83q-153 42 -238 69t-104 40q-54 36 -54 99q0 53 37 91q37 39 89 39q30 0 99 -57q46 -38 101 -72t119 -64l234 -108q118 -55 118 -90z" />
<glyph unicode="&#xb7;" horiz-adv-x="599" d="M450 799q0 -62 -45 -105q-44 -44 -105 -44q-63 0 -106 43q-44 44 -44 106q0 61 44 105t106 44q61 0 105 -45q45 -44 45 -104z" />
<glyph unicode="&#xb8;" horiz-adv-x="535" d="M385 -71q0 -36 -96 -181q-94 -145 -123 -145q-16 0 -16 40q0 45 43 141q43 95 43 145q0 31 21.5 51t51.5 20q31 0 53.5 -20t22.5 -51z" />
<glyph unicode="&#xbb;" horiz-adv-x="1308" d="M1159 1003q0 -53 -39 -92q-40 -38 -92 -38q-32 0 -60 17q-26 18 -105 162q-150 274 -252 408q-62 83 -62 108q0 29 24 29q64 0 285 -221q86 -87 152 -159.5t114 -132.5q35 -43 35 -81zM759 1003q0 -54 -38 -92t-92 -38q-33 0 -59 17q-31 20 -107 162q-75 137 -137 238.5 t-114 169.5q-62 80 -62 108q0 29 24 29q63 0 284 -221q85 -86 151.5 -158.5t115.5 -133.5q34 -41 34 -81zM1124 711q0 -22 -66 -124q-46 -69 -100.5 -188.5t-120.5 -292.5q-5 -12 -13 -29t-19 -39q-27 -38 -78 -38q-57 0 -97 37q-41 38 -41 93q0 36 48 89q66 75 173 227 q204 289 286 289q28 0 28 -24zM725 711q0 -24 -66 -124q-45 -68 -99.5 -187.5t-121.5 -293.5q-5 -12 -13 -29t-19 -39q-27 -38 -78 -38q-58 0 -98 37t-40 93q0 36 48 89q30 33 73.5 89.5t100.5 137.5q204 289 285 289q28 0 28 -24z" />
<glyph unicode="&#xbf;" horiz-adv-x="1390" d="M1241 1056q0 -60 -45 -105q-44 -44 -105 -44q-63 0 -106 43q-44 44 -44 106t44 106q43 43 106 43q61 0 105 -44q45 -44 45 -105zM1241 400q0 -121 -12 -161q-26 -92 -112 -92q-46 0 -77.5 29.5t-31.5 75.5l23 89q10 41 21.5 122t24.5 204q15 150 57 150q107 0 107 -417z M999 440q0 -25 -31 -38q-23 -11 -77 -22t-142 -21q-60 -7 -119 -13t-119 -12q-16 -2 -26.5 -3t-15.5 -1q-42 0 -75 30q-32 32 -32 73q0 43 32 73q32 31 77 31q15 0 74 -15q141 -37 305 -45q149 -8 149 -37zM1195 -251q0 -48 -31 -85q-32 -38 -78 -38q-50 0 -121 13 q-29 7 -59 13l-60 12q-95 15 -282 45q-126 21 -126 67q0 36 286 43q166 4 286 39q55 15 74 15q46 0 78 -38q33 -39 33 -86zM398 -287q0 -49 -40 -80q-37 -29 -86 -29q-46 0 -83 29q-39 31 -39 78q0 11 9.5 71t28.5 170q0 1 11.5 70.5t34.5 209.5q21 126 65 126q35 0 38 -148 q1 -55 6.5 -136t15.5 -189q2 -8 7 -30t15 -57q17 -57 17 -85z" />
<glyph unicode="&#xc0;" horiz-adv-x="1115" d="M723 1692q0 -34 -69 -34q-56 0 -312 42q-259 43 -283 57q-64 39 -64 111q0 48 35 89q34 40 84 40q27 0 94 -46q98 -66 387 -179q128 -50 128 -80zM989 923q0 -37 -24 -37q-50 0 -149 156q-32 50 -60.5 101t-54.5 105q-19 38 -36 66.5t-34 45.5q-13 11 -25.5 22t-26.5 22 q-26 26 -26 62q0 51 40 91t92 40q50 0 83 -35q51 -53 99 -213q4 -10 62 -239q3 -14 8.5 -33.5t13.5 -45.5q6 -14 12 -27l12 -26q14 -33 14 -55zM509 1460q0 -25 -30 -91l-45 -90q-30 -72 -60 -143t-60 -143q-104 -225 -156 -225q-30 0 -30 37q0 16 36 118q28 78 52 207.5 t45 313.5q6 48 15 72q24 62 99 62q52 0 93 -33t41 -85zM1164 132q0 -58 -32.5 -95t-89.5 -37q-120 0 -120 117q0 11 1 28.5t3 40.5t3.5 40.5t1.5 29.5q0 90 -32 223q-14 55 -28 109t-28 109q-12 52 -12 99q0 61 28 61q29 0 82 -114l138 -303q85 -201 85 -308zM892 360 q0 -88 -87 -88q-63 0 -388 163q-99 49 -99 93q0 25 33 25q42 0 132 -25q34 -10 67 -19t67 -18q40 -10 71 -15t53 -7q151 -10 151 -109zM320 727q0 -75 -50 -334q-51 -262 -80 -319q-39 -74 -114 -74q-47 0 -85 32q-37 33 -37 81q0 26 18 71q8 20 21 48t33 65q26 47 75 150 t122 264q36 80 63 80q34 0 34 -64z" />
<glyph unicode="&#xc1;" horiz-adv-x="1115" d="M1122 1868q0 -70 -68 -111q-26 -14 -286 -58q-128 -20 -204 -30.5t-104 -10.5q-69 0 -69 34q0 29 128 80q91 36 140.5 55.5t58.5 23.5q115 50 189 100q67 46 94 46q48 0 84 -40q37 -40 37 -89zM989 923q0 -37 -24 -37q-50 0 -149 156q-32 50 -60.5 101t-54.5 105 q-19 38 -36 66.5t-34 45.5q-13 11 -25.5 22t-26.5 22q-26 26 -26 62q0 51 40 91t92 40q50 0 83 -35q51 -53 99 -213q4 -10 62 -239q3 -14 8.5 -33.5t13.5 -45.5q6 -14 12 -27l12 -26q14 -33 14 -55zM509 1460q0 -25 -30 -91l-45 -90q-30 -72 -60 -143t-60 -143 q-104 -225 -156 -225q-30 0 -30 37q0 16 36 118q28 78 52 207.5t45 313.5q6 48 15 72q24 62 99 62q52 0 93 -33t41 -85zM1164 132q0 -58 -32.5 -95t-89.5 -37q-120 0 -120 117q0 11 1 28.5t3 40.5t3.5 40.5t1.5 29.5q0 90 -32 223q-14 55 -28 109t-28 109q-12 52 -12 99 q0 61 28 61q29 0 82 -114l138 -303q85 -201 85 -308zM892 360q0 -88 -87 -88q-63 0 -388 163q-99 49 -99 93q0 25 33 25q42 0 132 -25q34 -10 67 -19t67 -18q40 -10 71 -15t53 -7q151 -10 151 -109zM320 727q0 -75 -50 -334q-51 -262 -80 -319q-39 -74 -114 -74 q-47 0 -85 32q-37 33 -37 81q0 26 18 71q8 20 21 48t33 65q26 47 75 150t122 264q36 80 63 80q34 0 34 -64z" />
<glyph unicode="&#xc2;" horiz-adv-x="1115" d="M1121 1776q0 -40 -29 -71q-29 -30 -69 -30q-24 0 -67 37q-41 37 -169 127q-110 78 -165 135q-52 52 -52 83q0 20 17 20q22 0 94 -48q114 -75 360 -167q9 -4 21.5 -10t29.5 -15q29 -20 29 -61zM537 2001q0 -26 -13 -48q-5 -8 -39.5 -30t-100.5 -59l-80 -46t-81 -46 q-37 -23 -68 -43.5t-57 -40.5q-65 -49 -82 -49q-19 0 -19 19q0 50 164 214q67 67 121 116.5t97 82.5q35 26 63 26q40 0 67.5 -28t27.5 -68zM989 923q0 -37 -24 -37q-50 0 -149 156q-32 50 -60.5 101t-54.5 105q-19 38 -36 66.5t-34 45.5q-13 11 -25.5 22t-26.5 22 q-26 26 -26 62q0 51 40 91t92 40q50 0 83 -35q51 -53 99 -213q4 -10 62 -239q3 -14 8.5 -33.5t13.5 -45.5q6 -14 12 -27l12 -26q14 -33 14 -55zM509 1460q0 -25 -30 -91l-45 -90q-30 -72 -60 -143t-60 -143q-104 -225 -156 -225q-30 0 -30 37q0 16 36 118q28 78 52 207.5 t45 313.5q6 48 15 72q24 62 99 62q52 0 93 -33t41 -85zM1164 132q0 -58 -32.5 -95t-89.5 -37q-120 0 -120 117q0 11 1 28.5t3 40.5t3.5 40.5t1.5 29.5q0 90 -32 223q-14 55 -28 109t-28 109q-12 52 -12 99q0 61 28 61q29 0 82 -114l138 -303q85 -201 85 -308zM892 360 q0 -88 -87 -88q-63 0 -388 163q-99 49 -99 93q0 25 33 25q42 0 132 -25q34 -10 67 -19t67 -18q40 -10 71 -15t53 -7q151 -10 151 -109zM320 727q0 -75 -50 -334q-51 -262 -80 -319q-39 -74 -114 -74q-47 0 -85 32q-37 33 -37 81q0 26 18 71q8 20 21 48t33 65q26 47 75 150 t122 264q36 80 63 80q34 0 34 -64z" />
<glyph unicode="&#xc3;" horiz-adv-x="1115" d="M1088 1898q0 -21 -23 -49q-118 -139 -318 -139q-81 0 -184 80q-101 80 -155 80q-155 0 -246 -115q-7 -8 -16.5 -21t-23.5 -30q-24 -25 -46 -25q-50 0 -50 40q0 122 138 224q127 94 253 94q61 0 162 -80q103 -80 188 -80q106 0 203 61q21 25 53 25q65 0 65 -65zM989 923 q0 -37 -24 -37q-50 0 -149 156q-32 50 -60.5 101t-54.5 105q-19 38 -36 66.5t-34 45.5q-13 11 -25.5 22t-26.5 22q-26 26 -26 62q0 51 40 91t92 40q50 0 83 -35q51 -53 99 -213q4 -10 62 -239q3 -14 8.5 -33.5t13.5 -45.5q6 -14 12 -27l12 -26q14 -33 14 -55zM509 1460 q0 -25 -30 -91l-45 -90q-30 -72 -60 -143t-60 -143q-104 -225 -156 -225q-30 0 -30 37q0 16 36 118q28 78 52 207.5t45 313.5q6 48 15 72q24 62 99 62q52 0 93 -33t41 -85zM1164 132q0 -58 -32.5 -95t-89.5 -37q-120 0 -120 117q0 11 1 28.5t3 40.5t3.5 40.5t1.5 29.5 q0 90 -32 223q-14 55 -28 109t-28 109q-12 52 -12 99q0 61 28 61q29 0 82 -114l138 -303q85 -201 85 -308zM892 360q0 -88 -87 -88q-63 0 -388 163q-99 49 -99 93q0 25 33 25q42 0 132 -25q34 -10 67 -19t67 -18q40 -10 71 -15t53 -7q151 -10 151 -109zM320 727 q0 -75 -50 -334q-51 -262 -80 -319q-39 -74 -114 -74q-47 0 -85 32q-37 33 -37 81q0 26 18 71q8 20 21 48t33 65q26 47 75 150t122 264q36 80 63 80q34 0 34 -64z" />
<glyph unicode="&#xc4;" horiz-adv-x="1115" d="M957 1847q0 -60 -45 -105q-44 -44 -105 -44q-63 0 -106 43q-44 44 -44 106t44 106q43 43 106 43q61 0 105 -44q45 -44 45 -105zM457 1847q0 -59 -44 -105q-44 -44 -105 -44q-63 0 -106 43q-44 44 -44 106t44 106q43 43 106 43q61 0 105 -44t44 -105zM989 923 q0 -37 -24 -37q-50 0 -149 156q-32 50 -60.5 101t-54.5 105q-19 38 -36 66.5t-34 45.5q-13 11 -25.5 22t-26.5 22q-26 26 -26 62q0 51 40 91t92 40q50 0 83 -35q51 -53 99 -213q4 -10 62 -239q3 -14 8.5 -33.5t13.5 -45.5q6 -14 12 -27l12 -26q14 -33 14 -55zM509 1460 q0 -25 -30 -91l-45 -90q-30 -72 -60 -143t-60 -143q-104 -225 -156 -225q-30 0 -30 37q0 16 36 118q28 78 52 207.5t45 313.5q6 48 15 72q24 62 99 62q52 0 93 -33t41 -85zM1164 132q0 -58 -32.5 -95t-89.5 -37q-120 0 -120 117q0 11 1 28.5t3 40.5t3.5 40.5t1.5 29.5 q0 90 -32 223q-14 55 -28 109t-28 109q-12 52 -12 99q0 61 28 61q29 0 82 -114l138 -303q85 -201 85 -308zM892 360q0 -88 -87 -88q-63 0 -388 163q-99 49 -99 93q0 25 33 25q42 0 132 -25q34 -10 67 -19t67 -18q40 -10 71 -15t53 -7q151 -10 151 -109zM320 727 q0 -75 -50 -334q-51 -262 -80 -319q-39 -74 -114 -74q-47 0 -85 32q-37 33 -37 81q0 26 18 71q8 20 21 48t33 65q26 47 75 150t122 264q36 80 63 80q34 0 34 -64z" />
<glyph unicode="&#xc5;" horiz-adv-x="1115" d="M757 1898q0 -83 -59 -142q-58 -58 -142 -58q-81 0 -140 59q-58 58 -58 141q0 82 58 140q59 59 140 59q84 0 142 -58q59 -59 59 -141zM989 923q0 -37 -24 -37q-50 0 -149 156q-32 50 -60.5 101t-54.5 105q-19 38 -36 66.5t-34 45.5q-13 11 -25.5 22t-26.5 22 q-26 26 -26 62q0 51 40 91t92 40q50 0 83 -35q51 -53 99 -213q4 -10 62 -239q3 -14 8.5 -33.5t13.5 -45.5q6 -14 12 -27l12 -26q14 -33 14 -55zM509 1460q0 -25 -30 -91l-45 -90q-30 -72 -60 -143t-60 -143q-104 -225 -156 -225q-30 0 -30 37q0 16 36 118q28 78 52 207.5 t45 313.5q6 48 15 72q24 62 99 62q52 0 93 -33t41 -85zM1164 132q0 -58 -32.5 -95t-89.5 -37q-120 0 -120 117q0 11 1 28.5t3 40.5t3.5 40.5t1.5 29.5q0 90 -32 223q-14 55 -28 109t-28 109q-12 52 -12 99q0 61 28 61q29 0 82 -114l138 -303q85 -201 85 -308zM892 360 q0 -88 -87 -88q-63 0 -388 163q-99 49 -99 93q0 25 33 25q42 0 132 -25q34 -10 67 -19t67 -18q40 -10 71 -15t53 -7q151 -10 151 -109zM320 727q0 -75 -50 -334q-51 -262 -80 -319q-39 -74 -114 -74q-47 0 -85 32q-37 33 -37 81q0 26 18 71q8 20 21 48t33 65q26 47 75 150 t122 264q36 80 63 80q34 0 34 -64zM637 1898q0 33 -23.5 56t-56.5 23q-15 0 -29.5 -6.5t-26 -17.5t-18 -25.5t-6.5 -29.5q0 -33 23.5 -56t56.5 -23q15 0 29.5 6.5t26 17.5t18 25.5t6.5 29.5z" />
<glyph unicode="&#xc6;" horiz-adv-x="2075" d="M1975 1482q0 -46 -29 -84q-33 -39 -78 -39q-25 0 -55 3t-66 10q-31 6 -61 12l-60 12l-282 46q-126 22 -126 66q0 36 291 45q54 2 100 5.5t85 10.5q7 1 29 6.5t59 15.5q60 15 84 15q45 0 77 -39q32 -38 32 -85zM1788 833q0 -43 -33 -74q-33 -30 -76 -30q-5 0 -15.5 1 t-26.5 3l-175 25t-246 35q-126 19 -126 66q0 30 149 38l183 3q55 2 100 7t81 13q74 17 81 17q42 0 73 -31t31 -73zM1161 1492q0 -15 -23 -90q-70 -222 -86 -485q-9 -150 -38 -150q-47 0 -65 125q-20 137 -30 267t-10 255q0 183 123 183q44 0 85 -29q44 -32 44 -76zM885 1496 q0 -40 -60 -110q-62 -83 -157.5 -202.5t-227.5 -277.5q-77 -83 -118 -83q-20 0 -20 18q0 30 73 133q115 162 260 506q20 49 36 70q35 47 99 47q47 0 79 -26q36 -29 36 -75zM1959 146q0 -49 -31 -86q-30 -38 -77 -38q-25 0 -55 3.5t-66 10.5q-29 6 -59 12t-61 11l-282 47 q-126 22 -126 66q0 36 290 45q54 1 100.5 5t85.5 11q7 1 28.5 6.5t58.5 15.5q61 14 84 14q46 0 78 -38t32 -85zM1162 110q0 -49 -38 -79q-38 -29 -86 -29q-49 0 -84 28q-39 31 -39 78q0 25 3 55t10 66q6 31 12 61l12 60l47 281q21 126 66 126q29 0 37 -147q3 -110 24 -328 q2 -8 7 -30t15 -57q14 -59 14 -85zM892 360q0 -88 -87 -88q-19 0 -40 7q-11 4 -55 22.5t-121 53.5q-29 13 -71.5 32.5t-100.5 47.5q-99 49 -99 93q0 25 38 25q31 0 115 -25q181 -53 270 -59q13 -1 32 -3t44 -7q75 -21 75 -99zM320 727q0 -75 -50 -334q-26 -134 -46 -213.5 t-34 -105.5q-41 -74 -113 -74q-50 0 -87 33t-37 83q0 23 19 68q8 22 21.5 50t32.5 63q26 49 75.5 152t121.5 262q36 80 63 80q34 0 34 -64z" />
<glyph unicode="&#xc7;" horiz-adv-x="1364" d="M1121 1313q0 -50 -37 -90q-36 -39 -85 -39q-27 0 -74 26q-7 4 -35 21.5t-79 49.5l-298 191q-92 59 -92 96q0 26 34 26q27 0 120 -35q84 -31 134 -49t67 -24q58 -19 109.5 -32t97.5 -20q13 -2 31 -5.5t42 -8.5q65 -23 65 -107zM402 1492q0 -16 -23 -90q-35 -109 -56 -230 t-29 -255q-11 -150 -38 -150q-46 0 -66 125q-20 138 -30 267.5t-10 254.5q0 183 123 183q44 0 85 -29q44 -32 44 -76zM1214 286q0 -71 -67 -110q-24 -16 -282 -58q-255 -42 -312 -42q-69 0 -69 34q0 29 127 80q92 36 141.5 55.5t57.5 23.5q57 25 104 50t85 51q67 45 93 45 q49 0 85 -40q37 -40 37 -89zM404 110q0 -49 -38 -79q-38 -29 -87 -29t-84 28q-39 31 -39 78q0 25 3.5 55t10.5 66q5 31 11 61l12 60l47 281q21 126 65 126q32 0 38 -147q4 -85 6 -138.5t4 -76.5q11 -123 34 -212q17 -63 17 -73zM801 -71q0 -36 -96 -181q-94 -145 -124 -145 q-15 0 -15 40q0 43 42 141q43 95 43 145q0 31 21.5 51t52.5 20t53.5 -20t22.5 -51z" />
<glyph unicode="&#xc8;" horiz-adv-x="1317" d="M1216 1482q0 -46 -29 -84q-32 -39 -78 -39q-25 0 -55 3t-66 10q-31 6 -61 12l-60 12l-282 46q-126 22 -126 66q0 36 294 45q52 2 97.5 5.5t84.5 10.5q7 1 29 6.5t59 15.5q60 15 84 15q45 0 77 -39q32 -38 32 -85zM848 1692q0 -34 -68 -34q-55 0 -313 42q-257 43 -282 57 q-67 40 -67 111q0 48 36 89q37 40 86 40q27 0 94 -46q99 -67 387 -179q127 -49 127 -80zM1029 833q0 -43 -33 -74q-32 -30 -75 -30q-6 0 -16.5 1t-25.5 3q-71 10 -176 25t-246 35q-125 21 -125 66q0 31 148 38q48 1 118 3.5t165 7.5q24 2 44.5 5.5t37.5 7.5q68 16 74 16 q46 0 78 -28t32 -76zM402 1492q0 -16 -23 -90q-34 -109 -55.5 -229.5t-29.5 -255.5q-11 -150 -38 -150q-46 0 -66 125q-20 137 -30 266.5t-10 255.5q0 183 123 183q44 0 85 -29q44 -32 44 -76zM1201 146q0 -49 -31 -86q-32 -38 -78 -38q-24 0 -54 3.5t-67 10.5q-29 6 -59 12 t-61 11l-281 47q-126 22 -126 66q0 36 292 45q52 1 97.5 5t85.5 11q7 2 28.5 7t57.5 15q59 14 85 14q46 0 78 -38q33 -38 33 -85zM404 110q0 -49 -38 -79q-38 -29 -87 -29t-84 28q-39 31 -39 78q0 25 3.5 55t10.5 66q5 31 11 61l12 60l47 281q21 126 65 126q30 0 38 -147 q5 -97 7.5 -150.5t3.5 -64.5q9 -122 33 -212q17 -63 17 -73z" />
<glyph unicode="&#xc9;" horiz-adv-x="1348" d="M1248 1868q0 -70 -68 -111q-26 -14 -286 -58q-128 -20 -204 -30.5t-104 -10.5q-69 0 -69 34q0 29 129 80q88 35 137.5 54.5t61.5 24.5q56 25 103 49.5t85 50.5q67 46 93 46q49 0 85 -40q37 -40 37 -89zM1216 1482q0 -46 -29 -84q-32 -39 -78 -39q-25 0 -55 3t-66 10 q-31 6 -61 12l-60 12l-282 46q-126 22 -126 66q0 36 294 45q52 2 97.5 5.5t84.5 10.5q7 1 29 6.5t59 15.5q60 15 84 15q45 0 77 -39q32 -38 32 -85zM1029 833q0 -43 -33 -74q-32 -30 -75 -30q-6 0 -16.5 1t-25.5 3q-71 10 -176 25t-246 35q-125 21 -125 66q0 31 148 38 q48 1 118 3.5t165 7.5q24 2 44.5 5.5t37.5 7.5q68 16 74 16q46 0 78 -28t32 -76zM402 1492q0 -16 -23 -90q-34 -109 -55.5 -229.5t-29.5 -255.5q-11 -150 -38 -150q-46 0 -66 125q-20 137 -30 266.5t-10 255.5q0 183 123 183q44 0 85 -29q44 -32 44 -76zM1201 146 q0 -49 -31 -86q-32 -38 -78 -38q-24 0 -54 3.5t-67 10.5q-29 6 -59 12t-61 11l-281 47q-126 22 -126 66q0 36 292 45q52 1 97.5 5t85.5 11q7 2 28.5 7t57.5 15q59 14 85 14q46 0 78 -38q33 -38 33 -85zM404 110q0 -49 -38 -79q-38 -29 -87 -29t-84 28q-39 31 -39 78 q0 25 3.5 55t10.5 66q5 31 11 61l12 60l47 281q21 126 65 126q30 0 38 -147q5 -97 7.5 -150.5t3.5 -64.5q9 -122 33 -212q17 -63 17 -73z" />
<glyph unicode="&#xca;" horiz-adv-x="1346" d="M1246 1776q0 -40 -29 -71q-29 -30 -68 -30q-26 0 -67 37t-169 127q-110 78 -165 135q-53 53 -53 83q0 20 18 20q20 0 94 -48q57 -37 145.5 -78.5t213.5 -88.5q21 -8 52 -25q28 -19 28 -61zM1216 1482q0 -46 -29 -84q-32 -39 -78 -39q-25 0 -55 3t-66 10q-31 6 -61 12 l-60 12l-282 46q-126 22 -126 66q0 36 294 45q52 2 97.5 5.5t84.5 10.5q7 1 29 6.5t59 15.5q60 15 84 15q45 0 77 -39q32 -38 32 -85zM663 2001q0 -28 -13 -48q-5 -8 -40 -30t-100 -59l-80 -46t-81 -46q-74 -44 -126 -84q-64 -49 -82 -49q-21 0 -21 18q0 51 167 216 q64 65 118.5 114t99.5 84q32 26 63 26q40 0 67.5 -28t27.5 -68zM1029 833q0 -43 -33 -74q-32 -30 -75 -30q-6 0 -16.5 1t-25.5 3q-71 10 -176 25t-246 35q-125 21 -125 66q0 31 148 38q48 1 118 3.5t165 7.5q24 2 44.5 5.5t37.5 7.5q68 16 74 16q46 0 78 -28t32 -76z M402 1492q0 -16 -23 -90q-34 -109 -55.5 -229.5t-29.5 -255.5q-11 -150 -38 -150q-46 0 -66 125q-20 137 -30 266.5t-10 255.5q0 183 123 183q44 0 85 -29q44 -32 44 -76zM1201 146q0 -49 -31 -86q-32 -38 -78 -38q-24 0 -54 3.5t-67 10.5q-29 6 -59 12t-61 11l-281 47 q-126 22 -126 66q0 36 292 45q52 1 97.5 5t85.5 11q7 2 28.5 7t57.5 15q59 14 85 14q46 0 78 -38q33 -38 33 -85zM404 110q0 -49 -38 -79q-38 -29 -87 -29t-84 28q-39 31 -39 78q0 25 3.5 55t10.5 66q5 31 11 61l12 60l47 281q21 126 65 126q30 0 38 -147q5 -97 7.5 -150.5 t3.5 -64.5q9 -122 33 -212q17 -63 17 -73z" />
<glyph unicode="&#xcb;" horiz-adv-x="1317" d="M1083 1847q0 -60 -45 -105q-44 -44 -105 -44q-63 0 -106 43q-44 44 -44 106t44 106q43 43 106 43q61 0 105 -44q45 -44 45 -105zM1216 1482q0 -46 -29 -84q-32 -39 -78 -39q-25 0 -55 3t-66 10q-31 6 -61 12l-60 12l-282 46q-126 22 -126 66q0 36 294 45q52 2 97.5 5.5 t84.5 10.5q7 1 29 6.5t59 15.5q60 15 84 15q45 0 77 -39q32 -38 32 -85zM583 1847q0 -60 -45 -105q-44 -44 -104 -44q-63 0 -106 43q-44 44 -44 106t44 106q43 43 106 43q60 0 104 -44q45 -44 45 -105zM1029 833q0 -43 -33 -74q-32 -30 -75 -30q-6 0 -16.5 1t-25.5 3 q-71 10 -176 25t-246 35q-125 21 -125 66q0 31 148 38q48 1 118 3.5t165 7.5q24 2 44.5 5.5t37.5 7.5q68 16 74 16q46 0 78 -28t32 -76zM402 1492q0 -16 -23 -90q-34 -109 -55.5 -229.5t-29.5 -255.5q-11 -150 -38 -150q-46 0 -66 125q-20 137 -30 266.5t-10 255.5 q0 183 123 183q44 0 85 -29q44 -32 44 -76zM1201 146q0 -49 -31 -86q-32 -38 -78 -38q-24 0 -54 3.5t-67 10.5q-29 6 -59 12t-61 11l-281 47q-126 22 -126 66q0 36 292 45q52 1 97.5 5t85.5 11q7 2 28.5 7t57.5 15q59 14 85 14q46 0 78 -38q33 -38 33 -85zM404 110 q0 -49 -38 -79q-38 -29 -87 -29t-84 28q-39 31 -39 78q0 25 3.5 55t10.5 66q5 31 11 61l12 60l47 281q21 126 65 126q30 0 38 -147q5 -97 7.5 -150.5t3.5 -64.5q9 -122 33 -212q17 -63 17 -73z" />
<glyph unicode="&#xcc;" horiz-adv-x="553" d="M444 1692q0 -34 -70 -34q-54 0 -307 42q-257 42 -284 57q-69 40 -69 109q0 50 37 90q36 41 86 41q27 0 94 -46q49 -33 144.5 -77.5t240.5 -101.5q128 -50 128 -80zM402 1492q0 -15 -23 -90q-65 -214 -85 -485q-11 -150 -38 -150q-46 0 -66 125q-20 136 -30 265t-10 255 q0 185 123 185q44 0 85 -29q44 -32 44 -76zM404 110q0 -49 -38 -79q-38 -29 -87 -29t-84 28q-39 31 -39 78q0 22 25 171l59 352q21 126 65 126q30 0 38 -147q9 -186 12 -215q5 -62 13 -114.5t19 -97.5q17 -66 17 -73z" />
<glyph unicode="&#xcd;" horiz-adv-x="553" d="M843 1868q0 -72 -68 -111q-25 -15 -281 -57q-255 -42 -313 -42q-69 0 -69 34q0 29 128 80q89 35 138.5 54.5t60.5 24.5q56 25 103 49.5t85 50.5q67 46 94 46q48 0 85 -40t37 -89zM402 1492q0 -15 -23 -90q-65 -214 -85 -485q-11 -150 -38 -150q-46 0 -66 125 q-20 136 -30 265t-10 255q0 185 123 185q44 0 85 -29q44 -32 44 -76zM404 110q0 -49 -38 -79q-38 -29 -87 -29t-84 28q-39 31 -39 78q0 22 25 171l59 352q21 126 65 126q30 0 38 -147q9 -186 12 -215q5 -62 13 -114.5t19 -97.5q17 -66 17 -73z" />
<glyph unicode="&#xce;" horiz-adv-x="553" d="M841 1776q0 -39 -28 -70t-65 -31q-29 0 -74 36q-16 14 -32 27.5t-33 27.5q-46 34 -92 67.5t-92 67.5q-135 106 -135 156q0 20 17 20q21 0 93 -48q113 -75 361 -167q14 -5 26 -11.5t23 -13.5q31 -19 31 -61zM257 2001q0 -23 -15 -44q-13 -20 -139 -93q-40 -23 -79.5 -46 t-79.5 -46q-36 -23 -67 -43.5t-57 -40.5q-65 -49 -80 -49q-23 0 -23 18q0 50 166 215q63 65 116.5 114.5t98.5 84.5q32 26 62 26q20 0 37.5 -7.5t31 -20.5t21 -30.5t7.5 -37.5zM402 1492q0 -15 -23 -90q-65 -214 -85 -485q-11 -150 -38 -150q-46 0 -66 125q-20 136 -30 265 t-10 255q0 185 123 185q44 0 85 -29q44 -32 44 -76zM404 110q0 -49 -38 -79q-38 -29 -87 -29t-84 28q-39 31 -39 78q0 22 25 171l59 352q21 126 65 126q30 0 38 -147q9 -186 12 -215q5 -62 13 -114.5t19 -97.5q17 -66 17 -73z" />
<glyph unicode="&#xcf;" horiz-adv-x="553" d="M677 1847q0 -63 -45 -106q-43 -43 -106 -43q-62 0 -106 44q-43 43 -43 105t44 106q46 44 106 44q62 0 106 -44t44 -106zM177 1847q0 -62 -44 -106q-43 -43 -106 -43q-58 0 -102 44q-44 46 -44 105q0 61 44 105t103 44q63 0 106 -43t43 -106zM402 1492q0 -15 -23 -90 q-65 -214 -85 -485q-11 -150 -38 -150q-46 0 -66 125q-20 136 -30 265t-10 255q0 185 123 185q44 0 85 -29q44 -32 44 -76zM404 110q0 -49 -38 -79q-38 -29 -87 -29t-84 28q-39 31 -39 78q0 22 25 171l59 352q21 126 65 126q30 0 38 -147q9 -186 12 -215q5 -62 13 -114.5 t19 -97.5q17 -66 17 -73z" />
<glyph unicode="&#xd1;" horiz-adv-x="1440" d="M1252 1898q0 -21 -23 -49q-120 -139 -318 -139q-82 0 -185 80q-101 80 -155 80q-154 0 -245 -115q-7 -8 -16.5 -21t-23.5 -30q-24 -25 -46 -25q-50 0 -50 40q0 122 138 224q125 94 253 94q61 0 162 -80q103 -80 187 -80q107 0 204 61q19 25 53 25q65 0 65 -65zM1290 1488 q0 -16 -16 -73q-15 -58 -24.5 -162t-18.5 -264q-7 -148 -38 -148q-44 0 -67 125q-14 81 -34 200.5t-46 281.5q-3 28 -3 42q0 46 39 78q37 28 84 28q51 0 86 -28q38 -32 38 -80zM968 839q0 -52 -38 -90q-37 -37 -90 -37q-35 0 -67 19q-60 37 -278 426q-41 74 -41 114 q0 29 26 29q23 0 111 -94q29 -29 69 -65t94 -78q64 -50 106.5 -84t62.5 -53q45 -41 45 -87zM1288 106q0 -44 -42 -75q-41 -31 -86 -31q-123 0 -123 183q0 126 10 255.5t30 266.5q18 126 65 126q27 0 38 -150q10 -137 31 -257t55 -228q22 -69 22 -90zM402 1492q0 -16 -23 -90 q-34 -109 -55.5 -229.5t-29.5 -255.5q-11 -150 -38 -150q-46 0 -66 125q-20 137 -30 266.5t-10 255.5q0 183 123 183q44 0 85 -29q44 -32 44 -76zM404 110q0 -49 -38 -79q-38 -29 -87 -29t-84 28q-39 31 -39 78q0 25 3.5 55t10.5 66q5 31 11 61l12 60l47 281q21 126 65 126 q30 0 38 -147q5 -97 7.5 -150.5t3.5 -64.5q9 -122 33 -212q17 -63 17 -73z" />
<glyph unicode="&#xd2;" horiz-adv-x="1406" d="M869 1692q0 -34 -69 -34q-29 0 -107 10.5t-207 32.5q-258 44 -280 56q-69 40 -69 109q0 50 37 90q38 41 85 41q27 0 94 -46q49 -32 145.5 -77t242.5 -102q128 -50 128 -80zM1306 1003q0 -52 -38 -92q-38 -38 -90 -38q-33 0 -62 17q-26 17 -106 162q-76 140 -138.5 241 t-112.5 167q-62 80 -62 108q0 29 24 29q62 0 285 -221q180 -180 267 -292q33 -42 33 -81zM699 1404q0 -40 -30 -68q-6 -6 -66 -44q-108 -68 -195 -179l-168 -210q-77 -95 -118 -95q-22 0 -22 26q0 34 56 143q20 36 39 72t39 73q48 92 82.5 154t56.5 95q111 169 198 169 q47 0 88 -44q40 -43 40 -92zM1273 711q0 -23 -67 -124q-45 -69 -100 -188t-121 -293q-5 -12 -13 -29t-19 -39q-27 -38 -78 -38q-58 0 -98 37t-40 93q0 36 48 89q31 33 74 89.5t100 137.5q204 289 285 289q29 0 29 -24zM692 146q0 -52 -37 -95t-87 -43q-37 0 -71 22 q-63 41 -173 244q-25 49 -65 119t-97 162q-63 84 -63 108q0 30 25 30q61 0 214 -163q51 -57 100 -112.5t98 -111.5q13 -13 27 -25.5t28 -26.5q101 -38 101 -108z" />
<glyph unicode="&#xd3;" horiz-adv-x="1406" d="M1268 1868q0 -72 -67 -111q-27 -15 -282 -57t-312 -42q-70 0 -70 34q0 29 128 80q90 35 139 54.5t60 24.5q56 25 103 49.5t85 50.5q68 46 95 46q49 0 85 -41t36 -88zM1306 1003q0 -52 -38 -92q-38 -38 -90 -38q-33 0 -62 17q-26 17 -106 162q-76 140 -138.5 241 t-112.5 167q-62 80 -62 108q0 29 24 29q62 0 285 -221q180 -180 267 -292q33 -42 33 -81zM699 1404q0 -40 -30 -68q-6 -6 -66 -44q-108 -68 -195 -179l-168 -210q-77 -95 -118 -95q-22 0 -22 26q0 34 56 143q20 36 39 72t39 73q48 92 82.5 154t56.5 95q111 169 198 169 q47 0 88 -44q40 -43 40 -92zM1273 711q0 -23 -67 -124q-45 -69 -100 -188t-121 -293q-5 -12 -13 -29t-19 -39q-27 -38 -78 -38q-58 0 -98 37t-40 93q0 36 48 89q31 33 74 89.5t100 137.5q204 289 285 289q29 0 29 -24zM692 146q0 -52 -37 -95t-87 -43q-37 0 -71 22 q-63 41 -173 244q-25 49 -65 119t-97 162q-63 84 -63 108q0 30 25 30q61 0 214 -163q51 -57 100 -112.5t98 -111.5q13 -13 27 -25.5t28 -26.5q101 -38 101 -108z" />
<glyph unicode="&#xd4;" horiz-adv-x="1406" d="M1266 1776q0 -40 -29 -71q-29 -30 -69 -30q-26 0 -66 37q-46 40 -170 128q-55 39 -95.5 72.5t-68.5 61.5q-53 53 -53 83q0 20 18 20q22 0 94 -48q56 -37 145.5 -78t214.5 -89q20 -8 52 -25q27 -20 27 -61zM683 2001q0 -25 -14 -48q-11 -16 -138 -89q-41 -23 -81 -46 l-80 -46q-74 -45 -126 -84q-65 -49 -82 -49q-23 0 -23 19q0 50 170 217q141 140 223 201q28 21 55 21q40 0 68 -28t28 -68zM1306 1003q0 -52 -38 -92q-38 -38 -90 -38q-33 0 -62 17q-26 17 -106 162q-76 140 -138.5 241t-112.5 167q-62 80 -62 108q0 29 24 29q62 0 285 -221 q180 -180 267 -292q33 -42 33 -81zM699 1404q0 -40 -30 -68q-6 -6 -66 -44q-108 -68 -195 -179l-168 -210q-77 -95 -118 -95q-22 0 -22 26q0 34 56 143q20 36 39 72t39 73q48 92 82.5 154t56.5 95q111 169 198 169q47 0 88 -44q40 -43 40 -92zM1273 711q0 -23 -67 -124 q-45 -69 -100 -188t-121 -293q-5 -12 -13 -29t-19 -39q-27 -38 -78 -38q-58 0 -98 37t-40 93q0 36 48 89q31 33 74 89.5t100 137.5q204 289 285 289q29 0 29 -24zM692 146q0 -52 -37 -95t-87 -43q-37 0 -71 22q-63 41 -173 244q-25 49 -65 119t-97 162q-63 84 -63 108 q0 30 25 30q61 0 214 -163q51 -57 100 -112.5t98 -111.5q13 -13 27 -25.5t28 -26.5q101 -38 101 -108z" />
<glyph unicode="&#xd5;" horiz-adv-x="1406" d="M1235 1898q0 -21 -25 -49q-118 -139 -318 -139q-82 0 -183 80t-156 80q-155 0 -246 -115q-6 -8 -16 -21t-24 -30q-22 -25 -46 -25q-49 0 -49 40q0 122 137 224q127 94 255 94q59 0 160 -80q103 -80 189 -80q104 0 204 61q18 25 51 25q67 0 67 -65zM1306 1003 q0 -52 -38 -92q-38 -38 -90 -38q-33 0 -62 17q-26 17 -106 162q-76 140 -138.5 241t-112.5 167q-62 80 -62 108q0 29 24 29q62 0 285 -221q180 -180 267 -292q33 -42 33 -81zM699 1404q0 -40 -30 -68q-6 -6 -66 -44q-108 -68 -195 -179l-168 -210q-77 -95 -118 -95 q-22 0 -22 26q0 34 56 143q20 36 39 72t39 73q48 92 82.5 154t56.5 95q111 169 198 169q47 0 88 -44q40 -43 40 -92zM1273 711q0 -23 -67 -124q-45 -69 -100 -188t-121 -293q-5 -12 -13 -29t-19 -39q-27 -38 -78 -38q-58 0 -98 37t-40 93q0 36 48 89q31 33 74 89.5 t100 137.5q204 289 285 289q29 0 29 -24zM692 146q0 -52 -37 -95t-87 -43q-37 0 -71 22q-63 41 -173 244q-25 49 -65 119t-97 162q-63 84 -63 108q0 30 25 30q61 0 214 -163q51 -57 100 -112.5t98 -111.5q13 -13 27 -25.5t28 -26.5q101 -38 101 -108z" />
<glyph unicode="&#xd6;" horiz-adv-x="1406" d="M1102 1847q0 -63 -45 -106q-43 -43 -106 -43q-61 0 -105 44q-43 43 -43 105t44 106t105 44q62 0 106 -44t44 -106zM603 1847q0 -63 -45 -106q-43 -43 -106 -43q-62 0 -106 44q-43 43 -43 105t44 106q46 44 106 44q62 0 106 -44t44 -106zM1306 1003q0 -52 -38 -92 q-38 -38 -90 -38q-33 0 -62 17q-26 17 -106 162q-76 140 -138.5 241t-112.5 167q-62 80 -62 108q0 29 24 29q62 0 285 -221q180 -180 267 -292q33 -42 33 -81zM699 1404q0 -40 -30 -68q-6 -6 -66 -44q-108 -68 -195 -179l-168 -210q-77 -95 -118 -95q-22 0 -22 26 q0 34 56 143q20 36 39 72t39 73q48 92 82.5 154t56.5 95q111 169 198 169q47 0 88 -44q40 -43 40 -92zM1273 711q0 -23 -67 -124q-45 -69 -100 -188t-121 -293q-5 -12 -13 -29t-19 -39q-27 -38 -78 -38q-58 0 -98 37t-40 93q0 36 48 89q31 33 74 89.5t100 137.5 q204 289 285 289q29 0 29 -24zM692 146q0 -52 -37 -95t-87 -43q-37 0 -71 22q-63 41 -173 244q-25 49 -65 119t-97 162q-63 84 -63 108q0 30 25 30q61 0 214 -163q51 -57 100 -112.5t98 -111.5q13 -13 27 -25.5t28 -26.5q101 -38 101 -108z" />
<glyph unicode="&#xd7;" horiz-adv-x="845" d="M695 660q0 -45 -28.5 -73t-73.5 -28q-50 0 -107 66q-7 8 -27 35t-53 73q-186 -138 -225 -138q-31 0 -31 22q0 34 178 218q-149 202 -149 236t23 34q37 0 213 -175q19 25 33.5 45t24.5 37q34 54 47 67q30 30 74 30q45 0 73 -29t28 -74q0 -52 -60 -104q-26 -19 -51.5 -37.5 t-51.5 -37.5q26 -17 51.5 -33.5t51.5 -33.5q60 -45 60 -100z" />
<glyph unicode="&#xd8;" horiz-adv-x="1406" d="M1306 1003q0 -52 -38 -92q-38 -38 -90 -38q-33 0 -62 17q-27 17 -137 223q-32 -42 -65.5 -89t-68.5 -101q-73 -115 -98 -115q-28 0 -28 47q0 85 164 424q-28 45 -59 89t-65 90q-30 39 -46 68.5t-16 41.5q0 29 24 29q55 0 236 -173q68 122 141 122q48 0 91 -41 q42 -41 42 -89q0 -35 -45 -84q-19 -17 -37 -34l-36 -34q29 -32 58 -62.5t58 -61.5q77 -92 77 -137zM699 1404q0 -39 -32 -68q-5 -5 -21 -16t-43 -28q-108 -68 -195 -179l-168 -210q-77 -95 -118 -95q-21 0 -21 35q0 27 57 137q19 35 38 71t38 71q48 92 82 154t57 95 q111 169 198 169q49 0 88 -44q40 -43 40 -92zM1273 711q0 -27 -67 -124q-52 -77 -103 -190q-20 -46 -50 -118.5t-68 -172.5q-5 -12 -13 -29t-19 -39q-27 -38 -78 -38q-58 0 -98 37t-40 93q0 38 48 89q59 63 174 227q204 289 285 289q29 0 29 -24zM691 139q0 -50 -38 -91 q-37 -40 -87 -40q-75 0 -151 114q-23 -72 -99 -72q-52 0 -94 36q-45 37 -45 88q0 32 41 91q34 42 66 84q-61 119 -123 206q-62 89 -62 108q0 30 25 30q67 0 259 -209q91 126 156 207q64 82 100 82q28 0 28 -24q0 -30 -76 -189q-25 -51 -49.5 -101t-49.5 -101 q15 -19 39.5 -45t59.5 -59q17 -11 35 -20.5t35 -19.5q30 -23 30 -75z" />
<glyph unicode="&#xd9;" horiz-adv-x="1478" d="M1328 1480q0 -31 -18 -152q-10 -64 -21 -177.5t-23 -279.5q-8 -98 -40 -98q-43 0 -67 136q-19 103 -33.5 194.5t-25.5 172.5q-10 72 -14.5 123t-4.5 83q0 52 40 85q37 31 89 31q54 0 86 -32t32 -86zM905 1692q0 -34 -69 -34q-29 0 -107 10.5t-207 32.5q-258 44 -280 56 q-69 40 -69 109q0 50 37 90q38 41 85 41q27 0 94 -46q49 -32 145.5 -77t242.5 -102q128 -50 128 -80zM412 1486q0 -20 -31 -89q-49 -117 -58 -394q-5 -141 -6 -160q-14 -126 -50 -126t-54 126l-1 7q-11 63 -20.5 126t-19.5 126q-11 73 -16.5 136t-5.5 117q0 242 128 242 q50 0 91 -29q43 -31 43 -82zM1322 711q0 -24 -66 -124q-48 -72 -102.5 -191t-118.5 -290q-18 -46 -32 -68q-26 -38 -78 -38q-58 0 -98 37t-40 93q0 36 48 89q31 35 73.5 91.5t99.5 135.5q205 289 286 289q28 0 28 -24zM742 146q0 -50 -35 -94q-38 -45 -89 -45q-36 0 -71 23 q-56 38 -150 202q-32 59 -64 117t-64 117q-16 28 -30 50t-27 39q-62 82 -62 108q0 30 24 30q90 0 375 -344q41 -50 92 -95q101 -38 101 -108z" />
<glyph unicode="&#xda;" horiz-adv-x="1478" d="M1304 1868q0 -72 -67 -111q-27 -15 -282 -57t-312 -42q-70 0 -70 34q0 29 128 80q90 35 139 54.5t60 24.5q56 25 103 49.5t85 50.5q68 46 94 46q49 0 85 -40q37 -40 37 -89zM1328 1480q0 -31 -18 -152q-10 -64 -21 -177.5t-23 -279.5q-8 -98 -40 -98q-43 0 -67 136 q-19 103 -33.5 194.5t-25.5 172.5q-10 72 -14.5 123t-4.5 83q0 52 40 85q37 31 89 31q54 0 86 -32t32 -86zM412 1486q0 -20 -31 -89q-49 -117 -58 -394q-5 -141 -6 -160q-14 -126 -50 -126t-54 126l-1 7q-11 63 -20.5 126t-19.5 126q-11 73 -16.5 136t-5.5 117 q0 242 128 242q50 0 91 -29q43 -31 43 -82zM1322 711q0 -24 -66 -124q-48 -72 -102.5 -191t-118.5 -290q-18 -46 -32 -68q-26 -38 -78 -38q-58 0 -98 37t-40 93q0 36 48 89q31 35 73.5 91.5t99.5 135.5q205 289 286 289q28 0 28 -24zM742 146q0 -50 -35 -94q-38 -45 -89 -45 q-36 0 -71 23q-56 38 -150 202q-32 59 -64 117t-64 117q-16 28 -30 50t-27 39q-62 82 -62 108q0 30 24 30q90 0 375 -344q41 -50 92 -95q101 -38 101 -108z" />
<glyph unicode="&#xdb;" horiz-adv-x="1478" d="M1302 1776q0 -40 -29 -71q-29 -30 -69 -30q-26 0 -66 37q-46 40 -170 128q-55 39 -95.5 72.5t-68.5 61.5q-53 53 -53 83q0 20 17 20q23 0 95 -48q120 -79 359 -167q19 -7 53 -25q27 -20 27 -61zM1328 1480q0 -31 -18 -152q-10 -64 -21 -177.5t-23 -279.5q-8 -98 -40 -98 q-43 0 -67 136q-19 103 -33.5 194.5t-25.5 172.5q-10 72 -14.5 123t-4.5 83q0 52 40 85q37 31 89 31q54 0 86 -32t32 -86zM719 2001q0 -25 -14 -48q-9 -15 -138 -89q-41 -23 -81 -46l-80 -46q-74 -45 -126 -84q-64 -49 -82 -49q-22 0 -22 18q0 51 166 216q130 129 219 198 q32 26 62 26q40 0 68 -28t28 -68zM412 1486q0 -20 -31 -89q-49 -117 -58 -394q-5 -141 -6 -160q-14 -126 -50 -126t-54 126l-1 7q-11 63 -20.5 126t-19.5 126q-11 73 -16.5 136t-5.5 117q0 242 128 242q50 0 91 -29q43 -31 43 -82zM1322 711q0 -24 -66 -124 q-48 -72 -102.5 -191t-118.5 -290q-18 -46 -32 -68q-26 -38 -78 -38q-58 0 -98 37t-40 93q0 36 48 89q31 35 73.5 91.5t99.5 135.5q205 289 286 289q28 0 28 -24zM742 146q0 -50 -35 -94q-38 -45 -89 -45q-36 0 -71 23q-56 38 -150 202q-32 59 -64 117t-64 117 q-16 28 -30 50t-27 39q-62 82 -62 108q0 30 24 30q90 0 375 -344q41 -50 92 -95q101 -38 101 -108z" />
<glyph unicode="&#xdc;" horiz-adv-x="1478" d="M1138 1847q0 -63 -45 -106q-43 -43 -106 -43q-61 0 -105 44q-43 43 -43 105t44 106t105 44q62 0 106 -44t44 -106zM1328 1480q0 -31 -18 -152q-10 -64 -21 -177.5t-23 -279.5q-8 -98 -40 -98q-43 0 -67 136q-19 103 -33.5 194.5t-25.5 172.5q-10 72 -14.5 123t-4.5 83 q0 52 40 85q37 31 89 31q54 0 86 -32t32 -86zM639 1847q0 -63 -45 -106q-43 -43 -106 -43q-62 0 -106 44q-43 43 -43 105t44 106q46 44 106 44q62 0 106 -44t44 -106zM412 1486q0 -20 -31 -89q-49 -117 -58 -394q-5 -141 -6 -160q-14 -126 -50 -126t-54 126l-1 7 q-11 63 -20.5 126t-19.5 126q-11 73 -16.5 136t-5.5 117q0 242 128 242q50 0 91 -29q43 -31 43 -82zM1322 711q0 -24 -66 -124q-48 -72 -102.5 -191t-118.5 -290q-18 -46 -32 -68q-26 -38 -78 -38q-58 0 -98 37t-40 93q0 36 48 89q31 35 73.5 91.5t99.5 135.5 q205 289 286 289q28 0 28 -24zM742 146q0 -50 -35 -94q-38 -45 -89 -45q-36 0 -71 23q-56 38 -150 202q-32 59 -64 117t-64 117q-16 28 -30 50t-27 39q-62 82 -62 108q0 30 24 30q90 0 375 -344q41 -50 92 -95q101 -38 101 -108z" />
<glyph unicode="&#xdd;" horiz-adv-x="1001" d="M1050 1868q0 -72 -67 -111q-25 -15 -281 -57q-255 -42 -313 -42q-69 0 -69 34q0 29 128 80q89 35 138.5 54.5t60.5 24.5q56 25 103 49.5t85 50.5q67 46 93 46q49 0 85 -40q37 -40 37 -89zM1021 1472q0 -32 -45 -90q-49 -65 -158 -233q-96 -151 -162.5 -227.5 t-108.5 -76.5q-29 0 -29 23q0 24 57 125q98 167 198 493q8 27 28 70q25 42 84 42q55 0 95 -37q41 -36 41 -89zM465 877q0 -37 -23 -37q-41 0 -118 83q-28 30 -62.5 81.5t-76.5 125.5q-40 72 -75 122.5t-64 81.5q-15 14 -30 29t-31 29q-32 37 -32 75q0 48 36 89q35 41 83 41 q89 0 158 -127q43 -78 100 -265q56 -181 82 -224q8 -12 16.5 -24.5t17.5 -25.5q19 -29 19 -54zM617 110q0 -49 -38 -79q-38 -29 -87 -29q-48 0 -83 28q-39 31 -39 78q0 2 1 12.5t3 29.5l22 217q5 51 14.5 126t22.5 176q19 126 66 126q30 0 38 -147q18 -295 64 -465 q16 -60 16 -73z" />
<glyph unicode="&#xe0;" horiz-adv-x="1003" d="M651 1522q0 -30 -62 -30q-25 0 -94 9t-184 28q-232 37 -257 53q-60 34 -60 96q0 45 31 82t76 37q25 0 87 -42q94 -62 347 -161q116 -45 116 -72zM888 831q0 -32 -20 -32q-50 0 -144 159q-29 52 -58.5 104t-58.5 105q-12 19 -39 57q-24 19 -47 41q-24 24 -24 57 q0 47 37 81q37 36 84 36q94 0 158 -211q20 -76 39.5 -151t39.5 -151q33 -89 33 -95zM457 1315q0 -25 -24 -73q-17 -32 -42 -90t-60 -143q-62 -150 -108 -230q-49 -88 -82 -88q-25 0 -25 34q0 16 32 106q49 133 88 469q1 22 12 64q20 56 87 56q47 0 85 -30q37 -28 37 -75z M1048 118q0 -118 -109 -118q-110 0 -110 109q0 10 1 25t3 35t3.5 34.5t1.5 24.5q0 80 -29 201q-13 51 -25 100t-25 98q-12 52 -12 91q0 53 26 53q27 0 74 -102q25 -54 49.5 -107t50.5 -107q58 -126 83 -220q18 -68 18 -117zM803 324q0 -80 -78 -80q-31 0 -84 25 q-45 20 -111.5 50t-154.5 72q-89 47 -89 84q0 22 30 22q43 0 121 -22q58 -17 88.5 -25.5t34.5 -9.5q17 -4 44 -9t63 -10q67 -4 94 -18q42 -23 42 -79zM288 655q0 -72 -45 -301q-47 -237 -73 -288q-36 -66 -103 -66q-21 0 -40.5 8t-34.5 22t-24 33t-9 40q0 39 65 164 q30 56 74 148.5t104 223.5q33 72 55 72q31 0 31 -56z" />
<glyph unicode="&#xe1;" horiz-adv-x="1003" d="M1010 1679q0 -63 -61 -97q-27 -16 -256 -53q-114 -19 -183.5 -28t-95.5 -9q-63 0 -63 30q0 27 116 72q75 29 120 46t61 24q51 22 92.5 45t76.5 46q61 42 84 42q45 0 77 -36q32 -37 32 -82zM888 831q0 -32 -20 -32q-50 0 -144 159q-29 52 -58.5 104t-58.5 105 q-12 19 -39 57q-24 19 -47 41q-24 24 -24 57q0 47 37 81q37 36 84 36q94 0 158 -211q20 -76 39.5 -151t39.5 -151q33 -89 33 -95zM457 1315q0 -25 -24 -73q-17 -32 -42 -90t-60 -143q-62 -150 -108 -230q-49 -88 -82 -88q-25 0 -25 34q0 16 32 106q49 133 88 469q1 22 12 64 q20 56 87 56q47 0 85 -30q37 -28 37 -75zM1048 118q0 -118 -109 -118q-110 0 -110 109q0 10 1 25t3 35t3.5 34.5t1.5 24.5q0 80 -29 201q-13 51 -25 100t-25 98q-12 52 -12 91q0 53 26 53q27 0 74 -102q25 -54 49.5 -107t50.5 -107q58 -126 83 -220q18 -68 18 -117zM803 324 q0 -80 -78 -80q-31 0 -84 25q-45 20 -111.5 50t-154.5 72q-89 47 -89 84q0 22 30 22q43 0 121 -22q58 -17 88.5 -25.5t34.5 -9.5q17 -4 44 -9t63 -10q67 -4 94 -18q42 -23 42 -79zM288 655q0 -72 -45 -301q-47 -237 -73 -288q-36 -66 -103 -66q-21 0 -40.5 8t-34.5 22 t-24 33t-9 40q0 39 65 164q30 56 74 148.5t104 223.5q33 72 55 72q31 0 31 -56z" />
<glyph unicode="&#xe2;" horiz-adv-x="1003" d="M1008 1597q0 -18 -7 -34t-18.5 -28.5t-27.5 -19.5t-34 -7q-25 0 -60 32q-22 20 -60 50t-92 68q-103 72 -150.5 120t-47.5 73q0 19 19 19q6 0 30 -11q7 -4 20 -12t33 -21q45 -30 129 -69q54 -20 113 -46.5t126 -58.5q27 -23 27 -55zM484 1801q0 -24 -13 -44 q-6 -12 -125 -80q-36 -21 -72 -41.5t-72 -40.5q-25 -17 -49 -33.5t-49 -33.5q-77 -52 -90 -52q-17 0 -17 16q0 45 147 192q57 56 105.5 100.5t91.5 79.5q31 23 57 23q37 0 61.5 -24.5t24.5 -61.5zM888 831q0 -32 -20 -32q-50 0 -144 159q-29 52 -58.5 104t-58.5 105 q-12 19 -39 57q-24 19 -47 41q-24 24 -24 57q0 47 37 81q37 36 84 36q94 0 158 -211q20 -76 39.5 -151t39.5 -151q33 -89 33 -95zM457 1315q0 -25 -24 -73q-17 -32 -42 -90t-60 -143q-62 -150 -108 -230q-49 -88 -82 -88q-25 0 -25 34q0 16 32 106q49 133 88 469q1 22 12 64 q20 56 87 56q47 0 85 -30q37 -28 37 -75zM1048 118q0 -118 -109 -118q-110 0 -110 109q0 10 1 25t3 35t3.5 34.5t1.5 24.5q0 80 -29 201q-13 51 -25 100t-25 98q-12 52 -12 91q0 53 26 53q27 0 74 -102q25 -54 49.5 -107t50.5 -107q58 -126 83 -220q18 -68 18 -117zM803 324 q0 -80 -78 -80q-31 0 -84 25q-45 20 -111.5 50t-154.5 72q-89 47 -89 84q0 22 30 22q43 0 121 -22q58 -17 88.5 -25.5t34.5 -9.5q17 -4 44 -9t63 -10q67 -4 94 -18q42 -23 42 -79zM288 655q0 -72 -45 -301q-47 -237 -73 -288q-36 -66 -103 -66q-21 0 -40.5 8t-34.5 22 t-24 33t-9 40q0 39 65 164q30 56 74 148.5t104 223.5q33 72 55 72q31 0 31 -56z" />
<glyph unicode="&#xe3;" horiz-adv-x="1003" d="M979 1708q0 -21 -20 -44q-113 -126 -286 -126q-74 0 -165 71q-90 72 -140 72q-91 0 -156 -44q-17 -11 -38 -32t-47 -50q-38 -44 -63 -44q-40 0 -40 37q0 109 123 201q115 84 228 84q54 0 146 -72q92 -71 170 -71q96 0 182 54q17 23 47 23q59 0 59 -59zM888 831 q0 -32 -20 -32q-50 0 -144 159q-29 52 -58.5 104t-58.5 105q-12 19 -39 57q-24 19 -47 41q-24 24 -24 57q0 47 37 81q37 36 84 36q94 0 158 -211q20 -76 39.5 -151t39.5 -151q33 -89 33 -95zM457 1315q0 -25 -24 -73q-17 -32 -42 -90t-60 -143q-62 -150 -108 -230 q-49 -88 -82 -88q-25 0 -25 34q0 16 32 106q49 133 88 469q1 22 12 64q20 56 87 56q47 0 85 -30q37 -28 37 -75zM1048 118q0 -118 -106 -118q-49 0 -81 28.5t-32 76.5q0 19 3 55t3 55q0 88 -27 207q-13 52 -25 103l-24 102q-12 52 -12 91q0 53 26 53q27 0 74 -102 q25 -54 49.5 -107t50.5 -107q58 -126 83 -220q18 -68 18 -117zM803 324q0 -80 -78 -80q-31 0 -84 25q-45 20 -111.5 50t-154.5 72q-89 47 -89 84q0 22 30 22q43 0 121 -22q58 -17 88.5 -25.5t34.5 -9.5q17 -4 44 -9t63 -10q67 -4 94 -18q42 -23 42 -79zM288 655 q0 -72 -45 -301q-47 -237 -73 -288q-36 -66 -103 -66q-21 0 -40.5 8t-34.5 22t-24 33t-9 40q0 39 65 164q30 56 74 148.5t104 223.5q33 72 55 72q31 0 31 -56z" />
<glyph unicode="&#xe4;" horiz-adv-x="1003" d="M861 1662q0 -55 -39 -95q-38 -39 -93 -39q-56 0 -97 38q-41 39 -41 96t39 96q40 39 98 39q55 0 94 -40q39 -41 39 -95zM412 1662q0 -55 -39 -95q-38 -39 -93 -39q-58 0 -98 39q-41 39 -41 95t40 95q40 40 98 40q55 0 94 -41t39 -94zM888 831q0 -32 -20 -32 q-50 0 -144 159q-29 52 -58.5 104t-58.5 105q-12 19 -39 57q-24 19 -47 41q-24 24 -24 57q0 47 37 81q37 36 84 36q94 0 158 -211q20 -76 39.5 -151t39.5 -151q33 -89 33 -95zM457 1315q0 -25 -24 -73q-17 -32 -42 -90t-60 -143q-62 -150 -108 -230q-49 -88 -82 -88 q-25 0 -25 34q0 16 32 106q49 133 88 469q1 22 12 64q20 56 87 56q47 0 85 -30q37 -28 37 -75zM1048 118q0 -118 -109 -118q-110 0 -110 109q0 10 1 25t3 35t3.5 34.5t1.5 24.5q0 80 -29 201q-13 51 -25 100t-25 98q-12 52 -12 91q0 53 26 53q27 0 74 -102q25 -54 49.5 -107 t50.5 -107q58 -126 83 -220q18 -68 18 -117zM803 324q0 -80 -78 -80q-31 0 -84 25q-45 20 -111.5 50t-154.5 72q-89 47 -89 84q0 22 30 22q43 0 121 -22q58 -17 88.5 -25.5t34.5 -9.5q17 -4 44 -9t63 -10q67 -4 94 -18q42 -23 42 -79zM288 655q0 -72 -45 -301 q-47 -237 -73 -288q-36 -66 -103 -66q-21 0 -40.5 8t-34.5 22t-24 33t-9 40q0 39 65 164q30 56 74 148.5t104 223.5q33 72 55 72q31 0 31 -56z" />
<glyph unicode="&#xe5;" horiz-adv-x="1003" d="M681 1708q0 -74 -53 -127q-52 -52 -128 -52q-72 0 -125 53t-53 126q0 72 53 125q52 54 125 54q76 0 128 -52q53 -53 53 -127zM888 831q0 -32 -20 -32q-50 0 -144 159q-29 52 -58.5 104t-58.5 105q-12 19 -39 57q-24 19 -47 41q-24 24 -24 57q0 47 37 81q37 36 84 36 q94 0 158 -211q20 -76 39.5 -151t39.5 -151q33 -89 33 -95zM457 1315q0 -25 -24 -73q-17 -32 -42 -90t-60 -143q-62 -150 -108 -230q-49 -88 -82 -88q-25 0 -25 34q0 16 32 106q49 133 88 469q1 22 12 64q20 56 87 56q47 0 85 -30q37 -28 37 -75zM1048 118q0 -118 -109 -118 q-110 0 -110 109q0 10 1 25t3 35t3.5 34.5t1.5 24.5q0 80 -29 201q-13 51 -25 100t-25 98q-12 52 -12 91q0 53 26 53q27 0 74 -102q25 -54 49.5 -107t50.5 -107q58 -126 83 -220q18 -68 18 -117zM803 324q0 -80 -78 -80q-31 0 -84 25q-45 20 -111.5 50t-154.5 72 q-89 47 -89 84q0 22 30 22q43 0 121 -22q58 -17 88.5 -25.5t34.5 -9.5q17 -4 44 -9t63 -10q67 -4 94 -18q42 -23 42 -79zM288 655q0 -72 -45 -301q-47 -237 -73 -288q-36 -66 -103 -66q-21 0 -40.5 8t-34.5 22t-24 33t-9 40q0 39 65 164q30 56 74 148.5t104 223.5 q33 72 55 72q31 0 31 -56zM573 1708q0 71 -72 71t-72 -71q0 -72 72 -72t72 72z" />
<glyph unicode="&#xe6;" horiz-adv-x="1868" d="M1778 1334q0 -42 -29 -77t-70 -35q-46 0 -108 13q-27 5 -54 10.5t-53 10.5l-254 42q-114 19 -114 59q0 31 271 41q151 6 245 32q58 15 73 15q40 0 66 -35q27 -35 27 -76zM1608 749q0 -42 -27 -68t-69 -26q-4 0 -13.5 1t-24.5 3q-114 15 -208.5 28.5t-171.5 25.5 q-113 18 -113 60q0 29 134 34h82q41 0 83 1q96 4 164 21q28 7 45 10.5t25 3.5q19 0 36.5 -7.5t30 -20t20 -30t7.5 -36.5zM1044 1342q0 -22 -19 -80q-61 -187 -78 -437q-9 -134 -34 -134q-45 0 -61 112q-17 117 -26 233.5t-9 236.5q0 165 111 165q41 0 78 -28q38 -29 38 -68z M797 1346q0 -36 -54 -100q-56 -74 -142.5 -180.5t-204.5 -249.5q-69 -75 -106 -75q-18 0 -18 16q0 25 65 120q103 146 234 455q5 11 13 27t19 36q31 43 91 43q43 0 73 -25t30 -67zM1763 132q0 -43 -28 -77q-29 -35 -69 -35q-5 0 -59 9t-159 26q-43 7 -105.5 17t-147.5 24 q-112 19 -112 58q0 23 116 34q35 2 71 3t72 3q166 7 255 33q52 15 67 15q42 0 70 -34q29 -35 29 -76zM1046 98q0 -22 -9 -40t-24 -30.5t-35.5 -19.5t-42.5 -7q-42 0 -76 26q-36 28 -36 71q0 44 13 108l21 108l42 254q20 113 60 113q28 0 34 -134q7 -162 9 -192 q4 -55 12 -102t19 -87q13 -48 13 -68zM803 324q0 -80 -78 -80q-31 0 -84 25q-45 20 -111.5 50t-154.5 72q-89 47 -89 84q0 22 30 22q43 0 121 -22q58 -17 88.5 -25.5t34.5 -9.5q17 -4 44 -9t63 -10q67 -4 94 -18q42 -23 42 -79zM288 655q0 -38 -10.5 -113.5t-32.5 -188.5 q-47 -235 -75 -287q-38 -66 -102 -66q-22 0 -42 8t-35 21.5t-23.5 32.5t-8.5 41q0 39 65 164q26 48 70 140.5t108 231.5q33 72 55 72q31 0 31 -56z" />
<glyph unicode="&#xe7;" horiz-adv-x="1229" d="M1008 1180q0 -45 -33 -79t-76 -34q-31 0 -176 92l-262 165q-82 52 -82 86q0 24 31 24q27 0 107 -30q91 -35 281 -96q26 -3 64 -10.5t89 -18.5q57 -23 57 -99zM362 1342q0 -19 -21 -80q-60 -183 -78 -437q-8 -134 -33 -134q-45 0 -60 112q-36 250 -36 470q0 165 111 165 q41 0 77 -27q40 -28 40 -69zM1092 257q0 -64 -59 -99q-13 -7 -76.5 -20t-178.5 -32t-185.5 -28.5t-96.5 -9.5q-61 0 -61 30q0 25 114 72l90 36t90 35q51 22 93 45t77 46q61 42 84 42q45 0 76 -37q33 -36 33 -80zM364 98q0 -22 -9 -40t-24.5 -30.5t-35.5 -19.5t-42 -7 q-43 0 -79 27q-35 29 -35 70q0 44 13 108q5 27 11 54t11 54l42 254q18 113 60 113q28 0 33 -134q2 -49 7 -122t15 -171q1 -7 6 -27l13 -52q14 -53 14 -77zM721 -63q0 -34 -87 -164q-85 -130 -110 -130q-15 0 -15 36q0 37 38 127q38 88 38 131q0 28 20.5 46t47.5 18 q68 0 68 -64z" />
<glyph unicode="&#xe8;" horiz-adv-x="1184" d="M1094 1334q0 -43 -28 -77q-29 -35 -69 -35q-45 0 -109 13q-26 5 -53 10.5t-54 10.5l-253 42q-114 19 -114 59q0 30 275 41q144 6 239 32q58 15 74 15q40 0 66 -35t26 -76zM763 1522q0 -30 -62 -30q-26 0 -96 9.5t-185 28.5q-231 39 -252 52q-63 34 -63 96q0 46 33 82 q33 37 78 37q21 0 83 -42q90 -60 351 -161q113 -45 113 -72zM925 749q0 -42 -27 -68t-69 -26q-5 0 -14.5 1t-23.5 3q-64 8 -158 21.5t-221 32.5q-115 18 -115 60q0 28 134 34q42 1 83 1.5t83 1.5q99 3 164 19q61 14 66 14q42 0 70 -26t28 -68zM362 1342q0 -5 -32 -118 q-25 -87 -42 -186t-25 -213q-9 -134 -33 -134q-45 0 -60 112q-36 249 -36 470q0 165 111 165q41 0 77 -27q40 -28 40 -69zM1081 132q0 -42 -29 -77t-69 -35q-10 0 -218 35q-43 7 -106 17t-148 24q-111 18 -111 58q0 23 116 34l144 6q162 7 255 33q52 15 66 15q43 0 71 -34 q29 -35 29 -76zM364 98q0 -22 -9 -40t-24.5 -30.5t-35.5 -19.5t-42 -7q-43 0 -79 27q-35 29 -35 70q0 44 13 108q5 27 11 54t11 54l42 254q18 113 60 113q27 0 33 -134q4 -82 6.5 -130t3.5 -62q9 -110 30 -189q15 -56 15 -68z" />
<glyph unicode="&#xe9;" horiz-adv-x="1212" d="M1122 1679q0 -62 -59 -97q-11 -7 -74.5 -20t-179.5 -32q-115 -19 -185 -28.5t-96 -9.5q-63 0 -63 30q0 27 116 72l117 45.5t62 25.5q99 43 168 90q61 42 86 42q44 0 76 -36q32 -37 32 -82zM1094 1334q0 -43 -28 -77q-29 -35 -69 -35q-45 0 -109 13q-26 5 -53 10.5 t-54 10.5l-253 42q-114 19 -114 59q0 30 275 41q144 6 239 32q58 15 74 15q40 0 66 -35t26 -76zM925 749q0 -42 -27 -68t-69 -26q-5 0 -14.5 1t-23.5 3q-64 8 -158 21.5t-221 32.5q-115 18 -115 60q0 28 134 34q42 1 83 1.5t83 1.5q99 3 164 19q61 14 66 14q42 0 70 -26 t28 -68zM362 1342q0 -5 -32 -118q-25 -87 -42 -186t-25 -213q-9 -134 -33 -134q-45 0 -60 112q-36 249 -36 470q0 165 111 165q41 0 77 -27q40 -28 40 -69zM1081 132q0 -42 -29 -77t-69 -35q-10 0 -218 35q-43 7 -106 17t-148 24q-111 18 -111 58q0 23 116 34l144 6 q162 7 255 33q52 15 66 15q43 0 71 -34q29 -35 29 -76zM364 98q0 -22 -9 -40t-24.5 -30.5t-35.5 -19.5t-42 -7q-43 0 -79 27q-35 29 -35 70q0 44 13 108q5 27 11 54t11 54l42 254q18 113 60 113q27 0 33 -134q4 -82 6.5 -130t3.5 -62q9 -110 30 -189q15 -56 15 -68z" />
<glyph unicode="&#xea;" horiz-adv-x="1212" d="M1122 1597q0 -18 -7 -34t-19.5 -28.5t-28.5 -19.5t-34 -7q-24 0 -59 32q-22 20 -59.5 49t-92.5 68q-100 72 -148.5 120.5t-48.5 73.5q0 19 16 19q18 0 86 -44q48 -32 128.5 -69t194.5 -82q31 -10 45 -23q27 -23 27 -55zM1094 1334q0 -43 -28 -77q-29 -35 -69 -35 q-45 0 -109 13q-26 5 -53 10.5t-54 10.5l-253 42q-114 19 -114 59q0 30 275 41q144 6 239 32q58 15 74 15q40 0 66 -35t26 -76zM597 1801q0 -22 -14 -44q-8 -11 -123 -79q-35 -20 -71 -41t-71 -41q-25 -17 -49.5 -33.5t-49.5 -33.5q-80 -53 -91 -53q-20 0 -20 16 q0 45 149 191q189 184 227 198q15 6 30 6q35 0 59 -25.5t24 -60.5zM925 749q0 -42 -27 -68t-69 -26q-5 0 -14.5 1t-23.5 3q-64 8 -158 21.5t-221 32.5q-115 18 -115 60q0 28 134 34q42 1 83 1.5t83 1.5q99 3 164 19q61 14 66 14q42 0 70 -26t28 -68zM362 1342q0 -5 -32 -118 q-25 -87 -42 -186t-25 -213q-9 -134 -33 -134q-45 0 -60 112q-36 249 -36 470q0 165 111 165q41 0 77 -27q40 -28 40 -69zM1081 132q0 -42 -29 -77t-69 -35q-10 0 -218 35q-43 7 -106 17t-148 24q-111 18 -111 58q0 23 116 34l144 6q162 7 255 33q52 15 66 15q43 0 71 -34 q29 -35 29 -76zM364 98q0 -22 -9 -40t-24.5 -30.5t-35.5 -19.5t-42 -7q-43 0 -79 27q-35 29 -35 70q0 44 13 108q5 27 11 54t11 54l42 254q18 113 60 113q27 0 33 -134q4 -82 6.5 -130t3.5 -62q9 -110 30 -189q15 -56 15 -68z" />
<glyph unicode="&#xeb;" horiz-adv-x="1184" d="M974 1662q0 -30 -10.5 -54t-28.5 -41.5t-42.5 -27t-53.5 -9.5q-60 0 -97 36t-37 96q0 56 39 95q39 40 96 40q53 0 94 -41q40 -40 40 -94zM1094 1334q0 -43 -28 -77q-29 -35 -69 -35q-45 0 -109 13q-26 5 -53 10.5t-54 10.5l-253 42q-114 19 -114 59q0 30 275 41 q144 6 239 32q58 15 74 15q40 0 66 -35t26 -76zM526 1662q0 -56 -41 -95t-97 -39q-53 0 -93 40q-39 40 -39 94q0 53 39 94t93 41q57 0 97 -40q41 -39 41 -95zM925 749q0 -42 -27 -68t-69 -26q-5 0 -14.5 1t-23.5 3q-64 8 -158 21.5t-221 32.5q-115 18 -115 60q0 28 134 34 q42 1 83 1.5t83 1.5q99 3 164 19q61 14 66 14q42 0 70 -26t28 -68zM362 1342q0 -5 -32 -118q-25 -87 -42 -186t-25 -213q-9 -134 -33 -134q-45 0 -60 112q-36 249 -36 470q0 165 111 165q41 0 77 -27q40 -28 40 -69zM1081 132q0 -42 -29 -77t-69 -35q-10 0 -218 35 q-43 7 -106 17t-148 24q-111 18 -111 58q0 23 116 34l144 6q162 7 255 33q52 15 66 15q43 0 71 -34q29 -35 29 -76zM364 98q0 -22 -9 -40t-24.5 -30.5t-35.5 -19.5t-42 -7q-43 0 -79 27q-35 29 -35 70q0 44 13 108q5 27 11 54t11 54l42 254q18 113 60 113q27 0 33 -134 q4 -82 6.5 -130t3.5 -62q9 -110 30 -189q15 -56 15 -68z" />
<glyph unicode="&#xec;" horiz-adv-x="497" d="M400 1522q0 -30 -63 -30q-25 0 -93.5 9t-182.5 28q-230 38 -256 53q-62 35 -62 96q0 46 33 82q31 37 77 37q25 0 87 -42q91 -64 344 -161q116 -45 116 -72zM362 1342q0 -16 -21 -80q-58 -184 -78 -437q-9 -134 -33 -134q-45 0 -60 112q-36 249 -36 468q0 167 111 167 q41 0 77 -27q40 -28 40 -69zM364 98q0 -22 -9 -40t-24.5 -30.5t-35.5 -19.5t-42 -7q-43 0 -79 27q-35 29 -35 70q0 4 6 42t19 110q8 54 21 133t31 185q20 113 60 113q25 0 33 -134q4 -84 6.5 -131.5t3.5 -60.5q10 -110 30 -189q15 -56 15 -68z" />
<glyph unicode="&#xed;" horiz-adv-x="497" d="M759 1679q0 -62 -62 -97q-27 -16 -255 -53q-114 -19 -183.5 -28t-95.5 -9q-64 0 -64 30q0 27 117 72l117 45.5t62 25.5q100 43 171 90q61 42 84 42q44 0 76 -36q33 -36 33 -82zM362 1342q0 -16 -21 -80q-58 -184 -78 -437q-9 -134 -33 -134q-45 0 -60 112 q-36 249 -36 468q0 167 111 167q41 0 77 -27q40 -28 40 -69zM364 98q0 -22 -9 -40t-24.5 -30.5t-35.5 -19.5t-42 -7q-43 0 -79 27q-35 29 -35 70q0 4 6 42t19 110q8 54 21 133t31 185q20 113 60 113q25 0 33 -134q4 -84 6.5 -131.5t3.5 -60.5q10 -110 30 -189q15 -56 15 -68 z" />
<glyph unicode="&#xee;" horiz-adv-x="497" d="M757 1597q0 -17 -7 -33t-18.5 -28.5t-27 -20t-32.5 -7.5q-28 0 -66 31q-14 13 -29 25.5t-29 25.5q-42 30 -83 60t-83 61q-123 96 -123 140q0 19 19 19q15 0 82 -44q46 -31 127 -68.5t198 -82.5q16 -5 44 -21q28 -19 28 -57zM232 1801q0 -22 -15 -44q-7 -12 -123 -80 q-36 -21 -72 -41.5t-71 -40.5q-25 -17 -49 -33.5t-47 -33.5q-79 -52 -90 -52q-20 0 -20 16q0 43 149 192q59 60 107.5 104.5t86.5 75.5q31 23 55 23q38 0 63.5 -24.5t25.5 -61.5zM362 1342q0 -16 -21 -80q-58 -184 -78 -437q-9 -134 -33 -134q-45 0 -60 112q-36 249 -36 468 q0 167 111 167q41 0 77 -27q40 -28 40 -69zM364 98q0 -22 -9 -40t-24.5 -30.5t-35.5 -19.5t-42 -7q-43 0 -79 27q-35 29 -35 70q0 4 6 42t19 110q8 54 21 133t31 185q20 113 60 113q25 0 33 -134q4 -84 6.5 -131.5t3.5 -60.5q10 -110 30 -189q15 -56 15 -68z" />
<glyph unicode="&#xef;" horiz-adv-x="497" d="M610 1662q0 -55 -39 -95q-39 -39 -93 -39q-57 0 -98 38q-41 39 -41 96t39 96q40 39 98 39q56 0 95 -40q39 -41 39 -95zM160 1662q0 -55 -39 -95q-38 -39 -93 -39q-54 0 -94 39q-41 39 -41 95t40 95q40 40 95 40t93 -41q39 -41 39 -94zM362 1342q0 -16 -21 -80 q-58 -184 -78 -437q-9 -134 -33 -134q-45 0 -60 112q-36 249 -36 468q0 167 111 167q41 0 77 -27q40 -28 40 -69zM364 98q0 -22 -9 -40t-24.5 -30.5t-35.5 -19.5t-42 -7q-43 0 -79 27q-35 29 -35 70q0 4 6 42t19 110q8 54 21 133t31 185q20 113 60 113q25 0 33 -134 q4 -84 6.5 -131.5t3.5 -60.5q10 -110 30 -189q15 -56 15 -68z" />
<glyph unicode="&#xf1;" horiz-adv-x="1296" d="M1126 1708q0 -20 -21 -44q-110 -126 -286 -126q-74 0 -165 71q-90 72 -141 72q-90 0 -155 -44q-16 -11 -36.5 -31.5t-46.5 -50.5q-38 -44 -63 -44q-42 0 -42 37q0 108 125 200q115 85 229 85q54 0 144 -72q92 -71 169 -71q97 0 184 54q17 23 47 23q58 0 58 -59z M1161 1338q0 -14 -14 -65q-13 -48 -23 -143.5t-17 -241.5q-8 -131 -34 -131q-38 0 -59 114q-23 132 -41 239t-30 192q-2 13 -3 22.5t-1 15.5q0 42 34 70t77 28q22 0 42.5 -7t35.5 -20.5t24 -32t9 -40.5zM871 755q0 -47 -35 -82q-34 -34 -81 -34q-32 0 -60 18 q-34 23 -147 208q-55 90 -87.5 148t-42.5 84q-8 27 -8 41q0 32 18 32q24 0 104 -84q51 -56 147 -128q60 -46 97.5 -76.5t54.5 -46.5q40 -36 40 -80zM1159 96q0 -38 -38 -67q-37 -28 -78 -28q-111 0 -111 165q0 233 36 469q18 112 61 112q23 0 34 -134q9 -126 28.5 -234.5 t48.5 -202.5q19 -57 19 -80zM362 1342q0 -6 -32 -120q-26 -88 -42.5 -187t-24.5 -210q-9 -134 -33 -134q-45 0 -60 112q-36 249 -36 470q0 165 111 165q41 0 77 -27q40 -28 40 -69zM364 98q0 -22 -9 -40t-24.5 -30.5t-35.5 -19.5t-42 -7q-43 0 -79 27q-35 29 -35 70 q0 44 13 108q5 27 11 54t11 54l42 254q18 113 60 113q27 0 33 -134q4 -82 6.5 -130t3.5 -62q9 -110 30 -189q15 -56 15 -68z" />
<glyph unicode="&#xf2;" horiz-adv-x="1266" d="M781 1522q0 -30 -61 -30q-26 0 -96 9.5t-185 28.5t-178 32t-76 20q-61 34 -61 97q0 45 32 82q33 36 78 36q22 0 84 -42q44 -29 130.5 -69t218.5 -92q114 -45 114 -72zM1176 903q0 -46 -35 -83q-35 -35 -81 -35q-34 0 -57 16q-17 9 -108 168q-28 49 -55.5 98t-56.5 98 q-26 42 -51.5 79.5t-48.5 70.5q-56 76 -56 95q0 28 23 28q60 0 257 -198q74 -75 133 -141t105 -123q31 -38 31 -73zM629 1264q0 -46 -86 -102q-89 -55 -177 -161q-31 -39 -61.5 -78t-61.5 -77q-99 -119 -133 -119q-18 0 -18 24q0 34 48 129l36 64t35 64q46 88 76.5 144.5 t47.5 81.5q99 152 178 152q44 0 80 -39t36 -83zM1145 639q0 -18 -59 -109q-35 -55 -84.5 -163t-115.5 -271q-14 -36 -31 -60q-26 -36 -72 -36q-49 0 -85 33q-35 35 -35 83q0 32 44 82q58 63 156 204q181 259 258 259q24 0 24 -22zM621 126q0 -49 -34 -83q-33 -35 -81 -35 q-31 0 -58 18q-49 33 -136 181q-29 53 -57.5 105t-57.5 104q-8 14 -21 35t-30 48q-56 76 -56 98q0 26 22 26q75 0 338 -309q16 -19 36.5 -40.5t45.5 -46.5q11 -5 26 -12.5t35 -18.5q28 -22 28 -70z" />
<glyph unicode="&#xf3;" horiz-adv-x="1266" d="M1140 1679q0 -62 -59 -97q-26 -15 -254 -52q-115 -19 -185 -28.5t-96 -9.5q-62 0 -62 30q0 27 115 72q74 28 118.5 45.5t60.5 25.5q99 43 169 90q60 42 86 42q44 0 75 -37q32 -37 32 -81zM1176 903q0 -46 -35 -83q-35 -35 -81 -35q-34 0 -57 16q-17 9 -108 168 q-28 49 -55.5 98t-56.5 98q-26 42 -51.5 79.5t-48.5 70.5q-56 76 -56 95q0 28 23 28q60 0 257 -198q74 -75 133 -141t105 -123q31 -38 31 -73zM629 1264q0 -46 -86 -102q-89 -55 -177 -161q-31 -39 -61.5 -78t-61.5 -77q-99 -119 -133 -119q-18 0 -18 24q0 34 48 129l36 64 t35 64q46 88 76.5 144.5t47.5 81.5q99 152 178 152q44 0 80 -39t36 -83zM1145 639q0 -18 -59 -109q-35 -55 -84.5 -163t-115.5 -271q-14 -36 -31 -60q-26 -36 -72 -36q-49 0 -85 33q-35 35 -35 83q0 32 44 82q58 63 156 204q181 259 258 259q24 0 24 -22zM621 126 q0 -49 -34 -83q-33 -35 -81 -35q-31 0 -58 18q-49 33 -136 181q-29 53 -57.5 105t-57.5 104q-8 14 -21 35t-30 48q-56 76 -56 98q0 26 22 26q75 0 338 -309q16 -19 36.5 -40.5t45.5 -46.5q11 -5 26 -12.5t35 -18.5q28 -22 28 -70z" />
<glyph unicode="&#xf4;" horiz-adv-x="1266" d="M1140 1597q0 -33 -27 -61q-25 -28 -59 -28q-26 0 -64 31l-57 51q-42 31 -82.5 61t-82.5 61q-125 98 -125 139q0 19 16 19q18 0 86 -44q90 -59 324 -151q30 -10 44 -23q27 -23 27 -55zM615 1801q0 -21 -14 -44q-11 -14 -122 -79q-35 -20 -71 -41t-72 -41 q-25 -17 -49 -33.5t-49 -33.5q-80 -53 -92 -53q-20 0 -20 16q0 43 150 192q57 57 106 101.5t91 78.5q29 23 57 23q37 0 61 -24.5t24 -61.5zM1176 903q0 -46 -35 -83q-35 -35 -81 -35q-34 0 -57 16q-17 9 -108 168q-28 49 -55.5 98t-56.5 98q-26 42 -51.5 79.5t-48.5 70.5 q-56 76 -56 95q0 28 23 28q60 0 257 -198q74 -75 133 -141t105 -123q31 -38 31 -73zM629 1264q0 -46 -86 -102q-89 -55 -177 -161q-31 -39 -61.5 -78t-61.5 -77q-99 -119 -133 -119q-18 0 -18 24q0 34 48 129l36 64t35 64q46 88 76.5 144.5t47.5 81.5q99 152 178 152 q44 0 80 -39t36 -83zM1145 639q0 -18 -59 -109q-35 -55 -84.5 -163t-115.5 -271q-14 -36 -31 -60q-26 -36 -72 -36q-49 0 -85 33q-35 35 -35 83q0 32 44 82q58 63 156 204q181 259 258 259q24 0 24 -22zM621 126q0 -49 -34 -83q-33 -35 -81 -35q-31 0 -58 18 q-49 33 -136 181q-29 53 -57.5 105t-57.5 104q-8 14 -21 35t-30 48q-56 76 -56 98q0 26 22 26q75 0 338 -309q16 -19 36.5 -40.5t45.5 -46.5q11 -5 26 -12.5t35 -18.5q28 -22 28 -70z" />
<glyph unicode="&#xf5;" horiz-adv-x="1266" d="M1111 1708q0 -18 -23 -44q-110 -126 -285 -126q-74 0 -166 71q-90 72 -140 72q-88 0 -155 -44q-33 -23 -84 -82q-38 -44 -62 -44q-42 0 -42 37q0 108 125 200q115 85 228 85q54 0 146 -72q92 -71 168 -71q97 0 183 54q17 23 47 23q60 0 60 -59zM1176 903q0 -46 -35 -83 q-35 -35 -81 -35q-34 0 -57 16q-17 9 -108 168q-28 49 -55.5 98t-56.5 98q-26 42 -51.5 79.5t-48.5 70.5q-56 76 -56 95q0 28 23 28q60 0 257 -198q74 -75 133 -141t105 -123q31 -38 31 -73zM629 1264q0 -46 -86 -102q-89 -55 -177 -161q-31 -39 -61.5 -78t-61.5 -77 q-99 -119 -133 -119q-18 0 -18 24q0 34 48 129l36 64t35 64q46 88 76.5 144.5t47.5 81.5q99 152 178 152q44 0 80 -39t36 -83zM1145 639q0 -18 -59 -109q-35 -55 -84.5 -163t-115.5 -271q-14 -36 -31 -60q-26 -36 -72 -36q-49 0 -85 33q-35 35 -35 83q0 32 44 82 q58 63 156 204q181 259 258 259q24 0 24 -22zM621 126q0 -49 -34 -83q-33 -35 -81 -35q-31 0 -58 18q-49 33 -136 181q-29 53 -57.5 105t-57.5 104q-8 14 -21 35t-30 48q-56 76 -56 98q0 26 22 26q75 0 338 -309q16 -19 36.5 -40.5t45.5 -46.5q11 -5 26 -12.5t35 -18.5 q28 -22 28 -70z" />
<glyph unicode="&#xf6;" horiz-adv-x="1266" d="M993 1662q0 -56 -41 -95t-97 -39q-54 0 -93 39q-39 40 -39 95q0 53 39 94q41 41 94 41q57 0 97 -40q40 -39 40 -95zM543 1662q0 -30 -10.5 -54t-28.5 -41.5t-42.5 -27t-53.5 -9.5q-60 0 -97 36t-37 96q0 56 39 95q39 40 96 40q53 0 94 -41q40 -40 40 -94zM1176 903 q0 -46 -35 -83q-35 -35 -81 -35q-34 0 -57 16q-17 9 -108 168q-28 49 -55.5 98t-56.5 98q-26 42 -51.5 79.5t-48.5 70.5q-56 76 -56 95q0 28 23 28q60 0 257 -198q74 -75 133 -141t105 -123q31 -38 31 -73zM629 1264q0 -46 -86 -102q-89 -55 -177 -161q-31 -39 -61.5 -78 t-61.5 -77q-99 -119 -133 -119q-18 0 -18 24q0 34 48 129l36 64t35 64q46 88 76.5 144.5t47.5 81.5q99 152 178 152q44 0 80 -39t36 -83zM1145 639q0 -18 -59 -109q-35 -55 -84.5 -163t-115.5 -271q-14 -36 -31 -60q-26 -36 -72 -36q-49 0 -85 33q-35 35 -35 83q0 32 44 82 q58 63 156 204q181 259 258 259q24 0 24 -22zM621 126q0 -49 -34 -83q-33 -35 -81 -35q-31 0 -58 18q-49 33 -136 181q-29 53 -57.5 105t-57.5 104q-8 14 -21 35t-30 48q-56 76 -56 98q0 26 22 26q75 0 338 -309q16 -19 36.5 -40.5t45.5 -46.5q11 -5 26 -12.5t35 -18.5 q28 -22 28 -70z" />
<glyph unicode="&#xf7;" d="M611 1083q0 -47 -33 -80t-80 -33q-45 0 -79 34t-34 79q0 49 32.5 80.5t81.5 31.5q51 0 81.5 -31.5t30.5 -80.5zM847 833q0 -42 -33 -73q-32 -31 -75 -31q-5 0 -15.5 1t-26.5 3l-175 25t-246 35q-126 19 -126 66q0 30 147 38q48 1 118.5 3.5t165.5 7.5q11 1 33 5t54 12 q60 12 78 12q21 0 39.5 -8t32 -22.5t21.5 -33.5t8 -40zM611 577q0 -49 -30.5 -80.5t-81.5 -31.5q-49 0 -81.5 31.5t-32.5 80.5q0 45 34 78q34 34 79 34q24 0 44.5 -8.5t35.5 -23.5t24 -35.5t9 -44.5z" />
<glyph unicode="&#xf8;" horiz-adv-x="1266" d="M1176 903q0 -47 -36 -83q-35 -36 -82 -36q-28 0 -54 17q-16 10 -123 200q-28 -34 -58 -76.5t-63 -94.5q-66 -103 -87 -103q-25 0 -25 37q0 81 147 387q-22 35 -50 75.5t-62 86.5q-29 38 -42.5 62t-13.5 35q0 28 23 28q50 0 211 -156q59 110 124 110q45 0 83 -37 q39 -36 39 -80q0 -34 -40 -75q-17 -16 -33 -31.5t-33 -30.5q33 -35 56 -60t36 -39q34 -38 53 -63t23 -38q7 -17 7 -35zM629 1264q0 -46 -86 -102q-89 -55 -177 -161q-31 -39 -61.5 -78t-61.5 -77q-99 -119 -133 -119q-18 0 -18 24q0 34 48 129l36 64t35 64q46 88 76.5 144.5 t47.5 81.5q99 152 178 152q44 0 80 -39t36 -83zM1145 639q0 -20 -59 -109q-37 -57 -86.5 -165t-113.5 -269q-14 -36 -31 -60q-26 -36 -72 -36q-49 0 -85 33q-35 35 -35 83q0 32 44 82q58 63 156 204q181 259 258 259q24 0 24 -22zM621 126q0 -49 -34 -83q-35 -35 -82 -35 q-64 0 -131 102q-21 -66 -90 -66q-48 0 -86 32q-38 33 -38 80q0 32 36 83l60 75q-22 41 -49 87t-61 98q-8 12 -17 24t-17 23q-22 31 -22 51q0 26 22 26q63 0 233 -188q24 33 141 186q56 74 89 74q26 0 26 -22q0 -24 -69 -169q-23 -46 -45 -91t-45 -91q46 -64 90 -95 q16 -8 31.5 -17t31.5 -18q26 -17 26 -66z" />
<glyph unicode="&#xf9;" horiz-adv-x="1330" d="M1195 1332q0 -11 -4.5 -45t-12.5 -92q-6 -43 -15.5 -145t-22.5 -267q-7 -88 -35 -88q-41 0 -62 122q-14 81 -27.5 163t-24.5 167q-10 67 -14.5 113.5t-4.5 73.5q0 47 37 77q35 29 82 29q104 0 104 -108zM815 1522q0 -30 -62 -30q-26 0 -95.5 9.5t-184.5 28.5 q-116 19 -179.5 32t-76.5 20q-61 34 -61 97q0 45 32 82q31 36 77 36q21 0 84 -42q91 -59 350 -161q116 -47 116 -72zM370 1338q0 -19 -27 -82q-22 -54 -35 -141.5t-17 -212.5q-9 -256 -49 -256q-34 0 -52 119q-9 57 -18 113t-18 113q-10 66 -15 122.5t-5 104.5 q0 220 116 220q45 0 81 -27q39 -29 39 -73zM1191 639q0 -21 -61 -109q-43 -64 -93 -171.5t-107 -262.5q-7 -19 -14 -34t-15 -26q-26 -36 -73 -36q-49 0 -84 34q-35 35 -35 82q0 34 42 82q25 29 56 68.5t69 90.5q45 60 75 100.5t47 61.5q115 142 166 142q27 0 27 -22z M667 126q0 -48 -34 -83q-35 -35 -80 -35q-32 0 -60 18q-46 33 -135 182l-117 210q-17 28 -51 81q-56 76 -56 98q0 26 22 26q80 0 337 -309q28 -33 84 -87q11 -5 25.5 -12.5t34.5 -18.5q30 -23 30 -70z" />
<glyph unicode="&#xfa;" horiz-adv-x="1330" d="M1174 1679q0 -63 -61 -97q-26 -15 -256 -53q-114 -19 -183.5 -28t-95.5 -9q-63 0 -63 30q0 27 116 72l117 45.5t62 25.5q99 43 169 90q61 42 86 42q45 0 77 -36q32 -37 32 -82zM1195 1332q0 -11 -4.5 -45t-12.5 -92q-6 -43 -15.5 -145t-22.5 -267q-7 -88 -35 -88 q-41 0 -62 122q-14 81 -27.5 163t-24.5 167q-10 67 -14.5 113.5t-4.5 73.5q0 47 37 77q35 29 82 29q104 0 104 -108zM370 1338q0 -19 -27 -82q-22 -54 -35 -141.5t-17 -212.5q-9 -256 -49 -256q-34 0 -52 119q-9 57 -18 113t-18 113q-10 66 -15 122.5t-5 104.5 q0 220 116 220q45 0 81 -27q39 -29 39 -73zM1191 639q0 -21 -61 -109q-43 -64 -93 -171.5t-107 -262.5q-7 -19 -14 -34t-15 -26q-26 -36 -73 -36q-49 0 -84 34q-35 35 -35 82q0 34 42 82q25 29 56 68.5t69 90.5q45 60 75 100.5t47 61.5q115 142 166 142q27 0 27 -22z M667 126q0 -48 -34 -83q-35 -35 -80 -35q-32 0 -60 18q-46 33 -135 182l-117 210q-17 28 -51 81q-56 76 -56 98q0 26 22 26q80 0 337 -309q28 -33 84 -87q11 -5 25.5 -12.5t34.5 -18.5q30 -23 30 -70z" />
<glyph unicode="&#xfb;" horiz-adv-x="1330" d="M1172 1597q0 -18 -7 -34t-19 -28.5t-28 -19.5t-34 -7q-24 0 -59 32q-22 20 -60 50t-92 68q-103 72 -150.5 120t-47.5 73q0 19 16 19q9 0 33 -11q7 -4 20 -12t33 -21q45 -30 129 -69q109 -43 239 -105q27 -23 27 -55zM1195 1332q0 -11 -4.5 -45t-12.5 -92 q-6 -43 -15.5 -145t-22.5 -267q-7 -88 -35 -88q-41 0 -62 122q-14 81 -27.5 163t-24.5 167q-10 67 -14.5 113.5t-4.5 73.5q0 47 37 77q35 29 82 29q104 0 104 -108zM648 1801q0 -22 -13 -44q-6 -12 -125 -80q-36 -21 -72 -41.5t-72 -40.5q-25 -17 -49 -33.5t-49 -33.5 q-77 -52 -91 -52q-19 0 -19 16q0 43 150 192q57 57 106 101.5t91 78.5q29 23 56 23q87 0 87 -86zM370 1338q0 -19 -27 -82q-22 -54 -35 -141.5t-17 -212.5q-9 -256 -49 -256q-34 0 -52 119q-9 57 -18 113t-18 113q-10 66 -15 122.5t-5 104.5q0 220 116 220q45 0 81 -27 q39 -29 39 -73zM1191 639q0 -21 -61 -109q-43 -64 -93 -171.5t-107 -262.5q-7 -19 -14 -34t-15 -26q-26 -36 -73 -36q-49 0 -84 34q-35 35 -35 82q0 34 42 82q25 29 56 68.5t69 90.5q45 60 75 100.5t47 61.5q115 142 166 142q27 0 27 -22zM667 126q0 -48 -34 -83 q-35 -35 -80 -35q-32 0 -60 18q-46 33 -135 182l-117 210q-17 28 -51 81q-56 76 -56 98q0 26 22 26q80 0 337 -309q28 -33 84 -87q11 -5 25.5 -12.5t34.5 -18.5q30 -23 30 -70z" />
<glyph unicode="&#xfc;" horiz-adv-x="1330" d="M1025 1662q0 -56 -41 -95t-97 -39q-53 0 -93 40q-39 40 -39 94q0 53 39 94t93 41q57 0 97 -40q41 -39 41 -95zM1195 1332q0 -11 -4.5 -45t-12.5 -92q-6 -43 -15.5 -145t-22.5 -267q-7 -88 -35 -88q-41 0 -62 122q-14 81 -27.5 163t-24.5 167q-10 67 -14.5 113.5 t-4.5 73.5q0 47 37 77q35 29 82 29q104 0 104 -108zM575 1662q0 -56 -41 -95t-96 -39t-94 39q-39 40 -39 95q0 53 39 94q41 41 95 41q56 0 96 -40q40 -39 40 -95zM370 1338q0 -19 -27 -82q-22 -54 -35 -141.5t-17 -212.5q-9 -256 -49 -256q-34 0 -52 119q-9 57 -18 113 t-18 113q-10 66 -15 122.5t-5 104.5q0 220 116 220q45 0 81 -27q39 -29 39 -73zM1191 639q0 -21 -61 -109q-43 -64 -93 -171.5t-107 -262.5q-7 -19 -14 -34t-15 -26q-26 -36 -73 -36q-49 0 -84 34q-35 35 -35 82q0 34 42 82q25 29 56 68.5t69 90.5q45 60 75 100.5t47 61.5 q115 142 166 142q27 0 27 -22zM667 126q0 -48 -34 -83q-35 -35 -80 -35q-32 0 -60 18q-46 33 -135 182l-117 210q-17 28 -51 81q-56 76 -56 98q0 26 22 26q80 0 337 -309q28 -33 84 -87q11 -5 25.5 -12.5t34.5 -18.5q30 -23 30 -70z" />
<glyph unicode="&#xfd;" horiz-adv-x="901" d="M945 1679q0 -63 -60 -97q-26 -15 -254 -52q-115 -19 -185 -28.5t-96 -9.5q-62 0 -62 30q0 27 116 72q72 28 116.5 45.5t61.5 25.5q99 43 169 90q60 42 84 42q46 0 77 -37q33 -36 33 -81zM919 1324q0 -27 -40 -79q-20 -26 -55.5 -78t-87.5 -133q-85 -133 -149 -206 q-58 -67 -94 -67q-28 0 -28 24q0 9 14 37q8 18 17.5 35.5t20.5 34.5q43 74 87.5 185t90.5 261q4 11 10 26.5t16 35.5q26 38 80 38q47 0 82 -34q36 -35 36 -80zM419 789q0 -32 -23 -32q-62 0 -172 167q-35 57 -69.5 112.5t-69.5 112.5q-7 9 -18 22t-25 30q-26 24 -39.5 36.5 t-15.5 14.5q-28 31 -28 68q0 44 31 81q30 37 74 37q85 0 146 -115q36 -67 85 -239q46 -159 75 -201q49 -77 49 -94zM555 98q0 -43 -35 -72q-31 -25 -76 -25q-42 0 -76 26q-36 28 -36 71q0 3 3 36q8 78 21.5 194.5t32.5 272.5q16 114 61 114q26 0 34 -132q8 -117 21 -230 q15 -108 36 -187q14 -51 14 -68z" />
<glyph unicode="&#xff;" horiz-adv-x="873" d="M797 1662q0 -60 -38 -96t-98 -36q-58 0 -95.5 36t-37.5 96q0 56 39 95q39 40 95 40q54 0 95 -41q40 -40 40 -94zM347 1662q0 -30 -10.5 -54t-28.5 -41.5t-42.5 -27t-53.5 -9.5q-60 0 -97 36t-37 96q0 56 39 95q39 40 96 40q53 0 94 -41q40 -40 40 -94zM919 1324 q0 -27 -40 -79q-20 -26 -55.5 -78t-87.5 -133q-85 -133 -149 -206q-58 -67 -94 -67q-28 0 -28 24q0 9 14 37q8 18 17.5 35.5t20.5 34.5q43 74 87.5 185t90.5 261q4 11 10 26.5t16 35.5q26 38 80 38q47 0 82 -34q36 -35 36 -80zM419 789q0 -32 -23 -32q-62 0 -172 167 q-35 57 -69.5 112.5t-69.5 112.5q-7 9 -18 22t-25 30q-26 24 -39.5 36.5t-15.5 14.5q-28 31 -28 68q0 44 31 81q30 37 74 37q85 0 146 -115q36 -67 85 -239q46 -159 75 -201q49 -77 49 -94zM555 98q0 -43 -35 -72q-31 -25 -76 -25q-42 0 -76 26q-36 28 -36 71q0 3 3 36 q8 78 21.5 194.5t32.5 272.5q16 114 61 114q26 0 34 -132q8 -117 21 -230q15 -108 36 -187q14 -51 14 -68z" />
<glyph unicode="&#x152;" horiz-adv-x="2315" d="M2165 1482q0 -48 -31 -85q-30 -38 -77 -38q-25 0 -55 3t-66 10l-120 24l-282 46q-126 22 -126 66q0 36 290 45q54 2 100.5 5.5t85.5 10.5q7 1 29 6.5t59 15.5q60 15 83 15q46 0 78 -39q32 -38 32 -85zM1978 833q0 -42 -33 -73q-32 -31 -75 -31q-6 0 -16.5 1t-25.5 3 q-71 10 -176 25t-246 35q-126 19 -126 66q0 31 148 38l183 3q108 3 182 21q68 16 80 16q42 0 73 -31q32 -32 32 -73zM1350 1492q0 -21 -22 -90t-38.5 -144.5t-29.5 -159.5q46 -53 46 -106q0 -63 -65 -102q-5 -123 -37 -123q-48 0 -64 112q-46 15 -130 173 q-70 132 -132 233.5t-119 174.5q-62 80 -62 108q0 29 24 29q82 0 381 -320q-2 57 -3.5 86.5t-1.5 33.5q0 198 125 198q49 0 87 -26q41 -29 41 -77zM2149 146q0 -49 -31 -86q-30 -38 -77 -38q-25 0 -55 3.5t-66 10.5q-29 6 -59 12t-61 11l-283 47q-125 23 -125 66 q0 36 290 45q54 1 100.5 5t85.5 11q7 1 28.5 6.5t57.5 15.5q59 14 85 14q46 0 78 -38t32 -85zM699 1404q0 -39 -32 -68q-5 -5 -21 -16t-43 -28q-108 -68 -195 -179l-168 -210q-77 -95 -118 -95q-21 0 -21 35q0 27 57 137q19 35 38 71t38 71q48 92 82 154t57 95 q111 169 198 169q49 0 88 -44q40 -43 40 -92zM1352 110q0 -47 -37 -78t-84 -31q-49 0 -86 28q-40 31 -40 79q0 28 24 174q10 60 21 122t22 128q-34 -57 -80.5 -162.5t-106.5 -263.5q-10 -23 -17.5 -40t-14.5 -28q-27 -38 -79 -38q-57 0 -97 37t-40 93q0 36 48 89 q57 63 174 227q108 150 177 221q43 43 78 60q13 30 40 30q30 0 40 -160q2 -51 4 -100.5t4 -100.5q5 -60 13.5 -112.5t20.5 -100.5q16 -58 16 -73zM692 146q0 -52 -37 -95t-87 -43q-37 0 -71 22q-63 40 -173 244q-25 49 -65 119t-97 162q-63 82 -63 108q0 30 25 30 q66 0 216 -162q50 -57 98.5 -112.5t97.5 -112.5q23 -24 55 -52q101 -38 101 -108z" />
<glyph unicode="&#x153;" horiz-adv-x="2083" d="M1950 1334q0 -42 -28 -76q-30 -36 -71 -36q-22 0 -49.5 3t-59.5 10l-108 21l-254 42q-114 19 -114 59q0 30 273 41q147 6 245 32q60 16 65 16q42 0 71 -35q30 -35 30 -77zM1780 749q0 -20 -8 -37t-21.5 -30t-31.5 -20t-38 -7q-4 0 -13 1t-24 3q-128 16 -378 54 q-113 18 -113 60q0 29 131 34q86 -2 257 9q8 1 25.5 5t46.5 11q49 11 72 11q19 0 36.5 -7.5t30.5 -20.5t20.5 -30t7.5 -36zM1214 1342q0 -19 -23 -99q-29 -98 -30 -107q-17 -71 -27 -147q42 -51 42 -98q0 -54 -59 -90q-5 -110 -33 -110q-42 0 -57 100q-15 6 -24 12 q-19 12 -108 167q-28 49 -55 97.5t-55 97.5q-23 38 -48.5 75t-53.5 74q-56 74 -56 96q0 28 23 28q75 0 343 -289q-2 57 -3.5 84t-1.5 25q0 179 112 179q43 0 77 -26q37 -27 37 -69zM1933 132q0 -41 -26 -76q-30 -36 -70 -36q-5 0 -58.5 9t-158.5 26q-43 7 -106 17t-148 24 q-114 18 -114 58q0 23 117 34q36 2 72 3t73 3q164 7 256 33q52 15 65 15q42 0 70 -34t28 -76zM629 1264q0 -46 -86 -102q-89 -55 -177 -161q-31 -39 -61.5 -78t-61.5 -77q-99 -119 -133 -119q-18 0 -18 24q0 34 48 129l36 64t35 64q46 88 76.5 144.5t47.5 81.5 q99 152 178 152q44 0 80 -39t36 -83zM1216 98q0 -40 -35 -69q-34 -28 -76 -28q-110 0 -110 116q0 3 5 35.5t15 95.5q9 55 18.5 112t20.5 117q-44 -77 -168 -381q-39 -96 -103 -96q-49 0 -84 34q-36 34 -36 82q0 17 10.5 37t33.5 45q58 61 156 204q146 209 229 253 q14 26 36 26q12 0 20 -27q16 -51 19 -147q2 -74 3.5 -111.5t1.5 -39.5q10 -118 30 -190q14 -51 14 -68zM621 126q0 -49 -34 -83q-33 -35 -81 -35q-31 0 -58 18q-25 17 -59 62t-77 119q-29 53 -57.5 105t-57.5 105q-8 14 -21 35t-30 47q-56 74 -56 98q0 26 22 26 q77 0 338 -309q16 -20 36.5 -41.5t45.5 -45.5q11 -5 26 -12.5t35 -18.5q28 -22 28 -70z" />
<glyph unicode="&#x178;" horiz-adv-x="970" d="M885 1847q0 -63 -45 -106q-43 -43 -107 -43q-61 0 -105 44q-43 43 -43 105t44 106q46 44 105 44q63 0 107 -44t44 -106zM385 1847q0 -63 -45 -106q-43 -43 -106 -43q-61 0 -105 44q-43 43 -43 105t44 106q46 44 105 44q62 0 106 -44t44 -106zM1021 1472q0 -32 -45 -90 q-49 -65 -158 -233q-96 -151 -162.5 -227.5t-108.5 -76.5q-29 0 -29 23q0 24 57 125q98 167 198 493q8 27 28 70q25 42 84 42q55 0 95 -37q41 -36 41 -89zM465 877q0 -37 -23 -37q-41 0 -118 83q-28 30 -62.5 81.5t-76.5 125.5q-40 72 -75 122.5t-64 81.5q-15 14 -30 29 t-31 29q-32 37 -32 75q0 48 36 89q35 41 83 41q89 0 158 -127q43 -78 100 -265q56 -181 82 -224q8 -12 16.5 -24.5t17.5 -25.5q19 -29 19 -54zM617 110q0 -49 -38 -79q-38 -29 -87 -29q-48 0 -83 28q-39 31 -39 78q0 2 1 12.5t3 29.5l22 217q5 51 14.5 126t22.5 176 q19 126 66 126q30 0 38 -147q18 -295 64 -465q16 -60 16 -73z" />
<glyph unicode="&#x2c6;" horiz-adv-x="1426" d="M1277 1776q0 -21 -7.5 -39t-21 -32t-31.5 -22t-39 -8q-25 0 -65 37q-47 41 -170 128q-112 79 -165 133t-53 84q0 20 18 20q22 0 94 -48q56 -37 145.5 -78t214.5 -89q9 -4 21.5 -10t29.5 -15q29 -20 29 -61zM693 2001q0 -25 -14 -48q-5 -8 -40 -30t-99 -59 q-41 -23 -81 -46l-80 -46q-37 -23 -68 -43.5t-57 -40.5q-65 -49 -82 -49q-22 0 -22 18q0 52 167 216q123 123 218 198q34 26 62 26q19 0 36.5 -7.5t31 -21t21 -31t7.5 -36.5z" />
<glyph unicode="&#x2dc;" horiz-adv-x="1362" d="M1212 1898q0 -21 -23 -49q-120 -139 -318 -139q-81 0 -184 80q-101 80 -155 80q-155 0 -246 -115q-7 -8 -16.5 -21t-23.5 -30q-24 -25 -46 -25q-50 0 -50 40q0 122 138 224q125 94 253 94q61 0 162 -80q103 -80 187 -80q107 0 204 61q21 25 53 25q65 0 65 -65z" />
<glyph unicode="&#x2000;" horiz-adv-x="1048" />
<glyph unicode="&#x2001;" horiz-adv-x="2097" />
<glyph unicode="&#x2002;" horiz-adv-x="1048" />
<glyph unicode="&#x2003;" horiz-adv-x="2097" />
<glyph unicode="&#x2004;" horiz-adv-x="699" />
<glyph unicode="&#x2005;" horiz-adv-x="524" />
<glyph unicode="&#x2006;" horiz-adv-x="349" />
<glyph unicode="&#x2007;" horiz-adv-x="349" />
<glyph unicode="&#x2008;" horiz-adv-x="262" />
<glyph unicode="&#x2009;" horiz-adv-x="419" />
<glyph unicode="&#x200a;" horiz-adv-x="116" />
<glyph unicode="&#x2010;" d="M847 833q0 -42 -33 -73q-32 -31 -75 -31q-5 0 -15.5 1t-26.5 3l-175 25t-246 35q-126 19 -126 66q0 30 147 38q48 1 118.5 3.5t165.5 7.5q11 1 33 5t54 12q60 12 78 12q21 0 39.5 -8t32 -22.5t21.5 -33.5t8 -40z" />
<glyph unicode="&#x2011;" d="M847 833q0 -42 -33 -73q-32 -31 -75 -31q-5 0 -15.5 1t-26.5 3l-175 25t-246 35q-126 19 -126 66q0 30 147 38q48 1 118.5 3.5t165.5 7.5q11 1 33 5t54 12q60 12 78 12q21 0 39.5 -8t32 -22.5t21.5 -33.5t8 -40z" />
<glyph unicode="&#x2012;" d="M847 833q0 -42 -33 -73q-32 -31 -75 -31q-5 0 -15.5 1t-26.5 3l-175 25t-246 35q-126 19 -126 66q0 30 147 38q48 1 118.5 3.5t165.5 7.5q11 1 33 5t54 12q60 12 78 12q21 0 39.5 -8t32 -22.5t21.5 -33.5t8 -40z" />
<glyph unicode="&#x2013;" d="M847 833q0 -42 -33 -73q-32 -31 -75 -31q-5 0 -15.5 1t-26.5 3l-175 25t-246 35q-126 19 -126 66q0 30 147 38q48 1 118.5 3.5t165.5 7.5q11 1 33 5t54 12q60 12 78 12q21 0 39.5 -8t32 -22.5t21.5 -33.5t8 -40z" />
<glyph unicode="&#x2014;" horiz-adv-x="1197" d="M1046 833q0 -42 -33 -73q-31 -31 -74 -31q-1 0 -11.5 1t-30.5 3q-209 16 -621 60q-126 16 -126 66q0 30 147 38q48 1 118.5 1.5t165.5 2.5l141 3q41 2 75.5 6t63.5 11q70 16 83 16q45 0 73.5 -29.5t28.5 -74.5z" />
<glyph unicode="&#x2018;" horiz-adv-x="599" d="M450 1520q0 -34 -4.5 -75.5t-14.5 -91.5q-14 -78 -21 -119.5t-8 -47.5q-1 -17 -4.5 -40.5t-11.5 -55.5q-40 -91 -139 -91q-62 0 -106 44q-43 43 -43 106q0 68 127 255q130 193 192 193q33 0 33 -77z" />
<glyph unicode="&#x2019;" horiz-adv-x="599" d="M450 1448q0 -69 -128 -257q-131 -192 -192 -192q-32 0 -32 77q0 67 18 168q8 42 15 83.5t15 83.5q1 16 5 39.5t11 55.5q37 91 135 91q64 0 108 -43q45 -44 45 -106z" />
<glyph unicode="&#x201a;" horiz-adv-x="599" d="M450 150q0 -68 -128 -255q-131 -191 -192 -191q-32 0 -32 77q0 66 18 167l30 165q1 16 5 39.5t11 55.5q37 91 135 91q64 0 108 -43q45 -44 45 -106z" />
<glyph unicode="&#x201c;" horiz-adv-x="999" d="M848 1520q0 -37 -9 -103t-26 -163q-3 -31 -10 -72t-18 -92q-39 -91 -137 -91q-64 0 -107 43q-44 44 -44 107q0 68 128 256q130 192 192 192q31 0 31 -77zM450 1520q0 -34 -4.5 -75.5t-14.5 -91.5q-14 -78 -21 -119.5t-8 -47.5q-1 -17 -4.5 -40.5t-11.5 -55.5 q-40 -91 -139 -91q-62 0 -106 44q-43 43 -43 106q0 68 127 255q130 193 192 193q33 0 33 -77z" />
<glyph unicode="&#x201d;" horiz-adv-x="999" d="M848 1448q0 -69 -126 -256q-130 -193 -192 -193q-33 0 -33 80q0 75 36 263q16 79 16 106q0 29 12 58q39 91 136 91q64 0 107 -43q44 -44 44 -106zM450 1448q0 -69 -128 -257q-131 -192 -192 -192q-32 0 -32 77q0 67 18 168q8 42 15 83.5t15 83.5q1 16 5 39.5t11 55.5 q37 91 135 91q64 0 108 -43q45 -44 45 -106z" />
<glyph unicode="&#x201e;" horiz-adv-x="999" d="M848 150q0 -67 -127 -254q-132 -192 -189 -192q-35 0 -35 78q0 65 36 262q4 33 10.5 74t17.5 90q39 90 136 90q64 0 108 -42q43 -42 43 -106zM450 150q0 -68 -128 -255q-131 -191 -192 -191q-32 0 -32 77q0 66 18 167l30 165q1 16 5 39.5t11 55.5q37 91 135 91 q64 0 108 -43q45 -44 45 -106z" />
<glyph unicode="&#x2022;" horiz-adv-x="1298" d="M1149 799q0 -205 -146 -354q-145 -148 -351 -148q-208 0 -356 146q-146 146 -146 356q0 209 147 355q148 146 356 146q206 0 351 -148t145 -353z" />
<glyph unicode="&#x2026;" horiz-adv-x="1398" d="M1248 150q0 -59 -44 -105q-44 -45 -105 -45q-62 0 -106 44t-44 106t44 106q43 43 106 43q61 0 105 -44t44 -105zM848 150q0 -62 -44 -106t-107 -44q-61 0 -105 44q-43 44 -43 106q0 61 44 105t104 44q64 0 107 -43q44 -44 44 -106zM450 150q0 -60 -45 -105 q-44 -45 -105 -45q-62 0 -106 44t-44 106t44 106q43 43 106 43q61 0 105 -44q45 -44 45 -105z" />
<glyph unicode="&#x202f;" horiz-adv-x="419" />
<glyph unicode="&#x2039;" horiz-adv-x="899" d="M749 1404q0 -40 -30 -68q-5 -4 -21 -15t-45 -29q-107 -68 -196 -179l-167 -210q-77 -95 -117 -95q-20 0 -20 27q0 37 131 287q100 193 138 249q109 169 199 169q47 0 88 -44q40 -43 40 -92zM742 147q0 -52 -37 -96q-38 -44 -88 -44q-20 0 -38 7q-79 27 -205 260 q-26 51 -66.5 120.5t-95.5 160.5q-62 83 -62 108q0 30 24 30q66 0 236 -185q58 -64 115.5 -127.5t115.5 -126.5q101 -38 101 -107z" />
<glyph unicode="&#x203a;" horiz-adv-x="909" d="M759 1003q0 -54 -38 -92t-92 -38q-33 0 -59 17q-31 20 -107 162q-75 137 -137 238.5t-114 169.5q-62 80 -62 108q0 29 24 29q63 0 284 -221q85 -86 151.5 -158.5t115.5 -133.5q34 -41 34 -81zM725 711q0 -24 -66 -124q-45 -68 -99.5 -187.5t-121.5 -293.5q-5 -12 -13 -29 t-19 -39q-27 -38 -78 -38q-58 0 -98 37t-40 93q0 36 48 89q30 33 73.5 89.5t100.5 137.5q204 289 285 289q28 0 28 -24z" />
<glyph unicode="&#x205f;" horiz-adv-x="524" />
<glyph unicode="&#x2122;" horiz-adv-x="1344" d="M1128 1286q0 -11 -9 -11q-30 0 -97 165q-37 90 -37 92q0 47 46 47q32 0 42 -25q5 -11 6 -28q6 -65 36 -194q13 -36 13 -46zM974 1526q0 -6 -16 -25q-10 -12 -15.5 -18.5t-6.5 -7.5q-11 -24 -23 -48t-24 -47q-38 -72 -60 -72q-10 0 -10 12q0 4 12 42q7 32 14 63l14 62 q25 91 66 91q49 0 49 -52zM1195 1016q0 -43 -41 -43q-33 0 -49 31q-11 20 -22 117q-5 42 -7.5 72.5t-2.5 50.5q0 33 13 33q10 0 47 -100q62 -165 62 -161zM808 1286q0 -11 -9 -11q-26 0 -70 101q-64 146 -64 156q0 47 46 47q32 0 42 -25q1 -2 2 -9.5t2 -18.5 q10 -119 38 -194q13 -36 13 -46zM655 1526q0 -6 -17 -26q-11 -12 -16.5 -18.5t-6.5 -7.5q-23 -47 -47 -94q-38 -72 -59 -72q-10 0 -10 12q0 4 12 42q7 32 14 63t14 63q25 90 67 90q49 0 49 -52zM867 1023q0 -46 -44 -46q-52 0 -52 75q0 26 2 53.5t6 56.5q12 88 26 88 q10 0 18 -36q2 -8 8.5 -31.5t17.5 -62.5q18 -59 18 -97zM515 1520q0 -46 -42 -46q-7 0 -54 10q-44 9 -215 18q-54 3 -54 14q0 54 270 54q95 0 95 -50zM377 1442q0 -18 -21 -150q-9 -55 -15 -55q-26 0 -44 90q-7 35 -10 63.5t-3 51.5q0 43 47 43q46 0 46 -43zM561 1279 q0 -32 -15 -93q-14 -62 -14 -91q0 -6 1 -16t1.5 -20.5t1.5 -21t1 -16.5q0 -43 -45 -43q-46 0 -46 53q0 47 27 116q60 155 78 155q10 0 10 -23zM377 1014q0 -42 -44 -42q-51 0 -51 71q0 37 15 144q7 46 25 46q7 0 13 -41q2 -14 3.5 -26.5t3.5 -25.5q2 -12 21 -64 q14 -47 14 -62z" />
<glyph unicode="&#xe000;" horiz-adv-x="1440" d="M0 1440h1440v-1440h-1440v1440z" />
</font>
</defs>
</svg>
