<?xml version="1.0" standalone="no"?>
<!DOCTYPE svg PUBLIC "-//W3C//DTD SVG 1.1//EN" "http://www.w3.org/Graphics/SVG/1.1/DTD/svg11.dtd" >
<svg xmlns="http://www.w3.org/2000/svg">
<metadata>
This is a custom SVG webfont generated by Font Squirrel.
Copyright   : Copyright c 2010 by Atelier Carvalho Bernau All rights reserved
Designer    : Atelier Carvalho Bernau with Bernd Volmer
Foundry     : Atelier Carvalho Bernau with Bernd Volmer
Foundry URL : httpwwwcarvalhobernaucom
</metadata>
<defs>
<font id="webfontUP15foyJ" horiz-adv-x="260" >
<font-face units-per-em="1000" ascent="831" descent="-169" />
<missing-glyph horiz-adv-x="200" />
<glyph unicode=" "  horiz-adv-x="200" />
<glyph unicode="&#x09;" horiz-adv-x="200" />
<glyph unicode="&#xa0;" horiz-adv-x="200" />
<glyph unicode="!" horiz-adv-x="272" d="M55 487v176h162v-176l-21 -272h-120zM56 0v154h160v-154h-160z" />
<glyph unicode="&#x22;" horiz-adv-x="362" d="M25 418v320h136v-320h-136zM201 418v320h136v-320h-136z" />
<glyph unicode="#" horiz-adv-x="551" d="M20 153v124h97l22 109h-71v124h97l31 153h116l-31 -153h64l31 153h116l-31 -153h70v-124h-96l-22 -109h71v-124h-96l-31 -153h-117l31 153h-63l-31 -153h-117l31 153h-71zM233 277h64l22 109h-64z" />
<glyph unicode="$" horiz-adv-x="449" d="M25 212h135q-3 -82 36 -104v153l-33 17q-135 71 -135 212q0 81 47.5 129t120.5 57v90h58v-90q173 -18 168 -226h-136q3 83 -32 103v-155l38 -21q45 -25 73 -50t40.5 -51t16 -46.5t3.5 -49.5q0 -75 -42 -130.5t-129 -64.5v-105h-58v105q-176 15 -171 227zM161 499 q0 -48 35 -68v126q-35 -10 -35 -58zM254 105q34 13 34 61q0 45 -34 64v-125z" />
<glyph unicode="%" horiz-adv-x="617" d="M25 471v81q0 66 35 98.5t87 32.5t87 -32.5t35 -98.5v-81q0 -66 -34.5 -98.5t-87.5 -32.5t-87.5 32t-34.5 99zM65 0l386 663h103l-388 -663h-101zM126 468q0 -31 21 -31t21 31v86q0 32 -21 32t-21 -32v-86zM348 111v81q0 66 35 98.5t87 32.5t87 -32.5t35 -98.5v-81 q0 -66 -34.5 -98.5t-87.5 -32.5t-87.5 32t-34.5 99zM449 108q0 -31 21 -31t21 31v86q0 32 -21 32t-21 -32v-86z" />
<glyph unicode="&#x26;" horiz-adv-x="561" d="M20 181q0 109 106 168q-43 50 -57.5 83.5t-14.5 71.5q0 78 51.5 127.5t133.5 49.5q83 0 134.5 -48t51.5 -122q0 -52 -25 -93t-84 -84l65 -79q11 41 11 87h122q5 -96 -42 -194q16 -13 37 -13h37v-135h-38q-50 0 -74 6.5t-47 28.5q-66 -55 -148 -55q-112 0 -165.5 56.5 t-53.5 144.5zM178 193q0 -38 22 -56.5t57 -18.5q26 0 48 13l-102 123q-25 -24 -25 -61zM189 499q0 -19 9.5 -34t37.5 -47q30 22 41 39t11 41q0 21 -13 35t-35 14t-36.5 -13t-14.5 -35z" />
<glyph unicode="'" horiz-adv-x="196" d="M25 418v320h146v-320h-146z" />
<glyph unicode="(" horiz-adv-x="254" d="M15 205v242q0 109 57 180t162 66v-126q-38 -1 -63.5 -29t-25.5 -79v-266q0 -50 25.5 -78t63.5 -29v-126q-105 -5 -162 65.5t-57 179.5z" />
<glyph unicode=")" horiz-adv-x="254" d="M15 -40v126q38 1 63.5 29t25.5 78v266q0 51 -25.5 79t-63.5 29v126q105 5 162 -66t57 -180v-242q0 -109 -57 -179.5t-162 -65.5z" />
<glyph unicode="*" horiz-adv-x="348" d="M20 479v83l87 -3l-49 73l73 42l43 -81l43 79l72 -40l-48 -73l87 3v-83l-87 3l48 -73l-72 -41l-43 77l-44 -77l-71 40l48 74z" />
<glyph unicode="+" horiz-adv-x="460" d="M25 265v134h136v138h138v-138h136v-134h-136v-138h-138v138h-136z" />
<glyph unicode="," horiz-adv-x="270" d="M55 -75v235h160v-72l-87 -163h-73z" />
<glyph unicode="-" horiz-adv-x="325" d="M20 263v138h285v-138h-285z" />
<glyph unicode="." horiz-adv-x="270" d="M55 0v160h160v-160h-160z" />
<glyph unicode="/" horiz-adv-x="421" d="M-14 -40l317 743h127l-318 -743h-126z" />
<glyph unicode="0" horiz-adv-x="476" d="M34 197v267q0 109 58.5 164t145.5 55t145.5 -55t58.5 -163v-267q0 -111 -58 -164.5t-146 -53.5q-89 0 -146.5 52.5t-57.5 164.5zM193 203q0 -57 45 -57t45 57v254q0 59 -45 59t-45 -59v-254z" />
<glyph unicode="1" horiz-adv-x="287" d="M13 489v87l23 1q81 3 99 86h104v-663h-160v488z" />
<glyph unicode="2" horiz-adv-x="450" d="M25 0v106q0 92 31.5 143t116.5 114q61 45 79 70t18 50q0 22 -11.5 36.5t-34.5 14.5q-24 0 -36.5 -15t-15 -31t-1.5 -40h-143q-2 123 53.5 179t144.5 56q86 0 142 -50.5t56 -142.5q0 -66 -28 -110.5t-96 -100.5l-29 -23.5l-26 -21t-19.5 -17t-16.5 -16.5t-10.5 -14 t-7.5 -15t-1 -15v-1h229v-156h-394z" />
<glyph unicode="3" horiz-adv-x="439" d="M23 217h141q-4 -87 46 -87q26 0 37 20t11 65q0 54 -20 72.5t-67 18.5h-27v111l77 94v5h-191v147h359v-127l-93 -114v-4q119 -27 119 -203q0 -122 -56 -178.5t-145 -56.5q-31 0 -57.5 5.5t-53 22t-44.5 42t-28.5 68.5t-7.5 99z" />
<glyph unicode="4" horiz-adv-x="472" d="M17 142v126l209 395h188v-385h43v-136h-43v-142h-152v142h-245zM156 278h106v209h-6z" />
<glyph unicode="5" horiz-adv-x="457" d="M32 207h146q-1 -34 14 -53.5t42 -19.5q55 0 55 80q0 41 -18.5 63.5t-50.5 22.5t-67 -25l-111 -1v389h369v-149h-231v-106q39 12 73 12q82 0 133.5 -55t51.5 -156q0 -63 -19 -109.5t-50.5 -71.5t-65 -36.5t-68.5 -11.5q-92 0 -148 59.5t-55 167.5z" />
<glyph unicode="6" horiz-adv-x="465" d="M34 219v231q0 118 54.5 175.5t148.5 57.5q197 0 193 -235h-146q2 84 -50 84q-55 0 -55 -76v-77h3q45 31 98 31q69 0 114.5 -46.5t45.5 -154.5q0 -67 -19.5 -115t-51.5 -71.5t-64.5 -33t-67.5 -9.5q-203 0 -203 239zM179 205q0 -70 54 -70q56 0 56 74q0 33 -16 50t-38 17 q-56 0 -56 -71z" />
<glyph unicode="7" horiz-adv-x="415" d="M15 508v155h380v-143l-161 -520h-167l164 508h-216z" />
<glyph unicode="8" horiz-adv-x="473" d="M28 187q0 52 26 94t61 62v4q-38 26 -59 61t-21 97q0 79 61.5 128.5t139.5 49.5q79 0 140.5 -49.5t61.5 -128.5q0 -62 -21 -97t-59 -61v-4q35 -20 61 -62t26 -94q0 -103 -62 -155t-147 -52q-83 0 -145.5 52t-62.5 155zM176 203q0 -34 17 -54t44 -20t44 20t17 54 q0 31 -17.5 51.5t-43.5 20.5t-43.5 -20.5t-17.5 -51.5zM182 477q0 -28 16 -46.5t39 -18.5t39 18.5t16 46.5q0 31 -15 49t-40 18t-40 -18t-15 -49z" />
<glyph unicode="9" horiz-adv-x="465" d="M26 464q0 108 59.5 163.5t145.5 55.5q39 0 71.5 -10t63 -34.5t48 -73t17.5 -117.5v-232q0 -120 -55.5 -178t-144.5 -58q-90 0 -143.5 57.5t-51.5 165.5h146q-3 -72 49 -72q55 0 55 68v85h-1q-39 -30 -89 -30q-72 0 -121 50t-49 160zM178 458q0 -33 16 -50.5t39 -17.5 q24 0 39 18t15 54q0 69 -54 69q-55 0 -55 -73z" />
<glyph unicode=":" horiz-adv-x="270" d="M55 0v160h160v-160h-160zM55 255v160h160v-160h-160z" />
<glyph unicode=";" horiz-adv-x="270" d="M55 -75v235h160v-72l-87 -163h-73zM55 255v160h160v-160h-160z" />
<glyph unicode="&#x3c;" horiz-adv-x="460" d="M45 281v96l359 202v-131l-219 -117l219 -117v-134z" />
<glyph unicode="=" horiz-adv-x="460" d="M25 172v119h410v-119h-410zM25 373v119h410v-119h-410z" />
<glyph unicode="&#x3e;" horiz-adv-x="460" d="M56 80v131l219 117l-219 117v134l359 -201v-96z" />
<glyph unicode="?" horiz-adv-x="455" d="M26 448q-2 123 53.5 179t148.5 56q87 0 142 -48.5t55 -129.5q0 -85 -66 -159q-65 -72 -65 -118v-13h-152v25q0 51 19.5 87t59.5 76q29 29 38.5 47t9.5 39q0 19 -14 32t-34 13q-25 0 -37.5 -15t-15 -30.5t-1.5 -40.5h-141zM138 0v154h160v-154h-160z" />
<glyph unicode="@" horiz-adv-x="516" d="M45 204v243q0 115 61.5 175.5t159.5 60.5q89 0 147 -53.5t58 -154.5v-341h-83l-3 14q-23 -14 -55 -14q-58 0 -99 33.5t-41 113.5v82q0 74 41.5 109.5t98.5 35.5q22 0 39 -5q-5 45 -33 68.5t-73 23.5q-117 0 -117 -151v-250q0 -69 35.5 -99t87.5 -30q68 0 105 20v-86 q-45 -19 -120 -19q-40 0 -75.5 11.5t-66.5 36.5t-49 70t-18 106zM295 270q0 -49 38 -49q39 0 39 49v102q0 50 -38 50q-39 0 -39 -50v-102z" />
<glyph unicode="A" horiz-adv-x="502" d="M4 0l156 663h186l152 -663h-164l-23 123h-125l-23 -123h-159zM213 262h73l-33 201h-6z" />
<glyph unicode="B" horiz-adv-x="480" d="M50 0v663h192q99 0 150 -49.5t51 -120.5q0 -57 -27.5 -95.5t-58.5 -54.5v-5q42 -14 70 -56t28 -93q0 -86 -50.5 -137.5t-148.5 -51.5h-206zM209 146h31q26 0 40.5 16.5t14.5 43.5q0 63 -58 63h-28v-123zM209 400h21q58 0 58 58q0 57 -53 57h-26v-115z" />
<glyph unicode="C" horiz-adv-x="467" d="M37 198v266q0 53 14 93.5t35 63.5t49.5 37.5t53.5 19.5t52 5q37 0 69 -10.5t63 -36.5t48.5 -78t16.5 -125h-153q1 47 -9.5 66.5t-35.5 19.5q-44 0 -44 -59v-259q0 -59 44 -59q25 0 35.5 21t9.5 77h153q1 -62 -10.5 -109.5t-30.5 -75.5t-46.5 -45.5t-53.5 -23.5t-56 -6 q-34 0 -65.5 8.5t-65 30t-53.5 67.5t-20 112z" />
<glyph unicode="D" horiz-adv-x="482" d="M50 0v663h152q127 0 186 -52.5t59 -190.5v-177q0 -138 -59 -190.5t-186 -52.5h-152zM210 161h22q28 0 41 14t13 47v219q0 34 -13 47.5t-41 13.5h-22v-341z" />
<glyph unicode="E" horiz-adv-x="424" d="M50 0v663h335v-159h-175v-84h167v-150h-167v-110h179v-160h-339z" />
<glyph unicode="F" horiz-adv-x="417" d="M50 0v663h332v-159h-172v-86h165v-149h-165v-269h-160z" />
<glyph unicode="G" horiz-adv-x="493" d="M37 220v231q0 66 19.5 114t52 72t67.5 35t73 11q33 0 64.5 -9t66.5 -32.5t56 -76t20 -127.5l-152 3q1 82 -53 82q-23 0 -38.5 -15t-15.5 -49v-255q0 -66 55 -66q52 0 52 57v14h-66v137h218v-127q0 -56 -13.5 -99.5t-34.5 -69.5t-49.5 -42t-55 -22t-54.5 -6q-37 0 -70 9.5 t-67 33t-54.5 74t-20.5 123.5z" />
<glyph unicode="H" horiz-adv-x="503" d="M50 0v663h158v-236h87v236h158v-663h-158v274h-87v-274h-158z" />
<glyph unicode="I" d="M50 0v663h160v-663h-160zM50 705v135h160v-135h-160z" />
<glyph unicode="J" horiz-adv-x="438" d="M6 230h146q-3 -83 47 -83q22 0 32 16.5t10 55.5v444h160v-432q0 -62 -14 -109.5t-35 -73.5t-49.5 -42t-52.5 -21t-50 -5q-37 0 -68.5 10.5t-62 36t-47.5 77.5t-16 126zM241 705v135h160v-135h-160z" />
<glyph unicode="K" horiz-adv-x="519" d="M50 0v663h159v-280h5l91 280h170l-105 -296v-4l133 -363h-179l-110 324h-5v-324h-159z" />
<glyph unicode="L" horiz-adv-x="387" d="M50 0v663h158v-503h164v-160h-322z" />
<glyph unicode="M" horiz-adv-x="697" d="M50 0v663h202l93 -351h6l94 351h202v-663h-150v378h-6l-85 -378h-115l-85 378h-6v-378h-150z" />
<glyph unicode="N" horiz-adv-x="542" d="M50 0v663h169l119 -309h6v309h148v-663h-162l-125 342h-6v-342h-149z" />
<glyph unicode="O" horiz-adv-x="500" d="M37 202v258q0 111 61.5 167t151.5 56t151.5 -56t61.5 -166v-258q0 -112 -61 -167.5t-152 -55.5t-152 54t-61 168zM197 205q0 -31 15 -46.5t38 -15.5t38 15.5t15 46.5v251q0 32 -15 47.5t-38 15.5t-38 -15.5t-15 -47.5v-251z" />
<glyph unicode="P" horiz-adv-x="454" d="M50 0v663h165q219 0 219 -220q0 -106 -54.5 -167t-156.5 -61h-13v-215h-160zM210 362h17q27 0 39.5 17.5t12.5 57.5q0 75 -52 75h-17v-150z" />
<glyph unicode="Q" horiz-adv-x="507" d="M37 202v258q0 111 61.5 167t151.5 56t151.5 -56t61.5 -166v-258q0 -67 -26 -117l55 -47l-100 -108l-72 59q-33 -10 -70 -10q-91 0 -152 54t-61 168zM197 205q0 -31 15 -46.5t38 -15.5t38 15.5t15 46.5v251q0 32 -15 47.5t-38 15.5t-38 -15.5t-15 -47.5v-251z" />
<glyph unicode="R" horiz-adv-x="479" d="M50 0v663h193q106 0 154 -50.5t48 -124.5q0 -52 -25.5 -89.5t-62.5 -58.5v-4q40 -11 67.5 -47.5t27.5 -101.5v-187h-160v183q0 34 -12.5 50t-41.5 16h-28v-249h-160zM210 393h23q56 0 56 68q0 60 -53 60h-26v-128z" />
<glyph unicode="S" horiz-adv-x="452" d="M28 214h142q-3 -89 51 -89q43 0 43 43q0 37 -40 66l-74 54q-68 50 -93.5 99.5t-25.5 113.5q0 81 60 131.5t140 50.5q86 0 141.5 -55t52.5 -180h-142q3 93 -49 93q-46 0 -46 -43q0 -36 40 -66l88 -66q65 -49 88.5 -94.5t23.5 -99.5q0 -87 -58 -139.5t-143 -52.5 q-90 0 -146 55t-53 179z" />
<glyph unicode="T" horiz-adv-x="420" d="M15 508v155h390v-155h-113v-508h-160v508h-117z" />
<glyph unicode="U" horiz-adv-x="495" d="M40 209v454h160v-456q0 -63 47 -63q48 0 48 63v456h160v-454q0 -229 -207 -229q-208 0 -208 229z" />
<glyph unicode="V" horiz-adv-x="500" d="M5 663h164l81 -393h6l80 393h159l-167 -663h-166z" />
<glyph unicode="W" horiz-adv-x="672" d="M5 663h155l52 -326h6l66 326h105l66 -326h6l52 326h154l-129 -663h-123l-76 291h-6l-76 -291h-123z" />
<glyph unicode="X" horiz-adv-x="471" d="M2 0l132 341l-126 322h170l59 -183h4l60 183h158l-124 -319l134 -344h-170l-67 202h-5l-66 -202h-159z" />
<glyph unicode="Y" horiz-adv-x="482" d="M2 663h168l71 -222h6l71 222h162l-160 -411v-252h-160v252z" />
<glyph unicode="Z" horiz-adv-x="426" d="M25 0v161l192 344h-187v158h364v-152l-191 -352h198v-159h-376z" />
<glyph unicode="[" horiz-adv-x="248" d="M50 -40v730h198v-86h-70v-558h70v-86h-198z" />
<glyph unicode="\" horiz-adv-x="421" d="M-17 704h127l321 -751h-126z" />
<glyph unicode="]" horiz-adv-x="248" d="M0 -40v86h70v558h-70v86h198v-730h-198z" />
<glyph unicode="^" horiz-adv-x="418" d="M5 257l158 406h92l158 -406h-116l-92 231l-92 -231h-108z" />
<glyph unicode="_" horiz-adv-x="470" d="M25 -33h420v-136h-420v136z" />
<glyph unicode="`" horiz-adv-x="161" d="M-34 845h133l63 -137h-128z" />
<glyph unicode="a" horiz-adv-x="502" d="M4 0l156 663h186l152 -663h-164l-23 123h-125l-23 -123h-159zM213 262h73l-33 201h-6z" />
<glyph unicode="b" horiz-adv-x="480" d="M50 0v663h192q99 0 150 -49.5t51 -120.5q0 -57 -27.5 -95.5t-58.5 -54.5v-5q42 -14 70 -56t28 -93q0 -86 -50.5 -137.5t-148.5 -51.5h-206zM209 146h31q26 0 40.5 16.5t14.5 43.5q0 63 -58 63h-28v-123zM209 400h21q58 0 58 58q0 57 -53 57h-26v-115z" />
<glyph unicode="c" horiz-adv-x="467" d="M37 198v266q0 53 14 93.5t35 63.5t49.5 37.5t53.5 19.5t52 5q37 0 69 -10.5t63 -36.5t48.5 -78t16.5 -125h-153q1 47 -9.5 66.5t-35.5 19.5q-44 0 -44 -59v-259q0 -59 44 -59q25 0 35.5 21t9.5 77h153q1 -62 -10.5 -109.5t-30.5 -75.5t-46.5 -45.5t-53.5 -23.5t-56 -6 q-34 0 -65.5 8.5t-65 30t-53.5 67.5t-20 112z" />
<glyph unicode="d" horiz-adv-x="482" d="M50 0v663h152q127 0 186 -52.5t59 -190.5v-177q0 -138 -59 -190.5t-186 -52.5h-152zM210 161h22q28 0 41 14t13 47v219q0 34 -13 47.5t-41 13.5h-22v-341z" />
<glyph unicode="e" horiz-adv-x="424" d="M50 0v663h335v-159h-175v-84h167v-150h-167v-110h179v-160h-339z" />
<glyph unicode="f" horiz-adv-x="417" d="M50 0v663h332v-159h-172v-86h165v-149h-165v-269h-160z" />
<glyph unicode="g" horiz-adv-x="493" d="M37 220v231q0 66 19.5 114t52 72t67.5 35t73 11q33 0 64.5 -9t66.5 -32.5t56 -76t20 -127.5l-152 3q1 82 -53 82q-23 0 -38.5 -15t-15.5 -49v-255q0 -66 55 -66q52 0 52 57v14h-66v137h218v-127q0 -56 -13.5 -99.5t-34.5 -69.5t-49.5 -42t-55 -22t-54.5 -6q-37 0 -70 9.5 t-67 33t-54.5 74t-20.5 123.5z" />
<glyph unicode="h" horiz-adv-x="503" d="M50 0v663h158v-236h87v236h158v-663h-158v274h-87v-274h-158z" />
<glyph unicode="i" d="M50 0v663h160v-663h-160zM50 705v135h160v-135h-160z" />
<glyph unicode="j" horiz-adv-x="438" d="M6 230h146q-3 -83 47 -83q22 0 32 16.5t10 55.5v444h160v-432q0 -62 -14 -109.5t-35 -73.5t-49.5 -42t-52.5 -21t-50 -5q-37 0 -68.5 10.5t-62 36t-47.5 77.5t-16 126zM241 705v135h160v-135h-160z" />
<glyph unicode="k" horiz-adv-x="519" d="M50 0v663h159v-280h5l91 280h170l-105 -296v-4l133 -363h-179l-110 324h-5v-324h-159z" />
<glyph unicode="l" horiz-adv-x="387" d="M50 0v663h158v-503h164v-160h-322z" />
<glyph unicode="m" horiz-adv-x="697" d="M50 0v663h202l93 -351h6l94 351h202v-663h-150v378h-6l-85 -378h-115l-85 378h-6v-378h-150z" />
<glyph unicode="n" horiz-adv-x="542" d="M50 0v663h169l119 -309h6v309h148v-663h-162l-125 342h-6v-342h-149z" />
<glyph unicode="o" horiz-adv-x="500" d="M37 202v258q0 111 61.5 167t151.5 56t151.5 -56t61.5 -166v-258q0 -112 -61 -167.5t-152 -55.5t-152 54t-61 168zM197 205q0 -31 15 -46.5t38 -15.5t38 15.5t15 46.5v251q0 32 -15 47.5t-38 15.5t-38 -15.5t-15 -47.5v-251z" />
<glyph unicode="p" horiz-adv-x="454" d="M50 0v663h165q219 0 219 -220q0 -106 -54.5 -167t-156.5 -61h-13v-215h-160zM210 362h17q27 0 39.5 17.5t12.5 57.5q0 75 -52 75h-17v-150z" />
<glyph unicode="q" horiz-adv-x="507" d="M37 202v258q0 111 61.5 167t151.5 56t151.5 -56t61.5 -166v-258q0 -67 -26 -117l55 -47l-100 -108l-72 59q-33 -10 -70 -10q-91 0 -152 54t-61 168zM197 205q0 -31 15 -46.5t38 -15.5t38 15.5t15 46.5v251q0 32 -15 47.5t-38 15.5t-38 -15.5t-15 -47.5v-251z" />
<glyph unicode="r" horiz-adv-x="479" d="M50 0v663h193q106 0 154 -50.5t48 -124.5q0 -52 -25.5 -89.5t-62.5 -58.5v-4q40 -11 67.5 -47.5t27.5 -101.5v-187h-160v183q0 34 -12.5 50t-41.5 16h-28v-249h-160zM210 393h23q56 0 56 68q0 60 -53 60h-26v-128z" />
<glyph unicode="s" horiz-adv-x="452" d="M28 214h142q-3 -89 51 -89q43 0 43 43q0 37 -40 66l-74 54q-68 50 -93.5 99.5t-25.5 113.5q0 81 60 131.5t140 50.5q86 0 141.5 -55t52.5 -180h-142q3 93 -49 93q-46 0 -46 -43q0 -36 40 -66l88 -66q65 -49 88.5 -94.5t23.5 -99.5q0 -87 -58 -139.5t-143 -52.5 q-90 0 -146 55t-53 179z" />
<glyph unicode="t" horiz-adv-x="420" d="M15 508v155h390v-155h-113v-508h-160v508h-117z" />
<glyph unicode="u" horiz-adv-x="495" d="M40 209v454h160v-456q0 -63 47 -63q48 0 48 63v456h160v-454q0 -229 -207 -229q-208 0 -208 229z" />
<glyph unicode="v" horiz-adv-x="500" d="M5 663h164l81 -393h6l80 393h159l-167 -663h-166z" />
<glyph unicode="w" horiz-adv-x="672" d="M5 663h155l52 -326h6l66 326h105l66 -326h6l52 326h154l-129 -663h-123l-76 291h-6l-76 -291h-123z" />
<glyph unicode="x" horiz-adv-x="471" d="M2 0l132 341l-126 322h170l59 -183h4l60 183h158l-124 -319l134 -344h-170l-67 202h-5l-66 -202h-159z" />
<glyph unicode="y" horiz-adv-x="482" d="M2 663h168l71 -222h6l71 222h162l-160 -411v-252h-160v252z" />
<glyph unicode="z" horiz-adv-x="426" d="M25 0v161l192 344h-187v158h364v-152l-191 -352h198v-159h-376z" />
<glyph unicode="{" horiz-adv-x="264" d="M20 259v142h13q23 0 27 14.5t-4 55.5q-18 105 31.5 162.5t161.5 59.5v-126q-54 0 -67.5 -25t-2.5 -83l2 -12q8 -44 -5 -72.5t-58 -42.5v-4q79 -24 64 -116l-3 -19q-10 -57 2.5 -82t67.5 -25v-126q-111 2 -159 59.5t-33 164.5q8 44 3.5 59.5t-27.5 15.5h-13z" />
<glyph unicode="|" horiz-adv-x="216" d="M50 -168v966h116v-966h-116z" />
<glyph unicode="}" horiz-adv-x="264" d="M15 -40v126q54 0 67.5 25t2.5 83l-2 12q-8 44 5 72.5t58 42.5v4q-79 24 -64 116l3 19q10 57 -2.5 82t-67.5 25v126q111 -2 159 -59.5t33 -164.5q-8 -43 -3.5 -59t27.5 -16h13v-142h-13q-23 0 -27 -15t4 -55q18 -105 -31.5 -162.5t-161.5 -59.5z" />
<glyph unicode="~" horiz-adv-x="460" d="M10 254q0 71 30.5 116.5t98.5 45.5q42 0 94 -28.5t68 -28.5q38 0 38 51h111q0 -71 -30 -116.5t-96 -45.5q-42 0 -96.5 28t-70.5 28q-36 0 -36 -50h-111z" />
<glyph unicode="&#xa1;" horiz-adv-x="272" d="M55 0v176l21 272h120l21 -272v-176h-162zM56 509v154h160v-154h-160z" />
<glyph unicode="&#xa2;" horiz-adv-x="436" d="M37 373v113q0 181 155 195v85h54v-84q154 -16 152 -212h-121q0 76 -31 91v-262q31 14 31 101h121q5 -205 -152 -222v-105h-54v105q-155 14 -155 195zM163 366q0 -51 29 -67v261q-29 -13 -29 -67v-127z" />
<glyph unicode="&#xa3;" horiz-adv-x="497" d="M15 203v66h61v42h-61v66h61v96q0 210 199 210t187 -250h-151v31q0 38 -10 54t-31 16q-39 0 -39 -56v-101h158v-66h-158v-42h158v-66h-158v-65h232v-138h-429v138h42v65h-61z" />
<glyph unicode="&#xa5;" horiz-adv-x="482" d="M2 663h168l71 -222h6l71 222h162l-150 -385h111v-66h-121v-42h121v-66h-121v-104h-160v104h-118v66h118v42h-118v66h108z" />
<glyph unicode="&#xa8;" horiz-adv-x="303" d="M-3 709v129h131v-129h-131zM175 709v129h131v-129h-131z" />
<glyph unicode="&#xa9;" horiz-adv-x="723" d="M30 331q0 149 92 250.5t239 101.5q148 0 240 -100t92 -252t-92 -251.5t-240 -99.5q-147 0 -239 101t-92 250zM95 331q0 -127 74 -211t192 -84t192.5 84t74.5 211q0 125 -75 210.5t-192 85.5q-118 0 -192 -84.5t-74 -211.5zM222 245v172q0 47 14.5 80t38.5 48.5t46.5 22 t47.5 6.5q59 0 101 -40t40 -140h-110q3 62 -32 62q-32 0 -32 -42v-167q0 -42 32 -42q18 0 25.5 15t6.5 55h110q1 -55 -11 -94t-34.5 -58t-45.5 -27t-50 -8q-25 0 -47.5 6t-46.5 21.5t-38.5 49t-14.5 80.5z" />
<glyph unicode="&#xaa;" horiz-adv-x="298" d="M3 317l92 346h110l89 -346h-95l-15 65h-74l-16 -65h-91zM123 456h48l-22 101h-3z" />
<glyph unicode="&#xab;" horiz-adv-x="494" d="M10 330l123 213h139l-126 -213l127 -213h-139zM216 330l123 213h139l-126 -213l127 -213h-139z" />
<glyph unicode="&#xad;" horiz-adv-x="325" d="M20 263v138h285v-138h-285z" />
<glyph unicode="&#xae;" horiz-adv-x="723" d="M30 331q0 149 92 250.5t239 101.5q148 0 240 -100t92 -252t-92 -251.5t-240 -99.5q-147 0 -239 101t-92 250zM95 331q0 -127 74 -211t192 -84t192.5 84t74.5 211q0 125 -75 210.5t-192 85.5q-118 0 -192 -84.5t-74 -211.5zM225 100v463h140q78 0 112.5 -37t34.5 -91 q0 -71 -64 -108v-2q69 -21 69 -109v-116h-116v113q0 49 -39 49h-21v-162h-116zM341 376h17q41 0 41 50q0 43 -39 43h-19v-93z" />
<glyph unicode="&#xaf;" horiz-adv-x="336" d="M14 707v105h308v-105h-308z" />
<glyph unicode="&#xb0;" horiz-adv-x="333" d="M15 532q0 72 46 111.5t107 39.5q60 0 105 -39.5t45 -111.5q0 -71 -45.5 -110.5t-105.5 -39.5q-61 0 -106.5 39.5t-45.5 110.5zM89 531q0 -38 22.5 -60.5t57.5 -22.5q33 0 55.5 22.5t22.5 60.5q0 39 -22.5 60.5t-55.5 21.5q-35 0 -57.5 -21.5t-22.5 -60.5z" />
<glyph unicode="&#xb4;" horiz-adv-x="161" d="M-5 708l63 137h133l-68 -137h-128z" />
<glyph unicode="&#xb6;" horiz-adv-x="490" d="M30 473q0 86 53 138t147 52h220v-832h-56v791h-72v-791h-56v453h-36q-94 0 -147 51.5t-53 137.5z" />
<glyph unicode="&#xb7;" horiz-adv-x="270" d="M55 248v160h160v-160h-160z" />
<glyph unicode="&#xb8;" horiz-adv-x="206" d="M7 -96h63q2 -16 22 -16q23 0 23 26q0 11 -6 17.5t-16 6.5q-15 0 -22 -13l-53 1l-1 21l36 80h44l-16 -50q9 9 28 9q30 0 50 -19t20 -55q0 -40 -24.5 -61.5t-61.5 -21.5q-31 0 -58.5 21t-27.5 54z" />
<glyph unicode="&#xba;" horiz-adv-x="289" d="M25 435v112q0 62 34.5 93.5t84.5 31.5q51 0 85.5 -31.5t34.5 -93.5v-111q0 -63 -34.5 -94t-85.5 -31t-85 30t-34 94zM115 437q0 -35 29 -35q30 0 30 35v108q0 35 -30 35q-29 0 -29 -35v-108z" />
<glyph unicode="&#xbb;" horiz-adv-x="494" d="M15 117l127 213l-126 213h139l123 -213l-124 -213h-139zM221 117l127 213l-126 213h139l123 -213l-124 -213h-139z" />
<glyph unicode="&#xbf;" horiz-adv-x="455" d="M30 158q0 86 66 159q65 72 65 118v13h152v-25q0 -51 -19.5 -87t-59.5 -76q-29 -29 -38.5 -47t-9.5 -39q0 -19 14 -32t34 -13q25 0 37.5 15t15 30.5t1.5 40.5h141q2 -123 -53.5 -179t-148.5 -56q-87 0 -142 48.5t-55 129.5zM157 509v154h160v-154h-160z" />
<glyph unicode="&#xc0;" horiz-adv-x="502" d="M4 0l156 663h186l152 -663h-164l-23 123h-125l-23 -123h-159zM125 845h133l63 -137h-128zM213 262h73l-33 201h-6z" />
<glyph unicode="&#xc1;" horiz-adv-x="502" d="M4 0l156 663h186l152 -663h-164l-23 123h-125l-23 -123h-159zM185 708l63 137h133l-68 -137h-128zM213 262h73l-33 201h-6z" />
<glyph unicode="&#xc2;" horiz-adv-x="502" d="M4 0l156 663h186l152 -663h-164l-23 123h-125l-23 -123h-159zM117 702v101l136 40l136 -40v-101l-136 36zM213 262h73l-33 201h-6z" />
<glyph unicode="&#xc3;" horiz-adv-x="502" d="M4 0l156 663h186l152 -663h-164l-23 123h-125l-23 -123h-159zM95 701q1 59 25.5 93t69.5 34q29 0 65.5 -17t49.5 -17q24 0 26 34h81q0 -59 -24.5 -93t-67.5 -34q-28 0 -64.5 16.5t-49.5 16.5q-28 0 -28 -33h-83zM213 262h73l-33 201h-6z" />
<glyph unicode="&#xc4;" horiz-adv-x="502" d="M4 0l156 663h186l152 -663h-164l-23 123h-125l-23 -123h-159zM99 709v129h131v-129h-131zM213 262h73l-33 201h-6zM277 709v129h131v-129h-131z" />
<glyph unicode="&#xc5;" horiz-adv-x="502" d="M4 0l156 663h24q-59 33 -59 108q0 60 38.5 92.5t89.5 32.5t89.5 -32.5t38.5 -92.5q0 -74 -60 -108h25l152 -663h-164l-23 123h-125l-23 -123h-159zM213 262h73l-33 201h-6zM214 771q0 -19 11 -30t28 -11q16 0 27.5 11.5t11.5 29.5t-11.5 29.5t-27.5 11.5q-17 0 -28 -11.5 t-11 -29.5z" />
<glyph unicode="&#xc6;" horiz-adv-x="654" d="M4 0l173 663h438v-159h-216l24 -111h184v-131l-159 1l24 -103h147v-160h-281l-22 133h-126l-27 -133h-159zM219 272h74l-31 191h-3z" />
<glyph unicode="&#xc7;" horiz-adv-x="467" d="M37 198v266q0 53 14 93.5t35 63.5t49.5 37.5t53.5 19.5t52 5q37 0 69 -10.5t63 -36.5t48.5 -78t16.5 -125h-153q1 47 -9.5 66.5t-35.5 19.5q-44 0 -44 -59v-259q0 -59 44 -59q25 0 35.5 21t9.5 77h153q1 -62 -10.5 -109.5t-30.5 -75.5t-46.5 -45.5t-53.5 -23.5t-56 -6h-8 l-6 -20q9 9 28 9q30 0 50 -19t20 -55q0 -40 -24.5 -61.5t-61.5 -21.5q-31 0 -58.5 21t-27.5 54h63q2 -16 22 -16q23 0 23 26q0 11 -6 17.5t-16 6.5q-15 0 -22 -13l-53 1l-1 21l24 55q-150 32 -150 213z" />
<glyph unicode="&#xc8;" horiz-adv-x="424" d="M50 0v663h335v-159h-175v-84h167v-150h-167v-110h179v-160h-339zM91 845h133l63 -137h-128z" />
<glyph unicode="&#xc9;" horiz-adv-x="424" d="M50 0v663h335v-159h-175v-84h167v-150h-167v-110h179v-160h-339zM151 708l63 137h133l-68 -137h-128z" />
<glyph unicode="&#xca;" horiz-adv-x="424" d="M50 0v663h335v-159h-175v-84h167v-150h-167v-110h179v-160h-339zM83 702v101l136 40l136 -40v-101l-136 36z" />
<glyph unicode="&#xcb;" horiz-adv-x="424" d="M50 0v663h335v-159h-175v-84h167v-150h-167v-110h179v-160h-339zM65 709v129h131v-129h-131zM243 709v129h131v-129h-131z" />
<glyph unicode="&#xcc;" d="M2 845h133l63 -137h-128zM50 0v663h160v-663h-160z" />
<glyph unicode="&#xcd;" d="M50 0v663h160v-663h-160zM62 708l63 137h133l-68 -137h-128z" />
<glyph unicode="&#xce;" d="M17 702v101l112 40l114 -40v-101l-114 36zM50 0v663h160v-663h-160z" />
<glyph unicode="&#xcf;" d="M-24 709v129h131v-129h-131zM50 0v663h160v-663h-160zM154 709v129h131v-129h-131z" />
<glyph unicode="&#xd0;" horiz-adv-x="482" d="M11 266v131h39v266h152q127 0 186 -52.5t59 -190.5v-177q0 -138 -59 -190.5t-186 -52.5h-152v266h-39zM210 161h22q28 0 41 14t13 47v219q0 34 -13 47.5t-41 13.5h-22v-105h36v-131h-36v-105z" />
<glyph unicode="&#xd1;" horiz-adv-x="542" d="M50 0v663h169l119 -309h6v309h148v-663h-162l-125 342h-6v-342h-149zM113 701q1 59 25.5 93t69.5 34q29 0 65.5 -17t49.5 -17q24 0 26 34h81q0 -59 -24.5 -93t-67.5 -34q-28 0 -64.5 16.5t-49.5 16.5q-28 0 -28 -33h-83z" />
<glyph unicode="&#xd2;" horiz-adv-x="500" d="M37 202v258q0 111 61.5 167t151.5 56t151.5 -56t61.5 -166v-258q0 -112 -61 -167.5t-152 -55.5t-152 54t-61 168zM122 845h133l63 -137h-128zM197 205q0 -31 15 -46.5t38 -15.5t38 15.5t15 46.5v251q0 32 -15 47.5t-38 15.5t-38 -15.5t-15 -47.5v-251z" />
<glyph unicode="&#xd3;" horiz-adv-x="500" d="M37 202v258q0 111 61.5 167t151.5 56t151.5 -56t61.5 -166v-258q0 -112 -61 -167.5t-152 -55.5t-152 54t-61 168zM182 708l63 137h133l-68 -137h-128zM197 205q0 -31 15 -46.5t38 -15.5t38 15.5t15 46.5v251q0 32 -15 47.5t-38 15.5t-38 -15.5t-15 -47.5v-251z" />
<glyph unicode="&#xd4;" horiz-adv-x="500" d="M37 202v258q0 111 61.5 167t151.5 56t151.5 -56t61.5 -166v-258q0 -112 -61 -167.5t-152 -55.5t-152 54t-61 168zM114 702v101l136 40l136 -40v-101l-136 36zM197 205q0 -31 15 -46.5t38 -15.5t38 15.5t15 46.5v251q0 32 -15 47.5t-38 15.5t-38 -15.5t-15 -47.5v-251z " />
<glyph unicode="&#xd5;" horiz-adv-x="500" d="M37 202v258q0 111 61.5 167t151.5 56t151.5 -56t61.5 -166v-258q0 -112 -61 -167.5t-152 -55.5t-152 54t-61 168zM92 701q1 59 25.5 93t69.5 34q29 0 65.5 -17t49.5 -17q24 0 26 34h81q0 -59 -24.5 -93t-67.5 -34q-28 0 -64.5 16.5t-49.5 16.5q-28 0 -28 -33h-83z M197 205q0 -31 15 -46.5t38 -15.5t38 15.5t15 46.5v251q0 32 -15 47.5t-38 15.5t-38 -15.5t-15 -47.5v-251z" />
<glyph unicode="&#xd6;" horiz-adv-x="500" d="M37 202v258q0 111 61.5 167t151.5 56t151.5 -56t61.5 -166v-258q0 -112 -61 -167.5t-152 -55.5t-152 54t-61 168zM96 709v129h131v-129h-131zM197 205q0 -31 15 -46.5t38 -15.5t38 15.5t15 46.5v251q0 32 -15 47.5t-38 15.5t-38 -15.5t-15 -47.5v-251zM274 709v129h131 v-129h-131z" />
<glyph unicode="&#xd7;" horiz-adv-x="460" d="M10 458l94 94l125 -126l126 126l94 -94l-126 -126l127 -126l-94 -94l-127 126l-124 -124l-94 94l124 124z" />
<glyph unicode="&#xd8;" horiz-adv-x="500" d="M37 202v258q0 111 61.5 167t151.5 56q47 0 86 -16l27 70h80l-42 -110q62 -60 62 -166v-258q0 -112 -61 -167.5t-152 -55.5q-47 0 -92 17l-21 -56h-79l37 96q-58 60 -58 165zM183 267l102 266q-16 8 -35 8q-67 0 -67 -78v-196zM210 132q15 -11 40 -11q67 0 67 77v211z" />
<glyph unicode="&#xd9;" horiz-adv-x="495" d="M40 209v454h160v-456q0 -63 47 -63q48 0 48 63v456h160v-454q0 -229 -207 -229q-208 0 -208 229zM120 845h133l63 -137h-128z" />
<glyph unicode="&#xda;" horiz-adv-x="495" d="M40 209v454h160v-456q0 -63 47 -63q48 0 48 63v456h160v-454q0 -229 -207 -229q-208 0 -208 229zM180 708l63 137h133l-68 -137h-128z" />
<glyph unicode="&#xdb;" horiz-adv-x="495" d="M40 209v454h160v-456q0 -63 47 -63q48 0 48 63v456h160v-454q0 -229 -207 -229q-208 0 -208 229zM112 702v101l136 40l136 -40v-101l-136 36z" />
<glyph unicode="&#xdc;" horiz-adv-x="495" d="M40 209v454h160v-456q0 -63 47 -63q48 0 48 63v456h160v-454q0 -229 -207 -229q-208 0 -208 229zM94 709v129h131v-129h-131zM272 709v129h131v-129h-131z" />
<glyph unicode="&#xdd;" horiz-adv-x="482" d="M2 663h168l71 -222h6l71 222h162l-160 -411v-252h-160v252zM176 708l63 137h133l-68 -137h-128z" />
<glyph unicode="&#xde;" horiz-adv-x="454" d="M50 0v663h160v-102h5q219 0 219 -220q0 -106 -54.5 -167t-156.5 -61h-13v-113h-160zM210 260h17q27 0 39.5 17.5t12.5 57.5q0 75 -52 75h-17v-150z" />
<glyph unicode="&#xdf;" horiz-adv-x="901" d="M28 214h142q-3 -89 51 -89q43 0 43 43q0 37 -40 66l-74 54q-68 50 -93.5 99.5t-25.5 113.5q0 81 60 131.5t140 50.5q86 0 141.5 -55t52.5 -180h-142q3 93 -49 93q-46 0 -46 -43q0 -36 40 -66l88 -66q65 -49 88.5 -94.5t23.5 -99.5q0 -87 -58 -139.5t-143 -52.5 q-90 0 -146 55t-53 179zM477 214h142q-3 -89 51 -89q43 0 43 43q0 37 -40 66l-74 54q-68 50 -93.5 99.5t-25.5 113.5q0 81 60 131.5t140 50.5q86 0 141.5 -55t52.5 -180h-142q3 93 -49 93q-46 0 -46 -43q0 -36 40 -66l88 -66q65 -49 88.5 -94.5t23.5 -99.5q0 -87 -58 -139.5 t-143 -52.5q-90 0 -146 55t-53 179z" />
<glyph unicode="&#xe0;" horiz-adv-x="502" d="M4 0l156 663h186l152 -663h-164l-23 123h-125l-23 -123h-159zM125 845h133l63 -137h-128zM213 262h73l-33 201h-6z" />
<glyph unicode="&#xe1;" horiz-adv-x="502" d="M4 0l156 663h186l152 -663h-164l-23 123h-125l-23 -123h-159zM185 708l63 137h133l-68 -137h-128zM213 262h73l-33 201h-6z" />
<glyph unicode="&#xe2;" horiz-adv-x="502" d="M4 0l156 663h186l152 -663h-164l-23 123h-125l-23 -123h-159zM117 702v101l136 40l136 -40v-101l-136 36zM213 262h73l-33 201h-6z" />
<glyph unicode="&#xe3;" horiz-adv-x="502" d="M4 0l156 663h186l152 -663h-164l-23 123h-125l-23 -123h-159zM95 701q1 59 25.5 93t69.5 34q29 0 65.5 -17t49.5 -17q24 0 26 34h81q0 -59 -24.5 -93t-67.5 -34q-28 0 -64.5 16.5t-49.5 16.5q-28 0 -28 -33h-83zM213 262h73l-33 201h-6z" />
<glyph unicode="&#xe4;" horiz-adv-x="502" d="M4 0l156 663h186l152 -663h-164l-23 123h-125l-23 -123h-159zM99 709v129h131v-129h-131zM213 262h73l-33 201h-6zM277 709v129h131v-129h-131z" />
<glyph unicode="&#xe5;" horiz-adv-x="502" d="M4 0l156 663h24q-59 33 -59 108q0 60 38.5 92.5t89.5 32.5t89.5 -32.5t38.5 -92.5q0 -74 -60 -108h25l152 -663h-164l-23 123h-125l-23 -123h-159zM213 262h73l-33 201h-6zM214 771q0 -19 11 -30t28 -11q16 0 27.5 11.5t11.5 29.5t-11.5 29.5t-27.5 11.5q-17 0 -28 -11.5 t-11 -29.5z" />
<glyph unicode="&#xe6;" horiz-adv-x="654" d="M4 0l173 663h438v-159h-216l24 -111h184v-131l-159 1l24 -103h147v-160h-281l-22 133h-126l-27 -133h-159zM219 272h74l-31 191h-3z" />
<glyph unicode="&#xe7;" horiz-adv-x="467" d="M37 198v266q0 53 14 93.5t35 63.5t49.5 37.5t53.5 19.5t52 5q37 0 69 -10.5t63 -36.5t48.5 -78t16.5 -125h-153q1 47 -9.5 66.5t-35.5 19.5q-44 0 -44 -59v-259q0 -59 44 -59q25 0 35.5 21t9.5 77h153q1 -62 -10.5 -109.5t-30.5 -75.5t-46.5 -45.5t-53.5 -23.5t-56 -6h-8 l-6 -20q9 9 28 9q30 0 50 -19t20 -55q0 -40 -24.5 -61.5t-61.5 -21.5q-31 0 -58.5 21t-27.5 54h63q2 -16 22 -16q23 0 23 26q0 11 -6 17.5t-16 6.5q-15 0 -22 -13l-53 1l-1 21l24 55q-150 32 -150 213z" />
<glyph unicode="&#xe8;" horiz-adv-x="424" d="M50 0v663h335v-159h-175v-84h167v-150h-167v-110h179v-160h-339zM91 845h133l63 -137h-128z" />
<glyph unicode="&#xe9;" horiz-adv-x="424" d="M50 0v663h335v-159h-175v-84h167v-150h-167v-110h179v-160h-339zM151 708l63 137h133l-68 -137h-128z" />
<glyph unicode="&#xea;" horiz-adv-x="424" d="M50 0v663h335v-159h-175v-84h167v-150h-167v-110h179v-160h-339zM83 702v101l136 40l136 -40v-101l-136 36z" />
<glyph unicode="&#xeb;" horiz-adv-x="424" d="M50 0v663h335v-159h-175v-84h167v-150h-167v-110h179v-160h-339zM65 709v129h131v-129h-131zM243 709v129h131v-129h-131z" />
<glyph unicode="&#xec;" d="M2 845h133l63 -137h-128z" />
<glyph unicode="&#xed;" d="M62 708l63 137h133l-68 -137h-128z" />
<glyph unicode="&#xee;" d="M17 702v101l112 40l114 -40v-101l-114 36zM50 0v663h160v-663h-160z" />
<glyph unicode="&#xef;" d="M-24 709v129h131v-129h-131zM154 709v129h131v-129h-131z" />
<glyph unicode="&#xf0;" horiz-adv-x="482" d="M11 266v131h39v266h152q127 0 186 -52.5t59 -190.5v-177q0 -138 -59 -190.5t-186 -52.5h-152v266h-39zM210 161h22q28 0 41 14t13 47v219q0 34 -13 47.5t-41 13.5h-22v-105h36v-131h-36v-105z" />
<glyph unicode="&#xf1;" horiz-adv-x="542" d="M50 0v663h169l119 -309h6v309h148v-663h-162l-125 342h-6v-342h-149zM113 701q1 59 25.5 93t69.5 34q29 0 65.5 -17t49.5 -17q24 0 26 34h81q0 -59 -24.5 -93t-67.5 -34q-28 0 -64.5 16.5t-49.5 16.5q-28 0 -28 -33h-83z" />
<glyph unicode="&#xf2;" horiz-adv-x="500" d="M37 202v258q0 111 61.5 167t151.5 56t151.5 -56t61.5 -166v-258q0 -112 -61 -167.5t-152 -55.5t-152 54t-61 168zM122 845h133l63 -137h-128zM197 205q0 -31 15 -46.5t38 -15.5t38 15.5t15 46.5v251q0 32 -15 47.5t-38 15.5t-38 -15.5t-15 -47.5v-251z" />
<glyph unicode="&#xf3;" horiz-adv-x="500" d="M37 202v258q0 111 61.5 167t151.5 56t151.5 -56t61.5 -166v-258q0 -112 -61 -167.5t-152 -55.5t-152 54t-61 168zM182 708l63 137h133l-68 -137h-128zM197 205q0 -31 15 -46.5t38 -15.5t38 15.5t15 46.5v251q0 32 -15 47.5t-38 15.5t-38 -15.5t-15 -47.5v-251z" />
<glyph unicode="&#xf4;" horiz-adv-x="500" d="M37 202v258q0 111 61.5 167t151.5 56t151.5 -56t61.5 -166v-258q0 -112 -61 -167.5t-152 -55.5t-152 54t-61 168zM114 702v101l136 40l136 -40v-101l-136 36zM197 205q0 -31 15 -46.5t38 -15.5t38 15.5t15 46.5v251q0 32 -15 47.5t-38 15.5t-38 -15.5t-15 -47.5v-251z " />
<glyph unicode="&#xf5;" horiz-adv-x="500" d="M37 202v258q0 111 61.5 167t151.5 56t151.5 -56t61.5 -166v-258q0 -112 -61 -167.5t-152 -55.5t-152 54t-61 168zM92 701q1 59 25.5 93t69.5 34q29 0 65.5 -17t49.5 -17q24 0 26 34h81q0 -59 -24.5 -93t-67.5 -34q-28 0 -64.5 16.5t-49.5 16.5q-28 0 -28 -33h-83z M197 205q0 -31 15 -46.5t38 -15.5t38 15.5t15 46.5v251q0 32 -15 47.5t-38 15.5t-38 -15.5t-15 -47.5v-251z" />
<glyph unicode="&#xf6;" horiz-adv-x="500" d="M37 202v258q0 111 61.5 167t151.5 56t151.5 -56t61.5 -166v-258q0 -112 -61 -167.5t-152 -55.5t-152 54t-61 168zM96 709v129h131v-129h-131zM197 205q0 -31 15 -46.5t38 -15.5t38 15.5t15 46.5v251q0 32 -15 47.5t-38 15.5t-38 -15.5t-15 -47.5v-251zM274 709v129h131 v-129h-131z" />
<glyph unicode="&#xf7;" horiz-adv-x="460" d="M25 265v134h410v-134h-410zM159 101v129h142v-129h-142zM159 432v129h142v-129h-142z" />
<glyph unicode="&#xf8;" horiz-adv-x="500" d="M37 202v258q0 111 61.5 167t151.5 56q47 0 86 -16l27 70h80l-42 -110q62 -60 62 -166v-258q0 -112 -61 -167.5t-152 -55.5q-47 0 -92 17l-21 -56h-79l37 96q-58 60 -58 165zM183 267l102 266q-16 8 -35 8q-67 0 -67 -78v-196zM210 132q15 -11 40 -11q67 0 67 77v211z" />
<glyph unicode="&#xf9;" horiz-adv-x="495" d="M40 209v454h160v-456q0 -63 47 -63q48 0 48 63v456h160v-454q0 -229 -207 -229q-208 0 -208 229zM120 845h133l63 -137h-128z" />
<glyph unicode="&#xfa;" horiz-adv-x="495" d="M40 209v454h160v-456q0 -63 47 -63q48 0 48 63v456h160v-454q0 -229 -207 -229q-208 0 -208 229zM180 708l63 137h133l-68 -137h-128z" />
<glyph unicode="&#xfb;" horiz-adv-x="495" d="M40 209v454h160v-456q0 -63 47 -63q48 0 48 63v456h160v-454q0 -229 -207 -229q-208 0 -208 229zM112 702v101l136 40l136 -40v-101l-136 36z" />
<glyph unicode="&#xfc;" horiz-adv-x="495" d="M40 209v454h160v-456q0 -63 47 -63q48 0 48 63v456h160v-454q0 -229 -207 -229q-208 0 -208 229zM94 709v129h131v-129h-131zM272 709v129h131v-129h-131z" />
<glyph unicode="&#xfd;" horiz-adv-x="482" d="M2 663h168l71 -222h6l71 222h162l-160 -411v-252h-160v252zM176 708l63 137h133l-68 -137h-128z" />
<glyph unicode="&#xfe;" horiz-adv-x="454" d="M50 0v663h160v-102h5q219 0 219 -220q0 -106 -54.5 -167t-156.5 -61h-13v-113h-160zM210 260h17q27 0 39.5 17.5t12.5 57.5q0 75 -52 75h-17v-150z" />
<glyph unicode="&#xff;" horiz-adv-x="482" d="M2 663h168l71 -222h6l71 222h162l-160 -411v-252h-160v252zM90 709v129h131v-129h-131zM268 709v129h131v-129h-131z" />
<glyph unicode="&#x100;" horiz-adv-x="502" d="M4 0l156 663h186l152 -663h-164l-23 123h-125l-23 -123h-159zM99 707v105h308v-105h-308zM213 262h73l-33 201h-6z" />
<glyph unicode="&#x101;" horiz-adv-x="502" d="M4 0l156 663h186l152 -663h-164l-23 123h-125l-23 -123h-159zM99 707v105h308v-105h-308zM213 262h73l-33 201h-6z" />
<glyph unicode="&#x102;" horiz-adv-x="502" d="M4 0l156 663h186l152 -663h-164l-23 123h-125l-23 -123h-159zM95 824h117q1 -14 11.5 -22.5t27.5 -8.5t27.5 8.5t11.5 22.5h117q0 -58 -43 -93.5t-113 -35.5t-113 35.5t-43 93.5zM213 262h73l-33 201h-6z" />
<glyph unicode="&#x103;" horiz-adv-x="502" d="M4 0l156 663h186l152 -663h-164l-23 123h-125l-23 -123h-159zM95 824h117q1 -14 11.5 -22.5t27.5 -8.5t27.5 8.5t11.5 22.5h117q0 -58 -43 -93.5t-113 -35.5t-113 35.5t-43 93.5zM213 262h73l-33 201h-6z" />
<glyph unicode="&#x104;" horiz-adv-x="502" d="M4 0l156 663h186l152 -663h-7q-41 -30 -41 -62q0 -28 37 -28h4v-79h-36q-108 0 -108 80q0 28 19 52t50 37h-82l-23 123h-125l-23 -123h-159zM213 262h73l-33 201h-6z" />
<glyph unicode="&#x105;" horiz-adv-x="502" d="M4 0l156 663h186l152 -663h-7q-41 -30 -41 -62q0 -28 37 -28h4v-79h-36q-108 0 -108 80q0 28 19 52t50 37h-82l-23 123h-125l-23 -123h-159zM213 262h73l-33 201h-6z" />
<glyph unicode="&#x106;" horiz-adv-x="467" d="M37 198v266q0 53 14 93.5t35 63.5t49.5 37.5t53.5 19.5t52 5q37 0 69 -10.5t63 -36.5t48.5 -78t16.5 -125h-153q1 47 -9.5 66.5t-35.5 19.5q-44 0 -44 -59v-259q0 -59 44 -59q25 0 35.5 21t9.5 77h153q1 -62 -10.5 -109.5t-30.5 -75.5t-46.5 -45.5t-53.5 -23.5t-56 -6 q-34 0 -65.5 8.5t-65 30t-53.5 67.5t-20 112zM173 708l63 137h133l-68 -137h-128z" />
<glyph unicode="&#x107;" horiz-adv-x="467" d="M37 198v266q0 53 14 93.5t35 63.5t49.5 37.5t53.5 19.5t52 5q37 0 69 -10.5t63 -36.5t48.5 -78t16.5 -125h-153q1 47 -9.5 66.5t-35.5 19.5q-44 0 -44 -59v-259q0 -59 44 -59q25 0 35.5 21t9.5 77h153q1 -62 -10.5 -109.5t-30.5 -75.5t-46.5 -45.5t-53.5 -23.5t-56 -6 q-34 0 -65.5 8.5t-65 30t-53.5 67.5t-20 112zM173 708l63 137h133l-68 -137h-128z" />
<glyph unicode="&#x108;" horiz-adv-x="467" d="M37 198v266q0 53 14 93.5t35 63.5t49.5 37.5t53.5 19.5t52 5q37 0 69 -10.5t63 -36.5t48.5 -78t16.5 -125h-153q1 47 -9.5 66.5t-35.5 19.5q-44 0 -44 -59v-259q0 -59 44 -59q25 0 35.5 21t9.5 77h153q1 -62 -10.5 -109.5t-30.5 -75.5t-46.5 -45.5t-53.5 -23.5t-56 -6 q-34 0 -65.5 8.5t-65 30t-53.5 67.5t-20 112zM105 702v101l136 40l136 -40v-101l-136 36z" />
<glyph unicode="&#x109;" horiz-adv-x="467" d="M37 198v266q0 53 14 93.5t35 63.5t49.5 37.5t53.5 19.5t52 5q37 0 69 -10.5t63 -36.5t48.5 -78t16.5 -125h-153q1 47 -9.5 66.5t-35.5 19.5q-44 0 -44 -59v-259q0 -59 44 -59q25 0 35.5 21t9.5 77h153q1 -62 -10.5 -109.5t-30.5 -75.5t-46.5 -45.5t-53.5 -23.5t-56 -6 q-34 0 -65.5 8.5t-65 30t-53.5 67.5t-20 112zM105 702v101l136 40l136 -40v-101l-136 36z" />
<glyph unicode="&#x10a;" horiz-adv-x="467" d="M37 198v266q0 53 14 93.5t35 63.5t49.5 37.5t53.5 19.5t52 5q37 0 69 -10.5t63 -36.5t48.5 -78t16.5 -125h-153q1 47 -9.5 66.5t-35.5 19.5q-44 0 -44 -59v-259q0 -59 44 -59q25 0 35.5 21t9.5 77h153q1 -62 -10.5 -109.5t-30.5 -75.5t-46.5 -45.5t-53.5 -23.5t-56 -6 q-34 0 -65.5 8.5t-65 30t-53.5 67.5t-20 112zM174 704v134h134v-134h-134z" />
<glyph unicode="&#x10b;" horiz-adv-x="467" d="M37 198v266q0 53 14 93.5t35 63.5t49.5 37.5t53.5 19.5t52 5q37 0 69 -10.5t63 -36.5t48.5 -78t16.5 -125h-153q1 47 -9.5 66.5t-35.5 19.5q-44 0 -44 -59v-259q0 -59 44 -59q25 0 35.5 21t9.5 77h153q1 -62 -10.5 -109.5t-30.5 -75.5t-46.5 -45.5t-53.5 -23.5t-56 -6 q-34 0 -65.5 8.5t-65 30t-53.5 67.5t-20 112zM174 704v134h134v-134h-134z" />
<glyph unicode="&#x10c;" horiz-adv-x="467" d="M37 198v266q0 53 14 93.5t35 63.5t49.5 37.5t53.5 19.5t52 5q37 0 69 -10.5t63 -36.5t48.5 -78t16.5 -125h-153q1 47 -9.5 66.5t-35.5 19.5q-44 0 -44 -59v-259q0 -59 44 -59q25 0 35.5 21t9.5 77h153q1 -62 -10.5 -109.5t-30.5 -75.5t-46.5 -45.5t-53.5 -23.5t-56 -6 q-34 0 -65.5 8.5t-65 30t-53.5 67.5t-20 112zM105 735v98q99 -24 136 -32l136 32v-98l-136 -37z" />
<glyph unicode="&#x10d;" horiz-adv-x="467" d="M37 198v266q0 53 14 93.5t35 63.5t49.5 37.5t53.5 19.5t52 5q37 0 69 -10.5t63 -36.5t48.5 -78t16.5 -125h-153q1 47 -9.5 66.5t-35.5 19.5q-44 0 -44 -59v-259q0 -59 44 -59q25 0 35.5 21t9.5 77h153q1 -62 -10.5 -109.5t-30.5 -75.5t-46.5 -45.5t-53.5 -23.5t-56 -6 q-34 0 -65.5 8.5t-65 30t-53.5 67.5t-20 112zM105 735v98q99 -24 136 -32l136 32v-98l-136 -37z" />
<glyph unicode="&#x10e;" horiz-adv-x="482" d="M50 0v663h152q127 0 186 -52.5t59 -190.5v-177q0 -138 -59 -190.5t-186 -52.5h-152zM91 733v98q99 -24 136 -32l136 32v-98l-136 -37zM210 161h22q28 0 41 14t13 47v219q0 34 -13 47.5t-41 13.5h-22v-341z" />
<glyph unicode="&#x10f;" horiz-adv-x="482" d="M50 0v663h152q127 0 186 -52.5t59 -190.5v-177q0 -138 -59 -190.5t-186 -52.5h-152zM91 733v98q99 -24 136 -32l136 32v-98l-136 -37zM210 161h22q28 0 41 14t13 47v219q0 34 -13 47.5t-41 13.5h-22v-341z" />
<glyph unicode="&#x110;" horiz-adv-x="482" d="M11 266v131h39v266h152q127 0 186 -52.5t59 -190.5v-177q0 -138 -59 -190.5t-186 -52.5h-152v266h-39zM210 161h22q28 0 41 14t13 47v219q0 34 -13 47.5t-41 13.5h-22v-105h36v-131h-36v-105z" />
<glyph unicode="&#x111;" horiz-adv-x="482" d="M50 0v663h152q127 0 186 -52.5t59 -190.5v-177q0 -138 -59 -190.5t-186 -52.5h-152zM210 161h22q28 0 41 14t13 47v219q0 34 -13 47.5t-41 13.5h-22v-341z" />
<glyph unicode="&#x112;" horiz-adv-x="424" d="M50 0v663h335v-159h-175v-84h167v-150h-167v-110h179v-160h-339zM65 707v105h308v-105h-308z" />
<glyph unicode="&#x113;" horiz-adv-x="424" d="M50 0v663h335v-159h-175v-84h167v-150h-167v-110h179v-160h-339zM65 707v105h308v-105h-308z" />
<glyph unicode="&#x114;" horiz-adv-x="424" d="M50 0v663h335v-159h-175v-84h167v-150h-167v-110h179v-160h-339zM61 824h117q1 -14 11.5 -22.5t27.5 -8.5t27.5 8.5t11.5 22.5h117q0 -58 -43 -93.5t-113 -35.5t-113 35.5t-43 93.5z" />
<glyph unicode="&#x115;" horiz-adv-x="424" d="M50 0v663h335v-159h-175v-84h167v-150h-167v-110h179v-160h-339zM61 824h117q1 -14 11.5 -22.5t27.5 -8.5t27.5 8.5t11.5 22.5h117q0 -58 -43 -93.5t-113 -35.5t-113 35.5t-43 93.5z" />
<glyph unicode="&#x116;" horiz-adv-x="424" d="M50 0v663h335v-159h-175v-84h167v-150h-167v-110h179v-160h-339zM152 704v134h134v-134h-134z" />
<glyph unicode="&#x117;" horiz-adv-x="424" d="M50 0v663h335v-159h-175v-84h167v-150h-167v-110h179v-160h-339zM152 704v134h134v-134h-134z" />
<glyph unicode="&#x118;" horiz-adv-x="424" d="M50 0v663h335v-159h-175v-84h167v-150h-167v-110h179v-160h-1q-41 -30 -41 -62q0 -28 37 -28h4v-79h-36q-108 0 -108 80q0 28 19 52t50 37h-263z" />
<glyph unicode="&#x119;" horiz-adv-x="424" d="M50 0v663h335v-159h-175v-84h167v-150h-167v-110h179v-160h-1q-41 -30 -41 -62q0 -28 37 -28h4v-79h-36q-108 0 -108 80q0 28 19 52t50 37h-263z" />
<glyph unicode="&#x11a;" horiz-adv-x="424" d="M50 0v663h335v-159h-175v-84h167v-150h-167v-110h179v-160h-339zM83 735v98q99 -24 136 -32l136 32v-98l-136 -37z" />
<glyph unicode="&#x11b;" horiz-adv-x="424" d="M50 0v663h335v-159h-175v-84h167v-150h-167v-110h179v-160h-339zM83 735v98q99 -24 136 -32l136 32v-98l-136 -37z" />
<glyph unicode="&#x11c;" horiz-adv-x="493" d="M37 220v231q0 66 19.5 114t52 72t67.5 35t73 11q33 0 64.5 -9t66.5 -32.5t56 -76t20 -127.5l-152 3q1 82 -53 82q-23 0 -38.5 -15t-15.5 -49v-255q0 -66 55 -66q52 0 52 57v14h-66v137h218v-127q0 -56 -13.5 -99.5t-34.5 -69.5t-49.5 -42t-55 -22t-54.5 -6q-37 0 -70 9.5 t-67 33t-54.5 74t-20.5 123.5zM114 702v101l136 40l136 -40v-101l-136 36z" />
<glyph unicode="&#x11d;" horiz-adv-x="493" d="M37 220v231q0 66 19.5 114t52 72t67.5 35t73 11q33 0 64.5 -9t66.5 -32.5t56 -76t20 -127.5l-152 3q1 82 -53 82q-23 0 -38.5 -15t-15.5 -49v-255q0 -66 55 -66q52 0 52 57v14h-66v137h218v-127q0 -56 -13.5 -99.5t-34.5 -69.5t-49.5 -42t-55 -22t-54.5 -6q-37 0 -70 9.5 t-67 33t-54.5 74t-20.5 123.5zM114 702v101l136 40l136 -40v-101l-136 36z" />
<glyph unicode="&#x11e;" horiz-adv-x="493" d="M37 220v231q0 66 19.5 114t52 72t67.5 35t73 11q33 0 64.5 -9t66.5 -32.5t56 -76t20 -127.5l-152 3q1 82 -53 82q-23 0 -38.5 -15t-15.5 -49v-255q0 -66 55 -66q52 0 52 57v14h-66v137h218v-127q0 -56 -13.5 -99.5t-34.5 -69.5t-49.5 -42t-55 -22t-54.5 -6q-37 0 -70 9.5 t-67 33t-54.5 74t-20.5 123.5zM92 824h117q1 -14 11.5 -22.5t27.5 -8.5t27.5 8.5t11.5 22.5h117q0 -58 -43 -93.5t-113 -35.5t-113 35.5t-43 93.5z" />
<glyph unicode="&#x11f;" horiz-adv-x="493" d="M37 220v231q0 66 19.5 114t52 72t67.5 35t73 11q33 0 64.5 -9t66.5 -32.5t56 -76t20 -127.5l-152 3q1 82 -53 82q-23 0 -38.5 -15t-15.5 -49v-255q0 -66 55 -66q52 0 52 57v14h-66v137h218v-127q0 -56 -13.5 -99.5t-34.5 -69.5t-49.5 -42t-55 -22t-54.5 -6q-37 0 -70 9.5 t-67 33t-54.5 74t-20.5 123.5zM92 824h117q1 -14 11.5 -22.5t27.5 -8.5t27.5 8.5t11.5 22.5h117q0 -58 -43 -93.5t-113 -35.5t-113 35.5t-43 93.5z" />
<glyph unicode="&#x120;" horiz-adv-x="493" d="M37 220v231q0 66 19.5 114t52 72t67.5 35t73 11q33 0 64.5 -9t66.5 -32.5t56 -76t20 -127.5l-152 3q1 82 -53 82q-23 0 -38.5 -15t-15.5 -49v-255q0 -66 55 -66q52 0 52 57v14h-66v137h218v-127q0 -56 -13.5 -99.5t-34.5 -69.5t-49.5 -42t-55 -22t-54.5 -6q-37 0 -70 9.5 t-67 33t-54.5 74t-20.5 123.5zM183 704v134h134v-134h-134z" />
<glyph unicode="&#x121;" horiz-adv-x="493" d="M37 220v231q0 66 19.5 114t52 72t67.5 35t73 11q33 0 64.5 -9t66.5 -32.5t56 -76t20 -127.5l-152 3q1 82 -53 82q-23 0 -38.5 -15t-15.5 -49v-255q0 -66 55 -66q52 0 52 57v14h-66v137h218v-127q0 -56 -13.5 -99.5t-34.5 -69.5t-49.5 -42t-55 -22t-54.5 -6q-37 0 -70 9.5 t-67 33t-54.5 74t-20.5 123.5zM183 704v134h134v-134h-134z" />
<glyph unicode="&#x122;" horiz-adv-x="493" d="M37 220v231q0 66 19.5 114t52 72t67.5 35t73 11q33 0 64.5 -9t66.5 -32.5t56 -76t20 -127.5l-152 3q1 82 -53 82q-23 0 -38.5 -15t-15.5 -49v-255q0 -66 55 -66q52 0 52 57v14h-66v137h218v-127q0 -56 -13.5 -99.5t-34.5 -69.5t-49.5 -42t-55 -22t-54.5 -6q-37 0 -70 9.5 t-67 33t-54.5 74t-20.5 123.5zM136 -169l56 122h117l-60 -122h-113z" />
<glyph unicode="&#x123;" horiz-adv-x="493" d="M37 220v231q0 66 19.5 114t52 72t67.5 35t73 11q33 0 64.5 -9t66.5 -32.5t56 -76t20 -127.5l-152 3q1 82 -53 82q-23 0 -38.5 -15t-15.5 -49v-255q0 -66 55 -66q52 0 52 57v14h-66v137h218v-127q0 -56 -13.5 -99.5t-34.5 -69.5t-49.5 -42t-55 -22t-54.5 -6q-37 0 -70 9.5 t-67 33t-54.5 74t-20.5 123.5zM136 -169l56 122h117l-60 -122h-113z" />
<glyph unicode="&#x124;" horiz-adv-x="503" d="M50 0v663h158v-236h87v236h158v-663h-158v274h-87v-274h-158zM115 702v101l136 40l136 -40v-101l-136 36z" />
<glyph unicode="&#x125;" horiz-adv-x="503" d="M50 0v663h158v-236h87v236h158v-663h-158v274h-87v-274h-158zM115 702v101l136 40l136 -40v-101l-136 36z" />
<glyph unicode="&#x126;" horiz-adv-x="503" d="M10 473v131h40v59h158v-59h87v59h158v-59h40v-131h-40v-473h-158v274h-87v-274h-158v473h-40zM208 407h87v66h-87v-66z" />
<glyph unicode="&#x127;" horiz-adv-x="503" d="M10 473v131h40v59h158v-59h87v59h158v-59h40v-131h-40v-473h-158v274h-87v-274h-158v473h-40zM208 407h87v66h-87v-66z" />
<glyph unicode="&#x128;" d="M-2 701q1 59 21.5 93t57.5 34q24 0 52.5 -14.5t39.5 -14.5q24 0 26 29h67q0 -60 -20 -93.5t-57 -33.5q-23 0 -51 14t-39 14q-28 0 -28 -28h-69zM50 0v663h160v-663h-160z" />
<glyph unicode="&#x129;" d="M-2 701q1 59 21.5 93t57.5 34q24 0 52.5 -14.5t39.5 -14.5q24 0 26 29h67q0 -60 -20 -93.5t-57 -33.5q-23 0 -51 14t-39 14q-28 0 -28 -28h-69zM50 0v663h160v-663h-160z" />
<glyph unicode="&#x12a;" d="M23 707v105h215v-105h-215zM50 0v663h160v-663h-160z" />
<glyph unicode="&#x12b;" d="M23 707v105h215v-105h-215zM50 0v663h160v-663h-160z" />
<glyph unicode="&#x12c;" d="M-28 824h117q1 -14 11.5 -22.5t27.5 -8.5t27.5 8.5t11.5 22.5h117q0 -58 -43 -93.5t-113 -35.5t-113 35.5t-43 93.5zM50 0v663h160v-663h-160z" />
<glyph unicode="&#x12d;" d="M-28 824h117q1 -14 11.5 -22.5t27.5 -8.5t27.5 8.5t11.5 22.5h117q0 -58 -43 -93.5t-113 -35.5t-113 35.5t-43 93.5zM50 0v663h160v-663h-160z" />
<glyph unicode="&#x12e;" d="M50 0v663h160v-663h-160zM50 705v135h160v-135h-160zM56 -89q0 28 19 52t50 37h85q-51 -26 -51 -58t37 -32h4v-79h-36q-108 0 -108 80z" />
<glyph unicode="&#x12f;" d="M50 0v663h160v-663h-160zM50 705v135h160v-135h-160zM56 -89q0 28 19 52t50 37h85q-51 -26 -51 -58t37 -32h4v-79h-36q-108 0 -108 80z" />
<glyph unicode="&#x130;" d="M50 0v663h160v-663h-160zM50 705v135h160v-135h-160z" />
<glyph unicode="&#x131;" d="M50 0v663h160v-663h-160z" />
<glyph unicode="&#x132;" horiz-adv-x="698" d="M246 209v16h160v-20q0 -63 47 -63q48 0 48 63v458h160v-454q0 -229 -207 -229q-99 0 -153.5 52t-54.5 177zM246 254v409h160v-409h-160zM246 706v134h162v-134h-162zM500 706v134h162v-134h-162z" />
<glyph unicode="&#x133;" horiz-adv-x="698" d="M246 209v16h160v-20q0 -63 47 -63q48 0 48 63v458h160v-454q0 -229 -207 -229q-99 0 -153.5 52t-54.5 177zM246 254v409h160v-409h-160zM246 706v134h162v-134h-162zM500 706v134h162v-134h-162z" />
<glyph unicode="&#x134;" horiz-adv-x="438" d="M6 230h146q-4 -86 45 -86q44 0 44 60v459h160v-460q0 -64 -17.5 -110t-48 -69.5t-63.5 -33.5t-72 -10q-85 0 -142.5 60.5t-51.5 189.5zM208 702v101l112 40l114 -40v-101l-114 36z" />
<glyph unicode="&#x135;" horiz-adv-x="438" d="M6 230h146q-4 -86 45 -86q44 0 44 60v459h160v-460q0 -64 -17.5 -110t-48 -69.5t-63.5 -33.5t-72 -10q-85 0 -142.5 60.5t-51.5 189.5zM208 702v101l112 40l114 -40v-101l-114 36z" />
<glyph unicode="&#x136;" horiz-adv-x="519" d="M50 0v663h159v-280h5l91 280h170l-105 -296v-4l133 -363h-179l-110 324h-5v-324h-159zM152 -169l56 122h117l-60 -122h-113z" />
<glyph unicode="&#x137;" horiz-adv-x="519" d="M50 0v663h159v-280h5l91 280h170l-105 -296v-4l133 -363h-179l-110 324h-5v-324h-159zM152 -169l56 122h117l-60 -122h-113z" />
<glyph unicode="&#x139;" horiz-adv-x="387" d="M50 0v663h158v-503h164v-160h-322zM59 708l63 137h133l-68 -137h-128z" />
<glyph unicode="&#x13a;" horiz-adv-x="387" d="M50 0v663h158v-503h164v-160h-322zM59 708l63 137h133l-68 -137h-128z" />
<glyph unicode="&#x13b;" horiz-adv-x="387" d="M50 0v663h158v-503h164v-160h-322zM98 -169l56 122h117l-60 -122h-113z" />
<glyph unicode="&#x13c;" horiz-adv-x="387" d="M50 0v663h158v-503h164v-160h-322zM98 -169l56 122h117l-60 -122h-113z" />
<glyph unicode="&#x13d;" horiz-adv-x="387" d="M50 0v663h158v-503h164v-160h-322zM256 457l20 206h116l-31 -206h-105z" />
<glyph unicode="&#x13e;" horiz-adv-x="387" d="M50 0v663h158v-503h164v-160h-322zM256 457l20 206h116l-31 -206h-105z" />
<glyph unicode="&#x13f;" horiz-adv-x="387" d="M50 0v663h158v-503h164v-160h-322zM263 279v130h120v-130h-120z" />
<glyph unicode="&#x140;" horiz-adv-x="387" d="M50 0v663h158v-503h164v-160h-322zM263 279v130h120v-130h-120z" />
<glyph unicode="&#x141;" horiz-adv-x="387" d="M9 225v131l41 18v289h158v-218l86 39v-131l-86 -39v-154h164v-160h-322v243z" />
<glyph unicode="&#x142;" horiz-adv-x="387" d="M9 225v131l41 18v289h158v-218l86 39v-131l-86 -39v-154h164v-160h-322v243z" />
<glyph unicode="&#x143;" horiz-adv-x="542" d="M50 0v663h169l119 -309h6v309h148v-663h-162l-125 342h-6v-342h-149zM203 708l63 137h133l-68 -137h-128z" />
<glyph unicode="&#x144;" horiz-adv-x="542" d="M50 0v663h169l119 -309h6v309h148v-663h-162l-125 342h-6v-342h-149zM203 708l63 137h133l-68 -137h-128z" />
<glyph unicode="&#x145;" horiz-adv-x="542" d="M50 0v663h169l119 -309h6v309h148v-663h-162l-125 342h-6v-342h-149zM154 -169l56 122h117l-60 -122h-113z" />
<glyph unicode="&#x146;" horiz-adv-x="542" d="M50 0v663h169l119 -309h6v309h148v-663h-162l-125 342h-6v-342h-149zM154 -169l56 122h117l-60 -122h-113z" />
<glyph unicode="&#x147;" horiz-adv-x="542" d="M50 0v663h169l119 -309h6v309h148v-663h-162l-125 342h-6v-342h-149zM135 735v98q99 -24 136 -32l136 32v-98l-136 -37z" />
<glyph unicode="&#x148;" horiz-adv-x="542" d="M50 0v663h169l119 -309h6v309h148v-663h-162l-125 342h-6v-342h-149zM135 735v98q99 -24 136 -32l136 32v-98l-136 -37z" />
<glyph unicode="&#x14a;" horiz-adv-x="542" d="M50 0v663h169l119 -309h6v309h148v-627q0 -59 -14.5 -101t-40.5 -63.5t-54 -31t-62 -9.5h-36v123h26q37 0 40 35l-146 353h-6v-342h-149z" />
<glyph unicode="&#x14b;" horiz-adv-x="542" d="M50 0v663h169l119 -309h6v309h148v-627q0 -59 -14.5 -101t-40.5 -63.5t-54 -31t-62 -9.5h-36v123h26q37 0 40 35l-146 353h-6v-342h-149z" />
<glyph unicode="&#x14c;" horiz-adv-x="500" d="M37 202v258q0 111 61.5 167t151.5 56t151.5 -56t61.5 -166v-258q0 -112 -61 -167.5t-152 -55.5t-152 54t-61 168zM96 707v105h308v-105h-308zM197 205q0 -31 15 -46.5t38 -15.5t38 15.5t15 46.5v251q0 32 -15 47.5t-38 15.5t-38 -15.5t-15 -47.5v-251z" />
<glyph unicode="&#x14d;" horiz-adv-x="500" d="M37 202v258q0 111 61.5 167t151.5 56t151.5 -56t61.5 -166v-258q0 -112 -61 -167.5t-152 -55.5t-152 54t-61 168zM96 707v105h308v-105h-308zM197 205q0 -31 15 -46.5t38 -15.5t38 15.5t15 46.5v251q0 32 -15 47.5t-38 15.5t-38 -15.5t-15 -47.5v-251z" />
<glyph unicode="&#x14e;" horiz-adv-x="500" d="M37 202v258q0 111 61.5 167t151.5 56t151.5 -56t61.5 -166v-258q0 -112 -61 -167.5t-152 -55.5t-152 54t-61 168zM92 824h117q1 -14 11.5 -22.5t27.5 -8.5t27.5 8.5t11.5 22.5h117q0 -58 -43 -93.5t-113 -35.5t-113 35.5t-43 93.5zM197 205q0 -31 15 -46.5t38 -15.5 t38 15.5t15 46.5v251q0 32 -15 47.5t-38 15.5t-38 -15.5t-15 -47.5v-251z" />
<glyph unicode="&#x14f;" horiz-adv-x="500" d="M37 202v258q0 111 61.5 167t151.5 56t151.5 -56t61.5 -166v-258q0 -112 -61 -167.5t-152 -55.5t-152 54t-61 168zM92 824h117q1 -14 11.5 -22.5t27.5 -8.5t27.5 8.5t11.5 22.5h117q0 -58 -43 -93.5t-113 -35.5t-113 35.5t-43 93.5zM197 205q0 -31 15 -46.5t38 -15.5 t38 15.5t15 46.5v251q0 32 -15 47.5t-38 15.5t-38 -15.5t-15 -47.5v-251z" />
<glyph unicode="&#x150;" horiz-adv-x="500" d="M37 202v258q0 111 61.5 167t151.5 56t151.5 -56t61.5 -166v-258q0 -112 -61 -167.5t-152 -55.5t-152 54t-61 168zM110 711l63 137h119l-68 -137h-114zM197 205q0 -31 15 -46.5t38 -15.5t38 15.5t15 46.5v251q0 32 -15 47.5t-38 15.5t-38 -15.5t-15 -47.5v-251zM254 711 l63 137h119l-68 -137h-114z" />
<glyph unicode="&#x151;" horiz-adv-x="500" d="M37 202v258q0 111 61.5 167t151.5 56t151.5 -56t61.5 -166v-258q0 -112 -61 -167.5t-152 -55.5t-152 54t-61 168zM110 711l63 137h119l-68 -137h-114zM197 205q0 -31 15 -46.5t38 -15.5t38 15.5t15 46.5v251q0 32 -15 47.5t-38 15.5t-38 -15.5t-15 -47.5v-251zM254 711 l63 137h119l-68 -137h-114z" />
<glyph unicode="&#x152;" horiz-adv-x="678" d="M37 206v249q0 108 56.5 163t142.5 55q48 0 74 -20v10h329v-159h-177v-84h169v-150h-169v-110h181v-160h-327v10q-24 -20 -80 -20q-87 0 -143 52.5t-56 163.5zM197 205q0 -31 15.5 -46.5t40.5 -15.5t40.5 15.5t15.5 46.5v251q0 32 -15.5 47.5t-40.5 15.5t-40.5 -15.5 t-15.5 -47.5v-251z" />
<glyph unicode="&#x153;" horiz-adv-x="678" d="M37 206v249q0 108 56.5 163t142.5 55q48 0 74 -20v10h329v-159h-177v-84h169v-150h-169v-110h181v-160h-327v10q-24 -20 -80 -20q-87 0 -143 52.5t-56 163.5zM197 205q0 -31 15.5 -46.5t40.5 -15.5t40.5 15.5t15.5 46.5v251q0 32 -15.5 47.5t-40.5 15.5t-40.5 -15.5 t-15.5 -47.5v-251z" />
<glyph unicode="&#x154;" horiz-adv-x="479" d="M50 0v663h193q106 0 154 -50.5t48 -124.5q0 -52 -25.5 -89.5t-62.5 -58.5v-4q40 -11 67.5 -47.5t27.5 -101.5v-187h-160v183q0 34 -12.5 50t-41.5 16h-28v-249h-160zM169 708l63 137h133l-68 -137h-128zM210 393h23q56 0 56 68q0 60 -53 60h-26v-128z" />
<glyph unicode="&#x155;" horiz-adv-x="479" d="M50 0v663h193q106 0 154 -50.5t48 -124.5q0 -52 -25.5 -89.5t-62.5 -58.5v-4q40 -11 67.5 -47.5t27.5 -101.5v-187h-160v183q0 34 -12.5 50t-41.5 16h-28v-249h-160zM169 708l63 137h133l-68 -137h-128zM210 393h23q56 0 56 68q0 60 -53 60h-26v-128z" />
<glyph unicode="&#x156;" horiz-adv-x="479" d="M50 0v663h193q106 0 154 -50.5t48 -124.5q0 -52 -25.5 -89.5t-62.5 -58.5v-4q40 -11 67.5 -47.5t27.5 -101.5v-187h-160v183q0 34 -12.5 50t-41.5 16h-28v-249h-160zM137 -169l56 122h117l-60 -122h-113zM210 393h23q56 0 56 68q0 60 -53 60h-26v-128z" />
<glyph unicode="&#x157;" horiz-adv-x="479" d="M50 0v663h193q106 0 154 -50.5t48 -124.5q0 -52 -25.5 -89.5t-62.5 -58.5v-4q40 -11 67.5 -47.5t27.5 -101.5v-187h-160v183q0 34 -12.5 50t-41.5 16h-28v-249h-160zM137 -169l56 122h117l-60 -122h-113zM210 393h23q56 0 56 68q0 60 -53 60h-26v-128z" />
<glyph unicode="&#x158;" horiz-adv-x="479" d="M50 0v663h193q106 0 154 -50.5t48 -124.5q0 -52 -25.5 -89.5t-62.5 -58.5v-4q40 -11 67.5 -47.5t27.5 -101.5v-187h-160v183q0 34 -12.5 50t-41.5 16h-28v-249h-160zM101 735v98q99 -24 136 -32l136 32v-98l-136 -37zM210 393h23q56 0 56 68q0 60 -53 60h-26v-128z" />
<glyph unicode="&#x159;" horiz-adv-x="479" d="M50 0v663h193q106 0 154 -50.5t48 -124.5q0 -52 -25.5 -89.5t-62.5 -58.5v-4q40 -11 67.5 -47.5t27.5 -101.5v-187h-160v183q0 34 -12.5 50t-41.5 16h-28v-249h-160zM101 735v98q99 -24 136 -32l136 32v-98l-136 -37zM210 393h23q56 0 56 68q0 60 -53 60h-26v-128z" />
<glyph unicode="&#x15a;" horiz-adv-x="452" d="M28 214h142q-3 -89 51 -89q43 0 43 43q0 37 -40 66l-74 54q-68 50 -93.5 99.5t-25.5 113.5q0 81 60 131.5t140 50.5q86 0 141.5 -55t52.5 -180h-142q3 93 -49 93q-46 0 -46 -43q0 -36 40 -66l88 -66q65 -49 88.5 -94.5t23.5 -99.5q0 -87 -58 -139.5t-143 -52.5 q-90 0 -146 55t-53 179zM167 708l63 137h133l-68 -137h-128z" />
<glyph unicode="&#x15b;" horiz-adv-x="452" d="M28 214h142q-3 -89 51 -89q43 0 43 43q0 37 -40 66l-74 54q-68 50 -93.5 99.5t-25.5 113.5q0 81 60 131.5t140 50.5q86 0 141.5 -55t52.5 -180h-142q3 93 -49 93q-46 0 -46 -43q0 -36 40 -66l88 -66q65 -49 88.5 -94.5t23.5 -99.5q0 -87 -58 -139.5t-143 -52.5 q-90 0 -146 55t-53 179zM167 708l63 137h133l-68 -137h-128z" />
<glyph unicode="&#x15c;" horiz-adv-x="452" d="M28 214h142q-3 -89 51 -89q43 0 43 43q0 37 -40 66l-74 54q-68 50 -93.5 99.5t-25.5 113.5q0 81 60 131.5t140 50.5q86 0 141.5 -55t52.5 -180h-142q3 93 -49 93q-46 0 -46 -43q0 -36 40 -66l88 -66q65 -49 88.5 -94.5t23.5 -99.5q0 -87 -58 -139.5t-143 -52.5 q-90 0 -146 55t-53 179zM99 702v101l136 40l136 -40v-101l-136 36z" />
<glyph unicode="&#x15d;" horiz-adv-x="452" d="M28 214h142q-3 -89 51 -89q43 0 43 43q0 37 -40 66l-74 54q-68 50 -93.5 99.5t-25.5 113.5q0 81 60 131.5t140 50.5q86 0 141.5 -55t52.5 -180h-142q3 93 -49 93q-46 0 -46 -43q0 -36 40 -66l88 -66q65 -49 88.5 -94.5t23.5 -99.5q0 -87 -58 -139.5t-143 -52.5 q-90 0 -146 55t-53 179zM99 702v101l136 40l136 -40v-101l-136 36z" />
<glyph unicode="&#x15e;" horiz-adv-x="452" d="M28 214h142q-3 -89 51 -89q43 0 43 43q0 37 -40 66l-74 54q-68 50 -93.5 99.5t-25.5 113.5q0 81 60 131.5t140 50.5q86 0 141.5 -55t52.5 -180h-142q3 93 -49 93q-46 0 -46 -43q0 -36 40 -66l88 -66q65 -49 88.5 -94.5t23.5 -99.5q0 -87 -58 -139.5t-143 -52.5h-4l-6 -18 q9 9 28 9q30 0 50 -19t20 -55q0 -40 -24.5 -61.5t-61.5 -21.5q-31 0 -58.5 21t-27.5 54h63q2 -16 22 -16q23 0 23 26q0 11 -6 17.5t-16 6.5q-15 0 -22 -13l-53 1l-1 21l23 53q-69 13 -110 68.5t-38 160.5z" />
<glyph unicode="&#x15f;" horiz-adv-x="452" d="M28 214h142q-3 -89 51 -89q43 0 43 43q0 37 -40 66l-74 54q-68 50 -93.5 99.5t-25.5 113.5q0 81 60 131.5t140 50.5q86 0 141.5 -55t52.5 -180h-142q3 93 -49 93q-46 0 -46 -43q0 -36 40 -66l88 -66q65 -49 88.5 -94.5t23.5 -99.5q0 -87 -58 -139.5t-143 -52.5h-4l-6 -18 q9 9 28 9q30 0 50 -19t20 -55q0 -40 -24.5 -61.5t-61.5 -21.5q-31 0 -58.5 21t-27.5 54h63q2 -16 22 -16q23 0 23 26q0 11 -6 17.5t-16 6.5q-15 0 -22 -13l-53 1l-1 21l23 53q-69 13 -110 68.5t-38 160.5z" />
<glyph unicode="&#x160;" horiz-adv-x="452" d="M28 214h142q-3 -89 51 -89q43 0 43 43q0 37 -40 66l-74 54q-68 50 -93.5 99.5t-25.5 113.5q0 81 60 131.5t140 50.5q86 0 141.5 -55t52.5 -180h-142q3 93 -49 93q-46 0 -46 -43q0 -36 40 -66l88 -66q65 -49 88.5 -94.5t23.5 -99.5q0 -87 -58 -139.5t-143 -52.5 q-90 0 -146 55t-53 179zM99 735v98q99 -24 136 -32l136 32v-98l-136 -37z" />
<glyph unicode="&#x161;" horiz-adv-x="452" d="M28 214h142q-3 -89 51 -89q43 0 43 43q0 37 -40 66l-74 54q-68 50 -93.5 99.5t-25.5 113.5q0 81 60 131.5t140 50.5q86 0 141.5 -55t52.5 -180h-142q3 93 -49 93q-46 0 -46 -43q0 -36 40 -66l88 -66q65 -49 88.5 -94.5t23.5 -99.5q0 -87 -58 -139.5t-143 -52.5 q-90 0 -146 55t-53 179zM99 735v98q99 -24 136 -32l136 32v-98l-136 -37z" />
<glyph unicode="&#x162;" horiz-adv-x="420" d="M15 508v155h390v-155h-113v-508h-160v508h-117zM101 -169l56 122h117l-60 -122h-113z" />
<glyph unicode="&#x163;" horiz-adv-x="420" d="M15 508v155h390v-155h-113v-508h-160v508h-117zM101 -169l56 122h117l-60 -122h-113z" />
<glyph unicode="&#x164;" horiz-adv-x="420" d="M15 508v155h390v-155h-113v-508h-160v508h-117zM74 735v98q99 -24 136 -32l136 32v-98l-136 -37z" />
<glyph unicode="&#x165;" horiz-adv-x="420" d="M15 508v155h390v-155h-113v-508h-160v508h-117zM74 735v98q99 -24 136 -32l136 32v-98l-136 -37z" />
<glyph unicode="&#x166;" horiz-adv-x="420" d="M15 508v155h390v-155h-113v-121h100v-136h-100v-251h-160v251h-104v136h104v121h-117z" />
<glyph unicode="&#x167;" horiz-adv-x="420" d="M15 508v155h390v-155h-113v-508h-160v508h-117z" />
<glyph unicode="&#x168;" horiz-adv-x="495" d="M40 209v454h160v-456q0 -63 47 -63q48 0 48 63v456h160v-454q0 -229 -207 -229q-208 0 -208 229zM95 701q1 59 25.5 93t69.5 34q29 0 65.5 -17t49.5 -17q24 0 26 34h81q0 -59 -24.5 -93t-67.5 -34q-28 0 -64.5 16.5t-49.5 16.5q-28 0 -28 -33h-83z" />
<glyph unicode="&#x169;" horiz-adv-x="495" d="M40 209v454h160v-456q0 -63 47 -63q48 0 48 63v456h160v-454q0 -229 -207 -229q-208 0 -208 229zM95 701q1 59 25.5 93t69.5 34q29 0 65.5 -17t49.5 -17q24 0 26 34h81q0 -59 -24.5 -93t-67.5 -34q-28 0 -64.5 16.5t-49.5 16.5q-28 0 -28 -33h-83z" />
<glyph unicode="&#x16a;" horiz-adv-x="495" d="M40 209v454h160v-456q0 -63 47 -63q48 0 48 63v456h160v-454q0 -229 -207 -229q-208 0 -208 229zM94 707v105h308v-105h-308z" />
<glyph unicode="&#x16b;" horiz-adv-x="495" d="M40 209v454h160v-456q0 -63 47 -63q48 0 48 63v456h160v-454q0 -229 -207 -229q-208 0 -208 229zM94 707v105h308v-105h-308z" />
<glyph unicode="&#x16c;" horiz-adv-x="495" d="M40 209v454h160v-456q0 -63 47 -63q48 0 48 63v456h160v-454q0 -229 -207 -229q-208 0 -208 229zM90 824h117q1 -14 11.5 -22.5t27.5 -8.5t27.5 8.5t11.5 22.5h117q0 -58 -43 -93.5t-113 -35.5t-113 35.5t-43 93.5z" />
<glyph unicode="&#x16d;" horiz-adv-x="495" d="M40 209v454h160v-456q0 -63 47 -63q48 0 48 63v456h160v-454q0 -229 -207 -229q-208 0 -208 229zM90 824h117q1 -14 11.5 -22.5t27.5 -8.5t27.5 8.5t11.5 22.5h117q0 -58 -43 -93.5t-113 -35.5t-113 35.5t-43 93.5z" />
<glyph unicode="&#x16e;" horiz-adv-x="495" d="M40 209v454h137q-56 34 -56 106q0 60 38.5 92.5t89.5 32.5t89.5 -32.5t38.5 -92.5q0 -71 -56 -106h134v-454q0 -229 -207 -229q-208 0 -208 229zM200 207q0 -63 47 -63q48 0 48 63v443q-21 -7 -46 -7q-28 0 -49 8v-444zM210 769q0 -19 11 -30t28 -11q16 0 27.5 11.5 t11.5 29.5t-11.5 29.5t-27.5 11.5q-17 0 -28 -11.5t-11 -29.5z" />
<glyph unicode="&#x16f;" horiz-adv-x="495" d="M40 209v454h137q-56 34 -56 106q0 60 38.5 92.5t89.5 32.5t89.5 -32.5t38.5 -92.5q0 -71 -56 -106h134v-454q0 -229 -207 -229q-208 0 -208 229zM200 207q0 -63 47 -63q48 0 48 63v443q-21 -7 -46 -7q-28 0 -49 8v-444zM210 769q0 -19 11 -30t28 -11q16 0 27.5 11.5 t11.5 29.5t-11.5 29.5t-27.5 11.5q-17 0 -28 -11.5t-11 -29.5z" />
<glyph unicode="&#x170;" horiz-adv-x="495" d="M40 209v454h160v-456q0 -63 47 -63q48 0 48 63v456h160v-454q0 -229 -207 -229q-208 0 -208 229zM108 711l63 137h119l-68 -137h-114zM252 711l63 137h119l-68 -137h-114z" />
<glyph unicode="&#x171;" horiz-adv-x="495" d="M40 209v454h160v-456q0 -63 47 -63q48 0 48 63v456h160v-454q0 -229 -207 -229q-208 0 -208 229zM108 711l63 137h119l-68 -137h-114zM252 711l63 137h119l-68 -137h-114z" />
<glyph unicode="&#x172;" horiz-adv-x="495" d="M40 209v454h160v-456q0 -63 47 -63q48 0 48 63v456h160v-454q0 -181 -137 -222q-53 -16 -53 -55q0 -36 37 -36h4v-79h-36q-108 0 -108 80q0 53 58 84q-180 16 -180 228z" />
<glyph unicode="&#x173;" horiz-adv-x="495" d="M40 209v454h160v-456q0 -63 47 -63q48 0 48 63v456h160v-454q0 -181 -137 -222q-53 -16 -53 -55q0 -36 37 -36h4v-79h-36q-108 0 -108 80q0 53 58 84q-180 16 -180 228z" />
<glyph unicode="&#x174;" horiz-adv-x="672" d="M5 663h155l52 -326h6l66 326h105l66 -326h6l52 326h154l-129 -663h-123l-76 291h-6l-76 -291h-123zM200 702v101l136 40l136 -40v-101l-136 36z" />
<glyph unicode="&#x175;" horiz-adv-x="672" d="M5 663h155l52 -326h6l66 326h105l66 -326h6l52 326h154l-129 -663h-123l-76 291h-6l-76 -291h-123zM200 702v101l136 40l136 -40v-101l-136 36z" />
<glyph unicode="&#x176;" horiz-adv-x="482" d="M2 663h168l71 -212h6l71 212h162l-160 -411v-252h-160v252zM108 702v101l136 40l136 -40v-101l-136 36z" />
<glyph unicode="&#x177;" horiz-adv-x="482" d="M2 663h168l71 -222h6l71 222h162l-160 -411v-252h-160v252zM108 702v101l136 40l136 -40v-101l-136 36z" />
<glyph unicode="&#x178;" horiz-adv-x="482" d="M2 663h168l71 -222h6l71 222h162l-160 -411v-252h-160v252zM90 709v129h131v-129h-131zM268 709v129h131v-129h-131z" />
<glyph unicode="&#x179;" horiz-adv-x="426" d="M25 0v161l192 344h-187v158h364v-152l-191 -352h198v-159h-376zM148 708l63 137h133l-68 -137h-128z" />
<glyph unicode="&#x17a;" horiz-adv-x="426" d="M25 0v161l192 344h-187v158h364v-152l-191 -352h198v-159h-376zM148 708l63 137h133l-68 -137h-128z" />
<glyph unicode="&#x17b;" horiz-adv-x="426" d="M25 0v161l192 344h-187v158h364v-152l-191 -352h198v-159h-376zM149 704v134h134v-134h-134z" />
<glyph unicode="&#x17c;" horiz-adv-x="426" d="M25 0v161l192 344h-187v158h364v-152l-191 -352h198v-159h-376zM149 704v134h134v-134h-134z" />
<glyph unicode="&#x17d;" horiz-adv-x="426" d="M25 0v161l192 344h-187v158h364v-152l-191 -352h198v-159h-376zM80 735v98q99 -24 136 -32l136 32v-98l-136 -37z" />
<glyph unicode="&#x17e;" horiz-adv-x="426" d="M25 0v161l192 344h-187v158h364v-152l-191 -352h198v-159h-376zM80 735v98q99 -24 136 -32l136 32v-98l-136 -37z" />
<glyph unicode="&#x1fa;" horiz-adv-x="502" d="M4 0l156 663h37q-73 30 -73 115q0 60 38.5 92.5t89.5 32.5t89.5 -32.5t38.5 -92.5q0 -84 -73 -115h39l152 -663h-164l-23 123h-125l-23 -123h-159zM195 908l54 119h133l-59 -119h-128zM213 262h73l-33 201h-6zM213 778q0 -19 11 -30t28 -11q16 0 27.5 11.5t11.5 29.5 t-11.5 29.5t-27.5 11.5q-17 0 -28 -11.5t-11 -29.5z" />
<glyph unicode="&#x1fb;" horiz-adv-x="502" d="M4 0l156 663h37q-73 30 -73 115q0 60 38.5 92.5t89.5 32.5t89.5 -32.5t38.5 -92.5q0 -84 -73 -115h39l152 -663h-164l-23 123h-125l-23 -123h-159zM195 908l54 119h133l-59 -119h-128zM213 262h73l-33 201h-6zM213 778q0 -19 11 -30t28 -11q16 0 27.5 11.5t11.5 29.5 t-11.5 29.5t-27.5 11.5q-17 0 -28 -11.5t-11 -29.5z" />
<glyph unicode="&#x1fc;" horiz-adv-x="654" d="M4 0l173 663h438v-159h-216l24 -111h184v-131l-159 1l24 -103h147v-160h-281l-22 133h-126l-27 -133h-159zM219 272h74l-31 191h-3zM290 697l63 137h133l-68 -137h-128z" />
<glyph unicode="&#x1fd;" horiz-adv-x="654" d="M4 0l173 663h438v-159h-216l24 -111h184v-131l-159 1l24 -103h147v-160h-281l-22 133h-126l-27 -133h-159zM219 272h74l-31 191h-3zM290 697l63 137h133l-68 -137h-128z" />
<glyph unicode="&#x1fe;" horiz-adv-x="500" d="M37 202v258q0 111 61.5 167t151.5 56q47 0 86 -16l27 70h80l-42 -110q62 -60 62 -166v-258q0 -112 -61 -167.5t-152 -55.5q-47 0 -92 17l-21 -56h-79l37 96q-58 60 -58 165zM182 708l63 137h133l-68 -137h-128zM183 267l102 266q-16 8 -35 8q-67 0 -67 -78v-196zM210 132 q15 -11 40 -11q67 0 67 77v211z" />
<glyph unicode="&#x1ff;" horiz-adv-x="500" d="M37 202v258q0 111 61.5 167t151.5 56q47 0 86 -16l27 70h80l-42 -110q62 -60 62 -166v-258q0 -112 -61 -167.5t-152 -55.5q-47 0 -92 17l-21 -56h-79l37 96q-58 60 -58 165zM182 708l63 137h133l-68 -137h-128zM183 267l102 266q-16 8 -35 8q-67 0 -67 -78v-196zM210 132 q15 -11 40 -11q67 0 67 77v211z" />
<glyph unicode="&#x218;" horiz-adv-x="452" d="M28 214h142q-3 -89 51 -89q43 0 43 43q0 37 -40 66l-74 54q-68 50 -93.5 99.5t-25.5 113.5q0 81 60 131.5t140 50.5q86 0 141.5 -55t52.5 -180h-142q3 93 -49 93q-46 0 -46 -43q0 -36 40 -66l88 -66q65 -49 88.5 -94.5t23.5 -99.5q0 -87 -58 -139.5t-143 -52.5 q-90 0 -146 55t-53 179zM109 -169l56 122h117l-60 -122h-113z" />
<glyph unicode="&#x219;" horiz-adv-x="452" d="M28 214h142q-3 -89 51 -89q43 0 43 43q0 37 -40 66l-74 54q-68 50 -93.5 99.5t-25.5 113.5q0 81 60 131.5t140 50.5q86 0 141.5 -55t52.5 -180h-142q3 93 -49 93q-46 0 -46 -43q0 -36 40 -66l88 -66q65 -49 88.5 -94.5t23.5 -99.5q0 -87 -58 -139.5t-143 -52.5 q-90 0 -146 55t-53 179zM109 -169l56 122h117l-60 -122h-113z" />
<glyph unicode="&#x2c6;" horiz-adv-x="340" d="M34 702v101l136 40l136 -40v-101l-136 36z" />
<glyph unicode="&#x2c7;" horiz-adv-x="340" d="M34 735v98q99 -24 136 -32l136 32v-98l-136 -37z" />
<glyph unicode="&#x2d8;" horiz-adv-x="380" d="M32 824h117q1 -14 11.5 -22.5t27.5 -8.5t27.5 8.5t11.5 22.5h117q0 -58 -43 -93.5t-113 -35.5t-113 35.5t-43 93.5z" />
<glyph unicode="&#x2d9;" horiz-adv-x="134" d="M0 704v134h134v-134h-134z" />
<glyph unicode="&#x2da;" horiz-adv-x="204" d="M-26 804q0 60 38.5 92.5t89.5 32.5t89.5 -32.5t38.5 -92.5t-38.5 -93t-89.5 -33t-89.5 33t-38.5 93zM63 804q0 -19 11 -30t28 -11q16 0 27.5 11.5t11.5 29.5t-11.5 29.5t-27.5 11.5q-17 0 -28 -11.5t-11 -29.5z" />
<glyph unicode="&#x2db;" horiz-adv-x="192" d="M41 -89q0 28 19 52t50 37h75q-41 -30 -41 -62q0 -28 37 -28h4v-79h-36q-108 0 -108 80z" />
<glyph unicode="&#x2dc;" horiz-adv-x="332" d="M8 701q1 59 25.5 93t69.5 34q29 0 65.5 -17t49.5 -17q24 0 26 34h81q0 -59 -24.5 -93t-67.5 -34q-28 0 -64.5 16.5t-49.5 16.5q-28 0 -28 -33h-83z" />
<glyph unicode="&#x2dd;" horiz-adv-x="286" d="M-25 711l63 137h119l-68 -137h-114zM119 711l63 137h119l-68 -137h-114z" />
<glyph unicode="&#x1e80;" horiz-adv-x="672" d="M5 663h155l52 -326h6l66 326h105l66 -326h6l52 326h154l-129 -663h-123l-76 291h-6l-76 -291h-123zM208 845h133l63 -137h-128z" />
<glyph unicode="&#x1e81;" horiz-adv-x="672" d="M5 663h155l52 -326h6l66 326h105l66 -326h6l52 326h154l-129 -663h-123l-76 291h-6l-76 -291h-123zM208 845h133l63 -137h-128z" />
<glyph unicode="&#x1e82;" horiz-adv-x="672" d="M5 663h155l52 -326h6l66 326h105l66 -326h6l52 326h154l-129 -663h-123l-76 291h-6l-76 -291h-123zM268 708l63 137h133l-68 -137h-128z" />
<glyph unicode="&#x1e83;" horiz-adv-x="672" d="M5 663h155l52 -326h6l66 326h105l66 -326h6l52 326h154l-129 -663h-123l-76 291h-6l-76 -291h-123zM268 708l63 137h133l-68 -137h-128z" />
<glyph unicode="&#x1e84;" horiz-adv-x="672" d="M5 663h155l52 -326h6l66 326h105l66 -326h6l52 326h154l-129 -663h-123l-76 291h-6l-76 -291h-123zM182 709v129h131v-129h-131zM360 709v129h131v-129h-131z" />
<glyph unicode="&#x1e85;" horiz-adv-x="672" d="M5 663h155l52 -326h6l66 326h105l66 -326h6l52 326h154l-129 -663h-123l-76 291h-6l-76 -291h-123zM182 709v129h131v-129h-131zM360 709v129h131v-129h-131z" />
<glyph unicode="&#x1ef2;" horiz-adv-x="482" d="M2 663h168l71 -222h6l71 222h162l-160 -411v-252h-160v252zM116 845h133l63 -137h-128z" />
<glyph unicode="&#x1ef3;" horiz-adv-x="482" d="M2 663h168l71 -222h6l71 222h162l-160 -411v-252h-160v252zM116 845h133l63 -137h-128z" />
<glyph unicode="&#x2000;" horiz-adv-x="513" />
<glyph unicode="&#x2001;" horiz-adv-x="1027" />
<glyph unicode="&#x2002;" horiz-adv-x="513" />
<glyph unicode="&#x2003;" horiz-adv-x="1027" />
<glyph unicode="&#x2004;" horiz-adv-x="342" />
<glyph unicode="&#x2005;" horiz-adv-x="256" />
<glyph unicode="&#x2006;" horiz-adv-x="171" />
<glyph unicode="&#x2007;" horiz-adv-x="171" />
<glyph unicode="&#x2008;" horiz-adv-x="128" />
<glyph unicode="&#x2009;" horiz-adv-x="205" />
<glyph unicode="&#x200a;" horiz-adv-x="57" />
<glyph unicode="&#x2010;" horiz-adv-x="325" d="M20 263v138h285v-138h-285z" />
<glyph unicode="&#x2011;" horiz-adv-x="325" d="M20 263v138h285v-138h-285z" />
<glyph unicode="&#x2013;" horiz-adv-x="411" d="M20 262v140h371v-140h-371z" />
<glyph unicode="&#x2014;" horiz-adv-x="541" d="M20 262v140h501v-140h-501z" />
<glyph unicode="&#x2018;" horiz-adv-x="196" d="M25 418v320h146v-320h-146z" />
<glyph unicode="&#x2019;" horiz-adv-x="196" d="M25 418v320h146v-320h-146z" />
<glyph unicode="&#x201a;" horiz-adv-x="206" d="M25 -75v320h146v-320h-146z" />
<glyph unicode="&#x201c;" horiz-adv-x="362" d="M25 418v320h136v-320h-136zM201 418v320h136v-320h-136z" />
<glyph unicode="&#x201d;" horiz-adv-x="362" d="M25 418v320h136v-320h-136zM201 418v320h136v-320h-136z" />
<glyph unicode="&#x201e;" horiz-adv-x="372" d="M25 -75v320h136v-320h-136zM201 -75v320h136v-320h-136z" />
<glyph unicode="&#x2020;" horiz-adv-x="215" d="M15 524v74h50v70h86v-70h49v-74h-49v-152h-86v152h-50z" />
<glyph unicode="&#x2021;" horiz-adv-x="215" d="M15 429v74h50v36h-50v74h50v55h86v-55h49v-74h-49v-36h49v-74h-49v-57h-86v57h-50z" />
<glyph unicode="&#x2022;" horiz-adv-x="394" d="M45 320q0 63 44.5 107.5t107.5 44.5t107.5 -44.5t44.5 -107.5t-44.5 -107.5t-107.5 -44.5t-107.5 44.5t-44.5 107.5z" />
<glyph unicode="&#x2026;" horiz-adv-x="750" d="M55 0v160h160v-160h-160zM295 0v160h160v-160h-160zM535 0v160h160v-160h-160z" />
<glyph unicode="&#x202f;" horiz-adv-x="205" />
<glyph unicode="&#x2030;" horiz-adv-x="919" d="M25 471v81q0 66 35 98.5t87 32.5t87 -32.5t35 -98.5v-81q0 -66 -34.5 -98.5t-87.5 -32.5t-87.5 32t-34.5 99zM65 0l386 663h103l-388 -663h-101zM126 468q0 -31 21 -31t21 31v86q0 32 -21 32t-21 -32v-86zM348 111v81q0 66 35 98.5t87 32.5t87 -32.5t35 -98.5v-81 q0 -66 -34.5 -98.5t-87.5 -32.5t-87.5 32t-34.5 99zM449 108q0 -31 21 -31t21 31v86q0 32 -21 32t-21 -32v-86zM650 111v81q0 66 35 98.5t87 32.5t87 -32.5t35 -98.5v-81q0 -66 -34.5 -98.5t-87.5 -32.5t-87.5 32t-34.5 99zM751 108q0 -31 21 -31t21 31v86q0 32 -21 32 t-21 -32v-86z" />
<glyph unicode="&#x2039;" horiz-adv-x="288" d="M10 330l123 213h139l-126 -213l127 -213h-139z" />
<glyph unicode="&#x203a;" horiz-adv-x="288" d="M15 117l127 213l-126 213h139l123 -213l-124 -213h-139z" />
<glyph unicode="&#x205f;" horiz-adv-x="256" />
<glyph unicode="&#x20ac;" horiz-adv-x="496" d="M0 245v66h54v42h-54v66h54v45q0 109 58.5 164t145.5 55q89 0 147 -57.5t57 -168.5h-159q3 59 -45 59q-45 0 -45 -59v-38h195v-66h-195v-42h195v-66h-195v-42q0 -57 45 -57q48 0 45 57h159q2 -113 -56 -168t-148 -55q-89 0 -146.5 52.5t-57.5 164.5v48h-54z" />
<glyph unicode="&#x2122;" horiz-adv-x="578" d="M10 575v88h208v-88h-57v-258h-92v258h-59zM241 317v346h111l47 -182l43 182h111v-346h-85l-2 175l-35 -175h-66l-38 177v-177h-86z" />
<glyph unicode="&#x2212;" horiz-adv-x="460" d="M25 265v134h410v-134h-410z" />
<glyph unicode="&#x2260;" horiz-adv-x="460" d="M25 172v119h131l34 82h-165v119h214l36 86h107l-36 -86h89v-119h-138l-34 -82h172v-119h-221l-36 -88h-108l36 88h-81z" />
<glyph unicode="&#x25ca;" horiz-adv-x="1001" d="M10 228l608 608l427 -428l-608 -608zM80 228l357 -358l538 538l-357 358zM87 227l177 177l3 -3l-177 -177zM94 220l177 177l3 -3l-177 -177zM101 213l177 177l3 -3l-177 -177zM108 206l177 177l3 -3l-177 -177zM115 199l177 177l3 -3l-177 -177zM123 192l176 177l3 -3 l-176 -177zM130 185l176 177l3 -3l-176 -177zM137 178l176 177l3 -3l-176 -177zM144 171l176 177l3 -3l-176 -177zM151 163l177 177l3 -3l-177 -177zM158 156l177 177l3 -3l-177 -177zM165 149l177 177l3 -3l-177 -177zM172 142l177 177l3 -3l-177 -177zM179 135l177 177 l3 -3l-177 -177zM186 128l177 177l3 -3l-177 -177zM193 121l177 177l3 -3l-177 -177zM200 114l177 177l3 -3l-177 -177zM207 107l177 177l3 -3l-177 -177zM214 100l177 177l3 -3l-177 -177zM222 93l176 177l3 -3l-176 -177zM229 86l176 177l3 -3l-176 -177zM236 79l176 177 l3 -3l-176 -177zM243 72l176 177l3 -3l-176 -177zM250 65l177 176l3 -3l-177 -176zM257 57l177 177l3 -3l-177 -177zM264 50l177 177l3 -3l-177 -177zM271 43l177 177l3 -3l-177 -177zM278 36l177 177l3 -3l-177 -177zM285 29l177 177l3 -3l-177 -177zM292 22l177 177l3 -3 l-177 -177zM299 15l177 177l3 -3l-177 -177zM306 8l177 177l3 -3l-177 -177zM313 1l177 177l3 -3l-177 -177zM320 -6l177 177l3 -3l-177 -177zM328 -13l176 177l3 -3l-176 -177zM335 -20l176 177l3 -3l-176 -177zM342 -27l176 177l3 -3l-176 -177zM349 -34l177 176l3 -3 l-177 -176zM356 -42l177 177l3 -3l-177 -177zM363 -49l177 177l3 -3l-177 -177zM370 -56l177 177l3 -3l-177 -177zM377 -63l177 177l3 -3l-177 -177zM384 -70l177 177l3 -3l-177 -177zM391 -77l177 177l3 -3l-177 -177zM398 -84l177 177l3 -3l-177 -177zM405 -91l177 177 l3 -3l-177 -177zM412 -98l177 177l3 -3l-177 -177zM419 -105l177 177l3 -3l-177 -177zM427 -112l176 177l3 -3l-176 -177zM434 -119l176 177l3 -3l-176 -177zM445 586l3 3l351 -351l-3 -3zM452 593l3 3l351 -350l-3 -3zM459 600l3 3l351 -350l-3 -3zM466 608l3 3l351 -351 l-3 -3zM473 615l3 3l351 -351l-3 -3zM480 622l3 3l351 -351l-3 -3zM487 629l3 3l351 -351l-3 -3zM494 636l3 3l351 -351l-3 -3zM502 643l3 3l350 -351l-3 -3zM509 650l3 3l350 -351l-3 -3zM516 657l3 3l351 -351l-3 -3zM523 664l3 3l351 -351l-3 -3zM530 671l3 3l351 -351 l-3 -3zM537 678l3 3l351 -351l-3 -3zM544 685l3 3l351 -351l-3 -3zM551 692l3 3l351 -350l-3 -3zM558 699l3 3l351 -350l-3 -3zM565 707l3 3l351 -351l-3 -3zM572 714l3 3l351 -351l-3 -3zM579 721l3 3l351 -351l-3 -3zM586 728l3 3l351 -351l-3 -3zM593 735l3 3l351 -351 l-3 -3zM601 742l3 3l350 -351l-3 -3zM608 749l3 3l350 -351l-3 -3zM615 756l3 3l350 -351l-3 -3z" />
<glyph horiz-adv-x="290" d="M55 -169l56 122h117l-60 -122h-113z" />
<glyph d="M50 0v663h160v-663h-160z" />
<glyph d="M-28 824h117q1 -14 11.5 -22.5t27.5 -8.5t27.5 8.5t11.5 22.5h117q0 -58 -43 -93.5t-113 -35.5t-113 35.5t-43 93.5z" />
<glyph d="M23 707v105h215v-105h-215z" />
<glyph d="M50 0v663h160v-663h-160zM50 705v135h160v-135h-160z" />
<glyph horiz-adv-x="387" d="M50 0v663h158v-503h164v-160h-322z" />
<glyph horiz-adv-x="387" d="M50 0v663h158v-503h164v-160h-322z" />
<glyph d="M50 0v663h160v-663h-160zM50 705v135h160v-135h-160z" />
<glyph d="M50 0v663h160v-663h-160z" />
<glyph horiz-adv-x="290" />
</font>
</defs>
</svg>
