<!-- Created with Inkscape (http://www.inkscape.org/) -->
<svg xmlns:rdf="http://www.w3.org/1999/02/22-rdf-syntax-ns#" xmlns="http://www.w3.org/2000/svg" height="300pt" width="694pt" version="1.1" xmlns:cc="http://creativecommons.org/ns#" xmlns:dc="http://purl.org/dc/elements/1.1/" viewBox="0 0 694 300">
<metadata>
<rdf:RDF>
<cc:Work rdf:about="">
<dc:format>image/svg+xml</dc:format>
<dc:type rdf:resource="http://purl.org/dc/dcmitype/StillImage"/>
<dc:title/>
</cc:Work>
</rdf:RDF>
</metadata>
<path fill="#ffffff" d="m500.3,103.7c31.2-13.53,62.57-26.7,93.73-40.32,31.32,13.48,62.77,26.69,93.98,40.4-0.28,8.9-0.05,17.82-0.12,26.73-18.28-8.27-36.87-15.86-55.26-23.86-12.89-5.36-25.62-11.3-38.62-16.3-17.45,7.21-34.74,14.86-52.13,22.23-13.82,6.05-27.83,11.68-41.52,17.99-0.02-8.96,0.08-17.92-0.06-26.87z"/>
<path fill="#ffffff" d="m558.7,117.2c16.45,0.05,32.91-0.08,49.37,0.07,18.53,0.23,35.02,17.14,34.62,35.7,0.53,9.31-3.22,18.5-9.36,25.4-6.94,7.58-17.11,12.01-27.37,12.03-9.6-0.05-19.19,0.02-28.78-0.05,0.13,15.75-0.03,31.49,0.08,47.23-6.19,0.13-12.39,0.05-18.58,0.05,0.07-40.14,0.03-80.28,0.02-120.4m18.47,17.14c0.2,13-0.14,26.01,0.17,39.01,6.88-0.13,13.75-0.03,20.63-0.06,3.81-0.06,7.7,0.32,11.45-0.64,7.84-1.63,14.2-8.71,15.06-16.66,1.45-10.15-6.44-20.4-16.62-21.53-10.22-0.26-20.46,0-30.69-0.12z"/>
<path fill="#000000" d="m290.4,40.32c15.96,0.22,31.95-0.2,47.88,0.21,25.63,25.7,50.88,51.8,76.55,77.48-25.49,25.77-50.74,51.77-76.1,77.66-15.66,0.04-31.32-0.05-46.98,0.06,19.54-19.3,38.83-38.85,58.36-58.15-66.69-0.13-133.4,0.01-200.1,0.17-6.59,0.04-12.25,4.06-17.05,8.19-8.06,7.49-15.62,17.47-15.16,29.04,0.21,28.31-0.26,56.64,0.26,84.95-12.91,0.14-25.81,0.06-38.72,0.04,0.07-27.98,0.01-55.97,0.03-83.96,0.06-5.69-0.36-11.47,1.03-17.05,4-18.72,16.88-34.41,32.16-45.38,12.66-8.9,27.66-15.75,43.42-15.33,64,0.16,128,0.25,192,0.12-19.2-19.34-38.3-38.79-57.6-58.07z"/>
<path fill="#003f91" d="M494,50.11c66.7-0.04,133.4,0.06,200-0.05v199.9h-200c0.05-66.63,0.01-133.3,0.02-199.9m6.22,53.58c0.14,8.95,0.04,17.91,0.06,26.87,13.69-6.31,27.7-11.94,41.52-17.99,17.39-7.37,34.68-15.02,52.13-22.23,13,5,25.73,10.94,38.62,16.3,18.39,8,36.98,15.59,55.26,23.86,0.07-8.91-0.16-17.83,0.12-26.73-31.21-13.71-62.66-26.92-93.98-40.4-31.16,13.62-62.53,26.79-93.73,40.32m58.45,13.48c0.01,40.15,0.05,80.29-0.02,120.4,6.19,0,12.39,0.08,18.58-0.05-0.11-15.74,0.05-31.48-0.08-47.23,9.59,0.07,19.18,0,28.78,0.05,10.26-0.02,20.43-4.45,27.37-12.03,6.14-6.9,9.89-16.09,9.36-25.4,0.4-18.56-16.09-35.47-34.62-35.7-16.46-0.15-32.92-0.02-49.37-0.07z"/>
<path fill="#003f91" d="m577.2,134.3c10.23,0.12,20.47-0.14,30.69,0.12,10.18,1.13,18.07,11.38,16.62,21.53-0.86,7.95-7.22,15.03-15.06,16.66-3.75,0.96-7.64,0.58-11.45,0.64-6.88,0.03-13.75-0.07-20.63,0.06-0.31-13,0.03-26.01-0.17-39.01z"/>
</svg>
