<!-- Created with Inkscape (http://www.inkscape.org/) -->
<svg xmlns:rdf="http://www.w3.org/1999/02/22-rdf-syntax-ns#" xmlns="http://www.w3.org/2000/svg" height="403.5" width="430" version="1.1" xmlns:cc="http://creativecommons.org/ns#" xmlns:xlink="http://www.w3.org/1999/xlink" xmlns:dc="http://purl.org/dc/elements/1.1/">
<defs>
<linearGradient id="linearGradient3993" y2="142.9" gradientUnits="userSpaceOnUse" x2="170.2" y1="157.1" x1="164.5">
<stop stop-color="#9c9ba0" offset="0"/>
<stop stop-color="#565353" offset="1"/>
</linearGradient>
<linearGradient id="linearGradient4001" y2="130.5" gradientUnits="userSpaceOnUse" x2="170.5" y1="139.1" x1="173.7">
<stop stop-color="#565353" offset="0"/>
<stop stop-color="#201b14" offset="1"/>
</linearGradient>
<linearGradient id="linearGradient4009" y2="122.6" gradientUnits="userSpaceOnUse" x2="169.4" y1="141.3" x1="167.6">
<stop stop-color="#656263" offset="0"/>
<stop stop-color="#9c9ba0" offset="1"/>
</linearGradient>
</defs>
<metadata>
<rdf:RDF>
<cc:Work rdf:about="">
<dc:format>image/svg+xml</dc:format>
<dc:type rdf:resource="http://purl.org/dc/dcmitype/StillImage"/>
<dc:title/>
</cc:Work>
</rdf:RDF>
</metadata>
<g transform="translate(0,-648.86218)">
<g transform="matrix(1.25,0,0,1.25,-1.5903123,648.92313)">
<path fill="url(#linearGradient4001)" d="m165.4,118.8c2.9-0.18,5.657,0.1886,8.567,0.2786-0.21,9.62,0.64,19.73,0.81,29.35,0.01,0.73,0.242,3.948,0.252,4.668-0.34-5.12-4.862-5.512-6.092-10.51-2.651,4.161,1.115-8.162-0.3835-3.644,0.59-3.32,0.1678-7.61,1.148-10.84,0.2639-2.992,2.792-4.568,3.292-7.508-3.41-0.1-5.127,1.967-6.367,4.837-0.55-0.11,0.1278,19.66-0.4222,19.54-3.882-18.26-1.055-24.42-0.8049-26.17z"/>
<path fill="url(#linearGradient3993)" d="m173.9,120c-0.5,2.94-3.079,8.54-3.949,11.38-0.62-2.11-0.0378-6.604-0.6778-8.704-1.77,7.09-2.258,12.64-1.988,19.94,4.669-6.785,7.029,3.171,7.488,8.708,0.07,1.07,0.16,2.13,0.27,3.2-0.87,6.156-8.755,6.217-8.57-0.53-0.2-1.85-0.583-3.548-0.33-5.55,0.05-7.48-2.996-14.97-2.026-22.51,0.141-1.194,0.1579-3.177,1.117-6.189,3.3,0.1054,3.377,0.1347,8.665,0.2514z"/>
<path fill="url(#linearGradient4009)" d="m167.1,146.2c-0.27-7.3-1.146-13.96,0.6243-21.05,0.6905-2.799,2.709-5.266,6.235-5.078-0.3,3.3-4.5,15.4-5.1,18.7-0.5,1.89-1.171,5.457-1.771,7.317z"/>
<path fill="#043e13" d="m154.8,161.8c1.76-6,9.249-8.503,11.37-13.4,0.05,1.85,0.13,3.7,0.33,5.55-0.73,1.78-2.01,3.76-1.04,5.71,1.47,3.69,7.16,4.37,9.42,1.09,1.55-1.8,0.34-4.21,0.19-6.27-0.11-1.07-0.2-2.13-0.27-3.2-0.01-0.72-0.04-2.17-0.05-2.9,2.45,4.46,7.52,6.46,10.18,10.69,3.16,4.71,0.45,10.89,3.25,15.75,5.03,6.49,13.28,10.07,17.07,17.62-1.11,0.81-2.2,1.62-3.3,2.44-3.76-1.13-7.47-2.43-11.34-3.11,0.57,1.51,0.85,3.36,2.39,4.26,4.29,3.6,10.44,5.94,11.87,11.96,1.62,3.32-2.23,5.64-2.5,8.62,2.3,4.12,7.12,6.16,9.19,10.45,3.13,8.15,11.33,13.13,14.19,21.44,0.9,3.16,4.43,4.16,6.77,6.05-7.59,0.91-13.4-5.31-20.78-5.79,3.58,6.82,5.16,14.59,9.47,21.02,4.86,5.11,11.53,8.7,14.82,15.2,0.76,1.39,0.19,3.02,0.22,4.51-3.82-0.76-7.25-2.91-11.21-3.02,1.15,2.03,2.47,3.97,3.88,5.84-1.55,0.32-3.1,0.58-4.66,0.82-0.76-0.7-1.52-1.39-2.28-2.08-0.42,0.18-1.26,0.53-1.68,0.71-3.54-0.89-7.06-1.85-10.63-2.61-1.64-0.6-3.35,0.13-4.22,1.61,5.22,4.96,11.48,9.92,19.03,10.06-0.36,0.48-1.08,1.42-1.44,1.89,0.5,0.18,1.49,0.53,1.99,0.71,1.05,1.17,2.14,2.31,3.25,3.43-3.93,0.83-8.14,2.65-12.07,0.89-3.7-1.56-7.75-2.1-11.71-1.43-5.25,0.88-11.18,0.6498-16.62,0.7983-5.88,0.3-10.91-0.764-16.5-1.744-6.92,1.98-11.43,1.07-17.42,5.3-3.19-0.55-8.794-1.634-12.02-1.814-3.66-0.01-7.2,1.15-10.86,1.15-3.98-0.01-7.96-0.18-11.95-0.22,1.25-1.34,2.49-2.69,3.72-4.05,3.46-1.05,7.63-1.6,9.91-4.75,1.52-2.25,3.77-4.55,3.3-7.49-1.91,2.28-3.89,4.52-6.16,6.46-0.66-1.93-1.32-3.85-1.98-5.78-1.7,0.73-3.43,1.42-5.16,2.07,1.64-4.42,4.15-8.65,4.17-13.51-2.77,3.99-4.24,9.06-8.35,11.96-2.64,0.08-2.93-3.05-4.04-4.8-3.1,0-6.21-0.19-9.25-0.84-0.57-1.15-1.14-2.3-1.72-3.44,2.93-6.92,8.61-12.26,15-16.02,6.9-5.51,14.99-11.02,17.97-19.72-3.7,0.52-7.38,1.4-10.75,3.04-0.77-0.29-1.54-0.57-2.31-0.84-1.68,1.31-3.44,2.51-5.34,3.48,0.13-3.79,0.9-7.5,1.99-11.12-3.39,2.71-6.53,5.75-10.18,8.13-1.64-0.41-1.97-2.09-2.61-3.4,4.53-4.42,8.49-9.63,14.17-12.66,2.79-1.44,5.44-3.43,6.52-6.5,3.39-9.02,12.89-13.09,19.32-19.51-3.29,1.23-6.54,2.54-9.74,4-1.04-1.99-2.56-4.19-1.49-6.51,1.81-5.25,6.21-8.97,9.26-13.47-1.72,0.38-3.42,0.78-5.13,1.19-1.52-1.08-3.03-2.16-4.53-3.25,3.79-7.53,11.99-11.13,17.06-17.59,2.26-4,1-8.77,2.02-13.06z"/>
<path fill="#090806" d="m166.5,154c2.509,5.677,7.729,5.593,8.57,0.53,5.135,13.04-15.94,9.817-8.57-0.53z"/>
<path fill="#201b14" d="m151.6,310.3c5.99-4.23,13.53-5.34,20.45-7.32,5.59,0.98,10.77,4.1,16.65,3.8,1.3,5.72,3.79,11.05,6.54,16.21h-49.38c2.19-4.1,4.07-8.35,5.74-12.69z"/>
</g>
</g>
</svg>
