<!-- Created with Inkscape (http://www.inkscape.org/) -->
<svg xmlns:rdf="http://www.w3.org/1999/02/22-rdf-syntax-ns#" xmlns="http://www.w3.org/2000/svg" height="403.5" width="430" version="1.1" xmlns:cc="http://creativecommons.org/ns#" xmlns:xlink="http://www.w3.org/1999/xlink" xmlns:dc="http://purl.org/dc/elements/1.1/">
<defs></defs>
<metadata>
<rdf:RDF>
<cc:Work rdf:about="">
<dc:format>image/svg+xml</dc:format>
<dc:type rdf:resource="http://purl.org/dc/dcmitype/StillImage"/>
<dc:title/>
</cc:Work>
</rdf:RDF>
</metadata>
<g transform="translate(0,-648.86218)">
<g transform="matrix(1.25,0,0,1.25,-1.5903123,648.92313)">
<path fill="#707063" d="M27.41,0,43.36,0c7.87,7.811,36.82,10.17,22.29,10.82-9.78-1.646-38.13-6.47-38.24-10.82z"/>
<path fill="#100f0b" d="m43.36,0,270.1,0c-4.285,8.888-11.05,10.86-21.18,13.29-18.45,3.779-69.2,2.077-95.48,2.3-1.614,3.054-9.231,25.81-8.54,21.46-9.203-0.2543-21.24-0.4937-28-0.8814-2-2.78-8.1-20.46-9.9-20.91-46-0.6-69.31-2.16-84.75-4.44-14.26-4.207-18.7-7.099-22.29-10.82z"/>
<path fill="#707063" d="m313.4,0,24.97,0c-14.4,6.316-31.9,12.13-46.1,13.29,10.3-2.95,16.7-6.32,21.1-13.29z"/>
<path fill="#201b14" d="m18.78,36.77c9.213-10.33,288.1,3.088,306.5,9.01,17.74,1.499,22.29,38.69,19.66,58.7-0.9,12.3-9.5,16.9-17.7,17-8.4-0.6-324.3,4.5-326-26.53-0.4232-11.33,0.797-53.48,17.45-58.2m2.59,8.62c-8.683,14.74-10.65,31.47-10.84,46.9,98.47,31.54,242.7,16.14,312.7,22.14,13.01-7.311,5.357-51.64-1.097-56.99-17.3-5.74-295-17.96-300.7-12.02z"/>
<path fill="#d8e2e1" d="m21.37,45.39c3.64-3.44,9-3.08,13.64-3.16,18.84-1.37,189.3-1.08,287.2,12.38,13.1,2.71,21.9,58.09,3.5,59.69-37.9,2.1-188-0.6-238-5.9-68.44-6.9-76.11-11.1-77.12-16.11-2.858-4.53,3.1-40.34,10.84-46.9z"/>
</g>
</g>
</svg>
