<svg xmlns:rdf="http://www.w3.org/1999/02/22-rdf-syntax-ns#" xmlns="http://www.w3.org/2000/svg" height="380" width="56" version="1.1" xmlns:cc="http://creativecommons.org/ns#" xmlns:xlink="http://www.w3.org/1999/xlink" viewBox="0 0 44.799999 304" xmlns:dc="http://purl.org/dc/elements/1.1/">
<metadata>
<rdf:RDF>
<cc:Work rdf:about="">
<dc:format>image/svg+xml</dc:format>
<dc:type rdf:resource="http://purl.org/dc/dcmitype/StillImage"/>
<dc:title/>
</cc:Work>
</rdf:RDF>
</metadata>
<defs>
<linearGradient id="linearGradient3757" y2="1.13512" gradientUnits="userSpaceOnUse" x2="21.178" gradientTransform="translate(0,-2.6452393)" y1="134.885" x1="21.875">
<stop stop-color="#000000" offset="0"/>
<stop stop-color="#000000" stop-opacity="0" offset="1"/>
</linearGradient>
</defs>
<path d="m2.20359-1.58309,0.886356-0.023975c0.012431,2.1815,0.23285,4.37014,0.017613,6.54657,0.024613,2.01499,0.14224,4.02927,0.105439,6.04604-0.06425,0.327417-0.106674,0.662046-0.0926,0.996828,0.059524,1.58813,0.085981,3.17872,0.121747,4.76725,0.014764,0.590217,0.068606,1.18718-0.070083,1.76714-0.027664,1.80429,0.075989,3.60815,0.099907,5.41104,0.076007,0.906076-0.158858,1.80304-0.086185,2.7092,0.040352,1.80245,0.130858,3.60846,0.094869,5.41117-0.184422,0.796678-0.034444,1.61132-0.04425,2.416,0.0001677,1.72371,0.188132,3.45362-0.016239,5.17169,0.00861,1.36118,0.073639,2.7224,0.090527,4.08348-0.00105,0.884152,0.116072,1.77483-0.051167,2.65243-0.149842,0.969566-0.045125,1.95313-0.098491,2.92969,0.050482,3.83236,0.0013,7.66261,0.058447,11.4948-0.00805,2.09895-0.050828,4.20051,0.054035,6.29808,0.06342,2.16712,0.064156,4.33785,0.187917,6.50346-0.205782-1.65104-0.220911-3.3154-0.310621-4.97438-0.010732,1.75125,0.099492,3.50067,0.102192,5.25144,0.044718,20.2604,0.135975,40.5212,0.17573,60.7819,0.864821,0.10121,1.7365,0.14942,2.60001,0.26327,0.495081,0.0646,1.01066,0.0891,1.49505-0.0572,0.828571-0.19468,1.21905-1.17243,2.11856-1.20145,0.900349-0.0592,1.98415-0.0297,2.5697,0.73947,1.20457,1.36245,2.26111,2.84066,3.35335,4.2873,0.01317-16.3389-0.05006-32.6775-0.05514-49.016-0.03899-15.688-0.03486-31.3789-0.08216-47.0666-0.01538-1.67372-0.17709-3.35164-0.03288-5.02343,0.166864-1.19991,0.01627-2.40732,0.03852-3.61124,0.06117-3.51126-0.03882-7.02308,0.01903-10.5344-0.07949-2.44603,0.01545-4.89377-0.02081-7.33965-0.08561-2.18428,0.07936-4.37366-0.05107-6.55506-0.05347-1.1158-0.09194-2.23189-0.08335-3.34781,0.200791-2.70918-0.150359-5.42561,0.06901-8.13378l1.02578-0.027746c0.01894,2.23553,0.116083,4.46898,0.134897,6.70451-0.233642,1.80182,0.04461,3.61536-0.03931,5.42441-0.08124,0.31179-0.105797,0.633212-0.09225,0.952042,0.0435,1.65243,0.08579,3.30477,0.119087,4.95735,0.0089,0.641392,0.08477,1.29202-0.07254,1.92362-0.03948,1.79332,0.120337,3.58786,0.0675,5.37999-0.298965,1.10613-0.0053,2.25697-0.0746,3.38233-0.158125,2.076,0.0011,4.15613-0.0075,6.23276-0.215266,2.91076,0.177589,5.82873-0.04933,8.73813-0.03388,1.45009,0.135012,2.90105,0.003,4.34911-0.04879,1.6979,0.03534,3.39701,0.0515,5.09483-0.118299,1.70614-0.05043,3.41685-0.01584,5.12522,0.06847,1.1202-0.102188,2.2405-0.04696,3.36094-0.0041,1.32335,0.06188,2.64289,0.0591,3.96453-0.194588,2.4472,0.116015,4.9015-0.0587,7.34815-0.01804,0.624596,0.0022,1.2496,0.01746,1.87485,0.03052,1.9272,0.111382,3.85148,0.147855,5.77683-0.202545,1.53928-0.02772,3.08924-0.02581,4.63415-0.06275,0.258591-0.137017,0.522416-0.141392,0.790712-0.03014,1.70844,0.137312,3.41658,0.0057,5.12452-0.03017,1.64962,0.0344,3.2998,0.05417,4.9495-0.123353,2.07181-0.03066,4.14738,0.0088,6.21947,0.04165,1.18479-0.0022,2.37357,0.121111,3.55435-0.239782-1.49538-0.1779-3.01321-0.280039-4.5188-0.02005,2.82241,0.242368,5.64511,0.08616,8.46629-0.03003,2.02295,0.129399,4.04714,0.0014,6.06974,0.02232,1.3799-0.04472,2.76714,0.131901,4.13962-0.09344,1.33538-0.02242,2.67255,0.02868,4.00701-0.03192-0.91375-0.208735-1.8219-0.160364-2.7377,0.0054-0.47576,0.126-0.99137-0.129941-1.42657,0.161419,0.68685,0.05744,1.38699,0.0659,2.0811,0.154763,3.08094-0.0043,6.16569,0.0741,9.2487-0.02917,2.23672-0.03178,4.47453,0.01376,6.71092,0.0052,1.11699-0.09231,2.23687-0.01888,3.35382,0.0178,0.3474,0.314937,0.5899,0.509921,0.85916,0.519019,0.58126,0.963152,1.2188,1.44472,1.82833,0.277505,0.37231,0.802562,0.37887,1.22846,0.46483,2.43015,0.30916,4.85621,0.65061,7.28468,0.95838,0.935718,0.20457,1.42353-0.73608,2.01452-1.24041,0.0057-1.01992-0.02858-2.03733-0.01951-3.05579,0.01542-0.41072-0.07196-0.81844-0.210208-1.20087,0.07076-0.39302,0.133129-0.78906,0.117369-1.18753-0.05803-1.96787-0.106468-3.93612-0.150104-5.90438-0.01216-0.62702-0.06723-1.256,0.01892-1.87908,0.06223-0.27778,0.132885-0.55267,0.131883-0.83511-0.271894-33.0802-0.547109-66.1602-0.819012-99.2403-0.0537-4.99417-0.05759-9.9897-0.141116-14.9815-0.06235-1.44424-0.07812-2.88818-0.124363-4.33142,0.149554-3.19121-0.0465-6.38604-0.08132-9.57718,0.03628-0.744709,0.09922-1.49016,0.06238-2.23777l0.864775-0.023391c0.05462,3.61679,0.05446,7.23336,0.08255,10.8508,0.000273,0.502737,0.03198,1.00474,0.07059,1.50476,0.05167,1.41752,0.05019,2.83636,0.128369,4.25316-0.02446,0.755498,0.0143,1.50952,0.09109,2.2624-0.02249,0.149463,0.09182,0.447561-0.06386,0.523678-0.07763-0.229464-0.03286-0.478086-0.03584-0.712571,0.08146-1.28871-0.208751-2.55921-0.243479-3.8431,0.259084,5.52642,0.09659,11.0628,0.246157,16.5922-0.05391,2.98131,0.02842,5.96361,0.06589,8.94557-0.04393,1.32275-0.02967,2.64861,0.01273,3.97227,0.07666,2.83396,0.08203,5.67334,0.226509,8.50715-0.252479-1.22854-0.180135-2.4834-0.27352-3.72573-0.03487,1.65755,0.102917,3.31223,0.09455,4.96906,0.130473,18.4562,0.280832,36.9105,0.407983,55.3668,0.056,1.8929-0.05183,3.79515,0.117284,5.68511,0.07254,2.3713,0.05202,4.75005,0.207571,7.11911-0.0594-0.29214-0.13035-0.58073-0.202807-0.86604,0.0051,1.66127,0.05827,3.32148,0.09658,4.98185-0.11444,2.70841,0.0021,5.42005,0.05709,8.12879-0.11232,3.03223,0.0163,6.06765,0.07677,9.10157,1.07758-1.18301,2.24199-2.28709,3.35023-3.44225,0.44353-0.42854,0.863725-0.92188,1.44824-1.17394,1.17914-0.31436,2.59782-0.002,3.27057,1.04319,0.30563,0.36831,0.610096,0.81648,1.12763,0.91268,0.739879,0.14913,1.50277,0.10521,2.25343,0.10027-0.167607-28.6108-0.320291-57.2221-0.484583-85.833-0.04095-5.44144-0.03197-10.8841-0.107742-16.3262-0.04516-1.84698,0.02466-3.69394-0.01866-5.54096-0.06354-3.8847-0.000819-7.7679-0.09258-11.6517,0.04735-2.60767-0.0082-5.21568-0.04221-7.82428,0.05256-2.66208-0.01782-5.32551-0.04334-7.9886,0.05361-2.06989-0.01238-4.14131-0.02184-6.21122l1.13865-0.0308c0.162672,47.2192,0.267213,94.4384,0.433213,141.657,0.08793-0.002,0.265558-0.007,0.353534-0.01,0.664076-0.0744,1.28386,0.17931,1.86597,0.45239,0.26192,0.84042,0.186103,1.72192,0.221138,2.58757,0.04223,2.00503,0.166598,4.01108,0.03646,6.01441-0.0601,3.05975,0.137254,6.11721,0.110372,9.17749,0.03972,2.69776,0.07949,5.3973,0.11769,8.09665-0.0012,1.36626,0.140789,2.74628-0.144915,4.09946-0.652775,0.49171-1.26434,1.03333-1.93436,1.5015-0.271757,0.20855-0.640309,0.093-0.954311,0.0906-1.40484-0.10786-2.80603-0.32625-4.21871-0.29441-0.456326-0.0441-0.912771-0.093-1.36865-0.12107-1.76639-0.14849-3.53334-0.44079-5.30854-0.36228-0.358768,0.49156-0.661604,1.02495-0.77668,1.62179-0.109867,0.66694-0.61994,1.15312-1.09427,1.60962,0.358696,0.48836,0.438246,1.09579,0.473959,1.67896,0.05041,1.06488,0.08259,2.13011,0.01499,3.19492-0.06307,1.16998,0.13496,2.34885-0.04452,3.51249-0.272808,1.09103-0.580631,2.17674-0.878444,3.26376-0.919255-0.0256-1.72277,0.42005-2.58713,0.64295-0.07352,0.29081-0.145389,0.5817-0.215502,0.87566-0.419942,0.0114-0.838217,0.0227-1.25815,0.034,0.03512,1.29829,0.05696,2.59837,0.06724,3.89733,0.280083-0.0232,0.562191-0.0332,0.844234-0.0456,0.598061,0.74034,0.455832,1.80717-0.02342,2.57341-0.248899,0.43937-0.595674,0.82221-0.810853,1.27975-0.103646,0.40651-0.03894,0.83248-0.031,1.2505,0.278858,0.23819,0.683175,0.44753,0.697527,0.85565,0.10299,0.86069,0.07008,1.72974,0.06663,2.59655,0.535671,0.15309,1.02142,0.4864,1.19533,1.02105,0.611937,1.31462,0.339371,2.78244,0.431888,4.1764,0.07667,1.66739,0.133443,3.52209-0.924217,4.94884-0.344722,0.51999-0.909302,0.8337-1.38703,1.22643,0.07858,0.57085,0.357191,1.10771,0.349741,1.69193-0.0392,0.69864-0.314997,1.37305-0.25767,2.08024,0.03558,0.64068,0.281824,1.26918,0.179797,1.91837-0.09924,0.69378-0.365105,1.36325-0.365861,2.07201,0.05521,3.51459,0.145212,7.02825,0.243562,10.54-0.01722,1.08098-0.101011,2.16063-0.01363,3.24191-0.06872,2.00335,0.02704,4.00862,0.05135,6.01245-0.690401-1.32939-1.96508-8.01621-2.24278-17.3361-0.0436-0.99951-0.006-2.00121-0.135837-2.9937-0.130047,0.28922-0.269703,0.59155-0.252603,0.91664,0.289815,18.0833,0.592906,36.166,0.882667,54.2477,0.08173,3.82047,0.08884,7.64271,0.220353,11.4616,0.08267,1.76469,0.09911,3.53105,0.155308,5.2979,0.02335,1.53785,0.138121,3.07815,0.01192,4.61693,0.05499,3.13802,0.11326,6.27751,0.204833,9.41442l-1.5951,0.0431c0.03371-1.70074-0.106885-3.39676-0.07969-5.09407,0.01547-4.52512-0.113478-9.04644-0.126237-13.5709-0.01371-1.91805-0.0074-3.83664-0.105782-5.75252,0.0659-4.6254-0.115632-9.24902-0.107817-13.873-0.02966-2.07728,0.01053-4.15476-0.102006-6.2298-0.009-2.90938,0.01865-5.81963-0.07494-8.72673-0.07792-1.71355-0.132663-3.4311-0.06779-5.14684-0.04951-2.87324-0.06579-5.74736-0.151757-8.61937,0.09573-3.95288-0.107476-7.90547-0.121432-11.8586-0.173732,0.70059-0.200714,1.42278-0.254418,2.13922-0.239082,2.39906-0.449816,4.80192-0.559132,7.20851-0.116643,0.84598-0.105133,1.70111-0.100357,2.55317-0.170972,2.33816-0.38513,4.67568-0.522772,7.01762-0.300551,2.82844-0.387833,5.68124-0.761492,8.5083-0.457136,3.67214-0.819206,7.35768-1.26962,11.0326-0.06941,1.11757-0.273741,2.22282-0.349779,3.342-0.07783,0.43787-0.11901,0.88098-0.176775,1.3248-0.08085,0.63252-0.175064,1.26555-0.224235,1.90371-0.410479,3.30848-0.864258,6.61343-1.22471,9.92859-0.525049,4.04744-1.02838,8.09897-1.5101,12.1516-0.311641,2.2955-0.558292,4.59897-0.868235,6.89599-0.143232,1.70526-0.531016,3.39635-0.456296,5.11493l-2.45157,0.0663c0.594867-3.73807,1.12802-7.4856,1.69952-11.2278,0.458313-3.19813,1.02998-6.38179,1.33332-9.59804,1.7307-15.8475,3.46136-31.6968,5.19371-47.5444,0.498298-4.54466,0.993144-9.09402,1.34661-13.6506,0.07754-1.43386,0.311311-2.86067,0.368883-4.29375-0.207769-0.68067-0.638191-1.30262-0.669575-2.03284-0.173127-0.81257,0.755182-1.43442,0.487316-2.24924-0.202785-0.98727,0.06439-1.97766,0.02932-2.96779-0.924152-0.94376-1.45585-2.23978-1.42952-3.53816-0.0048-0.85375-0.07607-1.70725-0.02109-2.55949,0.07355-0.96426,0.0334-1.96074,0.413915-2.87436,0.20161-0.59127,0.62041-1.13571,0.586396-1.77943-0.01301-1.2798-0.192164-2.55978-0.03565-3.83444,0.0733-0.6052,0.06678-1.21473,0.04703-1.82077-0.296283-0.0844-0.590787-0.16433-0.887001-0.24575-0.0055-0.46898-0.01813-0.93633,0.0069-1.40302,0.644994-0.71814,1.54964-1.10971,2.43846-1.47215,0.04621-1.60672-0.105155-3.21301,0.0059-4.8186-0.715154-0.0335-1.43144-0.0477-2.14728-0.0452-0.13801,0.11778-0.277587,0.23883-0.415429,0.36237-0.492712-0.0383-0.987014-0.0741-1.4797-0.11195-0.2215-1.25003-0.438038-2.50031-0.599976-3.75844-0.228146-1.37277-0.129504-2.764-0.155344-4.14536-0.03134-1.46909,0.281535-2.91724,0.511557-4.36159-0.394159-0.26388-0.842827-0.51656-1.03919-0.95973-0.426796-0.91748-0.705571-1.88973-1.05508-2.83642-0.387487-1.12273-1.66939-1.65936-2.80714-1.78019-3.27739-0.25132-6.5547-0.4994-9.83184-0.74123-0.617969-0.0637-1.3257-0.13003-1.75574-0.61478-0.475216-0.55869-0.275165-1.3301-0.297972-1.98864,0.127256-9.05139,0.236192-18.1037,0.35679-27.1549,0.021186-0.62804-0.0492099-1.26453,0.0686123-1.88366,0.593634-0.71306,1.17969-1.64496,2.22904-1.7228-0.04127-17.169-0.12033-34.339-0.16943-51.5062-0.11008-28.1416-0.18364-56.2841-0.30534-84.4254m11.0942,151.069c-0.478358,0.36899-0.470857,1.0151-0.539429,1.5502-0.0187,0.476-0.179163,0.99112,0.04277,1.448,0.22256,0.61329,0.850243,1.09737,1.54387,1.07225,0.460246-0.4865,0.675412-1.12916,0.674487-1.77713-0.01248-0.77214,0.101784-1.57953-0.230148-2.30642-0.471417-0.17235-1.05156-0.3114-1.49127,0.0127m18.0233,1.93857c-0.318752,0.62001-0.10877,1.32127-0.177304,1.98072-0.01102,0.45347-0.206668,0.95682,0.103177,1.36019,0.152612,0.36128,0.564215,0.47164,0.892624,0.63826,0.386035-0.15942,0.918928-0.23242,1.07824-0.66768,0.263639-0.75405,0.140298-1.56785,0.134135-2.34821,0.0162-0.38182-0.221434-0.69458-0.412508-1.00393-0.537251-0.14981-1.10764-0.23486-1.61834,0.0438m-8.7697,24.0947-0.05453,0.0699c-0.25738,0.0646-0.51476,0.12917-0.772065,0.19651-0.112619,0.4418-0.245081,0.88763-0.217668,1.3481,0.03507,1.25195,0.06893,2.50393,0.102795,3.75591,1.41836,0.11649,2.84008,0.23433,4.26333,0.22452,0.0026-0.0805,0.0067-0.24435,0.0094-0.32581,0.102835-0.80395,0.239265-1.65515-0.02273-2.43796-0.251891-1.20635-1.14463-2.27856-2.36652-2.68439-0.31822-0.0358-0.631799-0.0838-0.942456-0.14701m1.60911,16.9943c-0.02434,0.44915,0.01106,0.90148,0.122732,1.34202,0.228114-0.47062,0.587066-0.95583,0.439476-1.49935-0.188019,0.0495-0.374284,0.10255-0.562182,0.15649m0.572319,8.32385c0.08286,1.03518-0.128854,2.42141-1.29225,2.82634-0.750704,0.24863-1.63337,0.1018-2.27011-0.34867-0.354954-0.34957-0.622087-0.7685-0.934698-1.14947-0.529546,0.31924-0.468569,0.97675-0.462762,1.49855,0.0646,1.46506,0.05114,2.93369,0.142248,4.39792,0.08526,0.44942,0.185782,1.09625,0.740388,1.21222,0.256296,0.0795,0.380035-0.19707,0.529157-0.33363,0.77192-0.13972,1.59948-0.24914,2.36148-0.0195,0.0154,0.12563,0.04513,0.37704,0.06173,0.50252,0.693154-0.10398,0.914616-0.821,1.29064-1.28925,0.43572-0.47144,0.274893-1.13597,0.392372-1.70564,0.230034-0.95264,0.12047-1.93296,0.12591-2.89862-0.02943-0.91058,0.05344-1.83212-0.14523-2.72851-0.134447,0.004-0.404586,0.0265-0.538859,0.0362m-3.86229,10.7947c-0.07533,0.53035-0.162275,1.06246-0.175961,1.60074,0.185417,0.40686,0.822515,0.31772,1.19808,0.26291,0.06701-0.28764,0.136266-0.61183-0.05497-0.86511-0.298828-0.48518-0.505734-1.01102-0.664807-1.54943-0.155326,0.15305-0.305341,0.31785-0.302363,0.55089m2.38739-0.53551c-0.171634,0.71651-0.240297,1.49409,0.02454,2.19866,0.110299,0.20782,0.364306,0.20407,0.46808-0.0127,0.136216-0.73619,0.02786-1.48653-0.07992-2.21781-0.102922,0.003-0.309964,0.024-0.412842,0.028z" fill="url(#linearGradient3757)"/>
<path d="m20.3554,216.121c-0.421023,2.23857-1.76586,7.07791-1.66741,9.51198-0.03266,2.00713-0.556491,3.5588-0.509409,5.56567-0.469279,6.29703-1.10231,11.4199-0.589231,17.3092,0.157153,9.29818,0.91161,3.40298,1.59304-3.13388-0.0025-26.8679,0.05256-20.9112,1.59628,20.8975,0.149146,4.64295,0.379701,9.28344,0.474554,13.9276,0.01998,2.14742,0.112113,4.29273,0.16112,6.44108,0.07044,1.86834,0.04147,3.74536,0.274848,5.60549,0.135735,3.81282,0.268003,7.62764,0.36382,11.4414l1.74002-0.0471c-0.142741-2.06251-0.09534-4.13017-0.230788-6.18892-0.298957-5.49231-0.440385-10.989-0.708556-16.4823-0.104651-2.32929-0.231153-4.65798-0.24341-6.98989-0.360138-5.61091-0.450667-11.2351-0.747448-16.8478-0.09721-2.52357-0.27049-5.04303-0.277272-7.56903-0.353193-8.32967-1.33218-40.1772,0.668693-20.0779,0.455882,1.64774,1.16348,8.10002,1.7467,11.5086,0.726827,4.42932,1.35095,8.8808,2.07062,13.314,0.145267,1.35233,0.436724,2.68132,0.589315,4.03522,0.112073,0.52671,0.184545,1.06206,0.275128,1.59722,0.127485,0.76282,0.269573,1.52541,0.362912,2.29703,0.653339,3.99075,1.35362,7.97451,1.95289,11.9765,0.824191,4.88066,1.62498,9.76768,2.4023,14.6573,0.482536,2.76721,0.894784,5.54814,1.37557,8.31729,0.262314,2.06117,0.790101,4.08992,0.815859,6.18084l2.67429-0.0723c-0.880949-4.50072-1.69527-9.01683-2.55103-13.5241-0.698557-3.85379-1.51967-7.68296-2.05057-11.5684-2.87299-19.1302-5.36155-37.1235-8.23635-56.2537" fill="#000000"/>
</svg>
