<svg xmlns:rdf="http://www.w3.org/1999/02/22-rdf-syntax-ns#" xmlns="http://www.w3.org/2000/svg" height="382.121" width="57.4869" version="1.1" xmlns:cc="http://creativecommons.org/ns#" xmlns:xlink="http://www.w3.org/1999/xlink" viewBox="0 0 45.989553 305.69661" xmlns:dc="http://purl.org/dc/elements/1.1/">
<metadata>
<rdf:RDF>
<cc:Work rdf:about="">
<dc:format>image/svg+xml</dc:format>
<dc:type rdf:resource="http://purl.org/dc/dcmitype/StillImage"/>
<dc:title/>
</cc:Work>
</rdf:RDF>
</metadata>
<defs>
<linearGradient id="linearGradient3757" y2="1.25857" gradientUnits="userSpaceOnUse" x2="22.5666" y1="131.631" x1="22.539">
<stop stop-color="#000000" offset="0"/>
<stop stop-color="#000000" stop-opacity="0" offset="1"/>
</linearGradient>
</defs>
<path d="m39.2537,0.001544-0.88668,0c0.04656,2.18104-0.1146,4.37484,0.159408,6.54466,0.02988,2.01492-0.03324,4.03164,0.05808,6.04668,0.07308,0.32556,0.124536,0.65892,0.11952,0.99396-0.01656,1.58916,0,3.17988,0.0072,4.7688,0.0012,0.5904-0.03648,1.1886,0.11784,1.7646,0.07644,1.80288,0.0216,3.60889,0.04644,5.41177-0.05148,0.9078,0.207552,1.79808,0.159408,2.70588,0.0084,1.80288-0.03324,3.61068,0.05148,5.41176,0.205896,0.7914,0.078,1.6098,0.10956,2.41392,0.04644,1.72308-0.09468,3.45744,0.156072,5.16936,0.0282,1.36092,0,2.7234,0.01992,4.08444,0.02496,0.8838-0.06804,1.77732,0.122868,2.65008,0.176004,0.96516,0.09792,1.9512,0.177672,2.92596,0.05316,3.83232,0.205896,7.65984,0.252384,11.4922,0.0648,2.09796,0.164388,4.1976,0.11628,6.29724-0.0048,2.16804,0.05316,4.338-0.012,6.50616,0.161064-1.656,0.131184-3.32016,0.176004-4.98096,0.05808,1.75032-0.0048,3.50208,0.03984,5.25228,0.503124,20.2542,0.959736,40.5101,1.46783,60.7644-0.861768,0.12456-1.73183,0.19632-2.59194,0.33348-0.493152,0.078-1.00788,0.1164-1.49605-0.0168-0.833532-0.1722-1.2503-1.13904-2.15027-1.14372-0.90162-0.0348-1.98422,0.024-2.54876,0.80868-1.16729,1.39452-2.18347,2.90076-3.2362,4.3764-0.454956-16.3326-0.833532-32.6669-1.27024-48.9996-0.385212-15.6833-0.813612-31.3684-1.19052-47.0516-0.02988-1.67352,0.0864-3.3552-0.10296-5.02248-0.199248-1.19496-0.08136-2.406-0.136152-3.60888-0.156084-3.50832-0.151092-7.02156-0.303864-10.53,0.01332-2.44728-0.147768-4.89157-0.17766-7.33753,0.02652-2.1858-0.197592-4.36992-0.126192-6.55404,0.02328-1.11684,0.03156-2.23356-0.0072-3.34884-0.273972-2.70276,0.0036-5.4277-0.288912-8.12894h-1.02616c0.04152,2.23526,0.0048,4.47053,0.04644,6.70574,0.282276,1.79484,0.05316,3.61524,0.185964,5.42136,0.08964,0.30948,0.12288,0.63012,0.11796,0.9492,0.0012,1.653,0.0036,3.30588,0.015,4.95876,0.0084,0.6414-0.0498,1.29384,0.124524,1.92096,0.08796,1.7916-0.02328,3.5898,0.078,5.37985,0.328764,1.09764,0.06636,2.256,0.166032,3.37908,0.2142,2.07096,0.11124,4.15464,0.176016,6.23028,0.293892,2.90388-0.01992,5.8314,0.285588,8.7336,0.07308,1.44864-0.05652,2.90364,0.1146,4.3476,0.09468,1.69596,0.05652,3.39672,0.08628,5.09436,0.164388,1.70232,0.1428,3.41424,0.154416,5.12292-0.03816,1.12164,0.162732,2.23692,0.13782,3.35844,0.03984,1.32276,0.0096,2.6436,0.04812,3.96468,0.260688,2.44104,0.01656,4.90284,0.257364,7.34388,0.03492,0.62388,0.03156,1.2492,0.03324,1.87464,0.0216,1.92732-0.0072,3.85308,0.0084,5.77872,0.244092,1.53324,0.11124,3.08736,0.151104,4.63176,0.06972,0.2568,0.151092,0.51852,0.16272,0.7866,0.07632,1.707-0.04488,3.41904,0.13284,5.1228,0.07476,1.6482,0.05484,3.29952,0.07968,4.94916,0.179328,2.06772,0.142788,4.14504,0.159396,6.21744-0.0096,1.18548,0.06636,2.37264-0.02496,3.55632,0.19926-1.50132,0.09636-3.01692,0.157752-4.52472,0.09636,2.82084-0.08964,5.6496,0.142788,8.46552,0.08472,2.0214-0.01992,4.04916,0.16272,6.06756,0.015,1.38,0.11952,2.76492-0.01992,4.14168,0.129516,1.33236,0.09468,2.67096,0.07968,4.00632,0.0072-0.91428,0.159396-1.82688,0.08628-2.74104-0.01824-0.47544-0.15276-0.9876,0.09132-1.42956-0.142788,0.69096-0.01992,1.38804-0.0096,2.08212-0.0714,3.084,0.171024,6.16332,0.176004,9.24732,0.08964,2.23512,0.15276,4.47204,0.1677,6.70884,0.02496,1.11672,0.15276,2.23356,0.10956,3.35208-0.0084,0.34776-0.298872,0.5982-0.486504,0.87264-0.503112,0.59508-0.929844,1.2444-1.39476,1.86672-0.267336,0.37968-0.792024,0.40044-1.21544,0.49788-2.4209,0.37476-4.83684,0.78168-7.2561,1.155-0.929844,0.2298-1.44292-0.69732-2.04732-1.18548-0.03324-1.0194-0.02652-2.03736-0.06312-3.0552-0.02652-0.41016,0.0498-0.82009,0.17766-1.20612-0.08136-0.39096-0.154416-0.78517-0.149436-1.18392,0.0048-1.96872,0-3.93756-0.0096-5.90628-0.0048-0.62712,0.03324-1.25736-0.06972-1.87788-0.06972-0.276-0.14778-0.54888-0.154416-0.83124-0.622668-33.0755-1.24201-66.1508-1.86467-99.2262-0.08136-4.9938-0.212544-9.98761-0.264024-14.9798,0.02328-1.4454,0-2.88924,0.0072-4.3332-0.2356-3.18688-0.126-6.38584-0.1775-9.57676-0.0564-0.74346-0.1395-1.48693-0.1229-2.23526h-0.865092c0.0432,3.61694,0.141144,7.23218,0.210876,10.8491,0.01332,0.50256-0.0048,1.00524-0.02988,1.50612-0.01332,1.4184,0.02652,2.83668-0.01332,4.25508,0.04488,0.75456,0.02652,1.50936-0.02988,2.26404,0.02652,0.1488-0.07968,0.44988,0.078,0.52176,0.0714-0.23148,0.01992-0.4788,0.01656-0.71328-0.11628-1.28604,0.139476-2.56392,0.139476-3.84828-0.10956,5.5314,0.202572,11.0614,0.202572,16.5928,0.134508,2.97876,0.13284,5.9622,0.176016,8.94408,0.07968,1.32108,0.10128,2.64684,0.09468,3.97116,0,2.835,0.0714,5.67348,0.0036,8.51016,0.219168-1.23492,0.11292-2.48736,0.17268-3.73176,0.07968,1.656-0.01332,3.3138,0.03984,4.9698,0.368616,18.453,0.7173,36.9046,1.08924,55.3576-0.0048,1.89372,0.154428,3.79236,0.03648,5.6862-0.0084,2.3724,0.07644,4.74972-0.015,7.12212,0.05148-0.29364,0.1146-0.58404,0.179316-0.8712,0.03984,1.6608,0.03156,3.32184,0.03816,4.98264,0.187632,2.70432,0.144468,5.41812,0.162732,8.12736,0.194268,3.02808,0.147768,6.06587,0.169356,9.10032-1.10917-1.15344-2.30302-2.22564-3.44208-3.35041-0.454956-0.41639-0.888336-0.89819-1.47946-1.13435-1.18721-0.28236-2.59692,0.0684-3.24116,1.13124-0.29556,0.37644-0.587796,0.83268-1.10254,0.94284-0.735576,0.16908-1.49938,0.1458-2.24989,0.16116-0.60606-28.6049-1.22706-57.2099-1.83644-85.8148-0.1062-5.44056-0.262344-10.881-0.333744-16.3231-0.0048-1.84752-0.124536-3.69192-0.131172-5.53944-0.04152-3.885-0.20922-7.76508-0.222504-11.65-0.11784-2.60544-0.132828-5.214-0.169368-7.82256-0.124524-2.65969-0.12618-5.32404-0.17268-7.98685-0.10956-2.06768-0.0996-4.14013-0.146112-6.20954h-1.13906c1.11411,47.2064,2.28638,94.4112,3.39721,141.617h-0.353664c-0.665844-0.0564-1.27854,0.21396-1.85305,0.50268-0.2391,0.84719-0.139476,1.72632-0.151092,2.5926,0.012,2.00544-0.05808,4.01412,0.12618,6.0132,0.142812,3.057,0.0282,6.11868,0.13782,9.17712,0.03324,2.69784,0.06648,5.39747,0.10128,8.09687,0.03816,1.36573-0.06648,2.74908,0.255708,4.09404,0.665832,0.47388,1.29182,0.99877,1.97425,1.44865,0.277296,0.20112,0.642588,0.0756,0.956412,0.0648,1.40141-0.1458,2.79618-0.402,4.2092-0.40837,0.454968-0.0564,0.909924-0.1176,1.36488-0.15803,1.76173-0.1962,3.52013-0.53617,5.2968-0.50569,0.371928,0.48168,0.689076,1.00669,0.820248,1.6002,0.12786,0.66372,0.650892,1.13593,1.1374,1.57944-0.34536,0.49788-0.408456,1.10724-0.428388,1.69116-0.0216,1.06585-0.02496,2.13156,0.0714,3.19416,0.09468,1.16784-0.0714,2.35164,0.139476,3.51,0.302208,1.08325,0.639276,2.16024,0.966372,3.23881,0.918228-0.0504,1.7335,0.37332,2.60357,0.57276,0.08136,0.28872,0.161064,0.57756,0.2391,0.86952h1.25861c0,1.29876,0.01332,2.59896,0.03816,3.89772-0.280608-0.0156-0.562884-0.018-0.84516-0.0228-0.577824,0.75624-0.4068,1.81884,0.093,2.57184,0.260688,0.43248,0.617688,0.8058,0.84516,1.25736,0.1146,0.40356,0.06144,0.83112,0.0648,1.2492-0.272316,0.24564-0.670824,0.46584-0.674136,0.8742-0.07968,0.86316-0.02328,1.731,0.0036,2.5974-0.531336,0.16752-1.00789,0.51384-1.16729,1.053-0.576168,1.33068-0.264012,2.7906-0.318804,4.18655-0.03156,1.66885-0.03816,3.52441,1.05769,4.92204,0.358656,0.51048,0.931512,0.80881,1.41968,1.18848-0.06312,0.57276-0.327108,1.11696-0.303864,1.70077,0.05808,0.69732,0.352008,1.36403,0.313824,2.07251-0.01824,0.64141-0.247404,1.27633-0.12786,1.92253,0.11796,0.69084,0.401832,1.35288,0.421752,2.06136,0.03984,3.5148,0.04488,7.0296,0.04152,10.5427,0.04644,1.08012,0.159396,2.15711,0.10128,3.24036,0.122868,2.00076,0.08136,4.00788,0.11124,6.01164,0.654203-1.34758,1.74761-8.06642,1.7732-17.3904,0.01656-1.00032-0.04812-2.00064,0.05484-2.99628,0.13782,0.2856,0.2856,0.58404,0.277296,0.90948,0.199248,18.0845,0.385212,36.1688,0.584472,54.2518,0.0216,3.82128,0.11784,7.64232,0.08964,11.4634-0.03492,1.76628-0.0036,3.53244-0.012,5.30016,0.01824,1.53792-0.05484,3.08076,0.11292,4.61556,0.02988,3.13836,0.05652,6.27828,0.0498,9.41652h1.59569c-0.07968-1.6992,0.015-3.3984-0.05808-5.09436-0.13782-4.52304-0.131172-9.0462-0.240756-13.5694-0.03816-1.91772-0.09636-3.83544-0.0498-5.75328-0.190944-4.62192-0.134496-9.24876-0.267336-13.8708-0.02652-2.07732-0.122868-4.15296-0.06648-6.23028-0.06972-2.90856-0.176004-5.817-0.161052-8.72556,0.03156-1.71504,0.03984-3.43344-0.0714-5.1468-0.0282-2.87352-0.08964-5.74703-0.08136-8.62032-0.202572-3.94884-0.10632-7.90548-0.19926-11.8576,0.192612,0.69564,0.239112,1.41684,0.312168,2.13156,0.303864,2.39172,0.579492,4.788,0.75384,7.19076,0.139476,0.84252,0.151092,1.69764,0.169356,2.54952,0.234132,2.33268,0.511416,4.66356,0.712332,7.00092,0.37692,2.81928,0.541308,5.66868,0.991272,8.4846,0.55626,3.65844,1.01785,7.33284,1.56746,10.9943,0.0996,1.11528,0.333744,2.2146,0.440016,3.33132,0.08964,0.4356,0.142788,0.87744,0.212532,1.31953,0.09792,0.63011,0.20922,1.26036,0.275628,1.89695,0.499788,3.29617,1.04276,6.58765,1.49273,9.89185,0.634296,4.03176,1.24699,8.0682,1.83811,12.1063,0.373596,2.28624,0.68244,4.5822,1.05438,6.87,0.189288,1.70076,0.622656,3.38075,0.594432,5.10072h2.45246c-0.695724-3.72061-1.33001-7.45236-2.00249-11.1778-0.54462-3.18456-1.20216-6.3516-1.59235-9.55848-2.15857-15.7949-4.31714-31.5916-6.47737-47.3866-0.621-4.52952-1.23868-9.06384-1.71522-13.6092-0.11628-1.43124-0.388548-2.8512-0.484848-4.2822,0.189288-0.68604,0.602736-1.3194,0.614364-2.0502,0.151092-0.81696-0.793692-1.41348-0.547956-2.23524,0.176016-0.9924-0.11784-1.9752-0.10956-2.96592,0.898296-0.9684,1.39476-2.27832,1.33333-3.57552-0.01824-0.85356,0.02988-1.70868-0.04812-2.55912-0.0996-0.96192-0.0864-1.95912-0.491484-2.86212-0.217524-0.5856-0.650892-1.11852-0.634296-1.76292-0.0216-1.27968,0.12288-2.56404-0.06804-3.834-0.08964-0.603-0.0996-1.21248-0.09624-1.81884,0.293892-0.0924,0.586128-0.18024,0.880032-0.26964-0.0072-0.46896-0.0072-0.93648-0.04488-1.40232-0.664176-0.70044-1.57908-1.0674-2.47738-1.40568-0.08964-1.60488,0.01824-3.21468-0.136152-4.81668,0.713988-0.0528,1.42963-0.0864,2.14528-0.1032,0.141144,0.114,0.283944,0.23124,0.425076,0.351,0.491496-0.0516,0.984648-0.1008,1.47613-0.15192,0.18762-1.25556,0.370272-2.51124,0.498132-3.77328,0.190944-1.37844,0.05472-2.76649,0.0432-4.14805-0.0084-1.4694-0.360312-2.90856-0.629304-4.34616,0.38688-0.27444,0.828552-0.53916,1.01286-0.98748,0.401832-0.92868,0.654216-1.90812,0.978-2.86391,0.356988-1.1328,1.62391-1.70389,2.75798-1.85544,3.2694-0.33985,6.5388-0.67645,9.8082-1.00681,0.61602-0.0804,1.3217-0.16583,1.73848-0.66203,0.459936-0.57133,0.2391-1.33705,0.244092-1.99597-0.371952-9.04464-0.725616-18.0907-1.09091-27.1354-0.03816-0.62724,0.015-1.2654-0.11952-1.88112-0.6125-0.702-1.2236-1.618-2.2746-1.667-0.4235-17.164-0.8087-34.33-1.2238-51.4922-0.6509-28.1342-1.3383-56.2685-1.9776-84.4028m-7.00538,151.313c0.48816,0.35592,0.498132,1.002,0.581148,1.53505,0.03156,0.47532,0.205896,0.98591-0.0036,1.44863-0.205896,0.61908-0.82026,1.11996-1.51432,1.1136-0.473232-0.47388-0.705696-1.11048-0.722292-1.75824-0.0084-0.7722-0.144456-1.5762,0.1677-2.3118,0.466584-0.18504,1.04275-0.33972,1.49107-0.0276m-17.9643,2.4252c0.3354,0.61116,0.144456,1.31784,0.230796,1.9752,0.02328,0.453,0.232464,0.95088-0.06636,1.36248-0.142788,0.36528-0.551256,0.48672-0.87504,0.66216-0.390204-0.14892-0.924876-0.20748-1.0959-0.63828-0.283932-0.74664-0.18264-1.56348-0.19758-2.34372-0.02652-0.38124,0.202572-0.70032,0.385212-1.01472,0.533004-0.16428,1.10088-0.26472,1.61893,0m9.418,23.8488,0.0564,0.0684c0.259032,0.0576,0.518064,0.1152,0.777096,0.17556,0.124524,0.4386,0.268992,0.88068,0.25404,1.34172-0.0012,1.25244-0.0012,2.50488-0.0012,3.75732-1.41469,0.1548-2.83271,0.31104-4.2557,0.33972-0.0048-0.0804-0.01332-0.24408-0.01824-0.32544-0.124536-0.80088-0.283932-1.64808-0.0432-2.43768,0.21918-1.21272,1.0826-2.30868,2.29307-2.7474,0.317136-0.0444,0.629304-0.1008,0.938136-0.17244m-1.14901,17.0316c0.03648,0.44832,0.01332,0.90144-0.0864,1.34484-0.240756-0.46428-0.612696-0.9396-0.479856-1.48692,0.189288,0.0444,0.37692,0.0924,0.566208,0.14124m-0.34704,8.33628c-0.05484,1.03704,0.19428,2.41704,1.3682,2.79036,0.757152,0.22824,1.63553,0.0576,2.25985-0.40992,0.345372-0.35904,0.60108-0.78504,0.903276-1.17432,0.537984,0.3048,0.494808,0.96372,0.503112,1.48548-0.02496,1.46628,0.0282,2.934-0.02328,4.40016-0.07308,0.45156-0.156072,1.10088-0.70734,1.2318-0.254052,0.0864-0.385224-0.18672-0.537984-0.3192-0.775416-0.1188-1.60564-0.2058-2.36114,0.0444-0.012,0.126-0.03492,0.37812-0.04812,0.504-0.695712-0.0852-0.93648-0.79596-1.32503-1.25388-0.448308-0.45948-0.305508-1.12812-0.438348-1.6944-0.255708-0.94608-0.172692-1.929-0.20424-2.89416,0.0048-0.91104-0.10296-1.83,0.0714-2.73144,0.134496,0,0.405156,0.0156,0.53964,0.0216m4.15276,10.6864c0.08964,0.52812,0.190944,1.05768,0.21918,1.5954-0.174348,0.41172-0.813624,0.33984-1.19053,0.2952-0.07476-0.28572-0.15276-0.60792,0.03156-0.86628,0.2856-0.49308,0.478212-1.02432,0.622668-1.56684,0.159408,0.1488,0.313824,0.30948,0.317148,0.54252m-2.401-0.47076c0.190944,0.7116,0.280608,1.48704,0.03492,2.19852-0.10464,0.21072-0.358656,0.21384-0.468252,0-0.156072-0.73224-0.06804-1.48524,0.01992-2.21916,0.10296,0,0.3105,0.0156,0.413448,0.0168z" fill="url(#linearGradient3757)"/>
<path d="m26.9951,218.117c0.481398,2.22637,1.95659,7.02757,1.924,9.46342,0.08692,2.00551,0.652514,3.54245,0.659714,5.54986,0.639374,6.28204,1.41069,11.386,1.05704,17.287,0.09432,9.29903-0.819263,3.42638-1.67719-3.08966-0.724005-26.8582-0.617961-20.9022-1.03064,20.933-0.02355,4.64528-0.128545,9.29031-0.09779,13.9353,0.03809,2.14717,0.004,4.29419,0.0131,6.44308-0.0199,1.86956,0.05982,3.74511-0.123179,5.61087-0.03259,3.8151-0.06166,7.6321-0.05432,11.4471h-1.74066c0.08692-2.06562-0.01637-4.13124,0.06336-6.1929,0.150341-5.49838,0.14309-10.9969,0.262629-16.4954,0.04163-2.33127,0.10512-4.66253,0.05432-6.99392,0.208291-5.61859,0.146714-11.2432,0.291622-16.8619,0.02894-2.52527,0.134031-5.0485,0.07251-7.57376,0.127836-8.33617,0.245327-40.1986-1.21134-20.0525-0.411162,1.65946-0.944038,8.12851-1.43488,11.5516-0.606796,4.44735-1.11032,8.91408-1.70987,13.3651-0.108648,1.35576-0.364064,2.69215-0.479991,4.04968-0.09779,0.52954-0.15576,1.06666-0.23184,1.60407-0.106812,0.76599-0.228228,1.53214-0.300669,2.30601-0.545193,4.00695-1.1375,8.00819-1.62834,12.0249-0.691921,4.90116-1.36028,9.80805-2.0051,14.7169-0.407536,2.77924-0.744439,5.5703-1.15017,8.35144-0.206485,2.06751-0.679224,4.10979-0.648435,6.20064h-2.67527c0.758931-4.5229,1.45084-9.05937,2.18441-13.5881,0.594098-3.87127,1.31138-7.72125,1.73702-11.6197,2.35468-19.2009,4.3558-37.2549,6.71228-56.4559" fill="#000000"/>
</svg>
