<!-- Created with Inkscape (http://www.inkscape.org/) -->
<svg xmlns:rdf="http://www.w3.org/1999/02/22-rdf-syntax-ns#" xmlns="http://www.w3.org/2000/svg" height="145" width="932" version="1.1" xmlns:cc="http://creativecommons.org/ns#" xmlns:dc="http://purl.org/dc/elements/1.1/">
<metadata>
<rdf:RDF>
<cc:Work rdf:about="">
<dc:format>image/svg+xml</dc:format>
<dc:type rdf:resource="http://purl.org/dc/dcmitype/StillImage"/>
<dc:title/>
</cc:Work>
</rdf:RDF>
</metadata>
<path fill="#100f0b" d="M0.09475,0.1256,24.24,15.13c3,1,10.65,6.675,14.85,8.588-13,0.9-26.5,2-39,4.3z"/>
<path fill="#6c6c60" d="m0.08566,0.1242,288.5,0c-60,3.5-177.3,24.53-237.3,27.53-5.731-1.3-7.269-1.883-13-4.2-23.55-9.24-35.11-20.91-38.2-23.33z"/>
<path fill="#6f6f62" d="m618.2,0.1169,314,0,0,6c-8.8,4-17.75,3.25-26.75,5.25s-48.62,17.12-56.62,16.12c-87-5.6-143.6-20.87-230.6-27.38z"/>
<path fill="#13120d" d="m905.2,11.28c9-2.3,18-4.45,27-5.45v7c-9.069,0.6612-19.44-1.55-27-1.55z"/>
</svg>
