<!-- Created with Inkscape (http://www.inkscape.org/) -->
<svg xmlns:rdf="http://www.w3.org/1999/02/22-rdf-syntax-ns#" xmlns="http://www.w3.org/2000/svg" height="200.7" width="910.5" version="1.1" xmlns:cc="http://creativecommons.org/ns#" xmlns:dc="http://purl.org/dc/elements/1.1/">
<defs></defs>
<metadata>
<rdf:RDF>
<cc:Work rdf:about="">
<dc:format>image/svg+xml</dc:format>
<dc:type rdf:resource="http://purl.org/dc/dcmitype/StillImage"/>
<dc:title/>
</cc:Work>
</rdf:RDF>
</metadata>
<g transform="translate(0.0136664,-852.09844)">
<g transform="translate(-0.00853,752.61727)">
<g transform="translate(0,-752.36218)">
<g transform="matrix(1.25,0,0,1.25,-0.02355018,795.03059)">
<path fill="#707063" d="m394.2,110.2c10.51-0.37,21.04-0.33,31.56-0.04,13.4,0.5922-0.0317,0.0165,13.44,0.59,41.85,2.6,83.74,8.71,123.9,21.08,49.48,14.63,56.02,17.4,165.3,73.88-28.8-0.1-37-0.1-63,0.2-36.3-26.6-78.4-44.4-121.5-56.8-37.1-10.3-75.3-16-113.7-18.5-17.41-0.5139-1.097,0.3235-17.44-0.57-1.86-0.08-3.71-0.07-5.56,0.03-17.84,0.9997-0.035,0.0235-18.48,0.5-61.8,3.6-123.5,17.18-179.7,43.35-19.04,8.98-37.58,19.31-54.44,31.95l-133.9-0.3c1.87-5.1,5.91-8.6,9.49-12.5,10.85-12.45,22.9-23.99,36.07-33.92,44.11-8.855,130-4.124,130-4.1,59.75-24.76,128.5-41.33,184.5-44.45,13.51-0.4965,0.0813,0.0651,13.49-0.5z"/>
<path fill="#020201" d="m407.2,130.2c1.85-0.1,3.7-0.11,5.56-0.03,17.47,0.5951-0.005-0.004,17.44,0.57,38.35,2.48,76.61,8.14,113.7,18.46,43.08,12.44,85.21,30.22,121.5,56.8h-510.9c16.86-12.64,35.4-22.97,54.44-31.95,56.26-26.17,117.9-39.75,179.7-43.35,18.46-0.4301-0.0731-0.0163,18.48-0.5z"/>
</g>
</g>
<path fill="#be9e80" d="m376.6,214.1-7.065,8.774s0.1519,8.547,1.064,10.67c0.9116,2.127,5.622,10.71,7.141,11.32,1.519,0.6078,17.47,3.419,17.47,3.419l2.127-0.4938,18.73,11.47,20.32,9.61,27.12,2.963,10.64,5.926,17.02,15.95,0.9116,6.381,171.7,0.1519-47.71-47.25s-14.59-12.46-14.59-13.67c0-1.216-7.497-18.02-7.497-18.02l-8.001-5.073-9.002-4.862-8.015-36.62-7.369-26.4-23.32-12.04-19.45-11.85-10.64-7.597-9.42-0.6078-6.837-8.622s-5.318-4.444-6.837-4.444-15.16-0.4938-15.16-0.4938l-14.59,6.343-9.23-2.583-10.67-3.836-13.98,1.367-12.5,11.09-4.748,1.405-9.002,3.609-4.33,12.57-3.95,10.33,6.989,1.823,1.823,17.32-4.558,28.26,0.3039,5.166-2.963,2.431z"/>
<path fill="#bda491" d="m26.33,256.3,6.381-4.786,7.597-21.35,12.46-26.13,7.977-16.41,12.08-5.166,19.48-22.62,11.87-0.7866,27.06-19.2,13.08,3.942,11.4-3.464,4.288-5.122,3.505-1.664,14.2,0.1959,8.787,6.299,24.64-0.4003,14.85,16.6-19.19,16.57,3.534,40.58,15.73,11.39,2.723-0.7405,11.75,8.609,1.373,23.14-10.68,10.28-10.9,1.026-5.546-1.026-13.03,12.34-31.68,19.22-5.253,2.411-164.8-0.0382,0.007075-32.01"/>
<g transform="translate(0,-752.36218)">
<g transform="matrix(1.2497986,0,0,1.2493308,0.18326945,795.04574)">
<path fill="#bd9a7f" d="m376,47.91c6.437-2.942,8.703-3.112,12.21-1.15,2.9,1.68,5.69,3.95,6.87,7.19-1.34-0.99-2.61-2.09-4.03-2.97-3.8,2.75-7.92,5.97-13.01,4.85-5.75-1.16-11.72,3.27-17-0.86-5.06-3.04-11.36-2.47-16.26-5.79,1.84-0.14,3.69-0.33,5.55-0.52,2.79,0.87,5.55,1.86,8.41,2.49l0.36,0.89c4.65,2.4,13.75,1.53,16.9-4.13z"/>
<path opacity="0.97000002" fill="#9b7d66" d="m326.7,57.57c3.75-3.19,6.84-7.2,11.13-9.72,3.318-1.47,6.414-1.489,10.39-0.04,0.52,0.22,1.57,0.64,2.1,0.85-1.86,0.19-3.71,0.38-5.55,0.52-4.08-1.14-8.18,0.08-10.73,3.3-3.59,3.63-6.42,7.96-9.1,12.29-1.75,1.83-0.82,6.16-3.83,6.31,0.05-1.69,1.57-3.75-0.1-5.08-2.38-1.61,2.38-4.36-0.12-5.71-1.66,0.49-3.26,1.16-4.91,1.67,2.33-3.5,7.16-3.29,10.72-4.39z"/>
<path opacity="0.95" fill="#9a7c64" d="m368.2,51.25c2.58-1.08,5.13-2.25,7.72-3.34-3.348,6.693-16.98,7.16-17.26,3.242,1.3,0.23,6.8,1.45,9.6,0.1z"/>
<path fill="#c5a488" d="m334,52.48c2.55-3.22,6.65-4.44,10.73-3.3,4.9,3.32,11.2,2.75,16.26,5.79,5.28,4.13,11.25-0.3,17,0.86,5.09,1.12,9.21-2.1,13.01-4.85,1.42,0.88,2.69,1.98,4.03,2.97,1.25,4.38,3.74,8.18,5.98,12.09-2.05-0.27-4.05-0.79-6.1-1.05,3.14,3.67,6.84,7.21,7.96,12.1,1.77,5.71,7.61,8.16,12.92,9.69,1.29-1.56,2.22-5.02,4.85-3.44,4.55,3.52,9.25,8.25,15.32,8.71,3.03,0.74,2.79-4.45,5.71-3.67,3.12,0.34,4.15-5.22,7.57-3.77,3.53,6.4,4.18,13.85,6.29,20.74,2,7.89,3.66,15.87,5.43,23.82,1.645,2.505,1.822,2.996,1.83,5.86l0.26,0.76c-2.71-0.26-4.93-1.88-7.11-3.31,1.66-1.91-2.27-2.65-3.21-4.06,2.13-0.01,2.48-0.51,1.06-1.5,3.67-6.25,2.92-14.34,0.02-20.78-1.67-3.97-4.05-10.22-9.82-8.15-4.07-2.32-5.06,1.16-7.01,3.04-3.33-2.04-6.27-4.87-10.07-5.99-2.43-0.28-3.5,2.55-5.21,3.78-1.42-0.8-2.64-1.9-3.86-2.95-5.18-5.36-11.86-8.72-17.92-12.93-3.09,1.78-4.8,5.55-8.02,7.04-3.04-0.29-5.86-2.68-4.32-5.92-2.44-1.71-7.87-1.96-6.99-6.07-0.5-3.09-3.84-4.5-6.64-3.11-0.77-2.61,1.67-3.95,3.94-3.75,3.77,1.14,7.31,2.97,11.21,3.71-0.67-6.68-8.8-8.61-14.38-7.35-3.92-0.01-8.15-2.85-11.84-0.6-2.86,1.16-5.9,6-7.86,1.48,2.24-0.28,4.14-2.04,4.64-4.18-1.06-2.17-2.49-4.23-4.48-5.62-4.03-5.25-11.97-9.01-17.82-4.51,1.73,4.36-1.7,7.94-3.24,11.75-0.94,2.44-2.75,5.05-1.89,7.76,2.16,1.06,5.33,1.71,5.91,4.42-3.55,0.58-8.1-0.88-8.51-4.95-0.26,0.28-0.78,0.86-1.04,1.14-0.24-1.62-0.74-4.85-0.99-6.47,2.04-5.02,7.34-9.63,6.4-15.23z"/>
<path fill="#d4ae95" d="m337.4,54.06c5.85-4.5,13.79-0.74,17.82,4.51-0.4,1.34-0.5,2.73-0.64,4.11-2.93,1.1-6.01,1.77-8.89,2.98-3.48,0.94-3.22,7.34-8.52,4.27-1.75-0.36-1.92-2.87-3.01-4.12,1.54-3.81,4.97-7.39,3.24-11.75z"/>
<path fill="#b7957e" d="m324.9,64.77c2.68-4.33,5.51-8.66,9.1-12.29,0.94,5.6-4.36,10.21-6.4,15.23-4.98,4.84,1.63,11.76-1.24,17.54-0.21-3.53-1.71-6.75-2.87-10.03-0.69-3.63,3.59-7.04,1.41-10.45z"/>
<path fill="#be9e80" d="m395,53.95c1.96,1.27,3.37,4.09,5.92,3.99,9.08-3,17.57,3.46,22.82,10.28,3.33,4.55,8.87,4.98,13.9,6.17,4.57,2.41,8.99,5.63,11.57,10.22-3.42-1.45-4.45,4.11-7.57,3.77-2.92-0.78-2.68,4.41-5.71,3.67-6.07-0.46-10.77-5.19-15.32-8.71-2.63-1.58-3.56,1.88-4.85,3.44-5.31-1.53-11.15-3.98-12.92-9.69-1.12-4.89-4.82-8.43-7.96-12.1,2.05,0.26,4.05,0.78,6.1,1.05-2.24-3.91-4.73-7.71-5.98-12.09z"/>
<path fill="#ccab91" d="m355.2,58.57c1.99,1.39,3.42,3.45,4.48,5.62-0.5,2.14-2.4,3.9-4.64,4.18,1.96,4.52,5-0.32,7.86-1.48,3.69-2.25,7.92,0.59,11.84,0.6,5.58-1.26,13.71,0.67,14.38,7.35-3.9-0.74-7.44-2.57-11.21-3.71-2.27-0.2-4.71,1.14-3.94,3.75,2.8-1.39,6.14,0.02,6.64,3.11-0.88,4.11,4.55,4.36,6.99,6.07-1.54,3.24,1.28,5.63,4.32,5.92,3.22-1.49,4.93-5.26,8.02-7.04,6.06,4.21,12.74,7.57,17.92,12.93-3.36,1.23,0.22,3.34,0.43,5.46-0.02,1.71,1.54,2.68,2.54,3.86-5-0.58-10.32,0.35-15.02-1.8-6.59-1.66-10.95-7.38-16.78-10.49-1.63,1.36-2.37,4.34-4.87,4.11-0.63-1.18-1.06-2.44-1.56-3.66-3.82-0.39-8.76,2.06-11.48-1.52,0.72-1.63,1.79-3.08,2.63-4.64-1.21-1.06-2.44-2.12-3.75-3.04-1.93,0.65-3.7,2.01-5.83,1.81-0.32-1.18-0.52-2.38-0.8-3.56-2.97-0.6-5.26-2.62-7.95-3.84,0.01-1.29,0.48-3.41-1.38-3.61-1.96,1.5-5.11,2.72-4.71,5.65-1.53,0.82-3.06,1.63-4.54,2.52-2.27-0.77-3.21-4.9-5.85-3.19-0.19-0.49-0.58-1.45-0.78-1.94-0.58-2.71-3.75-3.36-5.91-4.42-0.86-2.71,0.95-5.32,1.89-7.76,1.09,1.25,1.26,3.76,3.01,4.12,5.3,3.07,5.04-3.33,8.52-4.27,2.88-1.21,5.96-1.88,8.89-2.98,0.14-1.38,0.24-2.77,0.64-4.11z"/>
<path fill="#ab9079" d="m316,61.96c1.65-0.51,3.25-1.18,4.91-1.67,2.5,1.35-2.26,4.1,0.12,5.71,1.67,1.33,0.15,3.39,0.1,5.08,3.01-0.15,2.08-4.48,3.83-6.31,2.18,3.41-2.1,6.82-1.41,10.45,1.16,3.28,2.66,6.5,2.87,10.03-0.13,1.12-0.22,2.24-0.28,3.37l-1.02,0.28c0.18-4.4-1.56-8.59-3.92-12.21-0.35,4.87,0.59,9.67,0.74,14.52-1.63-2.13-1.55-6.82-4.52-7.05-0.51,1.74-1.22,3.42-2.42,4.8-0.42-1.99-0.77-4-1.03-6.02-3.095,0.2059-5.024,0.1229-8.574-0.02123-0.2261-1.785,0.174-5.676,0.494-7.349,0.5885-3.052,1.41-5.32,3.14-7.48,2.23-2.731,3.54-4.106,6.97-6.13z"/>
<path fill="#b79e89" d="m326.4,85.25c2.87-5.78-3.74-12.7,1.24-17.54,0.25,1.62,0.75,4.85,0.99,6.47-1.16,6.59,1.34,13.26-0.16,19.84,1.21,9.34,1.42,18.74,1.82,28.14-2.5,7.59-4.67,15.47-4.84,23.51-0.39,2.66-1.02,5.28-1.85,7.84-2.17,0.57-3.82,2.01-3.95,4.36-2.19,0.11-4.84-1.74-6.59,0.24,0.82,2.56,2.93,4.26,4.81,6.04-0.42,0.09-1.26,0.26-1.68,0.35-4.41-3.57-6.73-8.92-9.51-13.72-0.02-0.4-0.04-1.2-0.06-1.6,1.66-7.21,7.47-12.13,12.73-16.86,1.75-0.86,4.91-0.5,4.67-3.3-0.07-2.26,2.33-2.96,3.67-4.32,0.03-8.81,0.18-17.64-0.98-26.39-0.4-3.24,1.18-6.74-0.59-9.69,0.06-1.13,0.15-2.25,0.28-3.37z"/>
<path opacity="0.75" fill="#725b4c" d="m130.7,72.71c3.45-1.43,8.05-0.94,11.44,0.16-3.83,0.07-7.64,0.2-11.44-0.16z"/>
<path fill="#c5a28a" d="m128,74.04c0.87-0.51,1.77-0.95,2.71-1.33,3.8,0.36,7.61,0.23,11.44,0.16,0.41,0.3,1.24,0.91,1.65,1.21,1.48,3.31,5.05,5.03,7.31,7.78-2,3.4,2.8,6.09,3.92,9.11,2.78,2.76,1.54,6.89-0.12,9.95-1.75,6.14-3.03,13.06-1.23,19.34-0.51,6.99,1.33,14.7,6.34,19.74,5.72,2.38,11.32,4.91,16.19,8.85,0.97,6.15,2.48,12.21,3.18,18.41-1.15,4.25-2.93,8.37-5.67,11.85-2.98,1.87-5.89,3.85-8.68,5.98-0.8-3.77,1.82-6.45,3.89-9.25,0.35-4.31-0.88-8.5-2.29-12.51-2.43-2.6-4.93-5.42-8.28-6.82-1.43-3.35-0.79-7.21-2.35-10.51-1.92-4.07-2.37-8.61-4.17-12.73-1.51-7.69,0.7-15.59-0.75-23.31-0.39-5.65,3.19-11.1,2.61-16.66-3.27-5.17-5.55-11.42-10.91-14.85-0.43,0.09-1.28,0.25-1.7,0.34-0.44-3.85-4.09-2.88-6.94-1.81-1.27-0.01-2.53-0.04-3.78-0.08-0.72-1.02-1.53-1.95-2.37-2.86z"/>
<path fill="#bca48f" d="m328.6,74.18c0.26-0.28,0.78-0.86,1.04-1.14,0.41,4.07,4.96,5.53,8.51,4.95,0.2,0.49,0.59,1.45,0.78,1.94-0.58,3.3-0.69,6.69-0.17,10.01-0.53,3.23-2.85,5.64-5.46,7.41,0.37,5.67-2.4,11.66,0.07,17.08,0.54,3.41,0.27,7.1,1.92,10.26,2.72,4.42-4.33,7.46-2.66,12.21-1.04,4.35,2.57,8.43,1.9,12.77-1.71,5.93-1.34,12.29-3.96,18.02-1.1,2.15,1.5,3.76,2.25,5.6-5.22-2.63-10.41-5.51-14.98-9.14-1.88-1.78-3.99-3.48-4.81-6.04,1.75-1.98,4.4-0.13,6.59-0.24,0.13-2.35,1.78-3.79,3.95-4.36,0.83-2.56,1.46-5.18,1.85-7.84,0.17-8.04,2.34-15.92,4.84-23.51-0.4-9.4-0.61-18.8-1.82-28.14,1.5-6.58-1-13.25,0.16-19.84z"/>
<path fill="#bda491" d="m118,80.08c3.51-1.74,6.75-3.92,10.02-6.04,0.84,0.91,1.65,1.84,2.37,2.86-5.63,5.52-12.85,8.76-19.56,12.83-6.99-0.05-11.01,7.02-17.29,8.78-0.43,2.76-5.09,7.04-6.83,3.83-0.21,0.14-0.65,0.42-0.86,0.57-3.64,0.27-7.26,0.14-10.83-0.52-2.14,1.28-4.44,1.72-6.89,1.13-3.61,3.24-6.9,6.81-10.32,10.26-1.88,3.23-6.22,4.62-9.3,2.16,2.21-2.34,5.46-2.93,8.26-4.24,4.94-6.57,9.49-13.98,16.97-17.95,2.82-0.14,6.1,1.27,8.5-0.56,3.32-2.49,4.68-6.66,7.11-9.87,3.42-5.24,9.6-8.32,15.74-5.53,2.93,3.98,8.78,4.88,12.91,2.29z"/>
<path opacity="0.97000002" fill="#a1816b" d="m143.8,74.08c8.06,5.43,18.67-1.08,26.88,4.27,4.71,4.36,10.74,9.65,11.31,16.58-2.85,3.69-8.643,2.081-11.91,5.271,0.47-2.28,0.25-5.312,1.84-7.092,0.01,4.05,6.12,0.99,7.05-1.22-0.41-4.25-3.57-7.53-6.81-10.04-3.28-3.39-9.84-4.69-12.37,0.07-2.91,0.03-5.79,0.07-8.68-0.06-2.26-2.75-5.83-4.47-7.31-7.78z"/>
<path fill="#cbb19a" d="m349.3,80.6c-0.4-2.93,2.75-4.15,4.71-5.65,1.86,0.2,1.39,2.32,1.38,3.61,2.69,1.22,4.98,3.24,7.95,3.84,0.28,1.18,0.48,2.38,0.8,3.56,2.13,0.2,3.9-1.16,5.83-1.81,1.31,0.92,2.54,1.98,3.75,3.04-0.84,1.56-1.91,3.01-2.63,4.64,2.72,3.58,7.66,1.13,11.48,1.52,0.5,1.22,0.93,2.48,1.56,3.66,2.5,0.23,3.24-2.75,4.87-4.11,5.83,3.11,10.19,8.83,16.78,10.49,4.7,2.15,10.02,1.22,15.02,1.8,2.07,2.38,6.21,1.96,7.31,5.3-2.1,0.96-3.99,2.4-5.23,4.37,1.65,0.85,3.4,1.45,5.11,2.18,0.52,2.09-1.82,3.86-3.6,2.48-7.18-4.49-17.33-2.12-21.5,5.37,3.41-0.03,7.59,3.31,10.68,0.68,3.47-2.73,8.24-1.28,12.09-0.24-1.9,5.66,3.84,6.4,6.16,9.83,2.85,3.69,11.76,4.7,9.47-3.1,6.43-0.28,12.27,2.08,18.09,4.35,6,0.35,10.21,5.14,15.8,6.53,5.83,6.58,8.32,16.02,16.03,20.85,13.71,14.34,28.46,27.9,42.11,42.35l-8.5-0.4c0.16-1.12,1.58-2.57,0.48-3.54-4.71-3.88-8.26-8.89-12.03-13.63-2.19-0.48-2.92-2.68-4.05-4.33-4.09,0.28-5.65-3.66-8.56-5.44-2.6-2.38-6.34-4.54-6.19-8.56-2.07,0.5-3.79-0.54-5.43-1.66-4.08-0.24-6.21-3.76-9.2-5.86-1.16,1.89-3.16,1.53-5.04,1.35-4.21,0.98-8.51,3.09-12.81,1.39-1.52-0.68-0.49-2.26-0.51-3.47-4.64,1.13-5.77-4.84-10.41-3.74-3.35-1.68-7.76-3.56-7.68-7.87-3.31-0.22-5.27-3.21-8.29-4.13-3.11-1.57-6.69-1.04-9.97-1.9-1.1-1.41-2.27-2.76-3.16-4.31,1.74-1.63,3.49-3.56,2.73-6.17-3.09-1.7-6.31-3.08-9.47-4.6-5.62-0.9-12.09,1.5-17.1-1.94-2.07-2.43-5.67-3.53-5.87-7.13-1.9-0.65-3.74-1.41-5.59-2.17-3.15,0.45-6.04,1.84-9.05,2.76,1.41-2.64,8.87-7.29-0.8-5.44-3.58-0.8-5.46,3.65-7.86,5.7-1.45,2.95,2.5,3.8,3.64,5.82-0.17,2.21-0.3,4.43,0.19,6.63-1.09,1.04-2.26,1.97-3.45,2.88-1.66,2.04-2.05,6.04-5.46,5.43,2.74-7.8-1.97-5.6-5.9-5.21-1.22-1.58-2.27-3.28-3.45-4.89,2.16-1.44,3.46,1.05,5.13,2.05,1.9-2.06,5.88-3.51,4.98-6.92-0.93-2.29-1.63-5.93-4.82-4.53-1.75-6.06-8.7-7.05-12.45-11.23-1.12-0.15-3.99,1.01-2.21-0.93,3.63-2.69,2.85-7.91,5.75-11.21,1.48-1.48,0.37-3.42-0.47-4.9-7.4,2.52-7.55-6.66-5.94-11.18,1.48-0.89,3.01-1.7,4.54-2.52z"/>
<path fill="#d8b6a0" d="m134.2,76.98c2.85-1.07,6.5-2.04,6.94,1.81,3.04,5.65,8.75,11.09,7.82,18.19-2.43-1.84-3.15-0.58-2.16,3.8-4.44,1.73-11.65-0.09-11.96-5.67-0.53-2.83-3.72-3.29-5.92-4.31-2.46-2.77-6.01-0.45-9.11-0.02,1.48-2.4,4.62-3.31,6.04-5.98,2-3.46,6.62-4.38,8.35-7.82z"/>
<path fill="#ceb198" d="m130.4,76.9c1.25,0.04,2.51,0.07,3.78,0.08-1.73,3.44-6.35,4.36-8.35,7.82-1.42,2.67-4.56,3.58-6.04,5.98,3.1-0.43,6.65-2.75,9.11,0.02-3.2,2.19,0.23,7.46-3.28,9.8-3.72,2.86-3.85,7.92-2.68,12.07-2.1,0.38-4.1,1.07-5.93,2.18-1.43-1.54,0.02-5.56-2.98-4.85-2.5-0.76-1.99,2.11-2.52,3.65-0.97,2.57,0.38,5.07,0.96,7.55-0.82,1.83-1.14,3.71-0.73,5.7-0.92,2.35-2.03,4.62-3.07,6.92-3.31,0.26-6.61,0.2-9.91-0.07,3.52-2.19,10.87,1.13,8.63-6.65,0.4-5.09,1.75-11.22-3.47-14.13-4.15,1.14-7.4,5.14-8.67,9.2-1.87,4.65-7.7,5.84-10.17,10.02-0.94,0.53-1.96,0.83-3.04,0.89-1.24-4.28,4.24-6.33,3.49-10.7,0.47-1.68,1.56-3.05,2.6-4.41,2.64-2,5-4.35,6.62-7.25,2.35-4.19,10.47-3.76,8.7-10.42,3.08-3.88,7.09-6.82,10.74-10.12-0.84-0.11-2.51-0.34-3.35-0.45,6.71-4.07,13.93-7.31,19.56-12.83z"/>
<path fill="#9e826e" d="m321.2,76.69c2.36,3.62,4.1,7.81,3.92,12.21l-0.17,0.91c-2.3,7.56-0.51,15.43-2.04,23.08-1.71,5.69-5.98,9.89-9.77,14.26,0.3-1.34,0.65-2.67,0.95-4.01-1.1,0.46-2.1,1.4-3.37,1.14,1.1-1.84,2.41-3.72,2.17-5.98,0.08-0.88,0.24-2.64,0.32-3.52,0.37,1.03,0.75,2.07,1.14,3.1,2.45,0.37,3.69-2.55,4.07-4.54,1.4-7.33,3.67-14.61,3.52-22.13-0.15-4.85-1.09-9.65-0.74-14.52z"/>
<path opacity="0.97000002" fill="#9b826d" d="m105.1,77.79c4.27,1.03,8.36,2.92,12.91,2.29-4.13,2.59-9.98,1.69-12.91-2.29z"/>
<path fill="#c8ab94" d="m141.1,78.79c0.42-0.09,1.27-0.25,1.7-0.34,5.36,3.43,7.64,9.68,10.91,14.85,0.58,5.56-3,11.01-2.61,16.66,1.45,7.72-0.76,15.62,0.75,23.31,1.8,4.12,2.25,8.66,4.17,12.73,1.56,3.3,0.92,7.16,2.35,10.51,3.35,1.4,5.85,4.22,8.28,6.82,1.41,4.01,2.64,8.2,2.29,12.51-2.07,2.8-4.69,5.48-3.89,9.25-6.58,10.59-18.52,15.95-29.45,20.96l-5.899,0.00005c3.8-3.61,9.619-8.144,7.529-13.93-0.16-1.62,2.48-1.55,3.44-2.53,1.82-2.2,0.19-5.11,1.27-7.59,0.37-3.14,4.83-4.88,3.48-8.33-0.92-2.13,1.09-3.52,2.16-5.04,0.17-2.64-0.47-5.45,1.31-7.7-1.14-2.31-3.82-3.62-4.4-6.28-0.44-2.29-1.52-4.27-3.06-6.01,0.85-4.36,0.08-8.92-2.3-12.73,2.63,0.48,5.98,2.11,7.57-1.04-0.93-2.1-1.4-4.29-1.16-6.59-0.12-2.73-2.6-3.92-4.37-5.55-0.14-2.2,0.67-4.33,1.14-6.45,2.43-2.44,8.78-0.63,5.91-7.29,0.84-3.99-0.27-8.05,0.7-12.01,0.93-7.1-4.78-12.54-7.82-18.19z"/>
<path fill="#c3ac97" d="m338.9,79.93c2.64-1.71,3.58,2.42,5.85,3.19-1.61,4.52-1.46,13.7,5.94,11.18,0.84,1.48,1.95,3.42,0.47,4.9-2.9,3.3-2.12,8.52-5.75,11.21-1.78,1.94,1.09,0.78,2.21,0.93,3.75,4.18,10.7,5.17,12.45,11.23,3.19-1.4,3.89,2.24,4.82,4.53,0.9,3.41-3.08,4.86-4.98,6.92-1.67-1-2.97-3.49-5.13-2.05-2.94-0.72-6.21-2.92-8.63,0.23-3.46,2-2.72,5.85-2.66,9.18-1.37,3.02,0.92,4.73,2.32,6.63-2.05,1.16-0.74,3.06-0.36,4.78-0.11,7.94-1.22,16.18-5.31,23.16,3,1.64,6.45,2.54,8.93,5.05-5.64-2-11.63-3.83-16.28-7.71-0.75-1.84-3.35-3.45-2.25-5.6,2.62-5.73,2.25-12.09,3.96-18.02,0.67-4.34-2.94-8.42-1.9-12.77-1.67-4.75,5.38-7.79,2.66-12.21-1.65-3.16-1.38-6.85-1.92-10.26-2.47-5.42,0.3-11.41-0.07-17.08,2.61-1.77,4.93-4.18,5.46-7.41-0.52-3.32-0.41-6.71,0.17-10.01z"/>
<path fill="#020201" d="m186,94.03c43.62-12.43,78.08-15.59,119.3-11.9,3.2,0.3397,5.808,0.4605,8.585,0.8078,0.26,2.02,0.61,4.03,1.03,6.02-1.89,3.25-1.7,7.19-2.22,10.81-0.35,6.03-2.19,12.69,0.11,18.53,0.24,2.26-1.07,4.14-2.17,5.98-2.13,2.17-3.54,5.16-6.18,6.76-1.03-0.56-2.12-0.98-3.26-1.25-36.32-3.595-83.76-0.3453-115.8,15.37-2.493-0.0579-0.00037-0.005-2.482-0.047-4.61-2.83-9.53-5.13-14.09-8.03,0.9-2.63,0.73-5-0.51-7.11-0.3-5.26-0.92-10.49-1.65-15.7,0.08-3.11,0.24-6.19,0.22-9.29,1.21-1.54,2.58-3.03,3.18-4.93,5.059-3.621,10.98-5.164,15.92-6.02z"/>
<path fill="#c29b81" d="m151.1,81.86c2.89,0.13,5.77,0.09,8.68,0.06,0.3823-2.36,6.518-5.885,12.37-0.1308,3.24,2.51,6.4,5.851,6.81,10.1-0.93,2.21-7.04,5.27-7.05,1.22,1.22-1.2,3.56-1.95,3.06-4.06,0.11-2.08-2.43-1.7-3.81-1.66-2.29-1.6-3.84-4.91-7.06-4.46-0.59,3.97-0.8,7.98-1.19,11.98-0.98-0.59-1.91-1.26-2.89-1.83-1.23,1.49-0.42,3.47-0.53,5.21,0.49,5.35-0.4,10.72-1.27,15.98-0.05-0.52-0.15-1.56-0.2-2.08-0.36-2.82,1.43-7.04-1.92-8.24-2.99,4.85-1.73,10.91-2.43,16.31-1.8-6.28-0.52-13.2,1.23-19.34,1.66-3.06,2.9-7.19,0.12-9.95-1.12-3.02-5.92-5.71-3.92-9.11z"/>
<path fill="#ccaa97" d="m164.1,82.93c3.22-0.45,4.77,2.86,7.06,4.46,1.38-0.04,3.92-0.42,3.81,1.66,0.5,2.11-1.84,2.86-3.06,4.06-1.59,1.78-1.34,4.637-1.81,6.917-0.6639,1.815-1.165,2.422-3.207,5.093,0.014,3.114-0.0758,6.114-0.2232,9.15,0.73,5.21,1.35,10.44,1.65,15.7,1.778,2.864,1.158,5.83,0.5918,7.142-9.2-4.3-10.2-15-10.8-22.7,0.87-5.26,1.76-10.63,1.27-15.98,0.11-1.74-0.7-3.72,0.53-5.21,0.98,0.57,1.91,1.24,2.89,1.83,0.39-4,0.6-8.01,1.19-11.98z"/>
<path fill="#c0a89c" d="m317.4,84.16c2.97,0.23,2.89,4.92,4.52,7.05,0.15,7.52-2.12,14.8-3.52,22.13-0.38,1.99-0.8299,4.424-3.645,4.965-0.8762,0.2463-1.682,0.4826-2.052-0.5474-1.862-4.159-0.5154-12.63,0.0562-17.99,0.52-3.62,0.33-7.56,2.22-10.81,1.2-1.38,1.91-3.06,2.42-4.8z"/>
<path fill="#b29883" d="m325.1,88.9,1.02-0.28c1.77,2.95,0.19,6.45,0.59,9.69,1.16,8.75,1.01,17.58,0.98,26.39-1.34,1.36-3.74,2.06-3.67,4.32,0.24,2.8-2.92,2.44-4.67,3.3-5.26,4.73-11.07,9.65-12.73,16.86-0.1-1.5-0.31-4.49-0.41-5.99,0.75-2.01,2.27-6.05,3.02-8.07,3.47-7.25,11.89-10.4,15.51-17.45,0.61-9.27,0.2-18.57,0.19-27.86l0.17-0.91z"/>
<path fill="#c7ac96" d="m93.52,98.51c6.28-1.76,10.3-8.83,17.29-8.78,0.84,0.11,2.51,0.34,3.35,0.45-3.65,3.3-7.66,6.24-10.74,10.12,1.77,6.66-6.35,6.23-8.7,10.42-1.62,2.9-3.98,5.25-6.62,7.25-3.15,0.34-5.97,3.29-9.03,0.84,1.61-5.56,4.14-10.75,6.76-15.9,0.21-0.15,0.65-0.43,0.86-0.57,1.74,3.21,6.4-1.07,6.83-3.83z"/>
<path fill="#a88f79" d="m322.9,112.9c1.53-7.65-0.26-15.52,2.04-23.08,0.01,9.29,0.42,18.59-0.19,27.86-3.62,7.05-12.04,10.2-15.51,17.45-0.75,2.02-2.27,6.06-3.02,8.07,0.05-6.19,2.7-11.65,6.91-16.04,3.79-4.37,8.06-8.57,9.77-14.26z"/>
<path fill="#cfb59f" d="m125.6,100.6c3.51-2.34,0.08-7.61,3.28-9.8,2.2,1.02,5.39,1.48,5.92,4.31,0.31,5.58,7.52,7.4,11.96,5.67-0.99-4.38-0.27-5.64,2.16-3.8-0.97,3.96,0.14,8.02-0.7,12.01,2.87,6.66-3.48,4.85-5.91,7.29-0.47,2.12-1.28,4.25-1.14,6.45,1.77,1.63,4.25,2.82,4.37,5.55-0.24,2.3,0.23,4.49,1.16,6.59-1.59,3.15-4.94,1.52-7.57,1.04,2.38,3.81,3.15,8.37,2.3,12.73,1.54,1.74,2.62,3.72,3.06,6.01,0.58,2.66,3.26,3.97,4.4,6.28-1.78,2.25-1.14,5.06-1.31,7.7-1.07,1.52-3.08,2.91-2.16,5.04,1.35,3.45-3.11,5.19-3.48,8.33-1.08,2.48,0.55,5.39-1.27,7.59-0.96,0.98-3.6,0.91-3.44,2.53,2.09,5.79-3.149,10.32-6.949,13.93h-19.1c0.04-4.27-7.38-4.3-3.82-9.6,0.22-3.41,4.25-7.9,0.25-10.34-2.73,2.17-5.16,4.72-8.11,6.61-2.63,0.56-5.5-1.09-8.01,0-6.13,1.99-8.46,8.6-12.12,13.33h-8.87c2.35-3.53,6.1-5.23,10.01-6.41,1.47-2.85,1.22-7.06,5.17-7.79,3.22-3.11,7.21-5.25,10.72-8.09,9.9,0.16,2.75-8.19,1.32-12.74,3.77-0.65,2.7,5.54,6.06,5.95,2.42-1.2,4.63-2.76,7.07-3.92,2.59,1.4,3.94,4.16,6.06,6.1,2.23,0.05,3.93-1.6,5.98-2.21-0.71,3.53-2.12,6.87-2.59,10.49,1.15,3.38-1.53,4.35-3.28,5.88,0.88,1.61,1.9,3.14,3.03,4.59,3.8-0.02,6.83-1.67,8.3-5.26,4.61-1.42,3.95-7.32,3.71-11.26-2.27-2.86,1.59-5.05,2.35-7.8,3.61-1.55,4.62-5.4,6.32-8.59-4.46-4.13-5.18-10.43-8.96-14.97,4.01-2.72,3.66-8.08,1.56-12.01,1.07-3.51-3.56-5.11-2.62-8.72,0.6,0.11,1.8,0.32,2.4,0.43-1.31-2.24-4.26-3.2-5.21-5.6,0.85-1.66,2.19-3.17,1.98-5.17-4.5,1.87-9.38,3.61-12.82,7.16,0.68,1.93,1.62,3.77,1.94,5.8-1.73-0.54-3.42-1.17-5.15-1.7-1.17,2.09-0.66,4.79-2.21,6.69-8.43-1.28-16.55,2.2-23.64,6.43,0.08,2.62,1.8,5.53,4.48,6.25,2.39,2.61,4.5,5.49,6.38,8.5-2.28,5.3-8.17-2.09-11.78,1.14,0.73,2.04,0.06,3.71-2.34,3.51-3.47-0.68-6.4,1.32-9.3,2.88-3.52-0.16-7.74,2.52-10.83-0.32,1.46-0.24,3.38-0.07,3.45-2.05,2.47-0.03,4.92-0.48,6.99-1.91,2.35-1.73,6.16-0.14,7.76-2.92-0.5-0.19-1.5-0.55-2-0.74,1.54-2.89,7.79-0.4,6.85-4.37-2.13-1.86-5.3-2.68-6.53-5.42,0.42-3.4,0.79-9.42,5.61-9,3.5-0.03,6.29-2.27,9.16-3.98,0.87-0.39,1.76-0.76,2.65-1.1,3.3,0.27,6.6,0.33,9.91,0.07,1.04-2.3,2.15-4.57,3.07-6.92-0.41-1.99-0.09-3.87,0.73-5.7-0.58-2.48-1.93-4.98-0.96-7.55,0.53-1.54,0.02-4.41,2.52-3.65,3-0.71,1.55,3.31,2.98,4.85,1.83-1.11,3.83-1.8,5.93-2.18-1.17-4.15-1.04-9.21,2.68-12.07z"/>
<path opacity="0.75" fill="#766051" d="m73.72,93.75c2.54-1.54,5.66-0.46,8.5-0.56-2.4,1.83-5.68,0.42-8.5,0.56z"/>
<path fill="#c9ae8e" d="m421.7,98.82c1.71-1.23,2.78-4.06,5.21-3.78,3.8,1.12,6.74,3.95,10.07,5.99,1.95-1.88,2.94-5.36,7.01-3.04,5.77-2.07,8.15,4.18,9.82,8.15,2.9,6.44,3.65,14.53-0.02,20.78-1.59-0.72-1.51-2.25-1.4-3.74-1.28-2.73-3.59-4.87-5.74-6.93-3.41-1.32-6.91-0.85-10.41-0.73-2.61-1.88-4.67-4.73-8.12-5.03-1.1-3.34-5.24-2.92-7.31-5.3-1-1.18-2.56-2.15-2.54-3.86-0.21-2.12-3.79-4.23-0.43-5.46,1.22,1.05,2.44,2.15,3.86,2.95z"/>
<path fill="#c4af9c" d="m68.11,103.5c2.45,0.59,4.75,0.15,6.89-1.13,3.57,0.66,7.19,0.79,10.83,0.52-2.62,5.15-5.15,10.34-6.76,15.9,3.06,2.45,5.88-0.5,9.03-0.84-1.04,1.36-2.13,2.73-2.6,4.41,0.75,4.37-4.73,6.42-3.49,10.7,1.08-0.06,2.1-0.36,3.04-0.89,3.28-0.15,6.58-0.27,9.83-0.76,1.31,0.66,0.98,2.22,1.2,3.42-2.87,1.71-5.66,3.95-9.16,3.98-4.82-0.42-5.19,5.6-5.61,9,1.23,2.74,4.4,3.56,6.53,5.42,0.94,3.97-5.31,1.48-6.85,4.37,0.5,0.19,1.5,0.55,2,0.74-1.6,2.78-5.41,1.19-7.76,2.92-2.07,1.43-4.52,1.88-6.99,1.91-3.8-0.4-7.61-0.72-11.37-1.36,1.68-2.33,4.52-3.33,6.75-5.01-0.06-1.87-0.44-3.71-0.5-5.57,2.95-1.07,6.66-0.72,8.73-3.47,0.09-2.63-1.94-6.68-5.87-3.78-4.68,0.73-11.51-1.04-14.06,4.19-1.27-1.47-2.17-3.2-3.18-4.84-2.09,1.78-4.37,3.32-6.59,4.94-0.71,2.15,1.72,3.53,1.81,5.55-5.47,3.69-18.03,2.76-16.22,12.82-0.42,0.11-1.25,0.33-1.67,0.45,1.73-4.53,1.06-9.62,2.91-14.12,3.31-8.65,8.65-16.44,10.38-25.69,2.64-4.03,4.86-8.77,9.13-11.36,3.08,2.46,7.42,1.07,9.3-2.16,3.42-3.45,6.71-7.02,10.32-10.26z"/>
<path fill="#b6957b" d="m156.1,104c3.35,1.2,1.56,5.42,1.92,8.24-0.62-0.8-1.24-1.58-1.88-2.35-1.6,8.36-0.77,17.78,4.05,24.98,5.24,4.75,12.6,7.39,16.01,14.03-4.87-3.94-10.47-6.47-16.19-8.85-5.01-5.04-6.85-12.75-6.34-19.74,0.7-5.4-0.56-11.46,2.43-16.31z"/>
<path fill="#a5836b" d="m156.2,109.8c0.64,0.77,1.26,1.55,1.88,2.35,0.05,0.52,0.15,1.56,0.2,2.08,0.54,7.78,2.07,17.85,9.51,22.09,0.27,0.18,0.82,0.54,1.1,0.72,4.56,2.9,9.48,5.2,14.09,8.03,1.74,0.93,3.48,1.89,5.05,3.12,5.06,10.77,0.88,23-5.98,31.91l-0.8,0.29c-5.4,0.72-2.99-5.86-1.63-8.72,0.99-3.49,4.83-9.31,0.49-11.84-0.81-3.81-0.58-8.29-3.85-11.02-3.41-6.64-10.77-9.28-16.01-14.03-4.82-7.2-5.65-16.62-4.05-24.98z"/>
<path fill="#c8ad91" d="m422.9,114.9c1.24-1.97,3.13-3.41,5.23-4.37-1.34,2.06-0.37,4.35-0.12,6.55-1.71-0.73-3.46-1.33-5.11-2.18z"/>
<path fill="#c2aa91" d="m428.1,110.5c3.45,0.3,5.51,3.15,8.12,5.03,3.5-0.12,7-0.59,10.41,0.73,2.15,2.06,4.46,4.2,5.74,6.93-0.11,1.49-0.19,3.02,1.4,3.74,1.42,0.99,1.07,1.49-1.06,1.5-3.28-2.84-7.38-4.63-11.79-4.43,0.03,0.47,0.09,1.41,0.12,1.89,4.58,3.02,9.77,4.76,14.88,6.6,2.18,1.43,4.4,3.05,7.11,3.31,4.91,0.23,8.75,3.9,12.14,7.15-5.59-1.39-9.8-6.18-15.8-6.53-5.82-2.27-11.66-4.63-18.09-4.35,2.29,7.8-6.62,6.79-9.47,3.1-2.32-3.43-8.06-4.17-6.16-9.83-3.85-1.04-8.62-2.49-12.09,0.24-3.09,2.63-7.27-0.71-10.68-0.68,4.17-7.49,14.32-9.86,21.5-5.37,1.78,1.38,4.12-0.39,3.6-2.48-0.25-2.2-1.22-4.49,0.12-6.55z"/>
<path fill="#c7af96" d="m95.22,122.2c1.27-4.06,4.52-8.06,8.67-9.2,5.22,2.91,3.87,9.04,3.47,14.13,2.24,7.78-5.11,4.46-8.63,6.65-0.89,0.34-1.78,0.71-2.65,1.1-0.22-1.2,0.11-2.76-1.2-3.42-3.25,0.49-6.55,0.61-9.83,0.76,2.47-4.18,8.3-5.37,10.17-10.02z"/>
<path fill="#d0b5a0" d="m369.2,121.3c2.4-2.05,4.28-6.5,7.86-5.7,9.67-1.85,2.21,2.8,0.8,5.44,3.01-0.92,5.9-2.31,9.05-2.76,1.85,0.76,3.69,1.52,5.59,2.17,0.2,3.6,3.8,4.7,5.87,7.13,5.01,3.44,11.48,1.04,17.1,1.94,3.16,1.52,6.38,2.9,9.47,4.6,0.76,2.61-0.99,4.54-2.73,6.17,0.89,1.55,2.06,2.9,3.16,4.31,3.28,0.86,6.86,0.33,9.97,1.9,3.02,0.92,4.98,3.91,8.29,4.13-0.08,4.31,4.33,6.19,7.68,7.87,4.64-1.1,5.77,4.87,10.41,3.74,0.02,1.21-1.01,2.79,0.51,3.47,4.3,1.7,8.6-0.41,12.81-1.39,1.88,0.18,3.88,0.54,5.04-1.35,2.99,2.1,5.12,5.62,9.2,5.86,1.64,1.12,3.36,2.16,5.43,1.66-0.15,4.02,3.59,6.18,6.19,8.56,2.91,1.78,4.47,5.72,8.56,5.44,1.13,1.65,1.86,3.85,4.05,4.33,3.77,4.74,7.32,9.75,12.03,13.63,1.1,0.97-0.32,2.42-0.48,3.54h-31.61c0.61-1.32,1.87-1.91,3.11-2.51,0.13-1.61,2.27-4.27,0.07-5.1-4.67,0.88-8.16-2.07-11.42-4.74-4.14-9.69,5.33-0.36,6.82-5.46-5,0.22-8.26-3.68-12.09-6.2-2.42-1.57-2.8-7.41-6.5-5.59-2.41,5.33-9.25-0.88-8.96-5.05-0.15-4.3-4.78-0.75-7.38-1.37-1.64-2.38-1.59-5.52-3.33-7.83-4.52,1.11-8.41-1.93-12.36-3.63-2.25-2.37-4.09-5.15-6.73-7.1-2.53,0.47-4.53-1.13-6.72-2.04-1.54,0.16-3.08,0.69-4.63,0.44-0.47-1.23-0.85-2.49-1.4-3.68-4.05,2.78-9.43,2-13.89,0.69-0.02-0.43-0.06-1.3-0.08-1.73,3.41-2.55,7.07-4.77,10.98-6.48-1.61-1.84-4.6-2.84-3.4-5.78-1.64,0.27-3.02,1.2-4.5,1.89-1.9-0.93-2.7-4.28-5.19-2.94-4.76,1.68-10.5-1.62-14.02,3.05-4.59-2.4-6.88,2.42-9.7,5.24-2.21-3.11-5.22-5.71-9.1-6.32-0.49-2.2-0.36-4.42-0.19-6.63-1.14-2.02-5.09-2.87-3.64-5.82z"/>
<path fill="#d2baa6" d="m117.2,126.1c3.44-3.55,8.32-5.29,12.82-7.16,0.21,2-1.13,3.51-1.98,5.17,0.95,2.4,3.9,3.36,5.21,5.6-0.6-0.11-1.8-0.32-2.4-0.43-0.94,3.61,3.69,5.21,2.62,8.72,2.1,3.93,2.45,9.29-1.56,12.01,3.78,4.54,4.5,10.84,8.96,14.97-1.7,3.19-2.71,7.04-6.32,8.59-0.76,2.75-4.62,4.94-2.35,7.8,0.24,3.94,0.9,9.84-3.71,11.26-1.47,3.59-4.5,5.24-8.3,5.26-1.13-1.45-2.15-2.98-3.03-4.59,1.75-1.53,4.43-2.5,3.28-5.88,0.47-3.62,1.88-6.96,2.59-10.49-2.05,0.61-3.75,2.26-5.98,2.21-2.12-1.94-3.47-4.7-6.06-6.1-2.44,1.16-4.65,2.72-7.07,3.92-3.36-0.41-2.29-6.6-6.06-5.95,1.43,4.55,8.58,12.9-1.32,12.74-3.51,2.84-7.5,4.98-10.72,8.09-3.95,0.73-3.7,4.94-5.17,7.79-3.91,1.18-7.66,2.88-10.01,6.41h-11.07c0.45-0.97,0.94-1.91,1.48-2.83,1.82,0.44,4.3,3.02,5.68,0.6,2.51-4.03,7.44-6.78,8.3-11.74,0.72-2.34,2.59-4.01,3.94-5.97-2.32-2.11-4.08-4.73-6.32-6.91-4.67-2.54-7.24,2.69-11.65,2.08-4.63,0.75-9.02-2.52-13.63-2.03-0.37,2.94-2.59,4.54-5.42,4.77-3.59,0.2-3.93,4.99-7.29,5.68-6.3,2.03-11.19,4.322-16.61,8.312-0.32,2.85,0.3868,5.267-0.6932,7.997l-17.54,0.006,0.01069-17.59c4.253-1.1,7.879-3.7,11.2-6.3,3.32,1.61,6.64,3.21,10.03,4.65,2.91-1.52,5.92-2.78,8.96-3.99,2.31-3.97-1.69-6.17-1.71-9.6,4.06-2.49,8.96-2.74,13.6-2.47,3.58-0.9,6.98-2.74,10.78-2.32,3.89-1.55,7.92-2.79,12.12-3.21,3.09,2.84,7.31,0.16,10.83,0.32,2.9-1.56,5.83-3.56,9.3-2.88,2.4,0.2,3.07-1.47,2.34-3.51,3.61-3.23,9.5,4.16,11.78-1.14-1.88-3.01-3.99-5.89-6.38-8.5-2.68-0.72-4.4-3.63-4.48-6.25,7.09-4.23,15.21-7.71,23.64-6.43,1.55-1.9,1.04-4.6,2.21-6.69,1.73,0.53,3.42,1.16,5.15,1.7-0.32-2.03-1.26-3.87-1.94-5.8m-8.9,13.5c-2.36,0.52-5.76-0.63-6.77,2.09-2.24,1.94-5.23,4.02-5.5,7.18,2.76,2.16,6.32,2.79,9.67,3.47,2.93,4.05,8.2,6.2,9.62,11.32,3.13,0.13,4.13,2.6,3.79,5.39,2.02,0.49,3.34-1.1,4.86-2.06,2.12,1.18,3.86,2.99,6.05,4.05,2.27-0.08,3.91-2.16,5.83-3.21,0.04-1.96-1.36-3.62-2.11-5.36-2.31,0.62-3.56-2.03-5.51-2.8-0.88-2.48,1.39-6.87-2.32-6.92,1.32-1.05,3.61-1.55,3.08-3.72-1.19-0.25-4.41,2.25-4.03,0.02-0.93-3.57,5.36-3.15,3.88-6.79-1.62-1.05-3.11-2.44-4.94-3.08-5.19,0.38-10.41,0.22-15.6,0.42z"/>
<path fill="#8f7765" d="m310.7,124.3c1.27,0.26,2.27-0.68,3.37-1.14-0.3,1.34-0.65,2.67-0.95,4.01-4.21,4.39-6.86,9.85-6.91,16.04,0.1,1.5,0.31,4.49,0.41,5.99,0.02,0.4,0.04,1.2,0.06,1.6-1.09,4.39,1.35,8.22,2.19,12.35-8.45-1.94-10.7-12.1-13.21-19.35,0.51-5.34,4.89-9.51,8.86-12.74,2.64-1.6,4.05-4.59,6.18-6.76z"/>
<path fill="#baa288" d="m441,124c4.41-0.2,8.51,1.59,11.79,4.43,0.94,1.41,4.87,2.15,3.21,4.06-5.11-1.84-10.3-3.58-14.88-6.6-0.03-0.48-0.09-1.42-0.12-1.89z"/>
<path opacity="0.28999999" fill="#000000" d="m292.8,129.2c2.83-0.08,5.69-0.16,8.47,0.59-2.83,0.15-5.69-0.21-8.47-0.59z"/>
<path fill="#c9b3a2" d="m346.2,132.2c2.42-3.15,5.69-0.95,8.63-0.23,1.18,1.61,2.23,3.31,3.45,4.89,3.93-0.39,8.64-2.59,5.9,5.21,3.41,0.61,3.8-3.39,5.46-5.43,1.19-0.91,2.36-1.84,3.45-2.88,3.88,0.61,6.89,3.21,9.1,6.32-0.67,1.12-1.17,2.34-1.38,3.63,1.36-0.26,2.71-0.56,4.09-0.73-2.27,5.43,2.61,10.5,1.36,15.96,0.29,5.25,9.63,5.3,6.68,11.88-0.26,0.32-0.78,0.97-1.04,1.29-5.49,0.57-8.12,6.48-12.16,9.6-1.72,1.41-3.38,3.21-2,5.49-2.11-0.94-4.17-2.08-6.48-2.45-3.855,0.5174-6.95,0.3451-10.48-0.48-4.08-0.24-7.94-1.68-11.66-3.27-2.48-2.51-5.93-3.41-8.93-5.05,4.09-6.98,5.2-15.22,5.31-23.16-0.38-1.72-1.69-3.62,0.36-4.78-1.4-1.9-3.69-3.61-2.32-6.63-0.06-3.33-0.8-7.18,2.66-9.18m28.04,14.14c-3.34,1.39-5.44,4.56-8.08,6.87-0.76,1.9,1.27,3.03,2.78,2.07,1.08,6.05,1.54,12.31,2.31,18.47,1.55,1.59,4.84,5.55,3.73-1.74,1.45-6.65,3.61-13.2,4.02-20.03-2.34-0.71-2.77,1.03-4.06,2.08-0.3-2.27,2.49-7.4-0.7-7.72z"/>
<path fill="#d1b8a6" d="m405.9,131.8c2.49-1.34,3.29,2.01,5.19,2.94,1.48-0.69,2.86-1.62,4.5-1.89-1.2,2.94,1.79,3.94,3.4,5.78-3.91,1.71-7.57,3.93-10.98,6.48,0.02,0.43,0.06,1.3,0.08,1.73,4.46,1.31,9.84,2.09,13.89-0.69,0.55,1.19,0.93,2.45,1.4,3.68,1.55,0.25,3.09-0.28,4.63-0.44,2.19,0.91,4.19,2.51,6.72,2.04,2.64,1.95,4.48,4.73,6.73,7.1,3.95,1.7,7.84,4.74,12.36,3.63,1.74,2.31,1.69,5.45,3.33,7.83,2.6,0.62,7.23-2.93,7.38,1.37-0.29,4.17,6.55,10.38,8.96,5.05,3.7-1.82,4.08,4.02,6.5,5.59,3.83,2.52,7.09,6.42,12.09,6.2-1.49,5.1-10.96-4.23-6.82,5.46,3.26,2.67,6.75,5.62,11.42,4.74,2.2,0.83,0.06,3.49-0.07,5.1-1.24,0.6-2.5,1.19-3.11,2.51h-12.34c0.97-2.91,1.05-7.9-2.74-8.52,2.02-5.44-2.57-3.66-4.67-5.32-4.44-2.62-8.29-6.6-9.21-11.82-1.19-3.59-4.84-1.57-7.5-1.34-0.24-2.33,1.78-5.49-0.69-7.09-0.44,1.07,0.07,3.38-1.77,2.66-5.34-1.07-10.3,1.91-15.68,1.42,3.15-1.76,2-6.54,5.59-7.46-0.39-2.24,2.7-4.83,0.3-6.39-3.1-0.83-2.8,3.81-3.94,5.71-2-2.68-5.6-3.37-7.05-6.56-1.7,0.97-3.42,2.04-5.47,1.79,0.65-3.8,0.38-8.02-2.61-10.78-1.81-0.46-3.63-0.95-5.49-1.13-2.65,1.79-3.28,6.53-7.14,5.89,0.42-2.48,2.21-6.38-2-5.02-1.17,5.58,0.72,10.67,0.35,16.19,0.26,3.43,3.13,0.64,3.87-1.07,1.48-0.03,2.85,0.68,4.2,1.23,1.25,3.23,3.2,6.09,6.19,7.94,0.11,0.4,0.34,1.22,0.46,1.63-4.77,0.06-9.42-1.09-13.28-3.89-3.46,0.38-7.76,0.77-9.99,3.79-0.78,0.94-1.19,2.12-1.77,3.18-0.2-1.62-2.6-7.23-3.32-3.3-2.13-1.71-4.64-3.09-5.91-5.63,0.26-0.32,0.78-0.97,1.04-1.29,2.95-6.58-6.39-6.63-6.68-11.88,1.25-5.46-3.63-10.53-1.36-15.96-1.38,0.17-2.73,0.47-4.09,0.73,0.21-1.29,0.71-2.51,1.38-3.63,2.82-2.82,5.11-7.64,9.7-5.24,3.52-4.67,9.26-1.37,14.02-3.05z"/>
<path fill="#d7beaa" d="m108.3,139.6c5.19-0.2,10.41-0.04,15.6-0.42,1.83,0.64,3.32,2.03,4.94,3.08,1.48,3.64-4.81,3.22-3.88,6.79-0.38,2.23,2.84-0.27,4.03-0.02,0.53,2.17-1.76,2.67-3.08,3.72,3.71,0.05,1.44,4.44,2.32,6.92,1.95,0.77,3.2,3.42,5.51,2.8,0.75,1.74,2.15,3.4,2.11,5.36-1.92,1.05-3.56,3.13-5.83,3.21-2.19-1.06-3.93-2.87-6.05-4.05-1.52,0.96-2.84,2.55-4.86,2.06,0.34-2.79-0.66-5.26-3.79-5.39-1.42-5.12-6.69-7.27-9.62-11.32-3.35-0.68-6.91-1.31-9.67-3.47,0.27-3.16,3.26-5.24,5.5-7.18,1.01-2.72,4.41-1.57,6.77-2.09z"/>
<path fill="#c6b4a1" d="m42.15,148.3c2.22-1.62,4.5-3.16,6.59-4.94,1.01,1.64,1.91,3.37,3.18,4.84,2.55-5.23,9.38-3.46,14.06-4.19,3.93-2.9,5.96,1.15,5.87,3.78-2.07,2.75-5.78,2.4-8.73,3.47,0.06,1.86,0.44,3.7,0.5,5.57-2.23,1.68-5.07,2.68-6.75,5.01,3.76,0.64,7.57,0.96,11.37,1.36-0.07,1.98-1.99,1.81-3.45,2.05-4.2,0.42-8.23,1.66-12.12,3.21-3.8-0.42-7.2,1.42-10.78,2.32-4.64-0.27-9.54-0.02-13.6,2.47,0.02,3.43,4.02,5.63,1.71,9.6-3.04,1.21-6.05,2.47-8.96,3.99-3.39-1.44-6.71-3.04-10.03-4.65-3.32,2.63-6.944,5.26-11.14,6.19l-0.01354-8.026c8.736-4.5,17.1-10.1,26.21-13.5,0.42-0.12,1.25-0.34,1.67-0.45-1.81-10.06,10.75-9.13,16.22-12.82-0.09-2.02-2.52-3.4-1.81-5.55z"/>
<path opacity="0.97000002" fill="#776154" d="m298.4,159.7c-3.67-4.39-3.97-10.54-2.72-15.92,2.51,7.25,4.76,17.41,13.21,19.35-0.84-4.13-3.28-7.96-2.19-12.35,2.78,4.8,5.1,10.15,9.51,13.72-6.3,1.74-14.9-0.9477-17.81-4.8z"/>
<path fill="#c3af9f" d="m374.2,146.3c3.19,0.32,0.4,5.45,0.7,7.72,1.29-1.05,1.72-2.79,4.06-2.08-0.41,6.83-2.57,13.38-4.02,20.03,1.11,7.29-2.18,3.33-3.73,1.74-0.77-6.16-1.23-12.42-2.31-18.47-1.51,0.96-3.54-0.17-2.78-2.07,2.64-2.31,4.74-5.48,8.08-6.87z"/>
<path fill="#8c6d59" d="M185.5,145.1c6.3,3.8,11.9,12.7,11.6,18.8-0.2509,2.208-0.4474,2.618-1.308,4.612-1.85,3.761-6.582,8.09-10.95,10.37-2.24,0.73,0.9496-1.901-0.0504,0.009-0.89,0.49-1.83,0.9-2.79,1.22,6.86-8.91,13.25-27.16,0.8875-35.05,2.552-0.0131-0.005-0.029,2.581,0.0142z"/>
<path fill="#b69079" d="m176.2,148.8c3.27,2.73,3.04,7.21,3.85,11.02,0.12,2.51-0.1,4.97-0.67,7.39-0.7-6.2-2.21-12.26-3.18-18.41z"/>
<path fill="#d3bcaa" d="m420.2,151.2c1.86,0.18,3.68,0.67,5.49,1.13,2.99,2.76,3.26,6.98,2.61,10.78,2.05,0.25,3.77-0.82,5.47-1.79,1.45,3.19,5.05,3.88,7.05,6.56,1.14-1.9,0.84-6.54,3.94-5.71,2.4,1.56-0.69,4.15-0.3,6.39-3.59,0.92-2.44,5.7-5.59,7.46,5.38,0.49,10.34-2.49,15.68-1.42,1.84,0.72,1.33-1.59,1.77-2.66,2.47,1.6,0.45,4.76,0.69,7.09,2.66-0.23,6.31-2.25,7.5,1.34,0.92,5.22,4.77,9.2,9.21,11.82,2.1,1.66,6.69-0.12,4.67,5.32,3.79,0.62,3.71,5.61,2.74,8.52h-41.36c-0.11-1.21-0.11-2.42-0.22-3.62-1.29-1-3.74-1.1-3.61-3.19,0.73-0.07,2.2-0.22,2.93-0.29-3.51-2.61-3.65-7.06-2.93-10.99-4.29,2.19-9,2.6-13.63,0.79-5.17-5.25-10.89-14.01-19.45-10.84,2.23-3.02,6.53-3.41,9.99-3.79,3.86,2.8,8.51,3.95,13.28,3.89-0.12-0.41-0.35-1.23-0.46-1.63-2.99-1.85-4.94-4.71-6.19-7.94-1.35-0.55-2.72-1.26-4.2-1.23-0.74,1.71-3.61,4.5-3.87,1.07,0.37-5.52-1.52-10.61-0.35-16.19,4.21-1.36,2.42,2.54,2,5.02,3.86,0.64,4.49-4.1,7.14-5.89z"/>
<path opacity="0.95" fill="#8d6f5a" d="m180.1,159.9c4.34,2.53,0.5,8.35-0.49,11.84-1.36,2.86-3.77,9.44,1.63,8.72-2.56,1.38-5.17-0.25-7.48-1.32,2.74-3.48,4.52-7.6,5.67-11.85,0.57-2.42,0.79-4.88,0.67-7.39z"/>
<path opacity="0.93000034" fill="#704f40" d="m188.6,151.4c0.99,0.24,5.86,0.4321,8.023,10.94,1.331,5.367-6.064,13.32-11.79,16.54,1-1.91,7.351-8.991,7.184-17.8-0.6155-4.879-0.7073-5.253-3.413-9.681z"/>
<path fill="#c7b5aa" d="m379.7,181.7c4.04-3.12,6.67-9.03,12.16-9.6,1.27,2.54,3.78,3.92,5.91,5.63,0.72-3.93,3.12,1.68,3.32,3.3-0.34,2.03-1.86,5.14,0.46,6.39,3.32,1.86,3.59,9-1.3,8.87,0.28,1.55,2.45,3.41,0.58,4.62-1.72-0.55-2.42-2.59-3.59-3.85,0.09,2.58-2.1,3.39-4.06,4.31-0.35,1.59,0.6529,3.171,1.003,4.691l-1.72,0.0715c-3.5-7.1-9.2-13.3-14.8-18.9-1.38-2.28,0.28-4.08,2-5.49z"/>
<path fill="#d0bdb0" d="m402.9,177.9c8.56-3.17,14.28,5.59,19.45,10.84,4.63,1.81,9.34,1.4,13.63-0.79-0.72,3.93-0.58,8.38,2.93,10.99-0.73,0.07-2.2,0.22-2.93,0.29-0.13,2.09,2.32,2.19,3.61,3.19,0.11,1.2,0.11,2.41,0.22,3.62l-46.66,0.0715c-0.35-1.52-0.2813-3.101,0.0687-4.691,1.96-0.92,4.15-1.73,4.06-4.31,1.17,1.26,1.87,3.3,3.59,3.85,1.87-1.21-0.3-3.07-0.58-4.62,4.89,0.13,4.62-7.01,1.3-8.87-2.32-1.25-0.8-4.36-0.46-6.39,0.58-1.06,0.99-2.24,1.77-3.18z"/>
<path fill="#d7bfad" d="m47.41,179.2c4.61-0.49,9,2.78,13.63,2.03,4.41,0.61,6.98-4.62,11.65-2.08,2.24,2.18,4,4.8,6.32,6.91-1.35,1.96-3.22,3.63-3.94,5.97-0.86,4.96-5.79,7.71-8.3,11.74-1.38,2.42-3.86-0.16-5.68-0.6-0.54,0.92-0.4934,1.854-0.9434,2.824l-44.95-0.0343c1.08-2.73,0.8563-5.75,1.176-8.6,5.42-3.99,12.03-5.68,18.33-7.71,3.36-0.69,3.7-5.48,7.29-5.68,2.83-0.23,5.05-1.83,5.42-4.77z"/>
<path fill="#caaf9a" d="m99.68,192.7c2.95-1.89,5.38-4.44,8.11-6.61,4,2.44-0.03,6.93-0.25,10.34-3.56,5.3,3.86,5.33,3.82,9.6h-31.81c3.66-4.73,5.99-11.34,12.12-13.33,2.51-1.09,5.38,0.56,8.01,0z"/>
</g>
</g>
</g>
</g>
</svg>
