<!-- Created with Inkscape (http://www.inkscape.org/) -->
<svg xmlns:rdf="http://www.w3.org/1999/02/22-rdf-syntax-ns#" xmlns="http://www.w3.org/2000/svg" height="171.8" width="2360" version="1.1" xmlns:cc="http://creativecommons.org/ns#" xmlns:dc="http://purl.org/dc/elements/1.1/">
<defs></defs>
<metadata>
<rdf:RDF>
<cc:Work rdf:about="">
<dc:format>image/svg+xml</dc:format>
<dc:type rdf:resource="http://purl.org/dc/dcmitype/StillImage"/>
<dc:title/>
</cc:Work>
</rdf:RDF>
</metadata>
<g transform="translate(0.00583588,-881.05464)">
<g transform="translate(-0.00853,752.61727)">
<g transform="translate(0,-752.36218)">
<g transform="matrix(1.25,0,0,1.25,-0.02355018,795.03059)">
<path fill="#201b14" d="m0.1101,300.2,26.16-0.009c2.338-6.375,7.097-10.93,11.57-15.83,13.56-15.56,18.6-31.07,35.06-43.48-0.04595-2.82-0.3278-3.3-0.5312-5.397-45.38,0.6982-49.22,0.6934-72.25-6.854,0.1441,20.55-0.01282,38.96-0.01565,71.57z" transform="matrix(0.8,0,0,0.8,-0.06710916,-34.326504)"/>
<path fill="#707063" d="m634.2,154.7c406.1-2.564,782.3-7.615,1165,34.39,20.8,2.73,41.65,5.68,61.98,11.01,5.62,1.47,11.43,2.85,16.45,5.93,0,0-1857-0.7187-1857-0.2847,9.881-20.72,23.37-36.71,37.07-47.24,5.2-4.5,356.8-9,577.1-3.8z"/>
<path fill="#201b14" d="m1888,168.2,0,37.79-10.88-0.0199c-5.02-3.08-10.83-4.46-16.45-5.93-20.33-5.33-41.18-8.28-61.98-11.01-385-39.5-1728-34-1741-30.6-34.73,6.658-15.53-4.804,0.07067-4.334,463.1-11.73,1423-4.794,1731,22.23,48.72,4.943,64.53,3.807,100.1-8.121z"/>
</g>
</g>
<g transform="translate(0,-752.36218)"></g>
</g>
</g>
</svg>
