<!-- Created with Inkscape (http://www.inkscape.org/) -->
<svg xmlns:rdf="http://www.w3.org/1999/02/22-rdf-syntax-ns#" xmlns="http://www.w3.org/2000/svg" height="1043" width="1043" version="1.1" xmlns:cc="http://creativecommons.org/ns#" xmlns:dc="http://purl.org/dc/elements/1.1/">
<metadata>
<rdf:RDF>
<cc:Work rdf:about="">
<dc:format>image/svg+xml</dc:format>
<dc:type rdf:resource="http://purl.org/dc/dcmitype/StillImage"/>
<dc:title/>
</cc:Work>
</rdf:RDF>
</metadata>
<g transform="matrix(0.14991968,0,0,0.14992813,-0.00171009,749.354)">
<path fill="#2e3810" d="m6718.98,1297.22-157.284-11.1464-143.607-3.7154-133.349,7.4309-90.6089,5.5732-148.735,16.7195-105.996,13.0041-104.286,24.1505-131.639,31.5814c18.2458,121.11,960.139,50.4652,1203.56,44.5855l-143.607-105.891"/>
</g>
<g transform="matrix(0.14991968,0,0,0.14992813,-0.00171009,749.3533)">
<g transform="matrix(1.35,0,0,1.35,5764.1491,448.90895)">
<path d="M22.93,122.35c234.55-40.6,469.04-81.47,703.59-122.05,4.67,222.88,9.41,445.76,14.11,668.65,0.2,8.71,0.27,17.43,0.77,26.13-0.17,1.19,0.72,4.05-1.41,3.77-18.67-0.83-37.32-2.28-55.97-3.34-39.19-2.54-78.42-4.63-117.58-7.47-3.01-0.18-6.01-0.28-9-0.41-5.87-0.32-11.74-0.57-17.6-0.95-3.22-0.21-6.45-0.37-9.66-0.47-47.75-2.15-95.44-5.19-143.14-8.02-19.62-1.72-39.3-2.97-58.99-3.36-45.77-2.38-91.54-5.03-137.31-7.43-2.8-0.15-5.6-0.36-8.39-0.55-12.26-0.6-24.54-1.21-36.81-1.28-2.51,0.28-4.99,0.76-7.49,1.11-2.74,0.61-4.89-1.47-6.7-3.17-43.46-2.04-86.95-3.69-130.4-5.86-0.16-0.39-0.47-1.17-0.62-1.56,5.67-135.34,11.52-270.69,17.27-406.03,1.74-42.57,3.76-85.13,5.33-127.71m676.29-107.35c-9.96,10.07-19.14,20.93-29.14,30.98,6.66-0.7,13.25-1.95,19.92-2.63,0.3,4.25,0.13,8.54,0.75,12.76,2-1.47,3.27-3.66,4.81-5.57,6.56-8.42,13.08-16.88,19.71-25.26,3.72-3.73,1.25-9.32,1.37-13.93-5.76,1.4-11.74,1.93-17.42,3.65m-67.58,12.25c9.13,6.61,18.6,12.73,27.86,19.16,2.09,2.01,4.94,0.81,7.43,0.54,9.06-10.87,19.35-20.65,28.64-31.31-21.33,3.72-42.62,7.72-63.93,11.61m59.22,32.72c0.09,1.92,0.2,3.84,0.32,5.76,9.06,8.27,17.55,17.18,26.86,25.16-0.13-21.49-0.31-42.98-0.79-64.46-9.12,10.92-17.53,22.41-26.39,33.54m-92.78-26.93c-8.59,9.39-17.42,18.56-25.89,28.05,28.41-3.92,56.75-8.34,85.14-12.4-8.28-6.51-17.16-12.23-25.63-18.5-1.47-0.87-2.91-2.55-4.79-2.04-9.62,1.57-19.23,3.23-28.83,4.89m-61.95,10.64c8.31,6.84,17.26,12.87,25.81,19.41,1.86-0.22,3.73-0.45,5.6-0.66,8.63-9.46,17.28-18.9,25.79-28.46-19.08,3.13-38.15,6.36-57.2,9.71m-11.87,3.73c-7.37,8.4-14.97,16.6-22.27,25.05,18.8-2.92,37.64-5.6,56.43-8.6-8.21-6.73-16.9-12.87-25.31-19.36-3.01,0.66-6.9-0.04-8.85,2.91m-56.14,7.83c7.79,6.48,16.02,12.41,23.93,18.75,1.73-0.22,3.51-0.32,5.21-0.78,2.52-1.78,4.3-4.38,6.45-6.56,6.15-6.84,12.65-13.37,18.56-20.42-18.06,2.93-36.1,6-54.15,9.01m200.47,1.36c0.58,2.05,1.19,4.08,1.87,6.1-45.86,7.2-91.74,14.37-137.64,21.32,1.14-0.21,2.27-0.43,3.41-0.67-0.28-2.02-0.56-4.04-0.83-6.06-13.01,1.84-25.97,4.08-38.99,5.84-0.01,1.96,0.01,3.92,0.05,5.88,11.9-1.6,23.76-3.56,35.7-4.89-158.5,24.82-317.07,49.19-475.59,73.89,0.47-1.59,0.33-3.24,0.23-4.87-0.97,0.25-1.93,0.54-2.87,0.89-1.11,1.8-0.58,4.13-0.88,6.15,0.81-0.11,2.42-0.33,3.23-0.45-0.16,1.78-0.24,3.56-0.3,5.34l-0.2-1.19c-0.76,0.49-2.29,1.46-3.06,1.95-0.14,8.78-0.75,17.55-0.72,26.34,0.93,0.3,1.86,0.57,2.81,0.81,0.71-8.03,0.6-16.09,1.13-24.12-1.24,42.4-2.52,84.8-3.86,127.2,0.01-8.93,0.39-17.85,0.4-26.77-1.41,0.14-2.83,0.29-4.25,0.46-0.4,11.25-0.92,22.49-1.35,33.74,1.68-0.12,3.35-0.25,5.02-0.37-0.2,6.65-0.49,13.3-0.89,19.94,0.01-5.14,0.18-10.27,0.37-15.4-1.5,0.07-2.99,0.14-4.49,0.22-0.43,10.87-0.85,21.74-1.26,32.61,1.54,0,3.07-0.01,4.61-0.01,0.3-5.2,0.26-10.42,0.69-15.61-0.53,14.07-1.19,28.14-1.9,42.21,0.06-7.37,0.55-14.73,0.67-22.1-1.48,0.13-2.96,0.26-4.43,0.4-0.53,11.66-1.02,23.32-1.5,34.98,1.56,0.05,3.12,0.1,4.69,0.15,0.03-3.89,0.21-7.77,0.49-11.65-0.22,6.4-0.52,12.8-0.86,19.19,0.02-0.88,0.04-2.65,0.06-3.53-1.54,0.03-3.07,0.06-4.6,0.09-0.5,11.83-0.88,23.66-1.28,35.49h4.29c0.1-1.42,0.21-2.82,0.29-4.22-0.21,5.39-0.46,10.78-0.79,16.17,0.07-2.65,0.15-5.29,0.28-7.93-1.42,0.07-2.84,0.14-4.26,0.21-0.34,11.43-0.91,22.85-1.33,34.28,0.83-0.12,2.49-0.36,3.32-0.48,0.17-1.15,0.46-2.27,0.87-3.35-0.18,5.42-0.58,10.83-0.86,16.25,0.07-2.89,0.14-5.78,0.28-8.66-0.93-0.01-2.77-0.05-3.69-0.07-0.53,12.05-0.92,24.11-1.43,36.16l2.51,0.27c0.33-1.33,0.64-2.67,1.08-3.96,0.08,5.11-0.53,10.2-0.76,15.31,0.07-2.42,0.13-4.83,0.22-7.24-1.09-0.23-2.18-0.45-3.28-0.66-0.48,11.65-0.93,23.3-1.37,34.95,0.65-0.03,1.96-0.1,2.61-0.13-0.06,1.31-0.09,2.63-0.11,3.96-0.66-0.15-1.97-0.45-2.63-0.6-0.29,12.89-1.16,25.78-1.06,38.68l2.02-0.76c-0.37,1.36-0.47,2.86-1.34,4.05-0.62-0.12-1.86-0.35-2.47-0.46l0.75,1.96c0.21,8.06-0.52,16.13-0.47,24.19-0.03,1.25,0.4,2.33,1.32,3.25-0.12,1.13-0.24,2.26-0.37,3.4l-1.53-0.97c-0.06,2.34-0.1,4.7-0.12,7.05,0.64,0,1.93-0.01,2.57-0.01,0.2-0.66,0.39-1.31,0.59-1.94-0.27-0.35-0.8-1.06-1.07-1.41,16.92-0.27,33.82-1.79,50.73-0.48-5.72-0.03-11.43-0.25-17.15-0.26-0.09,1.48-0.18,2.97-0.26,4.47,9.89,0.17,19.78,0.37,29.67,0.48-0.08-0.93-0.24-2.8-0.32-3.74-2.27-1.36-4.97,0.63-7.22-0.8,7.76-0.03,15.5,0.66,23.26,0.85-3.97-0.04-7.93-0.16-11.9-0.19-0.04,1.38-0.08,2.77-0.12,4.17,9.92,0.36,19.83,0.88,29.75,1.19,0.07-1.53,0.13-3.04,0.2-4.55,1.35,0.04,2.7,0.09,4.05,0.16,0,1.66,0.02,3.34,0.04,5.03,0.53-0.01,1.6-0.04,2.14-0.05,2.32,0.07,4.64,0.15,6.96,0.23,6.7,0.11,13.4,0.02,20.1,0.22,0.09-1.52,0.19-3.04,0.28-4.55,1.23,0.03,2.45,0.07,3.68,0.11,0,1.57-0.01,3.15,0,4.74,4.57,0.11,9.13,0.46,13.7,0.72,2.94,0.14,5.89,0.17,8.83,0.12l0.02,0.23c3.7,0.34,7.42,0.59,11.13,0.84-0.01-1.91-0.02-3.8-0.03-5.68,1.49,0.03,2.99,0.08,4.48,0.14-0.28,1.68-0.56,3.37-0.84,5.06,6.11,0.82,12.3,0.54,18.44,0.91,4.71-0.01,9.45,0.71,14.14,0.21,0.3-1.73,0.31-3.5,0.43-5.23,1.44,0.03,2.88,0.08,4.33,0.13,0.35,2.02-1.03,5.96,2.15,5.99,10.43,0.4,20.88,0.6,31.32,0.88,0.4-1.93,0.6-3.89,0.72-5.84,1.25,0.02,2.5,0.05,3.75,0.1,0.02,2.14,0.13,4.28,0.36,6.41,11.78,0.3,23.56,0.73,35.33,1.1,0.01-2.03,0.02-4.06,0.03-6.08-2.21-0.13-4.41-0.27-6.61-0.37,8.05,0.31,16.11,0.5,24.16,0.95-4.42-0.04-8.83-0.15-13.24-0.36-0.1,1.5-0.2,3.01-0.32,4.53,0.98,0.91,1.88,2.28,3.44,2.03,9.98,0.32,19.97,0.71,29.96,1.02,0.22-2.11,0.46-4.21,0.69-6.3-6.59-0.39-13.2-0.38-19.78-0.89,18.08,0.51,36.15,1.24,54.23,1.93-10.13-0.03-20.25-0.64-30.38-0.64,0.15,2.02,0.36,4.04,0.62,6.07,13.11,0.53,26.22,1.16,39.33,1.72-0.03-2.23-0.07-4.47-0.11-6.7-2.21-0.12-4.42-0.25-6.63-0.35,7.42,0.23,14.83,0.46,22.24,0.84-3.73,0.04-7.44-0.01-11.16-0.11-0.06,2.2-0.08,4.42-0.06,6.64,2.05,0.03,4.11,0.05,6.17,0.08,2.67-2.09,5.35-4.17,7.77-6.54,7.46,0.21,14.91,0.49,22.36,0.83-5.77,0-11.54-0.33-17.31-0.39-2.65,2.12-5.32,4.21-7.98,6.33,8.54,0.33,17.08,0.71,25.62,0.97,0.15-2.31,0.31-4.6,0.46-6.9,1.43,0.03,2.88,0.07,4.32,0.12-0.04,2.3-0.07,4.6-0.08,6.91,13.8,0.89,27.64,1.18,41.45,1.81,0.11-2.37,0.22-4.74,0.34-7.1,1.84087-1.37876,2.81381-1.8258,4.9,0.47-0.12,2.31-0.17,4.63-0.16,6.96,15.0717,0.12091,28.6021,2.02293,41.82,1.7,0.05-2.31-0.002-5.47142,0.0884-7.77142,0.74,0.02,2.94978-0.31489,3.20326,0.31327,0.29,2.56-0.54163,6.13815,1.22837,8.30815,11.1582,0.844,13.0413,0.7896,26.9138,1.2,6.57,0.13,9.13618,0.22,15.6962,0.71,0.17971-5.32738,0.11965-6.55221-0.0479-8.37837,32.25,1.2,65.8379,2.22837,98.0879,3.44837-1.19-118.21-2.5-236.41-3.66-354.62,0.07,3.11,0.14,6.22,0.19,9.33,2.39-0.37,4.79-0.73,7.19-1.08-0.18-13.82-0.43-27.64-0.76-41.45-2.18-0.06-4.35-0.12-6.52-0.18-0.4,7.17,0.03,14.35-0.22,21.52-0.36-28.05-0.61-56.09-0.9-84.13,0.06,3.19,0.13,6.38,0.22,9.58,2-0.24,4.02-0.47,6.04-0.7-0.14-14.92-0.61-29.83-0.78-44.74-1.95,0.4-3.89,0.81-5.82,1.24-0.02-0.79-0.05-2.38-0.06-3.17,2.11-0.71,4.22-1.41,6.34-2.12-0.07-13.05-0.19-26.1-0.24-39.16-2.09,0.25-4.17,0.52-6.24,0.78,0,3.54-0.07,7.08-0.13,10.62-0.17-8.77-0.25-17.54-0.28-26.31,0.1,3.96,0.16,7.93,0.1,11.9,2.29-0.54,4.59-1.05,6.89-1.57-0.05-12.08-0.28-24.16-0.32-36.25-2.33,0.32-4.63,0.65-6.94,1.03-0.03-1.34-0.04-2.68-0.04-4.02,2.15-0.57,4.29-1.17,6.44-1.77-0.08-2.49-0.16-4.98-0.24-7.48-3.82,0.54-7.63,1.12-11.41,1.83m-265.819,10.05c7.47,6.54,15.52,12.4,23.2,18.7,2.11-0.42,4.44-0.75,5.73-2.69,7.39-8.48,15.31-16.52,22.43-25.22-17.11,3.09-34.26,6.02-51.36,9.21m54.91-8.01c-7.44,8.26-15.12,16.3-22.45,24.64,17.67-2.7,35.32-5.54,52.96-8.42-7.94-6.42-16.19-12.43-24.19-18.78-2.22,0.53-4.87,0.51-6.32,2.56m174.45,3.95c-0.04,1.84-0.05,3.69-0.05,5.53,11.17-1.67,22.34-3.42,33.52-5.1-0.44-2.01-0.74-4.06-1.45-6-10.72,1.57-21.32,3.88-32.02,5.57m-48.36,7.22c-0.05,1.81-0.1,3.62-0.13,5.44,14.57-2.07,29.12-4.18,43.69-6.23-0.01-1.94-0.03-3.88-0.03-5.82-14.53,2.08-29.04,4.25-43.53,6.61m-192.36,0.62c-6.55,7.86-13.43,15.46-19.85,23.43,17.17-2.57,34.29-5.43,51.45-8.07-7.69-6.26-15.46-12.45-23.35-18.45-2.94-0.25-6.49,0.43-8.25,3.09m-51.03,6.82c6.76,5.72,13.81,11.08,20.69,16.65,2.14,2.08,5.8,0.82,7.38-1.39,6.8-8.1,14.25-15.67,20.72-24.04-16.27,2.92-32.54,5.79-48.79,8.78m350.18-9.11c0.08,12.6-0.55,25.3,0.51,37.83-0.85,10.55,0.12,21.19,0.09,31.78,8.93-9.94,17.96-19.81,26.64-29.96,0.67-3.87,0.27-7.87,0.29-11.79,0.2-1.92-1.64-3-2.75-4.23-8.34-7.79-16.33-15.96-24.78-23.63m-148.39,8.11c-0.11,1.82-0.22,3.64-0.31,5.46,12.39-1.78,24.76-3.73,37.14-5.58-0.05-2-0.09-4-0.13-6.01-12.23,2.06-24.47,4.04-36.7,6.13m-211.19,2.55c-6.89,8.42-14.27,16.44-21.15,24.87,16.44-2.51,32.88-5.01,49.29-7.73-7.36-6.2-14.9-12.18-22.24-18.41-1.98,0.41-3.94,0.83-5.9,1.27m-49.37,8.65c5.78,5.88,12.37,10.92,18.47,16.46,1.62,1.82,4.66,1.06,6.1-0.6,7.25-8.06,14.35-16.27,21.64-24.3-15.44,2.6-30.83,5.52-46.21,8.44m172.64,2.84c-0.04,1.64-0.09,3.28-0.12,4.92,12.52-1.68,24.98-3.76,37.51-5.34-0.07-2-0.15-3.99-0.23-5.98-12.39,2.11-24.78,4.21-37.16,6.4m-183.59,0.31c-6.58,7.56-13.43,14.89-19.91,22.54,15.99-2.31,31.93-4.93,47.9-7.38-7.11-6.12-14.33-12.11-21.56-18.08-2.28,0.59-4.95,0.84-6.43,2.92m-45.91,6.37c6.17,5.62,12.63,10.93,18.97,16.36,1.73,1.62,3.82-0.52,4.97-1.8,6.46-7.48,13.42-14.54,19.59-22.26-14.52,2.52-29.07,4.87-43.53,7.7m188.38-0.41c-0.24,1.71-0.4,3.42-0.49,5.15,12.22-1.7,24.38-3.84,36.58-5.7-0.03-1.86-0.06-3.73-0.08-5.59-12.02,1.94-23.98,4.27-36.01,6.14m-243.78,9.5c6.6,5.95,13.3,11.79,20.01,17.61,0.93-0.1,1.85-0.19,2.78-0.29,6.92-8.44,14.33-16.47,21.06-25.06-14.61,2.59-29.27,4.93-43.85,7.74m46.35-6.39c-6.55,7.61-13.39,14.98-19.79,22.71,14.98-2.39,29.91-5.11,44.87-7.6-6.5-5.87-13.27-11.44-19.84-17.23-1.85,0.42-4.06,0.37-5.24,2.12m157.3,3.34c-0.16,1.74-0.32,3.49-0.47,5.23,11.76-1.75,23.48-3.78,35.27-5.37,0.01-1.86-0.01-3.72-0.02-5.58-11.61,1.79-23.18,3.82-34.78,5.72m-38.71,6.19c-0.13,1.65-0.26,3.3-0.38,4.95,11.36-1.68,22.65-3.77,34.01-5.41-0.01-1.68-0.04-3.36-0.05-5.04-11.22,1.68-22.4,3.58-33.58,5.5m-172.78-0.7c-6.23,7.2-12.66,14.23-18.77,21.53,14.07-1.84,28.13-3.82,42.19-5.77-5.78-6.08-12.11-11.63-17.96-17.65-1.88,0.4-4.22,0.1-5.46,1.89m-42.72,6.9c5.31,5.56,10.96,10.79,16.34,16.29,1.86-0.49,4.12-0.48,5.3-2.26,5.88-7.05,11.98-13.92,17.72-21.09-13.14,2.26-26.22,4.83-39.36,7.06m179.11-0.28c-0.09,1.53-0.19,3.07-0.28,4.61,10.59-1.69,21.16-3.49,31.74-5.22-0.12-1.63-0.24-3.25-0.35-4.87-10.38,1.8-20.74,3.66-31.11,5.48m394.99,24.85c-2.43,2.09-1.24,5.5-1.4,8.28,9.22,7.95,18.25,16.11,27.57,23.93-0.2-20.26-0.45-40.52-0.89-60.78-8.72,9.25-16.77,19.12-25.28,28.57m-607.85-19.86c-6.44,7.69-13.12,15.19-19.35,23.05,22.11-3.48,44.17-7.29,66.24-11-5.45-5.81-11.4-11.12-17.02-16.77-9.97,1.54-19.91,3.18-29.87,4.72m174.96,1.09c0.03,1.41,0.08,2.82,0.13,4.24,10.76-1.48,21.47-3.33,32.2-5.01-0.09-1.67-0.19-3.34-0.28-5.01-10.7,1.84-21.37,3.86-32.05,5.78m-217.72,5.43c5.07,6.08,10.64,11.72,15.75,17.77,1.62-0.26,3.28-0.64,4.23-2.11,5.91-7.04,12.12-13.82,17.88-20.98-12.62,1.73-25.24,3.5-37.86,5.32m181.87,0.05c-0.05,1.56-0.08,3.11-0.1,4.67,10.24-1.55,20.47-3.23,30.7-4.85-0.13-1.54-0.26-3.08-0.38-4.61-10.08,1.57-20.13,3.32-30.22,4.79m-34.61,5.76c-0.1,1.22-0.2,2.44-0.31,3.66,9.59-1.32,19.17-2.65,28.76-3.97,0.08-1.53,0.17-3.07,0.26-4.6-9.58,1.56-19.11,3.44-28.71,4.91m-159.15-3.08c-0.11,4.59-0.18,9.17-0.26,13.76,5.14,5.61,9.78,11.7,15.27,16.97,0.13-4.36,0.2-8.73,0.36-13.1,2.77-0.56,5.54-1.12,8.31-1.68-4.81-5.91-10.25-11.27-15.24-17.03-2.82,0.31-5.63,0.68-8.44,1.08m124.85,8.34c-0.04,0.96-0.13,2.87-0.18,3.83,9.96-1.2,19.87-2.77,29.8-4.17-0.06-1.45-0.11-2.91-0.16-4.36-9.85,1.32-19.65,3.07-29.46,4.7m-32.46,5.41c0.03,0.75,0.07,2.26,0.09,3.01,9.42-1.2,18.84-2.4,28.26-3.63-0.04-0.93-0.1-2.79-0.13-3.73-9.41,1.43-18.81,2.93-28.22,4.35m-26.65,4.42c-2.41,0.59-6.68,0.05-5.8,3.84,8.96-1.35,18.04-2.16,26.9-3.97,0-0.81-0.02-2.41-0.02-3.21-7.05,0.94-14.04,2.29-21.08,3.34m-66.85-0.03c-0.47,14.53-1.04,29.06-1.3,43.59,5.12-5.91,9.87-12.12,14.91-18.1,2.66-2.61,3.35-7.72,0.45-10.37-4.74-4.99-9.15-10.29-14.06-15.12m33.46,5.64c-0.11,0.58-0.33,1.76-0.44,2.35,7.42-0.77,14.8-1.96,22.24-2.57,0.07-0.85,0.22-2.57,0.29-3.42-7.35,1.25-14.77,2.22-22.09,3.64m628.52-1.17c0.3,20.06,0.66,40.12,0.99,60.18,9.18-9.5,17.88-19.46,26.87-29.14-0.34-2.84,1.31-6.66-1.39-8.67-8.84-7.44-17.54-15.05-26.47-22.37m-663.62,43.95c-0.23,6.71-0.55,13.42-0.69,20.13-0.26,1.93,1.36,3.23,2.4,4.62,4.02,4.69,7.81,9.57,11.91,14.19,0.83-19.69,1.79-39.37,2.57-59.06-5.52,6.6-10.6,13.57-16.19,20.12m666.37,18.08c-2.42,2-1.88,5.3-1.85,8.08-0.23,1.62,1.36,2.44,2.33,3.42,8.77,7.49,17.25,15.31,26.1,22.7-0.39-20.77-0.89-41.53-1.34-62.29-8.8,8.99-16.74,18.8-25.24,28.09m-643.02-16.5c-0.21,10.25-0.54,20.5-0.71,30.76,0.84-0.09,2.51-0.28,3.35-0.37,0.6-10.2,0.62-20.44,0.99-30.65-0.91,0.07-2.73,0.19-3.63,0.26m624.47,2.43c-0.02,15.14,0.16,30.28,0.37,45.42,2.04-0.15,4.1-0.3,6.16-0.45-0.14-15.16-0.32-30.31-0.5-45.46-2.02,0.15-4.03,0.31-6.03,0.49m-648.93,21.76c-0.42,14.85-0.82,29.7-1.09,44.56,4.96-5.38,9.1-11.44,13.79-17.05,2.76-2.7,1.6-6.83,1.91-10.26-4.91-5.71-9.2-12.01-14.61-17.25m666.23,5.04c-0.15,6.44-0.51,12.93,0.32,19.35-0.57,14.27,0.28,28.59,0.27,42.88,9.23-9.99,18.3-20.13,27.5-30.15-0.11-2.52-0.22-5.03-0.3-7.55-9.19-8.26-18.44-16.45-27.79-24.53m-642.88,6.04c-0.29,10.71-0.59,21.41-0.87,32.12,0.89,0.01,2.68,0.04,3.57,0.06,0.32-10.77,0.43-21.54,0.7-32.3-0.85,0.03-2.55,0.09-3.4,0.12m-23.73,36.27c-1.82,1.85-1.26,4.56-1.4,6.92,5,5.91,9.08,12.64,14.52,18.16,0.36-14.43,0.9-28.87,1.14-43.3-5.13,5.76-9.45,12.19-14.26,18.22m668.4,21.54c-2.25,2.12-1.11,5.49-1.4,8.22,9.94,8.38,19.23,17.5,29.15,25.9-0.37-21.01-1.04-42.01-1.55-63.02-8.9,9.48-17.44,19.29-26.2,28.9m-669.8-9.26c-0.58,14.96-1.11,29.94-1.58,44.91,4.87-6.19,9.52-12.53,14.35-18.73,2.54-2.84,1.2-6.91,1.44-10.34-4.34-5.05-8.52-10.23-12.83-15.3-0.34-0.14-1.03-0.4-1.38-0.54m651.9,14.77c0.08,15.11,0.36,30.22,0.45,45.33,2.22-0.31,4.45-0.64,6.69-0.95,0.1-14.82-0.29-29.65-0.23-44.47-2.31-0.07-4.62-0.02-6.91,0.09m16.51,6.01c0.28,13.61,0.41,27.22,1.06,40.81-0.01,7.43-0.08,14.86,0.31,22.29,9.58-10.01,18.58-20.56,28.04-30.68-0.31-2.53,0.97-5.88-1.39-7.69-9.34-8.24-18.65-16.52-28.02-24.73m-669,25.98c-1.87,2.2-1.05,5.28-1.3,7.93,4.78,6.27,9.26,12.77,14.19,18.92,0.47-15.13,0.95-30.26,1.05-45.39-4.93,5.96-9.26,12.39-13.94,18.54m671.66,39.82c-2.21,2.11-1.07,5.46-1.33,8.15,10.17,8.45,19.42,17.96,29.25,26.8-0.28-21.61-0.57-43.21-0.87-64.82-9.16,9.82-17.98,19.96-27.05,29.87m-673.55-28.22c-0.55,15.36-1.3,30.73-1.64,46.1,4.97-5.78,9.3-12.07,14.08-18,2.83-2.75,1.6-6.95,1.93-10.44-4.77-5.9-9.26-12.05-14.37-17.66m654.85,5.36c0.25,14.99,0.5,29.98,0.76,44.97,2.37-0.3,4.74-0.6,7.12-0.9-0.25-14.86-0.51-29.72-0.74-44.58-2.39,0.15-4.76,0.32-7.14,0.51m-655.1,42.92c-2.01,2.24-1.36,5.38-1.55,8.14,4.74,6.63,9.36,13.36,14.17,19.95,0.37-15.77,1.18-31.53,1.32-47.3-4.77,6.31-9.26,12.83-13.94,19.21m672.41-8.25c0.33,19.45,0.87,38.9,1.29,58.35-0.23,1.45,0.7,2.48,1.75,3.33,8.01-8.61,16.24-17.03,24.41-25.5,3.37-2.76,3.29-9.1-0.34-11.6-9.15-8.07-17.71-16.81-27.11-24.58m-16.54,14.05c-0.07,15.79-0.14,31.57-0.02,47.35,2.63-0.33,5.26-0.66,7.89-1.03-0.26-15.61-0.71-31.21-0.79-46.82-2.37,0.12-4.73,0.29-7.08,0.5m-657.73,5.9c-0.72,15.43-1.4,30.86-1.99,46.3,5.15-6.71,10.73-13.11,15.66-19.96-0.34-3.2,1.42-7-1.05-9.65-4.25-5.53-8.18-11.31-12.62-16.69m675.97,46.54c0.33,2.94-0.98,6.75,1.85,8.78,9.33,8.96,18.58,18,27.87,27-0.48-21.65-1.08-43.3-1.58-64.95-9.58,9.53-18.64,19.57-28.14,29.17m-677.33,2.69c-1.7,1.94-1.15,4.63-1.32,7,4.93,6.53,9.49,13.33,14.55,19.76,0.25-4.54,0.11-9.09,0.18-13.64,1.17-10.94,1.19-21.98,1.56-32.98-5.31,6.37-9.94,13.27-14.97,19.86m659.78-4.04c-0.07,15.2,0.23,30.41,0.29,45.62,2.65-0.31,5.3-0.62,7.96-0.92-0.27-15.1-0.73-30.19-1.09-45.29-2.39,0.2-4.77,0.4-7.16,0.59m17.45,11.37c0.06,9.26,0.3,18.53,0.37,27.8,1.02,12.32,0.47,24.73,0.82,37.1,9.91-9.24,19.39-18.93,29.23-28.25-0.12-2.62-0.28-5.24-0.44-7.86-10-9.59-19.93-19.26-29.98-28.79m-679.49,6.72c-0.63,14.97-1.45,29.93-2.16,44.9,5.31-6.51,10.51-13.12,15.83-19.62,2.34-2.38,1.8-6.05,1.55-9.07-4.54-6.44-9.44-12.67-14.25-18.92-1.56-0.26-0.59,1.9-0.97,2.71m-0.86,46.72c-2.08,2.17-2.52,5.92-0.56,8.3,4.64,6.59,9.1,13.29,13.82,19.82,0.72-12.56,1.36-25.12,1.76-37.69,0.58-3.43,0.94-6.89,0.87-10.37-5.65,6.35-10.5,13.37-15.89,19.94m663.48-15.81c0.09,14.43,0.31,28.86,0.47,43.29,2.59-0.22,5.18-0.45,7.77-0.71-0.18-14.34-0.26-28.69-0.4-43.04-2.62,0.15-5.24,0.3-7.84,0.46m17.94,31.36c0.33,2.39-0.7,5.45,1.38,7.24,9.84,9.57,19.66,19.17,29.57,28.66-0.39-21.72-1.15-43.43-1.66-65.14-10,9.5-19.42,19.6-29.29,29.24m-683.13-4.79c-0.69,15.92-1.06,31.85-1.53,47.77,5.11-5.52,9.51-11.65,14.39-17.36,2.52-2.37,2.6-6.37,1.63-9.42-4.77-7.03-9.47-14.12-14.49-20.99m684.3,15.64c-0.66,10.97,0.04,21.96,0.08,32.94,0.57,17.31,0.37,34.63,0.47,51.95,10.25-9.51,20.4-19.14,30.47-28.84-0.36-8.79-0.5-17.59-0.8-26.39-10.08-9.88-20.24-19.68-30.22-29.66m-18.88,4.35c0.02,14.9,0.06,29.81,0.13,44.71,2.9-0.02,5.81-0.08,8.72-0.14-0.07-14.86-0.16-29.71-0.24-44.57-2.88-0.02-5.75-0.02-8.61,0m-667.7,33.52c-0.09,2-0.19,4.01-0.29,6.03,5.22,7.38,10.27,14.88,15.53,22.23,0.36-7.9,1.27-15.82,0.65-23.73,0.81-8.78,0.77-17.61,1.16-26.41-5.71,7.27-11.36,14.59-17.05,21.88m-0.45,9.98c-0.88,16.65-1.92,33.28-2.68,49.93,5.96-6.42,11.59-13.15,17.33-19.78-0.57-3.85,1.65-8.32-1.31-11.55-4.51-6.15-8.64-12.59-13.34-18.6m668.32,5.29c-0.01,13.88,0.35,27.77,0.44,41.65,2.74-0.19,5.48-0.39,8.23-0.6,0-13.75-0.06-27.5-0.12-41.24-2.85,0.08-5.7,0.15-8.55,0.19m19.36,36.93c0.19,2.93,0.68,5.82,1.19,8.72,9.95,9.85,19.82,19.77,29.86,29.54-0.26-22.7-0.5-45.41-0.9-68.11-10.16,9.84-20.01,20-30.15,29.85m-673.51-8.98c-5.09,6.03-10.01,12.2-15.1,18.24-0.79,1.05-1.91,2.07-1.84,3.52-0.29,3.81-0.27,7.64-0.47,11.46,3.03,0.03,6.05,0.09,9.08,0.16,6.42-7.42,13-14.72,19.26-22.28-3.48-0.17-6.96-0.34-10.45-0.48-0.19-3.55-0.36-7.08-0.48-10.62m15.36,0.47c-0.06,0.85-0.18,2.54-0.23,3.38,8.28-0.01,16.56,0.16,24.85,0.1,0.1-1.46,0.21-2.9,0.31-4.34-8.31,0.28-16.62,0.58-24.93,0.86m-3.01,11.82c-5.32,6.21-10.66,12.4-16.04,18.56-0.61,0.95-2.07,1.82-1.48,3.13,13.51,0.54,27.03,1,40.54,1.48-5.42-7.42-11.03-14.69-16.53-22.04-1.35-2.28-4.35-0.92-6.49-1.13m8.65-0.37c4.97,8.33,11.23,15.82,16.72,23.81,7.99,0.24,15.98,0.49,23.97,0.75-5.73-8.06-11.3-16.33-17.53-23.98-7.64-1.4-15.45-0.51-23.16-0.58m25.43,0.35c5.97,8.3,12.41,16.27,18.81,24.24,0.83-0.09,2.49-0.28,3.31-0.37,7.35-7.53,14.89-14.87,22.12-22.51-5.32-0.22-10.65-0.25-15.96-0.03-0.57-0.26-1.7-0.78-2.27-1.04-8.67-0.24-17.34-0.26-26.01-0.29m25,25.1c10.73,0.3,21.47,0.56,32.21,0.92,3.37,0.4,6.36-1.78,9.75-1.34-0.68-1.53-1.38-3.05-2.47-4.31-4.98-6.09-9.88-12.23-14.78-18.38-1.2-0.09-2.4-0.18-3.59-0.25-7,7.82-14.61,15.14-21.12,23.36m27.89-22.69c4.44,5.95,9.12,11.73,13.89,17.42,1.79,2.92,3.75,6.03,7.02,7.47,2.7-0.63,4.24-3.06,6.11-4.88,5.81-5.9,11.62-11.79,17.48-17.64-7.6-1.67-15.47-1.24-23.2-1.78-2.34-0.11-4.69-0.18-7.04-0.19-4.76-0.11-9.5-1.11-14.26-0.4m55.12,2.63c0.96,1.71,2.21,3.24,3.61,4.63,2.66,3.03,5.3,6.08,8.07,9.01,2.87,2.94,5.63,5.99,8.34,9.1,0.91,0.87,1.75,2.14,3.16,2.15,1.93-1.1,3.39-2.79,4.99-4.29,6.33-6.23,12.96-12.16,19.13-18.55-7.02-0.09-14.06-0.73-21.07-0.12-4.69-0.42-9.38-0.93-14.09-0.92v-0.27c-2.85-0.11-5.7-0.21-8.55-0.27v-0.33c-1.2-0.06-2.39-0.11-3.59-0.14m500.18,0.3c0.01,0.75,0.03,2.24,0.04,2.98-0.55,0.15-1.65,0.45-2.2,0.6-0.21,2.66-0.04,5.35,0.01,8.03,3.45,0.03,6.91,0.1,10.37,0.13,0.13-4.17,0.26-8.34,0.34-12.51-2.86,0.27-5.72,0.52-8.56,0.77m-529.5,22.08c10.65,1.03,21.41,0.79,32.09,1.62l0.01-0.25c2.82,0.3,5.65,0.46,8.49,0.57,2.06,0,4.12,0,6.19-0.02-1.81-2.47-3.76-4.83-5.92-6.99-2.36-3.56-5.37-6.64-8.14-9.87-2.24-2.24-4.3-4.64-6.3-7.1-1.69-0.11-3.38-0.21-5.06-0.29-7.03,7.53-14.26,14.87-21.36,22.33m435.87-21.95c0.02,2.49,0.07,4.98,0.12,7.49,14.66,0.63,29.31,1.26,43.97,1.86v-8.23c-14.7-0.38-29.39-1.40815-44.09-1.72815m-357.35,3.778c-7.13,7.25-14.5,14.28-21.47,21.68,15.87,0.74,31.76,1.43,47.64,2.11-6.95-8.45-14.34-16.52-21.34-24.93-1.64,0.16-3.69-0.4-4.83,1.14m8.15-1.1c6.67,7.91,13.72,15.5,20.55,23.28,1.29,2.02,3.79,1.19,5.77,1.28,7.56-7.72,15.68-14.89,22.97-22.87-2.48-0.36-4.99,1.82-7.26,0.21-1.01-0.51-2.09-0.77-3.22-0.77-12.93-0.46-25.91,0.01-38.81-1.13m397.75-0.62c0.14,2.68,0.3,5.38,0.5,8.07,12.49,0.34,24.98,1,37.48,1.27,0.32-2.72,0.69-5.42,1.07-8.13-13.02-0.45-26.03-0.98-39.05-1.21m64,1.05c-0.09,6.65,0.16,13.3,0.15,19.96-5.16-0.14-10.31-0.55-15.48-0.59,10.39,10.14,20.53,20.56,30.94,30.67,4.84,1.22,10.14,0.56,15.16,1.09-0.04-6.15,0.02-12.3-0.1-18.45,0.1-1.54-1.32-2.46-2.17-3.5-9.59-9.64-18.81-19.65-28.5-29.18m-410.7,2.96c-7.01,7.46-14.32,14.64-21.26,22.18,16.71,0.69,33.41,1.5,50.12,2.2-7.24-8.67-14.79-17.08-22.15-25.65-2.26,0.14-5.18-1.02-6.71,1.27m10.38-0.63c6.74,7.78,13.86,15.22,20.68,22.93,1.06,1.04,2.01,2.61,3.72,2.52,2.32,0.67,3.84-1.47,5.38-2.79,7.27-7.11,14.68-14.08,21.84-21.29-10.02-0.37-20.03-0.58-30.05-0.7-7.15-1.04-14.38-0.48-21.57-0.67m40.41,16.3c-3.29,3.31-6.98,6.24-9.87,9.93,17.7,1.52,35.49,1.81,53.21,2.93-7.22-9.39-15.81-17.64-23.64-26.52-1.65,0.09-3.31,0.03-4.94-0.25-5.13,4.41-9.81,9.3-14.76,13.91m23-14.07c7.77,9.25,16.06,18.04,24.26,26.91,1.8-0.23,4.03,0.41,5.37-1.16,8.4-7.88,16.99-15.56,25.3-23.53-4.98-0.16-9.97-0.82-14.94-0.22-1.94-0.68-3.92-1.31-5.99-1.22-11.33-0.17-22.66-0.67-34-0.78m56.07,4.16c-7.67,7.81-15.76,15.23-23.19,23.28,18.38,0.9,36.75,1.99,55.14,2.77-8.42-9.48-17.32-18.53-25.97-27.79-2.07,0.23-4.55-0.16-5.98,1.74m10.68-1.26c8.01,9.39,16.42,18.45,24.63,27.67,2.06,0.06,4.13,0.14,6.2,0.22,8.81-8.44,17.83-16.65,26.46-25.26-19.1-0.81-38.18-1.95-57.29-2.63m69.85,3.46c8.5,9.13,17.48,17.85,26.41,26.57,1.41-1.66,3.27-2.68,5.52-2.5,0.46,1.49,1.99,2.29,3.02,3.39,1.97-1.89,3.96-3.77,6.03-5.55,4.7-3.8,8.85-8.22,13.35-12.24,2.06-2.04,5.02-3.78,4.7-7.1-6.06-0.24-12.11-0.53-18.17-0.86-4.22468-0.50283-2.18781-0.13511-8.97837-0.64348-10.59,0.53-21.2916-0.93652-31.8816-1.06652m-35.57,25.3c20.08,1.04,40.17,2.12,60.26,3.1-9.24-9.72-19.07-18.85-28.48-28.4-1.66,0.13-3.31,0.28-4.96,0.42-9,8.23-17.97,16.49-26.82,24.88m100-21.53c-1.9,1.87-3.77,3.77-5.6,5.71-5.41,5.81-11.27,11.18-16.99,16.68-0.05,1.04-0.1,2.08-0.14,3.14,5.71,0.26,11.41,0.88,17.13,1.02,2.97,0.1,5.94,0.19,8.92,0.27,8.55,0.77,17.13,1.05,25.69,1.75,2.3,0.23,4.62,0.24,6.93-0.04-8.97-9.58-18.52-18.6-27.31-28.33-1.81-0.08-3.62-0.13-5.41-0.18-0.81,0-2.42-0.01-3.22-0.02m11.38,0.06c9.51,9.9,19.2,19.68,29.01,29.27,11.14,1.09,22.4,1.28,33.59,2,1.77,0.36,2.93-1.25,4.16-2.21,9.16-8.57,18.57-16.86,27.69-25.46-9.96-0.5-19.92-1-29.87-1.56-2.97-0.44-5.34021-0.1612-8.81-0.34-18.58-0.75-37.18-1.18-55.77-1.7m96.64,5.61c-9.35,8.66-19.08,16.91-28.21,25.8,20.9272,2.17305,34.8814,2.84837,67.86,3.94-1.85-2.25-3.9-4.31-6-6.31-8.36-8.1-16.41-16.52-24.81-24.57-2.96,0.25-5.89,0.78-8.84,1.14z" fill="#080a19"/>
<path d="m670.46,62.7c1.1-0.21,2.22-0.42,3.34-0.63v1.95c0,1.34,0.01,2.68,0.04,4.02,0.1,8.3,0.19,16.59,0.27,24.89,0.03,8.77,0.11,17.54,0.28,26.31,0.05,9.96,0.15,19.92,0.27,29.88,0.01,0.79,0.04,2.38,0.06,3.17,0.18,11.54,0.19,23.08,0.34,34.62,0.29,28.04,0.54,56.08,0.9,84.13,0.02,3.95,0.08,7.9,0.12,11.86,1.16,118.21,2.47,236.41,3.66,354.62-32.25-1.22-64.5-2.37-96.75-3.57-8.36-0.37-16.72-0.73-25.09-0.95-1.62-0.05-3.23-0.09-4.83-0.15-7.42-0.33-14.84-0.72-22.27-0.84l-0.55-0.01c-1.38-0.03-2.75-0.06-4.12-0.08-16.42-0.71-32.85-1.25-49.27-1.84-10.19-0.38-20.37-0.74-30.56-1.14-1.44-0.05-2.89-0.09-4.32-0.12l-0.79-0.01c-7.45-0.34-14.9-0.62-22.36-0.83-0.68-0.02-2.04-0.05-2.72-0.07-7.41-0.38-14.82-0.61-22.24-0.84-0.71-0.03-2.12-0.08-2.83-0.1-18.08-0.69-36.15-1.42-54.23-1.93l-0.75-0.03c-8.05-0.45-16.11-0.64-24.16-0.95-9.7-0.33-19.41-0.7-29.11-1.06-1.25-0.05-2.5-0.08-3.75-0.1-11.4-0.35-22.79-0.69-34.19-1.03-1.45-0.05-2.89-0.1-4.33-0.13-10.72-0.31-21.44-0.64-32.17-0.95-1.49-0.06-2.99-0.11-4.48-0.14-5.57-0.12-11.14-0.33-16.71-0.36-0.78-0.05-2.34-0.15-3.12-0.2-4.6-0.19-9.21-0.27-13.82-0.41-1.23-0.04-2.45-0.08-3.68-0.11-6.77-0.2-13.54-0.36-20.31-0.59-2.31-0.09-4.61-0.17-6.91-0.22-0.57-0.02-1.72-0.06-2.3-0.07-1.35-0.07-2.7-0.12-4.05-0.16-5.98-0.19-11.95-0.47-17.93-0.62-7.76-0.19-15.5-0.88-23.26-0.85-1.57-0.05-3.15-0.11-4.72-0.15-16.91-1.31-33.81,0.21-50.73,0.48,0.32-5.11,0.36-10.22,0.67-15.33,0.32-6.3,0.55-12.6,0.78-18.91l0.77,0.58c-0.46-14.22,2.06-28.41,0.67-42.6,0.41,1.9,0.86,3.81,1.35,5.7-0.29-12.23,1.07-24.5,1.5-36.75,0.23-5.11,0.84-10.2,0.76-15.31,0.6-7.9,0.84-15.83,1.25-23.74,0.28-5.42,0.68-10.83,0.86-16.25,0.37-7.58,0.77-15.16,1.12-22.73,0.33-5.39,0.58-10.78,0.79-16.17,0.41-9.28,0.84-18.55,1.24-27.83,0.34-6.39,0.64-12.79,0.86-19.19,0.02-0.44,0.06-1.33,0.08-1.78,0.71-14.07,1.37-28.14,1.9-42.21,0.02-0.46,0.06-1.36,0.08-1.81,0.4-6.64,0.69-13.29,0.89-19.94,0.07-2.35,0.13-4.71,0.18-7.06,1.34-42.4,2.62-84.8,3.86-127.2,0.04-1.27,0.05-2.53,0.04-3.79,0.06-1.78,0.14-3.56,0.3-5.34,0.04-0.28,0.12-0.86,0.17-1.15l0.12-0.57c158.52-24.7,317.09-49.07,475.59-73.89l0.66-0.1c45.9-6.95,91.78-14.12,137.64-21.32z" fill="#edeae5"/>
<path opacity="0.05" d="m34.66,581.87c0.61,0.11,1.85,0.34,2.47,0.46-0.64,6.57-0.22,13.15-0.13,19.73-0.31,5.11-0.35,10.22-0.67,15.33,0.27,0.35,0.8,1.06,1.07,1.41-0.2,0.63-0.39,1.28-0.59,1.94-0.64,0-1.93,0.01-2.57,0.01,0.02-2.35,0.06-4.71,0.12-7.05l1.53,0.97c0.13-1.14,0.25-2.27,0.37-3.4-0.92-0.92-1.35-2-1.32-3.25-0.05-8.06,0.68-16.13,0.47-24.19l-0.75-1.96z" fill="#000001"/>
</g>
</g>
</svg>
